%FSLAX46Y46*%
G04 Gerber Fmt 4.6, Leading zero omitted, Abs format (unit mm)*
G04 Created by KiCad (PCBNEW (2014-08-24 BZR 5095)-product) date Mon 25 Aug 2014 03:48:29 PM CEST*
%MOMM*%
G01*
G04 APERTURE LIST*
%ADD10C,0.100000*%
%ADD11C,0.200000*%
%ADD12R,3.000000X3.800000*%
%ADD13R,0.998220X1.099820*%
%ADD14R,1.800000X1.800000*%
%ADD15R,3.800000X1.400000*%
%ADD16C,2.000000*%
%ADD17R,1.400000X1.000000*%
G04 APERTURE END LIST*
D10*
D11*
X135962381Y-127850476D02*
X136962381Y-127517143D01*
X135962381Y-127183809D01*
X135962381Y-126660000D02*
X135962381Y-126564761D01*
X136010000Y-126469523D01*
X136057619Y-126421904D01*
X136152857Y-126374285D01*
X136343333Y-126326666D01*
X136581429Y-126326666D01*
X136771905Y-126374285D01*
X136867143Y-126421904D01*
X136914762Y-126469523D01*
X136962381Y-126564761D01*
X136962381Y-126660000D01*
X136914762Y-126755238D01*
X136867143Y-126802857D01*
X136771905Y-126850476D01*
X136581429Y-126898095D01*
X136343333Y-126898095D01*
X136152857Y-126850476D01*
X136057619Y-126802857D01*
X136010000Y-126755238D01*
X135962381Y-126660000D01*
X136867143Y-125898095D02*
X136914762Y-125850476D01*
X136962381Y-125898095D01*
X136914762Y-125945714D01*
X136867143Y-125898095D01*
X136962381Y-125898095D01*
X136057619Y-125469524D02*
X136010000Y-125421905D01*
X135962381Y-125326667D01*
X135962381Y-125088571D01*
X136010000Y-124993333D01*
X136057619Y-124945714D01*
X136152857Y-124898095D01*
X136248095Y-124898095D01*
X136390952Y-124945714D01*
X136962381Y-125517143D01*
X136962381Y-124898095D01*
X135962381Y-124279048D02*
X135962381Y-124183809D01*
X136010000Y-124088571D01*
X136057619Y-124040952D01*
X136152857Y-123993333D01*
X136343333Y-123945714D01*
X136581429Y-123945714D01*
X136771905Y-123993333D01*
X136867143Y-124040952D01*
X136914762Y-124088571D01*
X136962381Y-124183809D01*
X136962381Y-124279048D01*
X136914762Y-124374286D01*
X136867143Y-124421905D01*
X136771905Y-124469524D01*
X136581429Y-124517143D01*
X136343333Y-124517143D01*
X136152857Y-124469524D01*
X136057619Y-124421905D01*
X136010000Y-124374286D01*
X135962381Y-124279048D01*
X136867143Y-123517143D02*
X136914762Y-123469524D01*
X136962381Y-123517143D01*
X136914762Y-123564762D01*
X136867143Y-123517143D01*
X136962381Y-123517143D01*
X136962381Y-122612381D02*
X136438571Y-122612381D01*
X136343333Y-122660000D01*
X136295714Y-122755238D01*
X136295714Y-122945715D01*
X136343333Y-123040953D01*
X136914762Y-122612381D02*
X136962381Y-122707619D01*
X136962381Y-122945715D01*
X136914762Y-123040953D01*
X136819524Y-123088572D01*
X136724286Y-123088572D01*
X136629048Y-123040953D01*
X136581429Y-122945715D01*
X136581429Y-122707619D01*
X136533810Y-122612381D01*
X143519048Y-130221429D02*
X144280953Y-130221429D01*
X155729048Y-130221429D02*
X156490953Y-130221429D01*
X157950000Y-122300000D02*
X154550000Y-122300000D01*
X154550000Y-122300000D02*
X154550000Y-120500000D01*
X154550000Y-120500000D02*
X157950000Y-120500000D01*
X157950000Y-120500000D02*
X157950000Y-122300000D01*
X155818200Y-120968200D02*
X155411800Y-120968200D01*
X155411800Y-120968200D02*
X155411800Y-121831800D01*
X155818200Y-121831800D02*
X155411800Y-121831800D01*
X155818200Y-120968200D02*
X155818200Y-121831800D01*
X157088200Y-120968200D02*
X156681800Y-120968200D01*
X156681800Y-120968200D02*
X156681800Y-121831800D01*
X157088200Y-121831800D02*
X156681800Y-121831800D01*
X157088200Y-120968200D02*
X157088200Y-121831800D01*
X156681800Y-121044400D02*
X155818200Y-121044400D01*
X155818200Y-121755600D02*
X156681800Y-121755600D01*
X148330000Y-123030000D02*
X148330000Y-126030000D01*
X149230000Y-124030000D02*
X149230000Y-125030000D01*
X150830000Y-124030000D02*
X150830000Y-125030000D01*
X151730000Y-123030000D02*
X151730000Y-126030000D01*
X152330000Y-121130000D02*
X152330000Y-127930000D01*
X152330000Y-127930000D02*
X147730000Y-127930000D01*
X147730000Y-127930000D02*
X147730000Y-121130000D01*
X147730000Y-121130000D02*
X152330000Y-121130000D01*
X144940000Y-131400000D02*
X148750000Y-131400000D01*
X144940000Y-128860000D02*
X148750000Y-128860000D01*
X151290000Y-131400000D02*
X155100000Y-131400000D01*
X151290000Y-128860000D02*
X155100000Y-128860000D01*
X155100000Y-128860000D02*
X155100000Y-131400000D01*
X144940000Y-131400000D02*
X144940000Y-128860000D01*
X147480000Y-128860000D02*
X147480000Y-131400000D01*
X144940000Y-128860000D02*
X144940000Y-128860000D01*
X144940000Y-128860000D02*
X144940000Y-128860000D01*
X152570000Y-131400000D02*
X152570000Y-128860000D01*
X146290000Y-126650000D02*
X141890000Y-126650000D01*
X141890000Y-126650000D02*
X141890000Y-122850000D01*
X141890000Y-122850000D02*
X146290000Y-122850000D01*
X146290000Y-122850000D02*
X146290000Y-126650000D01*
X144801200Y-124521400D02*
X144801200Y-124978600D01*
X144801200Y-124978600D02*
X145382860Y-124978600D01*
X145382860Y-124521400D02*
X145382860Y-124978600D01*
X144801200Y-124521400D02*
X145382860Y-124521400D01*
X142797140Y-125461200D02*
X142797140Y-125918400D01*
X142797140Y-125918400D02*
X143378800Y-125918400D01*
X143378800Y-125461200D02*
X143378800Y-125918400D01*
X142797140Y-125461200D02*
X143378800Y-125461200D01*
X142797140Y-123581600D02*
X142797140Y-124038800D01*
X142797140Y-124038800D02*
X143378800Y-124038800D01*
X143378800Y-123581600D02*
X143378800Y-124038800D01*
X142797140Y-123581600D02*
X143378800Y-123581600D01*
X143790280Y-124252160D02*
X143790280Y-125247840D01*
X143790280Y-125247840D02*
X144389720Y-125247840D01*
X144389720Y-124252160D02*
X144389720Y-125247840D01*
X143790280Y-124252160D02*
X144389720Y-124252160D01*
X144747860Y-126169860D02*
X143432140Y-126169860D01*
X143432140Y-126169860D02*
X143432140Y-123330140D01*
X143432140Y-123330140D02*
X144747860Y-123330140D01*
X144747860Y-123330140D02*
X144747860Y-126169860D01*
X153550000Y-122850000D02*
X157950000Y-122850000D01*
X157950000Y-122850000D02*
X157950000Y-126650000D01*
X157950000Y-126650000D02*
X153550000Y-126650000D01*
X153550000Y-126650000D02*
X153550000Y-122850000D01*
X155038800Y-124978600D02*
X155038800Y-124521400D01*
X155038800Y-124521400D02*
X154457140Y-124521400D01*
X154457140Y-124978600D02*
X154457140Y-124521400D01*
X155038800Y-124978600D02*
X154457140Y-124978600D01*
X157042860Y-124038800D02*
X157042860Y-123581600D01*
X157042860Y-123581600D02*
X156461200Y-123581600D01*
X156461200Y-124038800D02*
X156461200Y-123581600D01*
X157042860Y-124038800D02*
X156461200Y-124038800D01*
X157042860Y-125918400D02*
X157042860Y-125461200D01*
X157042860Y-125461200D02*
X156461200Y-125461200D01*
X156461200Y-125918400D02*
X156461200Y-125461200D01*
X157042860Y-125918400D02*
X156461200Y-125918400D01*
X156049720Y-125247840D02*
X156049720Y-124252160D01*
X156049720Y-124252160D02*
X155450280Y-124252160D01*
X155450280Y-125247840D02*
X155450280Y-124252160D01*
X156049720Y-125247840D02*
X155450280Y-125247840D01*
X155092140Y-123330140D02*
X156407860Y-123330140D01*
X156407860Y-123330140D02*
X156407860Y-126169860D01*
X156407860Y-126169860D02*
X155092140Y-126169860D01*
X155092140Y-126169860D02*
X155092140Y-123330140D01*
X141860000Y-120500000D02*
X145260000Y-120500000D01*
X145260000Y-120500000D02*
X145260000Y-122300000D01*
X145260000Y-122300000D02*
X141860000Y-122300000D01*
X141860000Y-122300000D02*
X141860000Y-120500000D01*
X143991800Y-121831800D02*
X144398200Y-121831800D01*
X144398200Y-121831800D02*
X144398200Y-120968200D01*
X143991800Y-120968200D02*
X144398200Y-120968200D01*
X143991800Y-121831800D02*
X143991800Y-120968200D01*
X142721800Y-121831800D02*
X143128200Y-121831800D01*
X143128200Y-121831800D02*
X143128200Y-120968200D01*
X142721800Y-120968200D02*
X143128200Y-120968200D01*
X142721800Y-121831800D02*
X142721800Y-120968200D01*
X143128200Y-121755600D02*
X143991800Y-121755600D01*
X143991800Y-121044400D02*
X143128200Y-121044400D01*
X159053334Y-121832381D02*
X158720000Y-121356190D01*
X158481905Y-121832381D02*
X158481905Y-120832381D01*
X158862858Y-120832381D01*
X158958096Y-120880000D01*
X159005715Y-120927619D01*
X159053334Y-121022857D01*
X159053334Y-121165714D01*
X159005715Y-121260952D01*
X158958096Y-121308571D01*
X158862858Y-121356190D01*
X158481905Y-121356190D01*
X159434286Y-120927619D02*
X159481905Y-120880000D01*
X159577143Y-120832381D01*
X159815239Y-120832381D01*
X159910477Y-120880000D01*
X159958096Y-120927619D01*
X160005715Y-121022857D01*
X160005715Y-121118095D01*
X159958096Y-121260952D01*
X159386667Y-121832381D01*
X160005715Y-121832381D01*
X146326667Y-121418571D02*
X145993333Y-121418571D01*
X145993333Y-121942381D02*
X145993333Y-120942381D01*
X146469524Y-120942381D01*
X147374286Y-121942381D02*
X146802857Y-121942381D01*
X147088571Y-121942381D02*
X147088571Y-120942381D01*
X146993333Y-121085238D01*
X146898095Y-121180476D01*
X146802857Y-121228095D01*
X142614762Y-128257619D02*
X142519524Y-128210000D01*
X142424286Y-128114762D01*
X142281429Y-127971905D01*
X142186190Y-127924286D01*
X142090952Y-127924286D01*
X142138571Y-128162381D02*
X142043333Y-128114762D01*
X141948095Y-128019524D01*
X141900476Y-127829048D01*
X141900476Y-127495714D01*
X141948095Y-127305238D01*
X142043333Y-127210000D01*
X142138571Y-127162381D01*
X142329048Y-127162381D01*
X142424286Y-127210000D01*
X142519524Y-127305238D01*
X142567143Y-127495714D01*
X142567143Y-127829048D01*
X142519524Y-128019524D01*
X142424286Y-128114762D01*
X142329048Y-128162381D01*
X142138571Y-128162381D01*
X143519524Y-128162381D02*
X142948095Y-128162381D01*
X143233809Y-128162381D02*
X143233809Y-127162381D01*
X143138571Y-127305238D01*
X143043333Y-127400476D01*
X142948095Y-127448095D01*
X157014762Y-128247619D02*
X156919524Y-128200000D01*
X156824286Y-128104762D01*
X156681429Y-127961905D01*
X156586190Y-127914286D01*
X156490952Y-127914286D01*
X156538571Y-128152381D02*
X156443333Y-128104762D01*
X156348095Y-128009524D01*
X156300476Y-127819048D01*
X156300476Y-127485714D01*
X156348095Y-127295238D01*
X156443333Y-127200000D01*
X156538571Y-127152381D01*
X156729048Y-127152381D01*
X156824286Y-127200000D01*
X156919524Y-127295238D01*
X156967143Y-127485714D01*
X156967143Y-127819048D01*
X156919524Y-128009524D01*
X156824286Y-128104762D01*
X156729048Y-128152381D01*
X156538571Y-128152381D01*
X157348095Y-127247619D02*
X157395714Y-127200000D01*
X157490952Y-127152381D01*
X157729048Y-127152381D01*
X157824286Y-127200000D01*
X157871905Y-127247619D01*
X157919524Y-127342857D01*
X157919524Y-127438095D01*
X157871905Y-127580952D01*
X157300476Y-128152381D01*
X157919524Y-128152381D01*
X140393334Y-121792381D02*
X140060000Y-121316190D01*
X139821905Y-121792381D02*
X139821905Y-120792381D01*
X140202858Y-120792381D01*
X140298096Y-120840000D01*
X140345715Y-120887619D01*
X140393334Y-120982857D01*
X140393334Y-121125714D01*
X140345715Y-121220952D01*
X140298096Y-121268571D01*
X140202858Y-121316190D01*
X139821905Y-121316190D01*
X141345715Y-121792381D02*
X140774286Y-121792381D01*
X141060000Y-121792381D02*
X141060000Y-120792381D01*
X140964762Y-120935238D01*
X140869524Y-121030476D01*
X140774286Y-121078095D01*
%LPC*%
D12*
X140100000Y-124700000D03*
X159900000Y-124700000D03*
D13*
X157098360Y-121400000D03*
X155401640Y-121400000D03*
D14*
X150030000Y-123030000D03*
X150030000Y-126030000D03*
D15*
X150030000Y-122230000D03*
X150030000Y-126830000D03*
D16*
X146210000Y-130130000D03*
X148750000Y-130130000D03*
X151290000Y-130130000D03*
X153830000Y-130130000D03*
D17*
X142990000Y-123800000D03*
X142990000Y-125700000D03*
X145190000Y-124750000D03*
X156850000Y-125700000D03*
X156850000Y-123800000D03*
X154650000Y-124750000D03*
D13*
X142711640Y-121400000D03*
X144408360Y-121400000D03*
M02*
