%FSLAX46Y46*%
G04 Gerber Fmt 4.6, Leading zero omitted, Abs format (unit mm)*
G04 Created by KiCad (PCBNEW (2014-08-24 BZR 5095)-product) date Mon 25 Aug 2014 03:48:29 PM CEST*
%MOMM*%
G01*
G04 APERTURE LIST*
%ADD10C,0.100000*%
%ADD11R,3.000000X3.800000*%
%ADD12C,2.000000*%
%ADD13C,0.609600*%
G04 APERTURE END LIST*
D10*
D11*
X140100000Y-124700000D03*
X159900000Y-124700000D03*
D12*
X146210000Y-130130000D03*
X148750000Y-130130000D03*
X151290000Y-130130000D03*
X153830000Y-130130000D03*
D13*
X154190000Y-121400000D03*
X145310000Y-121400000D03*
D10*
X161568088Y-117606452D02*
X161568088Y-117606452D01*
X138395778Y-117657252D02*
X138517513Y-117657252D01*
X161446063Y-117657252D02*
X161597010Y-117657252D01*
X138367000Y-117708052D02*
X138642009Y-117708052D01*
X161324038Y-117708052D02*
X161625932Y-117708052D01*
X138338222Y-117758852D02*
X138766505Y-117758852D01*
X161202013Y-117758852D02*
X161654854Y-117758852D01*
X138309444Y-117809652D02*
X138891001Y-117809652D01*
X161079988Y-117809652D02*
X161683776Y-117809652D01*
X138280665Y-117860452D02*
X139015497Y-117860452D01*
X160957962Y-117860452D02*
X161712697Y-117860452D01*
X138251887Y-117911252D02*
X139139993Y-117911252D01*
X160835937Y-117911252D02*
X161741619Y-117911252D01*
X138223109Y-117962052D02*
X139264489Y-117962052D01*
X160713912Y-117962052D02*
X161770541Y-117962052D01*
X138194331Y-118012852D02*
X139388985Y-118012852D01*
X160591887Y-118012852D02*
X161799463Y-118012852D01*
X138165553Y-118063652D02*
X139513481Y-118063652D01*
X160469862Y-118063652D02*
X161828384Y-118063652D01*
X138136775Y-118114452D02*
X139637977Y-118114452D01*
X160347836Y-118114452D02*
X161857306Y-118114452D01*
X138107997Y-118165252D02*
X139762474Y-118165252D01*
X160225811Y-118165252D02*
X161886228Y-118165252D01*
X138079219Y-118216052D02*
X139886970Y-118216052D01*
X160103786Y-118216052D02*
X161915150Y-118216052D01*
X138050440Y-118266852D02*
X140011466Y-118266852D01*
X159981761Y-118266852D02*
X161944071Y-118266852D01*
X138021662Y-118317652D02*
X140135962Y-118317652D01*
X159859735Y-118317652D02*
X161972993Y-118317652D01*
X137992884Y-118368452D02*
X140260458Y-118368452D01*
X159737710Y-118368452D02*
X162001915Y-118368452D01*
X137964106Y-118419252D02*
X140384954Y-118419252D01*
X159615685Y-118419252D02*
X162030837Y-118419252D01*
X137935328Y-118470052D02*
X140509450Y-118470052D01*
X159493660Y-118470052D02*
X162059758Y-118470052D01*
X137906550Y-118520852D02*
X140633946Y-118520852D01*
X159371635Y-118520852D02*
X162088680Y-118520852D01*
X137877772Y-118571652D02*
X140758442Y-118571652D01*
X159249609Y-118571652D02*
X162117602Y-118571652D01*
X137848993Y-118622452D02*
X140882938Y-118622452D01*
X159127584Y-118622452D02*
X162146524Y-118622452D01*
X137820215Y-118673252D02*
X141007434Y-118673252D01*
X159005559Y-118673252D02*
X162175445Y-118673252D01*
X137791437Y-118724052D02*
X141131930Y-118724052D01*
X158883534Y-118724052D02*
X162204367Y-118724052D01*
X137762659Y-118774852D02*
X141256426Y-118774852D01*
X158761508Y-118774852D02*
X162233289Y-118774852D01*
X137733881Y-118825652D02*
X141380922Y-118825652D01*
X158639483Y-118825652D02*
X162262211Y-118825652D01*
X137705103Y-118876452D02*
X141505418Y-118876452D01*
X158517458Y-118876452D02*
X162291132Y-118876452D01*
X137676325Y-118927252D02*
X141629914Y-118927252D01*
X158395433Y-118927252D02*
X162320054Y-118927252D01*
X137647547Y-118978052D02*
X141754410Y-118978052D01*
X158273408Y-118978052D02*
X162348976Y-118978052D01*
X137618768Y-119028852D02*
X141878906Y-119028852D01*
X158151382Y-119028852D02*
X162377898Y-119028852D01*
X137589990Y-119079652D02*
X142003402Y-119079652D01*
X158029357Y-119079652D02*
X162406819Y-119079652D01*
X137561212Y-119130452D02*
X142127898Y-119130452D01*
X157907332Y-119130452D02*
X162435741Y-119130452D01*
X137532434Y-119181252D02*
X142252394Y-119181252D01*
X157785307Y-119181252D02*
X162464663Y-119181252D01*
X137503656Y-119232052D02*
X142376890Y-119232052D01*
X157663282Y-119232052D02*
X162493585Y-119232052D01*
X137474878Y-119282852D02*
X142501386Y-119282852D01*
X157541256Y-119282852D02*
X162522506Y-119282852D01*
X137446100Y-119333652D02*
X142625882Y-119333652D01*
X157396015Y-119333652D02*
X162551428Y-119333652D01*
X137417322Y-119384452D02*
X142771232Y-119384452D01*
X157147157Y-119384452D02*
X162580350Y-119384452D01*
X137388543Y-119435252D02*
X143030042Y-119435252D01*
X156895270Y-119435252D02*
X162609272Y-119435252D01*
X137359765Y-119486052D02*
X143291441Y-119486052D01*
X156643382Y-119486052D02*
X162638193Y-119486052D01*
X137330987Y-119536852D02*
X143552841Y-119536852D01*
X156391495Y-119536852D02*
X162667115Y-119536852D01*
X137302209Y-119587652D02*
X143814240Y-119587652D01*
X156139608Y-119587652D02*
X162696037Y-119587652D01*
X137273431Y-119638452D02*
X144075639Y-119638452D01*
X155887721Y-119638452D02*
X162724959Y-119638452D01*
X137244653Y-119689252D02*
X144337038Y-119689252D01*
X155635834Y-119689252D02*
X162753880Y-119689252D01*
X137215875Y-119740052D02*
X144598438Y-119740052D01*
X155383947Y-119740052D02*
X162782802Y-119740052D01*
X137187096Y-119790852D02*
X144859837Y-119790852D01*
X155132060Y-119790852D02*
X162811724Y-119790852D01*
X137158318Y-119841652D02*
X145121236Y-119841652D01*
X154880172Y-119841652D02*
X162840646Y-119841652D01*
X137129540Y-119892452D02*
X145382635Y-119892452D01*
X154628285Y-119892452D02*
X162869567Y-119892452D01*
X137100762Y-119943252D02*
X145644035Y-119943252D01*
X154376398Y-119943252D02*
X162898489Y-119943252D01*
X137071984Y-119994052D02*
X145905434Y-119994052D01*
X154124511Y-119994052D02*
X162927411Y-119994052D01*
X137043206Y-120044852D02*
X146166833Y-120044852D01*
X153872624Y-120044852D02*
X162956333Y-120044852D01*
X137014428Y-120095652D02*
X146428232Y-120095652D01*
X153620737Y-120095652D02*
X162985254Y-120095652D01*
X136985650Y-120146452D02*
X146689631Y-120146452D01*
X153368850Y-120146452D02*
X163014176Y-120146452D01*
X136956871Y-120197252D02*
X146951031Y-120197252D01*
X153116962Y-120197252D02*
X163043098Y-120197252D01*
X136928093Y-120248052D02*
X147212430Y-120248052D01*
X152865075Y-120248052D02*
X163072020Y-120248052D01*
X136899315Y-120298852D02*
X147473829Y-120298852D01*
X152612943Y-120298852D02*
X163100941Y-120298852D01*
X136870537Y-120349652D02*
X163129863Y-120349652D01*
X136841759Y-120400452D02*
X163158785Y-120400452D01*
X136812981Y-120451252D02*
X163187707Y-120451252D01*
X136784203Y-120502052D02*
X163216628Y-120502052D01*
X136755425Y-120552852D02*
X163245550Y-120552852D01*
X136726646Y-120603652D02*
X163274472Y-120603652D01*
X136697868Y-120654452D02*
X163303394Y-120654452D01*
X136669090Y-120705252D02*
X163332315Y-120705252D01*
X136640312Y-120756052D02*
X163361237Y-120756052D01*
X136611534Y-120806852D02*
X163390159Y-120806852D01*
X136582756Y-120857652D02*
X163419081Y-120857652D01*
X136553978Y-120908452D02*
X163448002Y-120908452D01*
X136525199Y-120959252D02*
X163476924Y-120959252D01*
X136496421Y-121010052D02*
X163505846Y-121010052D01*
X136467643Y-121060852D02*
X163534768Y-121060852D01*
X136438865Y-121111652D02*
X163563689Y-121111652D01*
X136410087Y-121162452D02*
X163592611Y-121162452D01*
X136381309Y-121213252D02*
X163621533Y-121213252D01*
X136352531Y-121264052D02*
X163650455Y-121264052D01*
X136323753Y-121314852D02*
X163679376Y-121314852D01*
X136294974Y-121365652D02*
X163708298Y-121365652D01*
X136266196Y-121416452D02*
X163737220Y-121416452D01*
X136237418Y-121467252D02*
X163766142Y-121467252D01*
X136208640Y-121518052D02*
X163795063Y-121518052D01*
X136179862Y-121568852D02*
X163823985Y-121568852D01*
X136151084Y-121619652D02*
X163852907Y-121619652D01*
X136122306Y-121670452D02*
X163881829Y-121670452D01*
X136093528Y-121721252D02*
X163910750Y-121721252D01*
X136064749Y-121772052D02*
X163939672Y-121772052D01*
X136035971Y-121822852D02*
X163968594Y-121822852D01*
X136007193Y-121873652D02*
X163997516Y-121873652D01*
X135978415Y-121924452D02*
X164026437Y-121924452D01*
X135949637Y-121975252D02*
X164055359Y-121975252D01*
X135920859Y-122026052D02*
X164084281Y-122026052D01*
X135892081Y-122076852D02*
X164113203Y-122076852D01*
X135863302Y-122127652D02*
X164142124Y-122127652D01*
X135834524Y-122178452D02*
X164171046Y-122178452D01*
X135805746Y-122229252D02*
X164199968Y-122229252D01*
X135776968Y-122280052D02*
X164228890Y-122280052D01*
X135748190Y-122330852D02*
X164257811Y-122330852D01*
X135719412Y-122381652D02*
X138434074Y-122381652D01*
X141765925Y-122381652D02*
X158234074Y-122381652D01*
X161565925Y-122381652D02*
X164286733Y-122381652D01*
X135690634Y-122432452D02*
X138340095Y-122432452D01*
X141859904Y-122432452D02*
X158140095Y-122432452D01*
X161659904Y-122432452D02*
X164315655Y-122432452D01*
X135661856Y-122483252D02*
X138280352Y-122483252D01*
X141919648Y-122483252D02*
X158080352Y-122483252D01*
X161719648Y-122483252D02*
X164344577Y-122483252D01*
X135633077Y-122534052D02*
X138236490Y-122534052D01*
X141963509Y-122534052D02*
X158036490Y-122534052D01*
X161763509Y-122534052D02*
X164373498Y-122534052D01*
X135604299Y-122584852D02*
X138202546Y-122584852D01*
X141997453Y-122584852D02*
X158002546Y-122584852D01*
X161797453Y-122584852D02*
X164402420Y-122584852D01*
X135575521Y-122635652D02*
X138180998Y-122635652D01*
X142019001Y-122635652D02*
X157980998Y-122635652D01*
X161819001Y-122635652D02*
X164431342Y-122635652D01*
X135546743Y-122686452D02*
X138163769Y-122686452D01*
X142036230Y-122686452D02*
X157963769Y-122686452D01*
X161836230Y-122686452D02*
X164460264Y-122686452D01*
X135517965Y-122737252D02*
X138153665Y-122737252D01*
X142046334Y-122737252D02*
X157953665Y-122737252D01*
X161846334Y-122737252D02*
X164489185Y-122737252D01*
X135489187Y-122788052D02*
X138150000Y-122788052D01*
X142050000Y-122788052D02*
X157950000Y-122788052D01*
X161850000Y-122788052D02*
X164518107Y-122788052D01*
X135460409Y-122838852D02*
X138150000Y-122838852D01*
X142050000Y-122838852D02*
X157950000Y-122838852D01*
X161850000Y-122838852D02*
X164547029Y-122838852D01*
X135431630Y-122889652D02*
X138150000Y-122889652D01*
X142050000Y-122889652D02*
X157950000Y-122889652D01*
X161850000Y-122889652D02*
X164575951Y-122889652D01*
X135402852Y-122940452D02*
X138150000Y-122940452D01*
X142050000Y-122940452D02*
X157950000Y-122940452D01*
X161850000Y-122940452D02*
X164604872Y-122940452D01*
X135374074Y-122991252D02*
X138150000Y-122991252D01*
X142050000Y-122991252D02*
X157950000Y-122991252D01*
X161850000Y-122991252D02*
X164633794Y-122991252D01*
X135345296Y-123042052D02*
X138150000Y-123042052D01*
X142050000Y-123042052D02*
X157950000Y-123042052D01*
X161850000Y-123042052D02*
X164662716Y-123042052D01*
X135316518Y-123092852D02*
X138150000Y-123092852D01*
X142050000Y-123092852D02*
X157950000Y-123092852D01*
X161850000Y-123092852D02*
X164691638Y-123092852D01*
X135287740Y-123143652D02*
X138150000Y-123143652D01*
X142050000Y-123143652D02*
X157950000Y-123143652D01*
X161850000Y-123143652D02*
X164720559Y-123143652D01*
X135258962Y-123194452D02*
X138150000Y-123194452D01*
X142050000Y-123194452D02*
X157950000Y-123194452D01*
X161850000Y-123194452D02*
X164749481Y-123194452D01*
X135230184Y-123245252D02*
X138150000Y-123245252D01*
X142050000Y-123245252D02*
X157950000Y-123245252D01*
X161850000Y-123245252D02*
X164778403Y-123245252D01*
X135201405Y-123296052D02*
X138150000Y-123296052D01*
X142050000Y-123296052D02*
X157950000Y-123296052D01*
X161850000Y-123296052D02*
X164807325Y-123296052D01*
X135172627Y-123346852D02*
X138150000Y-123346852D01*
X142050000Y-123346852D02*
X157950000Y-123346852D01*
X161850000Y-123346852D02*
X164836246Y-123346852D01*
X135143849Y-123397652D02*
X138150000Y-123397652D01*
X142050000Y-123397652D02*
X157950000Y-123397652D01*
X161850000Y-123397652D02*
X164865168Y-123397652D01*
X135115071Y-123448452D02*
X138150000Y-123448452D01*
X142050000Y-123448452D02*
X157950000Y-123448452D01*
X161850000Y-123448452D02*
X164894090Y-123448452D01*
X135086293Y-123499252D02*
X138150000Y-123499252D01*
X142050000Y-123499252D02*
X157950000Y-123499252D01*
X161850000Y-123499252D02*
X164923012Y-123499252D01*
X135057515Y-123550052D02*
X138150000Y-123550052D01*
X142050000Y-123550052D02*
X157950000Y-123550052D01*
X161850000Y-123550052D02*
X164951933Y-123550052D01*
X135028737Y-123600852D02*
X138150000Y-123600852D01*
X142050000Y-123600852D02*
X157950000Y-123600852D01*
X161850000Y-123600852D02*
X164980855Y-123600852D01*
X134999959Y-123651652D02*
X138150000Y-123651652D01*
X142050000Y-123651652D02*
X157950000Y-123651652D01*
X161850000Y-123651652D02*
X165009777Y-123651652D01*
X134971180Y-123702452D02*
X138150000Y-123702452D01*
X142050000Y-123702452D02*
X157950000Y-123702452D01*
X161850000Y-123702452D02*
X165038699Y-123702452D01*
X134942402Y-123753252D02*
X138150000Y-123753252D01*
X142050000Y-123753252D02*
X157950000Y-123753252D01*
X161850000Y-123753252D02*
X165067620Y-123753252D01*
X134913624Y-123804052D02*
X138150000Y-123804052D01*
X142050000Y-123804052D02*
X157950000Y-123804052D01*
X161850000Y-123804052D02*
X165096542Y-123804052D01*
X134884846Y-123854852D02*
X138150000Y-123854852D01*
X142050000Y-123854852D02*
X157950000Y-123854852D01*
X161850000Y-123854852D02*
X165125464Y-123854852D01*
X134856068Y-123905652D02*
X138150000Y-123905652D01*
X142050000Y-123905652D02*
X157950000Y-123905652D01*
X161850000Y-123905652D02*
X165154386Y-123905652D01*
X134827290Y-123956452D02*
X138150000Y-123956452D01*
X142050000Y-123956452D02*
X157950000Y-123956452D01*
X161850000Y-123956452D02*
X165183307Y-123956452D01*
X134798512Y-124007252D02*
X138150000Y-124007252D01*
X142050000Y-124007252D02*
X157950000Y-124007252D01*
X161850000Y-124007252D02*
X165212229Y-124007252D01*
X134769733Y-124058052D02*
X138150000Y-124058052D01*
X142050000Y-124058052D02*
X157950000Y-124058052D01*
X161850000Y-124058052D02*
X165241151Y-124058052D01*
X134740955Y-124108852D02*
X138150000Y-124108852D01*
X142050000Y-124108852D02*
X157950000Y-124108852D01*
X161850000Y-124108852D02*
X165270073Y-124108852D01*
X134712177Y-124159652D02*
X138150000Y-124159652D01*
X142050000Y-124159652D02*
X157950000Y-124159652D01*
X161850000Y-124159652D02*
X165298994Y-124159652D01*
X134683399Y-124210452D02*
X138150000Y-124210452D01*
X142050000Y-124210452D02*
X157950000Y-124210452D01*
X161850000Y-124210452D02*
X165327916Y-124210452D01*
X134654621Y-124261252D02*
X138150000Y-124261252D01*
X142050000Y-124261252D02*
X157950000Y-124261252D01*
X161850000Y-124261252D02*
X165356838Y-124261252D01*
X134625843Y-124312052D02*
X138150000Y-124312052D01*
X142050000Y-124312052D02*
X157950000Y-124312052D01*
X161850000Y-124312052D02*
X165385760Y-124312052D01*
X134597065Y-124362852D02*
X138150000Y-124362852D01*
X142050000Y-124362852D02*
X157950000Y-124362852D01*
X161850000Y-124362852D02*
X165414681Y-124362852D01*
X134568287Y-124413652D02*
X138150000Y-124413652D01*
X142050000Y-124413652D02*
X157950000Y-124413652D01*
X161850000Y-124413652D02*
X165443603Y-124413652D01*
X134539508Y-124464452D02*
X138150000Y-124464452D01*
X142050000Y-124464452D02*
X157950000Y-124464452D01*
X161850000Y-124464452D02*
X165472525Y-124464452D01*
X134510730Y-124515252D02*
X138150000Y-124515252D01*
X142050000Y-124515252D02*
X157950000Y-124515252D01*
X161850000Y-124515252D02*
X165501447Y-124515252D01*
X134481952Y-124566052D02*
X138150000Y-124566052D01*
X142050000Y-124566052D02*
X157950000Y-124566052D01*
X161850000Y-124566052D02*
X165530368Y-124566052D01*
X134453174Y-124616852D02*
X138150000Y-124616852D01*
X142050000Y-124616852D02*
X157950000Y-124616852D01*
X161850000Y-124616852D02*
X165559290Y-124616852D01*
X134424396Y-124667652D02*
X138150000Y-124667652D01*
X142050000Y-124667652D02*
X157950000Y-124667652D01*
X161850000Y-124667652D02*
X165588212Y-124667652D01*
X134395618Y-124718452D02*
X138150000Y-124718452D01*
X142050000Y-124718452D02*
X157950000Y-124718452D01*
X161850000Y-124718452D02*
X165617134Y-124718452D01*
X134366840Y-124769252D02*
X138150000Y-124769252D01*
X142050000Y-124769252D02*
X157950000Y-124769252D01*
X161850000Y-124769252D02*
X165646055Y-124769252D01*
X134338062Y-124820052D02*
X138150000Y-124820052D01*
X142050000Y-124820052D02*
X157950000Y-124820052D01*
X161850000Y-124820052D02*
X165674977Y-124820052D01*
X134309283Y-124870852D02*
X138150000Y-124870852D01*
X142050000Y-124870852D02*
X157950000Y-124870852D01*
X161850000Y-124870852D02*
X165703899Y-124870852D01*
X134280505Y-124921652D02*
X138150000Y-124921652D01*
X142050000Y-124921652D02*
X157950000Y-124921652D01*
X161850000Y-124921652D02*
X165732821Y-124921652D01*
X134251727Y-124972452D02*
X138150000Y-124972452D01*
X142050000Y-124972452D02*
X157950000Y-124972452D01*
X161850000Y-124972452D02*
X165761742Y-124972452D01*
X134222949Y-125023252D02*
X138150000Y-125023252D01*
X142050000Y-125023252D02*
X157950000Y-125023252D01*
X161850000Y-125023252D02*
X165790664Y-125023252D01*
X134194171Y-125074052D02*
X138150000Y-125074052D01*
X142050000Y-125074052D02*
X157950000Y-125074052D01*
X161850000Y-125074052D02*
X165819586Y-125074052D01*
X134165393Y-125124852D02*
X138150000Y-125124852D01*
X142050000Y-125124852D02*
X157950000Y-125124852D01*
X161850000Y-125124852D02*
X165848508Y-125124852D01*
X134136615Y-125175652D02*
X138150000Y-125175652D01*
X142050000Y-125175652D02*
X157950000Y-125175652D01*
X161850000Y-125175652D02*
X165877429Y-125175652D01*
X134107836Y-125226452D02*
X138150000Y-125226452D01*
X142050000Y-125226452D02*
X157950000Y-125226452D01*
X161850000Y-125226452D02*
X165906351Y-125226452D01*
X134079058Y-125277252D02*
X138150000Y-125277252D01*
X142050000Y-125277252D02*
X157950000Y-125277252D01*
X161850000Y-125277252D02*
X165935273Y-125277252D01*
X134050280Y-125328052D02*
X138150000Y-125328052D01*
X142050000Y-125328052D02*
X157950000Y-125328052D01*
X161850000Y-125328052D02*
X165964195Y-125328052D01*
X134021502Y-125378852D02*
X138150000Y-125378852D01*
X142050000Y-125378852D02*
X157950000Y-125378852D01*
X161850000Y-125378852D02*
X165993116Y-125378852D01*
X133992724Y-125429652D02*
X138150000Y-125429652D01*
X142050000Y-125429652D02*
X157950000Y-125429652D01*
X161850000Y-125429652D02*
X166022038Y-125429652D01*
X133963946Y-125480452D02*
X138150000Y-125480452D01*
X142050000Y-125480452D02*
X157950000Y-125480452D01*
X161850000Y-125480452D02*
X166050960Y-125480452D01*
X133935168Y-125531252D02*
X138150000Y-125531252D01*
X142050000Y-125531252D02*
X157950000Y-125531252D01*
X161850000Y-125531252D02*
X166079882Y-125531252D01*
X133906390Y-125582052D02*
X138150000Y-125582052D01*
X142050000Y-125582052D02*
X157950000Y-125582052D01*
X161850000Y-125582052D02*
X166108803Y-125582052D01*
X133877611Y-125632852D02*
X138150000Y-125632852D01*
X142050000Y-125632852D02*
X157950000Y-125632852D01*
X161850000Y-125632852D02*
X166137725Y-125632852D01*
X133848833Y-125683652D02*
X138150000Y-125683652D01*
X142050000Y-125683652D02*
X157950000Y-125683652D01*
X161850000Y-125683652D02*
X166166647Y-125683652D01*
X133820055Y-125734452D02*
X138150000Y-125734452D01*
X142050000Y-125734452D02*
X157950000Y-125734452D01*
X161850000Y-125734452D02*
X166195569Y-125734452D01*
X133791277Y-125785252D02*
X138150000Y-125785252D01*
X142050000Y-125785252D02*
X157950000Y-125785252D01*
X161850000Y-125785252D02*
X166224490Y-125785252D01*
X133762499Y-125836052D02*
X138150000Y-125836052D01*
X142050000Y-125836052D02*
X157950000Y-125836052D01*
X161850000Y-125836052D02*
X166253412Y-125836052D01*
X133733721Y-125886852D02*
X138150000Y-125886852D01*
X142050000Y-125886852D02*
X157950000Y-125886852D01*
X161850000Y-125886852D02*
X166282334Y-125886852D01*
X133704943Y-125937652D02*
X138150000Y-125937652D01*
X142050000Y-125937652D02*
X157950000Y-125937652D01*
X161850000Y-125937652D02*
X166311256Y-125937652D01*
X133676165Y-125988452D02*
X138150000Y-125988452D01*
X142050000Y-125988452D02*
X157950000Y-125988452D01*
X161850000Y-125988452D02*
X166340177Y-125988452D01*
X133647386Y-126039252D02*
X138150000Y-126039252D01*
X142050000Y-126039252D02*
X157950000Y-126039252D01*
X161850000Y-126039252D02*
X166369099Y-126039252D01*
X133618608Y-126090052D02*
X138150000Y-126090052D01*
X142050000Y-126090052D02*
X157950000Y-126090052D01*
X161850000Y-126090052D02*
X166398021Y-126090052D01*
X133589830Y-126140852D02*
X138150000Y-126140852D01*
X142050000Y-126140852D02*
X157950000Y-126140852D01*
X161850000Y-126140852D02*
X166426943Y-126140852D01*
X133561052Y-126191652D02*
X138150000Y-126191652D01*
X142050000Y-126191652D02*
X157950000Y-126191652D01*
X161850000Y-126191652D02*
X166455864Y-126191652D01*
X133532274Y-126242452D02*
X138150000Y-126242452D01*
X142050000Y-126242452D02*
X157950000Y-126242452D01*
X161850000Y-126242452D02*
X166484786Y-126242452D01*
X133503496Y-126293252D02*
X138150000Y-126293252D01*
X142050000Y-126293252D02*
X157950000Y-126293252D01*
X161850000Y-126293252D02*
X166513708Y-126293252D01*
X133474718Y-126344052D02*
X138150000Y-126344052D01*
X142050000Y-126344052D02*
X157950000Y-126344052D01*
X161850000Y-126344052D02*
X166542630Y-126344052D01*
X133445939Y-126394852D02*
X138150000Y-126394852D01*
X142050000Y-126394852D02*
X157950000Y-126394852D01*
X161850000Y-126394852D02*
X166571551Y-126394852D01*
X133417161Y-126445652D02*
X138150000Y-126445652D01*
X142050000Y-126445652D02*
X157950000Y-126445652D01*
X161850000Y-126445652D02*
X166600473Y-126445652D01*
X133388383Y-126496452D02*
X138150000Y-126496452D01*
X142050000Y-126496452D02*
X157950000Y-126496452D01*
X161850000Y-126496452D02*
X166629395Y-126496452D01*
X133359605Y-126547252D02*
X138150000Y-126547252D01*
X142050000Y-126547252D02*
X157950000Y-126547252D01*
X161850000Y-126547252D02*
X166658317Y-126547252D01*
X133330827Y-126598052D02*
X138150000Y-126598052D01*
X142050000Y-126598052D02*
X157950000Y-126598052D01*
X161850000Y-126598052D02*
X166687238Y-126598052D01*
X133302049Y-126648852D02*
X138150902Y-126648852D01*
X142049099Y-126648852D02*
X142050000Y-126648852D01*
X142050000Y-126648852D02*
X157950902Y-126648852D01*
X161849099Y-126648852D02*
X161850000Y-126648852D01*
X161850000Y-126648852D02*
X166716160Y-126648852D01*
X133273271Y-126699652D02*
X138161006Y-126699652D01*
X142038995Y-126699652D02*
X142050000Y-126699652D01*
X142050000Y-126699652D02*
X157961006Y-126699652D01*
X161838995Y-126699652D02*
X161850000Y-126699652D01*
X161850000Y-126699652D02*
X166745082Y-126699652D01*
X133244493Y-126750452D02*
X138175243Y-126750452D01*
X142024758Y-126750452D02*
X142050000Y-126750452D01*
X142050000Y-126750452D02*
X157975243Y-126750452D01*
X161824758Y-126750452D02*
X161850000Y-126750452D01*
X161850000Y-126750452D02*
X166774004Y-126750452D01*
X133215714Y-126801252D02*
X138196285Y-126801252D01*
X142003716Y-126801252D02*
X142050000Y-126801252D01*
X142050000Y-126801252D02*
X157996285Y-126801252D01*
X161803716Y-126801252D02*
X161850000Y-126801252D01*
X161850000Y-126801252D02*
X166802925Y-126801252D01*
X133186936Y-126852052D02*
X138227206Y-126852052D01*
X141972795Y-126852052D02*
X142050000Y-126852052D01*
X142050000Y-126852052D02*
X158027206Y-126852052D01*
X161772795Y-126852052D02*
X161850000Y-126852052D01*
X161850000Y-126852052D02*
X166831847Y-126852052D01*
X133158158Y-126902852D02*
X138266456Y-126902852D01*
X141933544Y-126902852D02*
X142050000Y-126902852D01*
X142050000Y-126902852D02*
X158066456Y-126902852D01*
X161733544Y-126902852D02*
X161850000Y-126902852D01*
X161850000Y-126902852D02*
X166860769Y-126902852D01*
X133129380Y-126953652D02*
X138319300Y-126953652D01*
X141880701Y-126953652D02*
X142050000Y-126953652D01*
X142050000Y-126953652D02*
X158119300Y-126953652D01*
X161680701Y-126953652D02*
X161850000Y-126953652D01*
X161850000Y-126953652D02*
X166889691Y-126953652D01*
X133100602Y-127004452D02*
X138400527Y-127004452D01*
X141799474Y-127004452D02*
X142050000Y-127004452D01*
X142050000Y-127004452D02*
X158200527Y-127004452D01*
X161599474Y-127004452D02*
X161850000Y-127004452D01*
X161850000Y-127004452D02*
X166918612Y-127004452D01*
X133071824Y-127055252D02*
X142050000Y-127055252D01*
X142050000Y-127055252D02*
X161850000Y-127055252D01*
X161850000Y-127055252D02*
X166947534Y-127055252D01*
X133043046Y-127106052D02*
X142050000Y-127106052D01*
X142050000Y-127106052D02*
X161850000Y-127106052D01*
X161850000Y-127106052D02*
X166976456Y-127106052D01*
X133014267Y-127156852D02*
X142050000Y-127156852D01*
X142050000Y-127156852D02*
X161850000Y-127156852D01*
X161850000Y-127156852D02*
X167005378Y-127156852D01*
X132985489Y-127207652D02*
X142050000Y-127207652D01*
X142050000Y-127207652D02*
X161850000Y-127207652D01*
X161850000Y-127207652D02*
X167034299Y-127207652D01*
X132956711Y-127258452D02*
X142050000Y-127258452D01*
X142050000Y-127258452D02*
X161850000Y-127258452D01*
X161850000Y-127258452D02*
X167063221Y-127258452D01*
X132927933Y-127309252D02*
X142050000Y-127309252D01*
X142050000Y-127309252D02*
X161850000Y-127309252D01*
X161850000Y-127309252D02*
X167092143Y-127309252D01*
X132899155Y-127360052D02*
X142050000Y-127360052D01*
X142050000Y-127360052D02*
X161850000Y-127360052D01*
X161850000Y-127360052D02*
X167121065Y-127360052D01*
X132870377Y-127410852D02*
X142050000Y-127410852D01*
X142050000Y-127410852D02*
X161850000Y-127410852D01*
X161850000Y-127410852D02*
X167011631Y-127410852D01*
X132943195Y-127461652D02*
X142050000Y-127461652D01*
X142050000Y-127461652D02*
X161850000Y-127461652D01*
X161850000Y-127461652D02*
X166892448Y-127461652D01*
X133038844Y-127512452D02*
X142050000Y-127512452D01*
X142050000Y-127512452D02*
X161850000Y-127512452D01*
X161850000Y-127512452D02*
X166773266Y-127512452D01*
X133134493Y-127563252D02*
X142050000Y-127563252D01*
X142050000Y-127563252D02*
X161850000Y-127563252D01*
X161850000Y-127563252D02*
X166654083Y-127563252D01*
X133259835Y-127614052D02*
X142050000Y-127614052D01*
X142050000Y-127614052D02*
X161850000Y-127614052D01*
X161850000Y-127614052D02*
X166534901Y-127614052D01*
X133387396Y-127664852D02*
X142050000Y-127664852D01*
X142050000Y-127664852D02*
X161850000Y-127664852D01*
X161850000Y-127664852D02*
X166415719Y-127664852D01*
X133514957Y-127715652D02*
X142050000Y-127715652D01*
X142050000Y-127715652D02*
X161850000Y-127715652D01*
X161850000Y-127715652D02*
X166296536Y-127715652D01*
X133642518Y-127766452D02*
X142050000Y-127766452D01*
X142050000Y-127766452D02*
X161850000Y-127766452D01*
X161850000Y-127766452D02*
X166177354Y-127766452D01*
X133770079Y-127817252D02*
X142050000Y-127817252D01*
X142050000Y-127817252D02*
X161850000Y-127817252D01*
X161850000Y-127817252D02*
X166058172Y-127817252D01*
X133897640Y-127868052D02*
X142050000Y-127868052D01*
X142050000Y-127868052D02*
X161850000Y-127868052D01*
X161850000Y-127868052D02*
X165938989Y-127868052D01*
X134025201Y-127918852D02*
X142050000Y-127918852D01*
X142050000Y-127918852D02*
X161850000Y-127918852D01*
X161850000Y-127918852D02*
X165819807Y-127918852D01*
X134152762Y-127969652D02*
X142050000Y-127969652D01*
X142050000Y-127969652D02*
X161850000Y-127969652D01*
X161850000Y-127969652D02*
X165700625Y-127969652D01*
X134280323Y-128020452D02*
X142050000Y-128020452D01*
X142050000Y-128020452D02*
X161850000Y-128020452D01*
X161850000Y-128020452D02*
X165581442Y-128020452D01*
X134407884Y-128071252D02*
X142050000Y-128071252D01*
X142050000Y-128071252D02*
X161850000Y-128071252D01*
X161850000Y-128071252D02*
X165462260Y-128071252D01*
X134535445Y-128122052D02*
X142050000Y-128122052D01*
X142050000Y-128122052D02*
X161850000Y-128122052D01*
X161850000Y-128122052D02*
X165343077Y-128122052D01*
X134663006Y-128172852D02*
X142050000Y-128172852D01*
X142050000Y-128172852D02*
X161850000Y-128172852D01*
X161850000Y-128172852D02*
X165223895Y-128172852D01*
X134790567Y-128223652D02*
X142050000Y-128223652D01*
X142050000Y-128223652D02*
X161850000Y-128223652D01*
X161850000Y-128223652D02*
X165104713Y-128223652D01*
X134918128Y-128274452D02*
X142050000Y-128274452D01*
X142050000Y-128274452D02*
X161850000Y-128274452D01*
X161850000Y-128274452D02*
X164985530Y-128274452D01*
X135045689Y-128325252D02*
X142050000Y-128325252D01*
X142050000Y-128325252D02*
X161850000Y-128325252D01*
X161850000Y-128325252D02*
X164866348Y-128325252D01*
X135173250Y-128376052D02*
X142050000Y-128376052D01*
X142050000Y-128376052D02*
X161850000Y-128376052D01*
X161850000Y-128376052D02*
X164747166Y-128376052D01*
X135300811Y-128426852D02*
X142050000Y-128426852D01*
X142050000Y-128426852D02*
X161850000Y-128426852D01*
X161850000Y-128426852D02*
X164627983Y-128426852D01*
X135428372Y-128477652D02*
X142050000Y-128477652D01*
X142050000Y-128477652D02*
X161850000Y-128477652D01*
X161850000Y-128477652D02*
X164508801Y-128477652D01*
X135555933Y-128528452D02*
X142050000Y-128528452D01*
X142050000Y-128528452D02*
X161850000Y-128528452D01*
X161850000Y-128528452D02*
X164389619Y-128528452D01*
X135683494Y-128579252D02*
X142050000Y-128579252D01*
X142050000Y-128579252D02*
X147230000Y-128579252D01*
X152820000Y-128579252D02*
X161850000Y-128579252D01*
X161850000Y-128579252D02*
X164270436Y-128579252D01*
X135811055Y-128630052D02*
X142050000Y-128630052D01*
X142050000Y-128630052D02*
X147230000Y-128630052D01*
X152820000Y-128630052D02*
X161850000Y-128630052D01*
X161850000Y-128630052D02*
X164151254Y-128630052D01*
X135938616Y-128680852D02*
X142050000Y-128680852D01*
X142050000Y-128680852D02*
X147230000Y-128680852D01*
X152820000Y-128680852D02*
X161850000Y-128680852D01*
X161850000Y-128680852D02*
X164032071Y-128680852D01*
X136066177Y-128731652D02*
X142050000Y-128731652D01*
X142050000Y-128731652D02*
X147230000Y-128731652D01*
X152820000Y-128731652D02*
X161850000Y-128731652D01*
X161850000Y-128731652D02*
X163912889Y-128731652D01*
X136193738Y-128782452D02*
X142050000Y-128782452D01*
X142050000Y-128782452D02*
X147230000Y-128782452D01*
X152820000Y-128782452D02*
X161850000Y-128782452D01*
X161850000Y-128782452D02*
X163793707Y-128782452D01*
X136321299Y-128833252D02*
X142050000Y-128833252D01*
X142050000Y-128833252D02*
X147230000Y-128833252D01*
X152820000Y-128833252D02*
X161850000Y-128833252D01*
X161850000Y-128833252D02*
X163674524Y-128833252D01*
X136448860Y-128884052D02*
X142050000Y-128884052D01*
X142050000Y-128884052D02*
X147230000Y-128884052D01*
X152820000Y-128884052D02*
X161850000Y-128884052D01*
X161850000Y-128884052D02*
X163555342Y-128884052D01*
X136576421Y-128934852D02*
X142050000Y-128934852D01*
X142050000Y-128934852D02*
X147230000Y-128934852D01*
X152820000Y-128934852D02*
X161850000Y-128934852D01*
X161850000Y-128934852D02*
X163436160Y-128934852D01*
X136703982Y-128985652D02*
X142050000Y-128985652D01*
X142050000Y-128985652D02*
X147230000Y-128985652D01*
X152820000Y-128985652D02*
X161850000Y-128985652D01*
X161850000Y-128985652D02*
X163316977Y-128985652D01*
X136831543Y-129036452D02*
X142050000Y-129036452D01*
X142050000Y-129036452D02*
X147230000Y-129036452D01*
X152820000Y-129036452D02*
X161850000Y-129036452D01*
X161850000Y-129036452D02*
X163197795Y-129036452D01*
X136959104Y-129087252D02*
X142050000Y-129087252D01*
X142050000Y-129087252D02*
X147230000Y-129087252D01*
X152820000Y-129087252D02*
X161850000Y-129087252D01*
X161850000Y-129087252D02*
X163078612Y-129087252D01*
X137086665Y-129138052D02*
X142050000Y-129138052D01*
X142050000Y-129138052D02*
X147230000Y-129138052D01*
X152820000Y-129138052D02*
X161850000Y-129138052D01*
X161850000Y-129138052D02*
X162959430Y-129138052D01*
X137214226Y-129188852D02*
X142050000Y-129188852D01*
X142050000Y-129188852D02*
X147230000Y-129188852D01*
X152820000Y-129188852D02*
X161850000Y-129188852D01*
X161850000Y-129188852D02*
X162840248Y-129188852D01*
X137341787Y-129239652D02*
X142050000Y-129239652D01*
X142050000Y-129239652D02*
X147230000Y-129239652D01*
X152820000Y-129239652D02*
X161850000Y-129239652D01*
X161850000Y-129239652D02*
X162721065Y-129239652D01*
X137469348Y-129290452D02*
X142050000Y-129290452D01*
X142050000Y-129290452D02*
X147230000Y-129290452D01*
X152820000Y-129290452D02*
X161850000Y-129290452D01*
X161850000Y-129290452D02*
X162601883Y-129290452D01*
X137596909Y-129341252D02*
X142050000Y-129341252D01*
X142050000Y-129341252D02*
X147230000Y-129341252D01*
X152820000Y-129341252D02*
X161850000Y-129341252D01*
X161850000Y-129341252D02*
X162482701Y-129341252D01*
X137724470Y-129392052D02*
X142050000Y-129392052D01*
X142050000Y-129392052D02*
X147230000Y-129392052D01*
X152820000Y-129392052D02*
X161850000Y-129392052D01*
X161850000Y-129392052D02*
X162363518Y-129392052D01*
X137852031Y-129442852D02*
X142050000Y-129442852D01*
X142050000Y-129442852D02*
X147230000Y-129442852D01*
X152820000Y-129442852D02*
X161850000Y-129442852D01*
X161850000Y-129442852D02*
X162244336Y-129442852D01*
X137979592Y-129493652D02*
X142050000Y-129493652D01*
X142050000Y-129493652D02*
X147230000Y-129493652D01*
X152820000Y-129493652D02*
X161850000Y-129493652D01*
X161850000Y-129493652D02*
X162125154Y-129493652D01*
X138107153Y-129544452D02*
X142050000Y-129544452D01*
X142050000Y-129544452D02*
X147230000Y-129544452D01*
X152820000Y-129544452D02*
X161850000Y-129544452D01*
X161850000Y-129544452D02*
X162005971Y-129544452D01*
X138234714Y-129595252D02*
X142050000Y-129595252D01*
X142050000Y-129595252D02*
X147230000Y-129595252D01*
X152820000Y-129595252D02*
X161850000Y-129595252D01*
X161850000Y-129595252D02*
X161886789Y-129595252D01*
X138362275Y-129646052D02*
X142050000Y-129646052D01*
X142050000Y-129646052D02*
X147230000Y-129646052D01*
X152820000Y-129646052D02*
X161767607Y-129646052D01*
X138489836Y-129696852D02*
X142050000Y-129696852D01*
X142050000Y-129696852D02*
X147230000Y-129696852D01*
X152820000Y-129696852D02*
X161648424Y-129696852D01*
X138617398Y-129747652D02*
X142050000Y-129747652D01*
X142050000Y-129747652D02*
X147230000Y-129747652D01*
X152820000Y-129747652D02*
X161529242Y-129747652D01*
X138744959Y-129798452D02*
X142050000Y-129798452D01*
X142050000Y-129798452D02*
X147230000Y-129798452D01*
X152820000Y-129798452D02*
X161410060Y-129798452D01*
X138872520Y-129849252D02*
X142050000Y-129849252D01*
X142050000Y-129849252D02*
X147224978Y-129849252D01*
X152820000Y-129849252D02*
X161290878Y-129849252D01*
X139000081Y-129900052D02*
X142050000Y-129900052D01*
X142050000Y-129900052D02*
X147214180Y-129900052D01*
X152824629Y-129900052D02*
X161171696Y-129900052D01*
X139127642Y-129950852D02*
X142050000Y-129950852D01*
X142050000Y-129950852D02*
X147203382Y-129950852D01*
X152834688Y-129950852D02*
X161052514Y-129950852D01*
X139255203Y-130001652D02*
X142050000Y-130001652D01*
X142050000Y-130001652D02*
X147201573Y-130001652D01*
X152839737Y-130001652D02*
X160855526Y-130001652D01*
X139382764Y-130052452D02*
X142050000Y-130052452D01*
X142050000Y-130052452D02*
X147200864Y-130052452D01*
X152839028Y-130052452D02*
X160614161Y-130052452D01*
X139510325Y-130103252D02*
X142050000Y-130103252D01*
X142050000Y-130103252D02*
X147200155Y-130103252D01*
X152838319Y-130103252D02*
X160372796Y-130103252D01*
X139637886Y-130154052D02*
X142050000Y-130154052D01*
X142050000Y-130154052D02*
X147199445Y-130154052D01*
X152837609Y-130154052D02*
X160131430Y-130154052D01*
X139765447Y-130204852D02*
X142050000Y-130204852D01*
X142050000Y-130204852D02*
X147198736Y-130204852D01*
X152836900Y-130204852D02*
X159890065Y-130204852D01*
X139987082Y-130255652D02*
X142050000Y-130255652D01*
X142050000Y-130255652D02*
X147198027Y-130255652D01*
X152836191Y-130255652D02*
X159648700Y-130255652D01*
X140260788Y-130306452D02*
X142050000Y-130306452D01*
X142050000Y-130306452D02*
X147206428Y-130306452D01*
X152835481Y-130306452D02*
X159407334Y-130306452D01*
X140534495Y-130357252D02*
X142050000Y-130357252D01*
X142050000Y-130357252D02*
X147215752Y-130357252D01*
X152827939Y-130357252D02*
X159165969Y-130357252D01*
X140808201Y-130408052D02*
X142050000Y-130408052D01*
X142050000Y-130408052D02*
X147225075Y-130408052D01*
X152820000Y-130408052D02*
X158924604Y-130408052D01*
X141081908Y-130458852D02*
X142050000Y-130458852D01*
X142050000Y-130458852D02*
X147230000Y-130458852D01*
X152820000Y-130458852D02*
X158683239Y-130458852D01*
X141355615Y-130509652D02*
X142050000Y-130509652D01*
X142050000Y-130509652D02*
X147230000Y-130509652D01*
X152820000Y-130509652D02*
X158441873Y-130509652D01*
X141629321Y-130560452D02*
X142050000Y-130560452D01*
X142050000Y-130560452D02*
X147230000Y-130560452D01*
X152820000Y-130560452D02*
X158200508Y-130560452D01*
X141903028Y-130611252D02*
X142050000Y-130611252D01*
X142050000Y-130611252D02*
X147230000Y-130611252D01*
X152820000Y-130611252D02*
X157959143Y-130611252D01*
X142176734Y-130662052D02*
X147230000Y-130662052D01*
X152820000Y-130662052D02*
X157717777Y-130662052D01*
X142450441Y-130712852D02*
X147230000Y-130712852D01*
X152820000Y-130712852D02*
X157476412Y-130712852D01*
X142724147Y-130763652D02*
X147230000Y-130763652D01*
X152820000Y-130763652D02*
X157235047Y-130763652D01*
X142997854Y-130814452D02*
X147230000Y-130814452D01*
X152820000Y-130814452D02*
X156993682Y-130814452D01*
X143271561Y-130865252D02*
X147230000Y-130865252D01*
X152820000Y-130865252D02*
X156752316Y-130865252D01*
X143545267Y-130916052D02*
X147230000Y-130916052D01*
X152820000Y-130916052D02*
X156510951Y-130916052D01*
X143818974Y-130966852D02*
X147230000Y-130966852D01*
X152820000Y-130966852D02*
X156269586Y-130966852D01*
X144092680Y-131017652D02*
X147230000Y-131017652D01*
X152820000Y-131017652D02*
X156028220Y-131017652D01*
X144366387Y-131068452D02*
X147230000Y-131068452D01*
X152820000Y-131068452D02*
X155786855Y-131068452D01*
X144640093Y-131119252D02*
X147230000Y-131119252D01*
X152820000Y-131119252D02*
X155545490Y-131119252D01*
X144913800Y-131170052D02*
X147230000Y-131170052D01*
X152820000Y-131170052D02*
X155304125Y-131170052D01*
X145187506Y-131220852D02*
X147230000Y-131220852D01*
X152820000Y-131220852D02*
X155062759Y-131220852D01*
X145461213Y-131271652D02*
X147230000Y-131271652D01*
X152820000Y-131271652D02*
X154821394Y-131271652D01*
X145734920Y-131322452D02*
X147230000Y-131322452D01*
X152820000Y-131322452D02*
X154580029Y-131322452D01*
X146008626Y-131373252D02*
X147230000Y-131373252D01*
X152820000Y-131373252D02*
X154338663Y-131373252D01*
X146282333Y-131424052D02*
X147230000Y-131424052D01*
X152820000Y-131424052D02*
X154097298Y-131424052D01*
X146556039Y-131474852D02*
X147230000Y-131474852D01*
X146829746Y-131525652D02*
X147134466Y-131525652D01*
X167122968Y-127363396D02*
X161850000Y-129610933D01*
X161850000Y-126644321D01*
X161850000Y-126555679D01*
X161850000Y-122755679D01*
X161832707Y-122668740D01*
X161798785Y-122586845D01*
X161749538Y-122513142D01*
X161686858Y-122450462D01*
X161613155Y-122401215D01*
X161531260Y-122367293D01*
X161444321Y-122350000D01*
X161355679Y-122350000D01*
X158355679Y-122350000D01*
X158268740Y-122367293D01*
X158186845Y-122401215D01*
X158113142Y-122450462D01*
X158050462Y-122513142D01*
X158001215Y-122586845D01*
X157967293Y-122668740D01*
X157950000Y-122755679D01*
X157950000Y-122844321D01*
X157950000Y-126644321D01*
X157967293Y-126731260D01*
X158001215Y-126813155D01*
X158050462Y-126886858D01*
X158113142Y-126949538D01*
X158186845Y-126998785D01*
X158268740Y-127032707D01*
X158355679Y-127050000D01*
X158444321Y-127050000D01*
X161444321Y-127050000D01*
X161531260Y-127032707D01*
X161613155Y-126998785D01*
X161686858Y-126949538D01*
X161749538Y-126886858D01*
X161798785Y-126813155D01*
X161832707Y-126731260D01*
X161850000Y-126644321D01*
X161850000Y-129610933D01*
X161009226Y-129969303D01*
X154005176Y-131443441D01*
X152820000Y-131457622D01*
X152820000Y-130392192D01*
X152835219Y-130325207D01*
X152840067Y-129978015D01*
X152820000Y-129876669D01*
X152820000Y-128540000D01*
X147230000Y-128540000D01*
X147230000Y-129825628D01*
X147202206Y-129956387D01*
X147197962Y-130260328D01*
X147230000Y-130434887D01*
X147230000Y-131524509D01*
X146848200Y-131529077D01*
X142050000Y-130638530D01*
X142050000Y-126644321D01*
X142050000Y-126555679D01*
X142050000Y-122755679D01*
X142032707Y-122668740D01*
X141998785Y-122586845D01*
X141949538Y-122513142D01*
X141886858Y-122450462D01*
X141813155Y-122401215D01*
X141731260Y-122367293D01*
X141644321Y-122350000D01*
X141555679Y-122350000D01*
X138555679Y-122350000D01*
X138468740Y-122367293D01*
X138386845Y-122401215D01*
X138313142Y-122450462D01*
X138250462Y-122513142D01*
X138201215Y-122586845D01*
X138167293Y-122668740D01*
X138150000Y-122755679D01*
X138150000Y-122844321D01*
X138150000Y-126644321D01*
X138167293Y-126731260D01*
X138201215Y-126813155D01*
X138250462Y-126886858D01*
X138313142Y-126949538D01*
X138386845Y-126998785D01*
X138468740Y-127032707D01*
X138555679Y-127050000D01*
X138644321Y-127050000D01*
X141644321Y-127050000D01*
X141731260Y-127032707D01*
X141813155Y-126998785D01*
X141886858Y-126949538D01*
X141949538Y-126886858D01*
X141998785Y-126813155D01*
X142032707Y-126731260D01*
X142050000Y-126644321D01*
X142050000Y-130638530D01*
X139810897Y-130222952D01*
X133141146Y-127566785D01*
X132865096Y-127420173D01*
X138418634Y-117616905D01*
X142688382Y-119359155D01*
X142731831Y-119372106D01*
X142775055Y-119385650D01*
X142781887Y-119387026D01*
X142781898Y-119387030D01*
X142781908Y-119387030D01*
X147559015Y-120315407D01*
X147604137Y-120319670D01*
X147649183Y-120324562D01*
X147656165Y-120324586D01*
X152522624Y-120307402D01*
X152567714Y-120302820D01*
X152612855Y-120298869D01*
X152619707Y-120297537D01*
X152619708Y-120297537D01*
X157390148Y-119335446D01*
X157433517Y-119322184D01*
X157477003Y-119309549D01*
X157483456Y-119306914D01*
X157483466Y-119306912D01*
X157483466Y-119306911D01*
X157483474Y-119306907D01*
X161568088Y-117606452D01*
X167122968Y-127363396D01*
M02*
