%FSLAX46Y46*%
G04 Gerber Fmt 4.6, Leading zero omitted, Abs format (unit mm)*
G04 Created by KiCad (PCBNEW (2014-08-24 BZR 5093)-product) date Sun 24 Aug 2014 09:58:16 PM CEST*
%MOMM*%
G01*
G04 APERTURE LIST*
%ADD10C,0.100000*%
%ADD11C,0.200000*%
%ADD12R,3.000000X3.800000*%
%ADD13R,0.998220X1.099820*%
%ADD14R,1.800000X1.800000*%
%ADD15R,1.400000X3.800000*%
%ADD16C,2.000000*%
%ADD17R,1.400000X1.000000*%
G04 APERTURE END LIST*
D10*
D11*
X143519048Y-130221429D02*
X144280953Y-130221429D01*
X155729048Y-130221429D02*
X156490953Y-130221429D01*
X153930000Y-122400000D02*
X150530000Y-122400000D01*
X150530000Y-122400000D02*
X150530000Y-120600000D01*
X150530000Y-120600000D02*
X153930000Y-120600000D01*
X153930000Y-120600000D02*
X153930000Y-122400000D01*
X151798200Y-121068200D02*
X151391800Y-121068200D01*
X151391800Y-121068200D02*
X151391800Y-121931800D01*
X151798200Y-121931800D02*
X151391800Y-121931800D01*
X151798200Y-121068200D02*
X151798200Y-121931800D01*
X153068200Y-121068200D02*
X152661800Y-121068200D01*
X152661800Y-121068200D02*
X152661800Y-121931800D01*
X153068200Y-121931800D02*
X152661800Y-121931800D01*
X153068200Y-121068200D02*
X153068200Y-121931800D01*
X152661800Y-121144400D02*
X151798200Y-121144400D01*
X151798200Y-121855600D02*
X152661800Y-121855600D01*
X156900000Y-126400000D02*
X159900000Y-126400000D01*
X157900000Y-125500000D02*
X158900000Y-125500000D01*
X157900000Y-123900000D02*
X158900000Y-123900000D01*
X156900000Y-123000000D02*
X159900000Y-123000000D01*
X155000000Y-122400000D02*
X161800000Y-122400000D01*
X161800000Y-122400000D02*
X161800000Y-127000000D01*
X161800000Y-127000000D02*
X155000000Y-127000000D01*
X155000000Y-127000000D02*
X155000000Y-122400000D01*
X143100000Y-123000000D02*
X140100000Y-123000000D01*
X142100000Y-123900000D02*
X141100000Y-123900000D01*
X142100000Y-125500000D02*
X141100000Y-125500000D01*
X143100000Y-126400000D02*
X140100000Y-126400000D01*
X145000000Y-127000000D02*
X138200000Y-127000000D01*
X138200000Y-127000000D02*
X138200000Y-122400000D01*
X138200000Y-122400000D02*
X145000000Y-122400000D01*
X145000000Y-122400000D02*
X145000000Y-127000000D01*
X144940000Y-131400000D02*
X148750000Y-131400000D01*
X144940000Y-128860000D02*
X148750000Y-128860000D01*
X151290000Y-131400000D02*
X155100000Y-131400000D01*
X151290000Y-128860000D02*
X155100000Y-128860000D01*
X155100000Y-128860000D02*
X155100000Y-131400000D01*
X144940000Y-131400000D02*
X144940000Y-128860000D01*
X147480000Y-128860000D02*
X147480000Y-131400000D01*
X144940000Y-128860000D02*
X144940000Y-128860000D01*
X144940000Y-128860000D02*
X144940000Y-128860000D01*
X152570000Y-131400000D02*
X152570000Y-128860000D01*
X150460000Y-126600000D02*
X146060000Y-126600000D01*
X146060000Y-126600000D02*
X146060000Y-122800000D01*
X146060000Y-122800000D02*
X150460000Y-122800000D01*
X150460000Y-122800000D02*
X150460000Y-126600000D01*
X148971200Y-124471400D02*
X148971200Y-124928600D01*
X148971200Y-124928600D02*
X149552860Y-124928600D01*
X149552860Y-124471400D02*
X149552860Y-124928600D01*
X148971200Y-124471400D02*
X149552860Y-124471400D01*
X146967140Y-125411200D02*
X146967140Y-125868400D01*
X146967140Y-125868400D02*
X147548800Y-125868400D01*
X147548800Y-125411200D02*
X147548800Y-125868400D01*
X146967140Y-125411200D02*
X147548800Y-125411200D01*
X146967140Y-123531600D02*
X146967140Y-123988800D01*
X146967140Y-123988800D02*
X147548800Y-123988800D01*
X147548800Y-123531600D02*
X147548800Y-123988800D01*
X146967140Y-123531600D02*
X147548800Y-123531600D01*
X147960280Y-124202160D02*
X147960280Y-125197840D01*
X147960280Y-125197840D02*
X148559720Y-125197840D01*
X148559720Y-124202160D02*
X148559720Y-125197840D01*
X147960280Y-124202160D02*
X148559720Y-124202160D01*
X148917860Y-126119860D02*
X147602140Y-126119860D01*
X147602140Y-126119860D02*
X147602140Y-123280140D01*
X147602140Y-123280140D02*
X148917860Y-123280140D01*
X148917860Y-123280140D02*
X148917860Y-126119860D01*
X149530000Y-122800000D02*
X153930000Y-122800000D01*
X153930000Y-122800000D02*
X153930000Y-126600000D01*
X153930000Y-126600000D02*
X149530000Y-126600000D01*
X149530000Y-126600000D02*
X149530000Y-122800000D01*
X151018800Y-124928600D02*
X151018800Y-124471400D01*
X151018800Y-124471400D02*
X150437140Y-124471400D01*
X150437140Y-124928600D02*
X150437140Y-124471400D01*
X151018800Y-124928600D02*
X150437140Y-124928600D01*
X153022860Y-123988800D02*
X153022860Y-123531600D01*
X153022860Y-123531600D02*
X152441200Y-123531600D01*
X152441200Y-123988800D02*
X152441200Y-123531600D01*
X153022860Y-123988800D02*
X152441200Y-123988800D01*
X153022860Y-125868400D02*
X153022860Y-125411200D01*
X153022860Y-125411200D02*
X152441200Y-125411200D01*
X152441200Y-125868400D02*
X152441200Y-125411200D01*
X153022860Y-125868400D02*
X152441200Y-125868400D01*
X152029720Y-125197840D02*
X152029720Y-124202160D01*
X152029720Y-124202160D02*
X151430280Y-124202160D01*
X151430280Y-125197840D02*
X151430280Y-124202160D01*
X152029720Y-125197840D02*
X151430280Y-125197840D01*
X151072140Y-123280140D02*
X152387860Y-123280140D01*
X152387860Y-123280140D02*
X152387860Y-126119860D01*
X152387860Y-126119860D02*
X151072140Y-126119860D01*
X151072140Y-126119860D02*
X151072140Y-123280140D01*
X146060000Y-120600000D02*
X149460000Y-120600000D01*
X149460000Y-120600000D02*
X149460000Y-122400000D01*
X149460000Y-122400000D02*
X146060000Y-122400000D01*
X146060000Y-122400000D02*
X146060000Y-120600000D01*
X148191800Y-121931800D02*
X148598200Y-121931800D01*
X148598200Y-121931800D02*
X148598200Y-121068200D01*
X148191800Y-121068200D02*
X148598200Y-121068200D01*
X148191800Y-121931800D02*
X148191800Y-121068200D01*
X146921800Y-121931800D02*
X147328200Y-121931800D01*
X147328200Y-121931800D02*
X147328200Y-121068200D01*
X146921800Y-121068200D02*
X147328200Y-121068200D01*
X146921800Y-121931800D02*
X146921800Y-121068200D01*
X147328200Y-121855600D02*
X148191800Y-121855600D01*
X148191800Y-121144400D02*
X147328200Y-121144400D01*
X155033334Y-121932381D02*
X154700000Y-121456190D01*
X154461905Y-121932381D02*
X154461905Y-120932381D01*
X154842858Y-120932381D01*
X154938096Y-120980000D01*
X154985715Y-121027619D01*
X155033334Y-121122857D01*
X155033334Y-121265714D01*
X154985715Y-121360952D01*
X154938096Y-121408571D01*
X154842858Y-121456190D01*
X154461905Y-121456190D01*
X155414286Y-121027619D02*
X155461905Y-120980000D01*
X155557143Y-120932381D01*
X155795239Y-120932381D01*
X155890477Y-120980000D01*
X155938096Y-121027619D01*
X155985715Y-121122857D01*
X155985715Y-121218095D01*
X155938096Y-121360952D01*
X155366667Y-121932381D01*
X155985715Y-121932381D01*
X158066667Y-121128571D02*
X157733333Y-121128571D01*
X157733333Y-121652381D02*
X157733333Y-120652381D01*
X158209524Y-120652381D01*
X158542857Y-120747619D02*
X158590476Y-120700000D01*
X158685714Y-120652381D01*
X158923810Y-120652381D01*
X159019048Y-120700000D01*
X159066667Y-120747619D01*
X159114286Y-120842857D01*
X159114286Y-120938095D01*
X159066667Y-121080952D01*
X158495238Y-121652381D01*
X159114286Y-121652381D01*
X141376667Y-121048571D02*
X141043333Y-121048571D01*
X141043333Y-121572381D02*
X141043333Y-120572381D01*
X141519524Y-120572381D01*
X142424286Y-121572381D02*
X141852857Y-121572381D01*
X142138571Y-121572381D02*
X142138571Y-120572381D01*
X142043333Y-120715238D01*
X141948095Y-120810476D01*
X141852857Y-120858095D01*
X146784762Y-128207619D02*
X146689524Y-128160000D01*
X146594286Y-128064762D01*
X146451429Y-127921905D01*
X146356190Y-127874286D01*
X146260952Y-127874286D01*
X146308571Y-128112381D02*
X146213333Y-128064762D01*
X146118095Y-127969524D01*
X146070476Y-127779048D01*
X146070476Y-127445714D01*
X146118095Y-127255238D01*
X146213333Y-127160000D01*
X146308571Y-127112381D01*
X146499048Y-127112381D01*
X146594286Y-127160000D01*
X146689524Y-127255238D01*
X146737143Y-127445714D01*
X146737143Y-127779048D01*
X146689524Y-127969524D01*
X146594286Y-128064762D01*
X146499048Y-128112381D01*
X146308571Y-128112381D01*
X147689524Y-128112381D02*
X147118095Y-128112381D01*
X147403809Y-128112381D02*
X147403809Y-127112381D01*
X147308571Y-127255238D01*
X147213333Y-127350476D01*
X147118095Y-127398095D01*
X152994762Y-128197619D02*
X152899524Y-128150000D01*
X152804286Y-128054762D01*
X152661429Y-127911905D01*
X152566190Y-127864286D01*
X152470952Y-127864286D01*
X152518571Y-128102381D02*
X152423333Y-128054762D01*
X152328095Y-127959524D01*
X152280476Y-127769048D01*
X152280476Y-127435714D01*
X152328095Y-127245238D01*
X152423333Y-127150000D01*
X152518571Y-127102381D01*
X152709048Y-127102381D01*
X152804286Y-127150000D01*
X152899524Y-127245238D01*
X152947143Y-127435714D01*
X152947143Y-127769048D01*
X152899524Y-127959524D01*
X152804286Y-128054762D01*
X152709048Y-128102381D01*
X152518571Y-128102381D01*
X153328095Y-127197619D02*
X153375714Y-127150000D01*
X153470952Y-127102381D01*
X153709048Y-127102381D01*
X153804286Y-127150000D01*
X153851905Y-127197619D01*
X153899524Y-127292857D01*
X153899524Y-127388095D01*
X153851905Y-127530952D01*
X153280476Y-128102381D01*
X153899524Y-128102381D01*
X144593334Y-121892381D02*
X144260000Y-121416190D01*
X144021905Y-121892381D02*
X144021905Y-120892381D01*
X144402858Y-120892381D01*
X144498096Y-120940000D01*
X144545715Y-120987619D01*
X144593334Y-121082857D01*
X144593334Y-121225714D01*
X144545715Y-121320952D01*
X144498096Y-121368571D01*
X144402858Y-121416190D01*
X144021905Y-121416190D01*
X145545715Y-121892381D02*
X144974286Y-121892381D01*
X145260000Y-121892381D02*
X145260000Y-120892381D01*
X145164762Y-121035238D01*
X145069524Y-121130476D01*
X144974286Y-121178095D01*
%LPC*%
D12*
X140100000Y-124700000D03*
X159900000Y-124700000D03*
D13*
X153078360Y-121500000D03*
X151381640Y-121500000D03*
D14*
X156900000Y-124700000D03*
X159900000Y-124700000D03*
D15*
X156100000Y-124700000D03*
X160700000Y-124700000D03*
D14*
X143100000Y-124700000D03*
X140100000Y-124700000D03*
D15*
X143900000Y-124700000D03*
X139300000Y-124700000D03*
D16*
X146210000Y-130130000D03*
X148750000Y-130130000D03*
X151290000Y-130130000D03*
X153830000Y-130130000D03*
D17*
X147160000Y-123750000D03*
X147160000Y-125650000D03*
X149360000Y-124700000D03*
X152830000Y-125650000D03*
X152830000Y-123750000D03*
X150630000Y-124700000D03*
D13*
X146911640Y-121500000D03*
X148608360Y-121500000D03*
M02*
