%FSLAX46Y46*%
G04 Gerber Fmt 4.6, Leading zero omitted, Abs format (unit mm)*
G04 Created by KiCad (PCBNEW (2014-08-24 BZR 5093)-product) date Sun 24 Aug 2014 09:58:16 PM CEST*
%MOMM*%
G01*
G04 APERTURE LIST*
%ADD10C,0.100000*%
%ADD11R,3.000000X3.800000*%
%ADD12R,0.998220X1.099820*%
%ADD13R,1.800000X1.800000*%
%ADD14R,1.400000X3.800000*%
%ADD15C,2.000000*%
%ADD16R,1.400000X1.000000*%
%ADD17C,0.609600*%
%ADD18C,0.406400*%
%ADD19C,1.500000*%
%ADD20C,2.032000*%
%ADD21C,0.203200*%
G04 APERTURE END LIST*
D10*
D11*
X140100000Y-124700000D03*
X159900000Y-124700000D03*
D12*
X153078360Y-121500000D03*
X151381640Y-121500000D03*
D13*
X156900000Y-124700000D03*
X159900000Y-124700000D03*
D14*
X156100000Y-124700000D03*
X160700000Y-124700000D03*
D13*
X143100000Y-124700000D03*
X140100000Y-124700000D03*
D14*
X143900000Y-124700000D03*
X139300000Y-124700000D03*
D15*
X146210000Y-130130000D03*
X148750000Y-130130000D03*
X151290000Y-130130000D03*
X153830000Y-130130000D03*
D16*
X147160000Y-123750000D03*
X147160000Y-125650000D03*
X149360000Y-124700000D03*
X152830000Y-125650000D03*
X152830000Y-123750000D03*
X150630000Y-124700000D03*
D12*
X146911640Y-121500000D03*
X148608360Y-121500000D03*
D17*
X149980000Y-122280000D03*
D18*
X149980000Y-121500000D02*
X151381640Y-121500000D01*
X148608360Y-121500000D02*
X149980000Y-121500000D01*
X149980000Y-121500000D02*
X149980000Y-122280000D01*
D19*
X150630000Y-129470000D02*
X151290000Y-130130000D01*
X150630000Y-124700000D02*
X150630000Y-129470000D01*
X149360000Y-129520000D02*
X148750000Y-130130000D01*
X149360000Y-124700000D02*
X149360000Y-129520000D01*
X148750000Y-130130000D02*
X151290000Y-130130000D01*
D18*
X147160000Y-121748360D02*
X146911640Y-121500000D01*
X147160000Y-123750000D02*
X147160000Y-121748360D01*
D20*
X144850000Y-125650000D02*
X143900000Y-124700000D01*
X147160000Y-125650000D02*
X144850000Y-125650000D01*
D21*
X152691470Y-122640000D02*
X153078360Y-122253110D01*
X153078360Y-122253110D02*
X153078360Y-121500000D01*
X152830000Y-125650000D02*
X151926800Y-125650000D01*
X151926800Y-125650000D02*
X151730000Y-125453200D01*
X151730000Y-125453200D02*
X151730000Y-123101358D01*
X151730000Y-123101358D02*
X152191358Y-122640000D01*
X152191358Y-122640000D02*
X152691470Y-122640000D01*
D19*
X152830000Y-123750000D02*
X153640000Y-123750000D01*
D20*
X155274562Y-124700000D02*
X156100000Y-124700000D01*
X154324562Y-123750000D02*
X155274562Y-124700000D01*
X153640000Y-123750000D02*
X154324562Y-123750000D01*
M02*
