M48
METRIC,TZ
T1C0.254
T2C0.330
T3C0.350
T4C0.500
T5C0.813
T6C1.016
%
G90
G05
T1
X137050Y-093640
X139200Y-097440
X142493Y-067386
X146180Y-055800
X147251Y-091089
X147530Y-092840
X147600Y-049970
X147720Y-057480
X148130Y-067380
X149021Y-089080
X149620Y-059370
X149930Y-090260
X150000Y-095420
X150010Y-065490
X150050Y-062900
X151250Y-061680
X152801Y-088296
X153120Y-059630
X153490Y-061700
X154090Y-088880
X155170Y-089290
X155970Y-059850
X157100Y-062250
X161730Y-091460
X161730Y-093620
T2
X102550Y-090400
X102600Y-099650
X104250Y-081200
X104300Y-108900
X105000Y-097500
X105400Y-088500
X106300Y-106100
X107500Y-080100
X107900Y-072550
X108100Y-117500
X109400Y-114500
X110000Y-097650
X110050Y-092350
X110200Y-089850
X110250Y-100200
X111100Y-072100
X111250Y-084650
X111300Y-105400
X112000Y-107900
X112050Y-082150
X113100Y-064650
X113100Y-125100
X113100Y-125100
X113100Y-125100
X113100Y-125100
X113100Y-125100
X113900Y-122000
X114050Y-077250
X114100Y-112800
X115250Y-114950
X115300Y-075050
X116500Y-064900
X118200Y-070600
X118200Y-119400
X119800Y-121450
X119800Y-131800
X119800Y-131800
X119800Y-131800
X119800Y-131800
X119800Y-131800
X119850Y-068600
X119900Y-058000
X119900Y-128600
X123000Y-059000
X123550Y-064800
X123600Y-125200
X125500Y-063350
X125550Y-126700
X127100Y-133800
X127400Y-053000
X127600Y-136800
X127600Y-136800
X127600Y-136800
X127600Y-136800
X127600Y-136800
X129850Y-060300
X129950Y-129750
X130500Y-054400
X132200Y-130950
X132250Y-059100
X135100Y-137600
X136200Y-049400
X136200Y-140600
X136200Y-140600
X136200Y-140600
X136200Y-140600
X137150Y-056950
X137150Y-133000
X137900Y-094910
X138900Y-051400
X139550Y-056250
X139550Y-133700
X141180Y-063510
X143020Y-063550
X143600Y-139800
X144750Y-134700
X144800Y-055150
X145300Y-047500
X145300Y-142200
X145300Y-142200
X145300Y-142200
X145300Y-142200
X146560Y-066450
X147300Y-055000
X147350Y-135000
X152500Y-140200
X152650Y-055000
X152650Y-135000
X154700Y-142500
X154700Y-142500
X154700Y-142500
X154700Y-142500
X154800Y-047600
X155200Y-055300
X155200Y-134750
X156300Y-050500
X160400Y-056300
X160400Y-133650
X161100Y-138700
X161100Y-138700
X162800Y-056950
X162850Y-133000
X163800Y-049400
X163800Y-140600
X164300Y-052500
X167750Y-059050
X167750Y-130850
X169500Y-135800
X169500Y-135800
X169850Y-129800
X170100Y-060250
X172400Y-052900
X172400Y-137100
X172600Y-056100
X174250Y-126700
X174500Y-063250
X176400Y-064850
X176450Y-125200
X177000Y-131200
X179900Y-061700
X180150Y-121350
X180200Y-058100
X180200Y-068550
X180200Y-131900
X181750Y-070550
X181850Y-119400
X183600Y-125000
X184700Y-074950
X184750Y-115000
X185900Y-077250
X185950Y-112750
X186000Y-068200
X186900Y-125000
X187200Y-064900
X187950Y-107850
X188000Y-082150
X188650Y-105450
X188700Y-117900
X188750Y-084600
X189700Y-100250
X189800Y-089800
X190000Y-092350
X190000Y-097650
X190500Y-075700
X192000Y-072600
X192000Y-117400
X192500Y-109900
X193500Y-083900
X194500Y-101500
X194900Y-092700
X195600Y-081200
X195700Y-108800
X197400Y-090400
X197500Y-099700
T3
X150885Y-090180
X150885Y-092720
X152155Y-090180
X152155Y-092720
T4
X130288Y-098105
X130440Y-098890
X130593Y-099675
X135422Y-096260
X135794Y-096969
X136166Y-097677
X164074Y-097612
X164448Y-096905
X164822Y-096198
X169456Y-099477
X169602Y-098690
X169747Y-097904
T5
X137190Y-065426
X138304Y-067709
X138916Y-063171
X140030Y-065454
X159623Y-066595
X160737Y-064313
X162463Y-066567
X163577Y-064285
T6
X143780Y-096640
X146210Y-130130
X146320Y-096640
X148750Y-130130
X148860Y-096640
X151290Y-130130
X151400Y-096640
X153830Y-130130
X153940Y-096640
X156480Y-096640
T0
M30
