%FSLAX34Y34*%
G04 Gerber Fmt 3.4, Leading zero omitted, Abs format*
G04 (created by PCBNEW (2014-06-29 BZR 4957)-product) date Tue 08 Jul 2014 04:48:14 PM CEST*
%MOIN*%
G01*
G70*
G90*
G04 APERTURE LIST*
%ADD10C,0.003937*%
%ADD11C,0.007874*%
G04 APERTURE END LIST*
G54D10*
G54D11*
X71044Y-39524D02*
X70650Y-39524D01*
X70800Y-39524D02*
X70781Y-39487D01*
X70781Y-39412D01*
X70800Y-39374D01*
X70819Y-39356D01*
X70856Y-39337D01*
X70969Y-39337D01*
X71006Y-39356D01*
X71025Y-39374D01*
X71044Y-39412D01*
X71044Y-39487D01*
X71025Y-39524D01*
X71044Y-39112D02*
X71025Y-39149D01*
X71006Y-39168D01*
X70969Y-39187D01*
X70856Y-39187D01*
X70819Y-39168D01*
X70800Y-39149D01*
X70781Y-39112D01*
X70781Y-39056D01*
X70800Y-39018D01*
X70819Y-38999D01*
X70856Y-38981D01*
X70969Y-38981D01*
X71006Y-38999D01*
X71025Y-39018D01*
X71044Y-39056D01*
X71044Y-39112D01*
X70781Y-38868D02*
X70781Y-38718D01*
X70650Y-38812D02*
X70988Y-38812D01*
X71025Y-38793D01*
X71044Y-38756D01*
X71044Y-38718D01*
X70781Y-38643D02*
X70781Y-38493D01*
X70650Y-38587D02*
X70988Y-38587D01*
X71025Y-38568D01*
X71044Y-38531D01*
X71044Y-38493D01*
X71044Y-38306D02*
X71025Y-38343D01*
X71006Y-38362D01*
X70969Y-38381D01*
X70856Y-38381D01*
X70819Y-38362D01*
X70800Y-38343D01*
X70781Y-38306D01*
X70781Y-38249D01*
X70800Y-38212D01*
X70819Y-38193D01*
X70856Y-38174D01*
X70969Y-38174D01*
X71006Y-38193D01*
X71025Y-38212D01*
X71044Y-38249D01*
X71044Y-38306D01*
X71044Y-38006D02*
X70781Y-38006D01*
X70819Y-38006D02*
X70800Y-37987D01*
X70781Y-37949D01*
X70781Y-37893D01*
X70800Y-37856D01*
X70838Y-37837D01*
X71044Y-37837D01*
X70838Y-37837D02*
X70800Y-37818D01*
X70781Y-37781D01*
X70781Y-37724D01*
X70800Y-37687D01*
X70838Y-37668D01*
X71044Y-37668D01*
X71044Y-37181D02*
X70650Y-37181D01*
X70894Y-37143D02*
X71044Y-37031D01*
X70781Y-37031D02*
X70931Y-37181D01*
X71025Y-36712D02*
X71044Y-36750D01*
X71044Y-36825D01*
X71025Y-36862D01*
X70988Y-36881D01*
X70838Y-36881D01*
X70800Y-36862D01*
X70781Y-36825D01*
X70781Y-36750D01*
X70800Y-36712D01*
X70838Y-36693D01*
X70875Y-36693D01*
X70913Y-36881D01*
X71025Y-36375D02*
X71044Y-36412D01*
X71044Y-36487D01*
X71025Y-36525D01*
X70988Y-36543D01*
X70838Y-36543D01*
X70800Y-36525D01*
X70781Y-36487D01*
X70781Y-36412D01*
X70800Y-36375D01*
X70838Y-36356D01*
X70875Y-36356D01*
X70913Y-36543D01*
X70781Y-36187D02*
X71175Y-36187D01*
X70800Y-36187D02*
X70781Y-36150D01*
X70781Y-36075D01*
X70800Y-36037D01*
X70819Y-36018D01*
X70856Y-36000D01*
X70969Y-36000D01*
X71006Y-36018D01*
X71025Y-36037D01*
X71044Y-36075D01*
X71044Y-36150D01*
X71025Y-36187D01*
X71044Y-35775D02*
X71025Y-35812D01*
X71006Y-35831D01*
X70969Y-35850D01*
X70856Y-35850D01*
X70819Y-35831D01*
X70800Y-35812D01*
X70781Y-35775D01*
X70781Y-35718D01*
X70800Y-35681D01*
X70819Y-35662D01*
X70856Y-35643D01*
X70969Y-35643D01*
X71006Y-35662D01*
X71025Y-35681D01*
X71044Y-35718D01*
X71044Y-35775D01*
X70781Y-35306D02*
X71044Y-35306D01*
X70781Y-35475D02*
X70988Y-35475D01*
X71025Y-35456D01*
X71044Y-35419D01*
X71044Y-35362D01*
X71025Y-35325D01*
X71006Y-35306D01*
X70781Y-35175D02*
X70781Y-35025D01*
X70650Y-35119D02*
X70988Y-35119D01*
X71025Y-35100D01*
X71044Y-35062D01*
X71044Y-35025D01*
X71751Y-37401D02*
G75*
G03X71751Y-37401I-12696J0D01*
G74*
G01*
%LPC*%
M02*
