%FSLAX34Y34*%
G04 Gerber Fmt 3.4, Leading zero omitted, Abs format*
G04 (created by PCBNEW (2014-06-29 BZR 4957)-product) date Tue 15 Jul 2014 06:01:12 PM CEST*
%MOIN*%
G01*
G70*
G90*
G04 APERTURE LIST*
%ADD10C,0.003937*%
%ADD11C,0.007874*%
G04 APERTURE END LIST*
G54D10*
G54D11*
X28606Y-13143D02*
X28700Y-13237D01*
X28606Y-13331D01*
X28512Y-13237D01*
X28606Y-13143D01*
X28606Y-13331D01*
X28606Y-12581D02*
X28512Y-11456D01*
X28606Y-11362D01*
X28700Y-11456D01*
X28606Y-12581D01*
X28606Y-11362D01*
X32168Y-13143D02*
X32074Y-13237D01*
X31793Y-13331D01*
X31605Y-13331D01*
X31324Y-13237D01*
X31137Y-13050D01*
X31043Y-12862D01*
X30949Y-12487D01*
X30949Y-12206D01*
X31043Y-11831D01*
X31137Y-11644D01*
X31324Y-11456D01*
X31605Y-11362D01*
X31793Y-11362D01*
X32074Y-11456D01*
X32168Y-11550D01*
X33011Y-13331D02*
X33011Y-11362D01*
X33011Y-12300D02*
X34136Y-12300D01*
X34136Y-13331D02*
X34136Y-11362D01*
X35074Y-12300D02*
X35730Y-12300D01*
X36011Y-13331D02*
X35074Y-13331D01*
X35074Y-11362D01*
X36011Y-11362D01*
X37980Y-13143D02*
X37886Y-13237D01*
X37605Y-13331D01*
X37417Y-13331D01*
X37136Y-13237D01*
X36949Y-13050D01*
X36855Y-12862D01*
X36761Y-12487D01*
X36761Y-12206D01*
X36855Y-11831D01*
X36949Y-11644D01*
X37136Y-11456D01*
X37417Y-11362D01*
X37605Y-11362D01*
X37886Y-11456D01*
X37980Y-11550D01*
X38823Y-13331D02*
X38823Y-11362D01*
X39948Y-13331D02*
X39104Y-12206D01*
X39948Y-11362D02*
X38823Y-12487D01*
X42010Y-11362D02*
X43135Y-11362D01*
X42573Y-13331D02*
X42573Y-11362D01*
X43791Y-13331D02*
X43791Y-11362D01*
X43791Y-12300D02*
X44916Y-12300D01*
X44916Y-13331D02*
X44916Y-11362D01*
X46229Y-11362D02*
X46604Y-11362D01*
X46791Y-11456D01*
X46979Y-11644D01*
X47072Y-12019D01*
X47072Y-12675D01*
X46979Y-13050D01*
X46791Y-13237D01*
X46604Y-13331D01*
X46229Y-13331D01*
X46041Y-13237D01*
X45854Y-13050D01*
X45760Y-12675D01*
X45760Y-12019D01*
X45854Y-11644D01*
X46041Y-11456D01*
X46229Y-11362D01*
X47822Y-13237D02*
X48103Y-13331D01*
X48572Y-13331D01*
X48760Y-13237D01*
X48853Y-13143D01*
X48947Y-12956D01*
X48947Y-12769D01*
X48853Y-12581D01*
X48760Y-12487D01*
X48572Y-12394D01*
X48197Y-12300D01*
X48010Y-12206D01*
X47916Y-12112D01*
X47822Y-11925D01*
X47822Y-11737D01*
X47916Y-11550D01*
X48010Y-11456D01*
X48197Y-11362D01*
X48666Y-11362D01*
X48947Y-11456D01*
X49791Y-12300D02*
X50447Y-12300D01*
X50728Y-13331D02*
X49791Y-13331D01*
X49791Y-11362D01*
X50728Y-11362D01*
X53071Y-13331D02*
X53071Y-12019D01*
X53071Y-12206D02*
X53165Y-12112D01*
X53353Y-12019D01*
X53634Y-12019D01*
X53821Y-12112D01*
X53915Y-12300D01*
X53915Y-13331D01*
X53915Y-12300D02*
X54009Y-12112D01*
X54196Y-12019D01*
X54478Y-12019D01*
X54665Y-12112D01*
X54759Y-12300D01*
X54759Y-13331D01*
X55696Y-13331D02*
X55696Y-12019D01*
X55696Y-11362D02*
X55602Y-11456D01*
X55696Y-11550D01*
X55790Y-11456D01*
X55696Y-11362D01*
X55696Y-11550D01*
X57477Y-13237D02*
X57290Y-13331D01*
X56915Y-13331D01*
X56727Y-13237D01*
X56634Y-13143D01*
X56540Y-12956D01*
X56540Y-12394D01*
X56634Y-12206D01*
X56727Y-12112D01*
X56915Y-12019D01*
X57290Y-12019D01*
X57477Y-12112D01*
X58321Y-13331D02*
X58321Y-12019D01*
X58321Y-12394D02*
X58415Y-12206D01*
X58508Y-12112D01*
X58696Y-12019D01*
X58883Y-12019D01*
X59821Y-13331D02*
X59633Y-13237D01*
X59539Y-13143D01*
X59446Y-12956D01*
X59446Y-12394D01*
X59539Y-12206D01*
X59633Y-12112D01*
X59821Y-12019D01*
X60102Y-12019D01*
X60289Y-12112D01*
X60383Y-12206D01*
X60477Y-12394D01*
X60477Y-12956D01*
X60383Y-13143D01*
X60289Y-13237D01*
X60102Y-13331D01*
X59821Y-13331D01*
X61320Y-12581D02*
X62820Y-12581D01*
X63758Y-13331D02*
X63758Y-11362D01*
X64414Y-12769D01*
X65070Y-11362D01*
X65070Y-13331D01*
X66851Y-13331D02*
X66851Y-12300D01*
X66757Y-12112D01*
X66570Y-12019D01*
X66195Y-12019D01*
X66007Y-12112D01*
X66851Y-13237D02*
X66664Y-13331D01*
X66195Y-13331D01*
X66007Y-13237D01*
X65914Y-13050D01*
X65914Y-12862D01*
X66007Y-12675D01*
X66195Y-12581D01*
X66664Y-12581D01*
X66851Y-12487D01*
X67507Y-12019D02*
X68257Y-12019D01*
X67788Y-11362D02*
X67788Y-13050D01*
X67882Y-13237D01*
X68070Y-13331D01*
X68257Y-13331D01*
X69757Y-13237D02*
X69569Y-13331D01*
X69194Y-13331D01*
X69007Y-13237D01*
X68913Y-13143D01*
X68820Y-12956D01*
X68820Y-12394D01*
X68913Y-12206D01*
X69007Y-12112D01*
X69194Y-12019D01*
X69569Y-12019D01*
X69757Y-12112D01*
X70601Y-13331D02*
X70601Y-11362D01*
X71444Y-13331D02*
X71444Y-12300D01*
X71350Y-12112D01*
X71163Y-12019D01*
X70882Y-12019D01*
X70694Y-12112D01*
X70601Y-12206D01*
X73600Y-12019D02*
X74350Y-12019D01*
X73881Y-13331D02*
X73881Y-11644D01*
X73975Y-11456D01*
X74163Y-11362D01*
X74350Y-11362D01*
X75287Y-13331D02*
X75100Y-13237D01*
X75006Y-13143D01*
X74913Y-12956D01*
X74913Y-12394D01*
X75006Y-12206D01*
X75100Y-12112D01*
X75287Y-12019D01*
X75569Y-12019D01*
X75756Y-12112D01*
X75850Y-12206D01*
X75944Y-12394D01*
X75944Y-12956D01*
X75850Y-13143D01*
X75756Y-13237D01*
X75569Y-13331D01*
X75287Y-13331D01*
X77068Y-13331D02*
X76881Y-13237D01*
X76787Y-13143D01*
X76694Y-12956D01*
X76694Y-12394D01*
X76787Y-12206D01*
X76881Y-12112D01*
X77068Y-12019D01*
X77350Y-12019D01*
X77537Y-12112D01*
X77631Y-12206D01*
X77725Y-12394D01*
X77725Y-12956D01*
X77631Y-13143D01*
X77537Y-13237D01*
X77350Y-13331D01*
X77068Y-13331D01*
X78287Y-12019D02*
X79037Y-12019D01*
X78568Y-11362D02*
X78568Y-13050D01*
X78662Y-13237D01*
X78850Y-13331D01*
X79037Y-13331D01*
X79693Y-12019D02*
X79693Y-13987D01*
X79693Y-12112D02*
X79881Y-12019D01*
X80256Y-12019D01*
X80443Y-12112D01*
X80537Y-12206D01*
X80631Y-12394D01*
X80631Y-12956D01*
X80537Y-13143D01*
X80443Y-13237D01*
X80256Y-13331D01*
X79881Y-13331D01*
X79693Y-13237D01*
X81474Y-13331D02*
X81474Y-12019D01*
X81474Y-12394D02*
X81568Y-12206D01*
X81662Y-12112D01*
X81849Y-12019D01*
X82037Y-12019D01*
X82693Y-13331D02*
X82693Y-12019D01*
X82693Y-11362D02*
X82599Y-11456D01*
X82693Y-11550D01*
X82787Y-11456D01*
X82693Y-11362D01*
X82693Y-11550D01*
X83630Y-12019D02*
X83630Y-13331D01*
X83630Y-12206D02*
X83724Y-12112D01*
X83911Y-12019D01*
X84193Y-12019D01*
X84380Y-12112D01*
X84474Y-12300D01*
X84474Y-13331D01*
X85130Y-12019D02*
X85880Y-12019D01*
X85411Y-11362D02*
X85411Y-13050D01*
X85505Y-13237D01*
X85692Y-13331D01*
X85880Y-13331D01*
X86442Y-13237D02*
X86630Y-13331D01*
X87005Y-13331D01*
X87192Y-13237D01*
X87286Y-13050D01*
X87286Y-12956D01*
X87192Y-12769D01*
X87005Y-12675D01*
X86724Y-12675D01*
X86536Y-12581D01*
X86442Y-12394D01*
X86442Y-12300D01*
X86536Y-12112D01*
X86724Y-12019D01*
X87005Y-12019D01*
X87192Y-12112D01*
X89629Y-13143D02*
X89723Y-13237D01*
X89629Y-13331D01*
X89536Y-13237D01*
X89629Y-13143D01*
X89629Y-13331D01*
X89629Y-12581D02*
X89536Y-11456D01*
X89629Y-11362D01*
X89723Y-11456D01*
X89629Y-12581D01*
X89629Y-11362D01*
X64144Y-26913D02*
G75*
G03X64144Y-26913I-656J0D01*
G74*
G01*
X62503Y-26913D02*
X64472Y-26913D01*
X63488Y-25929D02*
X63488Y-27897D01*
X64230Y-38047D02*
G75*
G03X64230Y-38047I-656J0D01*
G74*
G01*
X62590Y-38047D02*
X64559Y-38047D01*
X63574Y-37062D02*
X63574Y-39031D01*
X68367Y-39623D02*
X67973Y-39623D01*
X68123Y-39623D02*
X68104Y-39585D01*
X68104Y-39510D01*
X68123Y-39473D01*
X68142Y-39454D01*
X68179Y-39435D01*
X68292Y-39435D01*
X68329Y-39454D01*
X68348Y-39473D01*
X68367Y-39510D01*
X68367Y-39585D01*
X68348Y-39623D01*
X68367Y-39210D02*
X68348Y-39248D01*
X68329Y-39266D01*
X68292Y-39285D01*
X68179Y-39285D01*
X68142Y-39266D01*
X68123Y-39248D01*
X68104Y-39210D01*
X68104Y-39154D01*
X68123Y-39116D01*
X68142Y-39098D01*
X68179Y-39079D01*
X68292Y-39079D01*
X68329Y-39098D01*
X68348Y-39116D01*
X68367Y-39154D01*
X68367Y-39210D01*
X68104Y-38967D02*
X68104Y-38817D01*
X67973Y-38910D02*
X68310Y-38910D01*
X68348Y-38892D01*
X68367Y-38854D01*
X68367Y-38817D01*
X68104Y-38742D02*
X68104Y-38592D01*
X67973Y-38685D02*
X68310Y-38685D01*
X68348Y-38667D01*
X68367Y-38629D01*
X68367Y-38592D01*
X68367Y-38404D02*
X68348Y-38442D01*
X68329Y-38460D01*
X68292Y-38479D01*
X68179Y-38479D01*
X68142Y-38460D01*
X68123Y-38442D01*
X68104Y-38404D01*
X68104Y-38348D01*
X68123Y-38310D01*
X68142Y-38292D01*
X68179Y-38273D01*
X68292Y-38273D01*
X68329Y-38292D01*
X68348Y-38310D01*
X68367Y-38348D01*
X68367Y-38404D01*
X68367Y-38104D02*
X68104Y-38104D01*
X68142Y-38104D02*
X68123Y-38085D01*
X68104Y-38048D01*
X68104Y-37992D01*
X68123Y-37954D01*
X68160Y-37935D01*
X68367Y-37935D01*
X68160Y-37935D02*
X68123Y-37917D01*
X68104Y-37879D01*
X68104Y-37823D01*
X68123Y-37785D01*
X68160Y-37767D01*
X68367Y-37767D01*
X68367Y-37279D02*
X67973Y-37279D01*
X68217Y-37242D02*
X68367Y-37129D01*
X68104Y-37129D02*
X68254Y-37279D01*
X68348Y-36811D02*
X68367Y-36848D01*
X68367Y-36923D01*
X68348Y-36961D01*
X68310Y-36979D01*
X68160Y-36979D01*
X68123Y-36961D01*
X68104Y-36923D01*
X68104Y-36848D01*
X68123Y-36811D01*
X68160Y-36792D01*
X68198Y-36792D01*
X68235Y-36979D01*
X68348Y-36473D02*
X68367Y-36511D01*
X68367Y-36586D01*
X68348Y-36623D01*
X68310Y-36642D01*
X68160Y-36642D01*
X68123Y-36623D01*
X68104Y-36586D01*
X68104Y-36511D01*
X68123Y-36473D01*
X68160Y-36454D01*
X68198Y-36454D01*
X68235Y-36642D01*
X68104Y-36286D02*
X68498Y-36286D01*
X68123Y-36286D02*
X68104Y-36248D01*
X68104Y-36173D01*
X68123Y-36136D01*
X68142Y-36117D01*
X68179Y-36098D01*
X68292Y-36098D01*
X68329Y-36117D01*
X68348Y-36136D01*
X68367Y-36173D01*
X68367Y-36248D01*
X68348Y-36286D01*
X68367Y-35873D02*
X68348Y-35911D01*
X68329Y-35929D01*
X68292Y-35948D01*
X68179Y-35948D01*
X68142Y-35929D01*
X68123Y-35911D01*
X68104Y-35873D01*
X68104Y-35817D01*
X68123Y-35779D01*
X68142Y-35761D01*
X68179Y-35742D01*
X68292Y-35742D01*
X68329Y-35761D01*
X68348Y-35779D01*
X68367Y-35817D01*
X68367Y-35873D01*
X68104Y-35404D02*
X68367Y-35404D01*
X68104Y-35573D02*
X68310Y-35573D01*
X68348Y-35554D01*
X68367Y-35517D01*
X68367Y-35461D01*
X68348Y-35423D01*
X68329Y-35404D01*
X68104Y-35273D02*
X68104Y-35123D01*
X67973Y-35217D02*
X68310Y-35217D01*
X68348Y-35198D01*
X68367Y-35161D01*
X68367Y-35123D01*
X71057Y-39126D02*
X71057Y-38976D01*
X70926Y-39070D02*
X71263Y-39070D01*
X71301Y-39051D01*
X71319Y-39013D01*
X71319Y-38976D01*
X71319Y-38788D02*
X71301Y-38826D01*
X71282Y-38845D01*
X71244Y-38863D01*
X71132Y-38863D01*
X71094Y-38845D01*
X71076Y-38826D01*
X71057Y-38788D01*
X71057Y-38732D01*
X71076Y-38695D01*
X71094Y-38676D01*
X71132Y-38657D01*
X71244Y-38657D01*
X71282Y-38676D01*
X71301Y-38695D01*
X71319Y-38732D01*
X71319Y-38788D01*
X71057Y-38488D02*
X71451Y-38488D01*
X71076Y-38488D02*
X71057Y-38451D01*
X71057Y-38376D01*
X71076Y-38338D01*
X71094Y-38320D01*
X71132Y-38301D01*
X71244Y-38301D01*
X71282Y-38320D01*
X71301Y-38338D01*
X71319Y-38376D01*
X71319Y-38451D01*
X71301Y-38488D01*
X71319Y-37832D02*
X70926Y-37832D01*
X71169Y-37795D02*
X71319Y-37682D01*
X71057Y-37682D02*
X71207Y-37832D01*
X71301Y-37364D02*
X71319Y-37401D01*
X71319Y-37476D01*
X71301Y-37514D01*
X71263Y-37532D01*
X71113Y-37532D01*
X71076Y-37514D01*
X71057Y-37476D01*
X71057Y-37401D01*
X71076Y-37364D01*
X71113Y-37345D01*
X71151Y-37345D01*
X71188Y-37532D01*
X71301Y-37026D02*
X71319Y-37064D01*
X71319Y-37139D01*
X71301Y-37176D01*
X71263Y-37195D01*
X71113Y-37195D01*
X71076Y-37176D01*
X71057Y-37139D01*
X71057Y-37064D01*
X71076Y-37026D01*
X71113Y-37007D01*
X71151Y-37007D01*
X71188Y-37195D01*
X71057Y-36839D02*
X71451Y-36839D01*
X71076Y-36839D02*
X71057Y-36801D01*
X71057Y-36726D01*
X71076Y-36689D01*
X71094Y-36670D01*
X71132Y-36651D01*
X71244Y-36651D01*
X71282Y-36670D01*
X71301Y-36689D01*
X71319Y-36726D01*
X71319Y-36801D01*
X71301Y-36839D01*
X71319Y-36426D02*
X71301Y-36464D01*
X71282Y-36482D01*
X71244Y-36501D01*
X71132Y-36501D01*
X71094Y-36482D01*
X71076Y-36464D01*
X71057Y-36426D01*
X71057Y-36370D01*
X71076Y-36332D01*
X71094Y-36314D01*
X71132Y-36295D01*
X71244Y-36295D01*
X71282Y-36314D01*
X71301Y-36332D01*
X71319Y-36370D01*
X71319Y-36426D01*
X71057Y-35958D02*
X71319Y-35958D01*
X71057Y-36126D02*
X71263Y-36126D01*
X71301Y-36107D01*
X71319Y-36070D01*
X71319Y-36014D01*
X71301Y-35976D01*
X71282Y-35958D01*
X71057Y-35826D02*
X71057Y-35676D01*
X70926Y-35770D02*
X71263Y-35770D01*
X71301Y-35751D01*
X71319Y-35714D01*
X71319Y-35676D01*
M02*
