G04 #@! TF.FileFunction,Soldermask,Top*
%FSLAX46Y46*%
G04 Gerber Fmt 4.6, Leading zero omitted, Abs format (unit mm)*
G04 Created by KiCad (PCBNEW (2015-03-05 BZR 5480)-product) date Thu 05 Mar 2015 09:42:09 PM CET*
%MOMM*%
G01*
G04 APERTURE LIST*
%ADD10C,0.100000*%
%ADD11O,3.550000X5.550000*%
%ADD12R,1.548600X1.347940*%
%ADD13R,1.347940X1.548600*%
%ADD14R,1.450000X1.850000*%
%ADD15R,0.550000X1.050000*%
%ADD16R,1.850000X1.450000*%
%ADD17R,1.050000X0.550000*%
%ADD18R,1.700000X1.700000*%
%ADD19C,1.700000*%
G04 APERTURE END LIST*
D10*
D11*
X151650000Y-130480000D03*
X147900000Y-129930000D03*
D10*
G36*
X143640729Y-54622507D02*
X143944171Y-56141087D01*
X142622361Y-56405211D01*
X142318919Y-54886631D01*
X143640729Y-54622507D01*
X143640729Y-54622507D01*
G37*
G36*
X141777639Y-54994789D02*
X142081081Y-56513369D01*
X140759271Y-56777493D01*
X140455829Y-55258913D01*
X141777639Y-54994789D01*
X141777639Y-54994789D01*
G37*
G36*
X135904004Y-56663189D02*
X136496628Y-58093909D01*
X135251294Y-58609743D01*
X134658670Y-57179023D01*
X135904004Y-56663189D01*
X135904004Y-56663189D01*
G37*
G36*
X134148706Y-57390257D02*
X134741330Y-58820977D01*
X133495996Y-59336811D01*
X132903372Y-57906091D01*
X134148706Y-57390257D01*
X134148706Y-57390257D01*
G37*
G36*
X128618721Y-60253183D02*
X129480200Y-61540046D01*
X128360083Y-62289899D01*
X127498604Y-61003036D01*
X128618721Y-60253183D01*
X128618721Y-60253183D01*
G37*
G36*
X127039917Y-61310101D02*
X127901396Y-62596964D01*
X126781279Y-63346817D01*
X125919800Y-62059954D01*
X127039917Y-61310101D01*
X127039917Y-61310101D01*
G37*
G36*
X122300779Y-65004195D02*
X123395805Y-66099221D01*
X122442667Y-67052359D01*
X121347641Y-65957333D01*
X122300779Y-65004195D01*
X122300779Y-65004195D01*
G37*
G36*
X120957333Y-66347641D02*
X122052359Y-67442667D01*
X121099221Y-68395805D01*
X120004195Y-67300779D01*
X120957333Y-66347641D01*
X120957333Y-66347641D01*
G37*
G36*
X117006846Y-71019349D02*
X118295211Y-71878581D01*
X117547314Y-73000005D01*
X116258949Y-72140773D01*
X117006846Y-71019349D01*
X117006846Y-71019349D01*
G37*
G36*
X115952686Y-72599995D02*
X117241051Y-73459227D01*
X116493154Y-74580651D01*
X115204789Y-73721419D01*
X115952686Y-72599995D01*
X115952686Y-72599995D01*
G37*
G36*
X112956091Y-77903372D02*
X114386811Y-78495996D01*
X113870977Y-79741330D01*
X112440257Y-79148706D01*
X112956091Y-77903372D01*
X112956091Y-77903372D01*
G37*
G36*
X112229023Y-79658670D02*
X113659743Y-80251294D01*
X113143909Y-81496628D01*
X111713189Y-80904004D01*
X112229023Y-79658670D01*
X112229023Y-79658670D01*
G37*
G36*
X110305870Y-85506602D02*
X111824977Y-85807393D01*
X111563160Y-87129662D01*
X110044053Y-86828871D01*
X110305870Y-85506602D01*
X110305870Y-85506602D01*
G37*
G36*
X109936840Y-87370338D02*
X111455947Y-87671129D01*
X111194130Y-88993398D01*
X109675023Y-88692607D01*
X109936840Y-87370338D01*
X109936840Y-87370338D01*
G37*
D12*
X110000000Y-94050040D03*
X110000000Y-95949960D03*
D10*
G36*
X109672507Y-101359271D02*
X111191087Y-101055829D01*
X111455211Y-102377639D01*
X109936631Y-102681081D01*
X109672507Y-101359271D01*
X109672507Y-101359271D01*
G37*
G36*
X110044789Y-103222361D02*
X111563369Y-102918919D01*
X111827493Y-104240729D01*
X110308913Y-104544171D01*
X110044789Y-103222361D01*
X110044789Y-103222361D01*
G37*
G36*
X111713189Y-109145996D02*
X113143909Y-108553372D01*
X113659743Y-109798706D01*
X112229023Y-110391330D01*
X111713189Y-109145996D01*
X111713189Y-109145996D01*
G37*
G36*
X112440257Y-110901294D02*
X113870977Y-110308670D01*
X114386811Y-111554004D01*
X112956091Y-112146628D01*
X112440257Y-110901294D01*
X112440257Y-110901294D01*
G37*
G36*
X115153183Y-116281279D02*
X116440046Y-115419800D01*
X117189899Y-116539917D01*
X115903036Y-117401396D01*
X115153183Y-116281279D01*
X115153183Y-116281279D01*
G37*
G36*
X116210101Y-117860083D02*
X117496964Y-116998604D01*
X118246817Y-118118721D01*
X116959954Y-118980200D01*
X116210101Y-117860083D01*
X116210101Y-117860083D01*
G37*
G36*
X120004195Y-122699221D02*
X121099221Y-121604195D01*
X122052359Y-122557333D01*
X120957333Y-123652359D01*
X120004195Y-122699221D01*
X120004195Y-122699221D01*
G37*
G36*
X121347641Y-124042667D02*
X122442667Y-122947641D01*
X123395805Y-123900779D01*
X122300779Y-124995805D01*
X121347641Y-124042667D01*
X121347641Y-124042667D01*
G37*
G36*
X125969349Y-127993154D02*
X126828581Y-126704789D01*
X127950005Y-127452686D01*
X127090773Y-128741051D01*
X125969349Y-127993154D01*
X125969349Y-127993154D01*
G37*
G36*
X127549995Y-129047314D02*
X128409227Y-127758949D01*
X129530651Y-128506846D01*
X128671419Y-129795211D01*
X127549995Y-129047314D01*
X127549995Y-129047314D01*
G37*
G36*
X132903372Y-132043909D02*
X133495996Y-130613189D01*
X134741330Y-131129023D01*
X134148706Y-132559743D01*
X132903372Y-132043909D01*
X132903372Y-132043909D01*
G37*
G36*
X134658670Y-132770977D02*
X135251294Y-131340257D01*
X136496628Y-131856091D01*
X135904004Y-133286811D01*
X134658670Y-132770977D01*
X134658670Y-132770977D01*
G37*
G36*
X140406602Y-134644130D02*
X140707393Y-133125023D01*
X142029662Y-133386840D01*
X141728871Y-134905947D01*
X140406602Y-134644130D01*
X140406602Y-134644130D01*
G37*
G36*
X142270338Y-135013160D02*
X142571129Y-133494053D01*
X143893398Y-133755870D01*
X143592607Y-135274977D01*
X142270338Y-135013160D01*
X142270338Y-135013160D01*
G37*
D13*
X149050040Y-135000000D03*
X150949960Y-135000000D03*
D10*
G36*
X156364933Y-135285022D02*
X156053544Y-133768051D01*
X157373953Y-133497010D01*
X157685342Y-135013981D01*
X156364933Y-135285022D01*
X156364933Y-135285022D01*
G37*
G36*
X158226047Y-134902990D02*
X157914658Y-133386019D01*
X159235067Y-133114978D01*
X159546456Y-134631949D01*
X158226047Y-134902990D01*
X158226047Y-134902990D01*
G37*
G36*
X164103012Y-133243097D02*
X163502906Y-131815499D01*
X164745522Y-131293151D01*
X165345628Y-132720749D01*
X164103012Y-133243097D01*
X164103012Y-133243097D01*
G37*
G36*
X165854478Y-132506849D02*
X165254372Y-131079251D01*
X166496988Y-130556903D01*
X167097094Y-131984501D01*
X165854478Y-132506849D01*
X165854478Y-132506849D01*
G37*
G36*
X171186684Y-129850014D02*
X170320717Y-128566166D01*
X171438210Y-127812408D01*
X172304177Y-129096256D01*
X171186684Y-129850014D01*
X171186684Y-129850014D01*
G37*
G36*
X172761790Y-128787592D02*
X171895823Y-127503744D01*
X173013316Y-126749986D01*
X173879283Y-128033834D01*
X172761790Y-128787592D01*
X172761790Y-128787592D01*
G37*
G36*
X177699221Y-124995805D02*
X176604195Y-123900779D01*
X177557333Y-122947641D01*
X178652359Y-124042667D01*
X177699221Y-124995805D01*
X177699221Y-124995805D01*
G37*
G36*
X179042667Y-123652359D02*
X177947641Y-122557333D01*
X178900779Y-121604195D01*
X179995805Y-122699221D01*
X179042667Y-123652359D01*
X179042667Y-123652359D01*
G37*
G36*
X183040046Y-118980200D02*
X181753183Y-118118721D01*
X182503036Y-116998604D01*
X183789899Y-117860083D01*
X183040046Y-118980200D01*
X183040046Y-118980200D01*
G37*
G36*
X184096964Y-117401396D02*
X182810101Y-116539917D01*
X183559954Y-115419800D01*
X184846817Y-116281279D01*
X184096964Y-117401396D01*
X184096964Y-117401396D01*
G37*
G36*
X187040773Y-112096789D02*
X185611090Y-111501669D01*
X186129097Y-110257237D01*
X187558780Y-110852357D01*
X187040773Y-112096789D01*
X187040773Y-112096789D01*
G37*
G36*
X187770903Y-110342763D02*
X186341220Y-109747643D01*
X186859227Y-108503211D01*
X188288910Y-109098331D01*
X187770903Y-110342763D01*
X187770903Y-110342763D01*
G37*
G36*
X189641087Y-104594171D02*
X188122507Y-104290729D01*
X188386631Y-102968919D01*
X189905211Y-103272361D01*
X189641087Y-104594171D01*
X189641087Y-104594171D01*
G37*
G36*
X190013369Y-102731081D02*
X188494789Y-102427639D01*
X188758913Y-101105829D01*
X190277493Y-101409271D01*
X190013369Y-102731081D01*
X190013369Y-102731081D01*
G37*
D12*
X190000000Y-95949960D03*
X190000000Y-94050040D03*
D10*
G36*
X190324977Y-88642607D02*
X188805870Y-88943398D01*
X188544053Y-87621129D01*
X190063160Y-87320338D01*
X190324977Y-88642607D01*
X190324977Y-88642607D01*
G37*
G36*
X189955947Y-86778871D02*
X188436840Y-87079662D01*
X188175023Y-85757393D01*
X189694130Y-85456602D01*
X189955947Y-86778871D01*
X189955947Y-86778871D01*
G37*
G36*
X188288910Y-80901669D02*
X186859227Y-81496789D01*
X186341220Y-80252357D01*
X187770903Y-79657237D01*
X188288910Y-80901669D01*
X188288910Y-80901669D01*
G37*
G36*
X187558780Y-79147643D02*
X186129097Y-79742763D01*
X185611090Y-78498331D01*
X187040773Y-77903211D01*
X187558780Y-79147643D01*
X187558780Y-79147643D01*
G37*
G36*
X184796817Y-73668721D02*
X183509954Y-74530200D01*
X182760101Y-73410083D01*
X184046964Y-72548604D01*
X184796817Y-73668721D01*
X184796817Y-73668721D01*
G37*
G36*
X183739899Y-72089917D02*
X182453036Y-72951396D01*
X181703183Y-71831279D01*
X182990046Y-70969800D01*
X183739899Y-72089917D01*
X183739899Y-72089917D01*
G37*
G36*
X179995805Y-67300779D02*
X178900779Y-68395805D01*
X177947641Y-67442667D01*
X179042667Y-66347641D01*
X179995805Y-67300779D01*
X179995805Y-67300779D01*
G37*
G36*
X178652359Y-65957333D02*
X177557333Y-67052359D01*
X176604195Y-66099221D01*
X177699221Y-65004195D01*
X178652359Y-65957333D01*
X178652359Y-65957333D01*
G37*
G36*
X174080200Y-62059954D02*
X173218721Y-63346817D01*
X172098604Y-62596964D01*
X172960083Y-61310101D01*
X174080200Y-62059954D01*
X174080200Y-62059954D01*
G37*
G36*
X172501396Y-61003036D02*
X171639917Y-62289899D01*
X170519800Y-61540046D01*
X171381279Y-60253183D01*
X172501396Y-61003036D01*
X172501396Y-61003036D01*
G37*
G36*
X167096628Y-57906091D02*
X166504004Y-59336811D01*
X165258670Y-58820977D01*
X165851294Y-57390257D01*
X167096628Y-57906091D01*
X167096628Y-57906091D01*
G37*
G36*
X165341330Y-57179023D02*
X164748706Y-58609743D01*
X163503372Y-58093909D01*
X164095996Y-56663189D01*
X165341330Y-57179023D01*
X165341330Y-57179023D01*
G37*
G36*
X159544171Y-55358913D02*
X159240729Y-56877493D01*
X157918919Y-56613369D01*
X158222361Y-55094789D01*
X159544171Y-55358913D01*
X159544171Y-55358913D01*
G37*
G36*
X157681081Y-54986631D02*
X157377639Y-56505211D01*
X156055829Y-56241087D01*
X156359271Y-54722507D01*
X157681081Y-54986631D01*
X157681081Y-54986631D01*
G37*
D13*
X150949960Y-55000000D03*
X149050040Y-55000000D03*
D10*
G36*
X142927656Y-51518048D02*
X144741794Y-51155547D01*
X145025916Y-52577438D01*
X143211778Y-52939939D01*
X142927656Y-51518048D01*
X142927656Y-51518048D01*
G37*
G36*
X142281034Y-48282020D02*
X144095172Y-47919519D01*
X144379294Y-49341410D01*
X142565156Y-49703911D01*
X142281034Y-48282020D01*
X142281034Y-48282020D01*
G37*
G36*
X137574084Y-49222562D02*
X139388222Y-48860061D01*
X139672344Y-50281952D01*
X137858206Y-50644453D01*
X137574084Y-49222562D01*
X137574084Y-49222562D01*
G37*
G36*
X138220706Y-52458590D02*
X140034844Y-52096089D01*
X140318966Y-53517980D01*
X138504828Y-53880481D01*
X138220706Y-52458590D01*
X138220706Y-52458590D01*
G37*
G36*
X140809670Y-51125449D02*
X141839316Y-50919705D01*
X141947086Y-51459043D01*
X140917440Y-51664787D01*
X140809670Y-51125449D01*
X140809670Y-51125449D01*
G37*
G36*
X140652914Y-50340957D02*
X141682560Y-50135213D01*
X141790330Y-50674551D01*
X140760684Y-50880295D01*
X140652914Y-50340957D01*
X140652914Y-50340957D01*
G37*
G36*
X134516705Y-53690131D02*
X136225882Y-52982166D01*
X136780773Y-54321791D01*
X135071596Y-55029756D01*
X134516705Y-53690131D01*
X134516705Y-53690131D01*
G37*
G36*
X133253849Y-50641329D02*
X134963026Y-49933364D01*
X135517917Y-51272989D01*
X133808740Y-51980954D01*
X133253849Y-50641329D01*
X133253849Y-50641329D01*
G37*
G36*
X128819227Y-52478209D02*
X130528404Y-51770244D01*
X131083295Y-53109869D01*
X129374118Y-53817834D01*
X128819227Y-52478209D01*
X128819227Y-52478209D01*
G37*
G36*
X130082083Y-55527011D02*
X131791260Y-54819046D01*
X132346151Y-56158671D01*
X130636974Y-56866636D01*
X130082083Y-55527011D01*
X130082083Y-55527011D01*
G37*
G36*
X132362798Y-53716394D02*
X133332872Y-53314576D01*
X133543348Y-53822710D01*
X132573274Y-54224528D01*
X132362798Y-53716394D01*
X132362798Y-53716394D01*
G37*
G36*
X132056652Y-52977290D02*
X133026726Y-52575472D01*
X133237202Y-53083606D01*
X132267128Y-53485424D01*
X132056652Y-52977290D01*
X132056652Y-52977290D01*
G37*
G36*
X126740275Y-57548125D02*
X128277596Y-56518978D01*
X129084225Y-57723905D01*
X127546904Y-58753052D01*
X126740275Y-57548125D01*
X126740275Y-57548125D01*
G37*
G36*
X124904500Y-54805876D02*
X126441821Y-53776729D01*
X127248450Y-54981656D01*
X125711129Y-56010803D01*
X124904500Y-54805876D01*
X124904500Y-54805876D01*
G37*
G36*
X120915775Y-57476095D02*
X122453096Y-56446948D01*
X123259725Y-57651875D01*
X121722404Y-58681022D01*
X120915775Y-57476095D01*
X120915775Y-57476095D01*
G37*
G36*
X122751550Y-60218344D02*
X124288871Y-59189197D01*
X125095500Y-60394124D01*
X123558179Y-61423271D01*
X122751550Y-60218344D01*
X122751550Y-60218344D01*
G37*
G36*
X124633270Y-57995928D02*
X125505804Y-57411818D01*
X125811766Y-57868860D01*
X124939232Y-58452970D01*
X124633270Y-57995928D01*
X124633270Y-57995928D01*
G37*
G36*
X124188234Y-57331140D02*
X125060768Y-56747030D01*
X125366730Y-57204072D01*
X124494196Y-57788182D01*
X124188234Y-57331140D01*
X124188234Y-57331140D01*
G37*
G36*
X119847056Y-62811091D02*
X121155203Y-61502944D01*
X122180508Y-62528249D01*
X120872361Y-63836396D01*
X119847056Y-62811091D01*
X119847056Y-62811091D01*
G37*
G36*
X117513604Y-60477639D02*
X118821751Y-59169492D01*
X119847056Y-60194797D01*
X118538909Y-61502944D01*
X117513604Y-60477639D01*
X117513604Y-60477639D01*
G37*
G36*
X114119492Y-63871751D02*
X115427639Y-62563604D01*
X116452944Y-63588909D01*
X115144797Y-64897056D01*
X114119492Y-63871751D01*
X114119492Y-63871751D01*
G37*
G36*
X116452944Y-66205203D02*
X117761091Y-64897056D01*
X118786396Y-65922361D01*
X117478249Y-67230508D01*
X116452944Y-66205203D01*
X116452944Y-66205203D01*
G37*
G36*
X117867158Y-63659620D02*
X118609620Y-62917158D01*
X118998528Y-63306066D01*
X118256066Y-64048528D01*
X117867158Y-63659620D01*
X117867158Y-63659620D01*
G37*
G36*
X117301472Y-63093934D02*
X118043934Y-62351472D01*
X118432842Y-62740380D01*
X117690380Y-63482842D01*
X117301472Y-63093934D01*
X117301472Y-63093934D01*
G37*
G36*
X114137953Y-69336098D02*
X115164415Y-67796983D01*
X116370749Y-68601508D01*
X115344287Y-70140623D01*
X114137953Y-69336098D01*
X114137953Y-69336098D01*
G37*
G36*
X111392504Y-67505112D02*
X112418966Y-65965997D01*
X113625300Y-66770522D01*
X112598838Y-68309637D01*
X111392504Y-67505112D01*
X111392504Y-67505112D01*
G37*
G36*
X108729251Y-71498492D02*
X109755713Y-69959377D01*
X110962047Y-70763902D01*
X109935585Y-72303017D01*
X108729251Y-71498492D01*
X108729251Y-71498492D01*
G37*
G36*
X111474700Y-73329478D02*
X112501162Y-71790363D01*
X113707496Y-72594888D01*
X112681034Y-74134003D01*
X111474700Y-73329478D01*
X111474700Y-73329478D01*
G37*
G36*
X112362701Y-70556132D02*
X112945288Y-69682580D01*
X113402863Y-69987744D01*
X112820276Y-70861296D01*
X112362701Y-70556132D01*
X112362701Y-70556132D01*
G37*
G36*
X111697137Y-70112256D02*
X112279724Y-69238704D01*
X112737299Y-69543868D01*
X112154712Y-70417420D01*
X111697137Y-70112256D01*
X111697137Y-70112256D01*
G37*
G36*
X109819046Y-76791260D02*
X110527011Y-75082083D01*
X111866636Y-75636974D01*
X111158671Y-77346151D01*
X109819046Y-76791260D01*
X109819046Y-76791260D01*
G37*
G36*
X106770244Y-75528404D02*
X107478209Y-73819227D01*
X108817834Y-74374118D01*
X108109869Y-76083295D01*
X106770244Y-75528404D01*
X106770244Y-75528404D01*
G37*
G36*
X104933364Y-79963026D02*
X105641329Y-78253849D01*
X106980954Y-78808740D01*
X106272989Y-80517917D01*
X104933364Y-79963026D01*
X104933364Y-79963026D01*
G37*
G36*
X107982166Y-81225882D02*
X108690131Y-79516705D01*
X110029756Y-80071596D01*
X109321791Y-81780773D01*
X107982166Y-81225882D01*
X107982166Y-81225882D01*
G37*
G36*
X108314576Y-78332872D02*
X108716394Y-77362798D01*
X109224528Y-77573274D01*
X108822710Y-78543348D01*
X108314576Y-78332872D01*
X108314576Y-78332872D01*
G37*
G36*
X107575472Y-78026726D02*
X107977290Y-77056652D01*
X108485424Y-77267128D01*
X108083606Y-78237202D01*
X107575472Y-78026726D01*
X107575472Y-78026726D01*
G37*
G36*
X107043879Y-84982758D02*
X107403212Y-83167991D01*
X108825597Y-83449630D01*
X108466264Y-85264397D01*
X107043879Y-84982758D01*
X107043879Y-84982758D01*
G37*
G36*
X103806727Y-84341785D02*
X104166060Y-82527018D01*
X105588445Y-82808657D01*
X105229112Y-84623424D01*
X103806727Y-84341785D01*
X103806727Y-84341785D01*
G37*
G36*
X102874403Y-89050370D02*
X103233736Y-87235603D01*
X104656121Y-87517242D01*
X104296788Y-89332009D01*
X102874403Y-89050370D01*
X102874403Y-89050370D01*
G37*
G36*
X106111555Y-89691343D02*
X106470888Y-87876576D01*
X107893273Y-88158215D01*
X107533940Y-89972982D01*
X106111555Y-89691343D01*
X106111555Y-89691343D01*
G37*
G36*
X105870646Y-86789281D02*
X106074592Y-85759278D01*
X106614118Y-85866107D01*
X106410172Y-86896110D01*
X105870646Y-86789281D01*
X105870646Y-86789281D01*
G37*
G36*
X105085882Y-86633893D02*
X105289828Y-85603890D01*
X105829354Y-85710719D01*
X105625408Y-86740722D01*
X105085882Y-86633893D01*
X105085882Y-86633893D01*
G37*
D14*
X106650000Y-92600000D03*
X103350000Y-92600000D03*
X103350000Y-97400000D03*
X106650000Y-97400000D03*
D15*
X105400000Y-95000000D03*
X104600000Y-95000000D03*
D10*
G36*
X106468048Y-102122344D02*
X106105547Y-100308206D01*
X107527438Y-100024084D01*
X107889939Y-101838222D01*
X106468048Y-102122344D01*
X106468048Y-102122344D01*
G37*
G36*
X103232020Y-102768966D02*
X102869519Y-100954828D01*
X104291410Y-100670706D01*
X104653911Y-102484844D01*
X103232020Y-102768966D01*
X103232020Y-102768966D01*
G37*
G36*
X104172562Y-107475916D02*
X103810061Y-105661778D01*
X105231952Y-105377656D01*
X105594453Y-107191794D01*
X104172562Y-107475916D01*
X104172562Y-107475916D01*
G37*
G36*
X107408590Y-106829294D02*
X107046089Y-105015156D01*
X108467980Y-104731034D01*
X108830481Y-106545172D01*
X107408590Y-106829294D01*
X107408590Y-106829294D01*
G37*
G36*
X106075449Y-104240330D02*
X105869705Y-103210684D01*
X106409043Y-103102914D01*
X106614787Y-104132560D01*
X106075449Y-104240330D01*
X106075449Y-104240330D01*
G37*
G36*
X105290957Y-104397086D02*
X105085213Y-103367440D01*
X105624551Y-103259670D01*
X105830295Y-104289316D01*
X105290957Y-104397086D01*
X105290957Y-104397086D01*
G37*
G36*
X108740131Y-110583295D02*
X108032166Y-108874118D01*
X109371791Y-108319227D01*
X110079756Y-110028404D01*
X108740131Y-110583295D01*
X108740131Y-110583295D01*
G37*
G36*
X105691329Y-111846151D02*
X104983364Y-110136974D01*
X106322989Y-109582083D01*
X107030954Y-111291260D01*
X105691329Y-111846151D01*
X105691329Y-111846151D01*
G37*
G36*
X107528209Y-116280773D02*
X106820244Y-114571596D01*
X108159869Y-114016705D01*
X108867834Y-115725882D01*
X107528209Y-116280773D01*
X107528209Y-116280773D01*
G37*
G36*
X110577011Y-115017917D02*
X109869046Y-113308740D01*
X111208671Y-112753849D01*
X111916636Y-114463026D01*
X110577011Y-115017917D01*
X110577011Y-115017917D01*
G37*
G36*
X108766394Y-112737202D02*
X108364576Y-111767128D01*
X108872710Y-111556652D01*
X109274528Y-112526726D01*
X108766394Y-112737202D01*
X108766394Y-112737202D01*
G37*
G36*
X108027290Y-113043348D02*
X107625472Y-112073274D01*
X108133606Y-111862798D01*
X108535424Y-112832872D01*
X108027290Y-113043348D01*
X108027290Y-113043348D01*
G37*
G36*
X112498125Y-118209725D02*
X111468978Y-116672404D01*
X112673905Y-115865775D01*
X113703052Y-117403096D01*
X112498125Y-118209725D01*
X112498125Y-118209725D01*
G37*
G36*
X109755876Y-120045500D02*
X108726729Y-118508179D01*
X109931656Y-117701550D01*
X110960803Y-119238871D01*
X109755876Y-120045500D01*
X109755876Y-120045500D01*
G37*
G36*
X112426095Y-124034225D02*
X111396948Y-122496904D01*
X112601875Y-121690275D01*
X113631022Y-123227596D01*
X112426095Y-124034225D01*
X112426095Y-124034225D01*
G37*
G36*
X115168344Y-122198450D02*
X114139197Y-120661129D01*
X115344124Y-119854500D01*
X116373271Y-121391821D01*
X115168344Y-122198450D01*
X115168344Y-122198450D01*
G37*
G36*
X112945928Y-120316730D02*
X112361818Y-119444196D01*
X112818860Y-119138234D01*
X113402970Y-120010768D01*
X112945928Y-120316730D01*
X112945928Y-120316730D01*
G37*
G36*
X112281140Y-120761766D02*
X111697030Y-119889232D01*
X112154072Y-119583270D01*
X112738182Y-120455804D01*
X112281140Y-120761766D01*
X112281140Y-120761766D01*
G37*
G36*
X117811091Y-125152944D02*
X116502944Y-123844797D01*
X117528249Y-122819492D01*
X118836396Y-124127639D01*
X117811091Y-125152944D01*
X117811091Y-125152944D01*
G37*
G36*
X115477639Y-127486396D02*
X114169492Y-126178249D01*
X115194797Y-125152944D01*
X116502944Y-126461091D01*
X115477639Y-127486396D01*
X115477639Y-127486396D01*
G37*
G36*
X118871751Y-130880508D02*
X117563604Y-129572361D01*
X118588909Y-128547056D01*
X119897056Y-129855203D01*
X118871751Y-130880508D01*
X118871751Y-130880508D01*
G37*
G36*
X121205203Y-128547056D02*
X119897056Y-127238909D01*
X120922361Y-126213604D01*
X122230508Y-127521751D01*
X121205203Y-128547056D01*
X121205203Y-128547056D01*
G37*
G36*
X118659620Y-127132842D02*
X117917158Y-126390380D01*
X118306066Y-126001472D01*
X119048528Y-126743934D01*
X118659620Y-127132842D01*
X118659620Y-127132842D01*
G37*
G36*
X118093934Y-127698528D02*
X117351472Y-126956066D01*
X117740380Y-126567158D01*
X118482842Y-127309620D01*
X118093934Y-127698528D01*
X118093934Y-127698528D01*
G37*
G36*
X124236098Y-130812047D02*
X122696983Y-129785585D01*
X123501508Y-128579251D01*
X125040623Y-129605713D01*
X124236098Y-130812047D01*
X124236098Y-130812047D01*
G37*
G36*
X122405112Y-133557496D02*
X120865997Y-132531034D01*
X121670522Y-131324700D01*
X123209637Y-132351162D01*
X122405112Y-133557496D01*
X122405112Y-133557496D01*
G37*
G36*
X126398492Y-136220749D02*
X124859377Y-135194287D01*
X125663902Y-133987953D01*
X127203017Y-135014415D01*
X126398492Y-136220749D01*
X126398492Y-136220749D01*
G37*
G36*
X128229478Y-133475300D02*
X126690363Y-132448838D01*
X127494888Y-131242504D01*
X129034003Y-132268966D01*
X128229478Y-133475300D01*
X128229478Y-133475300D01*
G37*
G36*
X125456132Y-132587299D02*
X124582580Y-132004712D01*
X124887744Y-131547137D01*
X125761296Y-132129724D01*
X125456132Y-132587299D01*
X125456132Y-132587299D01*
G37*
G36*
X125012256Y-133252863D02*
X124138704Y-132670276D01*
X124443868Y-132212701D01*
X125317420Y-132795288D01*
X125012256Y-133252863D01*
X125012256Y-133252863D01*
G37*
G36*
X131791260Y-135180954D02*
X130082083Y-134472989D01*
X130636974Y-133133364D01*
X132346151Y-133841329D01*
X131791260Y-135180954D01*
X131791260Y-135180954D01*
G37*
G36*
X130528404Y-138229756D02*
X128819227Y-137521791D01*
X129374118Y-136182166D01*
X131083295Y-136890131D01*
X130528404Y-138229756D01*
X130528404Y-138229756D01*
G37*
G36*
X134963026Y-140066636D02*
X133253849Y-139358671D01*
X133808740Y-138019046D01*
X135517917Y-138727011D01*
X134963026Y-140066636D01*
X134963026Y-140066636D01*
G37*
G36*
X136225882Y-137017834D02*
X134516705Y-136309869D01*
X135071596Y-134970244D01*
X136780773Y-135678209D01*
X136225882Y-137017834D01*
X136225882Y-137017834D01*
G37*
G36*
X133332872Y-136685424D02*
X132362798Y-136283606D01*
X132573274Y-135775472D01*
X133543348Y-136177290D01*
X133332872Y-136685424D01*
X133332872Y-136685424D01*
G37*
G36*
X133026726Y-137424528D02*
X132056652Y-137022710D01*
X132267128Y-136514576D01*
X133237202Y-136916394D01*
X133026726Y-137424528D01*
X133026726Y-137424528D01*
G37*
G36*
X139882758Y-137956121D02*
X138067991Y-137596788D01*
X138349630Y-136174403D01*
X140164397Y-136533736D01*
X139882758Y-137956121D01*
X139882758Y-137956121D01*
G37*
G36*
X139241785Y-141193273D02*
X137427018Y-140833940D01*
X137708657Y-139411555D01*
X139523424Y-139770888D01*
X139241785Y-141193273D01*
X139241785Y-141193273D01*
G37*
G36*
X143950370Y-142125597D02*
X142135603Y-141766264D01*
X142417242Y-140343879D01*
X144232009Y-140703212D01*
X143950370Y-142125597D01*
X143950370Y-142125597D01*
G37*
G36*
X144591343Y-138888445D02*
X142776576Y-138529112D01*
X143058215Y-137106727D01*
X144872982Y-137466060D01*
X144591343Y-138888445D01*
X144591343Y-138888445D01*
G37*
G36*
X141689281Y-139129354D02*
X140659278Y-138925408D01*
X140766107Y-138385882D01*
X141796110Y-138589828D01*
X141689281Y-139129354D01*
X141689281Y-139129354D01*
G37*
G36*
X141533893Y-139914118D02*
X140503890Y-139710172D01*
X140610719Y-139170646D01*
X141640722Y-139374592D01*
X141533893Y-139914118D01*
X141533893Y-139914118D01*
G37*
D16*
X147600000Y-138350000D03*
X147600000Y-141650000D03*
X152400000Y-141650000D03*
X152400000Y-138350000D03*
D17*
X150000000Y-139600000D03*
X150000000Y-140400000D03*
D10*
G36*
X157069130Y-138490483D02*
X155256915Y-138862477D01*
X154965352Y-137442093D01*
X156777567Y-137070099D01*
X157069130Y-138490483D01*
X157069130Y-138490483D01*
G37*
G36*
X157732687Y-141723081D02*
X155920472Y-142095075D01*
X155628909Y-140674691D01*
X157441124Y-140302697D01*
X157732687Y-141723081D01*
X157732687Y-141723081D01*
G37*
G36*
X162434648Y-140757907D02*
X160622433Y-141129901D01*
X160330870Y-139709517D01*
X162143085Y-139337523D01*
X162434648Y-140757907D01*
X162434648Y-140757907D01*
G37*
G36*
X161771091Y-137525309D02*
X159958876Y-137897303D01*
X159667313Y-136476919D01*
X161479528Y-136104925D01*
X161771091Y-137525309D01*
X161771091Y-137525309D01*
G37*
G36*
X159189142Y-138871987D02*
X158160588Y-139083119D01*
X158049996Y-138544353D01*
X159078550Y-138333221D01*
X159189142Y-138871987D01*
X159189142Y-138871987D01*
G37*
G36*
X159350004Y-139655647D02*
X158321450Y-139866779D01*
X158210858Y-139328013D01*
X159239412Y-139116881D01*
X159350004Y-139655647D01*
X159350004Y-139655647D01*
G37*
G36*
X165481800Y-136318862D02*
X163776353Y-137035766D01*
X163214456Y-135699064D01*
X164919903Y-134982160D01*
X165481800Y-136318862D01*
X165481800Y-136318862D01*
G37*
G36*
X166760601Y-139361011D02*
X165055154Y-140077915D01*
X164493257Y-138741213D01*
X166198704Y-138024309D01*
X166760601Y-139361011D01*
X166760601Y-139361011D01*
G37*
G36*
X171185544Y-137500936D02*
X169480097Y-138217840D01*
X168918200Y-136881138D01*
X170623647Y-136164234D01*
X171185544Y-137500936D01*
X171185544Y-137500936D01*
G37*
G36*
X169906743Y-134458787D02*
X168201296Y-135175691D01*
X167639399Y-133838989D01*
X169344846Y-133122085D01*
X169906743Y-134458787D01*
X169906743Y-134458787D01*
G37*
G36*
X167635539Y-136281322D02*
X166667583Y-136688213D01*
X166454449Y-136181188D01*
X167422405Y-135774297D01*
X167635539Y-136281322D01*
X167635539Y-136281322D01*
G37*
G36*
X167945551Y-137018812D02*
X166977595Y-137425703D01*
X166764461Y-136918678D01*
X167732417Y-136511787D01*
X167945551Y-137018812D01*
X167945551Y-137018812D01*
G37*
G36*
X173159917Y-132557950D02*
X171626197Y-133592457D01*
X170815367Y-132390352D01*
X172349087Y-131355845D01*
X173159917Y-132557950D01*
X173159917Y-132557950D01*
G37*
G36*
X175005253Y-135293774D02*
X173471533Y-136328281D01*
X172660703Y-135126176D01*
X174194423Y-134091669D01*
X175005253Y-135293774D01*
X175005253Y-135293774D01*
G37*
G36*
X178984633Y-132609648D02*
X177450913Y-133644155D01*
X176640083Y-132442050D01*
X178173803Y-131407543D01*
X178984633Y-132609648D01*
X178984633Y-132609648D01*
G37*
G36*
X177139297Y-129873824D02*
X175605577Y-130908331D01*
X174794747Y-129706226D01*
X176328467Y-128671719D01*
X177139297Y-129873824D01*
X177139297Y-129873824D01*
G37*
G36*
X175265346Y-132102794D02*
X174394856Y-132689947D01*
X174087300Y-132233976D01*
X174957790Y-131646823D01*
X175265346Y-132102794D01*
X175265346Y-132102794D01*
G37*
G36*
X175712700Y-132766024D02*
X174842210Y-133353177D01*
X174534654Y-132897206D01*
X175405144Y-132310053D01*
X175712700Y-132766024D01*
X175712700Y-132766024D01*
G37*
G36*
X180103625Y-127191871D02*
X178797762Y-128502299D01*
X177770669Y-127478785D01*
X179076532Y-126168357D01*
X180103625Y-127191871D01*
X180103625Y-127191871D01*
G37*
G36*
X182441147Y-129521247D02*
X181135284Y-130831675D01*
X180108191Y-129808161D01*
X181414054Y-128497733D01*
X182441147Y-129521247D01*
X182441147Y-129521247D01*
G37*
G36*
X185829331Y-126121215D02*
X184523468Y-127431643D01*
X183496375Y-126408129D01*
X184802238Y-125097701D01*
X185829331Y-126121215D01*
X185829331Y-126121215D01*
G37*
G36*
X183491809Y-123791839D02*
X182185946Y-125102267D01*
X181158853Y-124078753D01*
X182464716Y-122768325D01*
X183491809Y-123791839D01*
X183491809Y-123791839D01*
G37*
G36*
X182082040Y-126339887D02*
X181340875Y-127083644D01*
X180951288Y-126695415D01*
X181692453Y-125951658D01*
X182082040Y-126339887D01*
X182082040Y-126339887D01*
G37*
G36*
X182648712Y-126904585D02*
X181907547Y-127648342D01*
X181517960Y-127260113D01*
X182259125Y-126516356D01*
X182648712Y-126904585D01*
X182648712Y-126904585D01*
G37*
G36*
X185812047Y-120713902D02*
X184785585Y-122253017D01*
X183579251Y-121448492D01*
X184605713Y-119909377D01*
X185812047Y-120713902D01*
X185812047Y-120713902D01*
G37*
G36*
X188557496Y-122544888D02*
X187531034Y-124084003D01*
X186324700Y-123279478D01*
X187351162Y-121740363D01*
X188557496Y-122544888D01*
X188557496Y-122544888D01*
G37*
G36*
X191220749Y-118551508D02*
X190194287Y-120090623D01*
X188987953Y-119286098D01*
X190014415Y-117746983D01*
X191220749Y-118551508D01*
X191220749Y-118551508D01*
G37*
G36*
X188475300Y-116720522D02*
X187448838Y-118259637D01*
X186242504Y-117455112D01*
X187268966Y-115915997D01*
X188475300Y-116720522D01*
X188475300Y-116720522D01*
G37*
G36*
X187587299Y-119493868D02*
X187004712Y-120367420D01*
X186547137Y-120062256D01*
X187129724Y-119188704D01*
X187587299Y-119493868D01*
X187587299Y-119493868D01*
G37*
G36*
X188252863Y-119937744D02*
X187670276Y-120811296D01*
X187212701Y-120506132D01*
X187795288Y-119632580D01*
X188252863Y-119937744D01*
X188252863Y-119937744D01*
G37*
G36*
X190179195Y-113206262D02*
X189468248Y-114914201D01*
X188129593Y-114356972D01*
X188840540Y-112649033D01*
X190179195Y-113206262D01*
X190179195Y-113206262D01*
G37*
G36*
X193225789Y-114474437D02*
X192514842Y-116182376D01*
X191176187Y-115625147D01*
X191887134Y-113917208D01*
X193225789Y-114474437D01*
X193225789Y-114474437D01*
G37*
G36*
X195070407Y-110043028D02*
X194359460Y-111750967D01*
X193020805Y-111193738D01*
X193731752Y-109485799D01*
X195070407Y-110043028D01*
X195070407Y-110043028D01*
G37*
G36*
X192023813Y-108774853D02*
X191312866Y-110482792D01*
X189974211Y-109925563D01*
X190685158Y-108217624D01*
X192023813Y-108774853D01*
X192023813Y-108774853D01*
G37*
G36*
X191686354Y-111667278D02*
X191282844Y-112636649D01*
X190775078Y-112425286D01*
X191178588Y-111455915D01*
X191686354Y-111667278D01*
X191686354Y-111667278D01*
G37*
G36*
X192424922Y-111974714D02*
X192021412Y-112944085D01*
X191513646Y-112732722D01*
X191917156Y-111763351D01*
X192424922Y-111974714D01*
X192424922Y-111974714D01*
G37*
G36*
X192903911Y-105165156D02*
X192541410Y-106979294D01*
X191119519Y-106695172D01*
X191482020Y-104881034D01*
X192903911Y-105165156D01*
X192903911Y-105165156D01*
G37*
G36*
X196139939Y-105811778D02*
X195777438Y-107625916D01*
X194355547Y-107341794D01*
X194718048Y-105527656D01*
X196139939Y-105811778D01*
X196139939Y-105811778D01*
G37*
G36*
X197080481Y-101104828D02*
X196717980Y-102918966D01*
X195296089Y-102634844D01*
X195658590Y-100820706D01*
X197080481Y-101104828D01*
X197080481Y-101104828D01*
G37*
G36*
X193844453Y-100458206D02*
X193481952Y-102272344D01*
X192060061Y-101988222D01*
X192422562Y-100174084D01*
X193844453Y-100458206D01*
X193844453Y-100458206D01*
G37*
G36*
X194080295Y-103360684D02*
X193874551Y-104390330D01*
X193335213Y-104282560D01*
X193540957Y-103252914D01*
X194080295Y-103360684D01*
X194080295Y-103360684D01*
G37*
G36*
X194864787Y-103517440D02*
X194659043Y-104547086D01*
X194119705Y-104439316D01*
X194325449Y-103409670D01*
X194864787Y-103517440D01*
X194864787Y-103517440D01*
G37*
D14*
X193350000Y-97400000D03*
X196650000Y-97400000D03*
X196650000Y-92600000D03*
X193350000Y-92600000D03*
D15*
X194600000Y-95000000D03*
X195400000Y-95000000D03*
D10*
G36*
X193479112Y-87826576D02*
X193838445Y-89641343D01*
X192416060Y-89922982D01*
X192056727Y-88108215D01*
X193479112Y-87826576D01*
X193479112Y-87826576D01*
G37*
G36*
X196716264Y-87185603D02*
X197075597Y-89000370D01*
X195653212Y-89282009D01*
X195293879Y-87467242D01*
X196716264Y-87185603D01*
X196716264Y-87185603D01*
G37*
G36*
X195783940Y-82477018D02*
X196143273Y-84291785D01*
X194720888Y-84573424D01*
X194361555Y-82758657D01*
X195783940Y-82477018D01*
X195783940Y-82477018D01*
G37*
G36*
X192546788Y-83117991D02*
X192906121Y-84932758D01*
X191483736Y-85214397D01*
X191124403Y-83399630D01*
X192546788Y-83117991D01*
X192546788Y-83117991D01*
G37*
G36*
X193875408Y-85709278D02*
X194079354Y-86739281D01*
X193539828Y-86846110D01*
X193335882Y-85816107D01*
X193875408Y-85709278D01*
X193875408Y-85709278D01*
G37*
G36*
X194660172Y-85553890D02*
X194864118Y-86583893D01*
X194324592Y-86690722D01*
X194120646Y-85660719D01*
X194660172Y-85553890D01*
X194660172Y-85553890D01*
G37*
G36*
X191312866Y-79517208D02*
X192023813Y-81225147D01*
X190685158Y-81782376D01*
X189974211Y-80074437D01*
X191312866Y-79517208D01*
X191312866Y-79517208D01*
G37*
G36*
X194359460Y-78249033D02*
X195070407Y-79956972D01*
X193731752Y-80514201D01*
X193020805Y-78806262D01*
X194359460Y-78249033D01*
X194359460Y-78249033D01*
G37*
G36*
X192514842Y-73817624D02*
X193225789Y-75525563D01*
X191887134Y-76082792D01*
X191176187Y-74374853D01*
X192514842Y-73817624D01*
X192514842Y-73817624D01*
G37*
G36*
X189468248Y-75085799D02*
X190179195Y-76793738D01*
X188840540Y-77350967D01*
X188129593Y-75643028D01*
X189468248Y-75085799D01*
X189468248Y-75085799D01*
G37*
G36*
X191282844Y-77363351D02*
X191686354Y-78332722D01*
X191178588Y-78544085D01*
X190775078Y-77574714D01*
X191282844Y-77363351D01*
X191282844Y-77363351D01*
G37*
G36*
X192021412Y-77055915D02*
X192424922Y-78025286D01*
X191917156Y-78236649D01*
X191513646Y-77267278D01*
X192021412Y-77055915D01*
X192021412Y-77055915D01*
G37*
G36*
X187451875Y-71740275D02*
X188481022Y-73277596D01*
X187276095Y-74084225D01*
X186246948Y-72546904D01*
X187451875Y-71740275D01*
X187451875Y-71740275D01*
G37*
G36*
X190194124Y-69904500D02*
X191223271Y-71441821D01*
X190018344Y-72248450D01*
X188989197Y-70711129D01*
X190194124Y-69904500D01*
X190194124Y-69904500D01*
G37*
G36*
X187523905Y-65915775D02*
X188553052Y-67453096D01*
X187348125Y-68259725D01*
X186318978Y-66722404D01*
X187523905Y-65915775D01*
X187523905Y-65915775D01*
G37*
G36*
X184781656Y-67751550D02*
X185810803Y-69288871D01*
X184605876Y-70095500D01*
X183576729Y-68558179D01*
X184781656Y-67751550D01*
X184781656Y-67751550D01*
G37*
G36*
X187004072Y-69633270D02*
X187588182Y-70505804D01*
X187131140Y-70811766D01*
X186547030Y-69939232D01*
X187004072Y-69633270D01*
X187004072Y-69633270D01*
G37*
G36*
X187668860Y-69188234D02*
X188252970Y-70060768D01*
X187795928Y-70366730D01*
X187211818Y-69494196D01*
X187668860Y-69188234D01*
X187668860Y-69188234D01*
G37*
G36*
X182188909Y-64897056D02*
X183497056Y-66205203D01*
X182471751Y-67230508D01*
X181163604Y-65922361D01*
X182188909Y-64897056D01*
X182188909Y-64897056D01*
G37*
G36*
X184522361Y-62563604D02*
X185830508Y-63871751D01*
X184805203Y-64897056D01*
X183497056Y-63588909D01*
X184522361Y-62563604D01*
X184522361Y-62563604D01*
G37*
G36*
X181128249Y-59169492D02*
X182436396Y-60477639D01*
X181411091Y-61502944D01*
X180102944Y-60194797D01*
X181128249Y-59169492D01*
X181128249Y-59169492D01*
G37*
G36*
X178794797Y-61502944D02*
X180102944Y-62811091D01*
X179077639Y-63836396D01*
X177769492Y-62528249D01*
X178794797Y-61502944D01*
X178794797Y-61502944D01*
G37*
G36*
X181340380Y-62917158D02*
X182082842Y-63659620D01*
X181693934Y-64048528D01*
X180951472Y-63306066D01*
X181340380Y-62917158D01*
X181340380Y-62917158D01*
G37*
G36*
X181906066Y-62351472D02*
X182648528Y-63093934D01*
X182259620Y-63482842D01*
X181517158Y-62740380D01*
X181906066Y-62351472D01*
X181906066Y-62351472D01*
G37*
G36*
X175711129Y-59189197D02*
X177248450Y-60218344D01*
X176441821Y-61423271D01*
X174904500Y-60394124D01*
X175711129Y-59189197D01*
X175711129Y-59189197D01*
G37*
G36*
X177546904Y-56446948D02*
X179084225Y-57476095D01*
X178277596Y-58681022D01*
X176740275Y-57651875D01*
X177546904Y-56446948D01*
X177546904Y-56446948D01*
G37*
G36*
X173558179Y-53776729D02*
X175095500Y-54805876D01*
X174288871Y-56010803D01*
X172751550Y-54981656D01*
X173558179Y-53776729D01*
X173558179Y-53776729D01*
G37*
G36*
X171722404Y-56518978D02*
X173259725Y-57548125D01*
X172453096Y-58753052D01*
X170915775Y-57723905D01*
X171722404Y-56518978D01*
X171722404Y-56518978D01*
G37*
G36*
X174494196Y-57411818D02*
X175366730Y-57995928D01*
X175060768Y-58452970D01*
X174188234Y-57868860D01*
X174494196Y-57411818D01*
X174494196Y-57411818D01*
G37*
G36*
X174939232Y-56747030D02*
X175811766Y-57331140D01*
X175505804Y-57788182D01*
X174633270Y-57204072D01*
X174939232Y-56747030D01*
X174939232Y-56747030D01*
G37*
G36*
X168208740Y-54819046D02*
X169917917Y-55527011D01*
X169363026Y-56866636D01*
X167653849Y-56158671D01*
X168208740Y-54819046D01*
X168208740Y-54819046D01*
G37*
G36*
X169471596Y-51770244D02*
X171180773Y-52478209D01*
X170625882Y-53817834D01*
X168916705Y-53109869D01*
X169471596Y-51770244D01*
X169471596Y-51770244D01*
G37*
G36*
X165036974Y-49933364D02*
X166746151Y-50641329D01*
X166191260Y-51980954D01*
X164482083Y-51272989D01*
X165036974Y-49933364D01*
X165036974Y-49933364D01*
G37*
G36*
X163774118Y-52982166D02*
X165483295Y-53690131D01*
X164928404Y-55029756D01*
X163219227Y-54321791D01*
X163774118Y-52982166D01*
X163774118Y-52982166D01*
G37*
G36*
X166667128Y-53314576D02*
X167637202Y-53716394D01*
X167426726Y-54224528D01*
X166456652Y-53822710D01*
X166667128Y-53314576D01*
X166667128Y-53314576D01*
G37*
G36*
X166973274Y-52575472D02*
X167943348Y-52977290D01*
X167732872Y-53485424D01*
X166762798Y-53083606D01*
X166973274Y-52575472D01*
X166973274Y-52575472D01*
G37*
G36*
X160065156Y-52096089D02*
X161879294Y-52458590D01*
X161595172Y-53880481D01*
X159781034Y-53517980D01*
X160065156Y-52096089D01*
X160065156Y-52096089D01*
G37*
G36*
X160711778Y-48860061D02*
X162525916Y-49222562D01*
X162241794Y-50644453D01*
X160427656Y-50281952D01*
X160711778Y-48860061D01*
X160711778Y-48860061D01*
G37*
G36*
X156004828Y-47919519D02*
X157818966Y-48282020D01*
X157534844Y-49703911D01*
X155720706Y-49341410D01*
X156004828Y-47919519D01*
X156004828Y-47919519D01*
G37*
G36*
X155358206Y-51155547D02*
X157172344Y-51518048D01*
X156888222Y-52939939D01*
X155074084Y-52577438D01*
X155358206Y-51155547D01*
X155358206Y-51155547D01*
G37*
G36*
X158260684Y-50919705D02*
X159290330Y-51125449D01*
X159182560Y-51664787D01*
X158152914Y-51459043D01*
X158260684Y-50919705D01*
X158260684Y-50919705D01*
G37*
G36*
X158417440Y-50135213D02*
X159447086Y-50340957D01*
X159339316Y-50880295D01*
X158309670Y-50674551D01*
X158417440Y-50135213D01*
X158417440Y-50135213D01*
G37*
D16*
X152400000Y-51650000D03*
X152400000Y-48350000D03*
X147600000Y-48350000D03*
X147600000Y-51650000D03*
D17*
X150000000Y-50400000D03*
X150000000Y-49600000D03*
D18*
X143650000Y-59330000D03*
D19*
X146190000Y-59330000D03*
X148730000Y-59330000D03*
X151270000Y-59330000D03*
X153810000Y-59330000D03*
X156350000Y-59330000D03*
M02*
