G04 #@! TF.FileFunction,Legend,Top*
%FSLAX46Y46*%
G04 Gerber Fmt 4.6, Leading zero omitted, Abs format (unit mm)*
G04 Created by KiCad (PCBNEW (2015-03-05 BZR 5480)-product) date Thu 05 Mar 2015 09:42:09 PM CET*
%MOMM*%
G01*
G04 APERTURE LIST*
%ADD10C,0.100000*%
%ADD11C,0.200000*%
%ADD12C,0.187500*%
%ADD13C,0.250000*%
%ADD14C,0.203200*%
%ADD15C,0.002540*%
%ADD16O,3.550000X5.550000*%
%ADD17R,1.548600X1.347940*%
%ADD18R,1.347940X1.548600*%
%ADD19R,1.450000X1.850000*%
%ADD20R,0.550000X1.050000*%
%ADD21R,1.850000X1.450000*%
%ADD22R,1.050000X0.550000*%
%ADD23R,1.700000X1.700000*%
%ADD24C,1.700000*%
G04 APERTURE END LIST*
D10*
D11*
X141214285Y-69852381D02*
X141214285Y-68852381D01*
X141214285Y-69328571D02*
X141785714Y-69328571D01*
X141785714Y-69852381D02*
X141785714Y-68852381D01*
X142833333Y-69757143D02*
X142785714Y-69804762D01*
X142642857Y-69852381D01*
X142547619Y-69852381D01*
X142404761Y-69804762D01*
X142309523Y-69709524D01*
X142261904Y-69614286D01*
X142214285Y-69423810D01*
X142214285Y-69280952D01*
X142261904Y-69090476D01*
X142309523Y-68995238D01*
X142404761Y-68900000D01*
X142547619Y-68852381D01*
X142642857Y-68852381D01*
X142785714Y-68900000D01*
X142833333Y-68947619D01*
X143261904Y-69471429D02*
X144023809Y-69471429D01*
X144690475Y-68852381D02*
X144785714Y-68852381D01*
X144880952Y-68900000D01*
X144928571Y-68947619D01*
X144976190Y-69042857D01*
X145023809Y-69233333D01*
X145023809Y-69471429D01*
X144976190Y-69661905D01*
X144928571Y-69757143D01*
X144880952Y-69804762D01*
X144785714Y-69852381D01*
X144690475Y-69852381D01*
X144595237Y-69804762D01*
X144547618Y-69757143D01*
X144499999Y-69661905D01*
X144452380Y-69471429D01*
X144452380Y-69233333D01*
X144499999Y-69042857D01*
X144547618Y-68947619D01*
X144595237Y-68900000D01*
X144690475Y-68852381D01*
X145928571Y-68852381D02*
X145452380Y-68852381D01*
X145404761Y-69328571D01*
X145452380Y-69280952D01*
X145547618Y-69233333D01*
X145785714Y-69233333D01*
X145880952Y-69280952D01*
X145928571Y-69328571D01*
X145976190Y-69423810D01*
X145976190Y-69661905D01*
X145928571Y-69757143D01*
X145880952Y-69804762D01*
X145785714Y-69852381D01*
X145547618Y-69852381D01*
X145452380Y-69804762D01*
X145404761Y-69757143D01*
X147166666Y-69852381D02*
X147166666Y-69185714D01*
X147166666Y-69280952D02*
X147214285Y-69233333D01*
X147309523Y-69185714D01*
X147452381Y-69185714D01*
X147547619Y-69233333D01*
X147595238Y-69328571D01*
X147595238Y-69852381D01*
X147595238Y-69328571D02*
X147642857Y-69233333D01*
X147738095Y-69185714D01*
X147880952Y-69185714D01*
X147976190Y-69233333D01*
X148023809Y-69328571D01*
X148023809Y-69852381D01*
X148642856Y-69852381D02*
X148547618Y-69804762D01*
X148499999Y-69757143D01*
X148452380Y-69661905D01*
X148452380Y-69376190D01*
X148499999Y-69280952D01*
X148547618Y-69233333D01*
X148642856Y-69185714D01*
X148785714Y-69185714D01*
X148880952Y-69233333D01*
X148928571Y-69280952D01*
X148976190Y-69376190D01*
X148976190Y-69661905D01*
X148928571Y-69757143D01*
X148880952Y-69804762D01*
X148785714Y-69852381D01*
X148642856Y-69852381D01*
X149833333Y-69852381D02*
X149833333Y-68852381D01*
X149833333Y-69804762D02*
X149738095Y-69852381D01*
X149547618Y-69852381D01*
X149452380Y-69804762D01*
X149404761Y-69757143D01*
X149357142Y-69661905D01*
X149357142Y-69376190D01*
X149404761Y-69280952D01*
X149452380Y-69233333D01*
X149547618Y-69185714D01*
X149738095Y-69185714D01*
X149833333Y-69233333D01*
X150738095Y-69185714D02*
X150738095Y-69852381D01*
X150309523Y-69185714D02*
X150309523Y-69709524D01*
X150357142Y-69804762D01*
X150452380Y-69852381D01*
X150595238Y-69852381D01*
X150690476Y-69804762D01*
X150738095Y-69757143D01*
X151357142Y-69852381D02*
X151261904Y-69804762D01*
X151214285Y-69709524D01*
X151214285Y-68852381D01*
X152119048Y-69804762D02*
X152023810Y-69852381D01*
X151833333Y-69852381D01*
X151738095Y-69804762D01*
X151690476Y-69709524D01*
X151690476Y-69328571D01*
X151738095Y-69233333D01*
X151833333Y-69185714D01*
X152023810Y-69185714D01*
X152119048Y-69233333D01*
X152166667Y-69328571D01*
X152166667Y-69423810D01*
X151690476Y-69519048D01*
X153357143Y-69185714D02*
X153357143Y-70185714D01*
X153357143Y-69233333D02*
X153452381Y-69185714D01*
X153642858Y-69185714D01*
X153738096Y-69233333D01*
X153785715Y-69280952D01*
X153833334Y-69376190D01*
X153833334Y-69661905D01*
X153785715Y-69757143D01*
X153738096Y-69804762D01*
X153642858Y-69852381D01*
X153452381Y-69852381D01*
X153357143Y-69804762D01*
X154261905Y-69852381D02*
X154261905Y-69185714D01*
X154261905Y-68852381D02*
X154214286Y-68900000D01*
X154261905Y-68947619D01*
X154309524Y-68900000D01*
X154261905Y-68852381D01*
X154261905Y-68947619D01*
X154738095Y-69185714D02*
X154738095Y-69852381D01*
X154738095Y-69280952D02*
X154785714Y-69233333D01*
X154880952Y-69185714D01*
X155023810Y-69185714D01*
X155119048Y-69233333D01*
X155166667Y-69328571D01*
X155166667Y-69852381D01*
X155642857Y-69471429D02*
X156404762Y-69471429D01*
X157023809Y-69852381D02*
X156928571Y-69804762D01*
X156880952Y-69757143D01*
X156833333Y-69661905D01*
X156833333Y-69376190D01*
X156880952Y-69280952D01*
X156928571Y-69233333D01*
X157023809Y-69185714D01*
X157166667Y-69185714D01*
X157261905Y-69233333D01*
X157309524Y-69280952D01*
X157357143Y-69376190D01*
X157357143Y-69661905D01*
X157309524Y-69757143D01*
X157261905Y-69804762D01*
X157166667Y-69852381D01*
X157023809Y-69852381D01*
X158214286Y-69185714D02*
X158214286Y-69852381D01*
X157785714Y-69185714D02*
X157785714Y-69709524D01*
X157833333Y-69804762D01*
X157928571Y-69852381D01*
X158071429Y-69852381D01*
X158166667Y-69804762D01*
X158214286Y-69757143D01*
X158547619Y-69185714D02*
X158928571Y-69185714D01*
X158690476Y-68852381D02*
X158690476Y-69709524D01*
X158738095Y-69804762D01*
X158833333Y-69852381D01*
X158928571Y-69852381D01*
X155000000Y-64000000D02*
X155000000Y-68000000D01*
X152500000Y-64000000D02*
X155000000Y-64000000D01*
X152500000Y-68000000D02*
X152500000Y-64000000D01*
X150000000Y-68000000D02*
X152500000Y-68000000D01*
X150000000Y-64000000D02*
X150000000Y-68000000D01*
X147500000Y-64000000D02*
X150000000Y-64000000D01*
X147500000Y-68000000D02*
X147500000Y-64000000D01*
X145000000Y-68000000D02*
X147500000Y-68000000D01*
X145000000Y-64000000D02*
X145000000Y-68000000D01*
X157500000Y-64000000D02*
X142500000Y-64000000D01*
X157500000Y-68000000D02*
X157500000Y-64000000D01*
X142500000Y-68000000D02*
X157500000Y-68000000D01*
X142500000Y-64000000D02*
X142500000Y-68000000D01*
X156789381Y-67182857D02*
X155789381Y-67182857D01*
X156789381Y-66611428D02*
X156217952Y-67040000D01*
X155789381Y-66611428D02*
X156360810Y-67182857D01*
X156265571Y-66182857D02*
X156265571Y-65849523D01*
X156789381Y-65706666D02*
X156789381Y-66182857D01*
X155789381Y-66182857D01*
X155789381Y-65706666D01*
X156313190Y-65087619D02*
X156789381Y-65087619D01*
X155789381Y-65420952D02*
X156313190Y-65087619D01*
X155789381Y-64754285D01*
X153249381Y-66230476D02*
X153249381Y-66706667D01*
X153725571Y-66754286D01*
X153677952Y-66706667D01*
X153630333Y-66611429D01*
X153630333Y-66373333D01*
X153677952Y-66278095D01*
X153725571Y-66230476D01*
X153820810Y-66182857D01*
X154058905Y-66182857D01*
X154154143Y-66230476D01*
X154201762Y-66278095D01*
X154249381Y-66373333D01*
X154249381Y-66611429D01*
X154201762Y-66706667D01*
X154154143Y-66754286D01*
X153249381Y-65897143D02*
X154249381Y-65563810D01*
X153249381Y-65230476D01*
X150757000Y-66801904D02*
X150709381Y-66897142D01*
X150709381Y-67039999D01*
X150757000Y-67182857D01*
X150852238Y-67278095D01*
X150947476Y-67325714D01*
X151137952Y-67373333D01*
X151280810Y-67373333D01*
X151471286Y-67325714D01*
X151566524Y-67278095D01*
X151661762Y-67182857D01*
X151709381Y-67039999D01*
X151709381Y-66944761D01*
X151661762Y-66801904D01*
X151614143Y-66754285D01*
X151280810Y-66754285D01*
X151280810Y-66944761D01*
X151709381Y-66325714D02*
X150709381Y-66325714D01*
X151709381Y-65754285D01*
X150709381Y-65754285D01*
X151709381Y-65278095D02*
X150709381Y-65278095D01*
X150709381Y-65040000D01*
X150757000Y-64897142D01*
X150852238Y-64801904D01*
X150947476Y-64754285D01*
X151137952Y-64706666D01*
X151280810Y-64706666D01*
X151471286Y-64754285D01*
X151566524Y-64801904D01*
X151661762Y-64897142D01*
X151709381Y-65040000D01*
X151709381Y-65278095D01*
X148296381Y-67198714D02*
X148296381Y-66627285D01*
X149296381Y-66913000D02*
X148296381Y-66913000D01*
X148296381Y-66389190D02*
X149296381Y-65722523D01*
X148296381Y-65722523D02*
X149296381Y-66389190D01*
X148296381Y-65151095D02*
X148296381Y-64960618D01*
X148344000Y-64865380D01*
X148439238Y-64770142D01*
X148629714Y-64722523D01*
X148963048Y-64722523D01*
X149153524Y-64770142D01*
X149248762Y-64865380D01*
X149296381Y-64960618D01*
X149296381Y-65151095D01*
X149248762Y-65246333D01*
X149153524Y-65341571D01*
X148963048Y-65389190D01*
X148629714Y-65389190D01*
X148439238Y-65341571D01*
X148344000Y-65246333D01*
X148296381Y-65151095D01*
X146756381Y-66444761D02*
X146280190Y-66778095D01*
X146756381Y-67016190D02*
X145756381Y-67016190D01*
X145756381Y-66635237D01*
X145804000Y-66539999D01*
X145851619Y-66492380D01*
X145946857Y-66444761D01*
X146089714Y-66444761D01*
X146184952Y-66492380D01*
X146232571Y-66539999D01*
X146280190Y-66635237D01*
X146280190Y-67016190D01*
X145756381Y-66111428D02*
X146756381Y-65444761D01*
X145756381Y-65444761D02*
X146756381Y-66111428D01*
X146756381Y-65063809D02*
X145756381Y-65063809D01*
D12*
X144168762Y-67486429D02*
X144216381Y-67379286D01*
X144216381Y-67200715D01*
X144168762Y-67129286D01*
X144121143Y-67093572D01*
X144025905Y-67057857D01*
X143930667Y-67057857D01*
X143835429Y-67093572D01*
X143787810Y-67129286D01*
X143740190Y-67200715D01*
X143692571Y-67343572D01*
X143644952Y-67415000D01*
X143597333Y-67450715D01*
X143502095Y-67486429D01*
X143406857Y-67486429D01*
X143311619Y-67450715D01*
X143264000Y-67415000D01*
X143216381Y-67343572D01*
X143216381Y-67165000D01*
X143264000Y-67057857D01*
X143216381Y-66843571D02*
X143216381Y-66415000D01*
X144216381Y-66629286D02*
X143216381Y-66629286D01*
X143930667Y-66200714D02*
X143930667Y-65843571D01*
X144216381Y-66272142D02*
X143216381Y-66022142D01*
X144216381Y-65772142D01*
X143216381Y-65629285D02*
X143216381Y-65200714D01*
X144216381Y-65415000D02*
X143216381Y-65415000D01*
X143692571Y-64950714D02*
X143692571Y-64700714D01*
X144216381Y-64593571D02*
X144216381Y-64950714D01*
X143216381Y-64950714D01*
X143216381Y-64593571D01*
D11*
X137637619Y-120012381D02*
X137637619Y-119012381D01*
X138113809Y-120012381D02*
X138113809Y-119012381D01*
X138685238Y-120012381D02*
X138256666Y-119440952D01*
X138685238Y-119012381D02*
X138113809Y-119583810D01*
X139113809Y-119488571D02*
X139447143Y-119488571D01*
X139590000Y-120012381D02*
X139113809Y-120012381D01*
X139113809Y-119012381D01*
X139590000Y-119012381D01*
X139970952Y-119726667D02*
X140447143Y-119726667D01*
X139875714Y-120012381D02*
X140209047Y-119012381D01*
X140542381Y-120012381D01*
X140875714Y-119631429D02*
X141637619Y-119631429D01*
X142066190Y-119964762D02*
X142209047Y-120012381D01*
X142447143Y-120012381D01*
X142542381Y-119964762D01*
X142590000Y-119917143D01*
X142637619Y-119821905D01*
X142637619Y-119726667D01*
X142590000Y-119631429D01*
X142542381Y-119583810D01*
X142447143Y-119536190D01*
X142256666Y-119488571D01*
X142161428Y-119440952D01*
X142113809Y-119393333D01*
X142066190Y-119298095D01*
X142066190Y-119202857D01*
X142113809Y-119107619D01*
X142161428Y-119060000D01*
X142256666Y-119012381D01*
X142494762Y-119012381D01*
X142637619Y-119060000D01*
X143494762Y-120012381D02*
X143494762Y-119488571D01*
X143447143Y-119393333D01*
X143351905Y-119345714D01*
X143161428Y-119345714D01*
X143066190Y-119393333D01*
X143494762Y-119964762D02*
X143399524Y-120012381D01*
X143161428Y-120012381D01*
X143066190Y-119964762D01*
X143018571Y-119869524D01*
X143018571Y-119774286D01*
X143066190Y-119679048D01*
X143161428Y-119631429D01*
X143399524Y-119631429D01*
X143494762Y-119583810D01*
X143970952Y-120012381D02*
X143970952Y-119345714D01*
X143970952Y-119440952D02*
X144018571Y-119393333D01*
X144113809Y-119345714D01*
X144256667Y-119345714D01*
X144351905Y-119393333D01*
X144399524Y-119488571D01*
X144399524Y-120012381D01*
X144399524Y-119488571D02*
X144447143Y-119393333D01*
X144542381Y-119345714D01*
X144685238Y-119345714D01*
X144780476Y-119393333D01*
X144828095Y-119488571D01*
X144828095Y-120012381D01*
X145161428Y-119345714D02*
X145542380Y-119345714D01*
X145304285Y-119012381D02*
X145304285Y-119869524D01*
X145351904Y-119964762D01*
X145447142Y-120012381D01*
X145542380Y-120012381D01*
X145875714Y-120012381D02*
X145875714Y-119345714D01*
X145875714Y-119012381D02*
X145828095Y-119060000D01*
X145875714Y-119107619D01*
X145923333Y-119060000D01*
X145875714Y-119012381D01*
X145875714Y-119107619D01*
X146780476Y-120012381D02*
X146780476Y-119012381D01*
X146780476Y-119964762D02*
X146685238Y-120012381D01*
X146494761Y-120012381D01*
X146399523Y-119964762D01*
X146351904Y-119917143D01*
X146304285Y-119821905D01*
X146304285Y-119536190D01*
X146351904Y-119440952D01*
X146399523Y-119393333D01*
X146494761Y-119345714D01*
X146685238Y-119345714D01*
X146780476Y-119393333D01*
X148018571Y-120012381D02*
X148018571Y-119345714D01*
X148018571Y-119440952D02*
X148066190Y-119393333D01*
X148161428Y-119345714D01*
X148304286Y-119345714D01*
X148399524Y-119393333D01*
X148447143Y-119488571D01*
X148447143Y-120012381D01*
X148447143Y-119488571D02*
X148494762Y-119393333D01*
X148590000Y-119345714D01*
X148732857Y-119345714D01*
X148828095Y-119393333D01*
X148875714Y-119488571D01*
X148875714Y-120012381D01*
X149494761Y-120012381D02*
X149399523Y-119964762D01*
X149351904Y-119917143D01*
X149304285Y-119821905D01*
X149304285Y-119536190D01*
X149351904Y-119440952D01*
X149399523Y-119393333D01*
X149494761Y-119345714D01*
X149637619Y-119345714D01*
X149732857Y-119393333D01*
X149780476Y-119440952D01*
X149828095Y-119536190D01*
X149828095Y-119821905D01*
X149780476Y-119917143D01*
X149732857Y-119964762D01*
X149637619Y-120012381D01*
X149494761Y-120012381D01*
X150399523Y-120012381D02*
X150304285Y-119964762D01*
X150256666Y-119917143D01*
X150209047Y-119821905D01*
X150209047Y-119536190D01*
X150256666Y-119440952D01*
X150304285Y-119393333D01*
X150399523Y-119345714D01*
X150542381Y-119345714D01*
X150637619Y-119393333D01*
X150685238Y-119440952D01*
X150732857Y-119536190D01*
X150732857Y-119821905D01*
X150685238Y-119917143D01*
X150637619Y-119964762D01*
X150542381Y-120012381D01*
X150399523Y-120012381D01*
X151590000Y-120012381D02*
X151590000Y-119012381D01*
X151590000Y-119964762D02*
X151494762Y-120012381D01*
X151304285Y-120012381D01*
X151209047Y-119964762D01*
X151161428Y-119917143D01*
X151113809Y-119821905D01*
X151113809Y-119536190D01*
X151161428Y-119440952D01*
X151209047Y-119393333D01*
X151304285Y-119345714D01*
X151494762Y-119345714D01*
X151590000Y-119393333D01*
X152066190Y-119631429D02*
X152828095Y-119631429D01*
X153447142Y-120012381D02*
X153351904Y-119964762D01*
X153304285Y-119869524D01*
X153304285Y-119012381D01*
X153828095Y-120012381D02*
X153828095Y-119345714D01*
X153828095Y-119012381D02*
X153780476Y-119060000D01*
X153828095Y-119107619D01*
X153875714Y-119060000D01*
X153828095Y-119012381D01*
X153828095Y-119107619D01*
X154732857Y-119345714D02*
X154732857Y-120155238D01*
X154685238Y-120250476D01*
X154637619Y-120298095D01*
X154542380Y-120345714D01*
X154399523Y-120345714D01*
X154304285Y-120298095D01*
X154732857Y-119964762D02*
X154637619Y-120012381D01*
X154447142Y-120012381D01*
X154351904Y-119964762D01*
X154304285Y-119917143D01*
X154256666Y-119821905D01*
X154256666Y-119536190D01*
X154304285Y-119440952D01*
X154351904Y-119393333D01*
X154447142Y-119345714D01*
X154637619Y-119345714D01*
X154732857Y-119393333D01*
X155209047Y-120012381D02*
X155209047Y-119012381D01*
X155637619Y-120012381D02*
X155637619Y-119488571D01*
X155590000Y-119393333D01*
X155494762Y-119345714D01*
X155351904Y-119345714D01*
X155256666Y-119393333D01*
X155209047Y-119440952D01*
X155970952Y-119345714D02*
X156351904Y-119345714D01*
X156113809Y-119012381D02*
X156113809Y-119869524D01*
X156161428Y-119964762D01*
X156256666Y-120012381D01*
X156351904Y-120012381D01*
X157304286Y-119012381D02*
X157637619Y-120012381D01*
X157970953Y-119012381D01*
X158494762Y-119012381D02*
X158590001Y-119012381D01*
X158685239Y-119060000D01*
X158732858Y-119107619D01*
X158780477Y-119202857D01*
X158828096Y-119393333D01*
X158828096Y-119631429D01*
X158780477Y-119821905D01*
X158732858Y-119917143D01*
X158685239Y-119964762D01*
X158590001Y-120012381D01*
X158494762Y-120012381D01*
X158399524Y-119964762D01*
X158351905Y-119917143D01*
X158304286Y-119821905D01*
X158256667Y-119631429D01*
X158256667Y-119393333D01*
X158304286Y-119202857D01*
X158351905Y-119107619D01*
X158399524Y-119060000D01*
X158494762Y-119012381D01*
X159256667Y-119917143D02*
X159304286Y-119964762D01*
X159256667Y-120012381D01*
X159209048Y-119964762D01*
X159256667Y-119917143D01*
X159256667Y-120012381D01*
X160209048Y-119012381D02*
X159732857Y-119012381D01*
X159685238Y-119488571D01*
X159732857Y-119440952D01*
X159828095Y-119393333D01*
X160066191Y-119393333D01*
X160161429Y-119440952D01*
X160209048Y-119488571D01*
X160256667Y-119583810D01*
X160256667Y-119821905D01*
X160209048Y-119917143D01*
X160161429Y-119964762D01*
X160066191Y-120012381D01*
X159828095Y-120012381D01*
X159732857Y-119964762D01*
X159685238Y-119917143D01*
X161209048Y-120012381D02*
X160637619Y-120012381D01*
X160923333Y-120012381D02*
X160923333Y-119012381D01*
X160828095Y-119155238D01*
X160732857Y-119250476D01*
X160637619Y-119298095D01*
X161637619Y-119917143D02*
X161685238Y-119964762D01*
X161637619Y-120012381D01*
X161590000Y-119964762D01*
X161637619Y-119917143D01*
X161637619Y-120012381D01*
X162542381Y-120012381D02*
X162542381Y-119488571D01*
X162494762Y-119393333D01*
X162399524Y-119345714D01*
X162209047Y-119345714D01*
X162113809Y-119393333D01*
X162542381Y-119964762D02*
X162447143Y-120012381D01*
X162209047Y-120012381D01*
X162113809Y-119964762D01*
X162066190Y-119869524D01*
X162066190Y-119774286D01*
X162113809Y-119679048D01*
X162209047Y-119631429D01*
X162447143Y-119631429D01*
X162542381Y-119583810D01*
X139351904Y-120707619D02*
X139399523Y-120660000D01*
X139494761Y-120612381D01*
X139732857Y-120612381D01*
X139828095Y-120660000D01*
X139875714Y-120707619D01*
X139923333Y-120802857D01*
X139923333Y-120898095D01*
X139875714Y-121040952D01*
X139304285Y-121612381D01*
X139923333Y-121612381D01*
X140542380Y-120612381D02*
X140637619Y-120612381D01*
X140732857Y-120660000D01*
X140780476Y-120707619D01*
X140828095Y-120802857D01*
X140875714Y-120993333D01*
X140875714Y-121231429D01*
X140828095Y-121421905D01*
X140780476Y-121517143D01*
X140732857Y-121564762D01*
X140637619Y-121612381D01*
X140542380Y-121612381D01*
X140447142Y-121564762D01*
X140399523Y-121517143D01*
X140351904Y-121421905D01*
X140304285Y-121231429D01*
X140304285Y-120993333D01*
X140351904Y-120802857D01*
X140399523Y-120707619D01*
X140447142Y-120660000D01*
X140542380Y-120612381D01*
X141828095Y-121612381D02*
X141256666Y-121612381D01*
X141542380Y-121612381D02*
X141542380Y-120612381D01*
X141447142Y-120755238D01*
X141351904Y-120850476D01*
X141256666Y-120898095D01*
X142732857Y-120612381D02*
X142256666Y-120612381D01*
X142209047Y-121088571D01*
X142256666Y-121040952D01*
X142351904Y-120993333D01*
X142590000Y-120993333D01*
X142685238Y-121040952D01*
X142732857Y-121088571D01*
X142780476Y-121183810D01*
X142780476Y-121421905D01*
X142732857Y-121517143D01*
X142685238Y-121564762D01*
X142590000Y-121612381D01*
X142351904Y-121612381D01*
X142256666Y-121564762D01*
X142209047Y-121517143D01*
X143970952Y-121231429D02*
X144732857Y-121231429D01*
X145970952Y-121612381D02*
X145970952Y-120612381D01*
X145970952Y-120993333D02*
X146066190Y-120945714D01*
X146256667Y-120945714D01*
X146351905Y-120993333D01*
X146399524Y-121040952D01*
X146447143Y-121136190D01*
X146447143Y-121421905D01*
X146399524Y-121517143D01*
X146351905Y-121564762D01*
X146256667Y-121612381D01*
X146066190Y-121612381D01*
X145970952Y-121564762D01*
X147018571Y-121612381D02*
X146923333Y-121564762D01*
X146875714Y-121469524D01*
X146875714Y-120612381D01*
X147542381Y-121612381D02*
X147447143Y-121564762D01*
X147399524Y-121517143D01*
X147351905Y-121421905D01*
X147351905Y-121136190D01*
X147399524Y-121040952D01*
X147447143Y-120993333D01*
X147542381Y-120945714D01*
X147685239Y-120945714D01*
X147780477Y-120993333D01*
X147828096Y-121040952D01*
X147875715Y-121136190D01*
X147875715Y-121421905D01*
X147828096Y-121517143D01*
X147780477Y-121564762D01*
X147685239Y-121612381D01*
X147542381Y-121612381D01*
X148732858Y-120945714D02*
X148732858Y-121755238D01*
X148685239Y-121850476D01*
X148637620Y-121898095D01*
X148542381Y-121945714D01*
X148399524Y-121945714D01*
X148304286Y-121898095D01*
X148732858Y-121564762D02*
X148637620Y-121612381D01*
X148447143Y-121612381D01*
X148351905Y-121564762D01*
X148304286Y-121517143D01*
X148256667Y-121421905D01*
X148256667Y-121136190D01*
X148304286Y-121040952D01*
X148351905Y-120993333D01*
X148447143Y-120945714D01*
X148637620Y-120945714D01*
X148732858Y-120993333D01*
X149209048Y-121517143D02*
X149256667Y-121564762D01*
X149209048Y-121612381D01*
X149161429Y-121564762D01*
X149209048Y-121517143D01*
X149209048Y-121612381D01*
X149637619Y-121564762D02*
X149732857Y-121612381D01*
X149923333Y-121612381D01*
X150018572Y-121564762D01*
X150066191Y-121469524D01*
X150066191Y-121421905D01*
X150018572Y-121326667D01*
X149923333Y-121279048D01*
X149780476Y-121279048D01*
X149685238Y-121231429D01*
X149637619Y-121136190D01*
X149637619Y-121088571D01*
X149685238Y-120993333D01*
X149780476Y-120945714D01*
X149923333Y-120945714D01*
X150018572Y-120993333D01*
X150494762Y-120945714D02*
X150494762Y-121945714D01*
X150494762Y-120993333D02*
X150590000Y-120945714D01*
X150780477Y-120945714D01*
X150875715Y-120993333D01*
X150923334Y-121040952D01*
X150970953Y-121136190D01*
X150970953Y-121421905D01*
X150923334Y-121517143D01*
X150875715Y-121564762D01*
X150780477Y-121612381D01*
X150590000Y-121612381D01*
X150494762Y-121564762D01*
X151399524Y-121612381D02*
X151399524Y-120945714D01*
X151399524Y-120612381D02*
X151351905Y-120660000D01*
X151399524Y-120707619D01*
X151447143Y-120660000D01*
X151399524Y-120612381D01*
X151399524Y-120707619D01*
X151732857Y-120945714D02*
X152113809Y-120945714D01*
X151875714Y-120612381D02*
X151875714Y-121469524D01*
X151923333Y-121564762D01*
X152018571Y-121612381D01*
X152113809Y-121612381D01*
X152351905Y-120945714D02*
X152875715Y-120945714D01*
X152351905Y-121612381D01*
X152875715Y-121612381D01*
X153637620Y-121564762D02*
X153542382Y-121612381D01*
X153351905Y-121612381D01*
X153256667Y-121564762D01*
X153209048Y-121469524D01*
X153209048Y-121088571D01*
X153256667Y-120993333D01*
X153351905Y-120945714D01*
X153542382Y-120945714D01*
X153637620Y-120993333D01*
X153685239Y-121088571D01*
X153685239Y-121183810D01*
X153209048Y-121279048D01*
X154113810Y-120945714D02*
X154113810Y-121612381D01*
X154113810Y-121040952D02*
X154161429Y-120993333D01*
X154256667Y-120945714D01*
X154399525Y-120945714D01*
X154494763Y-120993333D01*
X154542382Y-121088571D01*
X154542382Y-121612381D01*
X155018572Y-120945714D02*
X155018572Y-121945714D01*
X155018572Y-120993333D02*
X155113810Y-120945714D01*
X155304287Y-120945714D01*
X155399525Y-120993333D01*
X155447144Y-121040952D01*
X155494763Y-121136190D01*
X155494763Y-121421905D01*
X155447144Y-121517143D01*
X155399525Y-121564762D01*
X155304287Y-121612381D01*
X155113810Y-121612381D01*
X155018572Y-121564762D01*
X155780477Y-120945714D02*
X156161429Y-120945714D01*
X155923334Y-121612381D02*
X155923334Y-120755238D01*
X155970953Y-120660000D01*
X156066191Y-120612381D01*
X156161429Y-120612381D01*
X156875716Y-121564762D02*
X156780478Y-121612381D01*
X156590001Y-121612381D01*
X156494763Y-121564762D01*
X156447144Y-121469524D01*
X156447144Y-121088571D01*
X156494763Y-120993333D01*
X156590001Y-120945714D01*
X156780478Y-120945714D01*
X156875716Y-120993333D01*
X156923335Y-121088571D01*
X156923335Y-121183810D01*
X156447144Y-121279048D01*
X157351906Y-121612381D02*
X157351906Y-120945714D01*
X157351906Y-120612381D02*
X157304287Y-120660000D01*
X157351906Y-120707619D01*
X157399525Y-120660000D01*
X157351906Y-120612381D01*
X157351906Y-120707619D01*
X157970953Y-121612381D02*
X157875715Y-121564762D01*
X157828096Y-121469524D01*
X157828096Y-120612381D01*
X158351906Y-121517143D02*
X158399525Y-121564762D01*
X158351906Y-121612381D01*
X158304287Y-121564762D01*
X158351906Y-121517143D01*
X158351906Y-121612381D01*
X158970953Y-121612381D02*
X158875715Y-121564762D01*
X158828096Y-121517143D01*
X158780477Y-121421905D01*
X158780477Y-121136190D01*
X158828096Y-121040952D01*
X158875715Y-120993333D01*
X158970953Y-120945714D01*
X159113811Y-120945714D01*
X159209049Y-120993333D01*
X159256668Y-121040952D01*
X159304287Y-121136190D01*
X159304287Y-121421905D01*
X159256668Y-121517143D01*
X159209049Y-121564762D01*
X159113811Y-121612381D01*
X158970953Y-121612381D01*
X159732858Y-121612381D02*
X159732858Y-120945714D01*
X159732858Y-121136190D02*
X159780477Y-121040952D01*
X159828096Y-120993333D01*
X159923334Y-120945714D01*
X160018573Y-120945714D01*
X160780478Y-120945714D02*
X160780478Y-121755238D01*
X160732859Y-121850476D01*
X160685240Y-121898095D01*
X160590001Y-121945714D01*
X160447144Y-121945714D01*
X160351906Y-121898095D01*
X160780478Y-121564762D02*
X160685240Y-121612381D01*
X160494763Y-121612381D01*
X160399525Y-121564762D01*
X160351906Y-121517143D01*
X160304287Y-121421905D01*
X160304287Y-121136190D01*
X160351906Y-121040952D01*
X160399525Y-120993333D01*
X160494763Y-120945714D01*
X160685240Y-120945714D01*
X160780478Y-120993333D01*
X148690476Y-71852381D02*
X149261905Y-71852381D01*
X148976190Y-72852381D02*
X148976190Y-71852381D01*
X149785714Y-71852381D02*
X149976191Y-71852381D01*
X150071429Y-71900000D01*
X150166667Y-71995238D01*
X150214286Y-72185714D01*
X150214286Y-72519048D01*
X150166667Y-72709524D01*
X150071429Y-72804762D01*
X149976191Y-72852381D01*
X149785714Y-72852381D01*
X149690476Y-72804762D01*
X149595238Y-72709524D01*
X149547619Y-72519048D01*
X149547619Y-72185714D01*
X149595238Y-71995238D01*
X149690476Y-71900000D01*
X149785714Y-71852381D01*
X150642857Y-72852381D02*
X150642857Y-71852381D01*
X151023810Y-71852381D01*
X151119048Y-71900000D01*
X151166667Y-71947619D01*
X151214286Y-72042857D01*
X151214286Y-72185714D01*
X151166667Y-72280952D01*
X151119048Y-72328571D01*
X151023810Y-72376190D01*
X150642857Y-72376190D01*
D13*
X182500000Y-95000000D02*
G75*
G03X182500000Y-95000000I-32500000J0D01*
G01*
D11*
X140454311Y-57170568D02*
X144376770Y-56386784D01*
X140454311Y-57170568D02*
X140023230Y-55013216D01*
X140023230Y-55013216D02*
X143945689Y-54229432D01*
X143945689Y-54229432D02*
X144376770Y-56386784D01*
X133273193Y-59781634D02*
X136968711Y-58250901D01*
X133273193Y-59781634D02*
X132431289Y-57749099D01*
X132431289Y-57749099D02*
X136126807Y-56218366D01*
X136126807Y-56218366D02*
X136968711Y-58250901D01*
X126649956Y-63826674D02*
X129973894Y-61601492D01*
X126649956Y-63826674D02*
X125426106Y-61998508D01*
X125426106Y-61998508D02*
X128750044Y-59773326D01*
X128750044Y-59773326D02*
X129973894Y-61601492D01*
X121063604Y-68892031D02*
X123892031Y-66063604D01*
X121063604Y-68892031D02*
X119507969Y-67336396D01*
X119507969Y-67336396D02*
X122336396Y-64507969D01*
X122336396Y-64507969D02*
X123892031Y-66063604D01*
X116555461Y-75074237D02*
X118774838Y-71746421D01*
X116555461Y-75074237D02*
X114725162Y-73853579D01*
X114725162Y-73853579D02*
X116944539Y-70525763D01*
X116944539Y-70525763D02*
X118774838Y-71746421D01*
X113300901Y-81968711D02*
X114831634Y-78273193D01*
X113300901Y-81968711D02*
X111268366Y-81126807D01*
X111268366Y-81126807D02*
X112799099Y-77431289D01*
X112799099Y-77431289D02*
X114831634Y-78273193D01*
X111440582Y-89425568D02*
X112217519Y-85501747D01*
X111440582Y-89425568D02*
X109282481Y-88998253D01*
X109282481Y-88998253D02*
X110059418Y-85074432D01*
X110059418Y-85074432D02*
X112217519Y-85501747D01*
X111100000Y-97000000D02*
X111100000Y-93000000D01*
X111100000Y-97000000D02*
X108900000Y-97000000D01*
X108900000Y-97000000D02*
X108900000Y-93000000D01*
X108900000Y-93000000D02*
X111100000Y-93000000D01*
X112220568Y-104545689D02*
X111436784Y-100623230D01*
X112220568Y-104545689D02*
X110063216Y-104976770D01*
X110063216Y-104976770D02*
X109279432Y-101054311D01*
X109279432Y-101054311D02*
X111436784Y-100623230D01*
X114831634Y-111776807D02*
X113300901Y-108081289D01*
X114831634Y-111776807D02*
X112799099Y-112618711D01*
X112799099Y-112618711D02*
X111268366Y-108923193D01*
X111268366Y-108923193D02*
X113300901Y-108081289D01*
X118726674Y-118250044D02*
X116501492Y-114926106D01*
X118726674Y-118250044D02*
X116898508Y-119473894D01*
X116898508Y-119473894D02*
X114673326Y-116149956D01*
X114673326Y-116149956D02*
X116501492Y-114926106D01*
X123892031Y-123936396D02*
X121063604Y-121107969D01*
X123892031Y-123936396D02*
X122336396Y-125492031D01*
X122336396Y-125492031D02*
X119507969Y-122663604D01*
X119507969Y-122663604D02*
X121063604Y-121107969D01*
X130024237Y-128444539D02*
X126696421Y-126225162D01*
X130024237Y-128444539D02*
X128803579Y-130274838D01*
X128803579Y-130274838D02*
X125475763Y-128055461D01*
X125475763Y-128055461D02*
X126696421Y-126225162D01*
X136968711Y-131699099D02*
X133273193Y-130168366D01*
X136968711Y-131699099D02*
X136126807Y-133731634D01*
X136126807Y-133731634D02*
X132431289Y-132200901D01*
X132431289Y-132200901D02*
X133273193Y-130168366D01*
X144325568Y-133509418D02*
X140401747Y-132732481D01*
X144325568Y-133509418D02*
X143898253Y-135667519D01*
X143898253Y-135667519D02*
X139974432Y-134890582D01*
X139974432Y-134890582D02*
X140401747Y-132732481D01*
X152000000Y-133900000D02*
X148000000Y-133900000D01*
X152000000Y-133900000D02*
X152000000Y-136100000D01*
X152000000Y-136100000D02*
X148000000Y-136100000D01*
X148000000Y-136100000D02*
X148000000Y-133900000D01*
X159537965Y-132720311D02*
X155619664Y-133524623D01*
X159537965Y-132720311D02*
X159980336Y-134875377D01*
X159980336Y-134875377D02*
X156062035Y-135679689D01*
X156062035Y-135679689D02*
X155619664Y-133524623D01*
X166717459Y-130110919D02*
X163030007Y-131660982D01*
X166717459Y-130110919D02*
X167569993Y-132139018D01*
X167569993Y-132139018D02*
X163882541Y-133689081D01*
X163882541Y-133689081D02*
X163030007Y-131660982D01*
X173142963Y-126269673D02*
X169826813Y-128506444D01*
X173142963Y-126269673D02*
X174373187Y-128093556D01*
X174373187Y-128093556D02*
X171057037Y-130330327D01*
X171057037Y-130330327D02*
X169826813Y-128506444D01*
X178936396Y-121107969D02*
X176107969Y-123936396D01*
X178936396Y-121107969D02*
X180492031Y-122663604D01*
X180492031Y-122663604D02*
X177663604Y-125492031D01*
X177663604Y-125492031D02*
X176107969Y-123936396D01*
X183498508Y-114926106D02*
X181273326Y-118250044D01*
X183498508Y-114926106D02*
X185326674Y-116149956D01*
X185326674Y-116149956D02*
X183101492Y-119473894D01*
X183101492Y-119473894D02*
X181273326Y-118250044D01*
X186703059Y-108030855D02*
X185165878Y-111723696D01*
X186703059Y-108030855D02*
X188734122Y-108876304D01*
X188734122Y-108876304D02*
X187196941Y-112569145D01*
X187196941Y-112569145D02*
X185165878Y-111723696D01*
X188513216Y-100673230D02*
X187729432Y-104595689D01*
X188513216Y-100673230D02*
X190670568Y-101104311D01*
X190670568Y-101104311D02*
X189886784Y-105026770D01*
X189886784Y-105026770D02*
X187729432Y-104595689D01*
X188900000Y-93000000D02*
X188900000Y-97000000D01*
X188900000Y-93000000D02*
X191100000Y-93000000D01*
X191100000Y-93000000D02*
X191100000Y-97000000D01*
X191100000Y-97000000D02*
X188900000Y-97000000D01*
X187782481Y-85451747D02*
X188559418Y-89375568D01*
X187782481Y-85451747D02*
X189940582Y-85024432D01*
X189940582Y-85024432D02*
X190717519Y-88948253D01*
X190717519Y-88948253D02*
X188559418Y-89375568D01*
X185165878Y-78276304D02*
X186703059Y-81969145D01*
X185165878Y-78276304D02*
X187196941Y-77430855D01*
X187196941Y-77430855D02*
X188734122Y-81123696D01*
X188734122Y-81123696D02*
X186703059Y-81969145D01*
X181223326Y-71699956D02*
X183448508Y-75023894D01*
X181223326Y-71699956D02*
X183051492Y-70476106D01*
X183051492Y-70476106D02*
X185276674Y-73800044D01*
X185276674Y-73800044D02*
X183448508Y-75023894D01*
X176107969Y-66063604D02*
X178936396Y-68892031D01*
X176107969Y-66063604D02*
X177663604Y-64507969D01*
X177663604Y-64507969D02*
X180492031Y-67336396D01*
X180492031Y-67336396D02*
X178936396Y-68892031D01*
X170026106Y-61601492D02*
X173350044Y-63826674D01*
X170026106Y-61601492D02*
X171249956Y-59773326D01*
X171249956Y-59773326D02*
X174573894Y-61998508D01*
X174573894Y-61998508D02*
X173350044Y-63826674D01*
X163031289Y-58250901D02*
X166726807Y-59781634D01*
X163031289Y-58250901D02*
X163873193Y-56218366D01*
X163873193Y-56218366D02*
X167568711Y-57749099D01*
X167568711Y-57749099D02*
X166726807Y-59781634D01*
X155623230Y-56486784D02*
X159545689Y-57270568D01*
X155623230Y-56486784D02*
X156054311Y-54329432D01*
X156054311Y-54329432D02*
X159976770Y-55113216D01*
X159976770Y-55113216D02*
X159545689Y-57270568D01*
X148000000Y-56100000D02*
X152000000Y-56100000D01*
X148000000Y-56100000D02*
X148000000Y-53900000D01*
X148000000Y-53900000D02*
X152000000Y-53900000D01*
X152000000Y-53900000D02*
X152000000Y-56100000D01*
X142084669Y-49723439D02*
X142476561Y-51684669D01*
X142476561Y-51684669D02*
X140515331Y-52076561D01*
X140515331Y-52076561D02*
X140221412Y-50605639D01*
X140221412Y-50605639D02*
X140613747Y-50017358D01*
X140613747Y-50017358D02*
X142084669Y-49723439D01*
D14*
X141790749Y-48252517D02*
X139829520Y-48644409D01*
X138750490Y-50899558D02*
X138946436Y-51880173D01*
X142770480Y-53155591D02*
X140809251Y-53547483D01*
X143653564Y-49919827D02*
X143849510Y-50900442D01*
D11*
X133341196Y-52093437D02*
X134106563Y-53941196D01*
X134106563Y-53941196D02*
X132258804Y-54706563D01*
X132258804Y-54706563D02*
X131684779Y-53320744D01*
X131684779Y-53320744D02*
X131955377Y-52667462D01*
X131955377Y-52667462D02*
X133341196Y-52093437D01*
D14*
X132767171Y-50707618D02*
X130919412Y-51472985D01*
X130298959Y-53894769D02*
X130681643Y-54818648D01*
X134680588Y-55327015D02*
X132832829Y-56092382D01*
X134918357Y-51981352D02*
X135301041Y-52905231D01*
D11*
X125274689Y-56212720D02*
X126387280Y-57874689D01*
X126387280Y-57874689D02*
X124725311Y-58987280D01*
X124725311Y-58987280D02*
X123890868Y-57740803D01*
X123890868Y-57740803D02*
X124028212Y-57047163D01*
X124028212Y-57047163D02*
X125274689Y-56212720D01*
D14*
X124440245Y-54966243D02*
X122778276Y-56078834D01*
X122644391Y-58575247D02*
X123200687Y-59406231D01*
X127221724Y-59121166D02*
X125559755Y-60233757D01*
X126799313Y-55793769D02*
X127355609Y-56624753D01*
D11*
X118150000Y-61785786D02*
X119564214Y-63200000D01*
X119564214Y-63200000D02*
X118150000Y-64614214D01*
X118150000Y-64614214D02*
X117089340Y-63553553D01*
X117089340Y-63553553D02*
X117089340Y-62846447D01*
X117089340Y-62846447D02*
X118150000Y-61785786D01*
D14*
X117089340Y-60725126D02*
X115675126Y-62139340D01*
X116028680Y-64614214D02*
X116735786Y-65321320D01*
X120624874Y-64260660D02*
X119210660Y-65674874D01*
X119564214Y-61078680D02*
X120271320Y-61785786D01*
D11*
X112272890Y-68663201D02*
X113936799Y-69772890D01*
X113936799Y-69772890D02*
X112827110Y-71436799D01*
X112827110Y-71436799D02*
X111579179Y-70604532D01*
X111579179Y-70604532D02*
X111440624Y-69911133D01*
X111440624Y-69911133D02*
X112272890Y-68663201D01*
D14*
X111024959Y-67830935D02*
X109915270Y-69494843D01*
X110746912Y-71852463D02*
X111578866Y-72407308D01*
X115184730Y-70605157D02*
X114075041Y-72269065D01*
X113521134Y-67692692D02*
X114353088Y-68247537D01*
D11*
X107858804Y-76493437D02*
X109706563Y-77258804D01*
X109706563Y-77258804D02*
X108941196Y-79106563D01*
X108941196Y-79106563D02*
X107555377Y-78532538D01*
X107555377Y-78532538D02*
X107284779Y-77879256D01*
X107284779Y-77879256D02*
X107858804Y-76493437D01*
D14*
X106472985Y-75919412D02*
X105707618Y-77767171D01*
X106981352Y-79918357D02*
X107905231Y-80301041D01*
X111092382Y-77832829D02*
X110327015Y-79680588D01*
X108894769Y-75298959D02*
X109818648Y-75681643D01*
D11*
X105063279Y-85074810D02*
X107025190Y-85463279D01*
X107025190Y-85463279D02*
X106636721Y-87425190D01*
X106636721Y-87425190D02*
X105165288Y-87133838D01*
X105165288Y-87133838D02*
X104771928Y-86546243D01*
X104771928Y-86546243D02*
X105063279Y-85074810D01*
D14*
X103591846Y-84783459D02*
X103203378Y-86745369D01*
X104873937Y-88605271D02*
X105854892Y-88799505D01*
X108496622Y-85754631D02*
X108108154Y-87716541D01*
X105845108Y-83700495D02*
X106826063Y-83894729D01*
D11*
X104000000Y-94000000D02*
X106000000Y-94000000D01*
X106000000Y-94000000D02*
X106000000Y-96000000D01*
X106000000Y-96000000D02*
X104500000Y-96000000D01*
X104500000Y-96000000D02*
X104000000Y-95500000D01*
X104000000Y-95500000D02*
X104000000Y-94000000D01*
D14*
X102500000Y-94000000D02*
X102500000Y-96000000D01*
X104500000Y-97500000D02*
X105500000Y-97500000D01*
X107500000Y-94000000D02*
X107500000Y-96000000D01*
X104500000Y-92500000D02*
X105500000Y-92500000D01*
D11*
X104673439Y-102965331D02*
X106634669Y-102573439D01*
X106634669Y-102573439D02*
X107026561Y-104534669D01*
X107026561Y-104534669D02*
X105555639Y-104828588D01*
X105555639Y-104828588D02*
X104967358Y-104436253D01*
X104967358Y-104436253D02*
X104673439Y-102965331D01*
D14*
X103202517Y-103259251D02*
X103594409Y-105220480D01*
X105849558Y-106299510D02*
X106830173Y-106103564D01*
X108105591Y-102279520D02*
X108497483Y-104240749D01*
X104869827Y-101396436D02*
X105850442Y-101200490D01*
D11*
X107143437Y-111758804D02*
X108991196Y-110993437D01*
X108991196Y-110993437D02*
X109756563Y-112841196D01*
X109756563Y-112841196D02*
X108370744Y-113415221D01*
X108370744Y-113415221D02*
X107717462Y-113144623D01*
X107717462Y-113144623D02*
X107143437Y-111758804D01*
D14*
X105757618Y-112332829D02*
X106522985Y-114180588D01*
X108944769Y-114801041D02*
X109868648Y-114418357D01*
X110377015Y-110419412D02*
X111142382Y-112267171D01*
X107031352Y-110181643D02*
X107955231Y-109798959D01*
D11*
X111162720Y-119675311D02*
X112824689Y-118562720D01*
X112824689Y-118562720D02*
X113937280Y-120224689D01*
X113937280Y-120224689D02*
X112690803Y-121059132D01*
X112690803Y-121059132D02*
X111997163Y-120921788D01*
X111997163Y-120921788D02*
X111162720Y-119675311D01*
D14*
X109916243Y-120509755D02*
X111028834Y-122171724D01*
X113525247Y-122305609D02*
X114356231Y-121749313D01*
X114071166Y-117728276D02*
X115183757Y-119390245D01*
X110743769Y-118150687D02*
X111574753Y-117594391D01*
D11*
X116785786Y-126850000D02*
X118200000Y-125435786D01*
X118200000Y-125435786D02*
X119614214Y-126850000D01*
X119614214Y-126850000D02*
X118553553Y-127910660D01*
X118553553Y-127910660D02*
X117846447Y-127910660D01*
X117846447Y-127910660D02*
X116785786Y-126850000D01*
D14*
X115725126Y-127910660D02*
X117139340Y-129324874D01*
X119614214Y-128971320D02*
X120321320Y-128264214D01*
X119260660Y-124375126D02*
X120674874Y-125789340D01*
X116078680Y-125435786D02*
X116785786Y-124728680D01*
D11*
X123563201Y-132677110D02*
X124672890Y-131013201D01*
X124672890Y-131013201D02*
X126336799Y-132122890D01*
X126336799Y-132122890D02*
X125504532Y-133370821D01*
X125504532Y-133370821D02*
X124811133Y-133509376D01*
X124811133Y-133509376D02*
X123563201Y-132677110D01*
D14*
X122730935Y-133925041D02*
X124394843Y-135034730D01*
X126752463Y-134203088D02*
X127307308Y-133371134D01*
X125505157Y-129765270D02*
X127169065Y-130874959D01*
X122592692Y-131428866D02*
X123147537Y-130596912D01*
D11*
X131493437Y-137141196D02*
X132258804Y-135293437D01*
X132258804Y-135293437D02*
X134106563Y-136058804D01*
X134106563Y-136058804D02*
X133532538Y-137444623D01*
X133532538Y-137444623D02*
X132879256Y-137715221D01*
X132879256Y-137715221D02*
X131493437Y-137141196D01*
D14*
X130919412Y-138527015D02*
X132767171Y-139292382D01*
X134918357Y-138018648D02*
X135301041Y-137094769D01*
X132832829Y-133907618D02*
X134680588Y-134672985D01*
X130298959Y-136105231D02*
X130681643Y-135181352D01*
D11*
X139974810Y-139936721D02*
X140363279Y-137974810D01*
X140363279Y-137974810D02*
X142325190Y-138363279D01*
X142325190Y-138363279D02*
X142033838Y-139834712D01*
X142033838Y-139834712D02*
X141446243Y-140228072D01*
X141446243Y-140228072D02*
X139974810Y-139936721D01*
D14*
X139683459Y-141408154D02*
X141645369Y-141796622D01*
X143505271Y-140126063D02*
X143699505Y-139145108D01*
X140654631Y-136503378D02*
X142616541Y-136891846D01*
X138600495Y-139154892D02*
X138794729Y-138173937D01*
D11*
X149000000Y-141000000D02*
X149000000Y-139000000D01*
X149000000Y-139000000D02*
X151000000Y-139000000D01*
X151000000Y-139000000D02*
X151000000Y-140500000D01*
X151000000Y-140500000D02*
X150500000Y-141000000D01*
X150500000Y-141000000D02*
X149000000Y-141000000D01*
D14*
X149000000Y-142500000D02*
X151000000Y-142500000D01*
X152500000Y-140500000D02*
X152500000Y-139500000D01*
X149000000Y-137500000D02*
X151000000Y-137500000D01*
X147500000Y-140500000D02*
X147500000Y-139500000D01*
D11*
X157921503Y-140280653D02*
X157519347Y-138321503D01*
X157519347Y-138321503D02*
X159478497Y-137919347D01*
X159478497Y-137919347D02*
X159780114Y-139388710D01*
X159780114Y-139388710D02*
X159390866Y-139979036D01*
X159390866Y-139979036D02*
X157921503Y-140280653D01*
D14*
X158223120Y-141750016D02*
X160182270Y-141347860D01*
X161249477Y-139087093D02*
X161048399Y-138107518D01*
X157217730Y-136852140D02*
X159176880Y-136449984D01*
X156351601Y-140092482D02*
X156150523Y-139112907D01*
D11*
X166665652Y-137909379D02*
X165890621Y-136065652D01*
X165890621Y-136065652D02*
X167734348Y-135290621D01*
X167734348Y-135290621D02*
X168315621Y-136673416D01*
X168315621Y-136673416D02*
X168048447Y-137328105D01*
X168048447Y-137328105D02*
X166665652Y-137909379D01*
D14*
X167246926Y-139292173D02*
X169090652Y-138517142D01*
X169698416Y-136092143D02*
X169310900Y-135170279D01*
X165309348Y-134682858D02*
X167153074Y-133907827D01*
X165089100Y-138029721D02*
X164701584Y-137107857D01*
D11*
X174630155Y-133888230D02*
X173511770Y-132230155D01*
X173511770Y-132230155D02*
X175169845Y-131111770D01*
X175169845Y-131111770D02*
X176008634Y-132355326D01*
X176008634Y-132355326D02*
X175873712Y-133049441D01*
X175873712Y-133049441D02*
X174630155Y-133888230D01*
D14*
X175468945Y-135131787D02*
X177127020Y-134013401D01*
X177252190Y-131516537D02*
X176692997Y-130687499D01*
X172672980Y-130986599D02*
X174331055Y-129868213D01*
X173107003Y-134312501D02*
X172547810Y-133483463D01*
D11*
X181802468Y-128214211D02*
X180385789Y-126802468D01*
X180385789Y-126802468D02*
X181797532Y-125385789D01*
X181797532Y-125385789D02*
X182860041Y-126444596D01*
X182860041Y-126444596D02*
X182861276Y-127151702D01*
X182861276Y-127151702D02*
X181802468Y-128214211D01*
D14*
X182864978Y-129273019D02*
X184276721Y-127856339D01*
X183918849Y-125382086D02*
X183210509Y-124676215D01*
X179323279Y-125743661D02*
X180735022Y-124326981D01*
X180389491Y-128923785D02*
X179681151Y-128217914D01*
D11*
X187677110Y-121386799D02*
X186013201Y-120277110D01*
X186013201Y-120277110D02*
X187122890Y-118613201D01*
X187122890Y-118613201D02*
X188370821Y-119445468D01*
X188370821Y-119445468D02*
X188509376Y-120138867D01*
X188509376Y-120138867D02*
X187677110Y-121386799D01*
D14*
X188925041Y-122219065D02*
X190034730Y-120555157D01*
X189203088Y-118197537D02*
X188371134Y-117642692D01*
X184765270Y-119444843D02*
X185874959Y-117780935D01*
X186428866Y-122357308D02*
X185596912Y-121802463D01*
D11*
X192138915Y-113507506D02*
X190292494Y-112738915D01*
X190292494Y-112738915D02*
X191061085Y-110892494D01*
X191061085Y-110892494D02*
X192445900Y-111468937D01*
X192445900Y-111468937D02*
X192715358Y-112122690D01*
X192715358Y-112122690D02*
X192138915Y-113507506D01*
D14*
X193523730Y-114083949D02*
X194292321Y-112237528D01*
X193022343Y-110084122D02*
X192099133Y-109699827D01*
X188907679Y-112162472D02*
X189676270Y-110316051D01*
X191100867Y-114700173D02*
X190177657Y-114315878D01*
D11*
X194884669Y-105076561D02*
X192923439Y-104684669D01*
X192923439Y-104684669D02*
X193315331Y-102723439D01*
X193315331Y-102723439D02*
X194786253Y-103017358D01*
X194786253Y-103017358D02*
X195178588Y-103605639D01*
X195178588Y-103605639D02*
X194884669Y-105076561D01*
D14*
X196355591Y-105370480D02*
X196747483Y-103409251D01*
X195080173Y-101546436D02*
X194099558Y-101350490D01*
X191452517Y-104390749D02*
X191844409Y-102429520D01*
X194100442Y-106449510D02*
X193119827Y-106253564D01*
D11*
X196000000Y-96000000D02*
X194000000Y-96000000D01*
X194000000Y-96000000D02*
X194000000Y-94000000D01*
X194000000Y-94000000D02*
X195500000Y-94000000D01*
X195500000Y-94000000D02*
X196000000Y-94500000D01*
X196000000Y-94500000D02*
X196000000Y-96000000D01*
D14*
X197500000Y-96000000D02*
X197500000Y-94000000D01*
X195500000Y-92500000D02*
X194500000Y-92500000D01*
X192500000Y-96000000D02*
X192500000Y-94000000D01*
X195500000Y-97500000D02*
X194500000Y-97500000D01*
D11*
X195275190Y-86986721D02*
X193313279Y-87375190D01*
X193313279Y-87375190D02*
X192924810Y-85413279D01*
X192924810Y-85413279D02*
X194396243Y-85121928D01*
X194396243Y-85121928D02*
X194983838Y-85515288D01*
X194983838Y-85515288D02*
X195275190Y-86986721D01*
D14*
X196746622Y-86695369D02*
X196358154Y-84733459D01*
X194104892Y-83650495D02*
X193123937Y-83844729D01*
X191841846Y-87666541D02*
X191453378Y-85704631D01*
X195076063Y-88555271D02*
X194095108Y-88749505D01*
D11*
X192907506Y-78338915D02*
X191061085Y-79107506D01*
X191061085Y-79107506D02*
X190292494Y-77261085D01*
X190292494Y-77261085D02*
X191677310Y-76684642D01*
X191677310Y-76684642D02*
X192331063Y-76954100D01*
X192331063Y-76954100D02*
X192907506Y-78338915D01*
D14*
X194292321Y-77762472D02*
X193523730Y-75916051D01*
X191100867Y-75299827D02*
X190177657Y-75684122D01*
X189676270Y-79683949D02*
X188907679Y-77837528D01*
X193022343Y-79915878D02*
X192099133Y-80300173D01*
D11*
X188787280Y-70274689D02*
X187125311Y-71387280D01*
X187125311Y-71387280D02*
X186012720Y-69725311D01*
X186012720Y-69725311D02*
X187259197Y-68890868D01*
X187259197Y-68890868D02*
X187952837Y-69028212D01*
X187952837Y-69028212D02*
X188787280Y-70274689D01*
D14*
X190033757Y-69440245D02*
X188921166Y-67778276D01*
X186424753Y-67644391D02*
X185593769Y-68200687D01*
X185878834Y-72221724D02*
X184766243Y-70559755D01*
X189206231Y-71799313D02*
X188375247Y-72355609D01*
D11*
X183214214Y-63200000D02*
X181800000Y-64614214D01*
X181800000Y-64614214D02*
X180385786Y-63200000D01*
X180385786Y-63200000D02*
X181446447Y-62139340D01*
X181446447Y-62139340D02*
X182153553Y-62139340D01*
X182153553Y-62139340D02*
X183214214Y-63200000D01*
D14*
X184274874Y-62139340D02*
X182860660Y-60725126D01*
X180385786Y-61078680D02*
X179678680Y-61785786D01*
X180739340Y-65674874D02*
X179325126Y-64260660D01*
X183921320Y-64614214D02*
X183214214Y-65321320D01*
D11*
X176387280Y-57325311D02*
X175274689Y-58987280D01*
X175274689Y-58987280D02*
X173612720Y-57874689D01*
X173612720Y-57874689D02*
X174447163Y-56628212D01*
X174447163Y-56628212D02*
X175140803Y-56490868D01*
X175140803Y-56490868D02*
X176387280Y-57325311D01*
D14*
X177221724Y-56078834D02*
X175559755Y-54966243D01*
X173200687Y-55793769D02*
X172644391Y-56624753D01*
X174440245Y-60233757D02*
X172778276Y-59121166D01*
X177355609Y-58575247D02*
X176799313Y-59406231D01*
D11*
X168506563Y-52858804D02*
X167741196Y-54706563D01*
X167741196Y-54706563D02*
X165893437Y-53941196D01*
X165893437Y-53941196D02*
X166467462Y-52555377D01*
X166467462Y-52555377D02*
X167120744Y-52284779D01*
X167120744Y-52284779D02*
X168506563Y-52858804D01*
D14*
X169080588Y-51472985D02*
X167232829Y-50707618D01*
X165081643Y-51981352D02*
X164698959Y-52905231D01*
X167167171Y-56092382D02*
X165319412Y-55327015D01*
X169701041Y-53894769D02*
X169318357Y-54818648D01*
D11*
X159976561Y-50115331D02*
X159584669Y-52076561D01*
X159584669Y-52076561D02*
X157623439Y-51684669D01*
X157623439Y-51684669D02*
X157917358Y-50213747D01*
X157917358Y-50213747D02*
X158505639Y-49821412D01*
X158505639Y-49821412D02*
X159976561Y-50115331D01*
D14*
X160270480Y-48644409D02*
X158309251Y-48252517D01*
X156446436Y-49919827D02*
X156250490Y-50900442D01*
X159290749Y-53547483D02*
X157329520Y-53155591D01*
X161349510Y-50899558D02*
X161153564Y-51880173D01*
D11*
X151000000Y-49000000D02*
X151000000Y-51000000D01*
X151000000Y-51000000D02*
X149000000Y-51000000D01*
X149000000Y-51000000D02*
X149000000Y-49500000D01*
X149000000Y-49500000D02*
X149500000Y-49000000D01*
X149500000Y-49000000D02*
X151000000Y-49000000D01*
D14*
X151000000Y-47500000D02*
X149000000Y-47500000D01*
X147500000Y-49500000D02*
X147500000Y-50500000D01*
X151000000Y-52500000D02*
X149000000Y-52500000D01*
X152500000Y-49500000D02*
X152500000Y-50500000D01*
D15*
G36*
X135132840Y-118623820D02*
X135209040Y-118613660D01*
X135277620Y-118590800D01*
X135308100Y-118575560D01*
X135371600Y-118529840D01*
X135422400Y-118476500D01*
X135460500Y-118413000D01*
X135485900Y-118344420D01*
X135498600Y-118270760D01*
X135496060Y-118197100D01*
X135478280Y-118123440D01*
X135445260Y-118052320D01*
X135422400Y-118021840D01*
X135391920Y-117988820D01*
X135356360Y-117955800D01*
X135325880Y-117932940D01*
X135315720Y-117925320D01*
X135249680Y-117894840D01*
X135183640Y-117879600D01*
X135107440Y-117877060D01*
X135082040Y-117877060D01*
X135041400Y-117882140D01*
X135005840Y-117892300D01*
X134965200Y-117910080D01*
X134922020Y-117932940D01*
X134861060Y-117981200D01*
X134812800Y-118042160D01*
X134774700Y-118110740D01*
X134764540Y-118141220D01*
X134754380Y-118179320D01*
X134749300Y-118207260D01*
X134749300Y-118212340D01*
X134749300Y-118212340D01*
X134746760Y-118197100D01*
X134746760Y-118194560D01*
X134734060Y-118146300D01*
X134716280Y-118098040D01*
X134693420Y-118054860D01*
X134652780Y-117998980D01*
X134594360Y-117945640D01*
X134528320Y-117907540D01*
X134454660Y-117882140D01*
X134375920Y-117874520D01*
X134355600Y-117874520D01*
X134297180Y-117882140D01*
X134238760Y-117897380D01*
X134228600Y-117902460D01*
X134165100Y-117938020D01*
X134109220Y-117983740D01*
X134060960Y-118042160D01*
X134027940Y-118103120D01*
X134007620Y-118171700D01*
X134005080Y-118174240D01*
X134002540Y-118192020D01*
X134000000Y-118199640D01*
X134000000Y-118199640D01*
X133997460Y-118189480D01*
X133992380Y-118171700D01*
X133992380Y-118164080D01*
X133969520Y-118098040D01*
X133933960Y-118034540D01*
X133885700Y-117978660D01*
X133839980Y-117940560D01*
X133776480Y-117905000D01*
X133702820Y-117882140D01*
X133624080Y-117874520D01*
X133568200Y-117879600D01*
X133494540Y-117897380D01*
X133425960Y-117932940D01*
X133365000Y-117978660D01*
X133316740Y-118039620D01*
X133309120Y-118047240D01*
X133293880Y-118075180D01*
X133281180Y-118098040D01*
X133276100Y-118115820D01*
X133263400Y-118148840D01*
X133255780Y-118181860D01*
X133253240Y-118207260D01*
X133253240Y-118212340D01*
X133250700Y-118212340D01*
X133248160Y-118194560D01*
X133240540Y-118153920D01*
X133220220Y-118103120D01*
X133199900Y-118057400D01*
X133154180Y-117996440D01*
X133095760Y-117945640D01*
X133029720Y-117907540D01*
X132956060Y-117882140D01*
X132879860Y-117874520D01*
X132808740Y-117879600D01*
X132735080Y-117899920D01*
X132669040Y-117938020D01*
X132608080Y-117988820D01*
X132577600Y-118021840D01*
X132549660Y-118062480D01*
X132526800Y-118110740D01*
X132514100Y-118148840D01*
X132501400Y-118225040D01*
X132503940Y-118298700D01*
X132519180Y-118367280D01*
X132549660Y-118433320D01*
X132590300Y-118491740D01*
X132641100Y-118542540D01*
X132702060Y-118583180D01*
X132770640Y-118608580D01*
X132846840Y-118621280D01*
X132854460Y-118623820D01*
X132930660Y-118621280D01*
X133001780Y-118603500D01*
X133070360Y-118570480D01*
X133095760Y-118552700D01*
X133144020Y-118509520D01*
X133189740Y-118456180D01*
X133220220Y-118400300D01*
X133227840Y-118379980D01*
X133238000Y-118346960D01*
X133245620Y-118313940D01*
X133250700Y-118288540D01*
X133250700Y-118273300D01*
X133253240Y-118288540D01*
X133253240Y-118301240D01*
X133260860Y-118334260D01*
X133271020Y-118372360D01*
X133283720Y-118402840D01*
X133301500Y-118438400D01*
X133347220Y-118499360D01*
X133405640Y-118550160D01*
X133471680Y-118590800D01*
X133545340Y-118616200D01*
X133558040Y-118618740D01*
X133608840Y-118623820D01*
X133664720Y-118621280D01*
X133712980Y-118613660D01*
X133763780Y-118598420D01*
X133832360Y-118562860D01*
X133895860Y-118512060D01*
X133898400Y-118506980D01*
X133941580Y-118453640D01*
X133974600Y-118390140D01*
X133992380Y-118326640D01*
X133994920Y-118324100D01*
X133997460Y-118306320D01*
X134000000Y-118298700D01*
X134002540Y-118303780D01*
X134005080Y-118319020D01*
X134005080Y-118324100D01*
X134015240Y-118362200D01*
X134033020Y-118405380D01*
X134055880Y-118446020D01*
X134088900Y-118491740D01*
X134144780Y-118545080D01*
X134210820Y-118585720D01*
X134284480Y-118613660D01*
X134297180Y-118616200D01*
X134347980Y-118621280D01*
X134403860Y-118621280D01*
X134452120Y-118616200D01*
X134492760Y-118603500D01*
X134563880Y-118573020D01*
X134624840Y-118527300D01*
X134678180Y-118468880D01*
X134716280Y-118402840D01*
X134723900Y-118382520D01*
X134736600Y-118346960D01*
X134744220Y-118313940D01*
X134746760Y-118288540D01*
X134746760Y-118286000D01*
X134749300Y-118286000D01*
X134751840Y-118301240D01*
X134751840Y-118303780D01*
X134762000Y-118349500D01*
X134782320Y-118400300D01*
X134802640Y-118443480D01*
X134812800Y-118458720D01*
X134861060Y-118517140D01*
X134922020Y-118562860D01*
X134985520Y-118598420D01*
X135056640Y-118618740D01*
X135132840Y-118623820D01*
X135132840Y-118623820D01*
G37*
X135132840Y-118623820D02*
X135209040Y-118613660D01*
X135277620Y-118590800D01*
X135308100Y-118575560D01*
X135371600Y-118529840D01*
X135422400Y-118476500D01*
X135460500Y-118413000D01*
X135485900Y-118344420D01*
X135498600Y-118270760D01*
X135496060Y-118197100D01*
X135478280Y-118123440D01*
X135445260Y-118052320D01*
X135422400Y-118021840D01*
X135391920Y-117988820D01*
X135356360Y-117955800D01*
X135325880Y-117932940D01*
X135315720Y-117925320D01*
X135249680Y-117894840D01*
X135183640Y-117879600D01*
X135107440Y-117877060D01*
X135082040Y-117877060D01*
X135041400Y-117882140D01*
X135005840Y-117892300D01*
X134965200Y-117910080D01*
X134922020Y-117932940D01*
X134861060Y-117981200D01*
X134812800Y-118042160D01*
X134774700Y-118110740D01*
X134764540Y-118141220D01*
X134754380Y-118179320D01*
X134749300Y-118207260D01*
X134749300Y-118212340D01*
X134749300Y-118212340D01*
X134746760Y-118197100D01*
X134746760Y-118194560D01*
X134734060Y-118146300D01*
X134716280Y-118098040D01*
X134693420Y-118054860D01*
X134652780Y-117998980D01*
X134594360Y-117945640D01*
X134528320Y-117907540D01*
X134454660Y-117882140D01*
X134375920Y-117874520D01*
X134355600Y-117874520D01*
X134297180Y-117882140D01*
X134238760Y-117897380D01*
X134228600Y-117902460D01*
X134165100Y-117938020D01*
X134109220Y-117983740D01*
X134060960Y-118042160D01*
X134027940Y-118103120D01*
X134007620Y-118171700D01*
X134005080Y-118174240D01*
X134002540Y-118192020D01*
X134000000Y-118199640D01*
X134000000Y-118199640D01*
X133997460Y-118189480D01*
X133992380Y-118171700D01*
X133992380Y-118164080D01*
X133969520Y-118098040D01*
X133933960Y-118034540D01*
X133885700Y-117978660D01*
X133839980Y-117940560D01*
X133776480Y-117905000D01*
X133702820Y-117882140D01*
X133624080Y-117874520D01*
X133568200Y-117879600D01*
X133494540Y-117897380D01*
X133425960Y-117932940D01*
X133365000Y-117978660D01*
X133316740Y-118039620D01*
X133309120Y-118047240D01*
X133293880Y-118075180D01*
X133281180Y-118098040D01*
X133276100Y-118115820D01*
X133263400Y-118148840D01*
X133255780Y-118181860D01*
X133253240Y-118207260D01*
X133253240Y-118212340D01*
X133250700Y-118212340D01*
X133248160Y-118194560D01*
X133240540Y-118153920D01*
X133220220Y-118103120D01*
X133199900Y-118057400D01*
X133154180Y-117996440D01*
X133095760Y-117945640D01*
X133029720Y-117907540D01*
X132956060Y-117882140D01*
X132879860Y-117874520D01*
X132808740Y-117879600D01*
X132735080Y-117899920D01*
X132669040Y-117938020D01*
X132608080Y-117988820D01*
X132577600Y-118021840D01*
X132549660Y-118062480D01*
X132526800Y-118110740D01*
X132514100Y-118148840D01*
X132501400Y-118225040D01*
X132503940Y-118298700D01*
X132519180Y-118367280D01*
X132549660Y-118433320D01*
X132590300Y-118491740D01*
X132641100Y-118542540D01*
X132702060Y-118583180D01*
X132770640Y-118608580D01*
X132846840Y-118621280D01*
X132854460Y-118623820D01*
X132930660Y-118621280D01*
X133001780Y-118603500D01*
X133070360Y-118570480D01*
X133095760Y-118552700D01*
X133144020Y-118509520D01*
X133189740Y-118456180D01*
X133220220Y-118400300D01*
X133227840Y-118379980D01*
X133238000Y-118346960D01*
X133245620Y-118313940D01*
X133250700Y-118288540D01*
X133250700Y-118273300D01*
X133253240Y-118288540D01*
X133253240Y-118301240D01*
X133260860Y-118334260D01*
X133271020Y-118372360D01*
X133283720Y-118402840D01*
X133301500Y-118438400D01*
X133347220Y-118499360D01*
X133405640Y-118550160D01*
X133471680Y-118590800D01*
X133545340Y-118616200D01*
X133558040Y-118618740D01*
X133608840Y-118623820D01*
X133664720Y-118621280D01*
X133712980Y-118613660D01*
X133763780Y-118598420D01*
X133832360Y-118562860D01*
X133895860Y-118512060D01*
X133898400Y-118506980D01*
X133941580Y-118453640D01*
X133974600Y-118390140D01*
X133992380Y-118326640D01*
X133994920Y-118324100D01*
X133997460Y-118306320D01*
X134000000Y-118298700D01*
X134002540Y-118303780D01*
X134005080Y-118319020D01*
X134005080Y-118324100D01*
X134015240Y-118362200D01*
X134033020Y-118405380D01*
X134055880Y-118446020D01*
X134088900Y-118491740D01*
X134144780Y-118545080D01*
X134210820Y-118585720D01*
X134284480Y-118613660D01*
X134297180Y-118616200D01*
X134347980Y-118621280D01*
X134403860Y-118621280D01*
X134452120Y-118616200D01*
X134492760Y-118603500D01*
X134563880Y-118573020D01*
X134624840Y-118527300D01*
X134678180Y-118468880D01*
X134716280Y-118402840D01*
X134723900Y-118382520D01*
X134736600Y-118346960D01*
X134744220Y-118313940D01*
X134746760Y-118288540D01*
X134746760Y-118286000D01*
X134749300Y-118286000D01*
X134751840Y-118301240D01*
X134751840Y-118303780D01*
X134762000Y-118349500D01*
X134782320Y-118400300D01*
X134802640Y-118443480D01*
X134812800Y-118458720D01*
X134861060Y-118517140D01*
X134922020Y-118562860D01*
X134985520Y-118598420D01*
X135056640Y-118618740D01*
X135132840Y-118623820D01*
G36*
X132102620Y-117874520D02*
X132148340Y-117871980D01*
X132191520Y-117869440D01*
X132242320Y-117856740D01*
X132310900Y-117823720D01*
X132374400Y-117780540D01*
X132425200Y-117724660D01*
X132465840Y-117658620D01*
X132491240Y-117587500D01*
X132501400Y-117511300D01*
X132496320Y-117435100D01*
X132476000Y-117363980D01*
X132442980Y-117297940D01*
X132394720Y-117236980D01*
X132333760Y-117186180D01*
X132315980Y-117176020D01*
X132242320Y-117143000D01*
X132168660Y-117125220D01*
X132089920Y-117125220D01*
X132013720Y-117140460D01*
X131952760Y-117165860D01*
X131886720Y-117209040D01*
X131833380Y-117264920D01*
X131790200Y-117330960D01*
X131762260Y-117407160D01*
X131754640Y-117445260D01*
X131752100Y-117493520D01*
X131752100Y-117541780D01*
X131759720Y-117582420D01*
X131762260Y-117595120D01*
X131792740Y-117671320D01*
X131835920Y-117737360D01*
X131894340Y-117793240D01*
X131962920Y-117836420D01*
X131993400Y-117849120D01*
X132036580Y-117864360D01*
X132077220Y-117871980D01*
X132102620Y-117874520D01*
X132102620Y-117874520D01*
G37*
X132102620Y-117874520D02*
X132148340Y-117871980D01*
X132191520Y-117869440D01*
X132242320Y-117856740D01*
X132310900Y-117823720D01*
X132374400Y-117780540D01*
X132425200Y-117724660D01*
X132465840Y-117658620D01*
X132491240Y-117587500D01*
X132501400Y-117511300D01*
X132496320Y-117435100D01*
X132476000Y-117363980D01*
X132442980Y-117297940D01*
X132394720Y-117236980D01*
X132333760Y-117186180D01*
X132315980Y-117176020D01*
X132242320Y-117143000D01*
X132168660Y-117125220D01*
X132089920Y-117125220D01*
X132013720Y-117140460D01*
X131952760Y-117165860D01*
X131886720Y-117209040D01*
X131833380Y-117264920D01*
X131790200Y-117330960D01*
X131762260Y-117407160D01*
X131754640Y-117445260D01*
X131752100Y-117493520D01*
X131752100Y-117541780D01*
X131759720Y-117582420D01*
X131762260Y-117595120D01*
X131792740Y-117671320D01*
X131835920Y-117737360D01*
X131894340Y-117793240D01*
X131962920Y-117836420D01*
X131993400Y-117849120D01*
X132036580Y-117864360D01*
X132077220Y-117871980D01*
X132102620Y-117874520D01*
G36*
X135882140Y-117874520D02*
X135958340Y-117864360D01*
X136034540Y-117838960D01*
X136103120Y-117795780D01*
X136118360Y-117783080D01*
X136169160Y-117729740D01*
X136209800Y-117663700D01*
X136237740Y-117590040D01*
X136245360Y-117551940D01*
X136247900Y-117503680D01*
X136247900Y-117455420D01*
X136240280Y-117417320D01*
X136235200Y-117399540D01*
X136207260Y-117323340D01*
X136164080Y-117259840D01*
X136108200Y-117206500D01*
X136044700Y-117165860D01*
X135973580Y-117137920D01*
X135894840Y-117125220D01*
X135866900Y-117122680D01*
X135790700Y-117132840D01*
X135719580Y-117155700D01*
X135656080Y-117193800D01*
X135600200Y-117242060D01*
X135557020Y-117300480D01*
X135524000Y-117366520D01*
X135503680Y-117437640D01*
X135501140Y-117516380D01*
X135503680Y-117562100D01*
X135513840Y-117602740D01*
X135529080Y-117645920D01*
X135559560Y-117704340D01*
X135607820Y-117762760D01*
X135666240Y-117811020D01*
X135732280Y-117846580D01*
X135805940Y-117866900D01*
X135882140Y-117874520D01*
X135882140Y-117874520D01*
G37*
X135882140Y-117874520D02*
X135958340Y-117864360D01*
X136034540Y-117838960D01*
X136103120Y-117795780D01*
X136118360Y-117783080D01*
X136169160Y-117729740D01*
X136209800Y-117663700D01*
X136237740Y-117590040D01*
X136245360Y-117551940D01*
X136247900Y-117503680D01*
X136247900Y-117455420D01*
X136240280Y-117417320D01*
X136235200Y-117399540D01*
X136207260Y-117323340D01*
X136164080Y-117259840D01*
X136108200Y-117206500D01*
X136044700Y-117165860D01*
X135973580Y-117137920D01*
X135894840Y-117125220D01*
X135866900Y-117122680D01*
X135790700Y-117132840D01*
X135719580Y-117155700D01*
X135656080Y-117193800D01*
X135600200Y-117242060D01*
X135557020Y-117300480D01*
X135524000Y-117366520D01*
X135503680Y-117437640D01*
X135501140Y-117516380D01*
X135503680Y-117562100D01*
X135513840Y-117602740D01*
X135529080Y-117645920D01*
X135559560Y-117704340D01*
X135607820Y-117762760D01*
X135666240Y-117811020D01*
X135732280Y-117846580D01*
X135805940Y-117866900D01*
X135882140Y-117874520D01*
G36*
X131355860Y-117122680D02*
X131409200Y-117122680D01*
X131454920Y-117115060D01*
X131508260Y-117099820D01*
X131576840Y-117064260D01*
X131640340Y-117013460D01*
X131680980Y-116967740D01*
X131719080Y-116901700D01*
X131741940Y-116828040D01*
X131747020Y-116800100D01*
X131749560Y-116754380D01*
X131749560Y-116708660D01*
X131744480Y-116670560D01*
X131736860Y-116647700D01*
X131708920Y-116574040D01*
X131665740Y-116510540D01*
X131609860Y-116454660D01*
X131541280Y-116414020D01*
X131515880Y-116401320D01*
X131467620Y-116383540D01*
X131419360Y-116375920D01*
X131363480Y-116375920D01*
X131327920Y-116378460D01*
X131287280Y-116383540D01*
X131249180Y-116393700D01*
X131208540Y-116414020D01*
X131185680Y-116426720D01*
X131122180Y-116472440D01*
X131071380Y-116530860D01*
X131030740Y-116599440D01*
X131007880Y-116675640D01*
X131005340Y-116693420D01*
X131000260Y-116736600D01*
X131002800Y-116782320D01*
X131007880Y-116822960D01*
X131012960Y-116848360D01*
X131043440Y-116922020D01*
X131086620Y-116988060D01*
X131139960Y-117041400D01*
X131208540Y-117084580D01*
X131282200Y-117112520D01*
X131305060Y-117117600D01*
X131355860Y-117122680D01*
X131355860Y-117122680D01*
G37*
X131355860Y-117122680D02*
X131409200Y-117122680D01*
X131454920Y-117115060D01*
X131508260Y-117099820D01*
X131576840Y-117064260D01*
X131640340Y-117013460D01*
X131680980Y-116967740D01*
X131719080Y-116901700D01*
X131741940Y-116828040D01*
X131747020Y-116800100D01*
X131749560Y-116754380D01*
X131749560Y-116708660D01*
X131744480Y-116670560D01*
X131736860Y-116647700D01*
X131708920Y-116574040D01*
X131665740Y-116510540D01*
X131609860Y-116454660D01*
X131541280Y-116414020D01*
X131515880Y-116401320D01*
X131467620Y-116383540D01*
X131419360Y-116375920D01*
X131363480Y-116375920D01*
X131327920Y-116378460D01*
X131287280Y-116383540D01*
X131249180Y-116393700D01*
X131208540Y-116414020D01*
X131185680Y-116426720D01*
X131122180Y-116472440D01*
X131071380Y-116530860D01*
X131030740Y-116599440D01*
X131007880Y-116675640D01*
X131005340Y-116693420D01*
X131000260Y-116736600D01*
X131002800Y-116782320D01*
X131007880Y-116822960D01*
X131012960Y-116848360D01*
X131043440Y-116922020D01*
X131086620Y-116988060D01*
X131139960Y-117041400D01*
X131208540Y-117084580D01*
X131282200Y-117112520D01*
X131305060Y-117117600D01*
X131355860Y-117122680D01*
G36*
X134365760Y-117122680D02*
X134439420Y-117117600D01*
X134510540Y-117097280D01*
X134553720Y-117079500D01*
X134617220Y-117033780D01*
X134670560Y-116977900D01*
X134711200Y-116911860D01*
X134736600Y-116840740D01*
X134741680Y-116822960D01*
X134749300Y-116764540D01*
X134746760Y-116706120D01*
X134731520Y-116640080D01*
X134701040Y-116566420D01*
X134657860Y-116502920D01*
X134601980Y-116452120D01*
X134535940Y-116411480D01*
X134459740Y-116383540D01*
X134411480Y-116370840D01*
X134436880Y-116368300D01*
X134441960Y-116368300D01*
X134495300Y-116353060D01*
X134551180Y-116327660D01*
X134604520Y-116294640D01*
X134612140Y-116287020D01*
X134665480Y-116233680D01*
X134708660Y-116170180D01*
X134734060Y-116099060D01*
X134746760Y-116027940D01*
X134746760Y-115954280D01*
X134728980Y-115880620D01*
X134695960Y-115809500D01*
X134695960Y-115806960D01*
X134647700Y-115746000D01*
X134591820Y-115695200D01*
X134528320Y-115659640D01*
X134459740Y-115636780D01*
X134388620Y-115626620D01*
X134314960Y-115631700D01*
X134243840Y-115649480D01*
X134177800Y-115682500D01*
X134114300Y-115728220D01*
X134083820Y-115763780D01*
X134045720Y-115819660D01*
X134017780Y-115878080D01*
X134005080Y-115933960D01*
X134002540Y-115946660D01*
X134000000Y-115954280D01*
X133997460Y-115949200D01*
X133994920Y-115933960D01*
X133982220Y-115883160D01*
X133959360Y-115829820D01*
X133928880Y-115779020D01*
X133908560Y-115756160D01*
X133852680Y-115702820D01*
X133786640Y-115662180D01*
X133715520Y-115636780D01*
X133639320Y-115626620D01*
X133563120Y-115631700D01*
X133517400Y-115641860D01*
X133443740Y-115672340D01*
X133382780Y-115715520D01*
X133329440Y-115771400D01*
X133288800Y-115837440D01*
X133260860Y-115911100D01*
X133255780Y-115949200D01*
X133250700Y-116025400D01*
X133265940Y-116099060D01*
X133291340Y-116170180D01*
X133334520Y-116233680D01*
X133387860Y-116287020D01*
X133453900Y-116332740D01*
X133484380Y-116345440D01*
X133519940Y-116358140D01*
X133550420Y-116365760D01*
X133575820Y-116370840D01*
X133578360Y-116370840D01*
X133578360Y-116373380D01*
X133560580Y-116378460D01*
X133525020Y-116388620D01*
X133474220Y-116406400D01*
X133431040Y-116426720D01*
X133408180Y-116444500D01*
X133357380Y-116487680D01*
X133314200Y-116541020D01*
X133281180Y-116596900D01*
X133260860Y-116660400D01*
X133250700Y-116726440D01*
X133253240Y-116792480D01*
X133255780Y-116805180D01*
X133276100Y-116883920D01*
X133311660Y-116952500D01*
X133362460Y-117013460D01*
X133403100Y-117051560D01*
X133471680Y-117092200D01*
X133545340Y-117115060D01*
X133573280Y-117120140D01*
X133613920Y-117122680D01*
X133657100Y-117120140D01*
X133697740Y-117117600D01*
X133728220Y-117109980D01*
X133753620Y-117102360D01*
X133824740Y-117066800D01*
X133888240Y-117018540D01*
X133939040Y-116957580D01*
X133956820Y-116927100D01*
X133979680Y-116876300D01*
X133992380Y-116825500D01*
X133994920Y-116822960D01*
X133997460Y-116805180D01*
X134000000Y-116797560D01*
X134000000Y-116797560D01*
X134000000Y-116698500D01*
X134000000Y-116698500D01*
X133997460Y-116690880D01*
X133992380Y-116670560D01*
X133992380Y-116665480D01*
X133969520Y-116599440D01*
X133933960Y-116535940D01*
X133885700Y-116480060D01*
X133829820Y-116434340D01*
X133766320Y-116401320D01*
X133761240Y-116398780D01*
X133728220Y-116388620D01*
X133697740Y-116381000D01*
X133662180Y-116373380D01*
X133695200Y-116368300D01*
X133740920Y-116355600D01*
X133806960Y-116327660D01*
X133867920Y-116284480D01*
X133921260Y-116231140D01*
X133961900Y-116170180D01*
X133974600Y-116137160D01*
X133987300Y-116099060D01*
X133994920Y-116066040D01*
X133997460Y-116053340D01*
X134000000Y-116045720D01*
X134002540Y-116050800D01*
X134005080Y-116066040D01*
X134010160Y-116093980D01*
X134022860Y-116132080D01*
X134038100Y-116170180D01*
X134063500Y-116208280D01*
X134111760Y-116266700D01*
X134170180Y-116312420D01*
X134236220Y-116347980D01*
X134304800Y-116368300D01*
X134337820Y-116373380D01*
X134304800Y-116381000D01*
X134299720Y-116381000D01*
X134266700Y-116388620D01*
X134233680Y-116401320D01*
X134228600Y-116403860D01*
X134165100Y-116436880D01*
X134109220Y-116485140D01*
X134060960Y-116541020D01*
X134027940Y-116604520D01*
X134007620Y-116670560D01*
X134005080Y-116673100D01*
X134002540Y-116690880D01*
X134000000Y-116698500D01*
X134000000Y-116797560D01*
X134000000Y-116797560D01*
X134002540Y-116807720D01*
X134007620Y-116825500D01*
X134020320Y-116876300D01*
X134050800Y-116942340D01*
X134096520Y-117000760D01*
X134152400Y-117051560D01*
X134218440Y-117089660D01*
X134218440Y-117089660D01*
X134289560Y-117115060D01*
X134365760Y-117122680D01*
X134365760Y-117122680D01*
G37*
X134365760Y-117122680D02*
X134439420Y-117117600D01*
X134510540Y-117097280D01*
X134553720Y-117079500D01*
X134617220Y-117033780D01*
X134670560Y-116977900D01*
X134711200Y-116911860D01*
X134736600Y-116840740D01*
X134741680Y-116822960D01*
X134749300Y-116764540D01*
X134746760Y-116706120D01*
X134731520Y-116640080D01*
X134701040Y-116566420D01*
X134657860Y-116502920D01*
X134601980Y-116452120D01*
X134535940Y-116411480D01*
X134459740Y-116383540D01*
X134411480Y-116370840D01*
X134436880Y-116368300D01*
X134441960Y-116368300D01*
X134495300Y-116353060D01*
X134551180Y-116327660D01*
X134604520Y-116294640D01*
X134612140Y-116287020D01*
X134665480Y-116233680D01*
X134708660Y-116170180D01*
X134734060Y-116099060D01*
X134746760Y-116027940D01*
X134746760Y-115954280D01*
X134728980Y-115880620D01*
X134695960Y-115809500D01*
X134695960Y-115806960D01*
X134647700Y-115746000D01*
X134591820Y-115695200D01*
X134528320Y-115659640D01*
X134459740Y-115636780D01*
X134388620Y-115626620D01*
X134314960Y-115631700D01*
X134243840Y-115649480D01*
X134177800Y-115682500D01*
X134114300Y-115728220D01*
X134083820Y-115763780D01*
X134045720Y-115819660D01*
X134017780Y-115878080D01*
X134005080Y-115933960D01*
X134002540Y-115946660D01*
X134000000Y-115954280D01*
X133997460Y-115949200D01*
X133994920Y-115933960D01*
X133982220Y-115883160D01*
X133959360Y-115829820D01*
X133928880Y-115779020D01*
X133908560Y-115756160D01*
X133852680Y-115702820D01*
X133786640Y-115662180D01*
X133715520Y-115636780D01*
X133639320Y-115626620D01*
X133563120Y-115631700D01*
X133517400Y-115641860D01*
X133443740Y-115672340D01*
X133382780Y-115715520D01*
X133329440Y-115771400D01*
X133288800Y-115837440D01*
X133260860Y-115911100D01*
X133255780Y-115949200D01*
X133250700Y-116025400D01*
X133265940Y-116099060D01*
X133291340Y-116170180D01*
X133334520Y-116233680D01*
X133387860Y-116287020D01*
X133453900Y-116332740D01*
X133484380Y-116345440D01*
X133519940Y-116358140D01*
X133550420Y-116365760D01*
X133575820Y-116370840D01*
X133578360Y-116370840D01*
X133578360Y-116373380D01*
X133560580Y-116378460D01*
X133525020Y-116388620D01*
X133474220Y-116406400D01*
X133431040Y-116426720D01*
X133408180Y-116444500D01*
X133357380Y-116487680D01*
X133314200Y-116541020D01*
X133281180Y-116596900D01*
X133260860Y-116660400D01*
X133250700Y-116726440D01*
X133253240Y-116792480D01*
X133255780Y-116805180D01*
X133276100Y-116883920D01*
X133311660Y-116952500D01*
X133362460Y-117013460D01*
X133403100Y-117051560D01*
X133471680Y-117092200D01*
X133545340Y-117115060D01*
X133573280Y-117120140D01*
X133613920Y-117122680D01*
X133657100Y-117120140D01*
X133697740Y-117117600D01*
X133728220Y-117109980D01*
X133753620Y-117102360D01*
X133824740Y-117066800D01*
X133888240Y-117018540D01*
X133939040Y-116957580D01*
X133956820Y-116927100D01*
X133979680Y-116876300D01*
X133992380Y-116825500D01*
X133994920Y-116822960D01*
X133997460Y-116805180D01*
X134000000Y-116797560D01*
X134000000Y-116797560D01*
X134000000Y-116698500D01*
X134000000Y-116698500D01*
X133997460Y-116690880D01*
X133992380Y-116670560D01*
X133992380Y-116665480D01*
X133969520Y-116599440D01*
X133933960Y-116535940D01*
X133885700Y-116480060D01*
X133829820Y-116434340D01*
X133766320Y-116401320D01*
X133761240Y-116398780D01*
X133728220Y-116388620D01*
X133697740Y-116381000D01*
X133662180Y-116373380D01*
X133695200Y-116368300D01*
X133740920Y-116355600D01*
X133806960Y-116327660D01*
X133867920Y-116284480D01*
X133921260Y-116231140D01*
X133961900Y-116170180D01*
X133974600Y-116137160D01*
X133987300Y-116099060D01*
X133994920Y-116066040D01*
X133997460Y-116053340D01*
X134000000Y-116045720D01*
X134002540Y-116050800D01*
X134005080Y-116066040D01*
X134010160Y-116093980D01*
X134022860Y-116132080D01*
X134038100Y-116170180D01*
X134063500Y-116208280D01*
X134111760Y-116266700D01*
X134170180Y-116312420D01*
X134236220Y-116347980D01*
X134304800Y-116368300D01*
X134337820Y-116373380D01*
X134304800Y-116381000D01*
X134299720Y-116381000D01*
X134266700Y-116388620D01*
X134233680Y-116401320D01*
X134228600Y-116403860D01*
X134165100Y-116436880D01*
X134109220Y-116485140D01*
X134060960Y-116541020D01*
X134027940Y-116604520D01*
X134007620Y-116670560D01*
X134005080Y-116673100D01*
X134002540Y-116690880D01*
X134000000Y-116698500D01*
X134000000Y-116797560D01*
X134000000Y-116797560D01*
X134002540Y-116807720D01*
X134007620Y-116825500D01*
X134020320Y-116876300D01*
X134050800Y-116942340D01*
X134096520Y-117000760D01*
X134152400Y-117051560D01*
X134218440Y-117089660D01*
X134218440Y-117089660D01*
X134289560Y-117115060D01*
X134365760Y-117122680D01*
G36*
X136595880Y-117122680D02*
X136656840Y-117122680D01*
X136712720Y-117112520D01*
X136748280Y-117102360D01*
X136819400Y-117069340D01*
X136880360Y-117023620D01*
X136931160Y-116967740D01*
X136966720Y-116901700D01*
X136989580Y-116828040D01*
X136999740Y-116749300D01*
X136997200Y-116718820D01*
X136984500Y-116640080D01*
X136954020Y-116568960D01*
X136905760Y-116500380D01*
X136893060Y-116487680D01*
X136839720Y-116441960D01*
X136778760Y-116406400D01*
X136712720Y-116383540D01*
X136710180Y-116383540D01*
X136654300Y-116375920D01*
X136593340Y-116375920D01*
X136537460Y-116383540D01*
X136517140Y-116388620D01*
X136446020Y-116419100D01*
X136382520Y-116462280D01*
X136331720Y-116513080D01*
X136291080Y-116576580D01*
X136263140Y-116642620D01*
X136250440Y-116716280D01*
X136250440Y-116792480D01*
X136268220Y-116868680D01*
X136293620Y-116924560D01*
X136336800Y-116988060D01*
X136392680Y-117043940D01*
X136456180Y-117084580D01*
X136529840Y-117112520D01*
X136537460Y-117115060D01*
X136595880Y-117122680D01*
X136595880Y-117122680D01*
G37*
X136595880Y-117122680D02*
X136656840Y-117122680D01*
X136712720Y-117112520D01*
X136748280Y-117102360D01*
X136819400Y-117069340D01*
X136880360Y-117023620D01*
X136931160Y-116967740D01*
X136966720Y-116901700D01*
X136989580Y-116828040D01*
X136999740Y-116749300D01*
X136997200Y-116718820D01*
X136984500Y-116640080D01*
X136954020Y-116568960D01*
X136905760Y-116500380D01*
X136893060Y-116487680D01*
X136839720Y-116441960D01*
X136778760Y-116406400D01*
X136712720Y-116383540D01*
X136710180Y-116383540D01*
X136654300Y-116375920D01*
X136593340Y-116375920D01*
X136537460Y-116383540D01*
X136517140Y-116388620D01*
X136446020Y-116419100D01*
X136382520Y-116462280D01*
X136331720Y-116513080D01*
X136291080Y-116576580D01*
X136263140Y-116642620D01*
X136250440Y-116716280D01*
X136250440Y-116792480D01*
X136268220Y-116868680D01*
X136293620Y-116924560D01*
X136336800Y-116988060D01*
X136392680Y-117043940D01*
X136456180Y-117084580D01*
X136529840Y-117112520D01*
X136537460Y-117115060D01*
X136595880Y-117122680D01*
G36*
X132887480Y-114877320D02*
X132961140Y-114867160D01*
X133034800Y-114841760D01*
X133067820Y-114823980D01*
X133100840Y-114801120D01*
X133136400Y-114768100D01*
X133174500Y-114727460D01*
X133215140Y-114663960D01*
X133240540Y-114590300D01*
X133245620Y-114569980D01*
X133250700Y-114521720D01*
X133250700Y-114468380D01*
X133243080Y-114422660D01*
X133222760Y-114359160D01*
X133189740Y-114293120D01*
X133144020Y-114237240D01*
X133136400Y-114229620D01*
X133100840Y-114201680D01*
X133060200Y-114173740D01*
X133022100Y-114155960D01*
X133009400Y-114150880D01*
X132978920Y-114140720D01*
X132948440Y-114133100D01*
X132925580Y-114128020D01*
X132912880Y-114128020D01*
X132928120Y-114125480D01*
X132945900Y-114120400D01*
X132968760Y-114115320D01*
X132996700Y-114107700D01*
X133052580Y-114079760D01*
X133108460Y-114046740D01*
X133151640Y-114006100D01*
X133159260Y-113995940D01*
X133204980Y-113932440D01*
X133235460Y-113861320D01*
X133250700Y-113787660D01*
X133250700Y-113711460D01*
X133248160Y-113693680D01*
X133225300Y-113617480D01*
X133192280Y-113548900D01*
X133138940Y-113485400D01*
X133093220Y-113447300D01*
X133029720Y-113409200D01*
X132956060Y-113383800D01*
X132940820Y-113381260D01*
X132892560Y-113376180D01*
X132839220Y-113378720D01*
X132790960Y-113386340D01*
X132747780Y-113399040D01*
X132679200Y-113432060D01*
X132618240Y-113477780D01*
X132569980Y-113536200D01*
X132531880Y-113599700D01*
X132509020Y-113673360D01*
X132506480Y-113680980D01*
X132501400Y-113698760D01*
X132498860Y-113706380D01*
X132496320Y-113696220D01*
X132496320Y-113680980D01*
X132488700Y-113650500D01*
X132476000Y-113617480D01*
X132463300Y-113587000D01*
X132450600Y-113564140D01*
X132404880Y-113500640D01*
X132349000Y-113447300D01*
X132282960Y-113409200D01*
X132209300Y-113386340D01*
X132128020Y-113376180D01*
X132067060Y-113381260D01*
X131995940Y-113399040D01*
X131929900Y-113432060D01*
X131891800Y-113457460D01*
X131835920Y-113513340D01*
X131795280Y-113576840D01*
X131764800Y-113645420D01*
X131752100Y-113719080D01*
X131752100Y-113795280D01*
X131769880Y-113863860D01*
X131800360Y-113937520D01*
X131846080Y-113998480D01*
X131901960Y-114051820D01*
X131970540Y-114092460D01*
X132046740Y-114117860D01*
X132089920Y-114128020D01*
X132064520Y-114130560D01*
X132049280Y-114133100D01*
X131988320Y-114150880D01*
X131929900Y-114181360D01*
X131874020Y-114222000D01*
X131830840Y-114267720D01*
X131805440Y-114308360D01*
X131780040Y-114359160D01*
X131762260Y-114409960D01*
X131754640Y-114448060D01*
X131752100Y-114496320D01*
X131752100Y-114544580D01*
X131759720Y-114582680D01*
X131772420Y-114628400D01*
X131807980Y-114699520D01*
X131856240Y-114760480D01*
X131914660Y-114811280D01*
X131983240Y-114849380D01*
X132061980Y-114872240D01*
X132082300Y-114874780D01*
X132128020Y-114874780D01*
X132176280Y-114872240D01*
X132219460Y-114864620D01*
X132249940Y-114854460D01*
X132321060Y-114821440D01*
X132382020Y-114775720D01*
X132432820Y-114717300D01*
X132470920Y-114651260D01*
X132493780Y-114575060D01*
X132496320Y-114569980D01*
X132498860Y-114552200D01*
X132501400Y-114554740D01*
X132501400Y-114450600D01*
X132498860Y-114448060D01*
X132496320Y-114432820D01*
X132493780Y-114427740D01*
X132481080Y-114379480D01*
X132458220Y-114326140D01*
X132427740Y-114277880D01*
X132404880Y-114249940D01*
X132346460Y-114196600D01*
X132277880Y-114158500D01*
X132201680Y-114133100D01*
X132166120Y-114125480D01*
X132191520Y-114120400D01*
X132214380Y-114115320D01*
X132237240Y-114110240D01*
X132252480Y-114105160D01*
X132321060Y-114072140D01*
X132382020Y-114023880D01*
X132432820Y-113968000D01*
X132468380Y-113901960D01*
X132493780Y-113830840D01*
X132496320Y-113813060D01*
X132501400Y-113802900D01*
X132503940Y-113807980D01*
X132509020Y-113830840D01*
X132509020Y-113833380D01*
X132521720Y-113874020D01*
X132539500Y-113917200D01*
X132562360Y-113957840D01*
X132582680Y-113983240D01*
X132615700Y-114018800D01*
X132653800Y-114051820D01*
X132689360Y-114077220D01*
X132691900Y-114077220D01*
X132750320Y-114102620D01*
X132811280Y-114120400D01*
X132836680Y-114125480D01*
X132806200Y-114133100D01*
X132740160Y-114150880D01*
X132674120Y-114186440D01*
X132613160Y-114232160D01*
X132564900Y-114288040D01*
X132554740Y-114308360D01*
X132536960Y-114343920D01*
X132519180Y-114382020D01*
X132509020Y-114417580D01*
X132506480Y-114442980D01*
X132506480Y-114442980D01*
X132501400Y-114450600D01*
X132501400Y-114554740D01*
X132503940Y-114554740D01*
X132506480Y-114572520D01*
X132511560Y-114592840D01*
X132519180Y-114615700D01*
X132534420Y-114653800D01*
X132572520Y-114719840D01*
X132620780Y-114775720D01*
X132679200Y-114818900D01*
X132745240Y-114851920D01*
X132813820Y-114872240D01*
X132887480Y-114877320D01*
X132887480Y-114877320D01*
G37*
X132887480Y-114877320D02*
X132961140Y-114867160D01*
X133034800Y-114841760D01*
X133067820Y-114823980D01*
X133100840Y-114801120D01*
X133136400Y-114768100D01*
X133174500Y-114727460D01*
X133215140Y-114663960D01*
X133240540Y-114590300D01*
X133245620Y-114569980D01*
X133250700Y-114521720D01*
X133250700Y-114468380D01*
X133243080Y-114422660D01*
X133222760Y-114359160D01*
X133189740Y-114293120D01*
X133144020Y-114237240D01*
X133136400Y-114229620D01*
X133100840Y-114201680D01*
X133060200Y-114173740D01*
X133022100Y-114155960D01*
X133009400Y-114150880D01*
X132978920Y-114140720D01*
X132948440Y-114133100D01*
X132925580Y-114128020D01*
X132912880Y-114128020D01*
X132928120Y-114125480D01*
X132945900Y-114120400D01*
X132968760Y-114115320D01*
X132996700Y-114107700D01*
X133052580Y-114079760D01*
X133108460Y-114046740D01*
X133151640Y-114006100D01*
X133159260Y-113995940D01*
X133204980Y-113932440D01*
X133235460Y-113861320D01*
X133250700Y-113787660D01*
X133250700Y-113711460D01*
X133248160Y-113693680D01*
X133225300Y-113617480D01*
X133192280Y-113548900D01*
X133138940Y-113485400D01*
X133093220Y-113447300D01*
X133029720Y-113409200D01*
X132956060Y-113383800D01*
X132940820Y-113381260D01*
X132892560Y-113376180D01*
X132839220Y-113378720D01*
X132790960Y-113386340D01*
X132747780Y-113399040D01*
X132679200Y-113432060D01*
X132618240Y-113477780D01*
X132569980Y-113536200D01*
X132531880Y-113599700D01*
X132509020Y-113673360D01*
X132506480Y-113680980D01*
X132501400Y-113698760D01*
X132498860Y-113706380D01*
X132496320Y-113696220D01*
X132496320Y-113680980D01*
X132488700Y-113650500D01*
X132476000Y-113617480D01*
X132463300Y-113587000D01*
X132450600Y-113564140D01*
X132404880Y-113500640D01*
X132349000Y-113447300D01*
X132282960Y-113409200D01*
X132209300Y-113386340D01*
X132128020Y-113376180D01*
X132067060Y-113381260D01*
X131995940Y-113399040D01*
X131929900Y-113432060D01*
X131891800Y-113457460D01*
X131835920Y-113513340D01*
X131795280Y-113576840D01*
X131764800Y-113645420D01*
X131752100Y-113719080D01*
X131752100Y-113795280D01*
X131769880Y-113863860D01*
X131800360Y-113937520D01*
X131846080Y-113998480D01*
X131901960Y-114051820D01*
X131970540Y-114092460D01*
X132046740Y-114117860D01*
X132089920Y-114128020D01*
X132064520Y-114130560D01*
X132049280Y-114133100D01*
X131988320Y-114150880D01*
X131929900Y-114181360D01*
X131874020Y-114222000D01*
X131830840Y-114267720D01*
X131805440Y-114308360D01*
X131780040Y-114359160D01*
X131762260Y-114409960D01*
X131754640Y-114448060D01*
X131752100Y-114496320D01*
X131752100Y-114544580D01*
X131759720Y-114582680D01*
X131772420Y-114628400D01*
X131807980Y-114699520D01*
X131856240Y-114760480D01*
X131914660Y-114811280D01*
X131983240Y-114849380D01*
X132061980Y-114872240D01*
X132082300Y-114874780D01*
X132128020Y-114874780D01*
X132176280Y-114872240D01*
X132219460Y-114864620D01*
X132249940Y-114854460D01*
X132321060Y-114821440D01*
X132382020Y-114775720D01*
X132432820Y-114717300D01*
X132470920Y-114651260D01*
X132493780Y-114575060D01*
X132496320Y-114569980D01*
X132498860Y-114552200D01*
X132501400Y-114554740D01*
X132501400Y-114450600D01*
X132498860Y-114448060D01*
X132496320Y-114432820D01*
X132493780Y-114427740D01*
X132481080Y-114379480D01*
X132458220Y-114326140D01*
X132427740Y-114277880D01*
X132404880Y-114249940D01*
X132346460Y-114196600D01*
X132277880Y-114158500D01*
X132201680Y-114133100D01*
X132166120Y-114125480D01*
X132191520Y-114120400D01*
X132214380Y-114115320D01*
X132237240Y-114110240D01*
X132252480Y-114105160D01*
X132321060Y-114072140D01*
X132382020Y-114023880D01*
X132432820Y-113968000D01*
X132468380Y-113901960D01*
X132493780Y-113830840D01*
X132496320Y-113813060D01*
X132501400Y-113802900D01*
X132503940Y-113807980D01*
X132509020Y-113830840D01*
X132509020Y-113833380D01*
X132521720Y-113874020D01*
X132539500Y-113917200D01*
X132562360Y-113957840D01*
X132582680Y-113983240D01*
X132615700Y-114018800D01*
X132653800Y-114051820D01*
X132689360Y-114077220D01*
X132691900Y-114077220D01*
X132750320Y-114102620D01*
X132811280Y-114120400D01*
X132836680Y-114125480D01*
X132806200Y-114133100D01*
X132740160Y-114150880D01*
X132674120Y-114186440D01*
X132613160Y-114232160D01*
X132564900Y-114288040D01*
X132554740Y-114308360D01*
X132536960Y-114343920D01*
X132519180Y-114382020D01*
X132509020Y-114417580D01*
X132506480Y-114442980D01*
X132506480Y-114442980D01*
X132501400Y-114450600D01*
X132501400Y-114554740D01*
X132503940Y-114554740D01*
X132506480Y-114572520D01*
X132511560Y-114592840D01*
X132519180Y-114615700D01*
X132534420Y-114653800D01*
X132572520Y-114719840D01*
X132620780Y-114775720D01*
X132679200Y-114818900D01*
X132745240Y-114851920D01*
X132813820Y-114872240D01*
X132887480Y-114877320D01*
G36*
X135143000Y-114877320D02*
X135216660Y-114864620D01*
X135287780Y-114839220D01*
X135351280Y-114798580D01*
X135404620Y-114747780D01*
X135450340Y-114686820D01*
X135480820Y-114615700D01*
X135488440Y-114592840D01*
X135493520Y-114572520D01*
X135493520Y-114567440D01*
X135498600Y-114552200D01*
X135498600Y-114552200D01*
X135498600Y-114448060D01*
X135493520Y-114437900D01*
X135488440Y-114412500D01*
X135475740Y-114369320D01*
X135442720Y-114300740D01*
X135397000Y-114242320D01*
X135338580Y-114194060D01*
X135272540Y-114155960D01*
X135198880Y-114133100D01*
X135163320Y-114125480D01*
X135188720Y-114120400D01*
X135191260Y-114120400D01*
X135252220Y-114102620D01*
X135310640Y-114077220D01*
X135333500Y-114061980D01*
X135371600Y-114028960D01*
X135409700Y-113993400D01*
X135437640Y-113957840D01*
X135455420Y-113924820D01*
X135478280Y-113876560D01*
X135490980Y-113833380D01*
X135493520Y-113813060D01*
X135498600Y-113802900D01*
X135501140Y-113807980D01*
X135506220Y-113830840D01*
X135521460Y-113879100D01*
X135554480Y-113950220D01*
X135605280Y-114011180D01*
X135661160Y-114059440D01*
X135729740Y-114097540D01*
X135808480Y-114120400D01*
X135833880Y-114125480D01*
X135798320Y-114133100D01*
X135762760Y-114143260D01*
X135691640Y-114173740D01*
X135628140Y-114219460D01*
X135574800Y-114277880D01*
X135557020Y-114298200D01*
X135539240Y-114333760D01*
X135521460Y-114371860D01*
X135511300Y-114399800D01*
X135506220Y-114427740D01*
X135506220Y-114430280D01*
X135501140Y-114445520D01*
X135498600Y-114448060D01*
X135498600Y-114552200D01*
X135501140Y-114554740D01*
X135506220Y-114575060D01*
X135511300Y-114600460D01*
X135534160Y-114656340D01*
X135562100Y-114709680D01*
X135584960Y-114737620D01*
X135640840Y-114793500D01*
X135706880Y-114836680D01*
X135783080Y-114864620D01*
X135816100Y-114872240D01*
X135866900Y-114874780D01*
X135920240Y-114872240D01*
X135965960Y-114864620D01*
X135971040Y-114864620D01*
X136047240Y-114834140D01*
X136113280Y-114790960D01*
X136166620Y-114735080D01*
X136209800Y-114669040D01*
X136237740Y-114592840D01*
X136245360Y-114559820D01*
X136247900Y-114506480D01*
X136245360Y-114455680D01*
X136237740Y-114409960D01*
X136225040Y-114369320D01*
X136199640Y-114315980D01*
X136169160Y-114267720D01*
X136133600Y-114232160D01*
X136087880Y-114194060D01*
X136039620Y-114163580D01*
X136021840Y-114155960D01*
X135986280Y-114143260D01*
X135950720Y-114133100D01*
X135925320Y-114128020D01*
X135922780Y-114128020D01*
X135930400Y-114125480D01*
X135953260Y-114117860D01*
X135996440Y-114105160D01*
X136044700Y-114084840D01*
X136085340Y-114061980D01*
X136095500Y-114054360D01*
X136143760Y-114011180D01*
X136186940Y-113957840D01*
X136217420Y-113901960D01*
X136230120Y-113874020D01*
X136245360Y-113800360D01*
X136247900Y-113721620D01*
X136235200Y-113647960D01*
X136230120Y-113630180D01*
X136197100Y-113561600D01*
X136151380Y-113500640D01*
X136095500Y-113447300D01*
X136029460Y-113409200D01*
X135953260Y-113383800D01*
X135943100Y-113381260D01*
X135892300Y-113376180D01*
X135836420Y-113378720D01*
X135788160Y-113386340D01*
X135775460Y-113388880D01*
X135701800Y-113416820D01*
X135635760Y-113460000D01*
X135579880Y-113518420D01*
X135536700Y-113587000D01*
X135526540Y-113607320D01*
X135516380Y-113640340D01*
X135506220Y-113673360D01*
X135503680Y-113696220D01*
X135503680Y-113701300D01*
X135501140Y-113703840D01*
X135496060Y-113693680D01*
X135490980Y-113673360D01*
X135478280Y-113622560D01*
X135445260Y-113556520D01*
X135399540Y-113498100D01*
X135343660Y-113447300D01*
X135277620Y-113409200D01*
X135277620Y-113409200D01*
X135209040Y-113386340D01*
X135132840Y-113376180D01*
X135056640Y-113381260D01*
X134985520Y-113401580D01*
X134944880Y-113421900D01*
X134881380Y-113465080D01*
X134828040Y-113520960D01*
X134787400Y-113587000D01*
X134759460Y-113660660D01*
X134756920Y-113675900D01*
X134746760Y-113736860D01*
X134751840Y-113795280D01*
X134767080Y-113863860D01*
X134797560Y-113934980D01*
X134843280Y-113998480D01*
X134899160Y-114051820D01*
X134967740Y-114092460D01*
X135043940Y-114117860D01*
X135059180Y-114122940D01*
X135074420Y-114128020D01*
X135074420Y-114128020D01*
X135051560Y-114130560D01*
X135008380Y-114143260D01*
X134962660Y-114163580D01*
X134916940Y-114188980D01*
X134876300Y-114219460D01*
X134822960Y-114277880D01*
X134782320Y-114346460D01*
X134777240Y-114356620D01*
X134754380Y-114430280D01*
X134749300Y-114506480D01*
X134756920Y-114585220D01*
X134782320Y-114656340D01*
X134800100Y-114691900D01*
X134822960Y-114724920D01*
X134855980Y-114760480D01*
X134855980Y-114763020D01*
X134916940Y-114813820D01*
X134985520Y-114849380D01*
X135059180Y-114869700D01*
X135066800Y-114872240D01*
X135143000Y-114877320D01*
X135143000Y-114877320D01*
G37*
X135143000Y-114877320D02*
X135216660Y-114864620D01*
X135287780Y-114839220D01*
X135351280Y-114798580D01*
X135404620Y-114747780D01*
X135450340Y-114686820D01*
X135480820Y-114615700D01*
X135488440Y-114592840D01*
X135493520Y-114572520D01*
X135493520Y-114567440D01*
X135498600Y-114552200D01*
X135498600Y-114552200D01*
X135498600Y-114448060D01*
X135493520Y-114437900D01*
X135488440Y-114412500D01*
X135475740Y-114369320D01*
X135442720Y-114300740D01*
X135397000Y-114242320D01*
X135338580Y-114194060D01*
X135272540Y-114155960D01*
X135198880Y-114133100D01*
X135163320Y-114125480D01*
X135188720Y-114120400D01*
X135191260Y-114120400D01*
X135252220Y-114102620D01*
X135310640Y-114077220D01*
X135333500Y-114061980D01*
X135371600Y-114028960D01*
X135409700Y-113993400D01*
X135437640Y-113957840D01*
X135455420Y-113924820D01*
X135478280Y-113876560D01*
X135490980Y-113833380D01*
X135493520Y-113813060D01*
X135498600Y-113802900D01*
X135501140Y-113807980D01*
X135506220Y-113830840D01*
X135521460Y-113879100D01*
X135554480Y-113950220D01*
X135605280Y-114011180D01*
X135661160Y-114059440D01*
X135729740Y-114097540D01*
X135808480Y-114120400D01*
X135833880Y-114125480D01*
X135798320Y-114133100D01*
X135762760Y-114143260D01*
X135691640Y-114173740D01*
X135628140Y-114219460D01*
X135574800Y-114277880D01*
X135557020Y-114298200D01*
X135539240Y-114333760D01*
X135521460Y-114371860D01*
X135511300Y-114399800D01*
X135506220Y-114427740D01*
X135506220Y-114430280D01*
X135501140Y-114445520D01*
X135498600Y-114448060D01*
X135498600Y-114552200D01*
X135501140Y-114554740D01*
X135506220Y-114575060D01*
X135511300Y-114600460D01*
X135534160Y-114656340D01*
X135562100Y-114709680D01*
X135584960Y-114737620D01*
X135640840Y-114793500D01*
X135706880Y-114836680D01*
X135783080Y-114864620D01*
X135816100Y-114872240D01*
X135866900Y-114874780D01*
X135920240Y-114872240D01*
X135965960Y-114864620D01*
X135971040Y-114864620D01*
X136047240Y-114834140D01*
X136113280Y-114790960D01*
X136166620Y-114735080D01*
X136209800Y-114669040D01*
X136237740Y-114592840D01*
X136245360Y-114559820D01*
X136247900Y-114506480D01*
X136245360Y-114455680D01*
X136237740Y-114409960D01*
X136225040Y-114369320D01*
X136199640Y-114315980D01*
X136169160Y-114267720D01*
X136133600Y-114232160D01*
X136087880Y-114194060D01*
X136039620Y-114163580D01*
X136021840Y-114155960D01*
X135986280Y-114143260D01*
X135950720Y-114133100D01*
X135925320Y-114128020D01*
X135922780Y-114128020D01*
X135930400Y-114125480D01*
X135953260Y-114117860D01*
X135996440Y-114105160D01*
X136044700Y-114084840D01*
X136085340Y-114061980D01*
X136095500Y-114054360D01*
X136143760Y-114011180D01*
X136186940Y-113957840D01*
X136217420Y-113901960D01*
X136230120Y-113874020D01*
X136245360Y-113800360D01*
X136247900Y-113721620D01*
X136235200Y-113647960D01*
X136230120Y-113630180D01*
X136197100Y-113561600D01*
X136151380Y-113500640D01*
X136095500Y-113447300D01*
X136029460Y-113409200D01*
X135953260Y-113383800D01*
X135943100Y-113381260D01*
X135892300Y-113376180D01*
X135836420Y-113378720D01*
X135788160Y-113386340D01*
X135775460Y-113388880D01*
X135701800Y-113416820D01*
X135635760Y-113460000D01*
X135579880Y-113518420D01*
X135536700Y-113587000D01*
X135526540Y-113607320D01*
X135516380Y-113640340D01*
X135506220Y-113673360D01*
X135503680Y-113696220D01*
X135503680Y-113701300D01*
X135501140Y-113703840D01*
X135496060Y-113693680D01*
X135490980Y-113673360D01*
X135478280Y-113622560D01*
X135445260Y-113556520D01*
X135399540Y-113498100D01*
X135343660Y-113447300D01*
X135277620Y-113409200D01*
X135277620Y-113409200D01*
X135209040Y-113386340D01*
X135132840Y-113376180D01*
X135056640Y-113381260D01*
X134985520Y-113401580D01*
X134944880Y-113421900D01*
X134881380Y-113465080D01*
X134828040Y-113520960D01*
X134787400Y-113587000D01*
X134759460Y-113660660D01*
X134756920Y-113675900D01*
X134746760Y-113736860D01*
X134751840Y-113795280D01*
X134767080Y-113863860D01*
X134797560Y-113934980D01*
X134843280Y-113998480D01*
X134899160Y-114051820D01*
X134967740Y-114092460D01*
X135043940Y-114117860D01*
X135059180Y-114122940D01*
X135074420Y-114128020D01*
X135074420Y-114128020D01*
X135051560Y-114130560D01*
X135008380Y-114143260D01*
X134962660Y-114163580D01*
X134916940Y-114188980D01*
X134876300Y-114219460D01*
X134822960Y-114277880D01*
X134782320Y-114346460D01*
X134777240Y-114356620D01*
X134754380Y-114430280D01*
X134749300Y-114506480D01*
X134756920Y-114585220D01*
X134782320Y-114656340D01*
X134800100Y-114691900D01*
X134822960Y-114724920D01*
X134855980Y-114760480D01*
X134855980Y-114763020D01*
X134916940Y-114813820D01*
X134985520Y-114849380D01*
X135059180Y-114869700D01*
X135066800Y-114872240D01*
X135143000Y-114877320D01*
G36*
X164181360Y-118694940D02*
X164214380Y-118677160D01*
X164282960Y-118633980D01*
X164384560Y-118567940D01*
X164501400Y-118489200D01*
X164620780Y-118407920D01*
X164719840Y-118341880D01*
X164788420Y-118298700D01*
X164816360Y-118283460D01*
X164831600Y-118288540D01*
X164887480Y-118316480D01*
X164968760Y-118359660D01*
X165017020Y-118382520D01*
X165093220Y-118415540D01*
X165128780Y-118423160D01*
X165136400Y-118413000D01*
X165164340Y-118354580D01*
X165207520Y-118255520D01*
X165263400Y-118125980D01*
X165329440Y-117973580D01*
X165398020Y-117808480D01*
X165466600Y-117640840D01*
X165532640Y-117483360D01*
X165593600Y-117338580D01*
X165639320Y-117221740D01*
X165669800Y-117140460D01*
X165682500Y-117104900D01*
X165677420Y-117097280D01*
X165641860Y-117061720D01*
X165575820Y-117013460D01*
X165433580Y-116896620D01*
X165293880Y-116721360D01*
X165207520Y-116523240D01*
X165179580Y-116302260D01*
X165202440Y-116099060D01*
X165283720Y-115903480D01*
X165420880Y-115725680D01*
X165588520Y-115593600D01*
X165781560Y-115512320D01*
X166000000Y-115484380D01*
X166208280Y-115507240D01*
X166408940Y-115585980D01*
X166586740Y-115720600D01*
X166660400Y-115806960D01*
X166764540Y-115987300D01*
X166822960Y-116177800D01*
X166828040Y-116226060D01*
X166820420Y-116436880D01*
X166756920Y-116640080D01*
X166647700Y-116820420D01*
X166492760Y-116967740D01*
X166472440Y-116982980D01*
X166401320Y-117036320D01*
X166353060Y-117071880D01*
X166314960Y-117102360D01*
X166584200Y-117750060D01*
X166627380Y-117851660D01*
X166701040Y-118026920D01*
X166764540Y-118179320D01*
X166817880Y-118301240D01*
X166853440Y-118382520D01*
X166868680Y-118415540D01*
X166871220Y-118415540D01*
X166894080Y-118420620D01*
X166942340Y-118402840D01*
X167033780Y-118359660D01*
X167092200Y-118329180D01*
X167160780Y-118296160D01*
X167191260Y-118283460D01*
X167219200Y-118296160D01*
X167285240Y-118339340D01*
X167379220Y-118405380D01*
X167496060Y-118481580D01*
X167605280Y-118557780D01*
X167706880Y-118623820D01*
X167780540Y-118672080D01*
X167816100Y-118689860D01*
X167821180Y-118689860D01*
X167854200Y-118672080D01*
X167912620Y-118623820D01*
X167998980Y-118540000D01*
X168123440Y-118418080D01*
X168143760Y-118400300D01*
X168245360Y-118296160D01*
X168329180Y-118207260D01*
X168385060Y-118146300D01*
X168405380Y-118118360D01*
X168405380Y-118118360D01*
X168385060Y-118082800D01*
X168339340Y-118009140D01*
X168273300Y-117907540D01*
X168192020Y-117785620D01*
X167976120Y-117475740D01*
X168095500Y-117183640D01*
X168131060Y-117092200D01*
X168176780Y-116982980D01*
X168209800Y-116906780D01*
X168227580Y-116871220D01*
X168260600Y-116861060D01*
X168339340Y-116840740D01*
X168456180Y-116817880D01*
X168595880Y-116792480D01*
X168727960Y-116767080D01*
X168847340Y-116744220D01*
X168933700Y-116728980D01*
X168971800Y-116721360D01*
X168981960Y-116713740D01*
X168989580Y-116695960D01*
X168994660Y-116655320D01*
X168997200Y-116581660D01*
X168999740Y-116467360D01*
X168999740Y-116302260D01*
X168999740Y-116284480D01*
X168997200Y-116127000D01*
X168994660Y-116002540D01*
X168989580Y-115921260D01*
X168984500Y-115888240D01*
X168984500Y-115888240D01*
X168946400Y-115878080D01*
X168862580Y-115860300D01*
X168743200Y-115837440D01*
X168600960Y-115809500D01*
X168590800Y-115809500D01*
X168448560Y-115781560D01*
X168331720Y-115756160D01*
X168247900Y-115738380D01*
X168212340Y-115725680D01*
X168204720Y-115715520D01*
X168176780Y-115659640D01*
X168136140Y-115573280D01*
X168087880Y-115466600D01*
X168042160Y-115354840D01*
X168001520Y-115253240D01*
X167976120Y-115179580D01*
X167968500Y-115144020D01*
X167968500Y-115144020D01*
X167988820Y-115111000D01*
X168037080Y-115037340D01*
X168108200Y-114935740D01*
X168189480Y-114813820D01*
X168197100Y-114803660D01*
X168278380Y-114684280D01*
X168344420Y-114582680D01*
X168387600Y-114511560D01*
X168405380Y-114478540D01*
X168405380Y-114476000D01*
X168377440Y-114440440D01*
X168316480Y-114371860D01*
X168227580Y-114280420D01*
X168123440Y-114176280D01*
X168090420Y-114143260D01*
X167973580Y-114028960D01*
X167892300Y-113955300D01*
X167841500Y-113914660D01*
X167818640Y-113904500D01*
X167816100Y-113907040D01*
X167780540Y-113927360D01*
X167704340Y-113978160D01*
X167602740Y-114046740D01*
X167480820Y-114130560D01*
X167473200Y-114135640D01*
X167351280Y-114216920D01*
X167252220Y-114285500D01*
X167181100Y-114331220D01*
X167150620Y-114349000D01*
X167145540Y-114349000D01*
X167097280Y-114336300D01*
X167010920Y-114305820D01*
X166906780Y-114265180D01*
X166795020Y-114222000D01*
X166693420Y-114178820D01*
X166619760Y-114143260D01*
X166584200Y-114122940D01*
X166581660Y-114122940D01*
X166568960Y-114079760D01*
X166548640Y-113988320D01*
X166523240Y-113866400D01*
X166495300Y-113719080D01*
X166490220Y-113696220D01*
X166464820Y-113551440D01*
X166441960Y-113434600D01*
X166424180Y-113353320D01*
X166416560Y-113317760D01*
X166396240Y-113315220D01*
X166325120Y-113310140D01*
X166218440Y-113305060D01*
X166088900Y-113305060D01*
X165954280Y-113305060D01*
X165822200Y-113307600D01*
X165710440Y-113312680D01*
X165629160Y-113317760D01*
X165593600Y-113325380D01*
X165593600Y-113327920D01*
X165580900Y-113371100D01*
X165560580Y-113460000D01*
X165535180Y-113584460D01*
X165507240Y-113731780D01*
X165502160Y-113759720D01*
X165476760Y-113901960D01*
X165451360Y-114018800D01*
X165433580Y-114097540D01*
X165425960Y-114130560D01*
X165413260Y-114135640D01*
X165354840Y-114163580D01*
X165258320Y-114201680D01*
X165138940Y-114249940D01*
X164864620Y-114361700D01*
X164529340Y-114130560D01*
X164498860Y-114110240D01*
X164376940Y-114026420D01*
X164277880Y-113960380D01*
X164206760Y-113917200D01*
X164178820Y-113899420D01*
X164176280Y-113901960D01*
X164143260Y-113929900D01*
X164077220Y-113993400D01*
X163985780Y-114082300D01*
X163879100Y-114186440D01*
X163800360Y-114265180D01*
X163708920Y-114359160D01*
X163650500Y-114422660D01*
X163617480Y-114463300D01*
X163604780Y-114488700D01*
X163609860Y-114506480D01*
X163630180Y-114539500D01*
X163680980Y-114613160D01*
X163749560Y-114717300D01*
X163830840Y-114834140D01*
X163899420Y-114935740D01*
X163973080Y-115047500D01*
X164018800Y-115128780D01*
X164036580Y-115166880D01*
X164031500Y-115184660D01*
X164008640Y-115250700D01*
X163968000Y-115349760D01*
X163917200Y-115469140D01*
X163800360Y-115735840D01*
X163625100Y-115768860D01*
X163520960Y-115789180D01*
X163371100Y-115817120D01*
X163228860Y-115845060D01*
X163007880Y-115888240D01*
X163000260Y-116698500D01*
X163035820Y-116713740D01*
X163068840Y-116723900D01*
X163150120Y-116741680D01*
X163266960Y-116764540D01*
X163404120Y-116789940D01*
X163523500Y-116812800D01*
X163640340Y-116835660D01*
X163726700Y-116850900D01*
X163764800Y-116858520D01*
X163772420Y-116871220D01*
X163802900Y-116929640D01*
X163846080Y-117021080D01*
X163891800Y-117130300D01*
X163940060Y-117244600D01*
X163980700Y-117348740D01*
X164011180Y-117430020D01*
X164021340Y-117470660D01*
X164006100Y-117501140D01*
X163960380Y-117572260D01*
X163894340Y-117671320D01*
X163815600Y-117788160D01*
X163734320Y-117907540D01*
X163665740Y-118006600D01*
X163617480Y-118080260D01*
X163599700Y-118113280D01*
X163609860Y-118136140D01*
X163655580Y-118192020D01*
X163744480Y-118283460D01*
X163876560Y-118415540D01*
X163899420Y-118435860D01*
X164003560Y-118537460D01*
X164092460Y-118618740D01*
X164153420Y-118674620D01*
X164181360Y-118694940D01*
X164181360Y-118694940D01*
G37*
X164181360Y-118694940D02*
X164214380Y-118677160D01*
X164282960Y-118633980D01*
X164384560Y-118567940D01*
X164501400Y-118489200D01*
X164620780Y-118407920D01*
X164719840Y-118341880D01*
X164788420Y-118298700D01*
X164816360Y-118283460D01*
X164831600Y-118288540D01*
X164887480Y-118316480D01*
X164968760Y-118359660D01*
X165017020Y-118382520D01*
X165093220Y-118415540D01*
X165128780Y-118423160D01*
X165136400Y-118413000D01*
X165164340Y-118354580D01*
X165207520Y-118255520D01*
X165263400Y-118125980D01*
X165329440Y-117973580D01*
X165398020Y-117808480D01*
X165466600Y-117640840D01*
X165532640Y-117483360D01*
X165593600Y-117338580D01*
X165639320Y-117221740D01*
X165669800Y-117140460D01*
X165682500Y-117104900D01*
X165677420Y-117097280D01*
X165641860Y-117061720D01*
X165575820Y-117013460D01*
X165433580Y-116896620D01*
X165293880Y-116721360D01*
X165207520Y-116523240D01*
X165179580Y-116302260D01*
X165202440Y-116099060D01*
X165283720Y-115903480D01*
X165420880Y-115725680D01*
X165588520Y-115593600D01*
X165781560Y-115512320D01*
X166000000Y-115484380D01*
X166208280Y-115507240D01*
X166408940Y-115585980D01*
X166586740Y-115720600D01*
X166660400Y-115806960D01*
X166764540Y-115987300D01*
X166822960Y-116177800D01*
X166828040Y-116226060D01*
X166820420Y-116436880D01*
X166756920Y-116640080D01*
X166647700Y-116820420D01*
X166492760Y-116967740D01*
X166472440Y-116982980D01*
X166401320Y-117036320D01*
X166353060Y-117071880D01*
X166314960Y-117102360D01*
X166584200Y-117750060D01*
X166627380Y-117851660D01*
X166701040Y-118026920D01*
X166764540Y-118179320D01*
X166817880Y-118301240D01*
X166853440Y-118382520D01*
X166868680Y-118415540D01*
X166871220Y-118415540D01*
X166894080Y-118420620D01*
X166942340Y-118402840D01*
X167033780Y-118359660D01*
X167092200Y-118329180D01*
X167160780Y-118296160D01*
X167191260Y-118283460D01*
X167219200Y-118296160D01*
X167285240Y-118339340D01*
X167379220Y-118405380D01*
X167496060Y-118481580D01*
X167605280Y-118557780D01*
X167706880Y-118623820D01*
X167780540Y-118672080D01*
X167816100Y-118689860D01*
X167821180Y-118689860D01*
X167854200Y-118672080D01*
X167912620Y-118623820D01*
X167998980Y-118540000D01*
X168123440Y-118418080D01*
X168143760Y-118400300D01*
X168245360Y-118296160D01*
X168329180Y-118207260D01*
X168385060Y-118146300D01*
X168405380Y-118118360D01*
X168405380Y-118118360D01*
X168385060Y-118082800D01*
X168339340Y-118009140D01*
X168273300Y-117907540D01*
X168192020Y-117785620D01*
X167976120Y-117475740D01*
X168095500Y-117183640D01*
X168131060Y-117092200D01*
X168176780Y-116982980D01*
X168209800Y-116906780D01*
X168227580Y-116871220D01*
X168260600Y-116861060D01*
X168339340Y-116840740D01*
X168456180Y-116817880D01*
X168595880Y-116792480D01*
X168727960Y-116767080D01*
X168847340Y-116744220D01*
X168933700Y-116728980D01*
X168971800Y-116721360D01*
X168981960Y-116713740D01*
X168989580Y-116695960D01*
X168994660Y-116655320D01*
X168997200Y-116581660D01*
X168999740Y-116467360D01*
X168999740Y-116302260D01*
X168999740Y-116284480D01*
X168997200Y-116127000D01*
X168994660Y-116002540D01*
X168989580Y-115921260D01*
X168984500Y-115888240D01*
X168984500Y-115888240D01*
X168946400Y-115878080D01*
X168862580Y-115860300D01*
X168743200Y-115837440D01*
X168600960Y-115809500D01*
X168590800Y-115809500D01*
X168448560Y-115781560D01*
X168331720Y-115756160D01*
X168247900Y-115738380D01*
X168212340Y-115725680D01*
X168204720Y-115715520D01*
X168176780Y-115659640D01*
X168136140Y-115573280D01*
X168087880Y-115466600D01*
X168042160Y-115354840D01*
X168001520Y-115253240D01*
X167976120Y-115179580D01*
X167968500Y-115144020D01*
X167968500Y-115144020D01*
X167988820Y-115111000D01*
X168037080Y-115037340D01*
X168108200Y-114935740D01*
X168189480Y-114813820D01*
X168197100Y-114803660D01*
X168278380Y-114684280D01*
X168344420Y-114582680D01*
X168387600Y-114511560D01*
X168405380Y-114478540D01*
X168405380Y-114476000D01*
X168377440Y-114440440D01*
X168316480Y-114371860D01*
X168227580Y-114280420D01*
X168123440Y-114176280D01*
X168090420Y-114143260D01*
X167973580Y-114028960D01*
X167892300Y-113955300D01*
X167841500Y-113914660D01*
X167818640Y-113904500D01*
X167816100Y-113907040D01*
X167780540Y-113927360D01*
X167704340Y-113978160D01*
X167602740Y-114046740D01*
X167480820Y-114130560D01*
X167473200Y-114135640D01*
X167351280Y-114216920D01*
X167252220Y-114285500D01*
X167181100Y-114331220D01*
X167150620Y-114349000D01*
X167145540Y-114349000D01*
X167097280Y-114336300D01*
X167010920Y-114305820D01*
X166906780Y-114265180D01*
X166795020Y-114222000D01*
X166693420Y-114178820D01*
X166619760Y-114143260D01*
X166584200Y-114122940D01*
X166581660Y-114122940D01*
X166568960Y-114079760D01*
X166548640Y-113988320D01*
X166523240Y-113866400D01*
X166495300Y-113719080D01*
X166490220Y-113696220D01*
X166464820Y-113551440D01*
X166441960Y-113434600D01*
X166424180Y-113353320D01*
X166416560Y-113317760D01*
X166396240Y-113315220D01*
X166325120Y-113310140D01*
X166218440Y-113305060D01*
X166088900Y-113305060D01*
X165954280Y-113305060D01*
X165822200Y-113307600D01*
X165710440Y-113312680D01*
X165629160Y-113317760D01*
X165593600Y-113325380D01*
X165593600Y-113327920D01*
X165580900Y-113371100D01*
X165560580Y-113460000D01*
X165535180Y-113584460D01*
X165507240Y-113731780D01*
X165502160Y-113759720D01*
X165476760Y-113901960D01*
X165451360Y-114018800D01*
X165433580Y-114097540D01*
X165425960Y-114130560D01*
X165413260Y-114135640D01*
X165354840Y-114163580D01*
X165258320Y-114201680D01*
X165138940Y-114249940D01*
X164864620Y-114361700D01*
X164529340Y-114130560D01*
X164498860Y-114110240D01*
X164376940Y-114026420D01*
X164277880Y-113960380D01*
X164206760Y-113917200D01*
X164178820Y-113899420D01*
X164176280Y-113901960D01*
X164143260Y-113929900D01*
X164077220Y-113993400D01*
X163985780Y-114082300D01*
X163879100Y-114186440D01*
X163800360Y-114265180D01*
X163708920Y-114359160D01*
X163650500Y-114422660D01*
X163617480Y-114463300D01*
X163604780Y-114488700D01*
X163609860Y-114506480D01*
X163630180Y-114539500D01*
X163680980Y-114613160D01*
X163749560Y-114717300D01*
X163830840Y-114834140D01*
X163899420Y-114935740D01*
X163973080Y-115047500D01*
X164018800Y-115128780D01*
X164036580Y-115166880D01*
X164031500Y-115184660D01*
X164008640Y-115250700D01*
X163968000Y-115349760D01*
X163917200Y-115469140D01*
X163800360Y-115735840D01*
X163625100Y-115768860D01*
X163520960Y-115789180D01*
X163371100Y-115817120D01*
X163228860Y-115845060D01*
X163007880Y-115888240D01*
X163000260Y-116698500D01*
X163035820Y-116713740D01*
X163068840Y-116723900D01*
X163150120Y-116741680D01*
X163266960Y-116764540D01*
X163404120Y-116789940D01*
X163523500Y-116812800D01*
X163640340Y-116835660D01*
X163726700Y-116850900D01*
X163764800Y-116858520D01*
X163772420Y-116871220D01*
X163802900Y-116929640D01*
X163846080Y-117021080D01*
X163891800Y-117130300D01*
X163940060Y-117244600D01*
X163980700Y-117348740D01*
X164011180Y-117430020D01*
X164021340Y-117470660D01*
X164006100Y-117501140D01*
X163960380Y-117572260D01*
X163894340Y-117671320D01*
X163815600Y-117788160D01*
X163734320Y-117907540D01*
X163665740Y-118006600D01*
X163617480Y-118080260D01*
X163599700Y-118113280D01*
X163609860Y-118136140D01*
X163655580Y-118192020D01*
X163744480Y-118283460D01*
X163876560Y-118415540D01*
X163899420Y-118435860D01*
X164003560Y-118537460D01*
X164092460Y-118618740D01*
X164153420Y-118674620D01*
X164181360Y-118694940D01*
D11*
X142380000Y-60600000D02*
X142380000Y-58060000D01*
X142380000Y-58060000D02*
X157620000Y-58060000D01*
X157620000Y-58060000D02*
X157620000Y-60600000D01*
X157620000Y-60600000D02*
X142380000Y-60600000D01*
X144920000Y-60600000D02*
X144920000Y-58060000D01*
X146500001Y-57138571D02*
X146642858Y-57186190D01*
X146690477Y-57233810D01*
X146738096Y-57329048D01*
X146738096Y-57471905D01*
X146690477Y-57567143D01*
X146642858Y-57614762D01*
X146547620Y-57662381D01*
X146166667Y-57662381D01*
X146166667Y-56662381D01*
X146500001Y-56662381D01*
X146595239Y-56710000D01*
X146642858Y-56757619D01*
X146690477Y-56852857D01*
X146690477Y-56948095D01*
X146642858Y-57043333D01*
X146595239Y-57090952D01*
X146500001Y-57138571D01*
X146166667Y-57138571D01*
X147023810Y-56662381D02*
X147595239Y-56662381D01*
X147309524Y-57662381D02*
X147309524Y-56662381D01*
X147928572Y-57281429D02*
X148690477Y-57281429D01*
X149738096Y-57662381D02*
X149404762Y-57186190D01*
X149166667Y-57662381D02*
X149166667Y-56662381D01*
X149547620Y-56662381D01*
X149642858Y-56710000D01*
X149690477Y-56757619D01*
X149738096Y-56852857D01*
X149738096Y-56995714D01*
X149690477Y-57090952D01*
X149642858Y-57138571D01*
X149547620Y-57186190D01*
X149166667Y-57186190D01*
X150595239Y-57662381D02*
X150595239Y-57138571D01*
X150547620Y-57043333D01*
X150452382Y-56995714D01*
X150261905Y-56995714D01*
X150166667Y-57043333D01*
X150595239Y-57614762D02*
X150500001Y-57662381D01*
X150261905Y-57662381D01*
X150166667Y-57614762D01*
X150119048Y-57519524D01*
X150119048Y-57424286D01*
X150166667Y-57329048D01*
X150261905Y-57281429D01*
X150500001Y-57281429D01*
X150595239Y-57233810D01*
X151500001Y-57662381D02*
X151500001Y-56662381D01*
X151500001Y-57614762D02*
X151404763Y-57662381D01*
X151214286Y-57662381D01*
X151119048Y-57614762D01*
X151071429Y-57567143D01*
X151023810Y-57471905D01*
X151023810Y-57186190D01*
X151071429Y-57090952D01*
X151119048Y-57043333D01*
X151214286Y-56995714D01*
X151404763Y-56995714D01*
X151500001Y-57043333D01*
X151976191Y-57662381D02*
X151976191Y-56995714D01*
X151976191Y-56662381D02*
X151928572Y-56710000D01*
X151976191Y-56757619D01*
X152023810Y-56710000D01*
X151976191Y-56662381D01*
X151976191Y-56757619D01*
X152595238Y-57662381D02*
X152500000Y-57614762D01*
X152452381Y-57567143D01*
X152404762Y-57471905D01*
X152404762Y-57186190D01*
X152452381Y-57090952D01*
X152500000Y-57043333D01*
X152595238Y-56995714D01*
X152738096Y-56995714D01*
X152833334Y-57043333D01*
X152880953Y-57090952D01*
X152928572Y-57186190D01*
X152928572Y-57471905D01*
X152880953Y-57567143D01*
X152833334Y-57614762D01*
X152738096Y-57662381D01*
X152595238Y-57662381D01*
X153880953Y-57662381D02*
X153309524Y-57662381D01*
X153595238Y-57662381D02*
X153595238Y-56662381D01*
X153500000Y-56805238D01*
X153404762Y-56900476D01*
X153309524Y-56948095D01*
X143571428Y-61861905D02*
X143571428Y-61061905D01*
X143571428Y-61442857D02*
X144142857Y-61442857D01*
X144142857Y-61861905D02*
X144142857Y-61061905D01*
X145190476Y-61785714D02*
X145142857Y-61823810D01*
X145000000Y-61861905D01*
X144904762Y-61861905D01*
X144761904Y-61823810D01*
X144666666Y-61747619D01*
X144619047Y-61671429D01*
X144571428Y-61519048D01*
X144571428Y-61404762D01*
X144619047Y-61252381D01*
X144666666Y-61176190D01*
X144761904Y-61100000D01*
X144904762Y-61061905D01*
X145000000Y-61061905D01*
X145142857Y-61100000D01*
X145190476Y-61138095D01*
X145619047Y-61557143D02*
X146380952Y-61557143D01*
X147047618Y-61061905D02*
X147142857Y-61061905D01*
X147238095Y-61100000D01*
X147285714Y-61138095D01*
X147333333Y-61214286D01*
X147380952Y-61366667D01*
X147380952Y-61557143D01*
X147333333Y-61709524D01*
X147285714Y-61785714D01*
X147238095Y-61823810D01*
X147142857Y-61861905D01*
X147047618Y-61861905D01*
X146952380Y-61823810D01*
X146904761Y-61785714D01*
X146857142Y-61709524D01*
X146809523Y-61557143D01*
X146809523Y-61366667D01*
X146857142Y-61214286D01*
X146904761Y-61138095D01*
X146952380Y-61100000D01*
X147047618Y-61061905D01*
X148285714Y-61061905D02*
X147809523Y-61061905D01*
X147761904Y-61442857D01*
X147809523Y-61404762D01*
X147904761Y-61366667D01*
X148142857Y-61366667D01*
X148238095Y-61404762D01*
X148285714Y-61442857D01*
X148333333Y-61519048D01*
X148333333Y-61709524D01*
X148285714Y-61785714D01*
X148238095Y-61823810D01*
X148142857Y-61861905D01*
X147904761Y-61861905D01*
X147809523Y-61823810D01*
X147761904Y-61785714D01*
X149809524Y-62128571D02*
X149571428Y-62128571D01*
X149571428Y-60985714D01*
X149809524Y-60985714D01*
X150476191Y-61061905D02*
X150476191Y-61633333D01*
X150428571Y-61747619D01*
X150333333Y-61823810D01*
X150190476Y-61861905D01*
X150095238Y-61861905D01*
X151142857Y-61480952D02*
X151142857Y-61861905D01*
X150809524Y-61061905D02*
X151142857Y-61480952D01*
X151476191Y-61061905D01*
X151809524Y-61557143D02*
X152571429Y-61557143D01*
X153047619Y-61861905D02*
X153047619Y-61061905D01*
X153380953Y-61633333D01*
X153714286Y-61061905D01*
X153714286Y-61861905D01*
X154761905Y-61785714D02*
X154714286Y-61823810D01*
X154571429Y-61861905D01*
X154476191Y-61861905D01*
X154333333Y-61823810D01*
X154238095Y-61747619D01*
X154190476Y-61671429D01*
X154142857Y-61519048D01*
X154142857Y-61404762D01*
X154190476Y-61252381D01*
X154238095Y-61176190D01*
X154333333Y-61100000D01*
X154476191Y-61061905D01*
X154571429Y-61061905D01*
X154714286Y-61100000D01*
X154761905Y-61138095D01*
X155190476Y-61061905D02*
X155190476Y-61709524D01*
X155238095Y-61785714D01*
X155285714Y-61823810D01*
X155380952Y-61861905D01*
X155571429Y-61861905D01*
X155666667Y-61823810D01*
X155714286Y-61785714D01*
X155761905Y-61709524D01*
X155761905Y-61061905D01*
X156142857Y-62128571D02*
X156380952Y-62128571D01*
X156380952Y-60985714D01*
X156142857Y-60985714D01*
%LPC*%
D16*
X151650000Y-130480000D03*
X147900000Y-129930000D03*
D10*
G36*
X143640729Y-54622507D02*
X143944171Y-56141087D01*
X142622361Y-56405211D01*
X142318919Y-54886631D01*
X143640729Y-54622507D01*
X143640729Y-54622507D01*
G37*
G36*
X141777639Y-54994789D02*
X142081081Y-56513369D01*
X140759271Y-56777493D01*
X140455829Y-55258913D01*
X141777639Y-54994789D01*
X141777639Y-54994789D01*
G37*
G36*
X135904004Y-56663189D02*
X136496628Y-58093909D01*
X135251294Y-58609743D01*
X134658670Y-57179023D01*
X135904004Y-56663189D01*
X135904004Y-56663189D01*
G37*
G36*
X134148706Y-57390257D02*
X134741330Y-58820977D01*
X133495996Y-59336811D01*
X132903372Y-57906091D01*
X134148706Y-57390257D01*
X134148706Y-57390257D01*
G37*
G36*
X128618721Y-60253183D02*
X129480200Y-61540046D01*
X128360083Y-62289899D01*
X127498604Y-61003036D01*
X128618721Y-60253183D01*
X128618721Y-60253183D01*
G37*
G36*
X127039917Y-61310101D02*
X127901396Y-62596964D01*
X126781279Y-63346817D01*
X125919800Y-62059954D01*
X127039917Y-61310101D01*
X127039917Y-61310101D01*
G37*
G36*
X122300779Y-65004195D02*
X123395805Y-66099221D01*
X122442667Y-67052359D01*
X121347641Y-65957333D01*
X122300779Y-65004195D01*
X122300779Y-65004195D01*
G37*
G36*
X120957333Y-66347641D02*
X122052359Y-67442667D01*
X121099221Y-68395805D01*
X120004195Y-67300779D01*
X120957333Y-66347641D01*
X120957333Y-66347641D01*
G37*
G36*
X117006846Y-71019349D02*
X118295211Y-71878581D01*
X117547314Y-73000005D01*
X116258949Y-72140773D01*
X117006846Y-71019349D01*
X117006846Y-71019349D01*
G37*
G36*
X115952686Y-72599995D02*
X117241051Y-73459227D01*
X116493154Y-74580651D01*
X115204789Y-73721419D01*
X115952686Y-72599995D01*
X115952686Y-72599995D01*
G37*
G36*
X112956091Y-77903372D02*
X114386811Y-78495996D01*
X113870977Y-79741330D01*
X112440257Y-79148706D01*
X112956091Y-77903372D01*
X112956091Y-77903372D01*
G37*
G36*
X112229023Y-79658670D02*
X113659743Y-80251294D01*
X113143909Y-81496628D01*
X111713189Y-80904004D01*
X112229023Y-79658670D01*
X112229023Y-79658670D01*
G37*
G36*
X110305870Y-85506602D02*
X111824977Y-85807393D01*
X111563160Y-87129662D01*
X110044053Y-86828871D01*
X110305870Y-85506602D01*
X110305870Y-85506602D01*
G37*
G36*
X109936840Y-87370338D02*
X111455947Y-87671129D01*
X111194130Y-88993398D01*
X109675023Y-88692607D01*
X109936840Y-87370338D01*
X109936840Y-87370338D01*
G37*
D17*
X110000000Y-94050040D03*
X110000000Y-95949960D03*
D10*
G36*
X109672507Y-101359271D02*
X111191087Y-101055829D01*
X111455211Y-102377639D01*
X109936631Y-102681081D01*
X109672507Y-101359271D01*
X109672507Y-101359271D01*
G37*
G36*
X110044789Y-103222361D02*
X111563369Y-102918919D01*
X111827493Y-104240729D01*
X110308913Y-104544171D01*
X110044789Y-103222361D01*
X110044789Y-103222361D01*
G37*
G36*
X111713189Y-109145996D02*
X113143909Y-108553372D01*
X113659743Y-109798706D01*
X112229023Y-110391330D01*
X111713189Y-109145996D01*
X111713189Y-109145996D01*
G37*
G36*
X112440257Y-110901294D02*
X113870977Y-110308670D01*
X114386811Y-111554004D01*
X112956091Y-112146628D01*
X112440257Y-110901294D01*
X112440257Y-110901294D01*
G37*
G36*
X115153183Y-116281279D02*
X116440046Y-115419800D01*
X117189899Y-116539917D01*
X115903036Y-117401396D01*
X115153183Y-116281279D01*
X115153183Y-116281279D01*
G37*
G36*
X116210101Y-117860083D02*
X117496964Y-116998604D01*
X118246817Y-118118721D01*
X116959954Y-118980200D01*
X116210101Y-117860083D01*
X116210101Y-117860083D01*
G37*
G36*
X120004195Y-122699221D02*
X121099221Y-121604195D01*
X122052359Y-122557333D01*
X120957333Y-123652359D01*
X120004195Y-122699221D01*
X120004195Y-122699221D01*
G37*
G36*
X121347641Y-124042667D02*
X122442667Y-122947641D01*
X123395805Y-123900779D01*
X122300779Y-124995805D01*
X121347641Y-124042667D01*
X121347641Y-124042667D01*
G37*
G36*
X125969349Y-127993154D02*
X126828581Y-126704789D01*
X127950005Y-127452686D01*
X127090773Y-128741051D01*
X125969349Y-127993154D01*
X125969349Y-127993154D01*
G37*
G36*
X127549995Y-129047314D02*
X128409227Y-127758949D01*
X129530651Y-128506846D01*
X128671419Y-129795211D01*
X127549995Y-129047314D01*
X127549995Y-129047314D01*
G37*
G36*
X132903372Y-132043909D02*
X133495996Y-130613189D01*
X134741330Y-131129023D01*
X134148706Y-132559743D01*
X132903372Y-132043909D01*
X132903372Y-132043909D01*
G37*
G36*
X134658670Y-132770977D02*
X135251294Y-131340257D01*
X136496628Y-131856091D01*
X135904004Y-133286811D01*
X134658670Y-132770977D01*
X134658670Y-132770977D01*
G37*
G36*
X140406602Y-134644130D02*
X140707393Y-133125023D01*
X142029662Y-133386840D01*
X141728871Y-134905947D01*
X140406602Y-134644130D01*
X140406602Y-134644130D01*
G37*
G36*
X142270338Y-135013160D02*
X142571129Y-133494053D01*
X143893398Y-133755870D01*
X143592607Y-135274977D01*
X142270338Y-135013160D01*
X142270338Y-135013160D01*
G37*
D18*
X149050040Y-135000000D03*
X150949960Y-135000000D03*
D10*
G36*
X156364933Y-135285022D02*
X156053544Y-133768051D01*
X157373953Y-133497010D01*
X157685342Y-135013981D01*
X156364933Y-135285022D01*
X156364933Y-135285022D01*
G37*
G36*
X158226047Y-134902990D02*
X157914658Y-133386019D01*
X159235067Y-133114978D01*
X159546456Y-134631949D01*
X158226047Y-134902990D01*
X158226047Y-134902990D01*
G37*
G36*
X164103012Y-133243097D02*
X163502906Y-131815499D01*
X164745522Y-131293151D01*
X165345628Y-132720749D01*
X164103012Y-133243097D01*
X164103012Y-133243097D01*
G37*
G36*
X165854478Y-132506849D02*
X165254372Y-131079251D01*
X166496988Y-130556903D01*
X167097094Y-131984501D01*
X165854478Y-132506849D01*
X165854478Y-132506849D01*
G37*
G36*
X171186684Y-129850014D02*
X170320717Y-128566166D01*
X171438210Y-127812408D01*
X172304177Y-129096256D01*
X171186684Y-129850014D01*
X171186684Y-129850014D01*
G37*
G36*
X172761790Y-128787592D02*
X171895823Y-127503744D01*
X173013316Y-126749986D01*
X173879283Y-128033834D01*
X172761790Y-128787592D01*
X172761790Y-128787592D01*
G37*
G36*
X177699221Y-124995805D02*
X176604195Y-123900779D01*
X177557333Y-122947641D01*
X178652359Y-124042667D01*
X177699221Y-124995805D01*
X177699221Y-124995805D01*
G37*
G36*
X179042667Y-123652359D02*
X177947641Y-122557333D01*
X178900779Y-121604195D01*
X179995805Y-122699221D01*
X179042667Y-123652359D01*
X179042667Y-123652359D01*
G37*
G36*
X183040046Y-118980200D02*
X181753183Y-118118721D01*
X182503036Y-116998604D01*
X183789899Y-117860083D01*
X183040046Y-118980200D01*
X183040046Y-118980200D01*
G37*
G36*
X184096964Y-117401396D02*
X182810101Y-116539917D01*
X183559954Y-115419800D01*
X184846817Y-116281279D01*
X184096964Y-117401396D01*
X184096964Y-117401396D01*
G37*
G36*
X187040773Y-112096789D02*
X185611090Y-111501669D01*
X186129097Y-110257237D01*
X187558780Y-110852357D01*
X187040773Y-112096789D01*
X187040773Y-112096789D01*
G37*
G36*
X187770903Y-110342763D02*
X186341220Y-109747643D01*
X186859227Y-108503211D01*
X188288910Y-109098331D01*
X187770903Y-110342763D01*
X187770903Y-110342763D01*
G37*
G36*
X189641087Y-104594171D02*
X188122507Y-104290729D01*
X188386631Y-102968919D01*
X189905211Y-103272361D01*
X189641087Y-104594171D01*
X189641087Y-104594171D01*
G37*
G36*
X190013369Y-102731081D02*
X188494789Y-102427639D01*
X188758913Y-101105829D01*
X190277493Y-101409271D01*
X190013369Y-102731081D01*
X190013369Y-102731081D01*
G37*
D17*
X190000000Y-95949960D03*
X190000000Y-94050040D03*
D10*
G36*
X190324977Y-88642607D02*
X188805870Y-88943398D01*
X188544053Y-87621129D01*
X190063160Y-87320338D01*
X190324977Y-88642607D01*
X190324977Y-88642607D01*
G37*
G36*
X189955947Y-86778871D02*
X188436840Y-87079662D01*
X188175023Y-85757393D01*
X189694130Y-85456602D01*
X189955947Y-86778871D01*
X189955947Y-86778871D01*
G37*
G36*
X188288910Y-80901669D02*
X186859227Y-81496789D01*
X186341220Y-80252357D01*
X187770903Y-79657237D01*
X188288910Y-80901669D01*
X188288910Y-80901669D01*
G37*
G36*
X187558780Y-79147643D02*
X186129097Y-79742763D01*
X185611090Y-78498331D01*
X187040773Y-77903211D01*
X187558780Y-79147643D01*
X187558780Y-79147643D01*
G37*
G36*
X184796817Y-73668721D02*
X183509954Y-74530200D01*
X182760101Y-73410083D01*
X184046964Y-72548604D01*
X184796817Y-73668721D01*
X184796817Y-73668721D01*
G37*
G36*
X183739899Y-72089917D02*
X182453036Y-72951396D01*
X181703183Y-71831279D01*
X182990046Y-70969800D01*
X183739899Y-72089917D01*
X183739899Y-72089917D01*
G37*
G36*
X179995805Y-67300779D02*
X178900779Y-68395805D01*
X177947641Y-67442667D01*
X179042667Y-66347641D01*
X179995805Y-67300779D01*
X179995805Y-67300779D01*
G37*
G36*
X178652359Y-65957333D02*
X177557333Y-67052359D01*
X176604195Y-66099221D01*
X177699221Y-65004195D01*
X178652359Y-65957333D01*
X178652359Y-65957333D01*
G37*
G36*
X174080200Y-62059954D02*
X173218721Y-63346817D01*
X172098604Y-62596964D01*
X172960083Y-61310101D01*
X174080200Y-62059954D01*
X174080200Y-62059954D01*
G37*
G36*
X172501396Y-61003036D02*
X171639917Y-62289899D01*
X170519800Y-61540046D01*
X171381279Y-60253183D01*
X172501396Y-61003036D01*
X172501396Y-61003036D01*
G37*
G36*
X167096628Y-57906091D02*
X166504004Y-59336811D01*
X165258670Y-58820977D01*
X165851294Y-57390257D01*
X167096628Y-57906091D01*
X167096628Y-57906091D01*
G37*
G36*
X165341330Y-57179023D02*
X164748706Y-58609743D01*
X163503372Y-58093909D01*
X164095996Y-56663189D01*
X165341330Y-57179023D01*
X165341330Y-57179023D01*
G37*
G36*
X159544171Y-55358913D02*
X159240729Y-56877493D01*
X157918919Y-56613369D01*
X158222361Y-55094789D01*
X159544171Y-55358913D01*
X159544171Y-55358913D01*
G37*
G36*
X157681081Y-54986631D02*
X157377639Y-56505211D01*
X156055829Y-56241087D01*
X156359271Y-54722507D01*
X157681081Y-54986631D01*
X157681081Y-54986631D01*
G37*
D18*
X150949960Y-55000000D03*
X149050040Y-55000000D03*
D10*
G36*
X142927656Y-51518048D02*
X144741794Y-51155547D01*
X145025916Y-52577438D01*
X143211778Y-52939939D01*
X142927656Y-51518048D01*
X142927656Y-51518048D01*
G37*
G36*
X142281034Y-48282020D02*
X144095172Y-47919519D01*
X144379294Y-49341410D01*
X142565156Y-49703911D01*
X142281034Y-48282020D01*
X142281034Y-48282020D01*
G37*
G36*
X137574084Y-49222562D02*
X139388222Y-48860061D01*
X139672344Y-50281952D01*
X137858206Y-50644453D01*
X137574084Y-49222562D01*
X137574084Y-49222562D01*
G37*
G36*
X138220706Y-52458590D02*
X140034844Y-52096089D01*
X140318966Y-53517980D01*
X138504828Y-53880481D01*
X138220706Y-52458590D01*
X138220706Y-52458590D01*
G37*
G36*
X140809670Y-51125449D02*
X141839316Y-50919705D01*
X141947086Y-51459043D01*
X140917440Y-51664787D01*
X140809670Y-51125449D01*
X140809670Y-51125449D01*
G37*
G36*
X140652914Y-50340957D02*
X141682560Y-50135213D01*
X141790330Y-50674551D01*
X140760684Y-50880295D01*
X140652914Y-50340957D01*
X140652914Y-50340957D01*
G37*
G36*
X134516705Y-53690131D02*
X136225882Y-52982166D01*
X136780773Y-54321791D01*
X135071596Y-55029756D01*
X134516705Y-53690131D01*
X134516705Y-53690131D01*
G37*
G36*
X133253849Y-50641329D02*
X134963026Y-49933364D01*
X135517917Y-51272989D01*
X133808740Y-51980954D01*
X133253849Y-50641329D01*
X133253849Y-50641329D01*
G37*
G36*
X128819227Y-52478209D02*
X130528404Y-51770244D01*
X131083295Y-53109869D01*
X129374118Y-53817834D01*
X128819227Y-52478209D01*
X128819227Y-52478209D01*
G37*
G36*
X130082083Y-55527011D02*
X131791260Y-54819046D01*
X132346151Y-56158671D01*
X130636974Y-56866636D01*
X130082083Y-55527011D01*
X130082083Y-55527011D01*
G37*
G36*
X132362798Y-53716394D02*
X133332872Y-53314576D01*
X133543348Y-53822710D01*
X132573274Y-54224528D01*
X132362798Y-53716394D01*
X132362798Y-53716394D01*
G37*
G36*
X132056652Y-52977290D02*
X133026726Y-52575472D01*
X133237202Y-53083606D01*
X132267128Y-53485424D01*
X132056652Y-52977290D01*
X132056652Y-52977290D01*
G37*
G36*
X126740275Y-57548125D02*
X128277596Y-56518978D01*
X129084225Y-57723905D01*
X127546904Y-58753052D01*
X126740275Y-57548125D01*
X126740275Y-57548125D01*
G37*
G36*
X124904500Y-54805876D02*
X126441821Y-53776729D01*
X127248450Y-54981656D01*
X125711129Y-56010803D01*
X124904500Y-54805876D01*
X124904500Y-54805876D01*
G37*
G36*
X120915775Y-57476095D02*
X122453096Y-56446948D01*
X123259725Y-57651875D01*
X121722404Y-58681022D01*
X120915775Y-57476095D01*
X120915775Y-57476095D01*
G37*
G36*
X122751550Y-60218344D02*
X124288871Y-59189197D01*
X125095500Y-60394124D01*
X123558179Y-61423271D01*
X122751550Y-60218344D01*
X122751550Y-60218344D01*
G37*
G36*
X124633270Y-57995928D02*
X125505804Y-57411818D01*
X125811766Y-57868860D01*
X124939232Y-58452970D01*
X124633270Y-57995928D01*
X124633270Y-57995928D01*
G37*
G36*
X124188234Y-57331140D02*
X125060768Y-56747030D01*
X125366730Y-57204072D01*
X124494196Y-57788182D01*
X124188234Y-57331140D01*
X124188234Y-57331140D01*
G37*
G36*
X119847056Y-62811091D02*
X121155203Y-61502944D01*
X122180508Y-62528249D01*
X120872361Y-63836396D01*
X119847056Y-62811091D01*
X119847056Y-62811091D01*
G37*
G36*
X117513604Y-60477639D02*
X118821751Y-59169492D01*
X119847056Y-60194797D01*
X118538909Y-61502944D01*
X117513604Y-60477639D01*
X117513604Y-60477639D01*
G37*
G36*
X114119492Y-63871751D02*
X115427639Y-62563604D01*
X116452944Y-63588909D01*
X115144797Y-64897056D01*
X114119492Y-63871751D01*
X114119492Y-63871751D01*
G37*
G36*
X116452944Y-66205203D02*
X117761091Y-64897056D01*
X118786396Y-65922361D01*
X117478249Y-67230508D01*
X116452944Y-66205203D01*
X116452944Y-66205203D01*
G37*
G36*
X117867158Y-63659620D02*
X118609620Y-62917158D01*
X118998528Y-63306066D01*
X118256066Y-64048528D01*
X117867158Y-63659620D01*
X117867158Y-63659620D01*
G37*
G36*
X117301472Y-63093934D02*
X118043934Y-62351472D01*
X118432842Y-62740380D01*
X117690380Y-63482842D01*
X117301472Y-63093934D01*
X117301472Y-63093934D01*
G37*
G36*
X114137953Y-69336098D02*
X115164415Y-67796983D01*
X116370749Y-68601508D01*
X115344287Y-70140623D01*
X114137953Y-69336098D01*
X114137953Y-69336098D01*
G37*
G36*
X111392504Y-67505112D02*
X112418966Y-65965997D01*
X113625300Y-66770522D01*
X112598838Y-68309637D01*
X111392504Y-67505112D01*
X111392504Y-67505112D01*
G37*
G36*
X108729251Y-71498492D02*
X109755713Y-69959377D01*
X110962047Y-70763902D01*
X109935585Y-72303017D01*
X108729251Y-71498492D01*
X108729251Y-71498492D01*
G37*
G36*
X111474700Y-73329478D02*
X112501162Y-71790363D01*
X113707496Y-72594888D01*
X112681034Y-74134003D01*
X111474700Y-73329478D01*
X111474700Y-73329478D01*
G37*
G36*
X112362701Y-70556132D02*
X112945288Y-69682580D01*
X113402863Y-69987744D01*
X112820276Y-70861296D01*
X112362701Y-70556132D01*
X112362701Y-70556132D01*
G37*
G36*
X111697137Y-70112256D02*
X112279724Y-69238704D01*
X112737299Y-69543868D01*
X112154712Y-70417420D01*
X111697137Y-70112256D01*
X111697137Y-70112256D01*
G37*
G36*
X109819046Y-76791260D02*
X110527011Y-75082083D01*
X111866636Y-75636974D01*
X111158671Y-77346151D01*
X109819046Y-76791260D01*
X109819046Y-76791260D01*
G37*
G36*
X106770244Y-75528404D02*
X107478209Y-73819227D01*
X108817834Y-74374118D01*
X108109869Y-76083295D01*
X106770244Y-75528404D01*
X106770244Y-75528404D01*
G37*
G36*
X104933364Y-79963026D02*
X105641329Y-78253849D01*
X106980954Y-78808740D01*
X106272989Y-80517917D01*
X104933364Y-79963026D01*
X104933364Y-79963026D01*
G37*
G36*
X107982166Y-81225882D02*
X108690131Y-79516705D01*
X110029756Y-80071596D01*
X109321791Y-81780773D01*
X107982166Y-81225882D01*
X107982166Y-81225882D01*
G37*
G36*
X108314576Y-78332872D02*
X108716394Y-77362798D01*
X109224528Y-77573274D01*
X108822710Y-78543348D01*
X108314576Y-78332872D01*
X108314576Y-78332872D01*
G37*
G36*
X107575472Y-78026726D02*
X107977290Y-77056652D01*
X108485424Y-77267128D01*
X108083606Y-78237202D01*
X107575472Y-78026726D01*
X107575472Y-78026726D01*
G37*
G36*
X107043879Y-84982758D02*
X107403212Y-83167991D01*
X108825597Y-83449630D01*
X108466264Y-85264397D01*
X107043879Y-84982758D01*
X107043879Y-84982758D01*
G37*
G36*
X103806727Y-84341785D02*
X104166060Y-82527018D01*
X105588445Y-82808657D01*
X105229112Y-84623424D01*
X103806727Y-84341785D01*
X103806727Y-84341785D01*
G37*
G36*
X102874403Y-89050370D02*
X103233736Y-87235603D01*
X104656121Y-87517242D01*
X104296788Y-89332009D01*
X102874403Y-89050370D01*
X102874403Y-89050370D01*
G37*
G36*
X106111555Y-89691343D02*
X106470888Y-87876576D01*
X107893273Y-88158215D01*
X107533940Y-89972982D01*
X106111555Y-89691343D01*
X106111555Y-89691343D01*
G37*
G36*
X105870646Y-86789281D02*
X106074592Y-85759278D01*
X106614118Y-85866107D01*
X106410172Y-86896110D01*
X105870646Y-86789281D01*
X105870646Y-86789281D01*
G37*
G36*
X105085882Y-86633893D02*
X105289828Y-85603890D01*
X105829354Y-85710719D01*
X105625408Y-86740722D01*
X105085882Y-86633893D01*
X105085882Y-86633893D01*
G37*
D19*
X106650000Y-92600000D03*
X103350000Y-92600000D03*
X103350000Y-97400000D03*
X106650000Y-97400000D03*
D20*
X105400000Y-95000000D03*
X104600000Y-95000000D03*
D10*
G36*
X106468048Y-102122344D02*
X106105547Y-100308206D01*
X107527438Y-100024084D01*
X107889939Y-101838222D01*
X106468048Y-102122344D01*
X106468048Y-102122344D01*
G37*
G36*
X103232020Y-102768966D02*
X102869519Y-100954828D01*
X104291410Y-100670706D01*
X104653911Y-102484844D01*
X103232020Y-102768966D01*
X103232020Y-102768966D01*
G37*
G36*
X104172562Y-107475916D02*
X103810061Y-105661778D01*
X105231952Y-105377656D01*
X105594453Y-107191794D01*
X104172562Y-107475916D01*
X104172562Y-107475916D01*
G37*
G36*
X107408590Y-106829294D02*
X107046089Y-105015156D01*
X108467980Y-104731034D01*
X108830481Y-106545172D01*
X107408590Y-106829294D01*
X107408590Y-106829294D01*
G37*
G36*
X106075449Y-104240330D02*
X105869705Y-103210684D01*
X106409043Y-103102914D01*
X106614787Y-104132560D01*
X106075449Y-104240330D01*
X106075449Y-104240330D01*
G37*
G36*
X105290957Y-104397086D02*
X105085213Y-103367440D01*
X105624551Y-103259670D01*
X105830295Y-104289316D01*
X105290957Y-104397086D01*
X105290957Y-104397086D01*
G37*
G36*
X108740131Y-110583295D02*
X108032166Y-108874118D01*
X109371791Y-108319227D01*
X110079756Y-110028404D01*
X108740131Y-110583295D01*
X108740131Y-110583295D01*
G37*
G36*
X105691329Y-111846151D02*
X104983364Y-110136974D01*
X106322989Y-109582083D01*
X107030954Y-111291260D01*
X105691329Y-111846151D01*
X105691329Y-111846151D01*
G37*
G36*
X107528209Y-116280773D02*
X106820244Y-114571596D01*
X108159869Y-114016705D01*
X108867834Y-115725882D01*
X107528209Y-116280773D01*
X107528209Y-116280773D01*
G37*
G36*
X110577011Y-115017917D02*
X109869046Y-113308740D01*
X111208671Y-112753849D01*
X111916636Y-114463026D01*
X110577011Y-115017917D01*
X110577011Y-115017917D01*
G37*
G36*
X108766394Y-112737202D02*
X108364576Y-111767128D01*
X108872710Y-111556652D01*
X109274528Y-112526726D01*
X108766394Y-112737202D01*
X108766394Y-112737202D01*
G37*
G36*
X108027290Y-113043348D02*
X107625472Y-112073274D01*
X108133606Y-111862798D01*
X108535424Y-112832872D01*
X108027290Y-113043348D01*
X108027290Y-113043348D01*
G37*
G36*
X112498125Y-118209725D02*
X111468978Y-116672404D01*
X112673905Y-115865775D01*
X113703052Y-117403096D01*
X112498125Y-118209725D01*
X112498125Y-118209725D01*
G37*
G36*
X109755876Y-120045500D02*
X108726729Y-118508179D01*
X109931656Y-117701550D01*
X110960803Y-119238871D01*
X109755876Y-120045500D01*
X109755876Y-120045500D01*
G37*
G36*
X112426095Y-124034225D02*
X111396948Y-122496904D01*
X112601875Y-121690275D01*
X113631022Y-123227596D01*
X112426095Y-124034225D01*
X112426095Y-124034225D01*
G37*
G36*
X115168344Y-122198450D02*
X114139197Y-120661129D01*
X115344124Y-119854500D01*
X116373271Y-121391821D01*
X115168344Y-122198450D01*
X115168344Y-122198450D01*
G37*
G36*
X112945928Y-120316730D02*
X112361818Y-119444196D01*
X112818860Y-119138234D01*
X113402970Y-120010768D01*
X112945928Y-120316730D01*
X112945928Y-120316730D01*
G37*
G36*
X112281140Y-120761766D02*
X111697030Y-119889232D01*
X112154072Y-119583270D01*
X112738182Y-120455804D01*
X112281140Y-120761766D01*
X112281140Y-120761766D01*
G37*
G36*
X117811091Y-125152944D02*
X116502944Y-123844797D01*
X117528249Y-122819492D01*
X118836396Y-124127639D01*
X117811091Y-125152944D01*
X117811091Y-125152944D01*
G37*
G36*
X115477639Y-127486396D02*
X114169492Y-126178249D01*
X115194797Y-125152944D01*
X116502944Y-126461091D01*
X115477639Y-127486396D01*
X115477639Y-127486396D01*
G37*
G36*
X118871751Y-130880508D02*
X117563604Y-129572361D01*
X118588909Y-128547056D01*
X119897056Y-129855203D01*
X118871751Y-130880508D01*
X118871751Y-130880508D01*
G37*
G36*
X121205203Y-128547056D02*
X119897056Y-127238909D01*
X120922361Y-126213604D01*
X122230508Y-127521751D01*
X121205203Y-128547056D01*
X121205203Y-128547056D01*
G37*
G36*
X118659620Y-127132842D02*
X117917158Y-126390380D01*
X118306066Y-126001472D01*
X119048528Y-126743934D01*
X118659620Y-127132842D01*
X118659620Y-127132842D01*
G37*
G36*
X118093934Y-127698528D02*
X117351472Y-126956066D01*
X117740380Y-126567158D01*
X118482842Y-127309620D01*
X118093934Y-127698528D01*
X118093934Y-127698528D01*
G37*
G36*
X124236098Y-130812047D02*
X122696983Y-129785585D01*
X123501508Y-128579251D01*
X125040623Y-129605713D01*
X124236098Y-130812047D01*
X124236098Y-130812047D01*
G37*
G36*
X122405112Y-133557496D02*
X120865997Y-132531034D01*
X121670522Y-131324700D01*
X123209637Y-132351162D01*
X122405112Y-133557496D01*
X122405112Y-133557496D01*
G37*
G36*
X126398492Y-136220749D02*
X124859377Y-135194287D01*
X125663902Y-133987953D01*
X127203017Y-135014415D01*
X126398492Y-136220749D01*
X126398492Y-136220749D01*
G37*
G36*
X128229478Y-133475300D02*
X126690363Y-132448838D01*
X127494888Y-131242504D01*
X129034003Y-132268966D01*
X128229478Y-133475300D01*
X128229478Y-133475300D01*
G37*
G36*
X125456132Y-132587299D02*
X124582580Y-132004712D01*
X124887744Y-131547137D01*
X125761296Y-132129724D01*
X125456132Y-132587299D01*
X125456132Y-132587299D01*
G37*
G36*
X125012256Y-133252863D02*
X124138704Y-132670276D01*
X124443868Y-132212701D01*
X125317420Y-132795288D01*
X125012256Y-133252863D01*
X125012256Y-133252863D01*
G37*
G36*
X131791260Y-135180954D02*
X130082083Y-134472989D01*
X130636974Y-133133364D01*
X132346151Y-133841329D01*
X131791260Y-135180954D01*
X131791260Y-135180954D01*
G37*
G36*
X130528404Y-138229756D02*
X128819227Y-137521791D01*
X129374118Y-136182166D01*
X131083295Y-136890131D01*
X130528404Y-138229756D01*
X130528404Y-138229756D01*
G37*
G36*
X134963026Y-140066636D02*
X133253849Y-139358671D01*
X133808740Y-138019046D01*
X135517917Y-138727011D01*
X134963026Y-140066636D01*
X134963026Y-140066636D01*
G37*
G36*
X136225882Y-137017834D02*
X134516705Y-136309869D01*
X135071596Y-134970244D01*
X136780773Y-135678209D01*
X136225882Y-137017834D01*
X136225882Y-137017834D01*
G37*
G36*
X133332872Y-136685424D02*
X132362798Y-136283606D01*
X132573274Y-135775472D01*
X133543348Y-136177290D01*
X133332872Y-136685424D01*
X133332872Y-136685424D01*
G37*
G36*
X133026726Y-137424528D02*
X132056652Y-137022710D01*
X132267128Y-136514576D01*
X133237202Y-136916394D01*
X133026726Y-137424528D01*
X133026726Y-137424528D01*
G37*
G36*
X139882758Y-137956121D02*
X138067991Y-137596788D01*
X138349630Y-136174403D01*
X140164397Y-136533736D01*
X139882758Y-137956121D01*
X139882758Y-137956121D01*
G37*
G36*
X139241785Y-141193273D02*
X137427018Y-140833940D01*
X137708657Y-139411555D01*
X139523424Y-139770888D01*
X139241785Y-141193273D01*
X139241785Y-141193273D01*
G37*
G36*
X143950370Y-142125597D02*
X142135603Y-141766264D01*
X142417242Y-140343879D01*
X144232009Y-140703212D01*
X143950370Y-142125597D01*
X143950370Y-142125597D01*
G37*
G36*
X144591343Y-138888445D02*
X142776576Y-138529112D01*
X143058215Y-137106727D01*
X144872982Y-137466060D01*
X144591343Y-138888445D01*
X144591343Y-138888445D01*
G37*
G36*
X141689281Y-139129354D02*
X140659278Y-138925408D01*
X140766107Y-138385882D01*
X141796110Y-138589828D01*
X141689281Y-139129354D01*
X141689281Y-139129354D01*
G37*
G36*
X141533893Y-139914118D02*
X140503890Y-139710172D01*
X140610719Y-139170646D01*
X141640722Y-139374592D01*
X141533893Y-139914118D01*
X141533893Y-139914118D01*
G37*
D21*
X147600000Y-138350000D03*
X147600000Y-141650000D03*
X152400000Y-141650000D03*
X152400000Y-138350000D03*
D22*
X150000000Y-139600000D03*
X150000000Y-140400000D03*
D10*
G36*
X157069130Y-138490483D02*
X155256915Y-138862477D01*
X154965352Y-137442093D01*
X156777567Y-137070099D01*
X157069130Y-138490483D01*
X157069130Y-138490483D01*
G37*
G36*
X157732687Y-141723081D02*
X155920472Y-142095075D01*
X155628909Y-140674691D01*
X157441124Y-140302697D01*
X157732687Y-141723081D01*
X157732687Y-141723081D01*
G37*
G36*
X162434648Y-140757907D02*
X160622433Y-141129901D01*
X160330870Y-139709517D01*
X162143085Y-139337523D01*
X162434648Y-140757907D01*
X162434648Y-140757907D01*
G37*
G36*
X161771091Y-137525309D02*
X159958876Y-137897303D01*
X159667313Y-136476919D01*
X161479528Y-136104925D01*
X161771091Y-137525309D01*
X161771091Y-137525309D01*
G37*
G36*
X159189142Y-138871987D02*
X158160588Y-139083119D01*
X158049996Y-138544353D01*
X159078550Y-138333221D01*
X159189142Y-138871987D01*
X159189142Y-138871987D01*
G37*
G36*
X159350004Y-139655647D02*
X158321450Y-139866779D01*
X158210858Y-139328013D01*
X159239412Y-139116881D01*
X159350004Y-139655647D01*
X159350004Y-139655647D01*
G37*
G36*
X165481800Y-136318862D02*
X163776353Y-137035766D01*
X163214456Y-135699064D01*
X164919903Y-134982160D01*
X165481800Y-136318862D01*
X165481800Y-136318862D01*
G37*
G36*
X166760601Y-139361011D02*
X165055154Y-140077915D01*
X164493257Y-138741213D01*
X166198704Y-138024309D01*
X166760601Y-139361011D01*
X166760601Y-139361011D01*
G37*
G36*
X171185544Y-137500936D02*
X169480097Y-138217840D01*
X168918200Y-136881138D01*
X170623647Y-136164234D01*
X171185544Y-137500936D01*
X171185544Y-137500936D01*
G37*
G36*
X169906743Y-134458787D02*
X168201296Y-135175691D01*
X167639399Y-133838989D01*
X169344846Y-133122085D01*
X169906743Y-134458787D01*
X169906743Y-134458787D01*
G37*
G36*
X167635539Y-136281322D02*
X166667583Y-136688213D01*
X166454449Y-136181188D01*
X167422405Y-135774297D01*
X167635539Y-136281322D01*
X167635539Y-136281322D01*
G37*
G36*
X167945551Y-137018812D02*
X166977595Y-137425703D01*
X166764461Y-136918678D01*
X167732417Y-136511787D01*
X167945551Y-137018812D01*
X167945551Y-137018812D01*
G37*
G36*
X173159917Y-132557950D02*
X171626197Y-133592457D01*
X170815367Y-132390352D01*
X172349087Y-131355845D01*
X173159917Y-132557950D01*
X173159917Y-132557950D01*
G37*
G36*
X175005253Y-135293774D02*
X173471533Y-136328281D01*
X172660703Y-135126176D01*
X174194423Y-134091669D01*
X175005253Y-135293774D01*
X175005253Y-135293774D01*
G37*
G36*
X178984633Y-132609648D02*
X177450913Y-133644155D01*
X176640083Y-132442050D01*
X178173803Y-131407543D01*
X178984633Y-132609648D01*
X178984633Y-132609648D01*
G37*
G36*
X177139297Y-129873824D02*
X175605577Y-130908331D01*
X174794747Y-129706226D01*
X176328467Y-128671719D01*
X177139297Y-129873824D01*
X177139297Y-129873824D01*
G37*
G36*
X175265346Y-132102794D02*
X174394856Y-132689947D01*
X174087300Y-132233976D01*
X174957790Y-131646823D01*
X175265346Y-132102794D01*
X175265346Y-132102794D01*
G37*
G36*
X175712700Y-132766024D02*
X174842210Y-133353177D01*
X174534654Y-132897206D01*
X175405144Y-132310053D01*
X175712700Y-132766024D01*
X175712700Y-132766024D01*
G37*
G36*
X180103625Y-127191871D02*
X178797762Y-128502299D01*
X177770669Y-127478785D01*
X179076532Y-126168357D01*
X180103625Y-127191871D01*
X180103625Y-127191871D01*
G37*
G36*
X182441147Y-129521247D02*
X181135284Y-130831675D01*
X180108191Y-129808161D01*
X181414054Y-128497733D01*
X182441147Y-129521247D01*
X182441147Y-129521247D01*
G37*
G36*
X185829331Y-126121215D02*
X184523468Y-127431643D01*
X183496375Y-126408129D01*
X184802238Y-125097701D01*
X185829331Y-126121215D01*
X185829331Y-126121215D01*
G37*
G36*
X183491809Y-123791839D02*
X182185946Y-125102267D01*
X181158853Y-124078753D01*
X182464716Y-122768325D01*
X183491809Y-123791839D01*
X183491809Y-123791839D01*
G37*
G36*
X182082040Y-126339887D02*
X181340875Y-127083644D01*
X180951288Y-126695415D01*
X181692453Y-125951658D01*
X182082040Y-126339887D01*
X182082040Y-126339887D01*
G37*
G36*
X182648712Y-126904585D02*
X181907547Y-127648342D01*
X181517960Y-127260113D01*
X182259125Y-126516356D01*
X182648712Y-126904585D01*
X182648712Y-126904585D01*
G37*
G36*
X185812047Y-120713902D02*
X184785585Y-122253017D01*
X183579251Y-121448492D01*
X184605713Y-119909377D01*
X185812047Y-120713902D01*
X185812047Y-120713902D01*
G37*
G36*
X188557496Y-122544888D02*
X187531034Y-124084003D01*
X186324700Y-123279478D01*
X187351162Y-121740363D01*
X188557496Y-122544888D01*
X188557496Y-122544888D01*
G37*
G36*
X191220749Y-118551508D02*
X190194287Y-120090623D01*
X188987953Y-119286098D01*
X190014415Y-117746983D01*
X191220749Y-118551508D01*
X191220749Y-118551508D01*
G37*
G36*
X188475300Y-116720522D02*
X187448838Y-118259637D01*
X186242504Y-117455112D01*
X187268966Y-115915997D01*
X188475300Y-116720522D01*
X188475300Y-116720522D01*
G37*
G36*
X187587299Y-119493868D02*
X187004712Y-120367420D01*
X186547137Y-120062256D01*
X187129724Y-119188704D01*
X187587299Y-119493868D01*
X187587299Y-119493868D01*
G37*
G36*
X188252863Y-119937744D02*
X187670276Y-120811296D01*
X187212701Y-120506132D01*
X187795288Y-119632580D01*
X188252863Y-119937744D01*
X188252863Y-119937744D01*
G37*
G36*
X190179195Y-113206262D02*
X189468248Y-114914201D01*
X188129593Y-114356972D01*
X188840540Y-112649033D01*
X190179195Y-113206262D01*
X190179195Y-113206262D01*
G37*
G36*
X193225789Y-114474437D02*
X192514842Y-116182376D01*
X191176187Y-115625147D01*
X191887134Y-113917208D01*
X193225789Y-114474437D01*
X193225789Y-114474437D01*
G37*
G36*
X195070407Y-110043028D02*
X194359460Y-111750967D01*
X193020805Y-111193738D01*
X193731752Y-109485799D01*
X195070407Y-110043028D01*
X195070407Y-110043028D01*
G37*
G36*
X192023813Y-108774853D02*
X191312866Y-110482792D01*
X189974211Y-109925563D01*
X190685158Y-108217624D01*
X192023813Y-108774853D01*
X192023813Y-108774853D01*
G37*
G36*
X191686354Y-111667278D02*
X191282844Y-112636649D01*
X190775078Y-112425286D01*
X191178588Y-111455915D01*
X191686354Y-111667278D01*
X191686354Y-111667278D01*
G37*
G36*
X192424922Y-111974714D02*
X192021412Y-112944085D01*
X191513646Y-112732722D01*
X191917156Y-111763351D01*
X192424922Y-111974714D01*
X192424922Y-111974714D01*
G37*
G36*
X192903911Y-105165156D02*
X192541410Y-106979294D01*
X191119519Y-106695172D01*
X191482020Y-104881034D01*
X192903911Y-105165156D01*
X192903911Y-105165156D01*
G37*
G36*
X196139939Y-105811778D02*
X195777438Y-107625916D01*
X194355547Y-107341794D01*
X194718048Y-105527656D01*
X196139939Y-105811778D01*
X196139939Y-105811778D01*
G37*
G36*
X197080481Y-101104828D02*
X196717980Y-102918966D01*
X195296089Y-102634844D01*
X195658590Y-100820706D01*
X197080481Y-101104828D01*
X197080481Y-101104828D01*
G37*
G36*
X193844453Y-100458206D02*
X193481952Y-102272344D01*
X192060061Y-101988222D01*
X192422562Y-100174084D01*
X193844453Y-100458206D01*
X193844453Y-100458206D01*
G37*
G36*
X194080295Y-103360684D02*
X193874551Y-104390330D01*
X193335213Y-104282560D01*
X193540957Y-103252914D01*
X194080295Y-103360684D01*
X194080295Y-103360684D01*
G37*
G36*
X194864787Y-103517440D02*
X194659043Y-104547086D01*
X194119705Y-104439316D01*
X194325449Y-103409670D01*
X194864787Y-103517440D01*
X194864787Y-103517440D01*
G37*
D19*
X193350000Y-97400000D03*
X196650000Y-97400000D03*
X196650000Y-92600000D03*
X193350000Y-92600000D03*
D20*
X194600000Y-95000000D03*
X195400000Y-95000000D03*
D10*
G36*
X193479112Y-87826576D02*
X193838445Y-89641343D01*
X192416060Y-89922982D01*
X192056727Y-88108215D01*
X193479112Y-87826576D01*
X193479112Y-87826576D01*
G37*
G36*
X196716264Y-87185603D02*
X197075597Y-89000370D01*
X195653212Y-89282009D01*
X195293879Y-87467242D01*
X196716264Y-87185603D01*
X196716264Y-87185603D01*
G37*
G36*
X195783940Y-82477018D02*
X196143273Y-84291785D01*
X194720888Y-84573424D01*
X194361555Y-82758657D01*
X195783940Y-82477018D01*
X195783940Y-82477018D01*
G37*
G36*
X192546788Y-83117991D02*
X192906121Y-84932758D01*
X191483736Y-85214397D01*
X191124403Y-83399630D01*
X192546788Y-83117991D01*
X192546788Y-83117991D01*
G37*
G36*
X193875408Y-85709278D02*
X194079354Y-86739281D01*
X193539828Y-86846110D01*
X193335882Y-85816107D01*
X193875408Y-85709278D01*
X193875408Y-85709278D01*
G37*
G36*
X194660172Y-85553890D02*
X194864118Y-86583893D01*
X194324592Y-86690722D01*
X194120646Y-85660719D01*
X194660172Y-85553890D01*
X194660172Y-85553890D01*
G37*
G36*
X191312866Y-79517208D02*
X192023813Y-81225147D01*
X190685158Y-81782376D01*
X189974211Y-80074437D01*
X191312866Y-79517208D01*
X191312866Y-79517208D01*
G37*
G36*
X194359460Y-78249033D02*
X195070407Y-79956972D01*
X193731752Y-80514201D01*
X193020805Y-78806262D01*
X194359460Y-78249033D01*
X194359460Y-78249033D01*
G37*
G36*
X192514842Y-73817624D02*
X193225789Y-75525563D01*
X191887134Y-76082792D01*
X191176187Y-74374853D01*
X192514842Y-73817624D01*
X192514842Y-73817624D01*
G37*
G36*
X189468248Y-75085799D02*
X190179195Y-76793738D01*
X188840540Y-77350967D01*
X188129593Y-75643028D01*
X189468248Y-75085799D01*
X189468248Y-75085799D01*
G37*
G36*
X191282844Y-77363351D02*
X191686354Y-78332722D01*
X191178588Y-78544085D01*
X190775078Y-77574714D01*
X191282844Y-77363351D01*
X191282844Y-77363351D01*
G37*
G36*
X192021412Y-77055915D02*
X192424922Y-78025286D01*
X191917156Y-78236649D01*
X191513646Y-77267278D01*
X192021412Y-77055915D01*
X192021412Y-77055915D01*
G37*
G36*
X187451875Y-71740275D02*
X188481022Y-73277596D01*
X187276095Y-74084225D01*
X186246948Y-72546904D01*
X187451875Y-71740275D01*
X187451875Y-71740275D01*
G37*
G36*
X190194124Y-69904500D02*
X191223271Y-71441821D01*
X190018344Y-72248450D01*
X188989197Y-70711129D01*
X190194124Y-69904500D01*
X190194124Y-69904500D01*
G37*
G36*
X187523905Y-65915775D02*
X188553052Y-67453096D01*
X187348125Y-68259725D01*
X186318978Y-66722404D01*
X187523905Y-65915775D01*
X187523905Y-65915775D01*
G37*
G36*
X184781656Y-67751550D02*
X185810803Y-69288871D01*
X184605876Y-70095500D01*
X183576729Y-68558179D01*
X184781656Y-67751550D01*
X184781656Y-67751550D01*
G37*
G36*
X187004072Y-69633270D02*
X187588182Y-70505804D01*
X187131140Y-70811766D01*
X186547030Y-69939232D01*
X187004072Y-69633270D01*
X187004072Y-69633270D01*
G37*
G36*
X187668860Y-69188234D02*
X188252970Y-70060768D01*
X187795928Y-70366730D01*
X187211818Y-69494196D01*
X187668860Y-69188234D01*
X187668860Y-69188234D01*
G37*
G36*
X182188909Y-64897056D02*
X183497056Y-66205203D01*
X182471751Y-67230508D01*
X181163604Y-65922361D01*
X182188909Y-64897056D01*
X182188909Y-64897056D01*
G37*
G36*
X184522361Y-62563604D02*
X185830508Y-63871751D01*
X184805203Y-64897056D01*
X183497056Y-63588909D01*
X184522361Y-62563604D01*
X184522361Y-62563604D01*
G37*
G36*
X181128249Y-59169492D02*
X182436396Y-60477639D01*
X181411091Y-61502944D01*
X180102944Y-60194797D01*
X181128249Y-59169492D01*
X181128249Y-59169492D01*
G37*
G36*
X178794797Y-61502944D02*
X180102944Y-62811091D01*
X179077639Y-63836396D01*
X177769492Y-62528249D01*
X178794797Y-61502944D01*
X178794797Y-61502944D01*
G37*
G36*
X181340380Y-62917158D02*
X182082842Y-63659620D01*
X181693934Y-64048528D01*
X180951472Y-63306066D01*
X181340380Y-62917158D01*
X181340380Y-62917158D01*
G37*
G36*
X181906066Y-62351472D02*
X182648528Y-63093934D01*
X182259620Y-63482842D01*
X181517158Y-62740380D01*
X181906066Y-62351472D01*
X181906066Y-62351472D01*
G37*
G36*
X175711129Y-59189197D02*
X177248450Y-60218344D01*
X176441821Y-61423271D01*
X174904500Y-60394124D01*
X175711129Y-59189197D01*
X175711129Y-59189197D01*
G37*
G36*
X177546904Y-56446948D02*
X179084225Y-57476095D01*
X178277596Y-58681022D01*
X176740275Y-57651875D01*
X177546904Y-56446948D01*
X177546904Y-56446948D01*
G37*
G36*
X173558179Y-53776729D02*
X175095500Y-54805876D01*
X174288871Y-56010803D01*
X172751550Y-54981656D01*
X173558179Y-53776729D01*
X173558179Y-53776729D01*
G37*
G36*
X171722404Y-56518978D02*
X173259725Y-57548125D01*
X172453096Y-58753052D01*
X170915775Y-57723905D01*
X171722404Y-56518978D01*
X171722404Y-56518978D01*
G37*
G36*
X174494196Y-57411818D02*
X175366730Y-57995928D01*
X175060768Y-58452970D01*
X174188234Y-57868860D01*
X174494196Y-57411818D01*
X174494196Y-57411818D01*
G37*
G36*
X174939232Y-56747030D02*
X175811766Y-57331140D01*
X175505804Y-57788182D01*
X174633270Y-57204072D01*
X174939232Y-56747030D01*
X174939232Y-56747030D01*
G37*
G36*
X168208740Y-54819046D02*
X169917917Y-55527011D01*
X169363026Y-56866636D01*
X167653849Y-56158671D01*
X168208740Y-54819046D01*
X168208740Y-54819046D01*
G37*
G36*
X169471596Y-51770244D02*
X171180773Y-52478209D01*
X170625882Y-53817834D01*
X168916705Y-53109869D01*
X169471596Y-51770244D01*
X169471596Y-51770244D01*
G37*
G36*
X165036974Y-49933364D02*
X166746151Y-50641329D01*
X166191260Y-51980954D01*
X164482083Y-51272989D01*
X165036974Y-49933364D01*
X165036974Y-49933364D01*
G37*
G36*
X163774118Y-52982166D02*
X165483295Y-53690131D01*
X164928404Y-55029756D01*
X163219227Y-54321791D01*
X163774118Y-52982166D01*
X163774118Y-52982166D01*
G37*
G36*
X166667128Y-53314576D02*
X167637202Y-53716394D01*
X167426726Y-54224528D01*
X166456652Y-53822710D01*
X166667128Y-53314576D01*
X166667128Y-53314576D01*
G37*
G36*
X166973274Y-52575472D02*
X167943348Y-52977290D01*
X167732872Y-53485424D01*
X166762798Y-53083606D01*
X166973274Y-52575472D01*
X166973274Y-52575472D01*
G37*
G36*
X160065156Y-52096089D02*
X161879294Y-52458590D01*
X161595172Y-53880481D01*
X159781034Y-53517980D01*
X160065156Y-52096089D01*
X160065156Y-52096089D01*
G37*
G36*
X160711778Y-48860061D02*
X162525916Y-49222562D01*
X162241794Y-50644453D01*
X160427656Y-50281952D01*
X160711778Y-48860061D01*
X160711778Y-48860061D01*
G37*
G36*
X156004828Y-47919519D02*
X157818966Y-48282020D01*
X157534844Y-49703911D01*
X155720706Y-49341410D01*
X156004828Y-47919519D01*
X156004828Y-47919519D01*
G37*
G36*
X155358206Y-51155547D02*
X157172344Y-51518048D01*
X156888222Y-52939939D01*
X155074084Y-52577438D01*
X155358206Y-51155547D01*
X155358206Y-51155547D01*
G37*
G36*
X158260684Y-50919705D02*
X159290330Y-51125449D01*
X159182560Y-51664787D01*
X158152914Y-51459043D01*
X158260684Y-50919705D01*
X158260684Y-50919705D01*
G37*
G36*
X158417440Y-50135213D02*
X159447086Y-50340957D01*
X159339316Y-50880295D01*
X158309670Y-50674551D01*
X158417440Y-50135213D01*
X158417440Y-50135213D01*
G37*
D21*
X152400000Y-51650000D03*
X152400000Y-48350000D03*
X147600000Y-48350000D03*
X147600000Y-51650000D03*
D22*
X150000000Y-50400000D03*
X150000000Y-49600000D03*
D23*
X143650000Y-59330000D03*
D24*
X146190000Y-59330000D03*
X148730000Y-59330000D03*
X151270000Y-59330000D03*
X153810000Y-59330000D03*
X156350000Y-59330000D03*
M02*
