M48
METRIC,TZ
T1C0.305
T2C0.350
T3C0.500
T4C0.800
T5C1.016
%
G90
G05
T1
X102.6Y-99.65
X102.7Y-90.5
X104.4Y-81.1
X104.6Y-108.8
X105.Y-97.5
X105.4Y-88.5
X106.3Y-106.1
X107.5Y-80.1
X108.Y-72.5
X108.1Y-117.5
X109.4Y-114.5
X110.Y-97.65
X110.05Y-92.35
X110.2Y-89.85
X110.25Y-100.2
X111.1Y-72.1
X111.25Y-84.65
X111.3Y-105.4
X112.Y-107.9
X112.05Y-82.15
X113.1Y-125.1
X113.2Y-64.9
X113.9Y-122.
X114.05Y-77.25
X114.1Y-112.8
X115.25Y-114.95
X115.3Y-75.05
X116.5Y-64.9
X118.2Y-70.6
X118.2Y-119.4
X119.8Y-121.45
X119.8Y-131.8
X119.85Y-68.6
X119.9Y-58.
X119.9Y-128.6
X123.Y-59.
X123.55Y-64.8
X123.6Y-125.2
X125.5Y-63.35
X125.55Y-126.7
X127.1Y-133.8
X127.4Y-53.
X127.6Y-136.8
X129.85Y-60.3
X129.95Y-129.75
X130.5Y-54.4
X132.2Y-130.95
X132.25Y-59.1
X135.1Y-137.6
X135.5Y-63.4
X136.2Y-49.4
X136.2Y-140.5
X137.15Y-56.95
X137.15Y-133.
X138.9Y-51.4
X139.55Y-56.25
X139.55Y-133.7
X140.04Y-62.396
X142.658Y-93.052
X143.08Y-88.78
X143.6Y-139.8
X144.75Y-134.7
X144.8Y-55.15
X145.3Y-47.5
X145.3Y-142.2
X146.18Y-55.8
X146.27Y-94.82
X147.251Y-91.089
X147.3Y-55.
X147.35Y-135.
X147.53Y-92.84
X147.6Y-49.97
X147.8Y-59.53
X148.77Y-89.01
X149.93Y-90.26
X149.99Y-62.9
X150.Y-95.42
X150.01Y-65.5
X152.5Y-140.2
X152.65Y-55.
X152.65Y-135.
X153.01Y-89.81
X154.09Y-88.88
X154.6Y-47.7
X154.7Y-142.4
X155.17Y-89.29
X155.2Y-55.3
X155.2Y-134.75
X155.99Y-95.06
X156.3Y-50.5
X160.4Y-56.3
X160.4Y-133.65
X161.1Y-138.7
X161.33Y-93.53
X162.329Y-91.177
X162.8Y-56.95
X162.85Y-133.
X163.8Y-49.6
X163.8Y-140.6
X164.06Y-93.27
X164.3Y-52.5
X167.75Y-59.05
X167.75Y-130.85
X169.5Y-135.8
X169.85Y-129.8
X170.1Y-60.25
X172.3Y-53.2
X172.4Y-137.1
X172.6Y-56.1
X174.25Y-126.7
X174.5Y-63.25
X176.4Y-64.85
X176.45Y-125.2
X177.Y-131.2
X179.9Y-61.7
X180.1Y-58.4
X180.1Y-131.8
X180.15Y-121.35
X180.2Y-68.55
X181.75Y-70.55
X181.85Y-119.4
X183.6Y-125.
X184.7Y-74.95
X184.75Y-115.
X185.9Y-77.25
X185.95Y-112.75
X186.Y-68.2
X186.7Y-125.
X186.8Y-64.9
X187.95Y-107.85
X188.Y-82.15
X188.65Y-105.45
X188.7Y-117.9
X188.75Y-84.6
X189.7Y-100.25
X189.8Y-89.8
X190.Y-92.35
X190.Y-97.65
X190.5Y-75.7
X191.9Y-117.4
X192.Y-72.6
X192.5Y-109.9
X193.5Y-83.9
X194.5Y-101.5
X194.9Y-92.7
X195.4Y-81.3
X195.6Y-108.9
X197.2Y-90.4
X197.3Y-99.7
T2
X150.885Y-90.18
X150.885Y-92.72
X152.155Y-90.18
X152.155Y-92.72
T3
X130.288Y-98.105
X130.44Y-98.89
X130.593Y-99.675
X135.422Y-96.26
X135.794Y-96.969
X136.166Y-97.677
X164.074Y-97.612
X164.448Y-96.905
X164.822Y-96.198
X169.456Y-99.477
X169.602Y-98.69
X169.747Y-97.904
T4
X137.023Y-92.545
X138.137Y-94.827
X139.863Y-92.573
X140.977Y-94.855
X159.79Y-93.714
X160.904Y-91.431
X161.516Y-95.969
X162.63Y-93.686
T5
X143.78Y-96.64
X146.21Y-130.13
X146.32Y-96.64
X148.75Y-130.13
X148.86Y-96.64
X151.29Y-130.13
X151.4Y-96.64
X153.83Y-130.13
X153.94Y-96.64
X156.48Y-96.64
T0
M30
