%FSLAX34Y34*%
G04 Gerber Fmt 3.4, Leading zero omitted, Abs format*
G04 (created by PCBNEW (2014-06-29 BZR 4957)-product) date Tue 15 Jul 2014 10:24:41 PM CEST*
%MOIN*%
G01*
G70*
G90*
G04 APERTURE LIST*
%ADD10C,0.003937*%
%ADD11C,0.007874*%
%ADD12C,0.008000*%
%ADD13C,0.007382*%
%ADD14C,0.055118*%
%ADD15C,0.078740*%
%ADD16C,0.033465*%
%ADD17R,0.033465X0.033465*%
%ADD18R,0.064961X0.064961*%
%ADD19C,0.064961*%
%ADD20R,0.059000X0.051100*%
%ADD21R,0.051100X0.059000*%
%ADD22R,0.055118X0.070866*%
%ADD23R,0.019685X0.039370*%
%ADD24R,0.070866X0.055118*%
%ADD25R,0.039370X0.019685*%
G04 APERTURE END LIST*
G54D10*
G54D11*
X58238Y-36447D02*
X58238Y-36260D01*
X58351Y-36485D02*
X57957Y-36353D01*
X58351Y-36222D01*
X57957Y-36147D02*
X58351Y-36016D01*
X57957Y-35885D01*
X58351Y-35528D02*
X58163Y-35660D01*
X58351Y-35753D02*
X57957Y-35753D01*
X57957Y-35603D01*
X57976Y-35566D01*
X57995Y-35547D01*
X58032Y-35528D01*
X58088Y-35528D01*
X58126Y-35547D01*
X58145Y-35566D01*
X58163Y-35603D01*
X58163Y-35753D01*
X58981Y-36372D02*
X58587Y-36372D01*
X58962Y-36203D02*
X58981Y-36147D01*
X58981Y-36053D01*
X58962Y-36016D01*
X58943Y-35997D01*
X58906Y-35978D01*
X58868Y-35978D01*
X58831Y-35997D01*
X58812Y-36016D01*
X58793Y-36053D01*
X58775Y-36128D01*
X58756Y-36166D01*
X58737Y-36185D01*
X58700Y-36203D01*
X58662Y-36203D01*
X58625Y-36185D01*
X58606Y-36166D01*
X58587Y-36128D01*
X58587Y-36035D01*
X58606Y-35978D01*
X58981Y-35810D02*
X58587Y-35810D01*
X58587Y-35660D01*
X58606Y-35622D01*
X58625Y-35603D01*
X58662Y-35585D01*
X58718Y-35585D01*
X58756Y-35603D01*
X58775Y-35622D01*
X58793Y-35660D01*
X58793Y-35810D01*
X58543Y-28024D02*
X58768Y-28024D01*
X58655Y-28418D02*
X58655Y-28024D01*
X58974Y-28024D02*
X59049Y-28024D01*
X59087Y-28043D01*
X59124Y-28080D01*
X59143Y-28155D01*
X59143Y-28287D01*
X59124Y-28362D01*
X59087Y-28399D01*
X59049Y-28418D01*
X58974Y-28418D01*
X58937Y-28399D01*
X58899Y-28362D01*
X58880Y-28287D01*
X58880Y-28155D01*
X58899Y-28080D01*
X58937Y-28043D01*
X58974Y-28024D01*
X59312Y-28418D02*
X59312Y-28024D01*
X59462Y-28024D01*
X59499Y-28043D01*
X59518Y-28062D01*
X59537Y-28099D01*
X59537Y-28155D01*
X59518Y-28193D01*
X59499Y-28212D01*
X59462Y-28230D01*
X59312Y-28230D01*
X71850Y-37401D02*
G75*
G03X71850Y-37401I-12795J0D01*
G74*
G01*
X53722Y-35823D02*
X53191Y-36082D01*
X55031Y-35184D02*
X54500Y-35443D01*
X53191Y-36082D02*
X54417Y-38594D01*
X54417Y-38594D02*
X56257Y-37697D01*
X54564Y-35574D02*
X54500Y-35443D01*
X53786Y-35954D02*
X53722Y-35823D01*
X54530Y-38377D02*
X53432Y-36126D01*
X53432Y-36126D02*
X54918Y-35402D01*
X54918Y-35402D02*
X56016Y-37652D01*
X56016Y-37652D02*
X54530Y-38377D01*
X56257Y-37697D02*
X55031Y-35184D01*
X63691Y-35443D02*
X63161Y-35184D01*
X65001Y-36082D02*
X64470Y-35823D01*
X63161Y-35184D02*
X61935Y-37697D01*
X61935Y-37697D02*
X63775Y-38594D01*
X64406Y-35954D02*
X64470Y-35823D01*
X63628Y-35574D02*
X63691Y-35443D01*
X62176Y-37652D02*
X63274Y-35402D01*
X63274Y-35402D02*
X64760Y-36126D01*
X64760Y-36126D02*
X63662Y-38377D01*
X63662Y-38377D02*
X62176Y-37652D01*
X63775Y-38594D02*
X65001Y-36082D01*
X55296Y-22508D02*
X56841Y-22199D01*
X55296Y-22508D02*
X55127Y-21658D01*
X55127Y-21658D02*
X56671Y-21350D01*
X56671Y-21350D02*
X56841Y-22199D01*
X52469Y-23536D02*
X53924Y-22933D01*
X52469Y-23536D02*
X52138Y-22735D01*
X52138Y-22735D02*
X53593Y-22133D01*
X53593Y-22133D02*
X53924Y-22933D01*
X49862Y-25128D02*
X51170Y-24252D01*
X49862Y-25128D02*
X49380Y-24408D01*
X49380Y-24408D02*
X50688Y-23532D01*
X50688Y-23532D02*
X51170Y-24252D01*
X47662Y-27122D02*
X48776Y-26009D01*
X47662Y-27122D02*
X47050Y-26510D01*
X47050Y-26510D02*
X48163Y-25396D01*
X48163Y-25396D02*
X48776Y-26009D01*
X45887Y-29556D02*
X46761Y-28246D01*
X45887Y-29556D02*
X45167Y-29076D01*
X45167Y-29076D02*
X46041Y-27766D01*
X46041Y-27766D02*
X46761Y-28246D01*
X44606Y-32271D02*
X45209Y-30816D01*
X44606Y-32271D02*
X43806Y-31939D01*
X43806Y-31939D02*
X44409Y-30484D01*
X44409Y-30484D02*
X45209Y-30816D01*
X43874Y-35206D02*
X44180Y-33662D01*
X43874Y-35206D02*
X43024Y-35038D01*
X43024Y-35038D02*
X43330Y-33493D01*
X43330Y-33493D02*
X44180Y-33662D01*
X43740Y-38188D02*
X43740Y-36614D01*
X43740Y-38188D02*
X42874Y-38188D01*
X42874Y-38188D02*
X42874Y-36614D01*
X42874Y-36614D02*
X43740Y-36614D01*
X44181Y-41159D02*
X43872Y-39615D01*
X44181Y-41159D02*
X43331Y-41329D01*
X43331Y-41329D02*
X43023Y-39785D01*
X43023Y-39785D02*
X43872Y-39615D01*
X45209Y-44006D02*
X44606Y-42551D01*
X45209Y-44006D02*
X44409Y-44338D01*
X44409Y-44338D02*
X43806Y-42883D01*
X43806Y-42883D02*
X44606Y-42551D01*
X46742Y-46555D02*
X45866Y-45246D01*
X46742Y-46555D02*
X46023Y-47036D01*
X46023Y-47036D02*
X45146Y-45728D01*
X45146Y-45728D02*
X45866Y-45246D01*
X48776Y-48793D02*
X47662Y-47680D01*
X48776Y-48793D02*
X48163Y-49406D01*
X48163Y-49406D02*
X47050Y-48292D01*
X47050Y-48292D02*
X47662Y-47680D01*
X51190Y-50568D02*
X49880Y-49694D01*
X51190Y-50568D02*
X50710Y-51289D01*
X50710Y-51289D02*
X49399Y-50415D01*
X49399Y-50415D02*
X49880Y-49694D01*
X53924Y-51850D02*
X52469Y-51247D01*
X53924Y-51850D02*
X53593Y-52650D01*
X53593Y-52650D02*
X52138Y-52047D01*
X52138Y-52047D02*
X52469Y-51247D01*
X56821Y-52562D02*
X55276Y-52256D01*
X56821Y-52562D02*
X56652Y-53412D01*
X56652Y-53412D02*
X55108Y-53106D01*
X55108Y-53106D02*
X55276Y-52256D01*
X59842Y-52716D02*
X58267Y-52716D01*
X59842Y-52716D02*
X59842Y-53582D01*
X59842Y-53582D02*
X58267Y-53582D01*
X58267Y-53582D02*
X58267Y-52716D01*
X62810Y-52252D02*
X61267Y-52568D01*
X62810Y-52252D02*
X62984Y-53100D01*
X62984Y-53100D02*
X61441Y-53417D01*
X61441Y-53417D02*
X61267Y-52568D01*
X65636Y-51224D02*
X64185Y-51835D01*
X65636Y-51224D02*
X65972Y-52023D01*
X65972Y-52023D02*
X64520Y-52633D01*
X64520Y-52633D02*
X64185Y-51835D01*
X68166Y-49712D02*
X66860Y-50593D01*
X68166Y-49712D02*
X68650Y-50430D01*
X68650Y-50430D02*
X67345Y-51311D01*
X67345Y-51311D02*
X66860Y-50593D01*
X70447Y-47680D02*
X69333Y-48793D01*
X70447Y-47680D02*
X71059Y-48292D01*
X71059Y-48292D02*
X69946Y-49406D01*
X69946Y-49406D02*
X69333Y-48793D01*
X72243Y-45246D02*
X71367Y-46555D01*
X72243Y-45246D02*
X72963Y-45728D01*
X72963Y-45728D02*
X72087Y-47036D01*
X72087Y-47036D02*
X71367Y-46555D01*
X73505Y-42531D02*
X72899Y-43985D01*
X73505Y-42531D02*
X74304Y-42864D01*
X74304Y-42864D02*
X73699Y-44318D01*
X73699Y-44318D02*
X72899Y-43985D01*
X74217Y-39635D02*
X73909Y-41179D01*
X74217Y-39635D02*
X75067Y-39804D01*
X75067Y-39804D02*
X74758Y-41349D01*
X74758Y-41349D02*
X73909Y-41179D01*
X74370Y-36614D02*
X74370Y-38188D01*
X74370Y-36614D02*
X75236Y-36614D01*
X75236Y-36614D02*
X75236Y-38188D01*
X75236Y-38188D02*
X74370Y-38188D01*
X73930Y-33642D02*
X74235Y-35187D01*
X73930Y-33642D02*
X74779Y-33474D01*
X74779Y-33474D02*
X75085Y-35018D01*
X75085Y-35018D02*
X74235Y-35187D01*
X72899Y-30817D02*
X73505Y-32271D01*
X72899Y-30817D02*
X73699Y-30484D01*
X73699Y-30484D02*
X74304Y-31938D01*
X74304Y-31938D02*
X73505Y-32271D01*
X71347Y-28228D02*
X72223Y-29536D01*
X71347Y-28228D02*
X72067Y-27746D01*
X72067Y-27746D02*
X72943Y-29055D01*
X72943Y-29055D02*
X72223Y-29536D01*
X69333Y-26009D02*
X70447Y-27122D01*
X69333Y-26009D02*
X69946Y-25396D01*
X69946Y-25396D02*
X71059Y-26510D01*
X71059Y-26510D02*
X70447Y-27122D01*
X66939Y-24252D02*
X68248Y-25128D01*
X66939Y-24252D02*
X67421Y-23532D01*
X67421Y-23532D02*
X68729Y-24408D01*
X68729Y-24408D02*
X68248Y-25128D01*
X64185Y-22933D02*
X65640Y-23536D01*
X64185Y-22933D02*
X64517Y-22133D01*
X64517Y-22133D02*
X65971Y-22735D01*
X65971Y-22735D02*
X65640Y-23536D01*
X61268Y-22238D02*
X62813Y-22547D01*
X61268Y-22238D02*
X61438Y-21389D01*
X61438Y-21389D02*
X62982Y-21698D01*
X62982Y-21698D02*
X62813Y-22547D01*
X58267Y-22086D02*
X59842Y-22086D01*
X58267Y-22086D02*
X58267Y-21220D01*
X58267Y-21220D02*
X59842Y-21220D01*
X59842Y-21220D02*
X59842Y-22086D01*
X55938Y-19576D02*
X56093Y-20348D01*
X56093Y-20348D02*
X55320Y-20502D01*
X55320Y-20502D02*
X55205Y-19923D01*
X55205Y-19923D02*
X55359Y-19691D01*
X55359Y-19691D02*
X55938Y-19576D01*
G54D12*
X55823Y-18997D02*
X55050Y-19151D01*
X54626Y-20039D02*
X54703Y-20425D01*
X56208Y-20927D02*
X55436Y-21081D01*
X56556Y-19653D02*
X56633Y-20039D01*
G54D11*
X52496Y-20509D02*
X52797Y-21236D01*
X52797Y-21236D02*
X52070Y-21538D01*
X52070Y-21538D02*
X51844Y-20992D01*
X51844Y-20992D02*
X51950Y-20735D01*
X51950Y-20735D02*
X52496Y-20509D01*
G54D12*
X52270Y-19963D02*
X51543Y-20264D01*
X51298Y-21218D02*
X51449Y-21582D01*
X53023Y-21782D02*
X52296Y-22083D01*
X53117Y-20465D02*
X53268Y-20828D01*
G54D11*
X49320Y-22130D02*
X49758Y-22785D01*
X49758Y-22785D02*
X49104Y-23223D01*
X49104Y-23223D02*
X48775Y-22732D01*
X48775Y-22732D02*
X48830Y-22459D01*
X48830Y-22459D02*
X49320Y-22130D01*
G54D12*
X48992Y-21640D02*
X48337Y-22078D01*
X48285Y-23061D02*
X48504Y-23388D01*
X50087Y-23276D02*
X49432Y-23714D01*
X49920Y-21966D02*
X50140Y-22293D01*
G54D11*
X46515Y-24325D02*
X47072Y-24881D01*
X47072Y-24881D02*
X46515Y-25438D01*
X46515Y-25438D02*
X46098Y-25021D01*
X46098Y-25021D02*
X46098Y-24742D01*
X46098Y-24742D02*
X46515Y-24325D01*
G54D12*
X46098Y-23907D02*
X45541Y-24464D01*
X45680Y-25438D02*
X45958Y-25717D01*
X47490Y-25299D02*
X46933Y-25856D01*
X47072Y-24046D02*
X47350Y-24325D01*
G54D11*
X44201Y-27032D02*
X44857Y-27469D01*
X44857Y-27469D02*
X44420Y-28124D01*
X44420Y-28124D02*
X43928Y-27797D01*
X43928Y-27797D02*
X43874Y-27524D01*
X43874Y-27524D02*
X44201Y-27032D01*
G54D12*
X43710Y-26705D02*
X43273Y-27360D01*
X43601Y-28288D02*
X43928Y-28506D01*
X45348Y-27797D02*
X44911Y-28452D01*
X44693Y-26650D02*
X45020Y-26869D01*
G54D11*
X42464Y-30115D02*
X43191Y-30416D01*
X43191Y-30416D02*
X42890Y-31144D01*
X42890Y-31144D02*
X42344Y-30918D01*
X42344Y-30918D02*
X42238Y-30661D01*
X42238Y-30661D02*
X42464Y-30115D01*
G54D12*
X41918Y-29889D02*
X41617Y-30616D01*
X42118Y-31463D02*
X42482Y-31614D01*
X43737Y-30642D02*
X43435Y-31370D01*
X42871Y-29645D02*
X43235Y-29795D01*
G54D11*
X41363Y-33494D02*
X42135Y-33646D01*
X42135Y-33646D02*
X41982Y-34419D01*
X41982Y-34419D02*
X41403Y-34304D01*
X41403Y-34304D02*
X41248Y-34073D01*
X41248Y-34073D02*
X41363Y-33494D01*
G54D12*
X40784Y-33379D02*
X40631Y-34151D01*
X41288Y-34883D02*
X41675Y-34960D01*
X42715Y-33761D02*
X42562Y-34534D01*
X41671Y-32952D02*
X42057Y-33029D01*
G54D11*
X40944Y-37007D02*
X41732Y-37007D01*
X41732Y-37007D02*
X41732Y-37795D01*
X41732Y-37795D02*
X41141Y-37795D01*
X41141Y-37795D02*
X40944Y-37598D01*
X40944Y-37598D02*
X40944Y-37007D01*
G54D12*
X40354Y-37007D02*
X40354Y-37795D01*
X41141Y-38385D02*
X41535Y-38385D01*
X42322Y-37007D02*
X42322Y-37795D01*
X41141Y-36417D02*
X41535Y-36417D01*
G54D11*
X41210Y-40537D02*
X41982Y-40383D01*
X41982Y-40383D02*
X42136Y-41155D01*
X42136Y-41155D02*
X41557Y-41271D01*
X41557Y-41271D02*
X41325Y-41116D01*
X41325Y-41116D02*
X41210Y-40537D01*
G54D12*
X40630Y-40653D02*
X40785Y-41425D01*
X41673Y-41850D02*
X42059Y-41773D01*
X42561Y-40267D02*
X42715Y-41039D01*
X41287Y-39919D02*
X41673Y-39842D01*
G54D11*
X42182Y-43999D02*
X42909Y-43698D01*
X42909Y-43698D02*
X43211Y-44425D01*
X43211Y-44425D02*
X42665Y-44651D01*
X42665Y-44651D02*
X42408Y-44545D01*
X42408Y-44545D02*
X42182Y-43999D01*
G54D12*
X41636Y-44225D02*
X41938Y-44952D01*
X42891Y-45197D02*
X43255Y-45046D01*
X43455Y-43472D02*
X43756Y-44199D01*
X42138Y-43378D02*
X42502Y-43227D01*
G54D11*
X43764Y-47116D02*
X44419Y-46678D01*
X44419Y-46678D02*
X44857Y-47332D01*
X44857Y-47332D02*
X44366Y-47661D01*
X44366Y-47661D02*
X44093Y-47607D01*
X44093Y-47607D02*
X43764Y-47116D01*
G54D12*
X43274Y-47444D02*
X43712Y-48099D01*
X44694Y-48151D02*
X45022Y-47932D01*
X44909Y-46349D02*
X45347Y-47004D01*
X43599Y-46516D02*
X43927Y-46297D01*
G54D11*
X45978Y-49940D02*
X46535Y-49384D01*
X46535Y-49384D02*
X47092Y-49940D01*
X47092Y-49940D02*
X46674Y-50358D01*
X46674Y-50358D02*
X46396Y-50358D01*
X46396Y-50358D02*
X45978Y-49940D01*
G54D12*
X45561Y-50358D02*
X46117Y-50915D01*
X47092Y-50776D02*
X47370Y-50497D01*
X46953Y-48966D02*
X47509Y-49523D01*
X45700Y-49384D02*
X45978Y-49105D01*
G54D11*
X48646Y-52235D02*
X49083Y-51580D01*
X49083Y-51580D02*
X49738Y-52016D01*
X49738Y-52016D02*
X49411Y-52508D01*
X49411Y-52508D02*
X49138Y-52562D01*
X49138Y-52562D02*
X48646Y-52235D01*
G54D12*
X48319Y-52726D02*
X48974Y-53163D01*
X49902Y-52835D02*
X50120Y-52508D01*
X49411Y-51088D02*
X50066Y-51525D01*
X48264Y-51743D02*
X48483Y-51416D01*
G54D11*
X51769Y-53992D02*
X52070Y-53265D01*
X52070Y-53265D02*
X52797Y-53566D01*
X52797Y-53566D02*
X52571Y-54112D01*
X52571Y-54112D02*
X52314Y-54218D01*
X52314Y-54218D02*
X51769Y-53992D01*
G54D12*
X51543Y-54538D02*
X52270Y-54839D01*
X53117Y-54338D02*
X53268Y-53974D01*
X52296Y-52719D02*
X53023Y-53020D01*
X51298Y-53584D02*
X51449Y-53221D01*
G54D11*
X55108Y-55093D02*
X55261Y-54320D01*
X55261Y-54320D02*
X56033Y-54473D01*
X56033Y-54473D02*
X55918Y-55053D01*
X55918Y-55053D02*
X55687Y-55207D01*
X55687Y-55207D02*
X55108Y-55093D01*
G54D12*
X54993Y-55672D02*
X55765Y-55825D01*
X56498Y-55167D02*
X56574Y-54781D01*
X55375Y-53741D02*
X56148Y-53894D01*
X54567Y-54785D02*
X54643Y-54399D01*
G54D11*
X58661Y-55511D02*
X58661Y-54724D01*
X58661Y-54724D02*
X59448Y-54724D01*
X59448Y-54724D02*
X59448Y-55314D01*
X59448Y-55314D02*
X59251Y-55511D01*
X59251Y-55511D02*
X58661Y-55511D01*
G54D12*
X58661Y-56102D02*
X59448Y-56102D01*
X60039Y-55314D02*
X60039Y-54921D01*
X58661Y-54133D02*
X59448Y-54133D01*
X58070Y-55314D02*
X58070Y-54921D01*
G54D11*
X62173Y-55228D02*
X62015Y-54457D01*
X62015Y-54457D02*
X62786Y-54298D01*
X62786Y-54298D02*
X62905Y-54877D01*
X62905Y-54877D02*
X62752Y-55109D01*
X62752Y-55109D02*
X62173Y-55228D01*
G54D12*
X62292Y-55807D02*
X63063Y-55648D01*
X63484Y-54758D02*
X63404Y-54373D01*
X61896Y-53878D02*
X62668Y-53720D01*
X61555Y-55154D02*
X61476Y-54768D01*
G54D11*
X65616Y-54295D02*
X65311Y-53569D01*
X65311Y-53569D02*
X66037Y-53264D01*
X66037Y-53264D02*
X66265Y-53808D01*
X66265Y-53808D02*
X66160Y-54066D01*
X66160Y-54066D02*
X65616Y-54295D01*
G54D12*
X65845Y-54839D02*
X66571Y-54534D01*
X66810Y-53579D02*
X66657Y-53216D01*
X65082Y-53024D02*
X65808Y-52719D01*
X64995Y-54342D02*
X64843Y-53979D01*
G54D11*
X68752Y-52711D02*
X68311Y-52059D01*
X68311Y-52059D02*
X68964Y-51618D01*
X68964Y-51618D02*
X69294Y-52108D01*
X69294Y-52108D02*
X69241Y-52381D01*
X69241Y-52381D02*
X68752Y-52711D01*
G54D12*
X69082Y-53201D02*
X69735Y-52761D01*
X69784Y-51778D02*
X69564Y-51451D01*
X67981Y-51569D02*
X68634Y-51129D01*
X68152Y-52878D02*
X67932Y-52552D01*
G54D11*
X71575Y-50478D02*
X71018Y-49922D01*
X71018Y-49922D02*
X71573Y-49364D01*
X71573Y-49364D02*
X71992Y-49781D01*
X71992Y-49781D02*
X71992Y-50059D01*
X71992Y-50059D02*
X71575Y-50478D01*
G54D12*
X71994Y-50894D02*
X72549Y-50337D01*
X72408Y-49363D02*
X72130Y-49085D01*
X70599Y-49505D02*
X71155Y-48947D01*
X71019Y-50757D02*
X70740Y-50479D01*
G54D11*
X73888Y-47790D02*
X73233Y-47353D01*
X73233Y-47353D02*
X73670Y-46698D01*
X73670Y-46698D02*
X74161Y-47025D01*
X74161Y-47025D02*
X74216Y-47298D01*
X74216Y-47298D02*
X73888Y-47790D01*
G54D12*
X74379Y-48117D02*
X74816Y-47462D01*
X74489Y-46534D02*
X74161Y-46316D01*
X72742Y-47025D02*
X73179Y-46370D01*
X73397Y-48172D02*
X73069Y-47953D01*
G54D11*
X75645Y-44687D02*
X74918Y-44385D01*
X74918Y-44385D02*
X75220Y-43658D01*
X75220Y-43658D02*
X75766Y-43885D01*
X75766Y-43885D02*
X75872Y-44142D01*
X75872Y-44142D02*
X75645Y-44687D01*
G54D12*
X76190Y-44914D02*
X76493Y-44188D01*
X75993Y-43340D02*
X75629Y-43188D01*
X74373Y-44158D02*
X74675Y-43431D01*
X75236Y-45157D02*
X74873Y-45006D01*
G54D11*
X76726Y-41368D02*
X75954Y-41214D01*
X75954Y-41214D02*
X76108Y-40442D01*
X76108Y-40442D02*
X76687Y-40558D01*
X76687Y-40558D02*
X76841Y-40789D01*
X76841Y-40789D02*
X76726Y-41368D01*
G54D12*
X77305Y-41484D02*
X77459Y-40712D01*
X76803Y-39978D02*
X76417Y-39901D01*
X75375Y-41098D02*
X75529Y-40326D01*
X76417Y-41909D02*
X76031Y-41832D01*
G54D11*
X77165Y-37795D02*
X76377Y-37795D01*
X76377Y-37795D02*
X76377Y-37007D01*
X76377Y-37007D02*
X76968Y-37007D01*
X76968Y-37007D02*
X77165Y-37204D01*
X77165Y-37204D02*
X77165Y-37795D01*
G54D12*
X77755Y-37795D02*
X77755Y-37007D01*
X76968Y-36417D02*
X76574Y-36417D01*
X75787Y-37795D02*
X75787Y-37007D01*
X76968Y-38385D02*
X76574Y-38385D01*
G54D11*
X76879Y-34246D02*
X76107Y-34399D01*
X76107Y-34399D02*
X75954Y-33627D01*
X75954Y-33627D02*
X76533Y-33512D01*
X76533Y-33512D02*
X76765Y-33667D01*
X76765Y-33667D02*
X76879Y-34246D01*
G54D12*
X77459Y-34132D02*
X77306Y-33359D01*
X76419Y-32933D02*
X76033Y-33009D01*
X75528Y-34514D02*
X75375Y-33741D01*
X76801Y-34864D02*
X76415Y-34940D01*
G54D11*
X75947Y-30842D02*
X75220Y-31144D01*
X75220Y-31144D02*
X74918Y-30417D01*
X74918Y-30417D02*
X75463Y-30190D01*
X75463Y-30190D02*
X75720Y-30296D01*
X75720Y-30296D02*
X75947Y-30842D01*
G54D12*
X76493Y-30615D02*
X76190Y-29888D01*
X75236Y-29645D02*
X74873Y-29796D01*
X74675Y-31371D02*
X74373Y-30644D01*
X75993Y-31462D02*
X75629Y-31614D01*
G54D11*
X74325Y-27667D02*
X73671Y-28105D01*
X73671Y-28105D02*
X73233Y-27450D01*
X73233Y-27450D02*
X73724Y-27122D01*
X73724Y-27122D02*
X73997Y-27176D01*
X73997Y-27176D02*
X74325Y-27667D01*
G54D12*
X74816Y-27338D02*
X74378Y-26684D01*
X73395Y-26631D02*
X73068Y-26850D01*
X73180Y-28433D02*
X72742Y-27779D01*
X74490Y-28267D02*
X74163Y-28486D01*
G54D11*
X72131Y-24881D02*
X71574Y-25438D01*
X71574Y-25438D02*
X71018Y-24881D01*
X71018Y-24881D02*
X71435Y-24464D01*
X71435Y-24464D02*
X71713Y-24464D01*
X71713Y-24464D02*
X72131Y-24881D01*
G54D12*
X72549Y-24464D02*
X71992Y-23907D01*
X71018Y-24046D02*
X70739Y-24325D01*
X71157Y-25856D02*
X70600Y-25299D01*
X72409Y-25438D02*
X72131Y-25717D01*
G54D11*
X69443Y-22569D02*
X69005Y-23223D01*
X69005Y-23223D02*
X68351Y-22785D01*
X68351Y-22785D02*
X68679Y-22294D01*
X68679Y-22294D02*
X68953Y-22240D01*
X68953Y-22240D02*
X69443Y-22569D01*
G54D12*
X69772Y-22078D02*
X69118Y-21640D01*
X68189Y-21966D02*
X67970Y-22293D01*
X68677Y-23714D02*
X68022Y-23276D01*
X69825Y-23061D02*
X69606Y-23388D01*
G54D11*
X66341Y-20810D02*
X66039Y-21538D01*
X66039Y-21538D02*
X65312Y-21236D01*
X65312Y-21236D02*
X65538Y-20691D01*
X65538Y-20691D02*
X65795Y-20584D01*
X65795Y-20584D02*
X66341Y-20810D01*
G54D12*
X66567Y-20264D02*
X65839Y-19963D01*
X64992Y-20465D02*
X64842Y-20828D01*
X65813Y-22083D02*
X65086Y-21782D01*
X66811Y-21218D02*
X66660Y-21582D01*
G54D11*
X62982Y-19730D02*
X62828Y-20502D01*
X62828Y-20502D02*
X62056Y-20348D01*
X62056Y-20348D02*
X62172Y-19769D01*
X62172Y-19769D02*
X62403Y-19614D01*
X62403Y-19614D02*
X62982Y-19730D01*
G54D12*
X63098Y-19151D02*
X62326Y-18997D01*
X61593Y-19653D02*
X61515Y-20039D01*
X62712Y-21081D02*
X61940Y-20927D01*
X63523Y-20039D02*
X63446Y-20425D01*
G54D11*
X59448Y-19291D02*
X59448Y-20078D01*
X59448Y-20078D02*
X58661Y-20078D01*
X58661Y-20078D02*
X58661Y-19488D01*
X58661Y-19488D02*
X58858Y-19291D01*
X58858Y-19291D02*
X59448Y-19291D01*
G54D12*
X59448Y-18700D02*
X58661Y-18700D01*
X58070Y-19488D02*
X58070Y-19881D01*
X59448Y-20669D02*
X58661Y-20669D01*
X60039Y-19488D02*
X60039Y-19881D01*
G54D13*
X54373Y-36139D02*
X54330Y-36051D01*
X54191Y-36119D02*
X54456Y-35989D01*
X54518Y-36116D01*
X63901Y-35954D02*
X63858Y-36042D01*
X63997Y-36110D02*
X63731Y-35981D01*
X63793Y-35854D01*
G54D11*
X55921Y-22943D02*
X55906Y-22965D01*
X55854Y-22994D01*
X55818Y-23002D01*
X55759Y-22994D01*
X55715Y-22965D01*
X55689Y-22932D01*
X55656Y-22862D01*
X55645Y-22807D01*
X55649Y-22730D01*
X55660Y-22689D01*
X55689Y-22645D01*
X55740Y-22616D01*
X55777Y-22608D01*
X55836Y-22616D01*
X55858Y-22630D01*
X55979Y-22568D02*
X56218Y-22520D01*
X56119Y-22693D01*
X56174Y-22682D01*
X56215Y-22693D01*
X56237Y-22708D01*
X56263Y-22741D01*
X56281Y-22833D01*
X56270Y-22873D01*
X56255Y-22895D01*
X56222Y-22921D01*
X56112Y-22943D01*
X56071Y-22932D01*
X56049Y-22917D01*
X56549Y-22454D02*
X56476Y-22469D01*
X56443Y-22494D01*
X56428Y-22516D01*
X56402Y-22579D01*
X56399Y-22656D01*
X56428Y-22803D01*
X56454Y-22836D01*
X56476Y-22851D01*
X56516Y-22862D01*
X56590Y-22847D01*
X56623Y-22822D01*
X56638Y-22800D01*
X56649Y-22759D01*
X56630Y-22667D01*
X56605Y-22634D01*
X56582Y-22619D01*
X56542Y-22608D01*
X56468Y-22623D01*
X56435Y-22649D01*
X56421Y-22671D01*
X56410Y-22711D01*
X53166Y-23888D02*
X53156Y-23912D01*
X53111Y-23951D01*
X53076Y-23965D01*
X53017Y-23970D01*
X52968Y-23949D01*
X52937Y-23922D01*
X52891Y-23860D01*
X52869Y-23808D01*
X52858Y-23731D01*
X52861Y-23689D01*
X52881Y-23640D01*
X52926Y-23602D01*
X52960Y-23587D01*
X53019Y-23583D01*
X53044Y-23593D01*
X53151Y-23508D02*
X53376Y-23415D01*
X53312Y-23604D01*
X53364Y-23582D01*
X53406Y-23585D01*
X53430Y-23595D01*
X53462Y-23623D01*
X53498Y-23710D01*
X53495Y-23751D01*
X53485Y-23776D01*
X53457Y-23808D01*
X53353Y-23851D01*
X53312Y-23848D01*
X53287Y-23837D01*
X53705Y-23279D02*
X53532Y-23351D01*
X53586Y-23531D01*
X53596Y-23506D01*
X53624Y-23475D01*
X53711Y-23439D01*
X53752Y-23442D01*
X53777Y-23452D01*
X53809Y-23479D01*
X53844Y-23566D01*
X53841Y-23608D01*
X53831Y-23632D01*
X53804Y-23664D01*
X53717Y-23700D01*
X53675Y-23697D01*
X53651Y-23687D01*
X50615Y-25297D02*
X50610Y-25323D01*
X50574Y-25369D01*
X50543Y-25390D01*
X50486Y-25406D01*
X50434Y-25396D01*
X50397Y-25375D01*
X50340Y-25323D01*
X50309Y-25276D01*
X50282Y-25204D01*
X50277Y-25162D01*
X50287Y-25110D01*
X50324Y-25063D01*
X50355Y-25042D01*
X50412Y-25027D01*
X50438Y-25032D01*
X50526Y-24928D02*
X50729Y-24792D01*
X50703Y-24990D01*
X50750Y-24958D01*
X50792Y-24953D01*
X50818Y-24958D01*
X50854Y-24979D01*
X50906Y-25057D01*
X50911Y-25098D01*
X50906Y-25124D01*
X50886Y-25161D01*
X50792Y-25223D01*
X50750Y-25229D01*
X50724Y-25224D01*
X51082Y-24713D02*
X51228Y-24931D01*
X50921Y-24641D02*
X51000Y-24927D01*
X51202Y-24791D01*
X48463Y-27168D02*
X48463Y-27194D01*
X48437Y-27247D01*
X48410Y-27274D01*
X48357Y-27300D01*
X48304Y-27300D01*
X48264Y-27287D01*
X48198Y-27247D01*
X48158Y-27207D01*
X48119Y-27141D01*
X48105Y-27101D01*
X48105Y-27048D01*
X48132Y-26995D01*
X48158Y-26969D01*
X48211Y-26942D01*
X48238Y-26942D01*
X48304Y-26823D02*
X48477Y-26651D01*
X48490Y-26849D01*
X48530Y-26810D01*
X48569Y-26796D01*
X48596Y-26796D01*
X48636Y-26810D01*
X48702Y-26876D01*
X48715Y-26916D01*
X48715Y-26942D01*
X48702Y-26982D01*
X48622Y-27062D01*
X48583Y-27075D01*
X48556Y-27075D01*
X48569Y-26558D02*
X48742Y-26386D01*
X48755Y-26584D01*
X48795Y-26545D01*
X48834Y-26531D01*
X48861Y-26531D01*
X48901Y-26545D01*
X48967Y-26611D01*
X48980Y-26651D01*
X48980Y-26677D01*
X48967Y-26717D01*
X48887Y-26796D01*
X48848Y-26810D01*
X48821Y-26810D01*
X46649Y-29422D02*
X46654Y-29448D01*
X46639Y-29505D01*
X46618Y-29536D01*
X46571Y-29573D01*
X46519Y-29583D01*
X46478Y-29578D01*
X46405Y-29552D01*
X46358Y-29521D01*
X46306Y-29463D01*
X46285Y-29427D01*
X46275Y-29375D01*
X46291Y-29318D01*
X46311Y-29287D01*
X46358Y-29250D01*
X46384Y-29245D01*
X46426Y-29115D02*
X46561Y-28912D01*
X46613Y-29105D01*
X46644Y-29058D01*
X46681Y-29037D01*
X46707Y-29032D01*
X46748Y-29037D01*
X46826Y-29089D01*
X46847Y-29126D01*
X46852Y-29152D01*
X46847Y-29193D01*
X46784Y-29287D01*
X46748Y-29308D01*
X46722Y-29313D01*
X46675Y-28808D02*
X46670Y-28782D01*
X46675Y-28741D01*
X46727Y-28663D01*
X46764Y-28642D01*
X46790Y-28637D01*
X46831Y-28642D01*
X46863Y-28663D01*
X46899Y-28710D01*
X46961Y-29022D01*
X47097Y-28819D01*
X45348Y-32000D02*
X45358Y-32024D01*
X45353Y-32083D01*
X45339Y-32118D01*
X45300Y-32163D01*
X45251Y-32183D01*
X45209Y-32186D01*
X45133Y-32175D01*
X45081Y-32153D01*
X45019Y-32107D01*
X44991Y-32075D01*
X44971Y-32026D01*
X44975Y-31967D01*
X44990Y-31933D01*
X45029Y-31888D01*
X45053Y-31878D01*
X45069Y-31742D02*
X45162Y-31517D01*
X45250Y-31696D01*
X45272Y-31644D01*
X45303Y-31616D01*
X45328Y-31606D01*
X45370Y-31603D01*
X45456Y-31639D01*
X45484Y-31671D01*
X45494Y-31695D01*
X45497Y-31737D01*
X45454Y-31841D01*
X45422Y-31868D01*
X45398Y-31878D01*
X45669Y-31321D02*
X45583Y-31529D01*
X45626Y-31425D02*
X45262Y-31275D01*
X45300Y-31331D01*
X45320Y-31380D01*
X45323Y-31421D01*
X44576Y-34783D02*
X44591Y-34805D01*
X44599Y-34864D01*
X44591Y-34901D01*
X44562Y-34952D01*
X44518Y-34982D01*
X44478Y-34993D01*
X44400Y-34997D01*
X44345Y-34986D01*
X44275Y-34953D01*
X44242Y-34927D01*
X44213Y-34883D01*
X44205Y-34824D01*
X44212Y-34787D01*
X44242Y-34736D01*
X44264Y-34721D01*
X44253Y-34585D02*
X44300Y-34346D01*
X44422Y-34504D01*
X44432Y-34449D01*
X44458Y-34416D01*
X44480Y-34401D01*
X44521Y-34390D01*
X44613Y-34408D01*
X44646Y-34434D01*
X44660Y-34456D01*
X44672Y-34496D01*
X44650Y-34606D01*
X44624Y-34639D01*
X44602Y-34654D01*
X44347Y-34107D02*
X44354Y-34070D01*
X44380Y-34037D01*
X44402Y-34022D01*
X44443Y-34011D01*
X44520Y-34007D01*
X44612Y-34025D01*
X44682Y-34058D01*
X44715Y-34084D01*
X44730Y-34106D01*
X44741Y-34147D01*
X44733Y-34183D01*
X44708Y-34216D01*
X44686Y-34231D01*
X44645Y-34242D01*
X44568Y-34246D01*
X44476Y-34228D01*
X44406Y-34195D01*
X44373Y-34169D01*
X44358Y-34147D01*
X44347Y-34107D01*
X44333Y-37654D02*
X44352Y-37673D01*
X44371Y-37729D01*
X44371Y-37767D01*
X44352Y-37823D01*
X44314Y-37860D01*
X44277Y-37879D01*
X44202Y-37898D01*
X44146Y-37898D01*
X44071Y-37879D01*
X44033Y-37860D01*
X43996Y-37823D01*
X43977Y-37767D01*
X43977Y-37729D01*
X43996Y-37673D01*
X44014Y-37654D01*
X44014Y-37504D02*
X43996Y-37485D01*
X43977Y-37448D01*
X43977Y-37354D01*
X43996Y-37317D01*
X44014Y-37298D01*
X44052Y-37279D01*
X44089Y-37279D01*
X44146Y-37298D01*
X44371Y-37523D01*
X44371Y-37279D01*
X44371Y-37092D02*
X44371Y-37017D01*
X44352Y-36979D01*
X44333Y-36961D01*
X44277Y-36923D01*
X44202Y-36904D01*
X44052Y-36904D01*
X44014Y-36923D01*
X43996Y-36942D01*
X43977Y-36979D01*
X43977Y-37054D01*
X43996Y-37092D01*
X44014Y-37110D01*
X44052Y-37129D01*
X44146Y-37129D01*
X44183Y-37110D01*
X44202Y-37092D01*
X44221Y-37054D01*
X44221Y-36979D01*
X44202Y-36942D01*
X44183Y-36923D01*
X44146Y-36904D01*
X44241Y-40074D02*
X44219Y-40059D01*
X44190Y-40008D01*
X44182Y-39971D01*
X44190Y-39912D01*
X44219Y-39868D01*
X44252Y-39843D01*
X44322Y-39809D01*
X44377Y-39798D01*
X44454Y-39802D01*
X44495Y-39813D01*
X44539Y-39843D01*
X44568Y-39894D01*
X44576Y-39931D01*
X44568Y-39990D01*
X44554Y-40012D01*
X44583Y-40159D02*
X44605Y-40173D01*
X44631Y-40207D01*
X44649Y-40298D01*
X44638Y-40339D01*
X44623Y-40361D01*
X44590Y-40387D01*
X44554Y-40394D01*
X44495Y-40387D01*
X44230Y-40210D01*
X44278Y-40449D01*
X44543Y-40626D02*
X44554Y-40585D01*
X44568Y-40563D01*
X44601Y-40537D01*
X44620Y-40534D01*
X44660Y-40545D01*
X44682Y-40560D01*
X44708Y-40593D01*
X44723Y-40666D01*
X44712Y-40707D01*
X44697Y-40729D01*
X44664Y-40754D01*
X44645Y-40758D01*
X44605Y-40747D01*
X44583Y-40732D01*
X44557Y-40699D01*
X44543Y-40626D01*
X44517Y-40593D01*
X44495Y-40578D01*
X44454Y-40567D01*
X44381Y-40582D01*
X44348Y-40607D01*
X44333Y-40629D01*
X44322Y-40670D01*
X44337Y-40743D01*
X44362Y-40776D01*
X44384Y-40791D01*
X44425Y-40802D01*
X44498Y-40787D01*
X44532Y-40762D01*
X44546Y-40740D01*
X44557Y-40699D01*
X45048Y-42969D02*
X45024Y-42959D01*
X44985Y-42914D01*
X44971Y-42880D01*
X44966Y-42820D01*
X44987Y-42771D01*
X45014Y-42740D01*
X45076Y-42694D01*
X45128Y-42672D01*
X45205Y-42661D01*
X45247Y-42664D01*
X45296Y-42684D01*
X45334Y-42729D01*
X45349Y-42763D01*
X45353Y-42823D01*
X45343Y-42847D01*
X45400Y-42986D02*
X45425Y-42996D01*
X45456Y-43023D01*
X45492Y-43110D01*
X45489Y-43152D01*
X45479Y-43176D01*
X45452Y-43208D01*
X45417Y-43222D01*
X45358Y-43226D01*
X45064Y-43105D01*
X45157Y-43330D01*
X45571Y-43300D02*
X45672Y-43543D01*
X45243Y-43538D01*
X46395Y-45517D02*
X46369Y-45512D01*
X46323Y-45476D01*
X46302Y-45444D01*
X46286Y-45387D01*
X46296Y-45335D01*
X46317Y-45299D01*
X46369Y-45241D01*
X46416Y-45210D01*
X46488Y-45184D01*
X46530Y-45179D01*
X46582Y-45189D01*
X46629Y-45225D01*
X46650Y-45257D01*
X46665Y-45314D01*
X46660Y-45340D01*
X46744Y-45464D02*
X46770Y-45469D01*
X46806Y-45490D01*
X46858Y-45568D01*
X46864Y-45610D01*
X46858Y-45636D01*
X46838Y-45672D01*
X46807Y-45693D01*
X46749Y-45709D01*
X46437Y-45647D01*
X46573Y-45849D01*
X47088Y-45911D02*
X47046Y-45849D01*
X47010Y-45828D01*
X46984Y-45823D01*
X46916Y-45823D01*
X46843Y-45849D01*
X46719Y-45932D01*
X46698Y-45969D01*
X46693Y-45995D01*
X46698Y-46036D01*
X46740Y-46099D01*
X46776Y-46119D01*
X46802Y-46125D01*
X46844Y-46119D01*
X46922Y-46067D01*
X46942Y-46031D01*
X46948Y-46005D01*
X46942Y-45963D01*
X46901Y-45901D01*
X46864Y-45880D01*
X46838Y-45875D01*
X46796Y-45880D01*
X48205Y-47873D02*
X48179Y-47873D01*
X48126Y-47846D01*
X48099Y-47820D01*
X48073Y-47767D01*
X48073Y-47714D01*
X48086Y-47674D01*
X48126Y-47608D01*
X48166Y-47568D01*
X48232Y-47528D01*
X48272Y-47515D01*
X48325Y-47515D01*
X48378Y-47541D01*
X48404Y-47568D01*
X48431Y-47621D01*
X48431Y-47647D01*
X48537Y-47753D02*
X48563Y-47753D01*
X48603Y-47767D01*
X48669Y-47833D01*
X48683Y-47873D01*
X48683Y-47899D01*
X48669Y-47939D01*
X48643Y-47966D01*
X48590Y-47992D01*
X48272Y-47992D01*
X48444Y-48164D01*
X48974Y-48138D02*
X48842Y-48005D01*
X48696Y-48125D01*
X48722Y-48125D01*
X48762Y-48138D01*
X48828Y-48204D01*
X48842Y-48244D01*
X48842Y-48270D01*
X48828Y-48310D01*
X48762Y-48376D01*
X48722Y-48390D01*
X48696Y-48390D01*
X48656Y-48376D01*
X48590Y-48310D01*
X48577Y-48270D01*
X48577Y-48244D01*
X50459Y-49760D02*
X50433Y-49765D01*
X50376Y-49749D01*
X50345Y-49728D01*
X50308Y-49681D01*
X50298Y-49629D01*
X50303Y-49588D01*
X50329Y-49515D01*
X50360Y-49468D01*
X50417Y-49416D01*
X50454Y-49396D01*
X50506Y-49385D01*
X50563Y-49401D01*
X50594Y-49422D01*
X50631Y-49468D01*
X50636Y-49494D01*
X50761Y-49578D02*
X50787Y-49572D01*
X50828Y-49578D01*
X50906Y-49630D01*
X50927Y-49666D01*
X50932Y-49692D01*
X50927Y-49734D01*
X50906Y-49765D01*
X50859Y-49801D01*
X50547Y-49864D01*
X50750Y-49999D01*
X51176Y-49968D02*
X51031Y-50186D01*
X51182Y-49791D02*
X50948Y-49973D01*
X51150Y-50108D01*
X53058Y-51233D02*
X53034Y-51243D01*
X52975Y-51239D01*
X52940Y-51225D01*
X52895Y-51186D01*
X52875Y-51137D01*
X52872Y-51095D01*
X52883Y-51019D01*
X52905Y-50967D01*
X52951Y-50905D01*
X52983Y-50877D01*
X53032Y-50857D01*
X53091Y-50861D01*
X53125Y-50876D01*
X53170Y-50914D01*
X53180Y-50939D01*
X53319Y-50996D02*
X53343Y-50986D01*
X53385Y-50983D01*
X53472Y-51019D01*
X53499Y-51051D01*
X53509Y-51075D01*
X53512Y-51117D01*
X53498Y-51152D01*
X53459Y-51196D01*
X53165Y-51318D01*
X53390Y-51411D01*
X53662Y-51098D02*
X53887Y-51191D01*
X53709Y-51280D01*
X53761Y-51301D01*
X53788Y-51333D01*
X53798Y-51357D01*
X53801Y-51399D01*
X53765Y-51486D01*
X53734Y-51513D01*
X53709Y-51523D01*
X53668Y-51526D01*
X53564Y-51483D01*
X53536Y-51452D01*
X53526Y-51427D01*
X55846Y-52136D02*
X55824Y-52150D01*
X55765Y-52158D01*
X55728Y-52150D01*
X55677Y-52121D01*
X55647Y-52077D01*
X55636Y-52037D01*
X55632Y-51959D01*
X55643Y-51904D01*
X55676Y-51834D01*
X55702Y-51801D01*
X55746Y-51772D01*
X55805Y-51764D01*
X55842Y-51772D01*
X55893Y-51801D01*
X55908Y-51823D01*
X56055Y-51852D02*
X56077Y-51837D01*
X56117Y-51826D01*
X56209Y-51844D01*
X56243Y-51870D01*
X56257Y-51892D01*
X56268Y-51932D01*
X56261Y-51969D01*
X56232Y-52021D01*
X55967Y-52198D01*
X56206Y-52245D01*
X56423Y-51925D02*
X56445Y-51910D01*
X56485Y-51899D01*
X56577Y-51917D01*
X56610Y-51943D01*
X56625Y-51965D01*
X56636Y-52005D01*
X56629Y-52042D01*
X56600Y-52094D01*
X56335Y-52271D01*
X56574Y-52318D01*
X58802Y-52384D02*
X58783Y-52403D01*
X58727Y-52422D01*
X58689Y-52422D01*
X58633Y-52403D01*
X58595Y-52365D01*
X58577Y-52328D01*
X58558Y-52253D01*
X58558Y-52197D01*
X58577Y-52122D01*
X58595Y-52084D01*
X58633Y-52047D01*
X58689Y-52028D01*
X58727Y-52028D01*
X58783Y-52047D01*
X58802Y-52065D01*
X58952Y-52065D02*
X58970Y-52047D01*
X59008Y-52028D01*
X59101Y-52028D01*
X59139Y-52047D01*
X59158Y-52065D01*
X59176Y-52103D01*
X59176Y-52140D01*
X59158Y-52197D01*
X58933Y-52422D01*
X59176Y-52422D01*
X59551Y-52422D02*
X59326Y-52422D01*
X59439Y-52422D02*
X59439Y-52028D01*
X59401Y-52084D01*
X59364Y-52122D01*
X59326Y-52140D01*
X61709Y-52196D02*
X61694Y-52218D01*
X61643Y-52248D01*
X61606Y-52255D01*
X61547Y-52248D01*
X61503Y-52219D01*
X61477Y-52186D01*
X61444Y-52116D01*
X61433Y-52061D01*
X61436Y-51984D01*
X61447Y-51944D01*
X61476Y-51899D01*
X61527Y-51870D01*
X61564Y-51862D01*
X61623Y-51869D01*
X61645Y-51884D01*
X61792Y-51854D02*
X61806Y-51832D01*
X61839Y-51806D01*
X61931Y-51787D01*
X61972Y-51798D01*
X61994Y-51812D01*
X62020Y-51845D01*
X62027Y-51882D01*
X62020Y-51941D01*
X61845Y-52206D01*
X62084Y-52157D01*
X62243Y-51723D02*
X62280Y-51715D01*
X62321Y-51726D01*
X62343Y-51741D01*
X62369Y-51774D01*
X62402Y-51843D01*
X62421Y-51935D01*
X62418Y-52012D01*
X62407Y-52053D01*
X62392Y-52075D01*
X62359Y-52101D01*
X62323Y-52108D01*
X62282Y-52098D01*
X62260Y-52083D01*
X62234Y-52050D01*
X62201Y-51980D01*
X62182Y-51888D01*
X62185Y-51811D01*
X62196Y-51771D01*
X62210Y-51749D01*
X62243Y-51723D01*
X64584Y-51408D02*
X64574Y-51433D01*
X64530Y-51472D01*
X64495Y-51486D01*
X64436Y-51491D01*
X64387Y-51471D01*
X64355Y-51444D01*
X64309Y-51382D01*
X64287Y-51330D01*
X64275Y-51254D01*
X64278Y-51212D01*
X64298Y-51163D01*
X64343Y-51124D01*
X64377Y-51109D01*
X64436Y-51104D01*
X64461Y-51114D01*
X64945Y-51298D02*
X64737Y-51385D01*
X64841Y-51341D02*
X64688Y-50978D01*
X64676Y-51045D01*
X64656Y-51094D01*
X64628Y-51126D01*
X65117Y-51225D02*
X65187Y-51196D01*
X65214Y-51164D01*
X65224Y-51139D01*
X65237Y-51073D01*
X65225Y-50997D01*
X65167Y-50858D01*
X65135Y-50831D01*
X65110Y-50821D01*
X65069Y-50818D01*
X64999Y-50847D01*
X64972Y-50879D01*
X64962Y-50904D01*
X64959Y-50946D01*
X64996Y-51032D01*
X65028Y-51059D01*
X65052Y-51069D01*
X65094Y-51072D01*
X65163Y-51043D01*
X65190Y-51011D01*
X65200Y-50987D01*
X65203Y-50945D01*
X67191Y-50100D02*
X67186Y-50126D01*
X67150Y-50173D01*
X67119Y-50194D01*
X67062Y-50210D01*
X67010Y-50200D01*
X66973Y-50179D01*
X66916Y-50128D01*
X66884Y-50081D01*
X66858Y-50008D01*
X66852Y-49967D01*
X66863Y-49915D01*
X66899Y-49868D01*
X66930Y-49847D01*
X66987Y-49831D01*
X67013Y-49836D01*
X67523Y-49922D02*
X67336Y-50047D01*
X67430Y-49984D02*
X67210Y-49658D01*
X67210Y-49726D01*
X67200Y-49778D01*
X67179Y-49814D01*
X67584Y-49609D02*
X67542Y-49615D01*
X67516Y-49610D01*
X67480Y-49589D01*
X67469Y-49573D01*
X67464Y-49532D01*
X67469Y-49506D01*
X67489Y-49469D01*
X67551Y-49427D01*
X67593Y-49422D01*
X67619Y-49427D01*
X67656Y-49448D01*
X67666Y-49463D01*
X67671Y-49505D01*
X67666Y-49531D01*
X67646Y-49567D01*
X67584Y-49609D01*
X67563Y-49646D01*
X67558Y-49672D01*
X67563Y-49713D01*
X67605Y-49775D01*
X67642Y-49796D01*
X67668Y-49801D01*
X67709Y-49796D01*
X67772Y-49754D01*
X67792Y-49717D01*
X67797Y-49691D01*
X67792Y-49650D01*
X67750Y-49588D01*
X67713Y-49567D01*
X67687Y-49562D01*
X67646Y-49567D01*
X69526Y-48231D02*
X69526Y-48257D01*
X69500Y-48310D01*
X69473Y-48337D01*
X69420Y-48363D01*
X69367Y-48363D01*
X69327Y-48350D01*
X69261Y-48310D01*
X69221Y-48270D01*
X69182Y-48204D01*
X69168Y-48164D01*
X69168Y-48111D01*
X69195Y-48058D01*
X69221Y-48032D01*
X69274Y-48005D01*
X69301Y-48005D01*
X69818Y-47992D02*
X69659Y-48151D01*
X69738Y-48072D02*
X69460Y-47793D01*
X69473Y-47859D01*
X69473Y-47912D01*
X69460Y-47952D01*
X69632Y-47621D02*
X69818Y-47435D01*
X69977Y-47833D01*
X71432Y-45957D02*
X71437Y-45983D01*
X71422Y-46041D01*
X71401Y-46072D01*
X71354Y-46108D01*
X71302Y-46118D01*
X71260Y-46113D01*
X71188Y-46087D01*
X71141Y-46056D01*
X71089Y-45998D01*
X71068Y-45962D01*
X71058Y-45910D01*
X71074Y-45853D01*
X71095Y-45821D01*
X71141Y-45785D01*
X71167Y-45780D01*
X71672Y-45667D02*
X71547Y-45854D01*
X71609Y-45760D02*
X71282Y-45541D01*
X71308Y-45604D01*
X71318Y-45656D01*
X71313Y-45697D01*
X71533Y-45167D02*
X71491Y-45229D01*
X71486Y-45271D01*
X71491Y-45297D01*
X71517Y-45360D01*
X71568Y-45417D01*
X71693Y-45500D01*
X71735Y-45506D01*
X71761Y-45500D01*
X71797Y-45480D01*
X71839Y-45417D01*
X71844Y-45376D01*
X71839Y-45350D01*
X71818Y-45313D01*
X71740Y-45261D01*
X71699Y-45256D01*
X71673Y-45261D01*
X71636Y-45282D01*
X71595Y-45344D01*
X71589Y-45386D01*
X71594Y-45412D01*
X71615Y-45448D01*
X72788Y-43358D02*
X72798Y-43383D01*
X72794Y-43442D01*
X72779Y-43476D01*
X72740Y-43521D01*
X72691Y-43541D01*
X72650Y-43544D01*
X72573Y-43533D01*
X72521Y-43511D01*
X72459Y-43465D01*
X72432Y-43433D01*
X72412Y-43384D01*
X72416Y-43325D01*
X72430Y-43290D01*
X72469Y-43246D01*
X72494Y-43236D01*
X72967Y-43026D02*
X72880Y-43234D01*
X72923Y-43130D02*
X72560Y-42979D01*
X72597Y-43035D01*
X72618Y-43084D01*
X72621Y-43126D01*
X72740Y-42546D02*
X72668Y-42719D01*
X72834Y-42809D01*
X72824Y-42784D01*
X72821Y-42742D01*
X72857Y-42656D01*
X72889Y-42628D01*
X72913Y-42618D01*
X72955Y-42615D01*
X73042Y-42651D01*
X73069Y-42683D01*
X73079Y-42708D01*
X73082Y-42749D01*
X73046Y-42836D01*
X73014Y-42863D01*
X72990Y-42873D01*
X73769Y-40610D02*
X73784Y-40632D01*
X73791Y-40691D01*
X73784Y-40728D01*
X73754Y-40779D01*
X73710Y-40808D01*
X73670Y-40819D01*
X73592Y-40823D01*
X73537Y-40812D01*
X73467Y-40779D01*
X73434Y-40753D01*
X73405Y-40709D01*
X73398Y-40650D01*
X73405Y-40614D01*
X73434Y-40562D01*
X73456Y-40547D01*
X73879Y-40250D02*
X73835Y-40470D01*
X73857Y-40360D02*
X73471Y-40283D01*
X73519Y-40330D01*
X73548Y-40375D01*
X73559Y-40415D01*
X73688Y-39867D02*
X73945Y-39919D01*
X73522Y-39930D02*
X73780Y-40077D01*
X73828Y-39838D01*
X74057Y-37654D02*
X74076Y-37673D01*
X74095Y-37729D01*
X74095Y-37767D01*
X74076Y-37823D01*
X74039Y-37860D01*
X74001Y-37879D01*
X73926Y-37898D01*
X73870Y-37898D01*
X73795Y-37879D01*
X73757Y-37860D01*
X73720Y-37823D01*
X73701Y-37767D01*
X73701Y-37729D01*
X73720Y-37673D01*
X73739Y-37654D01*
X74095Y-37279D02*
X74095Y-37504D01*
X74095Y-37392D02*
X73701Y-37392D01*
X73757Y-37429D01*
X73795Y-37467D01*
X73814Y-37504D01*
X73701Y-37148D02*
X73701Y-36904D01*
X73851Y-37035D01*
X73851Y-36979D01*
X73870Y-36942D01*
X73889Y-36923D01*
X73926Y-36904D01*
X74020Y-36904D01*
X74057Y-36923D01*
X74076Y-36942D01*
X74095Y-36979D01*
X74095Y-37092D01*
X74076Y-37129D01*
X74057Y-37148D01*
X73434Y-34306D02*
X73412Y-34291D01*
X73383Y-34240D01*
X73376Y-34203D01*
X73383Y-34144D01*
X73413Y-34100D01*
X73446Y-34074D01*
X73516Y-34042D01*
X73571Y-34031D01*
X73648Y-34034D01*
X73689Y-34046D01*
X73733Y-34075D01*
X73762Y-34127D01*
X73769Y-34163D01*
X73762Y-34222D01*
X73747Y-34244D01*
X73471Y-34681D02*
X73427Y-34461D01*
X73449Y-34571D02*
X73835Y-34494D01*
X73772Y-34469D01*
X73728Y-34439D01*
X73703Y-34406D01*
X73849Y-34759D02*
X73871Y-34774D01*
X73897Y-34807D01*
X73915Y-34899D01*
X73904Y-34939D01*
X73889Y-34961D01*
X73856Y-34987D01*
X73819Y-34994D01*
X73760Y-34987D01*
X73496Y-34810D01*
X73543Y-35049D01*
X72548Y-31532D02*
X72524Y-31522D01*
X72485Y-31478D01*
X72470Y-31443D01*
X72466Y-31384D01*
X72486Y-31335D01*
X72513Y-31303D01*
X72576Y-31257D01*
X72627Y-31235D01*
X72704Y-31224D01*
X72746Y-31227D01*
X72795Y-31247D01*
X72834Y-31292D01*
X72848Y-31326D01*
X72852Y-31385D01*
X72842Y-31410D01*
X72657Y-31893D02*
X72571Y-31685D01*
X72614Y-31789D02*
X72978Y-31638D01*
X72911Y-31625D01*
X72862Y-31605D01*
X72831Y-31577D01*
X72802Y-32239D02*
X72715Y-32032D01*
X72758Y-32135D02*
X73122Y-31984D01*
X73055Y-31971D01*
X73006Y-31951D01*
X72975Y-31923D01*
X71159Y-29001D02*
X71133Y-28996D01*
X71086Y-28960D01*
X71065Y-28929D01*
X71050Y-28871D01*
X71060Y-28819D01*
X71081Y-28783D01*
X71133Y-28726D01*
X71179Y-28694D01*
X71252Y-28668D01*
X71294Y-28663D01*
X71346Y-28673D01*
X71393Y-28710D01*
X71413Y-28741D01*
X71429Y-28798D01*
X71424Y-28824D01*
X71337Y-29334D02*
X71211Y-29147D01*
X71274Y-29240D02*
X71601Y-29021D01*
X71534Y-29021D01*
X71482Y-29011D01*
X71445Y-28990D01*
X71799Y-29317D02*
X71820Y-29348D01*
X71825Y-29390D01*
X71820Y-29416D01*
X71800Y-29452D01*
X71748Y-29510D01*
X71670Y-29562D01*
X71597Y-29588D01*
X71555Y-29593D01*
X71529Y-29588D01*
X71493Y-29567D01*
X71472Y-29536D01*
X71467Y-29495D01*
X71472Y-29469D01*
X71493Y-29432D01*
X71545Y-29375D01*
X71623Y-29323D01*
X71695Y-29297D01*
X71737Y-29291D01*
X71763Y-29296D01*
X71799Y-29317D01*
X69421Y-26942D02*
X69394Y-26942D01*
X69341Y-26916D01*
X69315Y-26889D01*
X69288Y-26836D01*
X69288Y-26783D01*
X69301Y-26743D01*
X69341Y-26677D01*
X69381Y-26637D01*
X69447Y-26598D01*
X69487Y-26584D01*
X69540Y-26584D01*
X69593Y-26611D01*
X69619Y-26637D01*
X69646Y-26690D01*
X69646Y-26717D01*
X69527Y-27101D02*
X69580Y-27154D01*
X69619Y-27168D01*
X69646Y-27168D01*
X69712Y-27154D01*
X69779Y-27115D01*
X69885Y-27009D01*
X69898Y-26969D01*
X69898Y-26942D01*
X69885Y-26903D01*
X69832Y-26849D01*
X69792Y-26836D01*
X69765Y-26836D01*
X69726Y-26849D01*
X69659Y-26916D01*
X69646Y-26956D01*
X69646Y-26982D01*
X69659Y-27022D01*
X69712Y-27075D01*
X69752Y-27088D01*
X69779Y-27088D01*
X69818Y-27075D01*
X67190Y-25159D02*
X67164Y-25164D01*
X67106Y-25148D01*
X67075Y-25127D01*
X67039Y-25080D01*
X67029Y-25028D01*
X67034Y-24987D01*
X67060Y-24914D01*
X67091Y-24867D01*
X67149Y-24815D01*
X67185Y-24795D01*
X67237Y-24784D01*
X67294Y-24800D01*
X67325Y-24821D01*
X67362Y-24868D01*
X67367Y-24894D01*
X67481Y-25128D02*
X67460Y-25092D01*
X67455Y-25065D01*
X67460Y-25024D01*
X67471Y-25008D01*
X67507Y-24988D01*
X67533Y-24982D01*
X67575Y-24988D01*
X67637Y-25029D01*
X67658Y-25066D01*
X67663Y-25092D01*
X67658Y-25133D01*
X67647Y-25149D01*
X67611Y-25170D01*
X67585Y-25175D01*
X67543Y-25170D01*
X67481Y-25128D01*
X67439Y-25123D01*
X67413Y-25128D01*
X67377Y-25149D01*
X67335Y-25211D01*
X67330Y-25252D01*
X67335Y-25278D01*
X67356Y-25315D01*
X67418Y-25357D01*
X67460Y-25362D01*
X67486Y-25357D01*
X67522Y-25336D01*
X67564Y-25274D01*
X67569Y-25232D01*
X67564Y-25206D01*
X67543Y-25170D01*
X64649Y-23726D02*
X64624Y-23736D01*
X64565Y-23732D01*
X64531Y-23718D01*
X64486Y-23679D01*
X64465Y-23630D01*
X64463Y-23588D01*
X64474Y-23512D01*
X64495Y-23460D01*
X64541Y-23398D01*
X64573Y-23370D01*
X64622Y-23350D01*
X64681Y-23354D01*
X64716Y-23369D01*
X64761Y-23407D01*
X64771Y-23432D01*
X64906Y-23447D02*
X65149Y-23548D01*
X64842Y-23847D01*
X61837Y-22920D02*
X61815Y-22935D01*
X61756Y-22942D01*
X61719Y-22935D01*
X61668Y-22905D01*
X61638Y-22861D01*
X61627Y-22821D01*
X61623Y-22743D01*
X61634Y-22688D01*
X61668Y-22618D01*
X61693Y-22585D01*
X61737Y-22556D01*
X61796Y-22548D01*
X61833Y-22556D01*
X61884Y-22585D01*
X61899Y-22607D01*
X62237Y-22637D02*
X62164Y-22622D01*
X62123Y-22633D01*
X62101Y-22648D01*
X62054Y-22695D01*
X62021Y-22765D01*
X61991Y-22912D01*
X62002Y-22953D01*
X62017Y-22975D01*
X62050Y-23001D01*
X62124Y-23015D01*
X62164Y-23004D01*
X62186Y-22990D01*
X62212Y-22957D01*
X62230Y-22865D01*
X62219Y-22824D01*
X62204Y-22802D01*
X62171Y-22776D01*
X62098Y-22762D01*
X62057Y-22773D01*
X62035Y-22787D01*
X62010Y-22820D01*
X58989Y-22660D02*
X58970Y-22679D01*
X58914Y-22697D01*
X58877Y-22697D01*
X58820Y-22679D01*
X58783Y-22641D01*
X58764Y-22604D01*
X58745Y-22529D01*
X58745Y-22472D01*
X58764Y-22397D01*
X58783Y-22360D01*
X58820Y-22322D01*
X58877Y-22304D01*
X58914Y-22304D01*
X58970Y-22322D01*
X58989Y-22341D01*
X59345Y-22304D02*
X59158Y-22304D01*
X59139Y-22491D01*
X59158Y-22472D01*
X59195Y-22454D01*
X59289Y-22454D01*
X59326Y-22472D01*
X59345Y-22491D01*
X59364Y-22529D01*
X59364Y-22622D01*
X59345Y-22660D01*
X59326Y-22679D01*
X59289Y-22697D01*
X59195Y-22697D01*
X59158Y-22679D01*
X59139Y-22660D01*
X54745Y-18920D02*
X54561Y-18956D01*
X54484Y-18570D01*
X54833Y-18692D02*
X54962Y-18666D01*
X55057Y-18857D02*
X54874Y-18894D01*
X54796Y-18508D01*
X54980Y-18471D01*
X55223Y-18824D02*
X55146Y-18438D01*
X55238Y-18420D01*
X55297Y-18427D01*
X55341Y-18457D01*
X55366Y-18490D01*
X55399Y-18559D01*
X55410Y-18615D01*
X55407Y-18692D01*
X55396Y-18732D01*
X55366Y-18776D01*
X55315Y-18806D01*
X55223Y-18824D01*
X55495Y-18368D02*
X55734Y-18321D01*
X55635Y-18493D01*
X55690Y-18482D01*
X55730Y-18493D01*
X55752Y-18508D01*
X55778Y-18541D01*
X55797Y-18633D01*
X55785Y-18674D01*
X55771Y-18696D01*
X55738Y-18721D01*
X55627Y-18743D01*
X55587Y-18732D01*
X55565Y-18718D01*
X55888Y-18328D02*
X55903Y-18306D01*
X55936Y-18280D01*
X56028Y-18262D01*
X56069Y-18273D01*
X56091Y-18288D01*
X56116Y-18321D01*
X56124Y-18357D01*
X56116Y-18416D01*
X55940Y-18681D01*
X56179Y-18633D01*
X51193Y-20140D02*
X51019Y-20211D01*
X50869Y-19848D01*
X51235Y-19899D02*
X51356Y-19849D01*
X51487Y-20018D02*
X51314Y-20090D01*
X51163Y-19726D01*
X51336Y-19654D01*
X51643Y-19953D02*
X51492Y-19589D01*
X51579Y-19554D01*
X51638Y-19549D01*
X51687Y-19570D01*
X51719Y-19597D01*
X51765Y-19659D01*
X51786Y-19711D01*
X51798Y-19788D01*
X51795Y-19829D01*
X51774Y-19878D01*
X51730Y-19917D01*
X51643Y-19953D01*
X51821Y-19453D02*
X52047Y-19360D01*
X51983Y-19549D01*
X52035Y-19527D01*
X52077Y-19530D01*
X52101Y-19540D01*
X52133Y-19568D01*
X52169Y-19654D01*
X52166Y-19696D01*
X52155Y-19721D01*
X52128Y-19752D01*
X52024Y-19795D01*
X51982Y-19792D01*
X51958Y-19782D01*
X52544Y-19580D02*
X52336Y-19666D01*
X52440Y-19623D02*
X52289Y-19259D01*
X52276Y-19326D01*
X52256Y-19375D01*
X52228Y-19406D01*
X48028Y-21979D02*
X47872Y-22083D01*
X47653Y-21756D01*
X48022Y-21735D02*
X48131Y-21662D01*
X48292Y-21802D02*
X48137Y-21906D01*
X47918Y-21579D01*
X48073Y-21474D01*
X48433Y-21708D02*
X48214Y-21381D01*
X48292Y-21328D01*
X48349Y-21313D01*
X48401Y-21323D01*
X48437Y-21344D01*
X48494Y-21396D01*
X48526Y-21442D01*
X48552Y-21515D01*
X48557Y-21557D01*
X48547Y-21609D01*
X48511Y-21656D01*
X48433Y-21708D01*
X48510Y-21182D02*
X48712Y-21047D01*
X48687Y-21244D01*
X48733Y-21213D01*
X48775Y-21208D01*
X48801Y-21213D01*
X48837Y-21234D01*
X48889Y-21312D01*
X48895Y-21353D01*
X48890Y-21379D01*
X48869Y-21416D01*
X48775Y-21478D01*
X48734Y-21484D01*
X48708Y-21478D01*
X48915Y-20911D02*
X48946Y-20890D01*
X48987Y-20885D01*
X49013Y-20890D01*
X49050Y-20911D01*
X49107Y-20963D01*
X49159Y-21041D01*
X49185Y-21114D01*
X49191Y-21155D01*
X49186Y-21181D01*
X49165Y-21218D01*
X49134Y-21238D01*
X49092Y-21244D01*
X49066Y-21239D01*
X49030Y-21218D01*
X48972Y-21166D01*
X48920Y-21088D01*
X48894Y-21015D01*
X48889Y-20974D01*
X48894Y-20948D01*
X48915Y-20911D01*
X45164Y-24426D02*
X45032Y-24559D01*
X44753Y-24281D01*
X45111Y-24188D02*
X45204Y-24095D01*
X45390Y-24201D02*
X45257Y-24334D01*
X44979Y-24055D01*
X45111Y-23923D01*
X45509Y-24082D02*
X45231Y-23803D01*
X45297Y-23737D01*
X45350Y-23711D01*
X45403Y-23711D01*
X45443Y-23724D01*
X45509Y-23764D01*
X45549Y-23803D01*
X45588Y-23870D01*
X45602Y-23909D01*
X45602Y-23962D01*
X45575Y-24016D01*
X45509Y-24082D01*
X45522Y-23565D02*
X45522Y-23538D01*
X45535Y-23499D01*
X45602Y-23432D01*
X45641Y-23419D01*
X45668Y-23419D01*
X45708Y-23432D01*
X45734Y-23459D01*
X45761Y-23512D01*
X45761Y-23830D01*
X45933Y-23658D01*
X46066Y-23525D02*
X46119Y-23472D01*
X46132Y-23432D01*
X46132Y-23406D01*
X46119Y-23339D01*
X46079Y-23273D01*
X45973Y-23167D01*
X45933Y-23154D01*
X45907Y-23154D01*
X45867Y-23167D01*
X45814Y-23220D01*
X45801Y-23260D01*
X45801Y-23286D01*
X45814Y-23326D01*
X45880Y-23392D01*
X45920Y-23406D01*
X45946Y-23406D01*
X45986Y-23392D01*
X46039Y-23339D01*
X46052Y-23300D01*
X46052Y-23273D01*
X46039Y-23233D01*
X42870Y-27445D02*
X42766Y-27601D01*
X42438Y-27382D01*
X42771Y-27221D02*
X42844Y-27112D01*
X43047Y-27179D02*
X42943Y-27335D01*
X42615Y-27117D01*
X42719Y-26961D01*
X43140Y-27039D02*
X42813Y-26821D01*
X42865Y-26743D01*
X42912Y-26706D01*
X42964Y-26696D01*
X43005Y-26701D01*
X43078Y-26727D01*
X43125Y-26758D01*
X43177Y-26815D01*
X43198Y-26852D01*
X43208Y-26904D01*
X43192Y-26961D01*
X43140Y-27039D01*
X43052Y-26529D02*
X43047Y-26503D01*
X43052Y-26462D01*
X43104Y-26384D01*
X43141Y-26363D01*
X43167Y-26358D01*
X43208Y-26363D01*
X43239Y-26384D01*
X43276Y-26431D01*
X43338Y-26743D01*
X43473Y-26540D01*
X43411Y-26228D02*
X43375Y-26249D01*
X43349Y-26254D01*
X43307Y-26249D01*
X43291Y-26238D01*
X43271Y-26202D01*
X43265Y-26176D01*
X43271Y-26134D01*
X43312Y-26072D01*
X43349Y-26051D01*
X43375Y-26046D01*
X43416Y-26051D01*
X43432Y-26062D01*
X43453Y-26098D01*
X43458Y-26124D01*
X43453Y-26166D01*
X43411Y-26228D01*
X43406Y-26270D01*
X43411Y-26296D01*
X43432Y-26332D01*
X43494Y-26374D01*
X43536Y-26379D01*
X43562Y-26374D01*
X43598Y-26353D01*
X43640Y-26290D01*
X43645Y-26249D01*
X43640Y-26223D01*
X43619Y-26186D01*
X43557Y-26145D01*
X43515Y-26140D01*
X43489Y-26145D01*
X43453Y-26166D01*
X41293Y-30755D02*
X41221Y-30928D01*
X40857Y-30777D01*
X41153Y-30555D02*
X41203Y-30433D01*
X41415Y-30460D02*
X41343Y-30633D01*
X40979Y-30483D01*
X41051Y-30310D01*
X41479Y-30304D02*
X41116Y-30154D01*
X41152Y-30067D01*
X41190Y-30022D01*
X41239Y-30002D01*
X41281Y-29999D01*
X41358Y-30010D01*
X41410Y-30032D01*
X41472Y-30078D01*
X41499Y-30110D01*
X41520Y-30159D01*
X41515Y-30218D01*
X41479Y-30304D01*
X41294Y-29822D02*
X41284Y-29797D01*
X41281Y-29755D01*
X41317Y-29669D01*
X41348Y-29641D01*
X41373Y-29631D01*
X41415Y-29628D01*
X41449Y-29643D01*
X41494Y-29681D01*
X41616Y-29975D01*
X41709Y-29750D01*
X41396Y-29478D02*
X41496Y-29236D01*
X41795Y-29542D01*
X40328Y-34279D02*
X40291Y-34463D01*
X39905Y-34386D01*
X40151Y-34110D02*
X40176Y-33981D01*
X40390Y-33966D02*
X40353Y-34150D01*
X39967Y-34074D01*
X40003Y-33890D01*
X40422Y-33801D02*
X40036Y-33724D01*
X40054Y-33632D01*
X40084Y-33581D01*
X40128Y-33551D01*
X40168Y-33540D01*
X40245Y-33536D01*
X40300Y-33547D01*
X40370Y-33580D01*
X40404Y-33606D01*
X40433Y-33650D01*
X40441Y-33709D01*
X40422Y-33801D01*
X40146Y-33364D02*
X40131Y-33342D01*
X40120Y-33301D01*
X40138Y-33209D01*
X40164Y-33176D01*
X40186Y-33162D01*
X40226Y-33150D01*
X40263Y-33158D01*
X40314Y-33187D01*
X40491Y-33451D01*
X40539Y-33212D01*
X40218Y-32805D02*
X40204Y-32878D01*
X40215Y-32919D01*
X40229Y-32941D01*
X40277Y-32989D01*
X40347Y-33021D01*
X40494Y-33051D01*
X40535Y-33040D01*
X40557Y-33025D01*
X40583Y-32992D01*
X40597Y-32918D01*
X40586Y-32878D01*
X40571Y-32856D01*
X40538Y-32830D01*
X40446Y-32812D01*
X40406Y-32823D01*
X40384Y-32838D01*
X40358Y-32871D01*
X40343Y-32944D01*
X40355Y-32985D01*
X40369Y-33007D01*
X40402Y-33032D01*
X40091Y-38045D02*
X40091Y-38232D01*
X39697Y-38232D01*
X39885Y-37914D02*
X39885Y-37782D01*
X40091Y-37726D02*
X40091Y-37914D01*
X39697Y-37914D01*
X39697Y-37726D01*
X40091Y-37557D02*
X39697Y-37557D01*
X39697Y-37464D01*
X39716Y-37407D01*
X39754Y-37370D01*
X39791Y-37351D01*
X39866Y-37332D01*
X39922Y-37332D01*
X39997Y-37351D01*
X40035Y-37370D01*
X40072Y-37407D01*
X40091Y-37464D01*
X40091Y-37557D01*
X39735Y-37182D02*
X39716Y-37164D01*
X39697Y-37126D01*
X39697Y-37032D01*
X39716Y-36995D01*
X39735Y-36976D01*
X39772Y-36958D01*
X39810Y-36958D01*
X39866Y-36976D01*
X40091Y-37201D01*
X40091Y-36958D01*
X39697Y-36601D02*
X39697Y-36789D01*
X39885Y-36808D01*
X39866Y-36789D01*
X39847Y-36751D01*
X39847Y-36658D01*
X39866Y-36620D01*
X39885Y-36601D01*
X39922Y-36583D01*
X40016Y-36583D01*
X40053Y-36601D01*
X40072Y-36620D01*
X40091Y-36658D01*
X40091Y-36751D01*
X40072Y-36789D01*
X40053Y-36808D01*
X39938Y-40631D02*
X39902Y-40448D01*
X40288Y-40371D01*
X40166Y-40720D02*
X40192Y-40848D01*
X40001Y-40944D02*
X39964Y-40760D01*
X40350Y-40683D01*
X40387Y-40867D01*
X40034Y-41109D02*
X40420Y-41032D01*
X40438Y-41124D01*
X40431Y-41183D01*
X40402Y-41227D01*
X40369Y-41253D01*
X40299Y-41286D01*
X40243Y-41297D01*
X40166Y-41293D01*
X40126Y-41282D01*
X40082Y-41253D01*
X40052Y-41201D01*
X40034Y-41109D01*
X40457Y-41407D02*
X40479Y-41422D01*
X40505Y-41455D01*
X40523Y-41547D01*
X40512Y-41588D01*
X40497Y-41610D01*
X40464Y-41635D01*
X40427Y-41643D01*
X40368Y-41635D01*
X40104Y-41459D01*
X40152Y-41698D01*
X40475Y-41977D02*
X40218Y-42029D01*
X40604Y-41856D02*
X40310Y-41819D01*
X40357Y-42058D01*
X40889Y-44243D02*
X40817Y-44070D01*
X41181Y-43919D01*
X41130Y-44285D02*
X41180Y-44406D01*
X41011Y-44537D02*
X40939Y-44364D01*
X41303Y-44213D01*
X41375Y-44387D01*
X41076Y-44693D02*
X41439Y-44542D01*
X41475Y-44629D01*
X41479Y-44688D01*
X41459Y-44737D01*
X41432Y-44769D01*
X41369Y-44815D01*
X41318Y-44836D01*
X41241Y-44848D01*
X41199Y-44845D01*
X41150Y-44825D01*
X41111Y-44780D01*
X41076Y-44693D01*
X41548Y-44903D02*
X41573Y-44913D01*
X41604Y-44941D01*
X41640Y-45027D01*
X41637Y-45069D01*
X41627Y-45094D01*
X41600Y-45125D01*
X41565Y-45140D01*
X41506Y-45144D01*
X41212Y-45022D01*
X41305Y-45247D01*
X41719Y-45218D02*
X41812Y-45443D01*
X41624Y-45379D01*
X41645Y-45431D01*
X41642Y-45473D01*
X41632Y-45498D01*
X41604Y-45529D01*
X41518Y-45565D01*
X41476Y-45562D01*
X41452Y-45552D01*
X41420Y-45524D01*
X41377Y-45421D01*
X41380Y-45379D01*
X41390Y-45354D01*
X42555Y-47641D02*
X42451Y-47486D01*
X42778Y-47267D01*
X42799Y-47636D02*
X42872Y-47745D01*
X42732Y-47906D02*
X42628Y-47751D01*
X42955Y-47532D01*
X43059Y-47687D01*
X42826Y-48047D02*
X43153Y-47828D01*
X43205Y-47905D01*
X43221Y-47963D01*
X43211Y-48015D01*
X43190Y-48051D01*
X43138Y-48108D01*
X43092Y-48140D01*
X43019Y-48166D01*
X42977Y-48171D01*
X42925Y-48161D01*
X42878Y-48124D01*
X42826Y-48047D01*
X43331Y-48160D02*
X43357Y-48165D01*
X43393Y-48186D01*
X43445Y-48264D01*
X43451Y-48305D01*
X43445Y-48331D01*
X43425Y-48368D01*
X43394Y-48389D01*
X43336Y-48404D01*
X43024Y-48343D01*
X43160Y-48545D01*
X43539Y-48472D02*
X43565Y-48477D01*
X43602Y-48497D01*
X43654Y-48575D01*
X43659Y-48617D01*
X43654Y-48643D01*
X43633Y-48679D01*
X43602Y-48700D01*
X43545Y-48716D01*
X43233Y-48654D01*
X43369Y-48857D01*
X44957Y-50689D02*
X44824Y-50557D01*
X45103Y-50278D01*
X45196Y-50636D02*
X45288Y-50729D01*
X45182Y-50915D02*
X45050Y-50782D01*
X45328Y-50504D01*
X45461Y-50636D01*
X45302Y-51034D02*
X45580Y-50755D01*
X45646Y-50822D01*
X45673Y-50875D01*
X45673Y-50928D01*
X45660Y-50968D01*
X45620Y-51034D01*
X45580Y-51074D01*
X45514Y-51113D01*
X45474Y-51127D01*
X45421Y-51127D01*
X45368Y-51100D01*
X45302Y-51034D01*
X45819Y-51047D02*
X45845Y-51047D01*
X45885Y-51060D01*
X45951Y-51127D01*
X45965Y-51166D01*
X45965Y-51193D01*
X45951Y-51233D01*
X45925Y-51259D01*
X45872Y-51286D01*
X45554Y-51286D01*
X45726Y-51458D01*
X45991Y-51723D02*
X45832Y-51564D01*
X45912Y-51644D02*
X46190Y-51365D01*
X46124Y-51379D01*
X46071Y-51379D01*
X46031Y-51365D01*
X47819Y-53201D02*
X47663Y-53097D01*
X47882Y-52769D01*
X48043Y-53102D02*
X48152Y-53175D01*
X48084Y-53378D02*
X47928Y-53274D01*
X48147Y-52946D01*
X48303Y-53050D01*
X48225Y-53471D02*
X48443Y-53144D01*
X48521Y-53196D01*
X48557Y-53243D01*
X48568Y-53295D01*
X48563Y-53336D01*
X48537Y-53409D01*
X48505Y-53456D01*
X48448Y-53508D01*
X48412Y-53528D01*
X48360Y-53539D01*
X48303Y-53523D01*
X48225Y-53471D01*
X48734Y-53383D02*
X48760Y-53378D01*
X48802Y-53383D01*
X48880Y-53435D01*
X48901Y-53471D01*
X48906Y-53497D01*
X48901Y-53539D01*
X48880Y-53570D01*
X48833Y-53607D01*
X48521Y-53669D01*
X48724Y-53804D01*
X49145Y-53612D02*
X49176Y-53633D01*
X49197Y-53669D01*
X49202Y-53695D01*
X49197Y-53737D01*
X49171Y-53809D01*
X49119Y-53887D01*
X49062Y-53939D01*
X49025Y-53960D01*
X48999Y-53965D01*
X48958Y-53960D01*
X48927Y-53939D01*
X48906Y-53903D01*
X48901Y-53877D01*
X48906Y-53835D01*
X48932Y-53763D01*
X48984Y-53685D01*
X49041Y-53633D01*
X49077Y-53612D01*
X49103Y-53607D01*
X49145Y-53612D01*
X51087Y-55050D02*
X50914Y-54978D01*
X51065Y-54614D01*
X51287Y-54909D02*
X51409Y-54960D01*
X51382Y-55172D02*
X51209Y-55100D01*
X51359Y-54736D01*
X51532Y-54808D01*
X51538Y-55236D02*
X51688Y-54872D01*
X51775Y-54908D01*
X51820Y-54947D01*
X51840Y-54996D01*
X51843Y-55038D01*
X51832Y-55114D01*
X51810Y-55166D01*
X51764Y-55229D01*
X51732Y-55256D01*
X51683Y-55276D01*
X51624Y-55272D01*
X51538Y-55236D01*
X52092Y-55466D02*
X51884Y-55380D01*
X51988Y-55423D02*
X52139Y-55059D01*
X52082Y-55097D01*
X52034Y-55117D01*
X51992Y-55120D01*
X52265Y-55538D02*
X52334Y-55566D01*
X52376Y-55563D01*
X52401Y-55553D01*
X52457Y-55516D01*
X52503Y-55453D01*
X52560Y-55315D01*
X52557Y-55273D01*
X52547Y-55249D01*
X52520Y-55217D01*
X52450Y-55188D01*
X52409Y-55191D01*
X52384Y-55201D01*
X52352Y-55229D01*
X52317Y-55315D01*
X52320Y-55357D01*
X52330Y-55382D01*
X52357Y-55413D01*
X52426Y-55442D01*
X52468Y-55439D01*
X52493Y-55429D01*
X52524Y-55401D01*
X54640Y-56273D02*
X54456Y-56236D01*
X54533Y-55850D01*
X54809Y-56096D02*
X54938Y-56121D01*
X54953Y-56335D02*
X54769Y-56298D01*
X54845Y-55912D01*
X55029Y-55948D01*
X55118Y-56367D02*
X55195Y-55981D01*
X55287Y-55999D01*
X55338Y-56029D01*
X55368Y-56073D01*
X55379Y-56113D01*
X55383Y-56190D01*
X55372Y-56246D01*
X55339Y-56315D01*
X55313Y-56349D01*
X55269Y-56378D01*
X55210Y-56386D01*
X55118Y-56367D01*
X55707Y-56484D02*
X55486Y-56440D01*
X55596Y-56462D02*
X55673Y-56076D01*
X55625Y-56124D01*
X55581Y-56153D01*
X55541Y-56164D01*
X55971Y-56307D02*
X55938Y-56281D01*
X55923Y-56259D01*
X55912Y-56219D01*
X55916Y-56200D01*
X55942Y-56167D01*
X55964Y-56153D01*
X56004Y-56141D01*
X56078Y-56156D01*
X56111Y-56182D01*
X56125Y-56204D01*
X56137Y-56244D01*
X56133Y-56262D01*
X56107Y-56296D01*
X56085Y-56310D01*
X56045Y-56321D01*
X55971Y-56307D01*
X55931Y-56318D01*
X55909Y-56333D01*
X55883Y-56366D01*
X55869Y-56439D01*
X55880Y-56480D01*
X55894Y-56502D01*
X55928Y-56528D01*
X56001Y-56542D01*
X56041Y-56531D01*
X56064Y-56516D01*
X56089Y-56483D01*
X56104Y-56410D01*
X56093Y-56369D01*
X56078Y-56347D01*
X56045Y-56321D01*
X58442Y-56772D02*
X58255Y-56772D01*
X58255Y-56378D01*
X58574Y-56566D02*
X58705Y-56566D01*
X58761Y-56772D02*
X58574Y-56772D01*
X58574Y-56378D01*
X58761Y-56378D01*
X58930Y-56772D02*
X58930Y-56378D01*
X59023Y-56378D01*
X59080Y-56397D01*
X59117Y-56435D01*
X59136Y-56472D01*
X59155Y-56547D01*
X59155Y-56603D01*
X59136Y-56678D01*
X59117Y-56716D01*
X59080Y-56753D01*
X59023Y-56772D01*
X58930Y-56772D01*
X59530Y-56772D02*
X59305Y-56772D01*
X59417Y-56772D02*
X59417Y-56378D01*
X59380Y-56435D01*
X59342Y-56472D01*
X59305Y-56491D01*
X59661Y-56378D02*
X59923Y-56378D01*
X59755Y-56772D01*
X62219Y-56489D02*
X62036Y-56527D01*
X61956Y-56141D01*
X62306Y-56261D02*
X62435Y-56234D01*
X62532Y-56425D02*
X62348Y-56463D01*
X62269Y-56077D01*
X62452Y-56039D01*
X62697Y-56391D02*
X62618Y-56006D01*
X62709Y-55987D01*
X62768Y-55994D01*
X62813Y-56023D01*
X62838Y-56056D01*
X62872Y-56126D01*
X62883Y-56181D01*
X62880Y-56258D01*
X62869Y-56298D01*
X62840Y-56343D01*
X62789Y-56372D01*
X62697Y-56391D01*
X63284Y-56271D02*
X63064Y-56316D01*
X63174Y-56293D02*
X63095Y-55908D01*
X63070Y-55970D01*
X63040Y-56014D01*
X63008Y-56040D01*
X63536Y-55817D02*
X63462Y-55832D01*
X63429Y-55858D01*
X63415Y-55880D01*
X63389Y-55943D01*
X63386Y-56020D01*
X63416Y-56167D01*
X63442Y-56200D01*
X63464Y-56215D01*
X63505Y-56225D01*
X63578Y-56210D01*
X63611Y-56184D01*
X63626Y-56162D01*
X63637Y-56122D01*
X63618Y-56030D01*
X63592Y-55997D01*
X63570Y-55982D01*
X63529Y-55972D01*
X63456Y-55987D01*
X63423Y-56013D01*
X63408Y-56035D01*
X63397Y-56075D01*
X65848Y-55517D02*
X65675Y-55590D01*
X65522Y-55227D01*
X65889Y-55276D02*
X66010Y-55225D01*
X66142Y-55394D02*
X65969Y-55466D01*
X65816Y-55104D01*
X65989Y-55031D01*
X66297Y-55328D02*
X66145Y-54965D01*
X66231Y-54929D01*
X66290Y-54925D01*
X66339Y-54945D01*
X66371Y-54972D01*
X66417Y-55034D01*
X66439Y-55086D01*
X66451Y-55162D01*
X66448Y-55204D01*
X66428Y-55253D01*
X66384Y-55292D01*
X66297Y-55328D01*
X66850Y-55096D02*
X66643Y-55183D01*
X66747Y-55140D02*
X66594Y-54777D01*
X66581Y-54843D01*
X66561Y-54892D01*
X66534Y-54924D01*
X67026Y-54595D02*
X66853Y-54668D01*
X66909Y-54848D01*
X66919Y-54823D01*
X66946Y-54791D01*
X67032Y-54755D01*
X67074Y-54758D01*
X67099Y-54768D01*
X67130Y-54795D01*
X67167Y-54881D01*
X67164Y-54923D01*
X67154Y-54948D01*
X67127Y-54980D01*
X67040Y-55016D01*
X66998Y-55013D01*
X66974Y-55003D01*
X69228Y-53872D02*
X69073Y-53977D01*
X68852Y-53651D01*
X69222Y-53628D02*
X69330Y-53555D01*
X69492Y-53694D02*
X69337Y-53799D01*
X69117Y-53473D01*
X69272Y-53368D01*
X69632Y-53600D02*
X69412Y-53273D01*
X69490Y-53221D01*
X69547Y-53205D01*
X69599Y-53215D01*
X69635Y-53236D01*
X69693Y-53287D01*
X69724Y-53334D01*
X69751Y-53407D01*
X69756Y-53448D01*
X69746Y-53500D01*
X69710Y-53547D01*
X69632Y-53600D01*
X70129Y-53264D02*
X69943Y-53390D01*
X70036Y-53327D02*
X69816Y-53001D01*
X69816Y-53068D01*
X69806Y-53120D01*
X69786Y-53157D01*
X70262Y-52858D02*
X70409Y-53076D01*
X70101Y-52786D02*
X70180Y-53072D01*
X70382Y-52935D01*
X72320Y-51495D02*
X72188Y-51628D01*
X71909Y-51350D01*
X72267Y-51257D02*
X72359Y-51164D01*
X72545Y-51270D02*
X72413Y-51402D01*
X72134Y-51124D01*
X72266Y-50992D01*
X72664Y-51150D02*
X72385Y-50872D01*
X72451Y-50806D01*
X72504Y-50779D01*
X72558Y-50779D01*
X72597Y-50792D01*
X72664Y-50832D01*
X72703Y-50872D01*
X72743Y-50938D01*
X72757Y-50978D01*
X72757Y-51031D01*
X72730Y-51084D01*
X72664Y-51150D01*
X73088Y-50725D02*
X72929Y-50884D01*
X73008Y-50805D02*
X72729Y-50527D01*
X72743Y-50593D01*
X72743Y-50646D01*
X72730Y-50686D01*
X72901Y-50354D02*
X73073Y-50182D01*
X73087Y-50380D01*
X73127Y-50341D01*
X73167Y-50327D01*
X73193Y-50327D01*
X73233Y-50340D01*
X73299Y-50407D01*
X73313Y-50446D01*
X73313Y-50473D01*
X73299Y-50513D01*
X73220Y-50592D01*
X73180Y-50606D01*
X73154Y-50606D01*
X74768Y-48692D02*
X74664Y-48848D01*
X74336Y-48629D01*
X74669Y-48468D02*
X74742Y-48359D01*
X74945Y-48427D02*
X74841Y-48583D01*
X74513Y-48364D01*
X74617Y-48208D01*
X75038Y-48286D02*
X74711Y-48068D01*
X74763Y-47990D01*
X74809Y-47953D01*
X74861Y-47943D01*
X74903Y-47948D01*
X74976Y-47974D01*
X75023Y-48005D01*
X75075Y-48063D01*
X75095Y-48099D01*
X75106Y-48151D01*
X75090Y-48208D01*
X75038Y-48286D01*
X75371Y-47787D02*
X75246Y-47974D01*
X75309Y-47881D02*
X74981Y-47662D01*
X75007Y-47725D01*
X75017Y-47777D01*
X75012Y-47818D01*
X75158Y-47465D02*
X75153Y-47439D01*
X75158Y-47397D01*
X75210Y-47319D01*
X75246Y-47298D01*
X75272Y-47293D01*
X75314Y-47298D01*
X75345Y-47319D01*
X75381Y-47366D01*
X75444Y-47678D01*
X75579Y-47475D01*
X76714Y-45388D02*
X76642Y-45561D01*
X76278Y-45410D01*
X76574Y-45188D02*
X76624Y-45066D01*
X76836Y-45094D02*
X76764Y-45267D01*
X76401Y-45115D01*
X76473Y-44942D01*
X76901Y-44938D02*
X76538Y-44787D01*
X76574Y-44700D01*
X76613Y-44655D01*
X76662Y-44635D01*
X76704Y-44632D01*
X76780Y-44644D01*
X76832Y-44665D01*
X76894Y-44712D01*
X76921Y-44743D01*
X76942Y-44792D01*
X76937Y-44851D01*
X76901Y-44938D01*
X77132Y-44384D02*
X77045Y-44592D01*
X77089Y-44488D02*
X76725Y-44337D01*
X76763Y-44393D01*
X76783Y-44442D01*
X76786Y-44484D01*
X77276Y-44038D02*
X77189Y-44246D01*
X77233Y-44142D02*
X76869Y-43990D01*
X76907Y-44047D01*
X76927Y-44096D01*
X76930Y-44138D01*
X77949Y-41796D02*
X77912Y-41980D01*
X77526Y-41903D01*
X77772Y-41627D02*
X77798Y-41498D01*
X78011Y-41483D02*
X77974Y-41667D01*
X77588Y-41590D01*
X77625Y-41406D01*
X78044Y-41318D02*
X77658Y-41241D01*
X77677Y-41149D01*
X77706Y-41097D01*
X77750Y-41068D01*
X77790Y-41057D01*
X77868Y-41053D01*
X77923Y-41064D01*
X77993Y-41097D01*
X78026Y-41123D01*
X78055Y-41167D01*
X78063Y-41226D01*
X78044Y-41318D01*
X78162Y-40730D02*
X78118Y-40950D01*
X78140Y-40840D02*
X77754Y-40763D01*
X77801Y-40811D01*
X77831Y-40855D01*
X77842Y-40895D01*
X77823Y-40414D02*
X77831Y-40377D01*
X77857Y-40344D01*
X77879Y-40329D01*
X77919Y-40318D01*
X77996Y-40314D01*
X78088Y-40333D01*
X78158Y-40366D01*
X78191Y-40391D01*
X78206Y-40413D01*
X78217Y-40454D01*
X78210Y-40491D01*
X78184Y-40524D01*
X78162Y-40538D01*
X78121Y-40550D01*
X78044Y-40553D01*
X77952Y-40535D01*
X77882Y-40502D01*
X77849Y-40476D01*
X77835Y-40454D01*
X77823Y-40414D01*
X78473Y-37814D02*
X78473Y-38002D01*
X78079Y-38002D01*
X78267Y-37683D02*
X78267Y-37552D01*
X78473Y-37495D02*
X78473Y-37683D01*
X78079Y-37683D01*
X78079Y-37495D01*
X78473Y-37327D02*
X78079Y-37327D01*
X78079Y-37233D01*
X78098Y-37177D01*
X78135Y-37139D01*
X78173Y-37120D01*
X78248Y-37102D01*
X78304Y-37102D01*
X78379Y-37120D01*
X78417Y-37139D01*
X78454Y-37177D01*
X78473Y-37233D01*
X78473Y-37327D01*
X78473Y-36914D02*
X78473Y-36839D01*
X78454Y-36802D01*
X78435Y-36783D01*
X78379Y-36745D01*
X78304Y-36727D01*
X78154Y-36727D01*
X78117Y-36745D01*
X78098Y-36764D01*
X78079Y-36802D01*
X78079Y-36877D01*
X78098Y-36914D01*
X78117Y-36933D01*
X78154Y-36952D01*
X78248Y-36952D01*
X78285Y-36933D01*
X78304Y-36914D01*
X78323Y-36877D01*
X78323Y-36802D01*
X78304Y-36764D01*
X78285Y-36745D01*
X78248Y-36727D01*
X77586Y-33208D02*
X77549Y-33024D01*
X77935Y-32948D01*
X77813Y-33297D02*
X77839Y-33426D01*
X77648Y-33521D02*
X77611Y-33337D01*
X77997Y-33260D01*
X78034Y-33444D01*
X77680Y-33686D02*
X78067Y-33610D01*
X78085Y-33702D01*
X78077Y-33761D01*
X78048Y-33805D01*
X78015Y-33830D01*
X77945Y-33863D01*
X77890Y-33874D01*
X77812Y-33870D01*
X77772Y-33859D01*
X77728Y-33830D01*
X77699Y-33778D01*
X77680Y-33686D01*
X77988Y-34084D02*
X78000Y-34044D01*
X78014Y-34022D01*
X78047Y-33996D01*
X78066Y-33992D01*
X78106Y-34003D01*
X78128Y-34018D01*
X78154Y-34051D01*
X78169Y-34125D01*
X78157Y-34165D01*
X78143Y-34187D01*
X78110Y-34213D01*
X78091Y-34217D01*
X78051Y-34205D01*
X78029Y-34191D01*
X78003Y-34158D01*
X77988Y-34084D01*
X77963Y-34051D01*
X77941Y-34036D01*
X77900Y-34025D01*
X77827Y-34040D01*
X77794Y-34065D01*
X77779Y-34087D01*
X77768Y-34128D01*
X77782Y-34201D01*
X77808Y-34234D01*
X77830Y-34249D01*
X77870Y-34260D01*
X77944Y-34246D01*
X77977Y-34220D01*
X77992Y-34198D01*
X78003Y-34158D01*
X76426Y-29673D02*
X76354Y-29500D01*
X76717Y-29349D01*
X76666Y-29715D02*
X76717Y-29836D01*
X76548Y-29967D02*
X76476Y-29794D01*
X76840Y-29643D01*
X76912Y-29816D01*
X76613Y-30123D02*
X76976Y-29972D01*
X77012Y-30058D01*
X77017Y-30117D01*
X76997Y-30166D01*
X76969Y-30198D01*
X76907Y-30244D01*
X76855Y-30266D01*
X76779Y-30277D01*
X76737Y-30274D01*
X76688Y-30254D01*
X76649Y-30210D01*
X76613Y-30123D01*
X77113Y-30301D02*
X77214Y-30543D01*
X76786Y-30538D01*
X74563Y-26402D02*
X74459Y-26246D01*
X74786Y-26027D01*
X74807Y-26396D02*
X74880Y-26505D01*
X74740Y-26667D02*
X74636Y-26511D01*
X74963Y-26292D01*
X75068Y-26448D01*
X74834Y-26807D02*
X75161Y-26588D01*
X75214Y-26666D01*
X75229Y-26723D01*
X75219Y-26775D01*
X75198Y-26811D01*
X75146Y-26869D01*
X75100Y-26900D01*
X75027Y-26926D01*
X74985Y-26931D01*
X74933Y-26921D01*
X74886Y-26885D01*
X74834Y-26807D01*
X75474Y-27055D02*
X75433Y-26993D01*
X75396Y-26972D01*
X75370Y-26967D01*
X75303Y-26967D01*
X75230Y-26993D01*
X75105Y-27077D01*
X75084Y-27113D01*
X75079Y-27139D01*
X75085Y-27181D01*
X75126Y-27243D01*
X75163Y-27264D01*
X75189Y-27269D01*
X75230Y-27264D01*
X75308Y-27211D01*
X75329Y-27175D01*
X75334Y-27149D01*
X75329Y-27107D01*
X75287Y-27045D01*
X75251Y-27024D01*
X75225Y-27019D01*
X75183Y-27025D01*
X72074Y-23633D02*
X71941Y-23500D01*
X72220Y-23222D01*
X72312Y-23580D02*
X72405Y-23673D01*
X72299Y-23858D02*
X72167Y-23726D01*
X72445Y-23447D01*
X72578Y-23580D01*
X72419Y-23977D02*
X72697Y-23699D01*
X72763Y-23765D01*
X72790Y-23818D01*
X72790Y-23871D01*
X72776Y-23911D01*
X72737Y-23977D01*
X72697Y-24017D01*
X72631Y-24057D01*
X72591Y-24070D01*
X72538Y-24070D01*
X72485Y-24044D01*
X72419Y-23977D01*
X73108Y-24110D02*
X72975Y-23977D01*
X72829Y-24097D01*
X72856Y-24097D01*
X72896Y-24110D01*
X72962Y-24176D01*
X72975Y-24216D01*
X72975Y-24243D01*
X72962Y-24282D01*
X72896Y-24349D01*
X72856Y-24362D01*
X72829Y-24362D01*
X72790Y-24349D01*
X72723Y-24282D01*
X72710Y-24243D01*
X72710Y-24216D01*
X69223Y-21351D02*
X69068Y-21247D01*
X69287Y-20920D01*
X69447Y-21253D02*
X69556Y-21326D01*
X69488Y-21529D02*
X69332Y-21424D01*
X69551Y-21097D01*
X69707Y-21201D01*
X69628Y-21622D02*
X69847Y-21295D01*
X69925Y-21347D01*
X69962Y-21394D01*
X69972Y-21446D01*
X69967Y-21488D01*
X69940Y-21561D01*
X69909Y-21607D01*
X69852Y-21659D01*
X69815Y-21680D01*
X69763Y-21690D01*
X69706Y-21675D01*
X69628Y-21622D01*
X70242Y-21717D02*
X70096Y-21935D01*
X70247Y-21540D02*
X70013Y-21722D01*
X70215Y-21858D01*
X65914Y-19661D02*
X65741Y-19589D01*
X65892Y-19225D01*
X66114Y-19520D02*
X66235Y-19571D01*
X66209Y-19783D02*
X66035Y-19711D01*
X66186Y-19347D01*
X66359Y-19419D01*
X66364Y-19847D02*
X66515Y-19484D01*
X66602Y-19519D01*
X66646Y-19558D01*
X66667Y-19607D01*
X66670Y-19649D01*
X66658Y-19726D01*
X66637Y-19778D01*
X66591Y-19840D01*
X66559Y-19867D01*
X66510Y-19887D01*
X66451Y-19883D01*
X66364Y-19847D01*
X66844Y-19620D02*
X67069Y-19713D01*
X66891Y-19802D01*
X66943Y-19823D01*
X66970Y-19855D01*
X66980Y-19879D01*
X66983Y-19921D01*
X66947Y-20008D01*
X66916Y-20035D01*
X66891Y-20045D01*
X66849Y-20048D01*
X66745Y-20005D01*
X66718Y-19974D01*
X66708Y-19949D01*
X62308Y-18674D02*
X62124Y-18638D01*
X62201Y-18252D01*
X62477Y-18498D02*
X62606Y-18524D01*
X62621Y-18737D02*
X62437Y-18700D01*
X62514Y-18314D01*
X62698Y-18351D01*
X62786Y-18770D02*
X62863Y-18384D01*
X62955Y-18402D01*
X63007Y-18432D01*
X63036Y-18476D01*
X63047Y-18516D01*
X63051Y-18593D01*
X63040Y-18649D01*
X63007Y-18718D01*
X62981Y-18752D01*
X62937Y-18781D01*
X62878Y-18788D01*
X62786Y-18770D01*
X63224Y-18494D02*
X63246Y-18479D01*
X63286Y-18468D01*
X63378Y-18487D01*
X63411Y-18512D01*
X63426Y-18535D01*
X63437Y-18575D01*
X63430Y-18612D01*
X63400Y-18663D01*
X63135Y-18840D01*
X63374Y-18888D01*
X58614Y-18402D02*
X58427Y-18402D01*
X58427Y-18008D01*
X58745Y-18196D02*
X58877Y-18196D01*
X58933Y-18402D02*
X58745Y-18402D01*
X58745Y-18008D01*
X58933Y-18008D01*
X59101Y-18402D02*
X59101Y-18008D01*
X59195Y-18008D01*
X59251Y-18027D01*
X59289Y-18065D01*
X59308Y-18102D01*
X59326Y-18177D01*
X59326Y-18233D01*
X59308Y-18308D01*
X59289Y-18346D01*
X59251Y-18383D01*
X59195Y-18402D01*
X59101Y-18402D01*
X59701Y-18402D02*
X59476Y-18402D01*
X59589Y-18402D02*
X59589Y-18008D01*
X59551Y-18065D01*
X59514Y-18102D01*
X59476Y-18121D01*
%LPC*%
G54D14*
X64246Y-25308D03*
X63128Y-25319D03*
X63808Y-26207D03*
X62690Y-26218D03*
X54845Y-24870D03*
X54165Y-25758D03*
X55283Y-25769D03*
X54603Y-26657D03*
G54D15*
X57562Y-51232D03*
X58562Y-51232D03*
X59562Y-51232D03*
X60562Y-51232D03*
G54D10*
G36*
X54918Y-37960D02*
X53856Y-38478D01*
X53597Y-37947D01*
X54659Y-37429D01*
X54918Y-37960D01*
X54918Y-37960D01*
G37*
G36*
X54479Y-37061D02*
X53418Y-37579D01*
X53159Y-37048D01*
X54220Y-36530D01*
X54479Y-37061D01*
X54479Y-37061D01*
G37*
G36*
X56291Y-36734D02*
X55229Y-37252D01*
X54970Y-36721D01*
X56032Y-36203D01*
X56291Y-36734D01*
X56291Y-36734D01*
G37*
G36*
X55852Y-35835D02*
X54791Y-36353D01*
X54532Y-35822D01*
X55594Y-35304D01*
X55852Y-35835D01*
X55852Y-35835D01*
G37*
G36*
X62744Y-37701D02*
X61682Y-37183D01*
X61941Y-36653D01*
X63002Y-37170D01*
X62744Y-37701D01*
X62744Y-37701D01*
G37*
G36*
X63182Y-36802D02*
X62120Y-36285D01*
X62379Y-35754D01*
X63441Y-36272D01*
X63182Y-36802D01*
X63182Y-36802D01*
G37*
G36*
X64555Y-38028D02*
X63494Y-37511D01*
X63752Y-36980D01*
X64814Y-37498D01*
X64555Y-38028D01*
X64555Y-38028D01*
G37*
G36*
X64993Y-37130D02*
X63932Y-36612D01*
X64191Y-36081D01*
X65252Y-36599D01*
X64993Y-37130D01*
X64993Y-37130D01*
G37*
G54D16*
X59903Y-35503D03*
X59403Y-36003D03*
X59903Y-36003D03*
X59403Y-36503D03*
X59903Y-36503D03*
G54D17*
X59403Y-35503D03*
G54D16*
X59403Y-35503D03*
G54D18*
X56606Y-38047D03*
G54D19*
X57606Y-38047D03*
X58606Y-38047D03*
X59606Y-38047D03*
X60606Y-38047D03*
X61606Y-38047D03*
G54D10*
G36*
X56543Y-21516D02*
X56659Y-22095D01*
X56158Y-22195D01*
X56042Y-21616D01*
X56543Y-21516D01*
X56543Y-21516D01*
G37*
G36*
X55810Y-21663D02*
X55925Y-22241D01*
X55424Y-22341D01*
X55309Y-21763D01*
X55810Y-21663D01*
X55810Y-21663D01*
G37*
G36*
X53500Y-22321D02*
X53725Y-22866D01*
X53253Y-23061D01*
X53028Y-22516D01*
X53500Y-22321D01*
X53500Y-22321D01*
G37*
G36*
X52809Y-22607D02*
X53034Y-23152D01*
X52562Y-23348D01*
X52337Y-22803D01*
X52809Y-22607D01*
X52809Y-22607D01*
G37*
G36*
X50634Y-23735D02*
X50962Y-24225D01*
X50538Y-24509D01*
X50209Y-24019D01*
X50634Y-23735D01*
X50634Y-23735D01*
G37*
G36*
X50013Y-24151D02*
X50341Y-24641D01*
X49916Y-24926D01*
X49588Y-24435D01*
X50013Y-24151D01*
X50013Y-24151D01*
G37*
G36*
X48149Y-25606D02*
X48567Y-26023D01*
X48205Y-26384D01*
X47788Y-25967D01*
X48149Y-25606D01*
X48149Y-25606D01*
G37*
G36*
X47620Y-26135D02*
X48038Y-26552D01*
X47676Y-26913D01*
X47259Y-26496D01*
X47620Y-26135D01*
X47620Y-26135D01*
G37*
G36*
X46068Y-27974D02*
X46559Y-28301D01*
X46275Y-28726D01*
X45784Y-28399D01*
X46068Y-27974D01*
X46068Y-27974D01*
G37*
G36*
X45653Y-28596D02*
X46144Y-28923D01*
X45860Y-29348D01*
X45369Y-29021D01*
X45653Y-28596D01*
X45653Y-28596D01*
G37*
G36*
X44476Y-30683D02*
X45021Y-30909D01*
X44825Y-31381D01*
X44280Y-31155D01*
X44476Y-30683D01*
X44476Y-30683D01*
G37*
G36*
X44189Y-31374D02*
X44735Y-31600D01*
X44539Y-32072D01*
X43994Y-31846D01*
X44189Y-31374D01*
X44189Y-31374D01*
G37*
G36*
X43435Y-33675D02*
X44014Y-33790D01*
X43914Y-34291D01*
X43335Y-34176D01*
X43435Y-33675D01*
X43435Y-33675D01*
G37*
G36*
X43289Y-34409D02*
X43868Y-34523D01*
X43769Y-35025D01*
X43190Y-34910D01*
X43289Y-34409D01*
X43289Y-34409D01*
G37*
G54D20*
X43307Y-37027D03*
X43307Y-37775D03*
G54D10*
G36*
X43189Y-39912D02*
X43768Y-39797D01*
X43868Y-40298D01*
X43289Y-40414D01*
X43189Y-39912D01*
X43189Y-39912D01*
G37*
G36*
X43336Y-40646D02*
X43914Y-40530D01*
X44014Y-41031D01*
X43436Y-41147D01*
X43336Y-40646D01*
X43336Y-40646D01*
G37*
G36*
X43994Y-42976D02*
X44539Y-42750D01*
X44735Y-43222D01*
X44189Y-43448D01*
X43994Y-42976D01*
X43994Y-42976D01*
G37*
G36*
X44280Y-43667D02*
X44825Y-43441D01*
X45021Y-43913D01*
X44476Y-44139D01*
X44280Y-43667D01*
X44280Y-43667D01*
G37*
G36*
X45349Y-45782D02*
X45839Y-45454D01*
X46124Y-45879D01*
X45633Y-46207D01*
X45349Y-45782D01*
X45349Y-45782D01*
G37*
G36*
X45765Y-46404D02*
X46255Y-46076D01*
X46540Y-46500D01*
X46049Y-46828D01*
X45765Y-46404D01*
X45765Y-46404D01*
G37*
G36*
X47259Y-48306D02*
X47676Y-47889D01*
X48038Y-48250D01*
X47620Y-48668D01*
X47259Y-48306D01*
X47259Y-48306D01*
G37*
G36*
X47788Y-48835D02*
X48205Y-48418D01*
X48567Y-48779D01*
X48149Y-49197D01*
X47788Y-48835D01*
X47788Y-48835D01*
G37*
G36*
X49607Y-50388D02*
X49935Y-49897D01*
X50360Y-50180D01*
X50033Y-50671D01*
X49607Y-50388D01*
X49607Y-50388D01*
G37*
G36*
X50230Y-50803D02*
X50557Y-50312D01*
X50982Y-50595D01*
X50655Y-51086D01*
X50230Y-50803D01*
X50230Y-50803D01*
G37*
G36*
X52337Y-51980D02*
X52562Y-51435D01*
X53034Y-51630D01*
X52809Y-52176D01*
X52337Y-51980D01*
X52337Y-51980D01*
G37*
G36*
X53028Y-52266D02*
X53253Y-51721D01*
X53725Y-51917D01*
X53500Y-52462D01*
X53028Y-52266D01*
X53028Y-52266D01*
G37*
G36*
X55289Y-53001D02*
X55404Y-52422D01*
X55905Y-52522D01*
X55791Y-53101D01*
X55289Y-53001D01*
X55289Y-53001D01*
G37*
G36*
X56023Y-53147D02*
X56138Y-52568D01*
X56639Y-52667D01*
X56524Y-53246D01*
X56023Y-53147D01*
X56023Y-53147D01*
G37*
G54D21*
X58681Y-53149D03*
X59429Y-53149D03*
G54D10*
G36*
X61568Y-53250D02*
X61450Y-52672D01*
X61950Y-52569D01*
X62069Y-53147D01*
X61568Y-53250D01*
X61568Y-53250D01*
G37*
G36*
X62301Y-53099D02*
X62182Y-52521D01*
X62683Y-52419D01*
X62801Y-52997D01*
X62301Y-53099D01*
X62301Y-53099D01*
G37*
G36*
X64612Y-52445D02*
X64384Y-51901D01*
X64855Y-51703D01*
X65083Y-52247D01*
X64612Y-52445D01*
X64612Y-52445D01*
G37*
G36*
X65302Y-52155D02*
X65073Y-51611D01*
X65544Y-51413D01*
X65773Y-51957D01*
X65302Y-52155D01*
X65302Y-52155D01*
G37*
G36*
X67398Y-51108D02*
X67069Y-50619D01*
X67492Y-50333D01*
X67822Y-50822D01*
X67398Y-51108D01*
X67398Y-51108D01*
G37*
G36*
X68019Y-50690D02*
X67689Y-50200D01*
X68112Y-49915D01*
X68442Y-50404D01*
X68019Y-50690D01*
X68019Y-50690D01*
G37*
G36*
X69960Y-49197D02*
X69543Y-48779D01*
X69904Y-48418D01*
X70321Y-48835D01*
X69960Y-49197D01*
X69960Y-49197D01*
G37*
G36*
X70489Y-48668D02*
X70072Y-48250D01*
X70433Y-47889D01*
X70850Y-48306D01*
X70489Y-48668D01*
X70489Y-48668D01*
G37*
G36*
X72060Y-46828D02*
X71570Y-46500D01*
X71854Y-46076D01*
X72344Y-46404D01*
X72060Y-46828D01*
X72060Y-46828D01*
G37*
G36*
X72476Y-46207D02*
X71986Y-45879D01*
X72270Y-45454D01*
X72760Y-45782D01*
X72476Y-46207D01*
X72476Y-46207D01*
G37*
G36*
X73632Y-44119D02*
X73088Y-43892D01*
X73284Y-43421D01*
X73829Y-43647D01*
X73632Y-44119D01*
X73632Y-44119D01*
G37*
G36*
X73920Y-43429D02*
X73375Y-43202D01*
X73571Y-42730D01*
X74116Y-42957D01*
X73920Y-43429D01*
X73920Y-43429D01*
G37*
G36*
X74654Y-41167D02*
X74075Y-41051D01*
X74175Y-40550D01*
X74754Y-40666D01*
X74654Y-41167D01*
X74654Y-41167D01*
G37*
G36*
X74800Y-40433D02*
X74222Y-40318D01*
X74322Y-39817D01*
X74900Y-39932D01*
X74800Y-40433D01*
X74800Y-40433D01*
G37*
G54D20*
X74803Y-37775D03*
X74803Y-37027D03*
G54D10*
G36*
X74919Y-34890D02*
X74340Y-35005D01*
X74241Y-34504D01*
X74820Y-34389D01*
X74919Y-34890D01*
X74919Y-34890D01*
G37*
G36*
X74774Y-34157D02*
X74195Y-34271D01*
X74096Y-33770D01*
X74674Y-33655D01*
X74774Y-34157D01*
X74774Y-34157D01*
G37*
G36*
X74116Y-31845D02*
X73571Y-32072D01*
X73375Y-31600D01*
X73920Y-31373D01*
X74116Y-31845D01*
X74116Y-31845D01*
G37*
G36*
X73829Y-31155D02*
X73284Y-31381D01*
X73088Y-30910D01*
X73632Y-30683D01*
X73829Y-31155D01*
X73829Y-31155D01*
G37*
G36*
X72740Y-29000D02*
X72250Y-29328D01*
X71966Y-28904D01*
X72456Y-28576D01*
X72740Y-29000D01*
X72740Y-29000D01*
G37*
G36*
X72324Y-28379D02*
X71834Y-28707D01*
X71550Y-28282D01*
X72040Y-27954D01*
X72324Y-28379D01*
X72324Y-28379D01*
G37*
G36*
X70850Y-26496D02*
X70433Y-26913D01*
X70072Y-26552D01*
X70489Y-26135D01*
X70850Y-26496D01*
X70850Y-26496D01*
G37*
G36*
X70321Y-25967D02*
X69904Y-26384D01*
X69543Y-26023D01*
X69960Y-25606D01*
X70321Y-25967D01*
X70321Y-25967D01*
G37*
G36*
X68521Y-24435D02*
X68193Y-24926D01*
X67769Y-24641D01*
X68097Y-24151D01*
X68521Y-24435D01*
X68521Y-24435D01*
G37*
G36*
X67900Y-24019D02*
X67572Y-24509D01*
X67147Y-24225D01*
X67475Y-23735D01*
X67900Y-24019D01*
X67900Y-24019D01*
G37*
G36*
X65773Y-22803D02*
X65547Y-23348D01*
X65075Y-23152D01*
X65301Y-22607D01*
X65773Y-22803D01*
X65773Y-22803D01*
G37*
G36*
X65082Y-22516D02*
X64856Y-23061D01*
X64384Y-22866D01*
X64610Y-22321D01*
X65082Y-22516D01*
X65082Y-22516D01*
G37*
G36*
X62801Y-21802D02*
X62685Y-22381D01*
X62184Y-22281D01*
X62299Y-21702D01*
X62801Y-21802D01*
X62801Y-21802D01*
G37*
G36*
X62067Y-21656D02*
X61951Y-22234D01*
X61450Y-22134D01*
X61566Y-21555D01*
X62067Y-21656D01*
X62067Y-21656D01*
G37*
G54D21*
X59429Y-21653D03*
X58681Y-21653D03*
G54D10*
G36*
X56282Y-20290D02*
X56977Y-20151D01*
X57085Y-20692D01*
X56390Y-20830D01*
X56282Y-20290D01*
X56282Y-20290D01*
G37*
G36*
X56027Y-19016D02*
X56722Y-18877D01*
X56830Y-19418D01*
X56135Y-19556D01*
X56027Y-19016D01*
X56027Y-19016D01*
G37*
G36*
X54174Y-19386D02*
X54869Y-19247D01*
X54977Y-19788D01*
X54282Y-19927D01*
X54174Y-19386D01*
X54174Y-19386D01*
G37*
G36*
X54429Y-20660D02*
X55124Y-20521D01*
X55232Y-21062D01*
X54537Y-21201D01*
X54429Y-20660D01*
X54429Y-20660D01*
G37*
G36*
X55448Y-20135D02*
X55834Y-20058D01*
X55873Y-20251D01*
X55487Y-20328D01*
X55448Y-20135D01*
X55448Y-20135D01*
G37*
G36*
X55386Y-19826D02*
X55772Y-19749D01*
X55811Y-19942D01*
X55425Y-20020D01*
X55386Y-19826D01*
X55386Y-19826D01*
G37*
G36*
X52972Y-21143D02*
X53626Y-20871D01*
X53837Y-21381D01*
X53183Y-21652D01*
X52972Y-21143D01*
X52972Y-21143D01*
G37*
G36*
X52475Y-19942D02*
X53129Y-19671D01*
X53340Y-20180D01*
X52685Y-20452D01*
X52475Y-19942D01*
X52475Y-19942D01*
G37*
G36*
X50729Y-20666D02*
X51383Y-20394D01*
X51594Y-20904D01*
X50940Y-21175D01*
X50729Y-20666D01*
X50729Y-20666D01*
G37*
G36*
X51226Y-21866D02*
X51880Y-21595D01*
X52091Y-22104D01*
X51437Y-22375D01*
X51226Y-21866D01*
X51226Y-21866D01*
G37*
G36*
X52124Y-21153D02*
X52487Y-21002D01*
X52563Y-21184D01*
X52199Y-21335D01*
X52124Y-21153D01*
X52124Y-21153D01*
G37*
G36*
X52003Y-20862D02*
X52367Y-20711D01*
X52442Y-20893D01*
X52078Y-21044D01*
X52003Y-20862D01*
X52003Y-20862D01*
G37*
G36*
X49911Y-22659D02*
X50500Y-22265D01*
X50806Y-22723D01*
X50218Y-23117D01*
X49911Y-22659D01*
X49911Y-22659D01*
G37*
G36*
X49188Y-21579D02*
X49777Y-21185D01*
X50084Y-21643D01*
X49495Y-22037D01*
X49188Y-21579D01*
X49188Y-21579D01*
G37*
G36*
X47618Y-22631D02*
X48207Y-22236D01*
X48513Y-22694D01*
X47924Y-23089D01*
X47618Y-22631D01*
X47618Y-22631D01*
G37*
G36*
X48341Y-23710D02*
X48929Y-23316D01*
X49236Y-23774D01*
X48647Y-24168D01*
X48341Y-23710D01*
X48341Y-23710D01*
G37*
G36*
X49081Y-22835D02*
X49409Y-22616D01*
X49518Y-22780D01*
X49191Y-22999D01*
X49081Y-22835D01*
X49081Y-22835D01*
G37*
G36*
X48906Y-22574D02*
X49233Y-22355D01*
X49343Y-22518D01*
X49016Y-22737D01*
X48906Y-22574D01*
X48906Y-22574D01*
G37*
G36*
X47197Y-24728D02*
X47698Y-24227D01*
X48088Y-24617D01*
X47587Y-25118D01*
X47197Y-24728D01*
X47197Y-24728D01*
G37*
G36*
X46279Y-23810D02*
X46780Y-23308D01*
X47169Y-23698D01*
X46668Y-24199D01*
X46279Y-23810D01*
X46279Y-23810D01*
G37*
G36*
X44942Y-25146D02*
X45443Y-24645D01*
X45833Y-25035D01*
X45332Y-25536D01*
X44942Y-25146D01*
X44942Y-25146D01*
G37*
G36*
X45861Y-26065D02*
X46362Y-25563D01*
X46752Y-25953D01*
X46251Y-26454D01*
X45861Y-26065D01*
X45861Y-26065D01*
G37*
G36*
X46418Y-25062D02*
X46696Y-24784D01*
X46835Y-24923D01*
X46557Y-25202D01*
X46418Y-25062D01*
X46418Y-25062D01*
G37*
G36*
X46195Y-24840D02*
X46473Y-24561D01*
X46613Y-24700D01*
X46334Y-24979D01*
X46195Y-24840D01*
X46195Y-24840D01*
G37*
G36*
X44949Y-27294D02*
X45343Y-26705D01*
X45801Y-27011D01*
X45408Y-27600D01*
X44949Y-27294D01*
X44949Y-27294D01*
G37*
G36*
X43868Y-26574D02*
X44262Y-25984D01*
X44720Y-26290D01*
X44327Y-26879D01*
X43868Y-26574D01*
X43868Y-26574D01*
G37*
G36*
X42820Y-28146D02*
X43213Y-27556D01*
X43672Y-27862D01*
X43278Y-28452D01*
X42820Y-28146D01*
X42820Y-28146D01*
G37*
G36*
X43901Y-28867D02*
X44294Y-28277D01*
X44753Y-28583D01*
X44359Y-29172D01*
X43901Y-28867D01*
X43901Y-28867D01*
G37*
G36*
X44250Y-27775D02*
X44469Y-27447D01*
X44633Y-27556D01*
X44414Y-27884D01*
X44250Y-27775D01*
X44250Y-27775D01*
G37*
G36*
X43988Y-27600D02*
X44207Y-27272D01*
X44371Y-27382D01*
X44152Y-27709D01*
X43988Y-27600D01*
X43988Y-27600D01*
G37*
G36*
X43248Y-30227D02*
X43519Y-29572D01*
X44029Y-29783D01*
X43757Y-30438D01*
X43248Y-30227D01*
X43248Y-30227D01*
G37*
G36*
X42048Y-29730D02*
X42319Y-29075D01*
X42828Y-29286D01*
X42557Y-29941D01*
X42048Y-29730D01*
X42048Y-29730D01*
G37*
G36*
X41325Y-31476D02*
X41596Y-30821D01*
X42105Y-31032D01*
X41834Y-31687D01*
X41325Y-31476D01*
X41325Y-31476D01*
G37*
G36*
X42525Y-31973D02*
X42796Y-31318D01*
X43305Y-31529D01*
X43034Y-32184D01*
X42525Y-31973D01*
X42525Y-31973D01*
G37*
G36*
X42656Y-30834D02*
X42807Y-30470D01*
X42988Y-30545D01*
X42838Y-30909D01*
X42656Y-30834D01*
X42656Y-30834D01*
G37*
G36*
X42365Y-30713D02*
X42516Y-30350D01*
X42697Y-30425D01*
X42547Y-30789D01*
X42365Y-30713D01*
X42365Y-30713D01*
G37*
G36*
X42154Y-33450D02*
X42292Y-32754D01*
X42833Y-32861D01*
X42695Y-33557D01*
X42154Y-33450D01*
X42154Y-33450D01*
G37*
G36*
X40880Y-33197D02*
X41018Y-32502D01*
X41558Y-32609D01*
X41421Y-33304D01*
X40880Y-33197D01*
X40880Y-33197D01*
G37*
G36*
X40513Y-35051D02*
X40650Y-34356D01*
X41191Y-34463D01*
X41053Y-35158D01*
X40513Y-35051D01*
X40513Y-35051D01*
G37*
G36*
X41787Y-35303D02*
X41925Y-34608D01*
X42466Y-34715D01*
X42328Y-35410D01*
X41787Y-35303D01*
X41787Y-35303D01*
G37*
G36*
X41692Y-34161D02*
X41769Y-33775D01*
X41962Y-33813D01*
X41886Y-34199D01*
X41692Y-34161D01*
X41692Y-34161D01*
G37*
G36*
X41383Y-34100D02*
X41460Y-33713D01*
X41653Y-33752D01*
X41577Y-34138D01*
X41383Y-34100D01*
X41383Y-34100D01*
G37*
G54D22*
X41988Y-36456D03*
X40688Y-36456D03*
X40688Y-38346D03*
X41988Y-38346D03*
G54D23*
X41496Y-37401D03*
X41181Y-37401D03*
G54D10*
G36*
X41924Y-40194D02*
X41785Y-39499D01*
X42325Y-39391D01*
X42464Y-40086D01*
X41924Y-40194D01*
X41924Y-40194D01*
G37*
G36*
X40650Y-40448D02*
X40511Y-39753D01*
X41051Y-39645D01*
X41190Y-40340D01*
X40650Y-40448D01*
X40650Y-40448D01*
G37*
G36*
X41020Y-42301D02*
X40881Y-41606D01*
X41422Y-41498D01*
X41561Y-42193D01*
X41020Y-42301D01*
X41020Y-42301D01*
G37*
G36*
X42294Y-42047D02*
X42155Y-41352D01*
X42696Y-41244D01*
X42835Y-41939D01*
X42294Y-42047D01*
X42294Y-42047D01*
G37*
G36*
X41769Y-41027D02*
X41692Y-40641D01*
X41885Y-40603D01*
X41962Y-40989D01*
X41769Y-41027D01*
X41769Y-41027D01*
G37*
G36*
X41460Y-41089D02*
X41383Y-40703D01*
X41576Y-40664D01*
X41653Y-41051D01*
X41460Y-41089D01*
X41460Y-41089D01*
G37*
G36*
X42816Y-43523D02*
X42545Y-42869D01*
X43054Y-42658D01*
X43325Y-43312D01*
X42816Y-43523D01*
X42816Y-43523D01*
G37*
G36*
X41616Y-44021D02*
X41344Y-43366D01*
X41854Y-43155D01*
X42125Y-43810D01*
X41616Y-44021D01*
X41616Y-44021D01*
G37*
G36*
X42339Y-45766D02*
X42068Y-45112D01*
X42577Y-44901D01*
X42848Y-45556D01*
X42339Y-45766D01*
X42339Y-45766D01*
G37*
G36*
X43539Y-45269D02*
X43268Y-44615D01*
X43777Y-44404D01*
X44048Y-45058D01*
X43539Y-45269D01*
X43539Y-45269D01*
G37*
G36*
X42826Y-44371D02*
X42676Y-44008D01*
X42857Y-43932D01*
X43008Y-44296D01*
X42826Y-44371D01*
X42826Y-44371D01*
G37*
G36*
X42535Y-44492D02*
X42385Y-44128D01*
X42566Y-44053D01*
X42717Y-44417D01*
X42535Y-44492D01*
X42535Y-44492D01*
G37*
G36*
X44293Y-46525D02*
X43899Y-45936D01*
X44357Y-45630D01*
X44751Y-46218D01*
X44293Y-46525D01*
X44293Y-46525D01*
G37*
G36*
X43213Y-47248D02*
X42819Y-46659D01*
X43277Y-46352D01*
X43671Y-46941D01*
X43213Y-47248D01*
X43213Y-47248D01*
G37*
G36*
X44264Y-48818D02*
X43870Y-48229D01*
X44328Y-47923D01*
X44722Y-48512D01*
X44264Y-48818D01*
X44264Y-48818D01*
G37*
G36*
X45344Y-48095D02*
X44950Y-47507D01*
X45408Y-47200D01*
X45802Y-47789D01*
X45344Y-48095D01*
X45344Y-48095D01*
G37*
G36*
X44469Y-47355D02*
X44250Y-47027D01*
X44414Y-46918D01*
X44633Y-47245D01*
X44469Y-47355D01*
X44469Y-47355D01*
G37*
G36*
X44207Y-47530D02*
X43988Y-47203D01*
X44152Y-47093D01*
X44371Y-47420D01*
X44207Y-47530D01*
X44207Y-47530D01*
G37*
G36*
X46382Y-49258D02*
X45881Y-48757D01*
X46270Y-48368D01*
X46772Y-48869D01*
X46382Y-49258D01*
X46382Y-49258D01*
G37*
G36*
X45463Y-50177D02*
X44962Y-49676D01*
X45352Y-49286D01*
X45853Y-49787D01*
X45463Y-50177D01*
X45463Y-50177D01*
G37*
G36*
X46799Y-51513D02*
X46298Y-51012D01*
X46688Y-50622D01*
X47189Y-51124D01*
X46799Y-51513D01*
X46799Y-51513D01*
G37*
G36*
X47718Y-50595D02*
X47217Y-50094D01*
X47607Y-49704D01*
X48108Y-50205D01*
X47718Y-50595D01*
X47718Y-50595D01*
G37*
G36*
X46716Y-50038D02*
X46437Y-49759D01*
X46577Y-49620D01*
X46855Y-49899D01*
X46716Y-50038D01*
X46716Y-50038D01*
G37*
G36*
X46493Y-50261D02*
X46215Y-49982D01*
X46354Y-49843D01*
X46632Y-50121D01*
X46493Y-50261D01*
X46493Y-50261D01*
G37*
G36*
X48909Y-51487D02*
X48319Y-51093D01*
X48625Y-50635D01*
X49214Y-51028D01*
X48909Y-51487D01*
X48909Y-51487D01*
G37*
G36*
X48188Y-52568D02*
X47598Y-52174D01*
X47904Y-51716D01*
X48494Y-52109D01*
X48188Y-52568D01*
X48188Y-52568D01*
G37*
G36*
X49760Y-53616D02*
X49170Y-53223D01*
X49476Y-52764D01*
X50066Y-53158D01*
X49760Y-53616D01*
X49760Y-53616D01*
G37*
G36*
X50481Y-52535D02*
X49891Y-52142D01*
X50197Y-51683D01*
X50787Y-52077D01*
X50481Y-52535D01*
X50481Y-52535D01*
G37*
G36*
X49389Y-52186D02*
X49061Y-51967D01*
X49171Y-51803D01*
X49498Y-52022D01*
X49389Y-52186D01*
X49389Y-52186D01*
G37*
G36*
X49214Y-52448D02*
X48887Y-52229D01*
X48996Y-52065D01*
X49323Y-52284D01*
X49214Y-52448D01*
X49214Y-52448D01*
G37*
G36*
X51880Y-53207D02*
X51226Y-52936D01*
X51437Y-52427D01*
X52091Y-52698D01*
X51880Y-53207D01*
X51880Y-53207D01*
G37*
G36*
X51383Y-54408D02*
X50729Y-54137D01*
X50940Y-53627D01*
X51594Y-53899D01*
X51383Y-54408D01*
X51383Y-54408D01*
G37*
G36*
X53129Y-55131D02*
X52475Y-54860D01*
X52685Y-54351D01*
X53340Y-54622D01*
X53129Y-55131D01*
X53129Y-55131D01*
G37*
G36*
X53626Y-53931D02*
X52972Y-53659D01*
X53183Y-53150D01*
X53837Y-53421D01*
X53626Y-53931D01*
X53626Y-53931D01*
G37*
G36*
X52487Y-53800D02*
X52124Y-53649D01*
X52199Y-53467D01*
X52563Y-53618D01*
X52487Y-53800D01*
X52487Y-53800D01*
G37*
G36*
X52367Y-54091D02*
X52003Y-53940D01*
X52078Y-53758D01*
X52442Y-53909D01*
X52367Y-54091D01*
X52367Y-54091D01*
G37*
G36*
X55064Y-54301D02*
X54369Y-54164D01*
X54476Y-53623D01*
X55171Y-53761D01*
X55064Y-54301D01*
X55064Y-54301D01*
G37*
G36*
X54811Y-55576D02*
X54116Y-55438D01*
X54223Y-54898D01*
X54918Y-55035D01*
X54811Y-55576D01*
X54811Y-55576D01*
G37*
G36*
X56665Y-55943D02*
X55970Y-55805D01*
X56077Y-55265D01*
X56772Y-55402D01*
X56665Y-55943D01*
X56665Y-55943D01*
G37*
G36*
X56917Y-54668D02*
X56222Y-54531D01*
X56329Y-53990D01*
X57025Y-54128D01*
X56917Y-54668D01*
X56917Y-54668D01*
G37*
G36*
X55775Y-54763D02*
X55389Y-54687D01*
X55427Y-54494D01*
X55813Y-54570D01*
X55775Y-54763D01*
X55775Y-54763D01*
G37*
G36*
X55714Y-55072D02*
X55328Y-54996D01*
X55366Y-54803D01*
X55752Y-54879D01*
X55714Y-55072D01*
X55714Y-55072D01*
G37*
G54D24*
X58110Y-54468D03*
X58110Y-55767D03*
X60000Y-55767D03*
X60000Y-54468D03*
G54D25*
X59055Y-54960D03*
X59055Y-55275D03*
G54D10*
G36*
X61826Y-54516D02*
X61132Y-54658D01*
X61021Y-54118D01*
X61715Y-53976D01*
X61826Y-54516D01*
X61826Y-54516D01*
G37*
G36*
X62087Y-55788D02*
X61393Y-55931D01*
X61282Y-55391D01*
X61977Y-55248D01*
X62087Y-55788D01*
X62087Y-55788D01*
G37*
G36*
X63939Y-55408D02*
X63244Y-55551D01*
X63134Y-55011D01*
X63828Y-54868D01*
X63939Y-55408D01*
X63939Y-55408D01*
G37*
G36*
X63677Y-54136D02*
X62983Y-54278D01*
X62872Y-53738D01*
X63566Y-53596D01*
X63677Y-54136D01*
X63677Y-54136D01*
G37*
G36*
X62661Y-54666D02*
X62275Y-54745D01*
X62236Y-54552D01*
X62621Y-54473D01*
X62661Y-54666D01*
X62661Y-54666D01*
G37*
G36*
X62724Y-54974D02*
X62338Y-55054D01*
X62299Y-54861D01*
X62685Y-54782D01*
X62724Y-54974D01*
X62724Y-54974D01*
G37*
G36*
X65137Y-53663D02*
X64484Y-53938D01*
X64270Y-53430D01*
X64923Y-53155D01*
X65137Y-53663D01*
X65137Y-53663D01*
G37*
G36*
X65640Y-54861D02*
X64987Y-55135D01*
X64774Y-54627D01*
X65427Y-54353D01*
X65640Y-54861D01*
X65640Y-54861D01*
G37*
G36*
X67382Y-54128D02*
X66729Y-54403D01*
X66516Y-53895D01*
X67169Y-53620D01*
X67382Y-54128D01*
X67382Y-54128D01*
G37*
G36*
X66879Y-52931D02*
X66226Y-53205D01*
X66012Y-52697D01*
X66665Y-52423D01*
X66879Y-52931D01*
X66879Y-52931D01*
G37*
G36*
X65985Y-53648D02*
X65622Y-53801D01*
X65546Y-53619D01*
X65909Y-53467D01*
X65985Y-53648D01*
X65985Y-53648D01*
G37*
G36*
X66107Y-53939D02*
X65744Y-54091D01*
X65668Y-53910D01*
X66031Y-53757D01*
X66107Y-53939D01*
X66107Y-53939D01*
G37*
G36*
X68159Y-52185D02*
X67572Y-52581D01*
X67263Y-52124D01*
X67851Y-51728D01*
X68159Y-52185D01*
X68159Y-52185D01*
G37*
G36*
X68886Y-53262D02*
X68298Y-53658D01*
X67990Y-53201D01*
X68577Y-52805D01*
X68886Y-53262D01*
X68886Y-53262D01*
G37*
G36*
X70452Y-52205D02*
X69865Y-52602D01*
X69557Y-52145D01*
X70144Y-51748D01*
X70452Y-52205D01*
X70452Y-52205D01*
G37*
G36*
X69726Y-51128D02*
X69138Y-51525D01*
X68830Y-51068D01*
X69418Y-50671D01*
X69726Y-51128D01*
X69726Y-51128D01*
G37*
G36*
X68988Y-52006D02*
X68662Y-52226D01*
X68551Y-52063D01*
X68878Y-51843D01*
X68988Y-52006D01*
X68988Y-52006D01*
G37*
G36*
X69164Y-52267D02*
X68838Y-52487D01*
X68728Y-52324D01*
X69054Y-52104D01*
X69164Y-52267D01*
X69164Y-52267D01*
G37*
G36*
X70893Y-50075D02*
X70392Y-50577D01*
X70002Y-50188D01*
X70502Y-49686D01*
X70893Y-50075D01*
X70893Y-50075D01*
G37*
G36*
X71813Y-50992D02*
X71313Y-51494D01*
X70922Y-51105D01*
X71422Y-50603D01*
X71813Y-50992D01*
X71813Y-50992D01*
G37*
G36*
X73147Y-49654D02*
X72647Y-50156D01*
X72256Y-49766D01*
X72756Y-49264D01*
X73147Y-49654D01*
X73147Y-49654D01*
G37*
G36*
X72226Y-48736D02*
X71726Y-49238D01*
X71336Y-48849D01*
X71836Y-48347D01*
X72226Y-48736D01*
X72226Y-48736D01*
G37*
G36*
X71671Y-49740D02*
X71394Y-50019D01*
X71254Y-49880D01*
X71532Y-49601D01*
X71671Y-49740D01*
X71671Y-49740D01*
G37*
G36*
X71895Y-49962D02*
X71617Y-50241D01*
X71477Y-50102D01*
X71755Y-49823D01*
X71895Y-49962D01*
X71895Y-49962D01*
G37*
G36*
X73140Y-47527D02*
X72747Y-48117D01*
X72288Y-47811D01*
X72682Y-47222D01*
X73140Y-47527D01*
X73140Y-47527D01*
G37*
G36*
X74221Y-48248D02*
X73828Y-48838D01*
X73369Y-48532D01*
X73763Y-47942D01*
X74221Y-48248D01*
X74221Y-48248D01*
G37*
G36*
X75270Y-46676D02*
X74876Y-47266D01*
X74418Y-46960D01*
X74811Y-46370D01*
X75270Y-46676D01*
X75270Y-46676D01*
G37*
G36*
X74189Y-45955D02*
X73796Y-46545D01*
X73337Y-46239D01*
X73730Y-45649D01*
X74189Y-45955D01*
X74189Y-45955D01*
G37*
G36*
X73839Y-47047D02*
X73621Y-47375D01*
X73457Y-47265D01*
X73675Y-46938D01*
X73839Y-47047D01*
X73839Y-47047D01*
G37*
G36*
X74101Y-47222D02*
X73883Y-47549D01*
X73719Y-47440D01*
X73937Y-47113D01*
X74101Y-47222D01*
X74101Y-47222D01*
G37*
G36*
X74860Y-44574D02*
X74588Y-45228D01*
X74079Y-45017D01*
X74351Y-44362D01*
X74860Y-44574D01*
X74860Y-44574D01*
G37*
G36*
X76060Y-45073D02*
X75787Y-45728D01*
X75279Y-45516D01*
X75551Y-44862D01*
X76060Y-45073D01*
X76060Y-45073D01*
G37*
G36*
X76786Y-43329D02*
X76514Y-43983D01*
X76005Y-43771D01*
X76277Y-43117D01*
X76786Y-43329D01*
X76786Y-43329D01*
G37*
G36*
X75587Y-42830D02*
X75314Y-43484D01*
X74805Y-43272D01*
X75078Y-42618D01*
X75587Y-42830D01*
X75587Y-42830D01*
G37*
G36*
X75454Y-43968D02*
X75302Y-44332D01*
X75121Y-44256D01*
X75272Y-43893D01*
X75454Y-43968D01*
X75454Y-43968D01*
G37*
G36*
X75744Y-44089D02*
X75593Y-44453D01*
X75411Y-44377D01*
X75563Y-44014D01*
X75744Y-44089D01*
X75744Y-44089D01*
G37*
G36*
X75934Y-41411D02*
X75795Y-42106D01*
X75255Y-41998D01*
X75394Y-41303D01*
X75934Y-41411D01*
X75934Y-41411D01*
G37*
G36*
X77208Y-41665D02*
X77070Y-42360D01*
X76529Y-42252D01*
X76668Y-41557D01*
X77208Y-41665D01*
X77208Y-41665D01*
G37*
G36*
X77579Y-39812D02*
X77440Y-40507D01*
X76899Y-40399D01*
X77038Y-39704D01*
X77579Y-39812D01*
X77579Y-39812D01*
G37*
G36*
X76305Y-39558D02*
X76166Y-40253D01*
X75625Y-40145D01*
X75764Y-39450D01*
X76305Y-39558D01*
X76305Y-39558D01*
G37*
G36*
X76397Y-40700D02*
X76320Y-41086D01*
X76127Y-41048D01*
X76204Y-40662D01*
X76397Y-40700D01*
X76397Y-40700D01*
G37*
G36*
X76706Y-40762D02*
X76629Y-41148D01*
X76436Y-41110D01*
X76513Y-40724D01*
X76706Y-40762D01*
X76706Y-40762D01*
G37*
G54D22*
X76122Y-38346D03*
X77421Y-38346D03*
X77421Y-36456D03*
X76122Y-36456D03*
G54D23*
X76614Y-37401D03*
X76929Y-37401D03*
G54D10*
G36*
X76165Y-34588D02*
X76302Y-35284D01*
X75762Y-35391D01*
X75624Y-34696D01*
X76165Y-34588D01*
X76165Y-34588D01*
G37*
G36*
X77439Y-34336D02*
X77577Y-35031D01*
X77036Y-35138D01*
X76898Y-34443D01*
X77439Y-34336D01*
X77439Y-34336D01*
G37*
G36*
X77072Y-32482D02*
X77210Y-33177D01*
X76669Y-33285D01*
X76531Y-32589D01*
X77072Y-32482D01*
X77072Y-32482D01*
G37*
G36*
X75798Y-32735D02*
X75935Y-33430D01*
X75395Y-33537D01*
X75257Y-32842D01*
X75798Y-32735D01*
X75798Y-32735D01*
G37*
G36*
X76321Y-33755D02*
X76397Y-34141D01*
X76204Y-34179D01*
X76128Y-33793D01*
X76321Y-33755D01*
X76321Y-33755D01*
G37*
G36*
X76630Y-33694D02*
X76706Y-34080D01*
X76513Y-34118D01*
X76437Y-33732D01*
X76630Y-33694D01*
X76630Y-33694D01*
G37*
G36*
X75314Y-31318D02*
X75587Y-31973D01*
X75078Y-32184D01*
X74805Y-31530D01*
X75314Y-31318D01*
X75314Y-31318D01*
G37*
G36*
X76514Y-30819D02*
X76786Y-31473D01*
X76277Y-31685D01*
X76005Y-31031D01*
X76514Y-30819D01*
X76514Y-30819D01*
G37*
G36*
X75787Y-29074D02*
X76060Y-29729D01*
X75551Y-29940D01*
X75279Y-29286D01*
X75787Y-29074D01*
X75787Y-29074D01*
G37*
G36*
X74588Y-29574D02*
X74860Y-30228D01*
X74351Y-30440D01*
X74079Y-29786D01*
X74588Y-29574D01*
X74588Y-29574D01*
G37*
G36*
X75302Y-30470D02*
X75454Y-30834D01*
X75272Y-30909D01*
X75121Y-30546D01*
X75302Y-30470D01*
X75302Y-30470D01*
G37*
G36*
X75593Y-30349D02*
X75744Y-30713D01*
X75563Y-30788D01*
X75411Y-30425D01*
X75593Y-30349D01*
X75593Y-30349D01*
G37*
G36*
X73797Y-28257D02*
X74191Y-28846D01*
X73733Y-29153D01*
X73339Y-28564D01*
X73797Y-28257D01*
X73797Y-28257D01*
G37*
G36*
X74876Y-27535D02*
X75271Y-28123D01*
X74813Y-28430D01*
X74418Y-27841D01*
X74876Y-27535D01*
X74876Y-27535D01*
G37*
G36*
X73825Y-25964D02*
X74219Y-26553D01*
X73761Y-26860D01*
X73367Y-26271D01*
X73825Y-25964D01*
X73825Y-25964D01*
G37*
G36*
X72745Y-26687D02*
X73140Y-27276D01*
X72682Y-27582D01*
X72287Y-26994D01*
X72745Y-26687D01*
X72745Y-26687D01*
G37*
G36*
X73620Y-27428D02*
X73839Y-27755D01*
X73676Y-27864D01*
X73457Y-27537D01*
X73620Y-27428D01*
X73620Y-27428D01*
G37*
G36*
X73882Y-27253D02*
X74101Y-27580D01*
X73938Y-27689D01*
X73719Y-27362D01*
X73882Y-27253D01*
X73882Y-27253D01*
G37*
G36*
X71727Y-25563D02*
X72229Y-26065D01*
X71839Y-26454D01*
X71338Y-25953D01*
X71727Y-25563D01*
X71727Y-25563D01*
G37*
G36*
X72646Y-24645D02*
X73147Y-25146D01*
X72757Y-25536D01*
X72256Y-25035D01*
X72646Y-24645D01*
X72646Y-24645D01*
G37*
G36*
X71310Y-23308D02*
X71811Y-23810D01*
X71421Y-24199D01*
X70920Y-23698D01*
X71310Y-23308D01*
X71310Y-23308D01*
G37*
G36*
X70391Y-24227D02*
X70892Y-24728D01*
X70503Y-25118D01*
X70001Y-24617D01*
X70391Y-24227D01*
X70391Y-24227D01*
G37*
G36*
X71393Y-24784D02*
X71672Y-25062D01*
X71533Y-25202D01*
X71254Y-24923D01*
X71393Y-24784D01*
X71393Y-24784D01*
G37*
G36*
X71616Y-24561D02*
X71894Y-24840D01*
X71755Y-24979D01*
X71477Y-24700D01*
X71616Y-24561D01*
X71616Y-24561D01*
G37*
G36*
X69180Y-23316D02*
X69769Y-23710D01*
X69462Y-24168D01*
X68873Y-23774D01*
X69180Y-23316D01*
X69180Y-23316D01*
G37*
G36*
X69903Y-22236D02*
X70491Y-22631D01*
X70185Y-23089D01*
X69596Y-22694D01*
X69903Y-22236D01*
X69903Y-22236D01*
G37*
G36*
X68332Y-21185D02*
X68921Y-21579D01*
X68614Y-22037D01*
X68026Y-21643D01*
X68332Y-21185D01*
X68332Y-21185D01*
G37*
G36*
X67609Y-22265D02*
X68198Y-22659D01*
X67892Y-23117D01*
X67303Y-22723D01*
X67609Y-22265D01*
X67609Y-22265D01*
G37*
G36*
X68701Y-22616D02*
X69028Y-22835D01*
X68918Y-22999D01*
X68591Y-22780D01*
X68701Y-22616D01*
X68701Y-22616D01*
G37*
G36*
X68876Y-22355D02*
X69203Y-22574D01*
X69094Y-22737D01*
X68766Y-22518D01*
X68876Y-22355D01*
X68876Y-22355D01*
G37*
G36*
X66229Y-21595D02*
X66883Y-21866D01*
X66673Y-22375D01*
X66018Y-22104D01*
X66229Y-21595D01*
X66229Y-21595D01*
G37*
G36*
X66726Y-20394D02*
X67381Y-20666D01*
X67170Y-21175D01*
X66515Y-20904D01*
X66726Y-20394D01*
X66726Y-20394D01*
G37*
G36*
X64980Y-19671D02*
X65635Y-19942D01*
X65424Y-20452D01*
X64769Y-20180D01*
X64980Y-19671D01*
X64980Y-19671D01*
G37*
G36*
X64483Y-20871D02*
X65138Y-21143D01*
X64927Y-21652D01*
X64272Y-21381D01*
X64483Y-20871D01*
X64483Y-20871D01*
G37*
G36*
X65622Y-21002D02*
X65986Y-21153D01*
X65910Y-21335D01*
X65546Y-21184D01*
X65622Y-21002D01*
X65622Y-21002D01*
G37*
G36*
X65742Y-20711D02*
X66106Y-20862D01*
X66031Y-21044D01*
X65667Y-20893D01*
X65742Y-20711D01*
X65742Y-20711D01*
G37*
G36*
X63025Y-20521D02*
X63720Y-20660D01*
X63612Y-21201D01*
X62917Y-21062D01*
X63025Y-20521D01*
X63025Y-20521D01*
G37*
G36*
X63280Y-19247D02*
X63975Y-19386D01*
X63866Y-19927D01*
X63172Y-19788D01*
X63280Y-19247D01*
X63280Y-19247D01*
G37*
G36*
X61426Y-18877D02*
X62121Y-19016D01*
X62013Y-19556D01*
X61318Y-19418D01*
X61426Y-18877D01*
X61426Y-18877D01*
G37*
G36*
X61172Y-20151D02*
X61867Y-20290D01*
X61759Y-20830D01*
X61064Y-20692D01*
X61172Y-20151D01*
X61172Y-20151D01*
G37*
G36*
X62315Y-20058D02*
X62701Y-20135D01*
X62662Y-20328D01*
X62276Y-20251D01*
X62315Y-20058D01*
X62315Y-20058D01*
G37*
G36*
X62376Y-19749D02*
X62762Y-19826D01*
X62724Y-20020D01*
X62338Y-19942D01*
X62376Y-19749D01*
X62376Y-19749D01*
G37*
G54D24*
X60000Y-20334D03*
X60000Y-19035D03*
X58110Y-19035D03*
X58110Y-20334D03*
G54D25*
X59055Y-19842D03*
X59055Y-19527D03*
M02*
