%FSLAX34Y34*%
G04 Gerber Fmt 3.4, Leading zero omitted, Abs format*
G04 (created by PCBNEW (2014-06-29 BZR 4957)-product) date Tue 15 Jul 2014 10:24:41 PM CEST*
%MOIN*%
G01*
G70*
G90*
G04 APERTURE LIST*
%ADD10C,0.003937*%
%ADD11C,0.007874*%
%ADD12C,0.007382*%
%ADD13C,0.008000*%
%ADD14C,0.004000*%
%ADD15C,0.000100*%
%ADD16C,0.055118*%
%ADD17C,0.078740*%
%ADD18R,0.098400X0.129900*%
%ADD19R,0.070866X0.070866*%
%ADD20R,0.055118X0.149606*%
%ADD21R,0.010000X0.030000*%
%ADD22R,0.030000X0.010000*%
%ADD23R,0.078740X0.049213*%
%ADD24R,0.064961X0.064961*%
%ADD25C,0.064961*%
%ADD26R,0.059000X0.051100*%
%ADD27R,0.051100X0.059000*%
%ADD28R,0.078740X0.023622*%
%ADD29R,0.055118X0.070866*%
%ADD30R,0.019685X0.039370*%
%ADD31R,0.070866X0.055118*%
%ADD32R,0.039370X0.019685*%
%ADD33R,0.055118X0.039370*%
%ADD34R,0.043300X0.039300*%
G04 APERTURE END LIST*
G54D10*
G54D11*
X56542Y-51248D02*
X56842Y-51248D01*
X61306Y-51248D02*
X61606Y-51248D01*
X58606Y-37271D02*
X58468Y-37133D01*
X58606Y-37468D02*
X58606Y-37271D01*
X58606Y-37468D02*
X58708Y-37385D01*
X58606Y-37468D02*
X58503Y-37385D01*
X58468Y-37133D02*
X58287Y-37133D01*
X57920Y-36918D02*
X58108Y-36918D01*
X58126Y-37105D01*
X58108Y-37086D01*
X58070Y-37068D01*
X57976Y-37068D01*
X57939Y-37086D01*
X57920Y-37105D01*
X57901Y-37143D01*
X57901Y-37236D01*
X57920Y-37274D01*
X57939Y-37293D01*
X57976Y-37311D01*
X58070Y-37311D01*
X58108Y-37293D01*
X58126Y-37274D01*
X57789Y-36918D02*
X57658Y-37311D01*
X57526Y-36918D01*
X57395Y-37274D02*
X57377Y-37293D01*
X57395Y-37311D01*
X57414Y-37293D01*
X57395Y-37274D01*
X57395Y-37311D01*
X57395Y-37161D02*
X57414Y-36937D01*
X57395Y-36918D01*
X57377Y-36937D01*
X57395Y-37161D01*
X57395Y-36918D01*
X61728Y-50374D02*
X61916Y-50374D01*
X61934Y-50562D01*
X61916Y-50543D01*
X61878Y-50524D01*
X61784Y-50524D01*
X61747Y-50543D01*
X61728Y-50562D01*
X61709Y-50599D01*
X61709Y-50693D01*
X61728Y-50731D01*
X61747Y-50749D01*
X61784Y-50768D01*
X61878Y-50768D01*
X61916Y-50749D01*
X61934Y-50731D01*
X61597Y-50374D02*
X61466Y-50768D01*
X61334Y-50374D01*
X63755Y-36004D02*
X63755Y-35611D01*
X63624Y-35892D01*
X63493Y-35611D01*
X63493Y-36004D01*
X63230Y-35611D02*
X63155Y-35611D01*
X63118Y-35629D01*
X63080Y-35667D01*
X63062Y-35742D01*
X63062Y-35873D01*
X63080Y-35948D01*
X63118Y-35986D01*
X63155Y-36004D01*
X63230Y-36004D01*
X63268Y-35986D01*
X63305Y-35948D01*
X63324Y-35873D01*
X63324Y-35742D01*
X63305Y-35667D01*
X63268Y-35629D01*
X63230Y-35611D01*
X62893Y-36004D02*
X62893Y-35611D01*
X62799Y-35611D01*
X62743Y-35629D01*
X62705Y-35667D01*
X62687Y-35704D01*
X62668Y-35779D01*
X62668Y-35836D01*
X62687Y-35911D01*
X62705Y-35948D01*
X62743Y-35986D01*
X62799Y-36004D01*
X62893Y-36004D01*
X62499Y-35798D02*
X62368Y-35798D01*
X62312Y-36004D02*
X62499Y-36004D01*
X62499Y-35611D01*
X62312Y-35611D01*
X55866Y-35798D02*
X55735Y-35798D01*
X55679Y-36004D02*
X55866Y-36004D01*
X55866Y-35611D01*
X55679Y-35611D01*
X55510Y-36004D02*
X55510Y-35611D01*
X55285Y-36004D01*
X55285Y-35611D01*
X55154Y-35611D02*
X54929Y-35611D01*
X55041Y-36004D02*
X55041Y-35611D01*
X54798Y-35798D02*
X54666Y-35798D01*
X54610Y-36004D02*
X54798Y-36004D01*
X54798Y-35611D01*
X54610Y-35611D01*
X54216Y-36004D02*
X54348Y-35817D01*
X54441Y-36004D02*
X54441Y-35611D01*
X54291Y-35611D01*
X54254Y-35629D01*
X54235Y-35648D01*
X54216Y-35686D01*
X54216Y-35742D01*
X54235Y-35779D01*
X54254Y-35798D01*
X54291Y-35817D01*
X54441Y-35817D01*
G54D12*
X55915Y-38268D02*
X55929Y-38296D01*
X55929Y-38338D01*
X55915Y-38380D01*
X55887Y-38408D01*
X55859Y-38422D01*
X55802Y-38437D01*
X55760Y-38437D01*
X55704Y-38422D01*
X55676Y-38408D01*
X55648Y-38380D01*
X55634Y-38338D01*
X55634Y-38310D01*
X55648Y-38268D01*
X55662Y-38254D01*
X55760Y-38254D01*
X55760Y-38310D01*
X55634Y-38127D02*
X55929Y-38127D01*
X55634Y-37958D01*
X55929Y-37958D01*
X55634Y-37818D02*
X55929Y-37818D01*
X55929Y-37748D01*
X55915Y-37705D01*
X55887Y-37677D01*
X55859Y-37663D01*
X55802Y-37649D01*
X55760Y-37649D01*
X55704Y-37663D01*
X55676Y-37677D01*
X55648Y-37705D01*
X55634Y-37748D01*
X55634Y-37818D01*
G54D11*
X47603Y-32499D02*
X47209Y-32499D01*
X47603Y-32686D02*
X47209Y-32686D01*
X47603Y-32911D02*
X47378Y-32742D01*
X47209Y-32911D02*
X47434Y-32686D01*
X47397Y-33080D02*
X47397Y-33211D01*
X47603Y-33267D02*
X47603Y-33080D01*
X47209Y-33080D01*
X47209Y-33267D01*
X47490Y-33417D02*
X47490Y-33605D01*
X47603Y-33380D02*
X47209Y-33511D01*
X47603Y-33642D01*
X47453Y-33773D02*
X47453Y-34073D01*
X47584Y-34242D02*
X47603Y-34298D01*
X47603Y-34392D01*
X47584Y-34430D01*
X47565Y-34448D01*
X47528Y-34467D01*
X47490Y-34467D01*
X47453Y-34448D01*
X47434Y-34430D01*
X47415Y-34392D01*
X47397Y-34317D01*
X47378Y-34280D01*
X47359Y-34261D01*
X47322Y-34242D01*
X47284Y-34242D01*
X47247Y-34261D01*
X47228Y-34280D01*
X47209Y-34317D01*
X47209Y-34411D01*
X47228Y-34467D01*
X47603Y-34805D02*
X47397Y-34805D01*
X47359Y-34786D01*
X47340Y-34748D01*
X47340Y-34673D01*
X47359Y-34636D01*
X47584Y-34805D02*
X47603Y-34767D01*
X47603Y-34673D01*
X47584Y-34636D01*
X47547Y-34617D01*
X47509Y-34617D01*
X47472Y-34636D01*
X47453Y-34673D01*
X47453Y-34767D01*
X47434Y-34805D01*
X47603Y-34992D02*
X47340Y-34992D01*
X47378Y-34992D02*
X47359Y-35011D01*
X47340Y-35048D01*
X47340Y-35104D01*
X47359Y-35142D01*
X47397Y-35161D01*
X47603Y-35161D01*
X47397Y-35161D02*
X47359Y-35179D01*
X47340Y-35217D01*
X47340Y-35273D01*
X47359Y-35311D01*
X47397Y-35329D01*
X47603Y-35329D01*
X47340Y-35461D02*
X47340Y-35611D01*
X47209Y-35517D02*
X47547Y-35517D01*
X47584Y-35536D01*
X47603Y-35573D01*
X47603Y-35611D01*
X47603Y-35742D02*
X47340Y-35742D01*
X47209Y-35742D02*
X47228Y-35723D01*
X47247Y-35742D01*
X47228Y-35761D01*
X47209Y-35742D01*
X47247Y-35742D01*
X47603Y-36098D02*
X47209Y-36098D01*
X47584Y-36098D02*
X47603Y-36061D01*
X47603Y-35986D01*
X47584Y-35948D01*
X47565Y-35929D01*
X47528Y-35911D01*
X47415Y-35911D01*
X47378Y-35929D01*
X47359Y-35948D01*
X47340Y-35986D01*
X47340Y-36061D01*
X47359Y-36098D01*
X47603Y-36586D02*
X47340Y-36586D01*
X47378Y-36586D02*
X47359Y-36604D01*
X47340Y-36642D01*
X47340Y-36698D01*
X47359Y-36736D01*
X47397Y-36754D01*
X47603Y-36754D01*
X47397Y-36754D02*
X47359Y-36773D01*
X47340Y-36811D01*
X47340Y-36867D01*
X47359Y-36904D01*
X47397Y-36923D01*
X47603Y-36923D01*
X47603Y-37167D02*
X47584Y-37129D01*
X47565Y-37110D01*
X47528Y-37092D01*
X47415Y-37092D01*
X47378Y-37110D01*
X47359Y-37129D01*
X47340Y-37167D01*
X47340Y-37223D01*
X47359Y-37260D01*
X47378Y-37279D01*
X47415Y-37298D01*
X47528Y-37298D01*
X47565Y-37279D01*
X47584Y-37260D01*
X47603Y-37223D01*
X47603Y-37167D01*
X47603Y-37523D02*
X47584Y-37485D01*
X47565Y-37467D01*
X47528Y-37448D01*
X47415Y-37448D01*
X47378Y-37467D01*
X47359Y-37485D01*
X47340Y-37523D01*
X47340Y-37579D01*
X47359Y-37617D01*
X47378Y-37635D01*
X47415Y-37654D01*
X47528Y-37654D01*
X47565Y-37635D01*
X47584Y-37617D01*
X47603Y-37579D01*
X47603Y-37523D01*
X47603Y-37992D02*
X47209Y-37992D01*
X47584Y-37992D02*
X47603Y-37954D01*
X47603Y-37879D01*
X47584Y-37842D01*
X47565Y-37823D01*
X47528Y-37804D01*
X47415Y-37804D01*
X47378Y-37823D01*
X47359Y-37842D01*
X47340Y-37879D01*
X47340Y-37954D01*
X47359Y-37992D01*
X47453Y-38179D02*
X47453Y-38479D01*
X47603Y-38723D02*
X47584Y-38685D01*
X47547Y-38667D01*
X47209Y-38667D01*
X47603Y-38873D02*
X47340Y-38873D01*
X47209Y-38873D02*
X47228Y-38854D01*
X47247Y-38873D01*
X47228Y-38892D01*
X47209Y-38873D01*
X47247Y-38873D01*
X47340Y-39229D02*
X47659Y-39229D01*
X47697Y-39210D01*
X47715Y-39191D01*
X47734Y-39154D01*
X47734Y-39098D01*
X47715Y-39060D01*
X47584Y-39229D02*
X47603Y-39191D01*
X47603Y-39116D01*
X47584Y-39079D01*
X47565Y-39060D01*
X47528Y-39041D01*
X47415Y-39041D01*
X47378Y-39060D01*
X47359Y-39079D01*
X47340Y-39116D01*
X47340Y-39191D01*
X47359Y-39229D01*
X47603Y-39416D02*
X47209Y-39416D01*
X47603Y-39585D02*
X47397Y-39585D01*
X47359Y-39566D01*
X47340Y-39529D01*
X47340Y-39473D01*
X47359Y-39435D01*
X47378Y-39416D01*
X47340Y-39716D02*
X47340Y-39866D01*
X47209Y-39773D02*
X47547Y-39773D01*
X47584Y-39791D01*
X47603Y-39829D01*
X47603Y-39866D01*
X47209Y-40241D02*
X47603Y-40373D01*
X47209Y-40504D01*
X47209Y-40710D02*
X47209Y-40748D01*
X47228Y-40785D01*
X47247Y-40804D01*
X47284Y-40823D01*
X47359Y-40841D01*
X47453Y-40841D01*
X47528Y-40823D01*
X47565Y-40804D01*
X47584Y-40785D01*
X47603Y-40748D01*
X47603Y-40710D01*
X47584Y-40673D01*
X47565Y-40654D01*
X47528Y-40635D01*
X47453Y-40616D01*
X47359Y-40616D01*
X47284Y-40635D01*
X47247Y-40654D01*
X47228Y-40673D01*
X47209Y-40710D01*
X47565Y-41010D02*
X47584Y-41029D01*
X47603Y-41010D01*
X47584Y-40991D01*
X47565Y-41010D01*
X47603Y-41010D01*
X47603Y-41404D02*
X47603Y-41179D01*
X47603Y-41291D02*
X47209Y-41291D01*
X47265Y-41254D01*
X47303Y-41216D01*
X47322Y-41179D01*
X47603Y-41591D02*
X47603Y-41666D01*
X47584Y-41704D01*
X47565Y-41722D01*
X47509Y-41760D01*
X47434Y-41779D01*
X47284Y-41779D01*
X47247Y-41760D01*
X47228Y-41741D01*
X47209Y-41704D01*
X47209Y-41629D01*
X47228Y-41591D01*
X47247Y-41572D01*
X47284Y-41554D01*
X47378Y-41554D01*
X47415Y-41572D01*
X47434Y-41591D01*
X47453Y-41629D01*
X47453Y-41704D01*
X47434Y-41741D01*
X47415Y-41760D01*
X47378Y-41779D01*
X47565Y-41947D02*
X47584Y-41966D01*
X47603Y-41947D01*
X47584Y-41929D01*
X47565Y-41947D01*
X47603Y-41947D01*
X47603Y-42304D02*
X47397Y-42304D01*
X47359Y-42285D01*
X47340Y-42247D01*
X47340Y-42172D01*
X47359Y-42135D01*
X47584Y-42304D02*
X47603Y-42266D01*
X47603Y-42172D01*
X47584Y-42135D01*
X47547Y-42116D01*
X47509Y-42116D01*
X47472Y-42135D01*
X47453Y-42172D01*
X47453Y-42266D01*
X47434Y-42304D01*
X47877Y-33173D02*
X47858Y-33192D01*
X47839Y-33230D01*
X47839Y-33323D01*
X47858Y-33361D01*
X47877Y-33380D01*
X47914Y-33398D01*
X47952Y-33398D01*
X48008Y-33380D01*
X48233Y-33155D01*
X48233Y-33398D01*
X47839Y-33642D02*
X47839Y-33680D01*
X47858Y-33717D01*
X47877Y-33736D01*
X47914Y-33755D01*
X47989Y-33773D01*
X48083Y-33773D01*
X48158Y-33755D01*
X48195Y-33736D01*
X48214Y-33717D01*
X48233Y-33680D01*
X48233Y-33642D01*
X48214Y-33605D01*
X48195Y-33586D01*
X48158Y-33567D01*
X48083Y-33548D01*
X47989Y-33548D01*
X47914Y-33567D01*
X47877Y-33586D01*
X47858Y-33605D01*
X47839Y-33642D01*
X48233Y-34148D02*
X48233Y-33923D01*
X48233Y-34036D02*
X47839Y-34036D01*
X47895Y-33998D01*
X47933Y-33961D01*
X47952Y-33923D01*
X47970Y-34486D02*
X48233Y-34486D01*
X47820Y-34392D02*
X48101Y-34298D01*
X48101Y-34542D01*
X48083Y-34992D02*
X48083Y-35292D01*
X48233Y-35779D02*
X47839Y-35779D01*
X47989Y-35779D02*
X47970Y-35817D01*
X47970Y-35892D01*
X47989Y-35929D01*
X48008Y-35948D01*
X48045Y-35967D01*
X48158Y-35967D01*
X48195Y-35948D01*
X48214Y-35929D01*
X48233Y-35892D01*
X48233Y-35817D01*
X48214Y-35779D01*
X48233Y-36192D02*
X48214Y-36154D01*
X48176Y-36136D01*
X47839Y-36136D01*
X48233Y-36398D02*
X48214Y-36361D01*
X48195Y-36342D01*
X48158Y-36323D01*
X48045Y-36323D01*
X48008Y-36342D01*
X47989Y-36361D01*
X47970Y-36398D01*
X47970Y-36454D01*
X47989Y-36492D01*
X48008Y-36511D01*
X48045Y-36529D01*
X48158Y-36529D01*
X48195Y-36511D01*
X48214Y-36492D01*
X48233Y-36454D01*
X48233Y-36398D01*
X47970Y-36867D02*
X48289Y-36867D01*
X48326Y-36848D01*
X48345Y-36829D01*
X48364Y-36792D01*
X48364Y-36736D01*
X48345Y-36698D01*
X48214Y-36867D02*
X48233Y-36829D01*
X48233Y-36754D01*
X48214Y-36717D01*
X48195Y-36698D01*
X48158Y-36679D01*
X48045Y-36679D01*
X48008Y-36698D01*
X47989Y-36717D01*
X47970Y-36754D01*
X47970Y-36829D01*
X47989Y-36867D01*
X48195Y-37054D02*
X48214Y-37073D01*
X48233Y-37054D01*
X48214Y-37035D01*
X48195Y-37054D01*
X48233Y-37054D01*
X48214Y-37223D02*
X48233Y-37260D01*
X48233Y-37335D01*
X48214Y-37373D01*
X48176Y-37392D01*
X48158Y-37392D01*
X48120Y-37373D01*
X48101Y-37335D01*
X48101Y-37279D01*
X48083Y-37242D01*
X48045Y-37223D01*
X48026Y-37223D01*
X47989Y-37242D01*
X47970Y-37279D01*
X47970Y-37335D01*
X47989Y-37373D01*
X47970Y-37560D02*
X48364Y-37560D01*
X47989Y-37560D02*
X47970Y-37598D01*
X47970Y-37673D01*
X47989Y-37710D01*
X48008Y-37729D01*
X48045Y-37748D01*
X48158Y-37748D01*
X48195Y-37729D01*
X48214Y-37710D01*
X48233Y-37673D01*
X48233Y-37598D01*
X48214Y-37560D01*
X48233Y-37917D02*
X47970Y-37917D01*
X47839Y-37917D02*
X47858Y-37898D01*
X47877Y-37917D01*
X47858Y-37935D01*
X47839Y-37917D01*
X47877Y-37917D01*
X47970Y-38048D02*
X47970Y-38198D01*
X47839Y-38104D02*
X48176Y-38104D01*
X48214Y-38123D01*
X48233Y-38160D01*
X48233Y-38198D01*
X47970Y-38292D02*
X47970Y-38498D01*
X48233Y-38292D01*
X48233Y-38498D01*
X48214Y-38798D02*
X48233Y-38760D01*
X48233Y-38685D01*
X48214Y-38648D01*
X48176Y-38629D01*
X48026Y-38629D01*
X47989Y-38648D01*
X47970Y-38685D01*
X47970Y-38760D01*
X47989Y-38798D01*
X48026Y-38817D01*
X48064Y-38817D01*
X48101Y-38629D01*
X47970Y-38985D02*
X48233Y-38985D01*
X48008Y-38985D02*
X47989Y-39004D01*
X47970Y-39041D01*
X47970Y-39098D01*
X47989Y-39135D01*
X48026Y-39154D01*
X48233Y-39154D01*
X47970Y-39341D02*
X48364Y-39341D01*
X47989Y-39341D02*
X47970Y-39379D01*
X47970Y-39454D01*
X47989Y-39491D01*
X48008Y-39510D01*
X48045Y-39529D01*
X48158Y-39529D01*
X48195Y-39510D01*
X48214Y-39491D01*
X48233Y-39454D01*
X48233Y-39379D01*
X48214Y-39341D01*
X47970Y-39641D02*
X47970Y-39791D01*
X48233Y-39698D02*
X47895Y-39698D01*
X47858Y-39716D01*
X47839Y-39754D01*
X47839Y-39791D01*
X48214Y-40073D02*
X48233Y-40035D01*
X48233Y-39960D01*
X48214Y-39923D01*
X48176Y-39904D01*
X48026Y-39904D01*
X47989Y-39923D01*
X47970Y-39960D01*
X47970Y-40035D01*
X47989Y-40073D01*
X48026Y-40091D01*
X48064Y-40091D01*
X48101Y-39904D01*
X48233Y-40260D02*
X47970Y-40260D01*
X47839Y-40260D02*
X47858Y-40241D01*
X47877Y-40260D01*
X47858Y-40279D01*
X47839Y-40260D01*
X47877Y-40260D01*
X48233Y-40504D02*
X48214Y-40466D01*
X48176Y-40448D01*
X47839Y-40448D01*
X48195Y-40654D02*
X48214Y-40673D01*
X48233Y-40654D01*
X48214Y-40635D01*
X48195Y-40654D01*
X48233Y-40654D01*
X48233Y-40898D02*
X48214Y-40860D01*
X48195Y-40841D01*
X48158Y-40823D01*
X48045Y-40823D01*
X48008Y-40841D01*
X47989Y-40860D01*
X47970Y-40898D01*
X47970Y-40954D01*
X47989Y-40991D01*
X48008Y-41010D01*
X48045Y-41029D01*
X48158Y-41029D01*
X48195Y-41010D01*
X48214Y-40991D01*
X48233Y-40954D01*
X48233Y-40898D01*
X48233Y-41197D02*
X47970Y-41197D01*
X48045Y-41197D02*
X48008Y-41216D01*
X47989Y-41235D01*
X47970Y-41272D01*
X47970Y-41310D01*
X47970Y-41610D02*
X48289Y-41610D01*
X48326Y-41591D01*
X48345Y-41572D01*
X48364Y-41535D01*
X48364Y-41479D01*
X48345Y-41441D01*
X48214Y-41610D02*
X48233Y-41572D01*
X48233Y-41497D01*
X48214Y-41460D01*
X48195Y-41441D01*
X48158Y-41422D01*
X48045Y-41422D01*
X48008Y-41441D01*
X47989Y-41460D01*
X47970Y-41497D01*
X47970Y-41572D01*
X47989Y-41610D01*
X59921Y-28192D02*
X59864Y-28211D01*
X59846Y-28229D01*
X59827Y-28267D01*
X59827Y-28323D01*
X59846Y-28361D01*
X59864Y-28379D01*
X59902Y-28398D01*
X60052Y-28398D01*
X60052Y-28004D01*
X59921Y-28004D01*
X59883Y-28023D01*
X59864Y-28042D01*
X59846Y-28079D01*
X59846Y-28117D01*
X59864Y-28154D01*
X59883Y-28173D01*
X59921Y-28192D01*
X60052Y-28192D01*
X59583Y-28004D02*
X59508Y-28004D01*
X59471Y-28023D01*
X59433Y-28061D01*
X59414Y-28136D01*
X59414Y-28267D01*
X59433Y-28342D01*
X59471Y-28379D01*
X59508Y-28398D01*
X59583Y-28398D01*
X59621Y-28379D01*
X59658Y-28342D01*
X59677Y-28267D01*
X59677Y-28136D01*
X59658Y-28061D01*
X59621Y-28023D01*
X59583Y-28004D01*
X59302Y-28004D02*
X59077Y-28004D01*
X59189Y-28398D02*
X59189Y-28004D01*
X59002Y-28004D02*
X58777Y-28004D01*
X58889Y-28398D02*
X58889Y-28004D01*
X58571Y-28004D02*
X58496Y-28004D01*
X58458Y-28023D01*
X58421Y-28061D01*
X58402Y-28136D01*
X58402Y-28267D01*
X58421Y-28342D01*
X58458Y-28379D01*
X58496Y-28398D01*
X58571Y-28398D01*
X58608Y-28379D01*
X58646Y-28342D01*
X58664Y-28267D01*
X58664Y-28136D01*
X58646Y-28061D01*
X58608Y-28023D01*
X58571Y-28004D01*
X58233Y-28398D02*
X58233Y-28004D01*
X58102Y-28286D01*
X57971Y-28004D01*
X57971Y-28398D01*
X68897Y-37401D02*
G75*
G03X68897Y-37401I-9842J0D01*
G74*
G01*
G54D13*
X63101Y-27143D02*
X63032Y-27285D01*
X63032Y-27285D02*
X62537Y-27044D01*
X62537Y-27044D02*
X62607Y-26902D01*
X62430Y-26816D02*
X62360Y-26958D01*
X62360Y-26958D02*
X62219Y-26889D01*
X62219Y-26889D02*
X62289Y-26747D01*
X63419Y-27298D02*
X63350Y-27440D01*
X63350Y-27440D02*
X63209Y-27371D01*
X63209Y-27371D02*
X63278Y-27229D01*
X63719Y-27401D02*
X62022Y-26574D01*
X63716Y-27049D02*
X62302Y-26359D01*
G54D14*
X64613Y-24851D02*
X64561Y-24957D01*
X64561Y-24957D02*
X64509Y-25063D01*
X64048Y-24575D02*
X63996Y-24681D01*
X63996Y-24681D02*
X63944Y-24787D01*
X63996Y-24681D02*
X64050Y-24839D01*
X64561Y-24957D02*
X64403Y-25011D01*
X64474Y-24958D02*
X64455Y-24905D01*
X64507Y-24799D02*
X64455Y-24905D01*
X64455Y-24905D02*
X64102Y-24733D01*
X64102Y-24733D02*
X64154Y-24627D01*
X64049Y-24750D02*
X64102Y-24733D01*
G54D13*
X63835Y-24384D02*
X63904Y-24242D01*
X63904Y-24242D02*
X64399Y-24483D01*
X64399Y-24483D02*
X64329Y-24625D01*
X64506Y-24711D02*
X64576Y-24569D01*
X64576Y-24569D02*
X64717Y-24638D01*
X64717Y-24638D02*
X64648Y-24780D01*
X63517Y-24228D02*
X63586Y-24086D01*
X63586Y-24086D02*
X63727Y-24155D01*
X63727Y-24155D02*
X63658Y-24297D01*
X63217Y-24125D02*
X64914Y-24953D01*
X64634Y-25167D02*
X63716Y-27049D01*
X64914Y-24953D02*
X63719Y-27401D01*
X63217Y-24125D02*
X62022Y-26574D01*
X63220Y-24477D02*
X64634Y-25167D01*
X63220Y-24477D02*
X62302Y-26359D01*
X55585Y-26902D02*
X55654Y-27044D01*
X55654Y-27044D02*
X55160Y-27285D01*
X55160Y-27285D02*
X55091Y-27143D01*
X54914Y-27229D02*
X54983Y-27371D01*
X54983Y-27371D02*
X54842Y-27440D01*
X54842Y-27440D02*
X54773Y-27298D01*
X55903Y-26747D02*
X55973Y-26889D01*
X55973Y-26889D02*
X55832Y-26958D01*
X55832Y-26958D02*
X55762Y-26816D01*
X56169Y-26574D02*
X54473Y-27401D01*
X55890Y-26359D02*
X54476Y-27049D01*
G54D14*
X54710Y-24299D02*
X54761Y-24405D01*
X54761Y-24405D02*
X54813Y-24511D01*
X54144Y-24575D02*
X54196Y-24681D01*
X54196Y-24681D02*
X54248Y-24787D01*
X54196Y-24681D02*
X54354Y-24735D01*
X54761Y-24405D02*
X54707Y-24563D01*
X54708Y-24475D02*
X54655Y-24457D01*
X54604Y-24351D02*
X54655Y-24457D01*
X54655Y-24457D02*
X54302Y-24629D01*
X54302Y-24629D02*
X54250Y-24523D01*
X54283Y-24682D02*
X54302Y-24629D01*
G54D13*
X53863Y-24625D02*
X53793Y-24483D01*
X53793Y-24483D02*
X54288Y-24242D01*
X54288Y-24242D02*
X54357Y-24384D01*
X54534Y-24297D02*
X54465Y-24155D01*
X54465Y-24155D02*
X54606Y-24086D01*
X54606Y-24086D02*
X54675Y-24228D01*
X53544Y-24780D02*
X53475Y-24638D01*
X53475Y-24638D02*
X53616Y-24569D01*
X53616Y-24569D02*
X53686Y-24711D01*
X53278Y-24953D02*
X54975Y-24125D01*
X54972Y-24477D02*
X55890Y-26359D01*
X54975Y-24125D02*
X56169Y-26574D01*
X53278Y-24953D02*
X54473Y-27401D01*
X53558Y-25167D02*
X54972Y-24477D01*
X53558Y-25167D02*
X54476Y-27049D01*
G54D11*
X57062Y-50732D02*
X58562Y-50732D01*
X57062Y-51732D02*
X58562Y-51732D01*
X59562Y-50732D02*
X61062Y-50732D01*
X59562Y-51732D02*
X61062Y-51732D01*
X61062Y-51732D02*
X61062Y-50732D01*
X57062Y-50732D02*
X57062Y-51732D01*
X58062Y-51732D02*
X58062Y-50732D01*
X57062Y-51732D02*
X57062Y-51732D01*
X57062Y-51732D02*
X57062Y-51732D01*
X60066Y-50732D02*
X60066Y-51732D01*
X59291Y-49881D02*
X59646Y-49881D01*
X58838Y-49881D02*
X58445Y-49881D01*
X60256Y-47755D02*
X60256Y-48228D01*
X60256Y-50433D02*
X60256Y-49960D01*
X60472Y-47755D02*
X60472Y-48228D01*
X60472Y-50433D02*
X60472Y-49960D01*
X57638Y-47755D02*
X57638Y-48248D01*
X57638Y-50433D02*
X57638Y-49940D01*
X59291Y-50196D02*
X59291Y-49566D01*
X58838Y-49586D02*
X58838Y-50196D01*
X59291Y-49881D02*
X58838Y-49586D01*
X59291Y-49881D02*
X58838Y-50196D01*
X57638Y-47755D02*
X60472Y-47755D01*
X57638Y-50433D02*
X60472Y-50433D01*
X56338Y-49763D02*
X55157Y-49763D01*
X55944Y-49409D02*
X55551Y-49409D01*
X55944Y-48779D02*
X55551Y-48779D01*
X56338Y-48425D02*
X55157Y-48425D01*
X57086Y-48188D02*
X54409Y-48188D01*
X54409Y-48188D02*
X54409Y-50000D01*
X54409Y-50000D02*
X57086Y-50000D01*
X57086Y-50000D02*
X57086Y-48188D01*
X61771Y-48425D02*
X62952Y-48425D01*
X62165Y-48779D02*
X62559Y-48779D01*
X62165Y-49409D02*
X62559Y-49409D01*
X61771Y-49763D02*
X62952Y-49763D01*
X61023Y-50000D02*
X63700Y-50000D01*
X63700Y-50000D02*
X63700Y-48188D01*
X63700Y-48188D02*
X61023Y-48188D01*
X61023Y-48188D02*
X61023Y-50000D01*
X58828Y-37200D02*
X60478Y-37200D01*
X60478Y-37200D02*
X60853Y-37200D01*
X60853Y-37200D02*
X60853Y-34800D01*
X60853Y-34800D02*
X58453Y-34800D01*
X58453Y-34800D02*
X58453Y-36825D01*
X58453Y-36825D02*
X58828Y-37200D01*
X56106Y-37547D02*
X56106Y-38547D01*
X56106Y-38547D02*
X62106Y-38547D01*
X62106Y-38547D02*
X62106Y-37547D01*
X62106Y-37547D02*
X56106Y-37547D01*
X57106Y-37547D02*
X57106Y-38547D01*
X55127Y-21658D02*
X56671Y-21350D01*
X55127Y-21658D02*
X55296Y-22508D01*
X55296Y-22508D02*
X56841Y-22199D01*
X56841Y-22199D02*
X56671Y-21350D01*
X52138Y-22735D02*
X53593Y-22133D01*
X52138Y-22735D02*
X52469Y-23536D01*
X52469Y-23536D02*
X53924Y-22933D01*
X53924Y-22933D02*
X53593Y-22133D01*
X49380Y-24408D02*
X50688Y-23532D01*
X49380Y-24408D02*
X49862Y-25128D01*
X49862Y-25128D02*
X51170Y-24252D01*
X51170Y-24252D02*
X50688Y-23532D01*
X47050Y-26510D02*
X48163Y-25396D01*
X47050Y-26510D02*
X47662Y-27122D01*
X47662Y-27122D02*
X48776Y-26009D01*
X48776Y-26009D02*
X48163Y-25396D01*
X45167Y-29076D02*
X46041Y-27766D01*
X45167Y-29076D02*
X45887Y-29556D01*
X45887Y-29556D02*
X46761Y-28246D01*
X46761Y-28246D02*
X46041Y-27766D01*
X43806Y-31939D02*
X44409Y-30484D01*
X43806Y-31939D02*
X44606Y-32271D01*
X44606Y-32271D02*
X45209Y-30816D01*
X45209Y-30816D02*
X44409Y-30484D01*
X43024Y-35038D02*
X43330Y-33493D01*
X43024Y-35038D02*
X43874Y-35206D01*
X43874Y-35206D02*
X44180Y-33662D01*
X44180Y-33662D02*
X43330Y-33493D01*
X42874Y-38188D02*
X42874Y-36614D01*
X42874Y-38188D02*
X43740Y-38188D01*
X43740Y-38188D02*
X43740Y-36614D01*
X43740Y-36614D02*
X42874Y-36614D01*
X43331Y-41329D02*
X43023Y-39785D01*
X43331Y-41329D02*
X44181Y-41159D01*
X44181Y-41159D02*
X43872Y-39615D01*
X43872Y-39615D02*
X43023Y-39785D01*
X44409Y-44338D02*
X43806Y-42883D01*
X44409Y-44338D02*
X45209Y-44006D01*
X45209Y-44006D02*
X44606Y-42551D01*
X44606Y-42551D02*
X43806Y-42883D01*
X46023Y-47036D02*
X45146Y-45728D01*
X46023Y-47036D02*
X46742Y-46555D01*
X46742Y-46555D02*
X45866Y-45246D01*
X45866Y-45246D02*
X45146Y-45728D01*
X48163Y-49406D02*
X47050Y-48292D01*
X48163Y-49406D02*
X48776Y-48793D01*
X48776Y-48793D02*
X47662Y-47680D01*
X47662Y-47680D02*
X47050Y-48292D01*
X50710Y-51289D02*
X49399Y-50415D01*
X50710Y-51289D02*
X51190Y-50568D01*
X51190Y-50568D02*
X49880Y-49694D01*
X49880Y-49694D02*
X49399Y-50415D01*
X53593Y-52650D02*
X52138Y-52047D01*
X53593Y-52650D02*
X53924Y-51850D01*
X53924Y-51850D02*
X52469Y-51247D01*
X52469Y-51247D02*
X52138Y-52047D01*
X56652Y-53412D02*
X55108Y-53106D01*
X56652Y-53412D02*
X56821Y-52562D01*
X56821Y-52562D02*
X55276Y-52256D01*
X55276Y-52256D02*
X55108Y-53106D01*
X62981Y-53111D02*
X61434Y-53408D01*
X62981Y-53111D02*
X62817Y-52260D01*
X62817Y-52260D02*
X61270Y-52558D01*
X61270Y-52558D02*
X61434Y-53408D01*
X59842Y-53582D02*
X58267Y-53582D01*
X59842Y-53582D02*
X59842Y-52716D01*
X59842Y-52716D02*
X58267Y-52716D01*
X58267Y-52716D02*
X58267Y-53582D01*
X65972Y-52023D02*
X64520Y-52633D01*
X65972Y-52023D02*
X65636Y-51224D01*
X65636Y-51224D02*
X64185Y-51835D01*
X64185Y-51835D02*
X64520Y-52633D01*
X68650Y-50430D02*
X67345Y-51311D01*
X68650Y-50430D02*
X68166Y-49712D01*
X68166Y-49712D02*
X66860Y-50593D01*
X66860Y-50593D02*
X67345Y-51311D01*
X71059Y-48292D02*
X69946Y-49406D01*
X71059Y-48292D02*
X70447Y-47680D01*
X70447Y-47680D02*
X69333Y-48793D01*
X69333Y-48793D02*
X69946Y-49406D01*
X72963Y-45728D02*
X72087Y-47036D01*
X72963Y-45728D02*
X72243Y-45246D01*
X72243Y-45246D02*
X71367Y-46555D01*
X71367Y-46555D02*
X72087Y-47036D01*
X74303Y-42863D02*
X73701Y-44318D01*
X74303Y-42863D02*
X73503Y-42532D01*
X73503Y-42532D02*
X72900Y-43986D01*
X72900Y-43986D02*
X73701Y-44318D01*
X75067Y-39804D02*
X74758Y-41349D01*
X75067Y-39804D02*
X74217Y-39635D01*
X74217Y-39635D02*
X73909Y-41179D01*
X73909Y-41179D02*
X74758Y-41349D01*
X75236Y-36614D02*
X75236Y-38188D01*
X75236Y-36614D02*
X74370Y-36614D01*
X74370Y-36614D02*
X74370Y-38188D01*
X74370Y-38188D02*
X75236Y-38188D01*
X74779Y-33474D02*
X75085Y-35018D01*
X74779Y-33474D02*
X73930Y-33642D01*
X73930Y-33642D02*
X74235Y-35187D01*
X74235Y-35187D02*
X75085Y-35018D01*
X73701Y-30484D02*
X74303Y-31939D01*
X73701Y-30484D02*
X72900Y-30816D01*
X72900Y-30816D02*
X73503Y-32271D01*
X73503Y-32271D02*
X74303Y-31939D01*
X72067Y-27746D02*
X72943Y-29055D01*
X72067Y-27746D02*
X71347Y-28228D01*
X71347Y-28228D02*
X72223Y-29536D01*
X72223Y-29536D02*
X72943Y-29055D01*
X69946Y-25396D02*
X71059Y-26510D01*
X69946Y-25396D02*
X69333Y-26009D01*
X69333Y-26009D02*
X70447Y-27122D01*
X70447Y-27122D02*
X71059Y-26510D01*
X67414Y-23536D02*
X68730Y-24401D01*
X67414Y-23536D02*
X66938Y-24260D01*
X66938Y-24260D02*
X68254Y-25124D01*
X68254Y-25124D02*
X68730Y-24401D01*
X64517Y-22133D02*
X65971Y-22735D01*
X64517Y-22133D02*
X64185Y-22933D01*
X64185Y-22933D02*
X65640Y-23536D01*
X65640Y-23536D02*
X65971Y-22735D01*
X61438Y-21389D02*
X62982Y-21698D01*
X61438Y-21389D02*
X61268Y-22238D01*
X61268Y-22238D02*
X62813Y-22547D01*
X62813Y-22547D02*
X62982Y-21698D01*
X58267Y-21220D02*
X59842Y-21220D01*
X58267Y-21220D02*
X58267Y-22086D01*
X58267Y-22086D02*
X59842Y-22086D01*
X59842Y-22086D02*
X59842Y-21220D01*
X61059Y-36807D02*
X61059Y-35232D01*
X61059Y-36807D02*
X61925Y-36807D01*
X61925Y-36807D02*
X61925Y-35232D01*
X61925Y-35232D02*
X61059Y-35232D01*
X56783Y-35110D02*
X56783Y-36370D01*
X57295Y-36370D02*
X57295Y-35110D01*
X57295Y-35110D02*
X56783Y-35110D01*
X57295Y-36370D02*
X56783Y-36370D01*
X55051Y-38075D02*
X54309Y-36554D01*
X54309Y-36554D02*
X53389Y-37002D01*
X53389Y-37002D02*
X54131Y-38524D01*
X54131Y-38524D02*
X55051Y-38075D01*
X54674Y-37887D02*
X54226Y-36967D01*
X54226Y-36967D02*
X53766Y-37191D01*
X53766Y-37191D02*
X54214Y-38111D01*
X54214Y-38111D02*
X54674Y-37887D01*
X53808Y-36426D02*
X53636Y-36072D01*
X53636Y-36072D02*
X53423Y-36175D01*
X53423Y-36175D02*
X53596Y-36529D01*
X54844Y-38549D02*
X55016Y-38903D01*
X55016Y-38903D02*
X54804Y-39006D01*
X54804Y-39006D02*
X54632Y-38652D01*
X54357Y-36158D02*
X53048Y-36797D01*
X53048Y-36797D02*
X54083Y-38920D01*
X54083Y-38920D02*
X55392Y-38281D01*
X55392Y-38281D02*
X54357Y-36158D01*
X64104Y-38524D02*
X64846Y-37002D01*
X64846Y-37002D02*
X63926Y-36554D01*
X63926Y-36554D02*
X63184Y-38075D01*
X63184Y-38075D02*
X64104Y-38524D01*
X64021Y-38111D02*
X64470Y-37191D01*
X64470Y-37191D02*
X64010Y-36967D01*
X64010Y-36967D02*
X63561Y-37887D01*
X63561Y-37887D02*
X64021Y-38111D01*
X64639Y-36529D02*
X64812Y-36175D01*
X64812Y-36175D02*
X64599Y-36072D01*
X64599Y-36072D02*
X64427Y-36426D01*
X63604Y-38652D02*
X63431Y-39006D01*
X63431Y-39006D02*
X63219Y-38903D01*
X63219Y-38903D02*
X63391Y-38549D01*
X65188Y-36797D02*
X63878Y-36158D01*
X63878Y-36158D02*
X62843Y-38281D01*
X62843Y-38281D02*
X64152Y-38920D01*
X64152Y-38920D02*
X65188Y-36797D01*
X51618Y-27011D02*
X51798Y-26890D01*
X52027Y-26737D02*
X52239Y-26595D01*
X51978Y-26770D02*
X51918Y-27070D01*
X51918Y-27070D02*
X51677Y-26710D01*
X51677Y-26710D02*
X51978Y-26770D01*
X52147Y-26917D02*
X51906Y-26557D01*
X52534Y-26681D02*
X52682Y-26583D01*
X52682Y-26583D02*
X52419Y-26190D01*
X52419Y-26190D02*
X52272Y-26289D01*
X51586Y-27317D02*
X51438Y-27415D01*
X51438Y-27415D02*
X51176Y-27022D01*
X51176Y-27022D02*
X51323Y-26924D01*
X51662Y-27431D02*
X52611Y-26796D01*
X52611Y-26796D02*
X52195Y-26174D01*
X52195Y-26174D02*
X51246Y-26809D01*
X51246Y-26809D02*
X51662Y-27431D01*
X56093Y-20348D02*
X55938Y-19576D01*
X55938Y-19576D02*
X55166Y-19730D01*
X55166Y-19730D02*
X55282Y-20309D01*
X55282Y-20309D02*
X55514Y-20464D01*
X55514Y-20464D02*
X56093Y-20348D01*
G54D13*
X56208Y-20927D02*
X55436Y-21081D01*
X54703Y-20425D02*
X54626Y-20039D01*
X55823Y-18997D02*
X55050Y-19151D01*
X56633Y-20039D02*
X56556Y-19653D01*
G54D11*
X52797Y-21236D02*
X52496Y-20509D01*
X52496Y-20509D02*
X51769Y-20810D01*
X51769Y-20810D02*
X51995Y-21356D01*
X51995Y-21356D02*
X52252Y-21462D01*
X52252Y-21462D02*
X52797Y-21236D01*
G54D13*
X53023Y-21782D02*
X52296Y-22083D01*
X51449Y-21582D02*
X51298Y-21218D01*
X52270Y-19963D02*
X51543Y-20264D01*
X53268Y-20828D02*
X53117Y-20465D01*
G54D11*
X49758Y-22785D02*
X49320Y-22130D01*
X49320Y-22130D02*
X48666Y-22569D01*
X48666Y-22569D02*
X48994Y-23059D01*
X48994Y-23059D02*
X49268Y-23113D01*
X49268Y-23113D02*
X49758Y-22785D01*
G54D13*
X50087Y-23276D02*
X49432Y-23714D01*
X48504Y-23388D02*
X48285Y-23061D01*
X48992Y-21640D02*
X48337Y-22078D01*
X50140Y-22293D02*
X49920Y-21966D01*
G54D11*
X47072Y-24881D02*
X46515Y-24325D01*
X46515Y-24325D02*
X45958Y-24881D01*
X45958Y-24881D02*
X46376Y-25299D01*
X46376Y-25299D02*
X46654Y-25299D01*
X46654Y-25299D02*
X47072Y-24881D01*
G54D13*
X47490Y-25299D02*
X46933Y-25856D01*
X45958Y-25717D02*
X45680Y-25438D01*
X46098Y-23907D02*
X45541Y-24464D01*
X47350Y-24325D02*
X47072Y-24046D01*
G54D11*
X44857Y-27469D02*
X44201Y-27032D01*
X44201Y-27032D02*
X43765Y-27687D01*
X43765Y-27687D02*
X44256Y-28015D01*
X44256Y-28015D02*
X44529Y-27960D01*
X44529Y-27960D02*
X44857Y-27469D01*
G54D13*
X45348Y-27797D02*
X44911Y-28452D01*
X43928Y-28506D02*
X43601Y-28288D01*
X43710Y-26705D02*
X43273Y-27360D01*
X45020Y-26869D02*
X44693Y-26650D01*
G54D11*
X43191Y-30416D02*
X42464Y-30115D01*
X42464Y-30115D02*
X42162Y-30842D01*
X42162Y-30842D02*
X42708Y-31068D01*
X42708Y-31068D02*
X42965Y-30962D01*
X42965Y-30962D02*
X43191Y-30416D01*
G54D13*
X43737Y-30642D02*
X43435Y-31370D01*
X42482Y-31614D02*
X42118Y-31463D01*
X41918Y-29889D02*
X41617Y-30616D01*
X43235Y-29795D02*
X42871Y-29645D01*
G54D11*
X42135Y-33646D02*
X41363Y-33494D01*
X41363Y-33494D02*
X41210Y-34266D01*
X41210Y-34266D02*
X41789Y-34381D01*
X41789Y-34381D02*
X42021Y-34226D01*
X42021Y-34226D02*
X42135Y-33646D01*
G54D13*
X42715Y-33761D02*
X42562Y-34534D01*
X41675Y-34960D02*
X41288Y-34883D01*
X40784Y-33379D02*
X40631Y-34151D01*
X42057Y-33029D02*
X41671Y-32952D01*
G54D11*
X41732Y-37007D02*
X40944Y-37007D01*
X40944Y-37007D02*
X40944Y-37795D01*
X40944Y-37795D02*
X41535Y-37795D01*
X41535Y-37795D02*
X41732Y-37598D01*
X41732Y-37598D02*
X41732Y-37007D01*
G54D13*
X42322Y-37007D02*
X42322Y-37795D01*
X41535Y-38385D02*
X41141Y-38385D01*
X40354Y-37007D02*
X40354Y-37795D01*
X41535Y-36417D02*
X41141Y-36417D01*
G54D11*
X41982Y-40383D02*
X41210Y-40537D01*
X41210Y-40537D02*
X41364Y-41309D01*
X41364Y-41309D02*
X41943Y-41193D01*
X41943Y-41193D02*
X42097Y-40962D01*
X42097Y-40962D02*
X41982Y-40383D01*
G54D13*
X42561Y-40267D02*
X42715Y-41039D01*
X42059Y-41773D02*
X41673Y-41850D01*
X40630Y-40653D02*
X40785Y-41425D01*
X41673Y-39842D02*
X41287Y-39919D01*
G54D11*
X42909Y-43698D02*
X42182Y-43999D01*
X42182Y-43999D02*
X42483Y-44726D01*
X42483Y-44726D02*
X43029Y-44500D01*
X43029Y-44500D02*
X43135Y-44243D01*
X43135Y-44243D02*
X42909Y-43698D01*
G54D13*
X43455Y-43472D02*
X43756Y-44199D01*
X43255Y-45046D02*
X42891Y-45197D01*
X41636Y-44225D02*
X41938Y-44952D01*
X42502Y-43227D02*
X42138Y-43378D01*
G54D11*
X44419Y-46678D02*
X43764Y-47116D01*
X43764Y-47116D02*
X44202Y-47770D01*
X44202Y-47770D02*
X44693Y-47442D01*
X44693Y-47442D02*
X44747Y-47168D01*
X44747Y-47168D02*
X44419Y-46678D01*
G54D13*
X44909Y-46349D02*
X45347Y-47004D01*
X45022Y-47932D02*
X44694Y-48151D01*
X43274Y-47444D02*
X43712Y-48099D01*
X43927Y-46297D02*
X43599Y-46516D01*
G54D11*
X46535Y-49384D02*
X45978Y-49940D01*
X45978Y-49940D02*
X46535Y-50497D01*
X46535Y-50497D02*
X46953Y-50080D01*
X46953Y-50080D02*
X46953Y-49801D01*
X46953Y-49801D02*
X46535Y-49384D01*
G54D13*
X46953Y-48966D02*
X47509Y-49523D01*
X47370Y-50497D02*
X47092Y-50776D01*
X45561Y-50358D02*
X46117Y-50915D01*
X45978Y-49105D02*
X45700Y-49384D01*
G54D11*
X49083Y-51580D02*
X48646Y-52235D01*
X48646Y-52235D02*
X49302Y-52671D01*
X49302Y-52671D02*
X49629Y-52180D01*
X49629Y-52180D02*
X49575Y-51907D01*
X49575Y-51907D02*
X49083Y-51580D01*
G54D13*
X49411Y-51088D02*
X50066Y-51525D01*
X50120Y-52508D02*
X49902Y-52835D01*
X48319Y-52726D02*
X48974Y-53163D01*
X48483Y-51416D02*
X48264Y-51743D01*
G54D11*
X52070Y-53265D02*
X51769Y-53992D01*
X51769Y-53992D02*
X52496Y-54293D01*
X52496Y-54293D02*
X52722Y-53748D01*
X52722Y-53748D02*
X52615Y-53491D01*
X52615Y-53491D02*
X52070Y-53265D01*
G54D13*
X52296Y-52719D02*
X53023Y-53020D01*
X53268Y-53974D02*
X53117Y-54338D01*
X51543Y-54538D02*
X52270Y-54839D01*
X51449Y-53221D02*
X51298Y-53584D01*
G54D11*
X55261Y-54320D02*
X55108Y-55093D01*
X55108Y-55093D02*
X55880Y-55246D01*
X55880Y-55246D02*
X55995Y-54666D01*
X55995Y-54666D02*
X55840Y-54435D01*
X55840Y-54435D02*
X55261Y-54320D01*
G54D13*
X55375Y-53741D02*
X56148Y-53894D01*
X56574Y-54781D02*
X56498Y-55167D01*
X54993Y-55672D02*
X55765Y-55825D01*
X54643Y-54399D02*
X54567Y-54785D01*
G54D11*
X58661Y-54724D02*
X58661Y-55511D01*
X58661Y-55511D02*
X59448Y-55511D01*
X59448Y-55511D02*
X59448Y-54921D01*
X59448Y-54921D02*
X59251Y-54724D01*
X59251Y-54724D02*
X58661Y-54724D01*
G54D13*
X58661Y-54133D02*
X59448Y-54133D01*
X60039Y-54921D02*
X60039Y-55314D01*
X58661Y-56102D02*
X59448Y-56102D01*
X58070Y-54921D02*
X58070Y-55314D01*
G54D11*
X62015Y-54457D02*
X62173Y-55228D01*
X62173Y-55228D02*
X62945Y-55070D01*
X62945Y-55070D02*
X62826Y-54491D01*
X62826Y-54491D02*
X62593Y-54338D01*
X62593Y-54338D02*
X62015Y-54457D01*
G54D13*
X61896Y-53878D02*
X62668Y-53720D01*
X63404Y-54373D02*
X63484Y-54758D01*
X62292Y-55807D02*
X63063Y-55648D01*
X61476Y-54768D02*
X61555Y-55154D01*
G54D11*
X65311Y-53569D02*
X65616Y-54295D01*
X65616Y-54295D02*
X66342Y-53989D01*
X66342Y-53989D02*
X66113Y-53445D01*
X66113Y-53445D02*
X65855Y-53340D01*
X65855Y-53340D02*
X65311Y-53569D01*
G54D13*
X65082Y-53024D02*
X65808Y-52719D01*
X66657Y-53216D02*
X66810Y-53579D01*
X65845Y-54839D02*
X66571Y-54534D01*
X64843Y-53979D02*
X64995Y-54342D01*
G54D11*
X68311Y-52059D02*
X68752Y-52711D01*
X68752Y-52711D02*
X69404Y-52271D01*
X69404Y-52271D02*
X69074Y-51782D01*
X69074Y-51782D02*
X68801Y-51728D01*
X68801Y-51728D02*
X68311Y-52059D01*
G54D13*
X67981Y-51569D02*
X68634Y-51129D01*
X69564Y-51451D02*
X69784Y-51778D01*
X69082Y-53201D02*
X69735Y-52761D01*
X67932Y-52552D02*
X68152Y-52878D01*
G54D11*
X71018Y-49922D02*
X71575Y-50478D01*
X71575Y-50478D02*
X72131Y-49920D01*
X72131Y-49920D02*
X71713Y-49503D01*
X71713Y-49503D02*
X71434Y-49503D01*
X71434Y-49503D02*
X71018Y-49922D01*
G54D13*
X70599Y-49505D02*
X71155Y-48947D01*
X72130Y-49085D02*
X72408Y-49363D01*
X71994Y-50894D02*
X72549Y-50337D01*
X70740Y-50479D02*
X71019Y-50757D01*
G54D11*
X73233Y-47353D02*
X73888Y-47790D01*
X73888Y-47790D02*
X74325Y-47134D01*
X74325Y-47134D02*
X73834Y-46807D01*
X73834Y-46807D02*
X73561Y-46861D01*
X73561Y-46861D02*
X73233Y-47353D01*
G54D13*
X72742Y-47025D02*
X73179Y-46370D01*
X74161Y-46316D02*
X74489Y-46534D01*
X74379Y-48117D02*
X74816Y-47462D01*
X73069Y-47953D02*
X73397Y-48172D01*
G54D11*
X74918Y-44386D02*
X75646Y-44687D01*
X75646Y-44687D02*
X75947Y-43960D01*
X75947Y-43960D02*
X75401Y-43734D01*
X75401Y-43734D02*
X75144Y-43840D01*
X75144Y-43840D02*
X74918Y-44386D01*
G54D13*
X74373Y-44160D02*
X74674Y-43432D01*
X75627Y-43188D02*
X75991Y-43339D01*
X76191Y-44913D02*
X76493Y-44186D01*
X74874Y-45007D02*
X75238Y-45157D01*
G54D11*
X75954Y-41214D02*
X76726Y-41368D01*
X76726Y-41368D02*
X76880Y-40596D01*
X76880Y-40596D02*
X76301Y-40480D01*
X76301Y-40480D02*
X76069Y-40635D01*
X76069Y-40635D02*
X75954Y-41214D01*
G54D13*
X75375Y-41098D02*
X75529Y-40326D01*
X76417Y-39901D02*
X76803Y-39978D01*
X77305Y-41484D02*
X77459Y-40712D01*
X76031Y-41832D02*
X76417Y-41909D01*
G54D11*
X76377Y-37795D02*
X77165Y-37795D01*
X77165Y-37795D02*
X77165Y-37007D01*
X77165Y-37007D02*
X76574Y-37007D01*
X76574Y-37007D02*
X76377Y-37204D01*
X76377Y-37204D02*
X76377Y-37795D01*
G54D13*
X75787Y-37795D02*
X75787Y-37007D01*
X76574Y-36417D02*
X76968Y-36417D01*
X77755Y-37795D02*
X77755Y-37007D01*
X76574Y-38385D02*
X76968Y-38385D01*
G54D11*
X76107Y-34399D02*
X76879Y-34246D01*
X76879Y-34246D02*
X76727Y-33474D01*
X76727Y-33474D02*
X76147Y-33589D01*
X76147Y-33589D02*
X75992Y-33820D01*
X75992Y-33820D02*
X76107Y-34399D01*
G54D13*
X75528Y-34514D02*
X75375Y-33741D01*
X76033Y-33009D02*
X76419Y-32933D01*
X77459Y-34132D02*
X77306Y-33359D01*
X76415Y-34940D02*
X76801Y-34864D01*
G54D11*
X75219Y-31143D02*
X75947Y-30843D01*
X75947Y-30843D02*
X75647Y-30115D01*
X75647Y-30115D02*
X75101Y-30340D01*
X75101Y-30340D02*
X74994Y-30597D01*
X74994Y-30597D02*
X75219Y-31143D01*
G54D13*
X74673Y-31368D02*
X74373Y-30640D01*
X74876Y-29794D02*
X75239Y-29644D01*
X76493Y-30618D02*
X76193Y-29890D01*
X75626Y-31614D02*
X75990Y-31464D01*
G54D11*
X73671Y-28105D02*
X74325Y-27667D01*
X74325Y-27667D02*
X73887Y-27012D01*
X73887Y-27012D02*
X73396Y-27341D01*
X73396Y-27341D02*
X73342Y-27614D01*
X73342Y-27614D02*
X73671Y-28105D01*
G54D13*
X73180Y-28433D02*
X72742Y-27779D01*
X73068Y-26850D02*
X73395Y-26631D01*
X74816Y-27338D02*
X74378Y-26684D01*
X74163Y-28486D02*
X74490Y-28267D01*
G54D11*
X71574Y-25438D02*
X72131Y-24881D01*
X72131Y-24881D02*
X71574Y-24325D01*
X71574Y-24325D02*
X71157Y-24742D01*
X71157Y-24742D02*
X71157Y-25021D01*
X71157Y-25021D02*
X71574Y-25438D01*
G54D13*
X71157Y-25856D02*
X70600Y-25299D01*
X70739Y-24325D02*
X71018Y-24046D01*
X72549Y-24464D02*
X71992Y-23907D01*
X72131Y-25717D02*
X72409Y-25438D01*
G54D11*
X69005Y-23223D02*
X69443Y-22569D01*
X69443Y-22569D02*
X68789Y-22130D01*
X68789Y-22130D02*
X68460Y-22621D01*
X68460Y-22621D02*
X68515Y-22894D01*
X68515Y-22894D02*
X69005Y-23223D01*
G54D13*
X68677Y-23714D02*
X68022Y-23276D01*
X67970Y-22293D02*
X68189Y-21966D01*
X69772Y-22078D02*
X69118Y-21640D01*
X69606Y-23388D02*
X69825Y-23061D01*
G54D11*
X66039Y-21538D02*
X66341Y-20810D01*
X66341Y-20810D02*
X65613Y-20509D01*
X65613Y-20509D02*
X65387Y-21054D01*
X65387Y-21054D02*
X65494Y-21312D01*
X65494Y-21312D02*
X66039Y-21538D01*
G54D13*
X65813Y-22083D02*
X65086Y-21782D01*
X64842Y-20828D02*
X64992Y-20465D01*
X66567Y-20264D02*
X65839Y-19963D01*
X66660Y-21582D02*
X66811Y-21218D01*
G54D11*
X62828Y-20502D02*
X62982Y-19730D01*
X62982Y-19730D02*
X62210Y-19576D01*
X62210Y-19576D02*
X62095Y-20155D01*
X62095Y-20155D02*
X62249Y-20386D01*
X62249Y-20386D02*
X62828Y-20502D01*
G54D13*
X62712Y-21081D02*
X61940Y-20927D01*
X61515Y-20039D02*
X61593Y-19653D01*
X63098Y-19151D02*
X62326Y-18997D01*
X63446Y-20425D02*
X63523Y-20039D01*
G54D11*
X59448Y-20078D02*
X59448Y-19291D01*
X59448Y-19291D02*
X58661Y-19291D01*
X58661Y-19291D02*
X58661Y-19881D01*
X58661Y-19881D02*
X58858Y-20078D01*
X58858Y-20078D02*
X59448Y-20078D01*
G54D13*
X59448Y-20669D02*
X58661Y-20669D01*
X58070Y-19881D02*
X58070Y-19488D01*
X59448Y-18700D02*
X58661Y-18700D01*
X60039Y-19881D02*
X60039Y-19488D01*
G54D11*
X59114Y-26023D02*
X60846Y-26023D01*
X60846Y-26023D02*
X60846Y-24527D01*
X60846Y-24527D02*
X59114Y-24527D01*
X59114Y-24527D02*
X59114Y-26023D01*
X59700Y-25185D02*
X59700Y-25365D01*
X59700Y-25365D02*
X59471Y-25365D01*
X59471Y-25185D02*
X59471Y-25365D01*
X59700Y-25185D02*
X59471Y-25185D01*
X60489Y-25555D02*
X60489Y-25735D01*
X60489Y-25735D02*
X60260Y-25735D01*
X60260Y-25555D02*
X60260Y-25735D01*
X60489Y-25555D02*
X60260Y-25555D01*
X60489Y-24815D02*
X60489Y-24995D01*
X60489Y-24995D02*
X60260Y-24995D01*
X60260Y-24815D02*
X60260Y-24995D01*
X60489Y-24815D02*
X60260Y-24815D01*
X60098Y-25079D02*
X60098Y-25471D01*
X60098Y-25471D02*
X59862Y-25471D01*
X59862Y-25079D02*
X59862Y-25471D01*
X60098Y-25079D02*
X59862Y-25079D01*
X59721Y-25834D02*
X60239Y-25834D01*
X60239Y-25834D02*
X60239Y-24716D01*
X60239Y-24716D02*
X59721Y-24716D01*
X59721Y-24716D02*
X59721Y-25834D01*
X58996Y-24527D02*
X57263Y-24527D01*
X57263Y-24527D02*
X57263Y-26023D01*
X57263Y-26023D02*
X58996Y-26023D01*
X58996Y-26023D02*
X58996Y-24527D01*
X58409Y-25365D02*
X58409Y-25185D01*
X58409Y-25185D02*
X58638Y-25185D01*
X58638Y-25365D02*
X58638Y-25185D01*
X58409Y-25365D02*
X58638Y-25365D01*
X57620Y-24995D02*
X57620Y-24815D01*
X57620Y-24815D02*
X57849Y-24815D01*
X57849Y-24995D02*
X57849Y-24815D01*
X57620Y-24995D02*
X57849Y-24995D01*
X57620Y-25735D02*
X57620Y-25555D01*
X57620Y-25555D02*
X57849Y-25555D01*
X57849Y-25735D02*
X57849Y-25555D01*
X57620Y-25735D02*
X57849Y-25735D01*
X58011Y-25471D02*
X58011Y-25079D01*
X58011Y-25079D02*
X58247Y-25079D01*
X58247Y-25471D02*
X58247Y-25079D01*
X58011Y-25471D02*
X58247Y-25471D01*
X58388Y-24716D02*
X57870Y-24716D01*
X57870Y-24716D02*
X57870Y-25834D01*
X57870Y-25834D02*
X58388Y-25834D01*
X58388Y-25834D02*
X58388Y-24716D01*
X57263Y-26023D02*
X57263Y-24685D01*
X57263Y-24685D02*
X56555Y-24685D01*
X56555Y-24685D02*
X56555Y-26023D01*
X56555Y-26023D02*
X57263Y-26023D01*
X56739Y-25184D02*
X56739Y-25024D01*
X56739Y-25024D02*
X57079Y-25024D01*
X57079Y-25184D02*
X57079Y-25024D01*
X56739Y-25184D02*
X57079Y-25184D01*
X56739Y-25684D02*
X56739Y-25524D01*
X56739Y-25524D02*
X57079Y-25524D01*
X57079Y-25684D02*
X57079Y-25524D01*
X56739Y-25684D02*
X57079Y-25684D01*
X56769Y-25524D02*
X56769Y-25184D01*
X57049Y-25184D02*
X57049Y-25524D01*
X60846Y-24685D02*
X60846Y-26023D01*
X60846Y-26023D02*
X61555Y-26023D01*
X61555Y-26023D02*
X61555Y-24685D01*
X61555Y-24685D02*
X60846Y-24685D01*
X61370Y-25524D02*
X61370Y-25684D01*
X61370Y-25684D02*
X61030Y-25684D01*
X61030Y-25524D02*
X61030Y-25684D01*
X61370Y-25524D02*
X61030Y-25524D01*
X61370Y-25024D02*
X61370Y-25184D01*
X61370Y-25184D02*
X61030Y-25184D01*
X61030Y-25024D02*
X61030Y-25184D01*
X61370Y-25024D02*
X61030Y-25024D01*
X61340Y-25184D02*
X61340Y-25524D01*
X61060Y-25524D02*
X61060Y-25184D01*
G54D15*
G36*
X48789Y-31656D02*
X48782Y-31643D01*
X48765Y-31616D01*
X48739Y-31576D01*
X48708Y-31530D01*
X48676Y-31483D01*
X48650Y-31444D01*
X48633Y-31417D01*
X48627Y-31406D01*
X48629Y-31400D01*
X48640Y-31378D01*
X48657Y-31346D01*
X48666Y-31327D01*
X48679Y-31297D01*
X48682Y-31283D01*
X48678Y-31280D01*
X48655Y-31269D01*
X48616Y-31252D01*
X48565Y-31230D01*
X48505Y-31204D01*
X48440Y-31177D01*
X48374Y-31150D01*
X48312Y-31124D01*
X48255Y-31100D01*
X48209Y-31082D01*
X48177Y-31070D01*
X48163Y-31065D01*
X48160Y-31067D01*
X48146Y-31081D01*
X48127Y-31107D01*
X48081Y-31163D01*
X48012Y-31218D01*
X47934Y-31252D01*
X47847Y-31263D01*
X47767Y-31254D01*
X47690Y-31222D01*
X47620Y-31168D01*
X47568Y-31102D01*
X47536Y-31026D01*
X47525Y-30940D01*
X47534Y-30858D01*
X47565Y-30779D01*
X47618Y-30709D01*
X47652Y-30680D01*
X47723Y-30639D01*
X47798Y-30616D01*
X47817Y-30614D01*
X47900Y-30617D01*
X47980Y-30642D01*
X48051Y-30685D01*
X48109Y-30746D01*
X48115Y-30754D01*
X48136Y-30782D01*
X48150Y-30801D01*
X48162Y-30816D01*
X48417Y-30710D01*
X48457Y-30693D01*
X48526Y-30664D01*
X48586Y-30639D01*
X48634Y-30618D01*
X48666Y-30604D01*
X48679Y-30598D01*
X48679Y-30597D01*
X48681Y-30588D01*
X48674Y-30569D01*
X48657Y-30533D01*
X48645Y-30510D01*
X48632Y-30483D01*
X48627Y-30471D01*
X48632Y-30460D01*
X48649Y-30434D01*
X48675Y-30397D01*
X48705Y-30351D01*
X48735Y-30308D01*
X48761Y-30268D01*
X48780Y-30239D01*
X48787Y-30225D01*
X48787Y-30223D01*
X48780Y-30210D01*
X48761Y-30187D01*
X48728Y-30153D01*
X48680Y-30104D01*
X48673Y-30096D01*
X48632Y-30056D01*
X48597Y-30023D01*
X48573Y-30001D01*
X48562Y-29993D01*
X48562Y-29993D01*
X48548Y-30001D01*
X48519Y-30019D01*
X48479Y-30045D01*
X48431Y-30077D01*
X48309Y-30162D01*
X48194Y-30115D01*
X48158Y-30101D01*
X48115Y-30083D01*
X48085Y-30070D01*
X48071Y-30063D01*
X48067Y-30050D01*
X48059Y-30019D01*
X48050Y-29973D01*
X48040Y-29918D01*
X48030Y-29866D01*
X48021Y-29819D01*
X48015Y-29785D01*
X48012Y-29770D01*
X48009Y-29766D01*
X48002Y-29763D01*
X47986Y-29761D01*
X47957Y-29760D01*
X47912Y-29759D01*
X47847Y-29759D01*
X47840Y-29759D01*
X47778Y-29760D01*
X47729Y-29761D01*
X47697Y-29763D01*
X47684Y-29765D01*
X47684Y-29765D01*
X47680Y-29780D01*
X47673Y-29813D01*
X47664Y-29860D01*
X47653Y-29916D01*
X47653Y-29920D01*
X47642Y-29976D01*
X47632Y-30022D01*
X47625Y-30055D01*
X47620Y-30069D01*
X47616Y-30072D01*
X47594Y-30083D01*
X47560Y-30099D01*
X47518Y-30118D01*
X47474Y-30136D01*
X47434Y-30152D01*
X47405Y-30162D01*
X47391Y-30165D01*
X47391Y-30165D01*
X47378Y-30157D01*
X47349Y-30138D01*
X47309Y-30110D01*
X47261Y-30078D01*
X47257Y-30075D01*
X47210Y-30043D01*
X47170Y-30017D01*
X47142Y-30000D01*
X47129Y-29993D01*
X47128Y-29993D01*
X47114Y-30004D01*
X47087Y-30028D01*
X47051Y-30063D01*
X47010Y-30104D01*
X46997Y-30117D01*
X46952Y-30163D01*
X46923Y-30195D01*
X46907Y-30215D01*
X46903Y-30224D01*
X46904Y-30225D01*
X46912Y-30239D01*
X46932Y-30269D01*
X46959Y-30309D01*
X46992Y-30357D01*
X46994Y-30360D01*
X47026Y-30408D01*
X47053Y-30447D01*
X47071Y-30475D01*
X47078Y-30487D01*
X47078Y-30489D01*
X47073Y-30508D01*
X47061Y-30542D01*
X47045Y-30583D01*
X47028Y-30627D01*
X47011Y-30667D01*
X46997Y-30696D01*
X46989Y-30710D01*
X46989Y-30711D01*
X46972Y-30716D01*
X46936Y-30724D01*
X46888Y-30734D01*
X46830Y-30745D01*
X46821Y-30747D01*
X46764Y-30757D01*
X46718Y-30766D01*
X46686Y-30773D01*
X46672Y-30776D01*
X46671Y-30784D01*
X46669Y-30812D01*
X46667Y-30854D01*
X46667Y-30905D01*
X46667Y-30958D01*
X46668Y-31010D01*
X46670Y-31054D01*
X46672Y-31086D01*
X46675Y-31100D01*
X46676Y-31100D01*
X46693Y-31105D01*
X46728Y-31113D01*
X46777Y-31123D01*
X46835Y-31134D01*
X46846Y-31136D01*
X46902Y-31146D01*
X46948Y-31156D01*
X46979Y-31163D01*
X46992Y-31166D01*
X46994Y-31171D01*
X47005Y-31194D01*
X47020Y-31232D01*
X47039Y-31279D01*
X47083Y-31387D01*
X46992Y-31519D01*
X46984Y-31531D01*
X46951Y-31579D01*
X46925Y-31618D01*
X46908Y-31646D01*
X46901Y-31657D01*
X46902Y-31658D01*
X46913Y-31671D01*
X46938Y-31697D01*
X46973Y-31733D01*
X47014Y-31775D01*
X47045Y-31806D01*
X47082Y-31842D01*
X47107Y-31865D01*
X47123Y-31878D01*
X47133Y-31883D01*
X47140Y-31881D01*
X47153Y-31873D01*
X47182Y-31853D01*
X47223Y-31826D01*
X47269Y-31794D01*
X47309Y-31767D01*
X47353Y-31738D01*
X47385Y-31720D01*
X47400Y-31713D01*
X47407Y-31715D01*
X47433Y-31724D01*
X47472Y-31740D01*
X47519Y-31760D01*
X47624Y-31806D01*
X47637Y-31875D01*
X47645Y-31916D01*
X47656Y-31975D01*
X47667Y-32031D01*
X47684Y-32118D01*
X48003Y-32121D01*
X48009Y-32107D01*
X48013Y-32094D01*
X48020Y-32062D01*
X48029Y-32016D01*
X48039Y-31962D01*
X48048Y-31915D01*
X48057Y-31869D01*
X48063Y-31835D01*
X48066Y-31820D01*
X48071Y-31817D01*
X48094Y-31805D01*
X48130Y-31788D01*
X48173Y-31770D01*
X48218Y-31751D01*
X48259Y-31735D01*
X48291Y-31723D01*
X48307Y-31719D01*
X48319Y-31725D01*
X48347Y-31743D01*
X48386Y-31769D01*
X48432Y-31800D01*
X48479Y-31832D01*
X48518Y-31859D01*
X48547Y-31878D01*
X48560Y-31885D01*
X48569Y-31881D01*
X48591Y-31863D01*
X48627Y-31828D01*
X48679Y-31776D01*
X48687Y-31767D01*
X48727Y-31726D01*
X48759Y-31691D01*
X48781Y-31667D01*
X48789Y-31656D01*
X48789Y-31656D01*
G37*
X48789Y-31656D02*
X48782Y-31643D01*
X48765Y-31616D01*
X48739Y-31576D01*
X48708Y-31530D01*
X48676Y-31483D01*
X48650Y-31444D01*
X48633Y-31417D01*
X48627Y-31406D01*
X48629Y-31400D01*
X48640Y-31378D01*
X48657Y-31346D01*
X48666Y-31327D01*
X48679Y-31297D01*
X48682Y-31283D01*
X48678Y-31280D01*
X48655Y-31269D01*
X48616Y-31252D01*
X48565Y-31230D01*
X48505Y-31204D01*
X48440Y-31177D01*
X48374Y-31150D01*
X48312Y-31124D01*
X48255Y-31100D01*
X48209Y-31082D01*
X48177Y-31070D01*
X48163Y-31065D01*
X48160Y-31067D01*
X48146Y-31081D01*
X48127Y-31107D01*
X48081Y-31163D01*
X48012Y-31218D01*
X47934Y-31252D01*
X47847Y-31263D01*
X47767Y-31254D01*
X47690Y-31222D01*
X47620Y-31168D01*
X47568Y-31102D01*
X47536Y-31026D01*
X47525Y-30940D01*
X47534Y-30858D01*
X47565Y-30779D01*
X47618Y-30709D01*
X47652Y-30680D01*
X47723Y-30639D01*
X47798Y-30616D01*
X47817Y-30614D01*
X47900Y-30617D01*
X47980Y-30642D01*
X48051Y-30685D01*
X48109Y-30746D01*
X48115Y-30754D01*
X48136Y-30782D01*
X48150Y-30801D01*
X48162Y-30816D01*
X48417Y-30710D01*
X48457Y-30693D01*
X48526Y-30664D01*
X48586Y-30639D01*
X48634Y-30618D01*
X48666Y-30604D01*
X48679Y-30598D01*
X48679Y-30597D01*
X48681Y-30588D01*
X48674Y-30569D01*
X48657Y-30533D01*
X48645Y-30510D01*
X48632Y-30483D01*
X48627Y-30471D01*
X48632Y-30460D01*
X48649Y-30434D01*
X48675Y-30397D01*
X48705Y-30351D01*
X48735Y-30308D01*
X48761Y-30268D01*
X48780Y-30239D01*
X48787Y-30225D01*
X48787Y-30223D01*
X48780Y-30210D01*
X48761Y-30187D01*
X48728Y-30153D01*
X48680Y-30104D01*
X48673Y-30096D01*
X48632Y-30056D01*
X48597Y-30023D01*
X48573Y-30001D01*
X48562Y-29993D01*
X48562Y-29993D01*
X48548Y-30001D01*
X48519Y-30019D01*
X48479Y-30045D01*
X48431Y-30077D01*
X48309Y-30162D01*
X48194Y-30115D01*
X48158Y-30101D01*
X48115Y-30083D01*
X48085Y-30070D01*
X48071Y-30063D01*
X48067Y-30050D01*
X48059Y-30019D01*
X48050Y-29973D01*
X48040Y-29918D01*
X48030Y-29866D01*
X48021Y-29819D01*
X48015Y-29785D01*
X48012Y-29770D01*
X48009Y-29766D01*
X48002Y-29763D01*
X47986Y-29761D01*
X47957Y-29760D01*
X47912Y-29759D01*
X47847Y-29759D01*
X47840Y-29759D01*
X47778Y-29760D01*
X47729Y-29761D01*
X47697Y-29763D01*
X47684Y-29765D01*
X47684Y-29765D01*
X47680Y-29780D01*
X47673Y-29813D01*
X47664Y-29860D01*
X47653Y-29916D01*
X47653Y-29920D01*
X47642Y-29976D01*
X47632Y-30022D01*
X47625Y-30055D01*
X47620Y-30069D01*
X47616Y-30072D01*
X47594Y-30083D01*
X47560Y-30099D01*
X47518Y-30118D01*
X47474Y-30136D01*
X47434Y-30152D01*
X47405Y-30162D01*
X47391Y-30165D01*
X47391Y-30165D01*
X47378Y-30157D01*
X47349Y-30138D01*
X47309Y-30110D01*
X47261Y-30078D01*
X47257Y-30075D01*
X47210Y-30043D01*
X47170Y-30017D01*
X47142Y-30000D01*
X47129Y-29993D01*
X47128Y-29993D01*
X47114Y-30004D01*
X47087Y-30028D01*
X47051Y-30063D01*
X47010Y-30104D01*
X46997Y-30117D01*
X46952Y-30163D01*
X46923Y-30195D01*
X46907Y-30215D01*
X46903Y-30224D01*
X46904Y-30225D01*
X46912Y-30239D01*
X46932Y-30269D01*
X46959Y-30309D01*
X46992Y-30357D01*
X46994Y-30360D01*
X47026Y-30408D01*
X47053Y-30447D01*
X47071Y-30475D01*
X47078Y-30487D01*
X47078Y-30489D01*
X47073Y-30508D01*
X47061Y-30542D01*
X47045Y-30583D01*
X47028Y-30627D01*
X47011Y-30667D01*
X46997Y-30696D01*
X46989Y-30710D01*
X46989Y-30711D01*
X46972Y-30716D01*
X46936Y-30724D01*
X46888Y-30734D01*
X46830Y-30745D01*
X46821Y-30747D01*
X46764Y-30757D01*
X46718Y-30766D01*
X46686Y-30773D01*
X46672Y-30776D01*
X46671Y-30784D01*
X46669Y-30812D01*
X46667Y-30854D01*
X46667Y-30905D01*
X46667Y-30958D01*
X46668Y-31010D01*
X46670Y-31054D01*
X46672Y-31086D01*
X46675Y-31100D01*
X46676Y-31100D01*
X46693Y-31105D01*
X46728Y-31113D01*
X46777Y-31123D01*
X46835Y-31134D01*
X46846Y-31136D01*
X46902Y-31146D01*
X46948Y-31156D01*
X46979Y-31163D01*
X46992Y-31166D01*
X46994Y-31171D01*
X47005Y-31194D01*
X47020Y-31232D01*
X47039Y-31279D01*
X47083Y-31387D01*
X46992Y-31519D01*
X46984Y-31531D01*
X46951Y-31579D01*
X46925Y-31618D01*
X46908Y-31646D01*
X46901Y-31657D01*
X46902Y-31658D01*
X46913Y-31671D01*
X46938Y-31697D01*
X46973Y-31733D01*
X47014Y-31775D01*
X47045Y-31806D01*
X47082Y-31842D01*
X47107Y-31865D01*
X47123Y-31878D01*
X47133Y-31883D01*
X47140Y-31881D01*
X47153Y-31873D01*
X47182Y-31853D01*
X47223Y-31826D01*
X47269Y-31794D01*
X47309Y-31767D01*
X47353Y-31738D01*
X47385Y-31720D01*
X47400Y-31713D01*
X47407Y-31715D01*
X47433Y-31724D01*
X47472Y-31740D01*
X47519Y-31760D01*
X47624Y-31806D01*
X47637Y-31875D01*
X47645Y-31916D01*
X47656Y-31975D01*
X47667Y-32031D01*
X47684Y-32118D01*
X48003Y-32121D01*
X48009Y-32107D01*
X48013Y-32094D01*
X48020Y-32062D01*
X48029Y-32016D01*
X48039Y-31962D01*
X48048Y-31915D01*
X48057Y-31869D01*
X48063Y-31835D01*
X48066Y-31820D01*
X48071Y-31817D01*
X48094Y-31805D01*
X48130Y-31788D01*
X48173Y-31770D01*
X48218Y-31751D01*
X48259Y-31735D01*
X48291Y-31723D01*
X48307Y-31719D01*
X48319Y-31725D01*
X48347Y-31743D01*
X48386Y-31769D01*
X48432Y-31800D01*
X48479Y-31832D01*
X48518Y-31859D01*
X48547Y-31878D01*
X48560Y-31885D01*
X48569Y-31881D01*
X48591Y-31863D01*
X48627Y-31828D01*
X48679Y-31776D01*
X48687Y-31767D01*
X48727Y-31726D01*
X48759Y-31691D01*
X48781Y-31667D01*
X48789Y-31656D01*
G36*
X48792Y-43337D02*
X48788Y-43307D01*
X48779Y-43280D01*
X48773Y-43268D01*
X48755Y-43243D01*
X48734Y-43223D01*
X48709Y-43208D01*
X48682Y-43198D01*
X48653Y-43193D01*
X48624Y-43194D01*
X48595Y-43201D01*
X48567Y-43214D01*
X48555Y-43223D01*
X48542Y-43235D01*
X48529Y-43249D01*
X48520Y-43261D01*
X48517Y-43265D01*
X48505Y-43291D01*
X48499Y-43317D01*
X48498Y-43347D01*
X48498Y-43357D01*
X48500Y-43373D01*
X48504Y-43387D01*
X48511Y-43403D01*
X48520Y-43420D01*
X48539Y-43444D01*
X48563Y-43463D01*
X48590Y-43478D01*
X48602Y-43482D01*
X48617Y-43486D01*
X48628Y-43488D01*
X48630Y-43488D01*
X48630Y-43488D01*
X48624Y-43489D01*
X48623Y-43489D01*
X48604Y-43494D01*
X48585Y-43501D01*
X48568Y-43510D01*
X48546Y-43526D01*
X48525Y-43549D01*
X48510Y-43575D01*
X48500Y-43604D01*
X48497Y-43635D01*
X48497Y-43643D01*
X48500Y-43666D01*
X48506Y-43689D01*
X48508Y-43693D01*
X48522Y-43718D01*
X48540Y-43740D01*
X48563Y-43759D01*
X48587Y-43772D01*
X48614Y-43780D01*
X48615Y-43781D01*
X48622Y-43782D01*
X48625Y-43783D01*
X48625Y-43783D01*
X48621Y-43784D01*
X48614Y-43786D01*
X48611Y-43786D01*
X48585Y-43795D01*
X48560Y-43809D01*
X48538Y-43828D01*
X48523Y-43846D01*
X48509Y-43871D01*
X48500Y-43900D01*
X48497Y-43931D01*
X48499Y-43953D01*
X48506Y-43982D01*
X48520Y-44009D01*
X48538Y-44033D01*
X48562Y-44052D01*
X48565Y-44055D01*
X48576Y-44061D01*
X48585Y-44066D01*
X48592Y-44068D01*
X48605Y-44073D01*
X48618Y-44076D01*
X48628Y-44077D01*
X48630Y-44077D01*
X48630Y-44078D01*
X48623Y-44079D01*
X48607Y-44082D01*
X48587Y-44090D01*
X48569Y-44098D01*
X48545Y-44116D01*
X48525Y-44139D01*
X48510Y-44165D01*
X48500Y-44194D01*
X48497Y-44224D01*
X48499Y-44252D01*
X48507Y-44281D01*
X48522Y-44307D01*
X48542Y-44331D01*
X48555Y-44343D01*
X48571Y-44354D01*
X48590Y-44363D01*
X48605Y-44368D01*
X48635Y-44373D01*
X48664Y-44372D01*
X48691Y-44366D01*
X48717Y-44354D01*
X48740Y-44338D01*
X48760Y-44318D01*
X48776Y-44294D01*
X48786Y-44267D01*
X48791Y-44237D01*
X48792Y-44234D01*
X48791Y-44204D01*
X48784Y-44176D01*
X48771Y-44149D01*
X48764Y-44139D01*
X48747Y-44120D01*
X48726Y-44102D01*
X48704Y-44090D01*
X48696Y-44087D01*
X48683Y-44083D01*
X48670Y-44080D01*
X48660Y-44078D01*
X48654Y-44078D01*
X48660Y-44077D01*
X48665Y-44077D01*
X48678Y-44074D01*
X48693Y-44070D01*
X48705Y-44065D01*
X48719Y-44058D01*
X48743Y-44040D01*
X48763Y-44017D01*
X48779Y-43991D01*
X48789Y-43962D01*
X48790Y-43957D01*
X48792Y-43937D01*
X48791Y-43915D01*
X48788Y-43896D01*
X48782Y-43876D01*
X48768Y-43849D01*
X48748Y-43824D01*
X48746Y-43823D01*
X48725Y-43806D01*
X48700Y-43793D01*
X48675Y-43786D01*
X48674Y-43785D01*
X48667Y-43784D01*
X48664Y-43783D01*
X48666Y-43782D01*
X48672Y-43781D01*
X48674Y-43781D01*
X48689Y-43777D01*
X48706Y-43770D01*
X48722Y-43761D01*
X48740Y-43748D01*
X48761Y-43726D01*
X48777Y-43700D01*
X48788Y-43671D01*
X48789Y-43666D01*
X48791Y-43646D01*
X48791Y-43624D01*
X48789Y-43605D01*
X48784Y-43589D01*
X48772Y-43561D01*
X48754Y-43537D01*
X48731Y-43516D01*
X48705Y-43501D01*
X48697Y-43498D01*
X48683Y-43493D01*
X48670Y-43490D01*
X48660Y-43489D01*
X48659Y-43489D01*
X48659Y-43488D01*
X48665Y-43487D01*
X48666Y-43487D01*
X48684Y-43483D01*
X48704Y-43475D01*
X48721Y-43467D01*
X48727Y-43463D01*
X48750Y-43444D01*
X48768Y-43420D01*
X48782Y-43395D01*
X48790Y-43367D01*
X48792Y-43337D01*
X48792Y-43337D01*
G37*
X48792Y-43337D02*
X48788Y-43307D01*
X48779Y-43280D01*
X48773Y-43268D01*
X48755Y-43243D01*
X48734Y-43223D01*
X48709Y-43208D01*
X48682Y-43198D01*
X48653Y-43193D01*
X48624Y-43194D01*
X48595Y-43201D01*
X48567Y-43214D01*
X48555Y-43223D01*
X48542Y-43235D01*
X48529Y-43249D01*
X48520Y-43261D01*
X48517Y-43265D01*
X48505Y-43291D01*
X48499Y-43317D01*
X48498Y-43347D01*
X48498Y-43357D01*
X48500Y-43373D01*
X48504Y-43387D01*
X48511Y-43403D01*
X48520Y-43420D01*
X48539Y-43444D01*
X48563Y-43463D01*
X48590Y-43478D01*
X48602Y-43482D01*
X48617Y-43486D01*
X48628Y-43488D01*
X48630Y-43488D01*
X48630Y-43488D01*
X48624Y-43489D01*
X48623Y-43489D01*
X48604Y-43494D01*
X48585Y-43501D01*
X48568Y-43510D01*
X48546Y-43526D01*
X48525Y-43549D01*
X48510Y-43575D01*
X48500Y-43604D01*
X48497Y-43635D01*
X48497Y-43643D01*
X48500Y-43666D01*
X48506Y-43689D01*
X48508Y-43693D01*
X48522Y-43718D01*
X48540Y-43740D01*
X48563Y-43759D01*
X48587Y-43772D01*
X48614Y-43780D01*
X48615Y-43781D01*
X48622Y-43782D01*
X48625Y-43783D01*
X48625Y-43783D01*
X48621Y-43784D01*
X48614Y-43786D01*
X48611Y-43786D01*
X48585Y-43795D01*
X48560Y-43809D01*
X48538Y-43828D01*
X48523Y-43846D01*
X48509Y-43871D01*
X48500Y-43900D01*
X48497Y-43931D01*
X48499Y-43953D01*
X48506Y-43982D01*
X48520Y-44009D01*
X48538Y-44033D01*
X48562Y-44052D01*
X48565Y-44055D01*
X48576Y-44061D01*
X48585Y-44066D01*
X48592Y-44068D01*
X48605Y-44073D01*
X48618Y-44076D01*
X48628Y-44077D01*
X48630Y-44077D01*
X48630Y-44078D01*
X48623Y-44079D01*
X48607Y-44082D01*
X48587Y-44090D01*
X48569Y-44098D01*
X48545Y-44116D01*
X48525Y-44139D01*
X48510Y-44165D01*
X48500Y-44194D01*
X48497Y-44224D01*
X48499Y-44252D01*
X48507Y-44281D01*
X48522Y-44307D01*
X48542Y-44331D01*
X48555Y-44343D01*
X48571Y-44354D01*
X48590Y-44363D01*
X48605Y-44368D01*
X48635Y-44373D01*
X48664Y-44372D01*
X48691Y-44366D01*
X48717Y-44354D01*
X48740Y-44338D01*
X48760Y-44318D01*
X48776Y-44294D01*
X48786Y-44267D01*
X48791Y-44237D01*
X48792Y-44234D01*
X48791Y-44204D01*
X48784Y-44176D01*
X48771Y-44149D01*
X48764Y-44139D01*
X48747Y-44120D01*
X48726Y-44102D01*
X48704Y-44090D01*
X48696Y-44087D01*
X48683Y-44083D01*
X48670Y-44080D01*
X48660Y-44078D01*
X48654Y-44078D01*
X48660Y-44077D01*
X48665Y-44077D01*
X48678Y-44074D01*
X48693Y-44070D01*
X48705Y-44065D01*
X48719Y-44058D01*
X48743Y-44040D01*
X48763Y-44017D01*
X48779Y-43991D01*
X48789Y-43962D01*
X48790Y-43957D01*
X48792Y-43937D01*
X48791Y-43915D01*
X48788Y-43896D01*
X48782Y-43876D01*
X48768Y-43849D01*
X48748Y-43824D01*
X48746Y-43823D01*
X48725Y-43806D01*
X48700Y-43793D01*
X48675Y-43786D01*
X48674Y-43785D01*
X48667Y-43784D01*
X48664Y-43783D01*
X48666Y-43782D01*
X48672Y-43781D01*
X48674Y-43781D01*
X48689Y-43777D01*
X48706Y-43770D01*
X48722Y-43761D01*
X48740Y-43748D01*
X48761Y-43726D01*
X48777Y-43700D01*
X48788Y-43671D01*
X48789Y-43666D01*
X48791Y-43646D01*
X48791Y-43624D01*
X48789Y-43605D01*
X48784Y-43589D01*
X48772Y-43561D01*
X48754Y-43537D01*
X48731Y-43516D01*
X48705Y-43501D01*
X48697Y-43498D01*
X48683Y-43493D01*
X48670Y-43490D01*
X48660Y-43489D01*
X48659Y-43489D01*
X48659Y-43488D01*
X48665Y-43487D01*
X48666Y-43487D01*
X48684Y-43483D01*
X48704Y-43475D01*
X48721Y-43467D01*
X48727Y-43463D01*
X48750Y-43444D01*
X48768Y-43420D01*
X48782Y-43395D01*
X48790Y-43367D01*
X48792Y-43337D01*
G36*
X48497Y-44530D02*
X48496Y-44512D01*
X48495Y-44495D01*
X48490Y-44475D01*
X48477Y-44448D01*
X48460Y-44423D01*
X48438Y-44403D01*
X48412Y-44387D01*
X48384Y-44377D01*
X48354Y-44373D01*
X48324Y-44375D01*
X48296Y-44383D01*
X48270Y-44396D01*
X48246Y-44415D01*
X48226Y-44439D01*
X48222Y-44446D01*
X48209Y-44475D01*
X48202Y-44504D01*
X48202Y-44535D01*
X48208Y-44565D01*
X48218Y-44589D01*
X48235Y-44615D01*
X48257Y-44636D01*
X48283Y-44653D01*
X48313Y-44664D01*
X48328Y-44667D01*
X48347Y-44668D01*
X48366Y-44668D01*
X48382Y-44665D01*
X48387Y-44664D01*
X48417Y-44652D01*
X48443Y-44635D01*
X48465Y-44612D01*
X48482Y-44585D01*
X48487Y-44573D01*
X48493Y-44556D01*
X48496Y-44540D01*
X48497Y-44530D01*
X48497Y-44530D01*
G37*
X48497Y-44530D02*
X48496Y-44512D01*
X48495Y-44495D01*
X48490Y-44475D01*
X48477Y-44448D01*
X48460Y-44423D01*
X48438Y-44403D01*
X48412Y-44387D01*
X48384Y-44377D01*
X48354Y-44373D01*
X48324Y-44375D01*
X48296Y-44383D01*
X48270Y-44396D01*
X48246Y-44415D01*
X48226Y-44439D01*
X48222Y-44446D01*
X48209Y-44475D01*
X48202Y-44504D01*
X48202Y-44535D01*
X48208Y-44565D01*
X48218Y-44589D01*
X48235Y-44615D01*
X48257Y-44636D01*
X48283Y-44653D01*
X48313Y-44664D01*
X48328Y-44667D01*
X48347Y-44668D01*
X48366Y-44668D01*
X48382Y-44665D01*
X48387Y-44664D01*
X48417Y-44652D01*
X48443Y-44635D01*
X48465Y-44612D01*
X48482Y-44585D01*
X48487Y-44573D01*
X48493Y-44556D01*
X48496Y-44540D01*
X48497Y-44530D01*
G36*
X48497Y-43042D02*
X48493Y-43012D01*
X48483Y-42982D01*
X48466Y-42955D01*
X48461Y-42949D01*
X48440Y-42929D01*
X48414Y-42913D01*
X48385Y-42902D01*
X48370Y-42899D01*
X48351Y-42898D01*
X48332Y-42898D01*
X48317Y-42901D01*
X48310Y-42903D01*
X48280Y-42914D01*
X48255Y-42931D01*
X48234Y-42953D01*
X48218Y-42978D01*
X48207Y-43006D01*
X48202Y-43037D01*
X48201Y-43048D01*
X48205Y-43078D01*
X48214Y-43106D01*
X48229Y-43131D01*
X48248Y-43153D01*
X48271Y-43170D01*
X48297Y-43183D01*
X48325Y-43191D01*
X48356Y-43192D01*
X48374Y-43191D01*
X48390Y-43187D01*
X48407Y-43181D01*
X48430Y-43169D01*
X48453Y-43150D01*
X48472Y-43127D01*
X48486Y-43101D01*
X48494Y-43072D01*
X48497Y-43042D01*
X48497Y-43042D01*
G37*
X48497Y-43042D02*
X48493Y-43012D01*
X48483Y-42982D01*
X48466Y-42955D01*
X48461Y-42949D01*
X48440Y-42929D01*
X48414Y-42913D01*
X48385Y-42902D01*
X48370Y-42899D01*
X48351Y-42898D01*
X48332Y-42898D01*
X48317Y-42901D01*
X48310Y-42903D01*
X48280Y-42914D01*
X48255Y-42931D01*
X48234Y-42953D01*
X48218Y-42978D01*
X48207Y-43006D01*
X48202Y-43037D01*
X48201Y-43048D01*
X48205Y-43078D01*
X48214Y-43106D01*
X48229Y-43131D01*
X48248Y-43153D01*
X48271Y-43170D01*
X48297Y-43183D01*
X48325Y-43191D01*
X48356Y-43192D01*
X48374Y-43191D01*
X48390Y-43187D01*
X48407Y-43181D01*
X48430Y-43169D01*
X48453Y-43150D01*
X48472Y-43127D01*
X48486Y-43101D01*
X48494Y-43072D01*
X48497Y-43042D01*
G36*
X48201Y-44824D02*
X48201Y-44803D01*
X48198Y-44785D01*
X48192Y-44764D01*
X48178Y-44737D01*
X48158Y-44712D01*
X48140Y-44696D01*
X48114Y-44681D01*
X48085Y-44672D01*
X48074Y-44670D01*
X48056Y-44669D01*
X48038Y-44669D01*
X48023Y-44671D01*
X48014Y-44674D01*
X47985Y-44685D01*
X47960Y-44702D01*
X47938Y-44724D01*
X47922Y-44751D01*
X47917Y-44761D01*
X47910Y-44780D01*
X47907Y-44799D01*
X47907Y-44821D01*
X47908Y-44835D01*
X47910Y-44851D01*
X47914Y-44866D01*
X47922Y-44882D01*
X47927Y-44891D01*
X47945Y-44916D01*
X47968Y-44936D01*
X47995Y-44952D01*
X48025Y-44961D01*
X48032Y-44962D01*
X48049Y-44964D01*
X48067Y-44963D01*
X48083Y-44961D01*
X48093Y-44959D01*
X48122Y-44947D01*
X48148Y-44930D01*
X48169Y-44909D01*
X48186Y-44882D01*
X48197Y-44853D01*
X48199Y-44844D01*
X48201Y-44824D01*
X48201Y-44824D01*
G37*
X48201Y-44824D02*
X48201Y-44803D01*
X48198Y-44785D01*
X48192Y-44764D01*
X48178Y-44737D01*
X48158Y-44712D01*
X48140Y-44696D01*
X48114Y-44681D01*
X48085Y-44672D01*
X48074Y-44670D01*
X48056Y-44669D01*
X48038Y-44669D01*
X48023Y-44671D01*
X48014Y-44674D01*
X47985Y-44685D01*
X47960Y-44702D01*
X47938Y-44724D01*
X47922Y-44751D01*
X47917Y-44761D01*
X47910Y-44780D01*
X47907Y-44799D01*
X47907Y-44821D01*
X47908Y-44835D01*
X47910Y-44851D01*
X47914Y-44866D01*
X47922Y-44882D01*
X47927Y-44891D01*
X47945Y-44916D01*
X47968Y-44936D01*
X47995Y-44952D01*
X48025Y-44961D01*
X48032Y-44962D01*
X48049Y-44964D01*
X48067Y-44963D01*
X48083Y-44961D01*
X48093Y-44959D01*
X48122Y-44947D01*
X48148Y-44930D01*
X48169Y-44909D01*
X48186Y-44882D01*
X48197Y-44853D01*
X48199Y-44844D01*
X48201Y-44824D01*
G36*
X48201Y-43639D02*
X48199Y-43610D01*
X48191Y-43582D01*
X48184Y-43565D01*
X48166Y-43540D01*
X48144Y-43519D01*
X48118Y-43503D01*
X48090Y-43493D01*
X48083Y-43491D01*
X48060Y-43488D01*
X48037Y-43489D01*
X48011Y-43495D01*
X47982Y-43507D01*
X47957Y-43524D01*
X47937Y-43546D01*
X47921Y-43572D01*
X47910Y-43602D01*
X47905Y-43621D01*
X47904Y-43611D01*
X47904Y-43609D01*
X47898Y-43588D01*
X47888Y-43566D01*
X47875Y-43545D01*
X47872Y-43542D01*
X47851Y-43521D01*
X47826Y-43504D01*
X47798Y-43494D01*
X47770Y-43489D01*
X47741Y-43489D01*
X47712Y-43496D01*
X47684Y-43509D01*
X47683Y-43509D01*
X47659Y-43528D01*
X47639Y-43550D01*
X47625Y-43575D01*
X47616Y-43602D01*
X47612Y-43630D01*
X47614Y-43659D01*
X47621Y-43687D01*
X47634Y-43713D01*
X47652Y-43738D01*
X47666Y-43750D01*
X47688Y-43765D01*
X47711Y-43776D01*
X47733Y-43781D01*
X47738Y-43782D01*
X47741Y-43783D01*
X47739Y-43784D01*
X47733Y-43785D01*
X47713Y-43790D01*
X47692Y-43799D01*
X47672Y-43811D01*
X47663Y-43819D01*
X47642Y-43841D01*
X47626Y-43867D01*
X47616Y-43895D01*
X47612Y-43925D01*
X47614Y-43955D01*
X47618Y-43973D01*
X47630Y-44002D01*
X47647Y-44026D01*
X47669Y-44047D01*
X47695Y-44063D01*
X47724Y-44074D01*
X47739Y-44076D01*
X47769Y-44078D01*
X47798Y-44072D01*
X47826Y-44062D01*
X47851Y-44045D01*
X47872Y-44024D01*
X47890Y-43998D01*
X47895Y-43986D01*
X47900Y-43972D01*
X47903Y-43960D01*
X47905Y-43950D01*
X47905Y-43949D01*
X47906Y-43949D01*
X47908Y-43956D01*
X47912Y-43970D01*
X47919Y-43990D01*
X47927Y-44007D01*
X47934Y-44016D01*
X47951Y-44036D01*
X47972Y-44053D01*
X47994Y-44066D01*
X48019Y-44074D01*
X48045Y-44078D01*
X48071Y-44077D01*
X48076Y-44076D01*
X48107Y-44068D01*
X48134Y-44054D01*
X48158Y-44034D01*
X48173Y-44018D01*
X48189Y-43991D01*
X48198Y-43962D01*
X48200Y-43951D01*
X48201Y-43935D01*
X48200Y-43918D01*
X48199Y-43902D01*
X48196Y-43890D01*
X48193Y-43880D01*
X48179Y-43852D01*
X48160Y-43827D01*
X48136Y-43807D01*
X48124Y-43800D01*
X48104Y-43791D01*
X48084Y-43786D01*
X48083Y-43785D01*
X48076Y-43784D01*
X48073Y-43783D01*
X48073Y-43783D01*
X48034Y-43783D01*
X48034Y-43783D01*
X48031Y-43784D01*
X48023Y-43786D01*
X48021Y-43786D01*
X47995Y-43795D01*
X47970Y-43809D01*
X47948Y-43828D01*
X47930Y-43850D01*
X47917Y-43875D01*
X47916Y-43877D01*
X47912Y-43890D01*
X47909Y-43902D01*
X47906Y-43916D01*
X47904Y-43903D01*
X47899Y-43885D01*
X47888Y-43859D01*
X47871Y-43835D01*
X47850Y-43814D01*
X47826Y-43798D01*
X47813Y-43793D01*
X47798Y-43788D01*
X47785Y-43785D01*
X47780Y-43784D01*
X47777Y-43783D01*
X47779Y-43782D01*
X47785Y-43781D01*
X47796Y-43779D01*
X47811Y-43774D01*
X47826Y-43768D01*
X47841Y-43758D01*
X47864Y-43739D01*
X47882Y-43716D01*
X47896Y-43690D01*
X47904Y-43663D01*
X47906Y-43650D01*
X47909Y-43663D01*
X47909Y-43665D01*
X47912Y-43678D01*
X47917Y-43691D01*
X47918Y-43693D01*
X47931Y-43718D01*
X47950Y-43740D01*
X47972Y-43759D01*
X47997Y-43772D01*
X48023Y-43780D01*
X48024Y-43781D01*
X48031Y-43782D01*
X48034Y-43783D01*
X48073Y-43783D01*
X48073Y-43783D01*
X48077Y-43782D01*
X48084Y-43780D01*
X48104Y-43775D01*
X48130Y-43763D01*
X48153Y-43745D01*
X48173Y-43723D01*
X48188Y-43697D01*
X48188Y-43697D01*
X48198Y-43669D01*
X48201Y-43639D01*
X48201Y-43639D01*
G37*
X48201Y-43639D02*
X48199Y-43610D01*
X48191Y-43582D01*
X48184Y-43565D01*
X48166Y-43540D01*
X48144Y-43519D01*
X48118Y-43503D01*
X48090Y-43493D01*
X48083Y-43491D01*
X48060Y-43488D01*
X48037Y-43489D01*
X48011Y-43495D01*
X47982Y-43507D01*
X47957Y-43524D01*
X47937Y-43546D01*
X47921Y-43572D01*
X47910Y-43602D01*
X47905Y-43621D01*
X47904Y-43611D01*
X47904Y-43609D01*
X47898Y-43588D01*
X47888Y-43566D01*
X47875Y-43545D01*
X47872Y-43542D01*
X47851Y-43521D01*
X47826Y-43504D01*
X47798Y-43494D01*
X47770Y-43489D01*
X47741Y-43489D01*
X47712Y-43496D01*
X47684Y-43509D01*
X47683Y-43509D01*
X47659Y-43528D01*
X47639Y-43550D01*
X47625Y-43575D01*
X47616Y-43602D01*
X47612Y-43630D01*
X47614Y-43659D01*
X47621Y-43687D01*
X47634Y-43713D01*
X47652Y-43738D01*
X47666Y-43750D01*
X47688Y-43765D01*
X47711Y-43776D01*
X47733Y-43781D01*
X47738Y-43782D01*
X47741Y-43783D01*
X47739Y-43784D01*
X47733Y-43785D01*
X47713Y-43790D01*
X47692Y-43799D01*
X47672Y-43811D01*
X47663Y-43819D01*
X47642Y-43841D01*
X47626Y-43867D01*
X47616Y-43895D01*
X47612Y-43925D01*
X47614Y-43955D01*
X47618Y-43973D01*
X47630Y-44002D01*
X47647Y-44026D01*
X47669Y-44047D01*
X47695Y-44063D01*
X47724Y-44074D01*
X47739Y-44076D01*
X47769Y-44078D01*
X47798Y-44072D01*
X47826Y-44062D01*
X47851Y-44045D01*
X47872Y-44024D01*
X47890Y-43998D01*
X47895Y-43986D01*
X47900Y-43972D01*
X47903Y-43960D01*
X47905Y-43950D01*
X47905Y-43949D01*
X47906Y-43949D01*
X47908Y-43956D01*
X47912Y-43970D01*
X47919Y-43990D01*
X47927Y-44007D01*
X47934Y-44016D01*
X47951Y-44036D01*
X47972Y-44053D01*
X47994Y-44066D01*
X48019Y-44074D01*
X48045Y-44078D01*
X48071Y-44077D01*
X48076Y-44076D01*
X48107Y-44068D01*
X48134Y-44054D01*
X48158Y-44034D01*
X48173Y-44018D01*
X48189Y-43991D01*
X48198Y-43962D01*
X48200Y-43951D01*
X48201Y-43935D01*
X48200Y-43918D01*
X48199Y-43902D01*
X48196Y-43890D01*
X48193Y-43880D01*
X48179Y-43852D01*
X48160Y-43827D01*
X48136Y-43807D01*
X48124Y-43800D01*
X48104Y-43791D01*
X48084Y-43786D01*
X48083Y-43785D01*
X48076Y-43784D01*
X48073Y-43783D01*
X48073Y-43783D01*
X48034Y-43783D01*
X48034Y-43783D01*
X48031Y-43784D01*
X48023Y-43786D01*
X48021Y-43786D01*
X47995Y-43795D01*
X47970Y-43809D01*
X47948Y-43828D01*
X47930Y-43850D01*
X47917Y-43875D01*
X47916Y-43877D01*
X47912Y-43890D01*
X47909Y-43902D01*
X47906Y-43916D01*
X47904Y-43903D01*
X47899Y-43885D01*
X47888Y-43859D01*
X47871Y-43835D01*
X47850Y-43814D01*
X47826Y-43798D01*
X47813Y-43793D01*
X47798Y-43788D01*
X47785Y-43785D01*
X47780Y-43784D01*
X47777Y-43783D01*
X47779Y-43782D01*
X47785Y-43781D01*
X47796Y-43779D01*
X47811Y-43774D01*
X47826Y-43768D01*
X47841Y-43758D01*
X47864Y-43739D01*
X47882Y-43716D01*
X47896Y-43690D01*
X47904Y-43663D01*
X47906Y-43650D01*
X47909Y-43663D01*
X47909Y-43665D01*
X47912Y-43678D01*
X47917Y-43691D01*
X47918Y-43693D01*
X47931Y-43718D01*
X47950Y-43740D01*
X47972Y-43759D01*
X47997Y-43772D01*
X48023Y-43780D01*
X48024Y-43781D01*
X48031Y-43782D01*
X48034Y-43783D01*
X48073Y-43783D01*
X48073Y-43783D01*
X48077Y-43782D01*
X48084Y-43780D01*
X48104Y-43775D01*
X48130Y-43763D01*
X48153Y-43745D01*
X48173Y-43723D01*
X48188Y-43697D01*
X48188Y-43697D01*
X48198Y-43669D01*
X48201Y-43639D01*
G36*
X48201Y-42761D02*
X48201Y-42737D01*
X48197Y-42715D01*
X48193Y-42701D01*
X48180Y-42673D01*
X48162Y-42649D01*
X48140Y-42629D01*
X48114Y-42615D01*
X48085Y-42606D01*
X48054Y-42602D01*
X48042Y-42603D01*
X48011Y-42608D01*
X47983Y-42620D01*
X47956Y-42639D01*
X47951Y-42644D01*
X47933Y-42665D01*
X47919Y-42689D01*
X47910Y-42715D01*
X47910Y-42716D01*
X47907Y-42738D01*
X47907Y-42762D01*
X47910Y-42784D01*
X47912Y-42792D01*
X47924Y-42820D01*
X47941Y-42845D01*
X47961Y-42865D01*
X47986Y-42881D01*
X48012Y-42892D01*
X48041Y-42897D01*
X48071Y-42897D01*
X48101Y-42890D01*
X48123Y-42880D01*
X48148Y-42863D01*
X48170Y-42841D01*
X48186Y-42816D01*
X48197Y-42787D01*
X48198Y-42784D01*
X48201Y-42761D01*
X48201Y-42761D01*
G37*
X48201Y-42761D02*
X48201Y-42737D01*
X48197Y-42715D01*
X48193Y-42701D01*
X48180Y-42673D01*
X48162Y-42649D01*
X48140Y-42629D01*
X48114Y-42615D01*
X48085Y-42606D01*
X48054Y-42602D01*
X48042Y-42603D01*
X48011Y-42608D01*
X47983Y-42620D01*
X47956Y-42639D01*
X47951Y-42644D01*
X47933Y-42665D01*
X47919Y-42689D01*
X47910Y-42715D01*
X47910Y-42716D01*
X47907Y-42738D01*
X47907Y-42762D01*
X47910Y-42784D01*
X47912Y-42792D01*
X47924Y-42820D01*
X47941Y-42845D01*
X47961Y-42865D01*
X47986Y-42881D01*
X48012Y-42892D01*
X48041Y-42897D01*
X48071Y-42897D01*
X48101Y-42890D01*
X48123Y-42880D01*
X48148Y-42863D01*
X48170Y-42841D01*
X48186Y-42816D01*
X48197Y-42787D01*
X48198Y-42784D01*
X48201Y-42761D01*
G36*
X47317Y-44221D02*
X47313Y-44192D01*
X47303Y-44163D01*
X47296Y-44150D01*
X47287Y-44137D01*
X47274Y-44123D01*
X47258Y-44108D01*
X47233Y-44092D01*
X47204Y-44082D01*
X47196Y-44080D01*
X47177Y-44078D01*
X47156Y-44078D01*
X47138Y-44081D01*
X47113Y-44089D01*
X47087Y-44102D01*
X47065Y-44120D01*
X47062Y-44123D01*
X47051Y-44137D01*
X47040Y-44153D01*
X47033Y-44168D01*
X47031Y-44173D01*
X47027Y-44185D01*
X47024Y-44197D01*
X47022Y-44206D01*
X47022Y-44211D01*
X47021Y-44205D01*
X47019Y-44198D01*
X47017Y-44189D01*
X47014Y-44178D01*
X47003Y-44156D01*
X46990Y-44134D01*
X46974Y-44117D01*
X46970Y-44114D01*
X46945Y-44096D01*
X46917Y-44084D01*
X46888Y-44078D01*
X46858Y-44078D01*
X46851Y-44079D01*
X46821Y-44088D01*
X46794Y-44101D01*
X46769Y-44122D01*
X46754Y-44140D01*
X46739Y-44165D01*
X46729Y-44194D01*
X46728Y-44200D01*
X46726Y-44219D01*
X46727Y-44240D01*
X46730Y-44259D01*
X46735Y-44276D01*
X46748Y-44303D01*
X46766Y-44327D01*
X46789Y-44346D01*
X46814Y-44361D01*
X46843Y-44370D01*
X46846Y-44371D01*
X46853Y-44373D01*
X46856Y-44374D01*
X46852Y-44375D01*
X46846Y-44375D01*
X46834Y-44378D01*
X46821Y-44383D01*
X46809Y-44388D01*
X46800Y-44393D01*
X46775Y-44411D01*
X46754Y-44433D01*
X46739Y-44459D01*
X46730Y-44488D01*
X46726Y-44520D01*
X46728Y-44544D01*
X46735Y-44572D01*
X46748Y-44598D01*
X46758Y-44613D01*
X46780Y-44635D01*
X46805Y-44651D01*
X46832Y-44663D01*
X46861Y-44668D01*
X46891Y-44668D01*
X46918Y-44661D01*
X46947Y-44649D01*
X46971Y-44631D01*
X46992Y-44609D01*
X47008Y-44582D01*
X47018Y-44552D01*
X47022Y-44535D01*
X47023Y-44545D01*
X47024Y-44551D01*
X47031Y-44575D01*
X47043Y-44598D01*
X47059Y-44620D01*
X47077Y-44637D01*
X47093Y-44647D01*
X47113Y-44657D01*
X47133Y-44664D01*
X47148Y-44667D01*
X47167Y-44668D01*
X47186Y-44668D01*
X47201Y-44665D01*
X47219Y-44660D01*
X47247Y-44646D01*
X47271Y-44627D01*
X47291Y-44604D01*
X47306Y-44577D01*
X47315Y-44546D01*
X47316Y-44538D01*
X47316Y-44520D01*
X47315Y-44501D01*
X47312Y-44484D01*
X47308Y-44472D01*
X47295Y-44444D01*
X47277Y-44420D01*
X47254Y-44400D01*
X47228Y-44385D01*
X47198Y-44376D01*
X47196Y-44375D01*
X47189Y-44374D01*
X47190Y-44373D01*
X47149Y-44373D01*
X47148Y-44374D01*
X47142Y-44375D01*
X47140Y-44376D01*
X47121Y-44381D01*
X47100Y-44390D01*
X47081Y-44402D01*
X47070Y-44411D01*
X47049Y-44434D01*
X47034Y-44461D01*
X47024Y-44491D01*
X47021Y-44505D01*
X47019Y-44495D01*
X47017Y-44486D01*
X47015Y-44477D01*
X47013Y-44471D01*
X47000Y-44444D01*
X46981Y-44420D01*
X46959Y-44400D01*
X46933Y-44386D01*
X46905Y-44376D01*
X46898Y-44375D01*
X46894Y-44373D01*
X46896Y-44372D01*
X46905Y-44370D01*
X46906Y-44370D01*
X46922Y-44365D01*
X46939Y-44358D01*
X46955Y-44349D01*
X46965Y-44341D01*
X46979Y-44328D01*
X46992Y-44313D01*
X47002Y-44299D01*
X47002Y-44298D01*
X47012Y-44275D01*
X47019Y-44251D01*
X47021Y-44241D01*
X47024Y-44253D01*
X47031Y-44279D01*
X47045Y-44305D01*
X47063Y-44329D01*
X47085Y-44348D01*
X47093Y-44352D01*
X47107Y-44359D01*
X47122Y-44366D01*
X47136Y-44370D01*
X47146Y-44371D01*
X47146Y-44371D01*
X47149Y-44373D01*
X47190Y-44373D01*
X47190Y-44372D01*
X47197Y-44371D01*
X47205Y-44369D01*
X47214Y-44366D01*
X47229Y-44360D01*
X47255Y-44345D01*
X47277Y-44326D01*
X47294Y-44303D01*
X47307Y-44277D01*
X47315Y-44250D01*
X47317Y-44221D01*
X47317Y-44221D01*
G37*
X47317Y-44221D02*
X47313Y-44192D01*
X47303Y-44163D01*
X47296Y-44150D01*
X47287Y-44137D01*
X47274Y-44123D01*
X47258Y-44108D01*
X47233Y-44092D01*
X47204Y-44082D01*
X47196Y-44080D01*
X47177Y-44078D01*
X47156Y-44078D01*
X47138Y-44081D01*
X47113Y-44089D01*
X47087Y-44102D01*
X47065Y-44120D01*
X47062Y-44123D01*
X47051Y-44137D01*
X47040Y-44153D01*
X47033Y-44168D01*
X47031Y-44173D01*
X47027Y-44185D01*
X47024Y-44197D01*
X47022Y-44206D01*
X47022Y-44211D01*
X47021Y-44205D01*
X47019Y-44198D01*
X47017Y-44189D01*
X47014Y-44178D01*
X47003Y-44156D01*
X46990Y-44134D01*
X46974Y-44117D01*
X46970Y-44114D01*
X46945Y-44096D01*
X46917Y-44084D01*
X46888Y-44078D01*
X46858Y-44078D01*
X46851Y-44079D01*
X46821Y-44088D01*
X46794Y-44101D01*
X46769Y-44122D01*
X46754Y-44140D01*
X46739Y-44165D01*
X46729Y-44194D01*
X46728Y-44200D01*
X46726Y-44219D01*
X46727Y-44240D01*
X46730Y-44259D01*
X46735Y-44276D01*
X46748Y-44303D01*
X46766Y-44327D01*
X46789Y-44346D01*
X46814Y-44361D01*
X46843Y-44370D01*
X46846Y-44371D01*
X46853Y-44373D01*
X46856Y-44374D01*
X46852Y-44375D01*
X46846Y-44375D01*
X46834Y-44378D01*
X46821Y-44383D01*
X46809Y-44388D01*
X46800Y-44393D01*
X46775Y-44411D01*
X46754Y-44433D01*
X46739Y-44459D01*
X46730Y-44488D01*
X46726Y-44520D01*
X46728Y-44544D01*
X46735Y-44572D01*
X46748Y-44598D01*
X46758Y-44613D01*
X46780Y-44635D01*
X46805Y-44651D01*
X46832Y-44663D01*
X46861Y-44668D01*
X46891Y-44668D01*
X46918Y-44661D01*
X46947Y-44649D01*
X46971Y-44631D01*
X46992Y-44609D01*
X47008Y-44582D01*
X47018Y-44552D01*
X47022Y-44535D01*
X47023Y-44545D01*
X47024Y-44551D01*
X47031Y-44575D01*
X47043Y-44598D01*
X47059Y-44620D01*
X47077Y-44637D01*
X47093Y-44647D01*
X47113Y-44657D01*
X47133Y-44664D01*
X47148Y-44667D01*
X47167Y-44668D01*
X47186Y-44668D01*
X47201Y-44665D01*
X47219Y-44660D01*
X47247Y-44646D01*
X47271Y-44627D01*
X47291Y-44604D01*
X47306Y-44577D01*
X47315Y-44546D01*
X47316Y-44538D01*
X47316Y-44520D01*
X47315Y-44501D01*
X47312Y-44484D01*
X47308Y-44472D01*
X47295Y-44444D01*
X47277Y-44420D01*
X47254Y-44400D01*
X47228Y-44385D01*
X47198Y-44376D01*
X47196Y-44375D01*
X47189Y-44374D01*
X47190Y-44373D01*
X47149Y-44373D01*
X47148Y-44374D01*
X47142Y-44375D01*
X47140Y-44376D01*
X47121Y-44381D01*
X47100Y-44390D01*
X47081Y-44402D01*
X47070Y-44411D01*
X47049Y-44434D01*
X47034Y-44461D01*
X47024Y-44491D01*
X47021Y-44505D01*
X47019Y-44495D01*
X47017Y-44486D01*
X47015Y-44477D01*
X47013Y-44471D01*
X47000Y-44444D01*
X46981Y-44420D01*
X46959Y-44400D01*
X46933Y-44386D01*
X46905Y-44376D01*
X46898Y-44375D01*
X46894Y-44373D01*
X46896Y-44372D01*
X46905Y-44370D01*
X46906Y-44370D01*
X46922Y-44365D01*
X46939Y-44358D01*
X46955Y-44349D01*
X46965Y-44341D01*
X46979Y-44328D01*
X46992Y-44313D01*
X47002Y-44299D01*
X47002Y-44298D01*
X47012Y-44275D01*
X47019Y-44251D01*
X47021Y-44241D01*
X47024Y-44253D01*
X47031Y-44279D01*
X47045Y-44305D01*
X47063Y-44329D01*
X47085Y-44348D01*
X47093Y-44352D01*
X47107Y-44359D01*
X47122Y-44366D01*
X47136Y-44370D01*
X47146Y-44371D01*
X47146Y-44371D01*
X47149Y-44373D01*
X47190Y-44373D01*
X47190Y-44372D01*
X47197Y-44371D01*
X47205Y-44369D01*
X47214Y-44366D01*
X47229Y-44360D01*
X47255Y-44345D01*
X47277Y-44326D01*
X47294Y-44303D01*
X47307Y-44277D01*
X47315Y-44250D01*
X47317Y-44221D01*
G36*
X47317Y-43333D02*
X47312Y-43304D01*
X47302Y-43276D01*
X47286Y-43251D01*
X47266Y-43230D01*
X47242Y-43212D01*
X47214Y-43200D01*
X47205Y-43197D01*
X47197Y-43195D01*
X47195Y-43195D01*
X47189Y-43193D01*
X47189Y-43193D01*
X47148Y-43193D01*
X47144Y-43195D01*
X47134Y-43197D01*
X47117Y-43202D01*
X47090Y-43215D01*
X47067Y-43233D01*
X47048Y-43256D01*
X47033Y-43282D01*
X47024Y-43311D01*
X47021Y-43325D01*
X47019Y-43315D01*
X47019Y-43314D01*
X47012Y-43290D01*
X47002Y-43267D01*
X46996Y-43258D01*
X46983Y-43243D01*
X46969Y-43228D01*
X46955Y-43217D01*
X46942Y-43210D01*
X46923Y-43201D01*
X46906Y-43196D01*
X46898Y-43195D01*
X46894Y-43193D01*
X46896Y-43192D01*
X46905Y-43190D01*
X46924Y-43184D01*
X46952Y-43171D01*
X46976Y-43151D01*
X46995Y-43129D01*
X47010Y-43102D01*
X47019Y-43071D01*
X47021Y-43061D01*
X47024Y-43075D01*
X47028Y-43089D01*
X47040Y-43117D01*
X47058Y-43142D01*
X47081Y-43163D01*
X47089Y-43170D01*
X47103Y-43177D01*
X47118Y-43184D01*
X47129Y-43188D01*
X47140Y-43190D01*
X47141Y-43190D01*
X47147Y-43192D01*
X47148Y-43193D01*
X47189Y-43193D01*
X47190Y-43192D01*
X47198Y-43190D01*
X47208Y-43188D01*
X47230Y-43179D01*
X47251Y-43168D01*
X47262Y-43159D01*
X47284Y-43137D01*
X47301Y-43111D01*
X47312Y-43081D01*
X47315Y-43068D01*
X47316Y-43048D01*
X47315Y-43027D01*
X47312Y-43009D01*
X47312Y-43007D01*
X47300Y-42977D01*
X47283Y-42951D01*
X47261Y-42930D01*
X47235Y-42913D01*
X47205Y-42902D01*
X47192Y-42899D01*
X47171Y-42898D01*
X47151Y-42899D01*
X47133Y-42902D01*
X47117Y-42907D01*
X47096Y-42917D01*
X47077Y-42929D01*
X47063Y-42943D01*
X47048Y-42961D01*
X47036Y-42980D01*
X47033Y-42987D01*
X47028Y-43001D01*
X47024Y-43015D01*
X47022Y-43025D01*
X47022Y-43026D01*
X47021Y-43023D01*
X47018Y-43014D01*
X47013Y-42997D01*
X47005Y-42978D01*
X46996Y-42962D01*
X46993Y-42958D01*
X46976Y-42939D01*
X46955Y-42922D01*
X46933Y-42910D01*
X46922Y-42905D01*
X46893Y-42899D01*
X46862Y-42898D01*
X46833Y-42903D01*
X46826Y-42905D01*
X46799Y-42918D01*
X46775Y-42936D01*
X46754Y-42958D01*
X46739Y-42984D01*
X46729Y-43014D01*
X46728Y-43018D01*
X46726Y-43038D01*
X46727Y-43060D01*
X46730Y-43079D01*
X46731Y-43084D01*
X46742Y-43113D01*
X46759Y-43139D01*
X46782Y-43161D01*
X46809Y-43178D01*
X46817Y-43182D01*
X46830Y-43186D01*
X46843Y-43190D01*
X46852Y-43191D01*
X46854Y-43191D01*
X46855Y-43192D01*
X46851Y-43194D01*
X46843Y-43196D01*
X46823Y-43201D01*
X46797Y-43214D01*
X46774Y-43232D01*
X46754Y-43254D01*
X46739Y-43280D01*
X46739Y-43280D01*
X46730Y-43307D01*
X46726Y-43337D01*
X46728Y-43367D01*
X46736Y-43395D01*
X46744Y-43411D01*
X46761Y-43436D01*
X46783Y-43457D01*
X46809Y-43473D01*
X46838Y-43484D01*
X46844Y-43485D01*
X46868Y-43489D01*
X46891Y-43487D01*
X46918Y-43481D01*
X46946Y-43469D01*
X46971Y-43451D01*
X46992Y-43429D01*
X47008Y-43402D01*
X47018Y-43372D01*
X47020Y-43366D01*
X47022Y-43360D01*
X47022Y-43360D01*
X47023Y-43369D01*
X47028Y-43386D01*
X47036Y-43404D01*
X47046Y-43422D01*
X47058Y-43438D01*
X47081Y-43459D01*
X47108Y-43475D01*
X47112Y-43477D01*
X47141Y-43486D01*
X47171Y-43488D01*
X47202Y-43485D01*
X47230Y-43475D01*
X47244Y-43468D01*
X47257Y-43459D01*
X47271Y-43446D01*
X47272Y-43446D01*
X47292Y-43422D01*
X47306Y-43395D01*
X47314Y-43366D01*
X47315Y-43363D01*
X47317Y-43333D01*
X47317Y-43333D01*
G37*
X47317Y-43333D02*
X47312Y-43304D01*
X47302Y-43276D01*
X47286Y-43251D01*
X47266Y-43230D01*
X47242Y-43212D01*
X47214Y-43200D01*
X47205Y-43197D01*
X47197Y-43195D01*
X47195Y-43195D01*
X47189Y-43193D01*
X47189Y-43193D01*
X47148Y-43193D01*
X47144Y-43195D01*
X47134Y-43197D01*
X47117Y-43202D01*
X47090Y-43215D01*
X47067Y-43233D01*
X47048Y-43256D01*
X47033Y-43282D01*
X47024Y-43311D01*
X47021Y-43325D01*
X47019Y-43315D01*
X47019Y-43314D01*
X47012Y-43290D01*
X47002Y-43267D01*
X46996Y-43258D01*
X46983Y-43243D01*
X46969Y-43228D01*
X46955Y-43217D01*
X46942Y-43210D01*
X46923Y-43201D01*
X46906Y-43196D01*
X46898Y-43195D01*
X46894Y-43193D01*
X46896Y-43192D01*
X46905Y-43190D01*
X46924Y-43184D01*
X46952Y-43171D01*
X46976Y-43151D01*
X46995Y-43129D01*
X47010Y-43102D01*
X47019Y-43071D01*
X47021Y-43061D01*
X47024Y-43075D01*
X47028Y-43089D01*
X47040Y-43117D01*
X47058Y-43142D01*
X47081Y-43163D01*
X47089Y-43170D01*
X47103Y-43177D01*
X47118Y-43184D01*
X47129Y-43188D01*
X47140Y-43190D01*
X47141Y-43190D01*
X47147Y-43192D01*
X47148Y-43193D01*
X47189Y-43193D01*
X47190Y-43192D01*
X47198Y-43190D01*
X47208Y-43188D01*
X47230Y-43179D01*
X47251Y-43168D01*
X47262Y-43159D01*
X47284Y-43137D01*
X47301Y-43111D01*
X47312Y-43081D01*
X47315Y-43068D01*
X47316Y-43048D01*
X47315Y-43027D01*
X47312Y-43009D01*
X47312Y-43007D01*
X47300Y-42977D01*
X47283Y-42951D01*
X47261Y-42930D01*
X47235Y-42913D01*
X47205Y-42902D01*
X47192Y-42899D01*
X47171Y-42898D01*
X47151Y-42899D01*
X47133Y-42902D01*
X47117Y-42907D01*
X47096Y-42917D01*
X47077Y-42929D01*
X47063Y-42943D01*
X47048Y-42961D01*
X47036Y-42980D01*
X47033Y-42987D01*
X47028Y-43001D01*
X47024Y-43015D01*
X47022Y-43025D01*
X47022Y-43026D01*
X47021Y-43023D01*
X47018Y-43014D01*
X47013Y-42997D01*
X47005Y-42978D01*
X46996Y-42962D01*
X46993Y-42958D01*
X46976Y-42939D01*
X46955Y-42922D01*
X46933Y-42910D01*
X46922Y-42905D01*
X46893Y-42899D01*
X46862Y-42898D01*
X46833Y-42903D01*
X46826Y-42905D01*
X46799Y-42918D01*
X46775Y-42936D01*
X46754Y-42958D01*
X46739Y-42984D01*
X46729Y-43014D01*
X46728Y-43018D01*
X46726Y-43038D01*
X46727Y-43060D01*
X46730Y-43079D01*
X46731Y-43084D01*
X46742Y-43113D01*
X46759Y-43139D01*
X46782Y-43161D01*
X46809Y-43178D01*
X46817Y-43182D01*
X46830Y-43186D01*
X46843Y-43190D01*
X46852Y-43191D01*
X46854Y-43191D01*
X46855Y-43192D01*
X46851Y-43194D01*
X46843Y-43196D01*
X46823Y-43201D01*
X46797Y-43214D01*
X46774Y-43232D01*
X46754Y-43254D01*
X46739Y-43280D01*
X46739Y-43280D01*
X46730Y-43307D01*
X46726Y-43337D01*
X46728Y-43367D01*
X46736Y-43395D01*
X46744Y-43411D01*
X46761Y-43436D01*
X46783Y-43457D01*
X46809Y-43473D01*
X46838Y-43484D01*
X46844Y-43485D01*
X46868Y-43489D01*
X46891Y-43487D01*
X46918Y-43481D01*
X46946Y-43469D01*
X46971Y-43451D01*
X46992Y-43429D01*
X47008Y-43402D01*
X47018Y-43372D01*
X47020Y-43366D01*
X47022Y-43360D01*
X47022Y-43360D01*
X47023Y-43369D01*
X47028Y-43386D01*
X47036Y-43404D01*
X47046Y-43422D01*
X47058Y-43438D01*
X47081Y-43459D01*
X47108Y-43475D01*
X47112Y-43477D01*
X47141Y-43486D01*
X47171Y-43488D01*
X47202Y-43485D01*
X47230Y-43475D01*
X47244Y-43468D01*
X47257Y-43459D01*
X47271Y-43446D01*
X47272Y-43446D01*
X47292Y-43422D01*
X47306Y-43395D01*
X47314Y-43366D01*
X47315Y-43363D01*
X47317Y-43333D01*
G54D11*
X61612Y-51260D02*
X61313Y-51260D01*
X56812Y-51260D02*
X56513Y-51260D01*
X59212Y-50760D02*
X58913Y-50760D01*
X59062Y-50910D02*
X59062Y-50610D01*
X59212Y-51760D02*
X58913Y-51760D01*
X59062Y-51910D02*
X59062Y-51610D01*
X59454Y-49036D02*
X59454Y-48642D01*
X59360Y-48642D01*
X59304Y-48661D01*
X59266Y-48698D01*
X59248Y-48736D01*
X59229Y-48811D01*
X59229Y-48867D01*
X59248Y-48942D01*
X59266Y-48980D01*
X59304Y-49017D01*
X59360Y-49036D01*
X59454Y-49036D01*
X59079Y-49017D02*
X59023Y-49036D01*
X58929Y-49036D01*
X58892Y-49017D01*
X58873Y-48998D01*
X58854Y-48961D01*
X58854Y-48923D01*
X58873Y-48886D01*
X58892Y-48867D01*
X58929Y-48848D01*
X59004Y-48830D01*
X59041Y-48811D01*
X59060Y-48792D01*
X59079Y-48755D01*
X59079Y-48717D01*
X59060Y-48680D01*
X59041Y-48661D01*
X59004Y-48642D01*
X58910Y-48642D01*
X58854Y-48661D01*
X58479Y-49036D02*
X58704Y-49036D01*
X58592Y-49036D02*
X58592Y-48642D01*
X58629Y-48698D01*
X58667Y-48736D01*
X58704Y-48755D01*
X55879Y-47767D02*
X56010Y-47767D01*
X56010Y-47973D02*
X56010Y-47579D01*
X55823Y-47579D01*
X55466Y-47973D02*
X55691Y-47973D01*
X55579Y-47973D02*
X55579Y-47579D01*
X55616Y-47635D01*
X55654Y-47673D01*
X55691Y-47692D01*
X62493Y-47767D02*
X62624Y-47767D01*
X62624Y-47973D02*
X62624Y-47579D01*
X62437Y-47579D01*
X62305Y-47617D02*
X62287Y-47598D01*
X62249Y-47579D01*
X62155Y-47579D01*
X62118Y-47598D01*
X62099Y-47617D01*
X62080Y-47654D01*
X62080Y-47692D01*
X62099Y-47748D01*
X62324Y-47973D01*
X62080Y-47973D01*
X57014Y-37101D02*
X57145Y-37101D01*
X57145Y-37308D02*
X57145Y-36914D01*
X56958Y-36914D01*
X56864Y-36914D02*
X56639Y-36914D01*
X56751Y-37308D02*
X56751Y-36914D01*
X56508Y-37308D02*
X56508Y-36914D01*
X56414Y-36914D01*
X56358Y-36933D01*
X56320Y-36970D01*
X56301Y-37008D01*
X56283Y-37083D01*
X56283Y-37139D01*
X56301Y-37214D01*
X56320Y-37251D01*
X56358Y-37289D01*
X56414Y-37308D01*
X56508Y-37308D01*
X56114Y-37308D02*
X56114Y-36914D01*
X56456Y-22844D02*
X56478Y-22858D01*
X56537Y-22866D01*
X56574Y-22858D01*
X56625Y-22829D01*
X56655Y-22785D01*
X56666Y-22744D01*
X56670Y-22667D01*
X56659Y-22612D01*
X56626Y-22542D01*
X56600Y-22509D01*
X56556Y-22480D01*
X56497Y-22472D01*
X56460Y-22480D01*
X56409Y-22509D01*
X56394Y-22531D01*
X56056Y-22561D02*
X56129Y-22546D01*
X56170Y-22557D01*
X56192Y-22572D01*
X56239Y-22619D01*
X56273Y-22689D01*
X56302Y-22836D01*
X56291Y-22877D01*
X56276Y-22899D01*
X56243Y-22925D01*
X56170Y-22939D01*
X56129Y-22928D01*
X56107Y-22913D01*
X56081Y-22880D01*
X56063Y-22788D01*
X56074Y-22748D01*
X56089Y-22726D01*
X56122Y-22700D01*
X56195Y-22686D01*
X56236Y-22697D01*
X56258Y-22711D01*
X56284Y-22744D01*
X55831Y-22777D02*
X55864Y-22752D01*
X55879Y-22730D01*
X55890Y-22689D01*
X55886Y-22671D01*
X55861Y-22638D01*
X55839Y-22623D01*
X55798Y-22612D01*
X55725Y-22627D01*
X55692Y-22652D01*
X55677Y-22674D01*
X55666Y-22715D01*
X55670Y-22733D01*
X55695Y-22766D01*
X55717Y-22781D01*
X55758Y-22792D01*
X55831Y-22777D01*
X55872Y-22788D01*
X55894Y-22803D01*
X55920Y-22836D01*
X55934Y-22910D01*
X55923Y-22950D01*
X55908Y-22972D01*
X55875Y-22998D01*
X55802Y-23013D01*
X55761Y-23002D01*
X55739Y-22987D01*
X55714Y-22954D01*
X55699Y-22880D01*
X55710Y-22840D01*
X55725Y-22818D01*
X55758Y-22792D01*
X53634Y-23694D02*
X53658Y-23704D01*
X53717Y-23700D01*
X53752Y-23686D01*
X53797Y-23647D01*
X53817Y-23598D01*
X53820Y-23556D01*
X53809Y-23479D01*
X53787Y-23427D01*
X53741Y-23365D01*
X53709Y-23338D01*
X53660Y-23318D01*
X53601Y-23322D01*
X53567Y-23336D01*
X53522Y-23375D01*
X53512Y-23400D01*
X53186Y-23494D02*
X53255Y-23465D01*
X53297Y-23468D01*
X53321Y-23478D01*
X53377Y-23516D01*
X53423Y-23578D01*
X53481Y-23717D01*
X53478Y-23759D01*
X53468Y-23783D01*
X53440Y-23815D01*
X53371Y-23843D01*
X53329Y-23840D01*
X53305Y-23830D01*
X53273Y-23803D01*
X53237Y-23716D01*
X53240Y-23674D01*
X53250Y-23650D01*
X53278Y-23618D01*
X53347Y-23590D01*
X53389Y-23593D01*
X53413Y-23603D01*
X53445Y-23630D01*
X53030Y-23559D02*
X52787Y-23659D01*
X53094Y-23958D01*
X51075Y-25015D02*
X51101Y-25020D01*
X51159Y-25004D01*
X51190Y-24984D01*
X51226Y-24937D01*
X51236Y-24885D01*
X51231Y-24843D01*
X51205Y-24770D01*
X51174Y-24724D01*
X51116Y-24672D01*
X51080Y-24651D01*
X51028Y-24641D01*
X50971Y-24656D01*
X50940Y-24677D01*
X50903Y-24724D01*
X50898Y-24750D01*
X50597Y-24907D02*
X50659Y-24865D01*
X50701Y-24860D01*
X50727Y-24865D01*
X50789Y-24891D01*
X50847Y-24943D01*
X50930Y-25067D01*
X50935Y-25109D01*
X50930Y-25135D01*
X50909Y-25171D01*
X50847Y-25213D01*
X50805Y-25218D01*
X50779Y-25213D01*
X50743Y-25192D01*
X50691Y-25114D01*
X50686Y-25073D01*
X50691Y-25047D01*
X50711Y-25010D01*
X50774Y-24969D01*
X50815Y-24963D01*
X50841Y-24969D01*
X50878Y-24989D01*
X50285Y-25115D02*
X50348Y-25074D01*
X50389Y-25068D01*
X50415Y-25073D01*
X50478Y-25099D01*
X50535Y-25151D01*
X50618Y-25276D01*
X50624Y-25317D01*
X50618Y-25343D01*
X50598Y-25380D01*
X50535Y-25422D01*
X50494Y-25427D01*
X50468Y-25422D01*
X50431Y-25401D01*
X50379Y-25323D01*
X50374Y-25281D01*
X50379Y-25255D01*
X50400Y-25219D01*
X50462Y-25177D01*
X50504Y-25172D01*
X50530Y-25177D01*
X50566Y-25198D01*
X48841Y-26790D02*
X48867Y-26790D01*
X48920Y-26764D01*
X48947Y-26737D01*
X48973Y-26684D01*
X48973Y-26631D01*
X48960Y-26591D01*
X48920Y-26525D01*
X48881Y-26485D01*
X48814Y-26445D01*
X48775Y-26432D01*
X48722Y-26432D01*
X48669Y-26459D01*
X48642Y-26485D01*
X48616Y-26538D01*
X48616Y-26565D01*
X48350Y-26777D02*
X48403Y-26724D01*
X48443Y-26710D01*
X48470Y-26710D01*
X48536Y-26724D01*
X48602Y-26764D01*
X48708Y-26870D01*
X48722Y-26909D01*
X48722Y-26936D01*
X48708Y-26976D01*
X48655Y-27029D01*
X48616Y-27042D01*
X48589Y-27042D01*
X48549Y-27029D01*
X48483Y-26962D01*
X48470Y-26923D01*
X48470Y-26896D01*
X48483Y-26856D01*
X48536Y-26803D01*
X48576Y-26790D01*
X48602Y-26790D01*
X48642Y-26803D01*
X48072Y-27055D02*
X48205Y-26923D01*
X48350Y-27042D01*
X48324Y-27042D01*
X48284Y-27055D01*
X48218Y-27121D01*
X48205Y-27161D01*
X48205Y-27188D01*
X48218Y-27228D01*
X48284Y-27294D01*
X48324Y-27307D01*
X48350Y-27307D01*
X48390Y-27294D01*
X48456Y-27228D01*
X48470Y-27188D01*
X48470Y-27161D01*
X46970Y-28961D02*
X46996Y-28956D01*
X47042Y-28920D01*
X47063Y-28889D01*
X47079Y-28831D01*
X47068Y-28779D01*
X47048Y-28743D01*
X46996Y-28686D01*
X46949Y-28655D01*
X46876Y-28629D01*
X46834Y-28623D01*
X46782Y-28634D01*
X46736Y-28670D01*
X46715Y-28701D01*
X46699Y-28759D01*
X46704Y-28785D01*
X46486Y-29045D02*
X46528Y-28982D01*
X46564Y-28961D01*
X46590Y-28956D01*
X46658Y-28956D01*
X46730Y-28982D01*
X46855Y-29065D01*
X46876Y-29102D01*
X46881Y-29128D01*
X46876Y-29169D01*
X46834Y-29232D01*
X46798Y-29253D01*
X46772Y-29258D01*
X46730Y-29253D01*
X46652Y-29201D01*
X46631Y-29164D01*
X46626Y-29138D01*
X46632Y-29097D01*
X46673Y-29034D01*
X46710Y-29013D01*
X46736Y-29008D01*
X46777Y-29013D01*
X46387Y-29429D02*
X46605Y-29575D01*
X46314Y-29268D02*
X46600Y-29346D01*
X46465Y-29549D01*
X45561Y-31493D02*
X45585Y-31483D01*
X45624Y-31438D01*
X45639Y-31403D01*
X45643Y-31344D01*
X45623Y-31295D01*
X45595Y-31263D01*
X45533Y-31217D01*
X45481Y-31196D01*
X45405Y-31184D01*
X45363Y-31187D01*
X45314Y-31208D01*
X45275Y-31252D01*
X45261Y-31287D01*
X45256Y-31346D01*
X45266Y-31371D01*
X45103Y-31668D02*
X45131Y-31599D01*
X45163Y-31571D01*
X45188Y-31561D01*
X45254Y-31548D01*
X45330Y-31560D01*
X45469Y-31617D01*
X45496Y-31649D01*
X45506Y-31673D01*
X45509Y-31715D01*
X45481Y-31784D01*
X45449Y-31812D01*
X45425Y-31822D01*
X45383Y-31825D01*
X45296Y-31789D01*
X45269Y-31757D01*
X45259Y-31733D01*
X45256Y-31691D01*
X45284Y-31622D01*
X45316Y-31594D01*
X45340Y-31584D01*
X45382Y-31581D01*
X45038Y-31824D02*
X44945Y-32049D01*
X45134Y-31985D01*
X45112Y-32037D01*
X45115Y-32079D01*
X45125Y-32104D01*
X45153Y-32135D01*
X45239Y-32171D01*
X45281Y-32168D01*
X45306Y-32158D01*
X45337Y-32131D01*
X45380Y-32027D01*
X45377Y-31985D01*
X45367Y-31960D01*
X44655Y-34286D02*
X44677Y-34272D01*
X44706Y-34220D01*
X44714Y-34183D01*
X44706Y-34125D01*
X44677Y-34080D01*
X44644Y-34055D01*
X44574Y-34022D01*
X44519Y-34011D01*
X44441Y-34015D01*
X44401Y-34026D01*
X44357Y-34055D01*
X44328Y-34107D01*
X44320Y-34144D01*
X44328Y-34202D01*
X44342Y-34225D01*
X44240Y-34548D02*
X44255Y-34475D01*
X44280Y-34442D01*
X44302Y-34427D01*
X44365Y-34401D01*
X44442Y-34397D01*
X44589Y-34426D01*
X44622Y-34452D01*
X44637Y-34474D01*
X44648Y-34514D01*
X44634Y-34588D01*
X44608Y-34621D01*
X44586Y-34636D01*
X44545Y-34647D01*
X44454Y-34629D01*
X44420Y-34603D01*
X44406Y-34581D01*
X44395Y-34541D01*
X44409Y-34467D01*
X44435Y-34434D01*
X44457Y-34419D01*
X44497Y-34408D01*
X44240Y-34739D02*
X44218Y-34754D01*
X44193Y-34787D01*
X44175Y-34879D01*
X44186Y-34920D01*
X44200Y-34942D01*
X44234Y-34967D01*
X44270Y-34975D01*
X44329Y-34967D01*
X44594Y-34790D01*
X44546Y-35029D01*
X44333Y-37128D02*
X44352Y-37110D01*
X44371Y-37053D01*
X44371Y-37016D01*
X44352Y-36960D01*
X44314Y-36922D01*
X44277Y-36903D01*
X44202Y-36885D01*
X44146Y-36885D01*
X44071Y-36903D01*
X44033Y-36922D01*
X43996Y-36960D01*
X43977Y-37016D01*
X43977Y-37053D01*
X43996Y-37110D01*
X44014Y-37128D01*
X43977Y-37466D02*
X43977Y-37391D01*
X43996Y-37353D01*
X44014Y-37335D01*
X44071Y-37297D01*
X44146Y-37278D01*
X44296Y-37278D01*
X44333Y-37297D01*
X44352Y-37316D01*
X44371Y-37353D01*
X44371Y-37428D01*
X44352Y-37466D01*
X44333Y-37485D01*
X44296Y-37503D01*
X44202Y-37503D01*
X44164Y-37485D01*
X44146Y-37466D01*
X44127Y-37428D01*
X44127Y-37353D01*
X44146Y-37316D01*
X44164Y-37297D01*
X44202Y-37278D01*
X44371Y-37878D02*
X44371Y-37653D01*
X44371Y-37766D02*
X43977Y-37766D01*
X44033Y-37728D01*
X44071Y-37691D01*
X44089Y-37653D01*
X44321Y-40590D02*
X44306Y-40612D01*
X44299Y-40671D01*
X44306Y-40708D01*
X44335Y-40759D01*
X44379Y-40789D01*
X44420Y-40800D01*
X44497Y-40803D01*
X44552Y-40792D01*
X44622Y-40759D01*
X44655Y-40734D01*
X44685Y-40690D01*
X44692Y-40631D01*
X44685Y-40594D01*
X44655Y-40542D01*
X44633Y-40528D01*
X44604Y-40189D02*
X44619Y-40263D01*
X44607Y-40303D01*
X44593Y-40326D01*
X44545Y-40373D01*
X44475Y-40406D01*
X44328Y-40436D01*
X44288Y-40425D01*
X44266Y-40410D01*
X44240Y-40377D01*
X44225Y-40303D01*
X44236Y-40263D01*
X44251Y-40241D01*
X44284Y-40215D01*
X44376Y-40197D01*
X44416Y-40208D01*
X44438Y-40223D01*
X44464Y-40256D01*
X44479Y-40329D01*
X44468Y-40370D01*
X44453Y-40392D01*
X44420Y-40417D01*
X44549Y-39914D02*
X44541Y-39877D01*
X44516Y-39844D01*
X44494Y-39829D01*
X44453Y-39818D01*
X44376Y-39814D01*
X44284Y-39833D01*
X44214Y-39866D01*
X44181Y-39892D01*
X44166Y-39914D01*
X44155Y-39954D01*
X44163Y-39991D01*
X44188Y-40024D01*
X44210Y-40039D01*
X44251Y-40050D01*
X44328Y-40053D01*
X44420Y-40035D01*
X44490Y-40002D01*
X44523Y-39976D01*
X44538Y-39954D01*
X44549Y-39914D01*
X45262Y-43397D02*
X45252Y-43422D01*
X45256Y-43481D01*
X45270Y-43516D01*
X45309Y-43560D01*
X45358Y-43581D01*
X45400Y-43584D01*
X45476Y-43572D01*
X45528Y-43551D01*
X45590Y-43505D01*
X45618Y-43473D01*
X45638Y-43424D01*
X45634Y-43365D01*
X45620Y-43330D01*
X45581Y-43286D01*
X45556Y-43275D01*
X45455Y-42932D02*
X45526Y-43105D01*
X45360Y-43194D01*
X45370Y-43170D01*
X45373Y-43128D01*
X45337Y-43041D01*
X45306Y-43014D01*
X45281Y-43004D01*
X45239Y-43001D01*
X45153Y-43037D01*
X45125Y-43068D01*
X45115Y-43093D01*
X45112Y-43135D01*
X45148Y-43221D01*
X45180Y-43249D01*
X45204Y-43259D01*
X45012Y-42892D02*
X44983Y-42823D01*
X44986Y-42781D01*
X44996Y-42757D01*
X45034Y-42700D01*
X45096Y-42654D01*
X45235Y-42597D01*
X45276Y-42600D01*
X45301Y-42610D01*
X45333Y-42638D01*
X45361Y-42707D01*
X45358Y-42749D01*
X45348Y-42773D01*
X45321Y-42805D01*
X45234Y-42841D01*
X45192Y-42838D01*
X45168Y-42828D01*
X45136Y-42800D01*
X45107Y-42731D01*
X45110Y-42689D01*
X45120Y-42664D01*
X45148Y-42633D01*
X46677Y-45938D02*
X46672Y-45964D01*
X46688Y-46021D01*
X46708Y-46052D01*
X46755Y-46088D01*
X46807Y-46099D01*
X46849Y-46093D01*
X46922Y-46067D01*
X46968Y-46036D01*
X47020Y-45979D01*
X47041Y-45942D01*
X47051Y-45890D01*
X47036Y-45833D01*
X47015Y-45802D01*
X46968Y-45765D01*
X46942Y-45760D01*
X46775Y-45443D02*
X46879Y-45599D01*
X46734Y-45719D01*
X46739Y-45693D01*
X46734Y-45652D01*
X46681Y-45574D01*
X46645Y-45553D01*
X46619Y-45548D01*
X46577Y-45553D01*
X46500Y-45605D01*
X46479Y-45642D01*
X46474Y-45668D01*
X46479Y-45709D01*
X46531Y-45787D01*
X46568Y-45808D01*
X46594Y-45813D01*
X46499Y-45335D02*
X46535Y-45356D01*
X46561Y-45361D01*
X46603Y-45355D01*
X46619Y-45345D01*
X46639Y-45309D01*
X46645Y-45283D01*
X46639Y-45241D01*
X46598Y-45179D01*
X46561Y-45158D01*
X46535Y-45153D01*
X46494Y-45158D01*
X46478Y-45168D01*
X46457Y-45205D01*
X46452Y-45231D01*
X46457Y-45273D01*
X46499Y-45335D01*
X46504Y-45376D01*
X46499Y-45402D01*
X46478Y-45439D01*
X46416Y-45481D01*
X46375Y-45486D01*
X46349Y-45481D01*
X46312Y-45460D01*
X46270Y-45398D01*
X46265Y-45356D01*
X46270Y-45330D01*
X46291Y-45294D01*
X46353Y-45252D01*
X46395Y-45247D01*
X46421Y-45252D01*
X46457Y-45273D01*
X48544Y-48250D02*
X48544Y-48277D01*
X48570Y-48330D01*
X48597Y-48356D01*
X48650Y-48383D01*
X48703Y-48383D01*
X48742Y-48370D01*
X48809Y-48330D01*
X48849Y-48290D01*
X48888Y-48224D01*
X48902Y-48184D01*
X48902Y-48131D01*
X48875Y-48078D01*
X48849Y-48051D01*
X48795Y-48025D01*
X48769Y-48025D01*
X48544Y-47747D02*
X48676Y-47879D01*
X48557Y-48025D01*
X48557Y-47998D01*
X48544Y-47959D01*
X48477Y-47892D01*
X48438Y-47879D01*
X48411Y-47879D01*
X48371Y-47892D01*
X48305Y-47959D01*
X48292Y-47998D01*
X48292Y-48025D01*
X48305Y-48065D01*
X48371Y-48131D01*
X48411Y-48144D01*
X48438Y-48144D01*
X48438Y-47641D02*
X48252Y-47455D01*
X48093Y-47853D01*
X50880Y-50040D02*
X50885Y-50066D01*
X50922Y-50113D01*
X50953Y-50134D01*
X51010Y-50150D01*
X51062Y-50139D01*
X51098Y-50118D01*
X51156Y-50066D01*
X51187Y-50020D01*
X51213Y-49947D01*
X51218Y-49905D01*
X51208Y-49853D01*
X51171Y-49806D01*
X51140Y-49786D01*
X51083Y-49770D01*
X51057Y-49775D01*
X50781Y-49546D02*
X50937Y-49650D01*
X50849Y-49817D01*
X50844Y-49791D01*
X50823Y-49754D01*
X50745Y-49702D01*
X50703Y-49697D01*
X50677Y-49702D01*
X50641Y-49723D01*
X50589Y-49801D01*
X50584Y-49843D01*
X50589Y-49869D01*
X50610Y-49905D01*
X50688Y-49957D01*
X50729Y-49962D01*
X50755Y-49957D01*
X50485Y-49349D02*
X50547Y-49390D01*
X50568Y-49427D01*
X50573Y-49453D01*
X50573Y-49520D01*
X50547Y-49593D01*
X50464Y-49718D01*
X50428Y-49739D01*
X50402Y-49744D01*
X50360Y-49739D01*
X50298Y-49697D01*
X50277Y-49661D01*
X50272Y-49635D01*
X50277Y-49593D01*
X50329Y-49515D01*
X50365Y-49494D01*
X50391Y-49489D01*
X50433Y-49494D01*
X50495Y-49536D01*
X50516Y-49572D01*
X50521Y-49598D01*
X50516Y-49640D01*
X53526Y-51427D02*
X53536Y-51452D01*
X53581Y-51490D01*
X53616Y-51505D01*
X53675Y-51509D01*
X53724Y-51489D01*
X53755Y-51461D01*
X53801Y-51399D01*
X53823Y-51347D01*
X53834Y-51271D01*
X53831Y-51229D01*
X53811Y-51180D01*
X53766Y-51141D01*
X53732Y-51127D01*
X53672Y-51122D01*
X53648Y-51133D01*
X53333Y-50962D02*
X53506Y-51033D01*
X53452Y-51214D01*
X53442Y-51189D01*
X53414Y-51158D01*
X53328Y-51122D01*
X53286Y-51125D01*
X53261Y-51135D01*
X53230Y-51162D01*
X53194Y-51249D01*
X53197Y-51291D01*
X53207Y-51315D01*
X53234Y-51347D01*
X53321Y-51383D01*
X53363Y-51380D01*
X53387Y-51370D01*
X52987Y-50818D02*
X53160Y-50890D01*
X53106Y-51070D01*
X53095Y-51046D01*
X53068Y-51014D01*
X52981Y-50978D01*
X52940Y-50981D01*
X52915Y-50991D01*
X52883Y-51019D01*
X52848Y-51105D01*
X52850Y-51147D01*
X52861Y-51172D01*
X52888Y-51203D01*
X52975Y-51239D01*
X53017Y-51236D01*
X53041Y-51226D01*
X56343Y-52234D02*
X56357Y-52256D01*
X56409Y-52285D01*
X56446Y-52292D01*
X56504Y-52285D01*
X56548Y-52255D01*
X56574Y-52222D01*
X56607Y-52152D01*
X56618Y-52097D01*
X56614Y-52020D01*
X56603Y-51980D01*
X56574Y-51936D01*
X56522Y-51906D01*
X56485Y-51899D01*
X56426Y-51906D01*
X56404Y-51921D01*
X56062Y-51815D02*
X56246Y-51852D01*
X56228Y-52039D01*
X56213Y-52017D01*
X56180Y-51991D01*
X56088Y-51973D01*
X56048Y-51984D01*
X56026Y-51999D01*
X56000Y-52032D01*
X55982Y-52124D01*
X55993Y-52165D01*
X56008Y-52187D01*
X56041Y-52212D01*
X56133Y-52231D01*
X56173Y-52219D01*
X56195Y-52205D01*
X55687Y-51875D02*
X55636Y-52132D01*
X55808Y-51746D02*
X55846Y-52040D01*
X55607Y-51993D01*
X62243Y-52098D02*
X62265Y-52112D01*
X62324Y-52120D01*
X62361Y-52113D01*
X62412Y-52084D01*
X62442Y-52040D01*
X62453Y-52000D01*
X62458Y-51923D01*
X62447Y-51867D01*
X62414Y-51797D01*
X62389Y-51764D01*
X62345Y-51734D01*
X62286Y-51727D01*
X62249Y-51734D01*
X62198Y-51763D01*
X62183Y-51785D01*
X61826Y-51815D02*
X62010Y-51780D01*
X62064Y-51960D01*
X62042Y-51945D01*
X62002Y-51934D01*
X61910Y-51952D01*
X61876Y-51977D01*
X61861Y-51999D01*
X61850Y-52040D01*
X61868Y-52132D01*
X61893Y-52165D01*
X61915Y-52180D01*
X61956Y-52191D01*
X62048Y-52173D01*
X62081Y-52148D01*
X62096Y-52126D01*
X61667Y-51884D02*
X61645Y-51869D01*
X61605Y-51858D01*
X61513Y-51875D01*
X61480Y-51901D01*
X61465Y-51923D01*
X61454Y-51963D01*
X61461Y-52000D01*
X61490Y-52052D01*
X61753Y-52230D01*
X61514Y-52276D01*
X59308Y-52400D02*
X59326Y-52419D01*
X59383Y-52437D01*
X59420Y-52437D01*
X59476Y-52419D01*
X59514Y-52381D01*
X59533Y-52344D01*
X59551Y-52269D01*
X59551Y-52212D01*
X59533Y-52137D01*
X59514Y-52100D01*
X59476Y-52062D01*
X59420Y-52044D01*
X59383Y-52044D01*
X59326Y-52062D01*
X59308Y-52081D01*
X58952Y-52044D02*
X59139Y-52044D01*
X59158Y-52231D01*
X59139Y-52212D01*
X59101Y-52194D01*
X59008Y-52194D01*
X58970Y-52212D01*
X58952Y-52231D01*
X58933Y-52269D01*
X58933Y-52362D01*
X58952Y-52400D01*
X58970Y-52419D01*
X59008Y-52437D01*
X59101Y-52437D01*
X59139Y-52419D01*
X59158Y-52400D01*
X58802Y-52044D02*
X58558Y-52044D01*
X58689Y-52194D01*
X58633Y-52194D01*
X58595Y-52212D01*
X58577Y-52231D01*
X58558Y-52269D01*
X58558Y-52362D01*
X58577Y-52400D01*
X58595Y-52419D01*
X58633Y-52437D01*
X58745Y-52437D01*
X58783Y-52419D01*
X58802Y-52400D01*
X65051Y-51212D02*
X65076Y-51222D01*
X65135Y-51218D01*
X65169Y-51203D01*
X65214Y-51164D01*
X65234Y-51115D01*
X65237Y-51073D01*
X65225Y-50997D01*
X65203Y-50945D01*
X65157Y-50883D01*
X65125Y-50856D01*
X65076Y-50836D01*
X65017Y-50840D01*
X64982Y-50855D01*
X64938Y-50894D01*
X64928Y-50918D01*
X64585Y-51022D02*
X64758Y-50949D01*
X64847Y-51115D01*
X64823Y-51105D01*
X64781Y-51102D01*
X64695Y-51138D01*
X64667Y-51170D01*
X64657Y-51195D01*
X64655Y-51236D01*
X64691Y-51323D01*
X64723Y-51350D01*
X64747Y-51360D01*
X64789Y-51363D01*
X64876Y-51327D01*
X64903Y-51295D01*
X64913Y-51270D01*
X64374Y-51537D02*
X64582Y-51450D01*
X64478Y-51494D02*
X64325Y-51131D01*
X64382Y-51168D01*
X64431Y-51188D01*
X64473Y-51191D01*
X67611Y-49817D02*
X67637Y-49822D01*
X67694Y-49806D01*
X67725Y-49785D01*
X67761Y-49738D01*
X67771Y-49686D01*
X67766Y-49645D01*
X67739Y-49572D01*
X67708Y-49525D01*
X67651Y-49474D01*
X67614Y-49453D01*
X67562Y-49443D01*
X67505Y-49459D01*
X67474Y-49480D01*
X67438Y-49527D01*
X67433Y-49553D01*
X67116Y-49721D02*
X67272Y-49616D01*
X67392Y-49761D01*
X67366Y-49756D01*
X67324Y-49761D01*
X67247Y-49814D01*
X67226Y-49850D01*
X67221Y-49876D01*
X67227Y-49918D01*
X67279Y-49996D01*
X67315Y-50016D01*
X67342Y-50021D01*
X67383Y-50016D01*
X67461Y-49963D01*
X67481Y-49927D01*
X67486Y-49901D01*
X66899Y-49868D02*
X66868Y-49889D01*
X66847Y-49925D01*
X66842Y-49951D01*
X66847Y-49993D01*
X66874Y-50065D01*
X66926Y-50143D01*
X66984Y-50195D01*
X67020Y-50215D01*
X67046Y-50220D01*
X67088Y-50215D01*
X67119Y-50194D01*
X67139Y-50158D01*
X67145Y-50132D01*
X67139Y-50090D01*
X67113Y-50017D01*
X67060Y-49940D01*
X67003Y-49888D01*
X66966Y-49867D01*
X66940Y-49862D01*
X66899Y-49868D01*
X69884Y-47873D02*
X69911Y-47873D01*
X69964Y-47846D01*
X69990Y-47820D01*
X70017Y-47767D01*
X70017Y-47714D01*
X70003Y-47674D01*
X69964Y-47608D01*
X69924Y-47568D01*
X69858Y-47528D01*
X69818Y-47515D01*
X69765Y-47515D01*
X69712Y-47541D01*
X69685Y-47568D01*
X69659Y-47621D01*
X69659Y-47647D01*
X69486Y-47952D02*
X69672Y-48138D01*
X69447Y-47780D02*
X69712Y-47912D01*
X69540Y-48085D01*
X69513Y-48297D02*
X69460Y-48350D01*
X69420Y-48363D01*
X69394Y-48363D01*
X69327Y-48350D01*
X69261Y-48310D01*
X69155Y-48204D01*
X69142Y-48164D01*
X69142Y-48138D01*
X69155Y-48098D01*
X69208Y-48045D01*
X69248Y-48032D01*
X69274Y-48032D01*
X69314Y-48045D01*
X69380Y-48111D01*
X69394Y-48151D01*
X69394Y-48178D01*
X69380Y-48217D01*
X69327Y-48270D01*
X69288Y-48284D01*
X69261Y-48284D01*
X69221Y-48270D01*
X71714Y-45537D02*
X71740Y-45532D01*
X71787Y-45495D01*
X71808Y-45464D01*
X71823Y-45407D01*
X71813Y-45355D01*
X71792Y-45318D01*
X71740Y-45261D01*
X71694Y-45230D01*
X71621Y-45204D01*
X71579Y-45198D01*
X71527Y-45209D01*
X71480Y-45245D01*
X71460Y-45276D01*
X71444Y-45333D01*
X71449Y-45359D01*
X71339Y-45692D02*
X71557Y-45838D01*
X71267Y-45531D02*
X71553Y-45609D01*
X71417Y-45812D01*
X71224Y-45931D02*
X71230Y-45889D01*
X71224Y-45863D01*
X71204Y-45827D01*
X71188Y-45816D01*
X71147Y-45811D01*
X71121Y-45816D01*
X71084Y-45837D01*
X71042Y-45899D01*
X71037Y-45941D01*
X71042Y-45967D01*
X71063Y-46003D01*
X71079Y-46014D01*
X71120Y-46019D01*
X71146Y-46014D01*
X71183Y-45993D01*
X71224Y-45931D01*
X71261Y-45910D01*
X71287Y-45905D01*
X71328Y-45910D01*
X71391Y-45952D01*
X71411Y-45988D01*
X71417Y-46014D01*
X71411Y-46056D01*
X71370Y-46118D01*
X71333Y-46139D01*
X71307Y-46144D01*
X71266Y-46139D01*
X71203Y-46097D01*
X71182Y-46061D01*
X71177Y-46035D01*
X71183Y-45993D01*
X73041Y-42910D02*
X73066Y-42900D01*
X73105Y-42855D01*
X73119Y-42820D01*
X73123Y-42761D01*
X73103Y-42712D01*
X73075Y-42681D01*
X73013Y-42635D01*
X72961Y-42613D01*
X72885Y-42602D01*
X72843Y-42605D01*
X72794Y-42625D01*
X72755Y-42670D01*
X72741Y-42704D01*
X72737Y-42764D01*
X72747Y-42788D01*
X72704Y-43136D02*
X72947Y-43236D01*
X72602Y-42992D02*
X72897Y-43013D01*
X72804Y-43238D01*
X72518Y-43241D02*
X72418Y-43484D01*
X72846Y-43479D01*
X73868Y-40114D02*
X73890Y-40099D01*
X73920Y-40047D01*
X73927Y-40011D01*
X73920Y-39952D01*
X73890Y-39908D01*
X73857Y-39882D01*
X73787Y-39849D01*
X73732Y-39838D01*
X73655Y-39841D01*
X73614Y-39853D01*
X73570Y-39882D01*
X73541Y-39933D01*
X73533Y-39970D01*
X73541Y-40029D01*
X73556Y-40051D01*
X73581Y-40400D02*
X73839Y-40452D01*
X73453Y-40279D02*
X73747Y-40242D01*
X73699Y-40481D01*
X73379Y-40742D02*
X73394Y-40669D01*
X73420Y-40636D01*
X73442Y-40621D01*
X73504Y-40595D01*
X73581Y-40592D01*
X73728Y-40621D01*
X73762Y-40647D01*
X73776Y-40669D01*
X73787Y-40709D01*
X73773Y-40783D01*
X73747Y-40816D01*
X73725Y-40830D01*
X73684Y-40842D01*
X73592Y-40823D01*
X73559Y-40797D01*
X73545Y-40775D01*
X73534Y-40735D01*
X73548Y-40661D01*
X73574Y-40628D01*
X73596Y-40614D01*
X73637Y-40603D01*
X74057Y-37148D02*
X74076Y-37129D01*
X74095Y-37073D01*
X74095Y-37035D01*
X74076Y-36979D01*
X74039Y-36942D01*
X74001Y-36923D01*
X73926Y-36904D01*
X73870Y-36904D01*
X73795Y-36923D01*
X73757Y-36942D01*
X73720Y-36979D01*
X73701Y-37035D01*
X73701Y-37073D01*
X73720Y-37129D01*
X73739Y-37148D01*
X73832Y-37485D02*
X74095Y-37485D01*
X73682Y-37392D02*
X73964Y-37298D01*
X73964Y-37542D01*
X73701Y-37879D02*
X73701Y-37692D01*
X73889Y-37673D01*
X73870Y-37692D01*
X73851Y-37729D01*
X73851Y-37823D01*
X73870Y-37860D01*
X73889Y-37879D01*
X73926Y-37898D01*
X74020Y-37898D01*
X74057Y-37879D01*
X74076Y-37860D01*
X74095Y-37823D01*
X74095Y-37729D01*
X74076Y-37692D01*
X74057Y-37673D01*
X73513Y-34783D02*
X73498Y-34805D01*
X73491Y-34864D01*
X73498Y-34901D01*
X73527Y-34952D01*
X73572Y-34982D01*
X73612Y-34993D01*
X73689Y-34997D01*
X73744Y-34986D01*
X73814Y-34953D01*
X73847Y-34927D01*
X73877Y-34883D01*
X73884Y-34824D01*
X73877Y-34787D01*
X73848Y-34736D01*
X73826Y-34721D01*
X73668Y-34408D02*
X73411Y-34459D01*
X73834Y-34471D02*
X73576Y-34618D01*
X73529Y-34379D01*
X73595Y-34040D02*
X73338Y-34091D01*
X73761Y-34103D02*
X73503Y-34250D01*
X73456Y-34011D01*
X72722Y-32000D02*
X72712Y-32024D01*
X72716Y-32083D01*
X72731Y-32118D01*
X72770Y-32163D01*
X72819Y-32183D01*
X72860Y-32186D01*
X72937Y-32175D01*
X72989Y-32153D01*
X73051Y-32107D01*
X73078Y-32075D01*
X73099Y-32026D01*
X73094Y-31967D01*
X73080Y-31933D01*
X73041Y-31888D01*
X73017Y-31878D01*
X72801Y-31602D02*
X72559Y-31702D01*
X72976Y-31631D02*
X72752Y-31825D01*
X72658Y-31600D01*
X72858Y-31396D02*
X72764Y-31171D01*
X72676Y-31349D01*
X72655Y-31297D01*
X72623Y-31270D01*
X72598Y-31260D01*
X72557Y-31257D01*
X72470Y-31293D01*
X72443Y-31324D01*
X72432Y-31349D01*
X72429Y-31391D01*
X72472Y-31494D01*
X72504Y-31522D01*
X72529Y-31532D01*
X71421Y-29422D02*
X71416Y-29448D01*
X71432Y-29505D01*
X71453Y-29536D01*
X71499Y-29573D01*
X71551Y-29583D01*
X71593Y-29578D01*
X71666Y-29551D01*
X71712Y-29520D01*
X71764Y-29463D01*
X71785Y-29426D01*
X71795Y-29374D01*
X71780Y-29317D01*
X71759Y-29286D01*
X71712Y-29250D01*
X71686Y-29245D01*
X71420Y-29016D02*
X71202Y-29162D01*
X71597Y-29011D02*
X71416Y-29245D01*
X71280Y-29043D01*
X71394Y-28808D02*
X71399Y-28782D01*
X71394Y-28741D01*
X71342Y-28663D01*
X71305Y-28642D01*
X71279Y-28637D01*
X71238Y-28642D01*
X71206Y-28663D01*
X71170Y-28710D01*
X71108Y-29022D01*
X70973Y-28820D01*
X69646Y-27168D02*
X69646Y-27194D01*
X69672Y-27247D01*
X69699Y-27274D01*
X69752Y-27300D01*
X69805Y-27300D01*
X69845Y-27287D01*
X69911Y-27247D01*
X69951Y-27207D01*
X69991Y-27141D01*
X70004Y-27101D01*
X70004Y-27048D01*
X69977Y-26995D01*
X69951Y-26969D01*
X69898Y-26942D01*
X69871Y-26942D01*
X69566Y-26770D02*
X69381Y-26956D01*
X69739Y-26730D02*
X69606Y-26995D01*
X69434Y-26823D01*
X69089Y-26664D02*
X69248Y-26823D01*
X69169Y-26743D02*
X69447Y-26465D01*
X69434Y-26531D01*
X69434Y-26584D01*
X69447Y-26624D01*
X67496Y-25335D02*
X67501Y-25361D01*
X67538Y-25407D01*
X67569Y-25428D01*
X67627Y-25443D01*
X67679Y-25432D01*
X67715Y-25411D01*
X67772Y-25359D01*
X67803Y-25312D01*
X67828Y-25239D01*
X67833Y-25197D01*
X67822Y-25145D01*
X67786Y-25099D01*
X67754Y-25078D01*
X67697Y-25063D01*
X67671Y-25068D01*
X67338Y-24961D02*
X67193Y-25181D01*
X67498Y-24888D02*
X67422Y-25174D01*
X67218Y-25040D01*
X67175Y-24697D02*
X67143Y-24677D01*
X67102Y-24672D01*
X67076Y-24677D01*
X67039Y-24698D01*
X66982Y-24751D01*
X66931Y-24829D01*
X66906Y-24902D01*
X66901Y-24944D01*
X66906Y-24970D01*
X66927Y-25006D01*
X66958Y-25026D01*
X67000Y-25031D01*
X67026Y-25026D01*
X67062Y-25005D01*
X67119Y-24952D01*
X67171Y-24874D01*
X67196Y-24801D01*
X67201Y-24760D01*
X67196Y-24734D01*
X67175Y-24697D01*
X64943Y-23848D02*
X64953Y-23873D01*
X64998Y-23912D01*
X65033Y-23926D01*
X65092Y-23930D01*
X65141Y-23910D01*
X65173Y-23882D01*
X65219Y-23820D01*
X65240Y-23768D01*
X65252Y-23692D01*
X65249Y-23650D01*
X65228Y-23601D01*
X65184Y-23562D01*
X65149Y-23548D01*
X65090Y-23544D01*
X65065Y-23554D01*
X64958Y-23469D02*
X64733Y-23376D01*
X64797Y-23565D01*
X64745Y-23543D01*
X64703Y-23546D01*
X64679Y-23556D01*
X64647Y-23584D01*
X64611Y-23670D01*
X64614Y-23712D01*
X64624Y-23736D01*
X64652Y-23768D01*
X64756Y-23811D01*
X64798Y-23808D01*
X64822Y-23798D01*
X64409Y-23668D02*
X64340Y-23639D01*
X64313Y-23607D01*
X64302Y-23583D01*
X64289Y-23517D01*
X64301Y-23440D01*
X64358Y-23302D01*
X64390Y-23274D01*
X64414Y-23264D01*
X64456Y-23261D01*
X64525Y-23290D01*
X64553Y-23321D01*
X64563Y-23346D01*
X64566Y-23388D01*
X64530Y-23474D01*
X64498Y-23502D01*
X64474Y-23512D01*
X64432Y-23515D01*
X64363Y-23486D01*
X64335Y-23454D01*
X64325Y-23430D01*
X64322Y-23388D01*
X62189Y-22982D02*
X62203Y-23004D01*
X62255Y-23034D01*
X62292Y-23041D01*
X62350Y-23034D01*
X62395Y-23004D01*
X62420Y-22971D01*
X62453Y-22901D01*
X62464Y-22846D01*
X62461Y-22769D01*
X62450Y-22729D01*
X62420Y-22684D01*
X62369Y-22655D01*
X62332Y-22648D01*
X62273Y-22655D01*
X62251Y-22670D01*
X62130Y-22607D02*
X61891Y-22559D01*
X61990Y-22732D01*
X61935Y-22721D01*
X61894Y-22732D01*
X61872Y-22747D01*
X61847Y-22780D01*
X61828Y-22872D01*
X61839Y-22912D01*
X61854Y-22935D01*
X61887Y-22960D01*
X61997Y-22982D01*
X62038Y-22971D01*
X62060Y-22957D01*
X61637Y-22681D02*
X61678Y-22670D01*
X61700Y-22655D01*
X61725Y-22622D01*
X61729Y-22604D01*
X61718Y-22563D01*
X61703Y-22541D01*
X61670Y-22515D01*
X61597Y-22501D01*
X61556Y-22512D01*
X61534Y-22526D01*
X61508Y-22560D01*
X61505Y-22578D01*
X61516Y-22618D01*
X61530Y-22640D01*
X61564Y-22666D01*
X61637Y-22681D01*
X61670Y-22707D01*
X61685Y-22729D01*
X61696Y-22769D01*
X61681Y-22843D01*
X61655Y-22876D01*
X61633Y-22890D01*
X61593Y-22901D01*
X61519Y-22887D01*
X61486Y-22861D01*
X61472Y-22839D01*
X61461Y-22799D01*
X61475Y-22725D01*
X61501Y-22692D01*
X61523Y-22677D01*
X61564Y-22666D01*
X59308Y-22660D02*
X59326Y-22679D01*
X59383Y-22697D01*
X59420Y-22697D01*
X59476Y-22679D01*
X59514Y-22641D01*
X59533Y-22604D01*
X59551Y-22529D01*
X59551Y-22472D01*
X59533Y-22397D01*
X59514Y-22360D01*
X59476Y-22322D01*
X59420Y-22304D01*
X59383Y-22304D01*
X59326Y-22322D01*
X59308Y-22341D01*
X59176Y-22304D02*
X58933Y-22304D01*
X59064Y-22454D01*
X59008Y-22454D01*
X58970Y-22472D01*
X58952Y-22491D01*
X58933Y-22529D01*
X58933Y-22622D01*
X58952Y-22660D01*
X58970Y-22679D01*
X59008Y-22697D01*
X59120Y-22697D01*
X59158Y-22679D01*
X59176Y-22660D01*
X58802Y-22304D02*
X58539Y-22304D01*
X58708Y-22697D01*
X61561Y-37325D02*
X61580Y-37344D01*
X61636Y-37363D01*
X61674Y-37363D01*
X61730Y-37344D01*
X61767Y-37306D01*
X61786Y-37269D01*
X61805Y-37194D01*
X61805Y-37138D01*
X61786Y-37063D01*
X61767Y-37025D01*
X61730Y-36988D01*
X61674Y-36969D01*
X61636Y-36969D01*
X61580Y-36988D01*
X61561Y-37006D01*
X61186Y-37363D02*
X61411Y-37363D01*
X61299Y-37363D02*
X61299Y-36969D01*
X61336Y-37025D01*
X61374Y-37063D01*
X61411Y-37081D01*
X52852Y-27323D02*
X52633Y-26996D01*
X52555Y-27048D01*
X52519Y-27095D01*
X52509Y-27147D01*
X52514Y-27188D01*
X52540Y-27261D01*
X52571Y-27308D01*
X52629Y-27359D01*
X52665Y-27380D01*
X52717Y-27391D01*
X52774Y-27375D01*
X52852Y-27323D01*
X52530Y-27516D02*
X52494Y-27563D01*
X52416Y-27615D01*
X52374Y-27620D01*
X52348Y-27615D01*
X52312Y-27594D01*
X52291Y-27563D01*
X52286Y-27521D01*
X52291Y-27495D01*
X52312Y-27459D01*
X52363Y-27402D01*
X52384Y-27365D01*
X52389Y-27339D01*
X52384Y-27298D01*
X52363Y-27266D01*
X52327Y-27246D01*
X52301Y-27241D01*
X52259Y-27246D01*
X52181Y-27298D01*
X52145Y-27345D01*
X52031Y-27444D02*
X52005Y-27439D01*
X51963Y-27444D01*
X51885Y-27496D01*
X51865Y-27533D01*
X51859Y-27559D01*
X51865Y-27600D01*
X51886Y-27631D01*
X51932Y-27668D01*
X52244Y-27729D01*
X52042Y-27865D01*
X56012Y-18693D02*
X56196Y-18656D01*
X56119Y-18270D01*
X55843Y-18516D02*
X55715Y-18542D01*
X55700Y-18755D02*
X55884Y-18719D01*
X55807Y-18332D01*
X55623Y-18369D01*
X55534Y-18788D02*
X55457Y-18402D01*
X55365Y-18421D01*
X55314Y-18450D01*
X55285Y-18494D01*
X55273Y-18535D01*
X55270Y-18612D01*
X55281Y-18667D01*
X55314Y-18737D01*
X55340Y-18770D01*
X55384Y-18799D01*
X55443Y-18807D01*
X55534Y-18788D01*
X54906Y-18512D02*
X54979Y-18498D01*
X55020Y-18509D01*
X55042Y-18524D01*
X55090Y-18571D01*
X55123Y-18641D01*
X55152Y-18788D01*
X55141Y-18829D01*
X55126Y-18851D01*
X55093Y-18876D01*
X55020Y-18891D01*
X54979Y-18880D01*
X54957Y-18865D01*
X54931Y-18832D01*
X54913Y-18740D01*
X54924Y-18700D01*
X54939Y-18678D01*
X54972Y-18652D01*
X55046Y-18638D01*
X55086Y-18649D01*
X55108Y-18663D01*
X55134Y-18696D01*
X54564Y-18715D02*
X54615Y-18972D01*
X54626Y-18549D02*
X54773Y-18807D01*
X54534Y-18854D01*
X52337Y-19680D02*
X52510Y-19608D01*
X52359Y-19244D01*
X52137Y-19539D02*
X52015Y-19590D01*
X52042Y-19802D02*
X52216Y-19730D01*
X52065Y-19366D01*
X51892Y-19438D01*
X51887Y-19866D02*
X51736Y-19502D01*
X51649Y-19538D01*
X51604Y-19577D01*
X51584Y-19626D01*
X51581Y-19668D01*
X51593Y-19744D01*
X51614Y-19796D01*
X51660Y-19858D01*
X51692Y-19886D01*
X51741Y-19906D01*
X51800Y-19902D01*
X51887Y-19866D01*
X51216Y-19718D02*
X51286Y-19689D01*
X51327Y-19692D01*
X51352Y-19702D01*
X51408Y-19740D01*
X51454Y-19802D01*
X51511Y-19940D01*
X51508Y-19982D01*
X51498Y-20007D01*
X51471Y-20038D01*
X51402Y-20067D01*
X51360Y-20064D01*
X51335Y-20054D01*
X51304Y-20026D01*
X51268Y-19940D01*
X51271Y-19898D01*
X51281Y-19874D01*
X51308Y-19842D01*
X51378Y-19813D01*
X51419Y-19816D01*
X51444Y-19826D01*
X51476Y-19854D01*
X51060Y-19782D02*
X50835Y-19875D01*
X51014Y-19964D01*
X50962Y-19985D01*
X50934Y-20017D01*
X50924Y-20042D01*
X50921Y-20083D01*
X50957Y-20170D01*
X50989Y-20197D01*
X51013Y-20208D01*
X51055Y-20211D01*
X51159Y-20167D01*
X51187Y-20136D01*
X51197Y-20111D01*
X49089Y-21282D02*
X49245Y-21178D01*
X49026Y-20851D01*
X48865Y-21184D02*
X48756Y-21257D01*
X48824Y-21460D02*
X48980Y-21355D01*
X48761Y-21028D01*
X48605Y-21133D01*
X48684Y-21554D02*
X48465Y-21226D01*
X48387Y-21279D01*
X48351Y-21325D01*
X48340Y-21377D01*
X48346Y-21419D01*
X48372Y-21492D01*
X48403Y-21538D01*
X48460Y-21590D01*
X48497Y-21611D01*
X48549Y-21621D01*
X48606Y-21606D01*
X48684Y-21554D01*
X47998Y-21539D02*
X48060Y-21498D01*
X48101Y-21492D01*
X48127Y-21497D01*
X48190Y-21523D01*
X48247Y-21575D01*
X48331Y-21700D01*
X48336Y-21741D01*
X48331Y-21767D01*
X48310Y-21804D01*
X48248Y-21846D01*
X48206Y-21851D01*
X48180Y-21846D01*
X48144Y-21825D01*
X48092Y-21747D01*
X48086Y-21705D01*
X48091Y-21679D01*
X48112Y-21643D01*
X48174Y-21601D01*
X48216Y-21596D01*
X48242Y-21601D01*
X48278Y-21622D01*
X47863Y-21675D02*
X47837Y-21670D01*
X47795Y-21675D01*
X47717Y-21727D01*
X47696Y-21763D01*
X47691Y-21789D01*
X47697Y-21831D01*
X47717Y-21862D01*
X47764Y-21898D01*
X48076Y-21960D01*
X47874Y-22096D01*
X46038Y-23571D02*
X46171Y-23439D01*
X45892Y-23160D01*
X45799Y-23518D02*
X45707Y-23611D01*
X45813Y-23796D02*
X45945Y-23664D01*
X45667Y-23386D01*
X45534Y-23518D01*
X45693Y-23916D02*
X45415Y-23637D01*
X45349Y-23704D01*
X45322Y-23757D01*
X45322Y-23810D01*
X45335Y-23849D01*
X45375Y-23916D01*
X45415Y-23956D01*
X45481Y-23995D01*
X45521Y-24009D01*
X45574Y-24009D01*
X45627Y-23982D01*
X45693Y-23916D01*
X45017Y-24035D02*
X45070Y-23982D01*
X45110Y-23969D01*
X45137Y-23969D01*
X45203Y-23982D01*
X45269Y-24022D01*
X45375Y-24128D01*
X45388Y-24168D01*
X45388Y-24194D01*
X45375Y-24234D01*
X45322Y-24287D01*
X45282Y-24300D01*
X45256Y-24300D01*
X45216Y-24287D01*
X45150Y-24221D01*
X45137Y-24181D01*
X45137Y-24154D01*
X45150Y-24115D01*
X45203Y-24062D01*
X45243Y-24048D01*
X45269Y-24048D01*
X45309Y-24062D01*
X45004Y-24605D02*
X45163Y-24446D01*
X45084Y-24526D02*
X44805Y-24247D01*
X44871Y-24260D01*
X44924Y-24260D01*
X44964Y-24247D01*
X43583Y-26407D02*
X43687Y-26251D01*
X43359Y-26032D01*
X43338Y-26401D02*
X43266Y-26510D01*
X43406Y-26672D02*
X43510Y-26516D01*
X43182Y-26297D01*
X43078Y-26453D01*
X43312Y-26812D02*
X42985Y-26594D01*
X42933Y-26672D01*
X42917Y-26729D01*
X42928Y-26781D01*
X42948Y-26817D01*
X43000Y-26874D01*
X43047Y-26906D01*
X43120Y-26932D01*
X43161Y-26937D01*
X43213Y-26926D01*
X43260Y-26890D01*
X43312Y-26812D01*
X42673Y-27062D02*
X42714Y-26999D01*
X42751Y-26978D01*
X42777Y-26973D01*
X42844Y-26973D01*
X42917Y-26999D01*
X43042Y-27082D01*
X43063Y-27119D01*
X43068Y-27145D01*
X43063Y-27186D01*
X43021Y-27249D01*
X42985Y-27270D01*
X42959Y-27275D01*
X42917Y-27270D01*
X42839Y-27218D01*
X42818Y-27181D01*
X42813Y-27155D01*
X42818Y-27114D01*
X42860Y-27051D01*
X42896Y-27030D01*
X42922Y-27025D01*
X42964Y-27030D01*
X42517Y-27295D02*
X42496Y-27327D01*
X42491Y-27368D01*
X42496Y-27394D01*
X42517Y-27431D01*
X42569Y-27488D01*
X42647Y-27540D01*
X42719Y-27566D01*
X42761Y-27571D01*
X42787Y-27566D01*
X42823Y-27545D01*
X42844Y-27514D01*
X42849Y-27472D01*
X42844Y-27446D01*
X42823Y-27410D01*
X42771Y-27353D01*
X42693Y-27301D01*
X42621Y-27275D01*
X42579Y-27269D01*
X42553Y-27275D01*
X42517Y-27295D01*
X41786Y-29566D02*
X41858Y-29393D01*
X41494Y-29242D01*
X41546Y-29608D02*
X41495Y-29730D01*
X41664Y-29861D02*
X41736Y-29687D01*
X41372Y-29537D01*
X41301Y-29710D01*
X41600Y-30016D02*
X41236Y-29866D01*
X41200Y-29952D01*
X41196Y-30012D01*
X41216Y-30061D01*
X41244Y-30092D01*
X41306Y-30138D01*
X41358Y-30160D01*
X41434Y-30171D01*
X41476Y-30168D01*
X41525Y-30148D01*
X41564Y-30103D01*
X41600Y-30016D01*
X41014Y-30403D02*
X41085Y-30230D01*
X41266Y-30284D01*
X41241Y-30294D01*
X41210Y-30322D01*
X41174Y-30408D01*
X41177Y-30450D01*
X41187Y-30475D01*
X41214Y-30506D01*
X41301Y-30542D01*
X41343Y-30539D01*
X41367Y-30529D01*
X41399Y-30501D01*
X41435Y-30415D01*
X41432Y-30373D01*
X41422Y-30349D01*
X41298Y-30744D02*
X41270Y-30813D01*
X41238Y-30841D01*
X41214Y-30851D01*
X41147Y-30864D01*
X41071Y-30853D01*
X40932Y-30795D01*
X40905Y-30764D01*
X40895Y-30739D01*
X40892Y-30697D01*
X40920Y-30628D01*
X40952Y-30600D01*
X40977Y-30590D01*
X41018Y-30587D01*
X41105Y-30623D01*
X41132Y-30655D01*
X41143Y-30679D01*
X41146Y-30721D01*
X41117Y-30790D01*
X41085Y-30818D01*
X41061Y-30828D01*
X41019Y-30831D01*
X40607Y-32997D02*
X40644Y-32813D01*
X40257Y-32736D01*
X40379Y-33085D02*
X40354Y-33214D01*
X40545Y-33309D02*
X40582Y-33125D01*
X40196Y-33049D01*
X40159Y-33233D01*
X40513Y-33475D02*
X40126Y-33398D01*
X40108Y-33490D01*
X40116Y-33549D01*
X40145Y-33593D01*
X40178Y-33619D01*
X40248Y-33652D01*
X40303Y-33663D01*
X40381Y-33659D01*
X40421Y-33648D01*
X40465Y-33618D01*
X40494Y-33567D01*
X40513Y-33475D01*
X40013Y-33969D02*
X40050Y-33785D01*
X40237Y-33803D01*
X40215Y-33817D01*
X40190Y-33851D01*
X40172Y-33943D01*
X40183Y-33983D01*
X40197Y-34005D01*
X40231Y-34031D01*
X40322Y-34049D01*
X40363Y-34038D01*
X40385Y-34023D01*
X40411Y-33990D01*
X40429Y-33898D01*
X40418Y-33857D01*
X40403Y-33835D01*
X40132Y-34240D02*
X40121Y-34200D01*
X40106Y-34178D01*
X40073Y-34152D01*
X40054Y-34149D01*
X40014Y-34160D01*
X39992Y-34174D01*
X39966Y-34208D01*
X39952Y-34281D01*
X39963Y-34322D01*
X39977Y-34344D01*
X40011Y-34369D01*
X40029Y-34373D01*
X40069Y-34362D01*
X40091Y-34347D01*
X40117Y-34314D01*
X40132Y-34240D01*
X40157Y-34207D01*
X40179Y-34193D01*
X40220Y-34181D01*
X40293Y-34196D01*
X40326Y-34222D01*
X40341Y-34244D01*
X40352Y-34284D01*
X40338Y-34358D01*
X40312Y-34391D01*
X40290Y-34406D01*
X40250Y-34417D01*
X40176Y-34402D01*
X40143Y-34376D01*
X40128Y-34354D01*
X40117Y-34314D01*
X40103Y-36777D02*
X40103Y-36589D01*
X39709Y-36589D01*
X39897Y-36908D02*
X39897Y-37039D01*
X40103Y-37096D02*
X40103Y-36908D01*
X39709Y-36908D01*
X39709Y-37096D01*
X40103Y-37264D02*
X39709Y-37264D01*
X39709Y-37358D01*
X39728Y-37414D01*
X39765Y-37452D01*
X39803Y-37471D01*
X39878Y-37489D01*
X39934Y-37489D01*
X40009Y-37471D01*
X40047Y-37452D01*
X40084Y-37414D01*
X40103Y-37358D01*
X40103Y-37264D01*
X39709Y-37846D02*
X39709Y-37658D01*
X39897Y-37639D01*
X39878Y-37658D01*
X39859Y-37696D01*
X39859Y-37789D01*
X39878Y-37827D01*
X39897Y-37846D01*
X39934Y-37864D01*
X40028Y-37864D01*
X40065Y-37846D01*
X40084Y-37827D01*
X40103Y-37789D01*
X40103Y-37696D01*
X40084Y-37658D01*
X40065Y-37639D01*
X39709Y-37996D02*
X39709Y-38258D01*
X40103Y-38089D01*
X40188Y-41847D02*
X40225Y-42031D01*
X40611Y-41954D01*
X40365Y-41678D02*
X40339Y-41549D01*
X40126Y-41535D02*
X40162Y-41718D01*
X40548Y-41641D01*
X40512Y-41457D01*
X40093Y-41369D02*
X40479Y-41292D01*
X40460Y-41200D01*
X40431Y-41149D01*
X40387Y-41119D01*
X40346Y-41108D01*
X40269Y-41104D01*
X40214Y-41115D01*
X40144Y-41149D01*
X40111Y-41174D01*
X40082Y-41218D01*
X40074Y-41277D01*
X40093Y-41369D01*
X40365Y-40722D02*
X40401Y-40906D01*
X40221Y-40961D01*
X40236Y-40939D01*
X40247Y-40899D01*
X40229Y-40807D01*
X40203Y-40774D01*
X40181Y-40759D01*
X40140Y-40748D01*
X40049Y-40766D01*
X40015Y-40792D01*
X40001Y-40814D01*
X39990Y-40854D01*
X40008Y-40946D01*
X40034Y-40979D01*
X40056Y-40994D01*
X40295Y-40373D02*
X40310Y-40446D01*
X40299Y-40487D01*
X40284Y-40509D01*
X40236Y-40557D01*
X40166Y-40590D01*
X40019Y-40619D01*
X39979Y-40608D01*
X39957Y-40593D01*
X39931Y-40560D01*
X39916Y-40487D01*
X39927Y-40446D01*
X39942Y-40424D01*
X39975Y-40398D01*
X40067Y-40380D01*
X40107Y-40391D01*
X40129Y-40406D01*
X40155Y-40439D01*
X40170Y-40512D01*
X40159Y-40553D01*
X40144Y-40575D01*
X40111Y-40601D01*
X41382Y-45376D02*
X41454Y-45549D01*
X41818Y-45399D01*
X41523Y-45176D02*
X41472Y-45055D01*
X41260Y-45082D02*
X41332Y-45255D01*
X41696Y-45104D01*
X41624Y-44931D01*
X41196Y-44926D02*
X41560Y-44775D01*
X41524Y-44689D01*
X41485Y-44644D01*
X41436Y-44624D01*
X41394Y-44621D01*
X41318Y-44632D01*
X41266Y-44653D01*
X41204Y-44700D01*
X41176Y-44731D01*
X41156Y-44780D01*
X41160Y-44839D01*
X41196Y-44926D01*
X41337Y-44238D02*
X41409Y-44412D01*
X41243Y-44501D01*
X41253Y-44476D01*
X41256Y-44434D01*
X41220Y-44348D01*
X41188Y-44320D01*
X41164Y-44310D01*
X41122Y-44307D01*
X41036Y-44343D01*
X41008Y-44375D01*
X40998Y-44399D01*
X40995Y-44441D01*
X41031Y-44528D01*
X41063Y-44555D01*
X41087Y-44565D01*
X41194Y-43892D02*
X41265Y-44065D01*
X41099Y-44154D01*
X41110Y-44130D01*
X41113Y-44088D01*
X41077Y-44001D01*
X41045Y-43974D01*
X41020Y-43964D01*
X40979Y-43961D01*
X40892Y-43997D01*
X40865Y-44028D01*
X40854Y-44053D01*
X40851Y-44095D01*
X40887Y-44181D01*
X40919Y-44209D01*
X40944Y-44219D01*
X43244Y-48668D02*
X43348Y-48824D01*
X43676Y-48604D01*
X43343Y-48444D02*
X43270Y-48335D01*
X43067Y-48403D02*
X43171Y-48559D01*
X43498Y-48340D01*
X43394Y-48184D01*
X42973Y-48263D02*
X43300Y-48044D01*
X43248Y-47966D01*
X43201Y-47929D01*
X43149Y-47919D01*
X43108Y-47924D01*
X43035Y-47951D01*
X42988Y-47982D01*
X42936Y-48039D01*
X42915Y-48076D01*
X42905Y-48128D01*
X42921Y-48185D01*
X42973Y-48263D01*
X42977Y-47561D02*
X43081Y-47716D01*
X42936Y-47836D01*
X42941Y-47810D01*
X42936Y-47769D01*
X42884Y-47691D01*
X42847Y-47670D01*
X42821Y-47665D01*
X42780Y-47670D01*
X42702Y-47722D01*
X42681Y-47759D01*
X42676Y-47785D01*
X42681Y-47826D01*
X42733Y-47904D01*
X42770Y-47925D01*
X42796Y-47930D01*
X42670Y-47338D02*
X42452Y-47484D01*
X42846Y-47332D02*
X42665Y-47566D01*
X42529Y-47364D01*
X45837Y-51593D02*
X45970Y-51726D01*
X46248Y-51447D01*
X45890Y-51355D02*
X45798Y-51262D01*
X45612Y-51368D02*
X45745Y-51500D01*
X46023Y-51222D01*
X45890Y-51089D01*
X45493Y-51248D02*
X45771Y-50970D01*
X45705Y-50904D01*
X45652Y-50877D01*
X45599Y-50877D01*
X45559Y-50891D01*
X45493Y-50930D01*
X45453Y-50970D01*
X45413Y-51036D01*
X45400Y-51076D01*
X45400Y-51129D01*
X45426Y-51182D01*
X45493Y-51248D01*
X45360Y-50559D02*
X45493Y-50692D01*
X45373Y-50838D01*
X45373Y-50811D01*
X45360Y-50771D01*
X45294Y-50705D01*
X45254Y-50692D01*
X45228Y-50692D01*
X45188Y-50705D01*
X45121Y-50771D01*
X45108Y-50811D01*
X45108Y-50838D01*
X45121Y-50877D01*
X45188Y-50944D01*
X45228Y-50957D01*
X45254Y-50957D01*
X45254Y-50453D02*
X45082Y-50281D01*
X45068Y-50480D01*
X45029Y-50440D01*
X44989Y-50427D01*
X44962Y-50427D01*
X44923Y-50440D01*
X44856Y-50506D01*
X44843Y-50546D01*
X44843Y-50572D01*
X44856Y-50612D01*
X44936Y-50692D01*
X44976Y-50705D01*
X45002Y-50705D01*
X48911Y-53925D02*
X49067Y-54029D01*
X49286Y-53702D01*
X48917Y-53681D02*
X48807Y-53608D01*
X48646Y-53748D02*
X48802Y-53852D01*
X49021Y-53525D01*
X48865Y-53421D01*
X48506Y-53655D02*
X48724Y-53327D01*
X48646Y-53275D01*
X48589Y-53260D01*
X48537Y-53270D01*
X48501Y-53291D01*
X48444Y-53343D01*
X48412Y-53390D01*
X48386Y-53462D01*
X48381Y-53504D01*
X48391Y-53556D01*
X48428Y-53603D01*
X48506Y-53655D01*
X48241Y-53005D02*
X48397Y-53109D01*
X48308Y-53275D01*
X48303Y-53249D01*
X48282Y-53213D01*
X48204Y-53161D01*
X48163Y-53156D01*
X48137Y-53161D01*
X48100Y-53182D01*
X48048Y-53260D01*
X48043Y-53301D01*
X48048Y-53327D01*
X48069Y-53364D01*
X48147Y-53416D01*
X48189Y-53421D01*
X48215Y-53416D01*
X48080Y-52942D02*
X48074Y-52916D01*
X48054Y-52880D01*
X47976Y-52828D01*
X47934Y-52823D01*
X47908Y-52828D01*
X47872Y-52849D01*
X47851Y-52880D01*
X47835Y-52937D01*
X47898Y-53249D01*
X47695Y-53114D01*
X52236Y-55534D02*
X52409Y-55606D01*
X52560Y-55242D01*
X52194Y-55294D02*
X52072Y-55243D01*
X51942Y-55412D02*
X52115Y-55484D01*
X52265Y-55120D01*
X52092Y-55049D01*
X51786Y-55348D02*
X51936Y-54984D01*
X51850Y-54948D01*
X51791Y-54944D01*
X51742Y-54964D01*
X51710Y-54992D01*
X51664Y-55054D01*
X51642Y-55106D01*
X51631Y-55182D01*
X51634Y-55224D01*
X51654Y-55273D01*
X51699Y-55312D01*
X51786Y-55348D01*
X51399Y-54762D02*
X51573Y-54833D01*
X51518Y-55014D01*
X51508Y-54989D01*
X51481Y-54958D01*
X51394Y-54922D01*
X51352Y-54925D01*
X51328Y-54935D01*
X51296Y-54962D01*
X51260Y-55049D01*
X51263Y-55091D01*
X51273Y-55115D01*
X51301Y-55147D01*
X51387Y-55183D01*
X51429Y-55180D01*
X51454Y-55170D01*
X50885Y-54975D02*
X51093Y-55061D01*
X50989Y-55018D02*
X51140Y-54654D01*
X51153Y-54720D01*
X51173Y-54769D01*
X51200Y-54801D01*
X55861Y-56509D02*
X56044Y-56545D01*
X56121Y-56159D01*
X55772Y-56281D02*
X55643Y-56256D01*
X55548Y-56447D02*
X55732Y-56483D01*
X55808Y-56097D01*
X55624Y-56061D01*
X55382Y-56414D02*
X55459Y-56028D01*
X55367Y-56010D01*
X55308Y-56017D01*
X55264Y-56047D01*
X55238Y-56080D01*
X55205Y-56150D01*
X55194Y-56205D01*
X55198Y-56282D01*
X55209Y-56323D01*
X55239Y-56367D01*
X55290Y-56396D01*
X55382Y-56414D01*
X54889Y-55915D02*
X55073Y-55951D01*
X55055Y-56139D01*
X55040Y-56117D01*
X55007Y-56091D01*
X54915Y-56073D01*
X54874Y-56084D01*
X54852Y-56099D01*
X54827Y-56132D01*
X54808Y-56224D01*
X54820Y-56264D01*
X54834Y-56286D01*
X54867Y-56312D01*
X54959Y-56330D01*
X55000Y-56319D01*
X55022Y-56305D01*
X54631Y-55864D02*
X54594Y-55857D01*
X54554Y-55868D01*
X54532Y-55883D01*
X54506Y-55916D01*
X54473Y-55986D01*
X54455Y-56078D01*
X54459Y-56155D01*
X54470Y-56195D01*
X54485Y-56217D01*
X54518Y-56243D01*
X54555Y-56250D01*
X54595Y-56239D01*
X54617Y-56224D01*
X54643Y-56191D01*
X54676Y-56121D01*
X54694Y-56029D01*
X54690Y-55952D01*
X54679Y-55912D01*
X54664Y-55890D01*
X54631Y-55864D01*
X59679Y-56780D02*
X59866Y-56780D01*
X59866Y-56386D01*
X59547Y-56574D02*
X59416Y-56574D01*
X59360Y-56780D02*
X59547Y-56780D01*
X59547Y-56386D01*
X59360Y-56386D01*
X59191Y-56780D02*
X59191Y-56386D01*
X59098Y-56386D01*
X59041Y-56405D01*
X59004Y-56443D01*
X58985Y-56480D01*
X58966Y-56555D01*
X58966Y-56611D01*
X58985Y-56686D01*
X59004Y-56724D01*
X59041Y-56761D01*
X59098Y-56780D01*
X59191Y-56780D01*
X58629Y-56517D02*
X58629Y-56780D01*
X58723Y-56368D02*
X58816Y-56649D01*
X58573Y-56649D01*
X58404Y-56780D02*
X58329Y-56780D01*
X58291Y-56761D01*
X58273Y-56742D01*
X58235Y-56686D01*
X58216Y-56611D01*
X58216Y-56461D01*
X58235Y-56424D01*
X58254Y-56405D01*
X58291Y-56386D01*
X58366Y-56386D01*
X58404Y-56405D01*
X58423Y-56424D01*
X58441Y-56461D01*
X58441Y-56555D01*
X58423Y-56592D01*
X58404Y-56611D01*
X58366Y-56630D01*
X58291Y-56630D01*
X58254Y-56611D01*
X58235Y-56592D01*
X58216Y-56555D01*
X63438Y-56221D02*
X63622Y-56183D01*
X63542Y-55798D01*
X63268Y-56045D02*
X63139Y-56072D01*
X63126Y-56285D02*
X63309Y-56247D01*
X63230Y-55862D01*
X63047Y-55899D01*
X62960Y-56319D02*
X62881Y-55933D01*
X62789Y-55952D01*
X62738Y-55982D01*
X62709Y-56026D01*
X62698Y-56067D01*
X62695Y-56144D01*
X62706Y-56199D01*
X62740Y-56269D01*
X62765Y-56302D01*
X62810Y-56331D01*
X62869Y-56338D01*
X62960Y-56319D01*
X62357Y-56175D02*
X62410Y-56432D01*
X62418Y-56009D02*
X62567Y-56266D01*
X62328Y-56315D01*
X62107Y-56264D02*
X62140Y-56239D01*
X62155Y-56216D01*
X62166Y-56176D01*
X62162Y-56158D01*
X62136Y-56125D01*
X62114Y-56110D01*
X62073Y-56099D01*
X62000Y-56114D01*
X61967Y-56140D01*
X61952Y-56162D01*
X61941Y-56203D01*
X61945Y-56221D01*
X61971Y-56254D01*
X61993Y-56269D01*
X62034Y-56279D01*
X62107Y-56264D01*
X62148Y-56275D01*
X62170Y-56290D01*
X62196Y-56323D01*
X62211Y-56396D01*
X62200Y-56437D01*
X62185Y-56459D01*
X62152Y-56485D01*
X62079Y-56500D01*
X62038Y-56489D01*
X62016Y-56474D01*
X61990Y-56441D01*
X61975Y-56368D01*
X61986Y-56328D01*
X62001Y-56305D01*
X62034Y-56279D01*
X67010Y-55031D02*
X67183Y-54958D01*
X67030Y-54595D01*
X66809Y-54891D02*
X66688Y-54942D01*
X66716Y-55154D02*
X66889Y-55081D01*
X66736Y-54718D01*
X66563Y-54791D01*
X66560Y-55219D02*
X66408Y-54856D01*
X66321Y-54893D01*
X66277Y-54932D01*
X66257Y-54981D01*
X66254Y-55023D01*
X66266Y-55099D01*
X66288Y-55151D01*
X66334Y-55213D01*
X66366Y-55240D01*
X66415Y-55260D01*
X66474Y-55256D01*
X66560Y-55219D01*
X65940Y-55195D02*
X66042Y-55437D01*
X65968Y-55021D02*
X66164Y-55244D01*
X65939Y-55338D01*
X65734Y-55140D02*
X65492Y-55242D01*
X65800Y-55539D01*
X70269Y-53205D02*
X70425Y-53101D01*
X70205Y-52774D01*
X70045Y-53108D02*
X69936Y-53181D01*
X70005Y-53384D02*
X70161Y-53279D01*
X69940Y-52952D01*
X69785Y-53057D01*
X69865Y-53478D02*
X69645Y-53152D01*
X69567Y-53204D01*
X69531Y-53251D01*
X69521Y-53303D01*
X69527Y-53345D01*
X69553Y-53417D01*
X69584Y-53464D01*
X69642Y-53516D01*
X69678Y-53536D01*
X69730Y-53546D01*
X69788Y-53530D01*
X69865Y-53478D01*
X69252Y-53575D02*
X69399Y-53792D01*
X69246Y-53398D02*
X69481Y-53579D01*
X69279Y-53715D01*
X68868Y-53676D02*
X68930Y-53634D01*
X68972Y-53628D01*
X68998Y-53633D01*
X69060Y-53659D01*
X69118Y-53711D01*
X69202Y-53835D01*
X69207Y-53877D01*
X69202Y-53903D01*
X69181Y-53939D01*
X69119Y-53981D01*
X69078Y-53987D01*
X69052Y-53982D01*
X69015Y-53961D01*
X68963Y-53883D01*
X68957Y-53842D01*
X68962Y-53816D01*
X68983Y-53779D01*
X69045Y-53737D01*
X69087Y-53732D01*
X69113Y-53737D01*
X69149Y-53757D01*
X73234Y-50562D02*
X73367Y-50429D01*
X73088Y-50152D01*
X72996Y-50510D02*
X72903Y-50603D01*
X73009Y-50788D02*
X73142Y-50655D01*
X72863Y-50377D01*
X72730Y-50510D01*
X72890Y-50908D02*
X72611Y-50630D01*
X72545Y-50696D01*
X72519Y-50749D01*
X72519Y-50802D01*
X72532Y-50842D01*
X72572Y-50908D01*
X72612Y-50948D01*
X72678Y-50987D01*
X72718Y-51001D01*
X72771Y-51001D01*
X72824Y-50974D01*
X72890Y-50908D01*
X72307Y-51121D02*
X72493Y-51306D01*
X72267Y-50948D02*
X72533Y-51080D01*
X72361Y-51253D01*
X71936Y-51307D02*
X72069Y-51174D01*
X72215Y-51293D01*
X72188Y-51293D01*
X72149Y-51307D01*
X72082Y-51373D01*
X72069Y-51413D01*
X72069Y-51439D01*
X72083Y-51479D01*
X72149Y-51545D01*
X72189Y-51558D01*
X72215Y-51558D01*
X72255Y-51545D01*
X72321Y-51479D01*
X72334Y-51439D01*
X72334Y-51412D01*
X75469Y-47647D02*
X75573Y-47491D01*
X75245Y-47272D01*
X75224Y-47641D02*
X75151Y-47751D01*
X75292Y-47912D02*
X75396Y-47756D01*
X75068Y-47537D01*
X74964Y-47693D01*
X75198Y-48052D02*
X74871Y-47834D01*
X74819Y-47912D01*
X74803Y-47969D01*
X74813Y-48021D01*
X74834Y-48057D01*
X74886Y-48115D01*
X74933Y-48146D01*
X75006Y-48172D01*
X75047Y-48177D01*
X75099Y-48167D01*
X75146Y-48130D01*
X75198Y-48052D01*
X74668Y-48374D02*
X74886Y-48520D01*
X74595Y-48213D02*
X74881Y-48291D01*
X74746Y-48494D01*
X74460Y-48686D02*
X74678Y-48832D01*
X74387Y-48525D02*
X74673Y-48603D01*
X74538Y-48806D01*
X77200Y-44224D02*
X77271Y-44050D01*
X76908Y-43900D01*
X76959Y-44266D02*
X76909Y-44387D01*
X77078Y-44518D02*
X77149Y-44345D01*
X76786Y-44194D01*
X76714Y-44367D01*
X77013Y-44674D02*
X76649Y-44523D01*
X76614Y-44610D01*
X76609Y-44669D01*
X76630Y-44718D01*
X76657Y-44750D01*
X76719Y-44796D01*
X76771Y-44817D01*
X76848Y-44829D01*
X76889Y-44826D01*
X76938Y-44805D01*
X76977Y-44761D01*
X77013Y-44674D01*
X76555Y-45093D02*
X76798Y-45194D01*
X76453Y-44949D02*
X76748Y-44970D01*
X76655Y-45195D01*
X76370Y-45199D02*
X76276Y-45424D01*
X76465Y-45360D01*
X76444Y-45412D01*
X76447Y-45454D01*
X76457Y-45478D01*
X76484Y-45510D01*
X76571Y-45546D01*
X76613Y-45543D01*
X76637Y-45533D01*
X76669Y-45505D01*
X76712Y-45401D01*
X76709Y-45360D01*
X76699Y-45335D01*
X78195Y-40588D02*
X78232Y-40404D01*
X77846Y-40327D01*
X77967Y-40676D02*
X77941Y-40805D01*
X78132Y-40900D02*
X78169Y-40717D01*
X77783Y-40639D01*
X77746Y-40823D01*
X78099Y-41066D02*
X77713Y-40989D01*
X77695Y-41081D01*
X77702Y-41139D01*
X77732Y-41184D01*
X77765Y-41209D01*
X77835Y-41242D01*
X77890Y-41253D01*
X77967Y-41250D01*
X78007Y-41239D01*
X78052Y-41209D01*
X78081Y-41158D01*
X78099Y-41066D01*
X77732Y-41566D02*
X77989Y-41617D01*
X77603Y-41445D02*
X77897Y-41408D01*
X77849Y-41647D01*
X77603Y-41731D02*
X77581Y-41746D01*
X77555Y-41779D01*
X77537Y-41871D01*
X77548Y-41912D01*
X77563Y-41934D01*
X77596Y-41959D01*
X77633Y-41967D01*
X77691Y-41959D01*
X77956Y-41783D01*
X77908Y-42022D01*
X78485Y-36816D02*
X78485Y-36629D01*
X78091Y-36629D01*
X78278Y-36948D02*
X78278Y-37079D01*
X78485Y-37135D02*
X78485Y-36948D01*
X78091Y-36948D01*
X78091Y-37135D01*
X78485Y-37304D02*
X78091Y-37304D01*
X78091Y-37398D01*
X78110Y-37454D01*
X78147Y-37491D01*
X78185Y-37510D01*
X78260Y-37529D01*
X78316Y-37529D01*
X78391Y-37510D01*
X78428Y-37491D01*
X78466Y-37454D01*
X78485Y-37398D01*
X78485Y-37304D01*
X78222Y-37866D02*
X78485Y-37866D01*
X78072Y-37772D02*
X78353Y-37679D01*
X78353Y-37922D01*
X78485Y-38279D02*
X78485Y-38054D01*
X78485Y-38166D02*
X78091Y-38166D01*
X78147Y-38129D01*
X78185Y-38091D01*
X78203Y-38054D01*
X77805Y-34280D02*
X77841Y-34464D01*
X78228Y-34388D01*
X77982Y-34111D02*
X77956Y-33983D01*
X77743Y-33967D02*
X77780Y-34151D01*
X78166Y-34075D01*
X78129Y-33891D01*
X77710Y-33802D02*
X78097Y-33725D01*
X78078Y-33634D01*
X78049Y-33582D01*
X78005Y-33552D01*
X77965Y-33541D01*
X77887Y-33538D01*
X77832Y-33548D01*
X77762Y-33581D01*
X77729Y-33607D01*
X77700Y-33651D01*
X77692Y-33710D01*
X77710Y-33802D01*
X77859Y-33199D02*
X77601Y-33250D01*
X78024Y-33262D02*
X77766Y-33409D01*
X77719Y-33170D01*
X77933Y-32898D02*
X77925Y-32861D01*
X77900Y-32828D01*
X77878Y-32813D01*
X77837Y-32802D01*
X77760Y-32798D01*
X77668Y-32817D01*
X77598Y-32849D01*
X77565Y-32875D01*
X77550Y-32897D01*
X77539Y-32938D01*
X77547Y-32974D01*
X77572Y-33008D01*
X77594Y-33022D01*
X77635Y-33033D01*
X77712Y-33037D01*
X77804Y-33019D01*
X77874Y-32986D01*
X77907Y-32960D01*
X77922Y-32938D01*
X77933Y-32898D01*
X76858Y-30656D02*
X76929Y-30829D01*
X77293Y-30679D01*
X76998Y-30456D02*
X76948Y-30335D01*
X76736Y-30361D02*
X76808Y-30535D01*
X77172Y-30385D01*
X77100Y-30211D01*
X76672Y-30205D02*
X77036Y-30055D01*
X77000Y-29969D01*
X76961Y-29924D01*
X76912Y-29903D01*
X76871Y-29900D01*
X76794Y-29912D01*
X76742Y-29933D01*
X76680Y-29979D01*
X76652Y-30010D01*
X76632Y-30059D01*
X76636Y-30119D01*
X76672Y-30205D01*
X76900Y-29726D02*
X76807Y-29501D01*
X76719Y-29679D01*
X76697Y-29627D01*
X76666Y-29600D01*
X76641Y-29589D01*
X76599Y-29586D01*
X76513Y-29622D01*
X76485Y-29654D01*
X76475Y-29678D01*
X76472Y-29720D01*
X76515Y-29824D01*
X76546Y-29851D01*
X76571Y-29862D01*
X76372Y-29477D02*
X76343Y-29408D01*
X76346Y-29366D01*
X76356Y-29342D01*
X76394Y-29286D01*
X76456Y-29240D01*
X76595Y-29182D01*
X76637Y-29186D01*
X76661Y-29196D01*
X76693Y-29223D01*
X76722Y-29293D01*
X76718Y-29334D01*
X76708Y-29359D01*
X76681Y-29390D01*
X76594Y-29426D01*
X76552Y-29423D01*
X76528Y-29413D01*
X76496Y-29385D01*
X76468Y-29316D01*
X76471Y-29274D01*
X76481Y-29250D01*
X76508Y-29218D01*
X75162Y-27302D02*
X75266Y-27457D01*
X75593Y-27238D01*
X75260Y-27078D02*
X75187Y-26969D01*
X74984Y-27037D02*
X75089Y-27193D01*
X75416Y-26974D01*
X75311Y-26818D01*
X74890Y-26897D02*
X75218Y-26678D01*
X75165Y-26600D01*
X75118Y-26563D01*
X75066Y-26553D01*
X75025Y-26558D01*
X74952Y-26584D01*
X74905Y-26616D01*
X74854Y-26673D01*
X74833Y-26709D01*
X74822Y-26761D01*
X74838Y-26819D01*
X74890Y-26897D01*
X75019Y-26382D02*
X74884Y-26179D01*
X74832Y-26371D01*
X74801Y-26325D01*
X74764Y-26304D01*
X74738Y-26299D01*
X74697Y-26304D01*
X74619Y-26356D01*
X74598Y-26393D01*
X74593Y-26419D01*
X74598Y-26460D01*
X74661Y-26554D01*
X74697Y-26575D01*
X74723Y-26580D01*
X74618Y-26086D02*
X74655Y-26107D01*
X74681Y-26112D01*
X74722Y-26106D01*
X74738Y-26096D01*
X74759Y-26060D01*
X74764Y-26034D01*
X74759Y-25992D01*
X74717Y-25930D01*
X74680Y-25909D01*
X74654Y-25904D01*
X74613Y-25909D01*
X74597Y-25920D01*
X74577Y-25956D01*
X74571Y-25982D01*
X74577Y-26024D01*
X74618Y-26086D01*
X74624Y-26127D01*
X74619Y-26153D01*
X74598Y-26190D01*
X74535Y-26232D01*
X74494Y-26237D01*
X74468Y-26232D01*
X74431Y-26211D01*
X74390Y-26149D01*
X74384Y-26107D01*
X74390Y-26081D01*
X74410Y-26045D01*
X74473Y-26003D01*
X74514Y-25998D01*
X74540Y-26003D01*
X74577Y-26024D01*
X72908Y-24451D02*
X73041Y-24584D01*
X73319Y-24306D01*
X72961Y-24213D02*
X72868Y-24120D01*
X72683Y-24226D02*
X72815Y-24359D01*
X73094Y-24080D01*
X72961Y-23948D01*
X72564Y-24107D02*
X72842Y-23828D01*
X72776Y-23762D01*
X72723Y-23736D01*
X72670Y-23736D01*
X72630Y-23749D01*
X72564Y-23789D01*
X72524Y-23828D01*
X72484Y-23895D01*
X72471Y-23934D01*
X72471Y-23987D01*
X72497Y-24040D01*
X72564Y-24107D01*
X72590Y-23576D02*
X72418Y-23404D01*
X72404Y-23603D01*
X72365Y-23563D01*
X72325Y-23550D01*
X72298Y-23550D01*
X72259Y-23563D01*
X72192Y-23630D01*
X72179Y-23669D01*
X72179Y-23696D01*
X72192Y-23736D01*
X72272Y-23815D01*
X72312Y-23828D01*
X72338Y-23828D01*
X72325Y-23311D02*
X72139Y-23126D01*
X71980Y-23523D01*
X70072Y-21965D02*
X70228Y-22070D01*
X70447Y-21743D01*
X70078Y-21721D02*
X69969Y-21648D01*
X69807Y-21788D02*
X69963Y-21892D01*
X70182Y-21565D01*
X70026Y-21461D01*
X69667Y-21694D02*
X69886Y-21367D01*
X69808Y-21315D01*
X69751Y-21299D01*
X69699Y-21310D01*
X69662Y-21330D01*
X69605Y-21382D01*
X69574Y-21429D01*
X69548Y-21502D01*
X69542Y-21543D01*
X69553Y-21595D01*
X69589Y-21642D01*
X69667Y-21694D01*
X69590Y-21169D02*
X69387Y-21033D01*
X69413Y-21231D01*
X69366Y-21200D01*
X69325Y-21194D01*
X69299Y-21200D01*
X69262Y-21220D01*
X69210Y-21298D01*
X69205Y-21340D01*
X69210Y-21366D01*
X69231Y-21402D01*
X69324Y-21465D01*
X69366Y-21470D01*
X69392Y-21465D01*
X69107Y-20846D02*
X69169Y-20887D01*
X69190Y-20924D01*
X69195Y-20950D01*
X69195Y-21017D01*
X69169Y-21090D01*
X69085Y-21215D01*
X69049Y-21235D01*
X69023Y-21241D01*
X68981Y-21235D01*
X68919Y-21194D01*
X68898Y-21157D01*
X68893Y-21131D01*
X68898Y-21090D01*
X68951Y-21012D01*
X68987Y-20991D01*
X69013Y-20986D01*
X69055Y-20991D01*
X69117Y-21033D01*
X69138Y-21069D01*
X69143Y-21095D01*
X69138Y-21137D01*
X66854Y-20066D02*
X67027Y-20138D01*
X67178Y-19774D01*
X66812Y-19825D02*
X66691Y-19775D01*
X66560Y-19944D02*
X66733Y-20016D01*
X66884Y-19652D01*
X66710Y-19580D01*
X66404Y-19879D02*
X66554Y-19516D01*
X66468Y-19480D01*
X66409Y-19475D01*
X66360Y-19496D01*
X66328Y-19523D01*
X66282Y-19585D01*
X66260Y-19637D01*
X66249Y-19714D01*
X66252Y-19756D01*
X66272Y-19805D01*
X66317Y-19843D01*
X66404Y-19879D01*
X66225Y-19379D02*
X66000Y-19286D01*
X66064Y-19475D01*
X66012Y-19453D01*
X65970Y-19456D01*
X65946Y-19466D01*
X65914Y-19494D01*
X65878Y-19580D01*
X65881Y-19622D01*
X65891Y-19647D01*
X65919Y-19678D01*
X66023Y-19721D01*
X66065Y-19718D01*
X66089Y-19708D01*
X65671Y-19150D02*
X65844Y-19221D01*
X65790Y-19402D01*
X65780Y-19377D01*
X65752Y-19346D01*
X65666Y-19310D01*
X65624Y-19313D01*
X65599Y-19323D01*
X65568Y-19350D01*
X65532Y-19437D01*
X65535Y-19479D01*
X65545Y-19503D01*
X65572Y-19535D01*
X65659Y-19571D01*
X65701Y-19568D01*
X65725Y-19558D01*
X63411Y-18904D02*
X63595Y-18940D01*
X63672Y-18554D01*
X63323Y-18676D02*
X63194Y-18650D01*
X63099Y-18841D02*
X63282Y-18878D01*
X63360Y-18492D01*
X63176Y-18455D01*
X62933Y-18808D02*
X63010Y-18422D01*
X62918Y-18404D01*
X62860Y-18411D01*
X62815Y-18440D01*
X62790Y-18473D01*
X62757Y-18543D01*
X62746Y-18598D01*
X62749Y-18676D01*
X62760Y-18716D01*
X62790Y-18760D01*
X62841Y-18790D01*
X62933Y-18808D01*
X62661Y-18352D02*
X62422Y-18304D01*
X62521Y-18477D01*
X62466Y-18466D01*
X62426Y-18477D01*
X62404Y-18492D01*
X62378Y-18525D01*
X62360Y-18617D01*
X62371Y-18657D01*
X62385Y-18679D01*
X62418Y-18705D01*
X62529Y-18727D01*
X62569Y-18716D01*
X62591Y-18701D01*
X62065Y-18367D02*
X62014Y-18624D01*
X62187Y-18238D02*
X62224Y-18532D01*
X61985Y-18485D01*
X59694Y-18406D02*
X59882Y-18406D01*
X59882Y-18012D01*
X59563Y-18200D02*
X59432Y-18200D01*
X59376Y-18406D02*
X59563Y-18406D01*
X59563Y-18012D01*
X59376Y-18012D01*
X59207Y-18406D02*
X59207Y-18012D01*
X59113Y-18012D01*
X59057Y-18031D01*
X59020Y-18068D01*
X59001Y-18106D01*
X58982Y-18181D01*
X58982Y-18237D01*
X59001Y-18312D01*
X59020Y-18350D01*
X59057Y-18387D01*
X59113Y-18406D01*
X59207Y-18406D01*
X58851Y-18012D02*
X58607Y-18012D01*
X58738Y-18162D01*
X58682Y-18162D01*
X58645Y-18181D01*
X58626Y-18200D01*
X58607Y-18237D01*
X58607Y-18331D01*
X58626Y-18368D01*
X58645Y-18387D01*
X58682Y-18406D01*
X58795Y-18406D01*
X58832Y-18387D01*
X58851Y-18368D01*
X58476Y-18012D02*
X58232Y-18012D01*
X58363Y-18162D01*
X58307Y-18162D01*
X58270Y-18181D01*
X58251Y-18200D01*
X58232Y-18237D01*
X58232Y-18331D01*
X58251Y-18368D01*
X58270Y-18387D01*
X58307Y-18406D01*
X58420Y-18406D01*
X58457Y-18387D01*
X58476Y-18368D01*
X60017Y-24345D02*
X60055Y-24326D01*
X60092Y-24289D01*
X60149Y-24233D01*
X60186Y-24214D01*
X60224Y-24214D01*
X60205Y-24308D02*
X60242Y-24289D01*
X60280Y-24251D01*
X60299Y-24176D01*
X60299Y-24045D01*
X60280Y-23970D01*
X60242Y-23933D01*
X60205Y-23914D01*
X60130Y-23914D01*
X60092Y-23933D01*
X60055Y-23970D01*
X60036Y-24045D01*
X60036Y-24176D01*
X60055Y-24251D01*
X60092Y-24289D01*
X60130Y-24308D01*
X60205Y-24308D01*
X59661Y-24308D02*
X59886Y-24308D01*
X59774Y-24308D02*
X59774Y-23914D01*
X59811Y-23970D01*
X59849Y-24008D01*
X59886Y-24026D01*
X58171Y-24365D02*
X58208Y-24346D01*
X58246Y-24308D01*
X58302Y-24252D01*
X58340Y-24233D01*
X58377Y-24233D01*
X58358Y-24327D02*
X58396Y-24308D01*
X58433Y-24271D01*
X58452Y-24196D01*
X58452Y-24065D01*
X58433Y-23990D01*
X58396Y-23952D01*
X58358Y-23934D01*
X58283Y-23934D01*
X58246Y-23952D01*
X58208Y-23990D01*
X58190Y-24065D01*
X58190Y-24196D01*
X58208Y-24271D01*
X58246Y-24308D01*
X58283Y-24327D01*
X58358Y-24327D01*
X58040Y-23971D02*
X58021Y-23952D01*
X57983Y-23934D01*
X57890Y-23934D01*
X57852Y-23952D01*
X57833Y-23971D01*
X57815Y-24008D01*
X57815Y-24046D01*
X57833Y-24102D01*
X58058Y-24327D01*
X57815Y-24327D01*
X57164Y-26638D02*
X57296Y-26451D01*
X57389Y-26638D02*
X57389Y-26245D01*
X57239Y-26245D01*
X57202Y-26263D01*
X57183Y-26282D01*
X57164Y-26320D01*
X57164Y-26376D01*
X57183Y-26413D01*
X57202Y-26432D01*
X57239Y-26451D01*
X57389Y-26451D01*
X56996Y-26376D02*
X56996Y-26769D01*
X56996Y-26395D02*
X56958Y-26376D01*
X56883Y-26376D01*
X56846Y-26395D01*
X56827Y-26413D01*
X56808Y-26451D01*
X56808Y-26563D01*
X56827Y-26601D01*
X56846Y-26619D01*
X56883Y-26638D01*
X56958Y-26638D01*
X56996Y-26619D01*
X56433Y-26638D02*
X56658Y-26638D01*
X56546Y-26638D02*
X56546Y-26245D01*
X56583Y-26301D01*
X56621Y-26338D01*
X56658Y-26357D01*
X61460Y-26650D02*
X61591Y-26463D01*
X61685Y-26650D02*
X61685Y-26256D01*
X61535Y-26256D01*
X61497Y-26275D01*
X61479Y-26294D01*
X61460Y-26331D01*
X61460Y-26388D01*
X61479Y-26425D01*
X61497Y-26444D01*
X61535Y-26463D01*
X61685Y-26463D01*
X61291Y-26388D02*
X61291Y-26781D01*
X61291Y-26406D02*
X61254Y-26388D01*
X61179Y-26388D01*
X61141Y-26406D01*
X61122Y-26425D01*
X61104Y-26463D01*
X61104Y-26575D01*
X61122Y-26613D01*
X61141Y-26631D01*
X61179Y-26650D01*
X61254Y-26650D01*
X61291Y-26631D01*
X60954Y-26294D02*
X60935Y-26275D01*
X60897Y-26256D01*
X60804Y-26256D01*
X60766Y-26275D01*
X60747Y-26294D01*
X60729Y-26331D01*
X60729Y-26369D01*
X60747Y-26425D01*
X60972Y-26650D01*
X60729Y-26650D01*
%LPC*%
G54D16*
X64246Y-25308D03*
X63128Y-25319D03*
X63808Y-26207D03*
X62690Y-26218D03*
X54845Y-24870D03*
X54165Y-25758D03*
X55283Y-25769D03*
X54603Y-26657D03*
G54D17*
X57562Y-51232D03*
X58562Y-51232D03*
X59562Y-51232D03*
X60562Y-51232D03*
G54D18*
X57716Y-49094D03*
X60394Y-49094D03*
G54D19*
X56338Y-49094D03*
X55157Y-49094D03*
G54D20*
X56653Y-49094D03*
X54842Y-49094D03*
G54D19*
X61771Y-49094D03*
X62952Y-49094D03*
G54D20*
X61456Y-49094D03*
X63267Y-49094D03*
G54D21*
X59161Y-36984D03*
X59358Y-36984D03*
X59555Y-36984D03*
X58964Y-36984D03*
G54D22*
X58669Y-36689D03*
X58669Y-36492D03*
X58669Y-36295D03*
X58669Y-36098D03*
X58669Y-35902D03*
X58669Y-35705D03*
X58669Y-35508D03*
X58669Y-35311D03*
G54D21*
X60342Y-35016D03*
X58964Y-35016D03*
X59161Y-35016D03*
X59358Y-35016D03*
X59555Y-35016D03*
X59751Y-35016D03*
X59948Y-35016D03*
X60145Y-35016D03*
G54D22*
X60637Y-35311D03*
X60637Y-35508D03*
X60637Y-35705D03*
X60637Y-35902D03*
X60637Y-36098D03*
X60637Y-36295D03*
X60637Y-36492D03*
X60637Y-36689D03*
G54D21*
X60342Y-36984D03*
X60145Y-36984D03*
X59948Y-36984D03*
X59751Y-36984D03*
G54D23*
X59653Y-36000D03*
G54D24*
X56606Y-38047D03*
G54D25*
X57606Y-38047D03*
X58606Y-38047D03*
X59606Y-38047D03*
X60606Y-38047D03*
X61606Y-38047D03*
G54D10*
G36*
X56543Y-21516D02*
X56659Y-22095D01*
X56158Y-22195D01*
X56042Y-21616D01*
X56543Y-21516D01*
X56543Y-21516D01*
G37*
G36*
X55810Y-21663D02*
X55925Y-22241D01*
X55424Y-22341D01*
X55309Y-21763D01*
X55810Y-21663D01*
X55810Y-21663D01*
G37*
G36*
X53500Y-22321D02*
X53725Y-22866D01*
X53253Y-23061D01*
X53028Y-22516D01*
X53500Y-22321D01*
X53500Y-22321D01*
G37*
G36*
X52809Y-22607D02*
X53034Y-23152D01*
X52562Y-23348D01*
X52337Y-22803D01*
X52809Y-22607D01*
X52809Y-22607D01*
G37*
G36*
X50634Y-23735D02*
X50962Y-24225D01*
X50538Y-24509D01*
X50209Y-24019D01*
X50634Y-23735D01*
X50634Y-23735D01*
G37*
G36*
X50013Y-24151D02*
X50341Y-24641D01*
X49916Y-24926D01*
X49588Y-24435D01*
X50013Y-24151D01*
X50013Y-24151D01*
G37*
G36*
X48149Y-25606D02*
X48567Y-26023D01*
X48205Y-26384D01*
X47788Y-25967D01*
X48149Y-25606D01*
X48149Y-25606D01*
G37*
G36*
X47620Y-26135D02*
X48038Y-26552D01*
X47676Y-26913D01*
X47259Y-26496D01*
X47620Y-26135D01*
X47620Y-26135D01*
G37*
G36*
X46068Y-27974D02*
X46559Y-28301D01*
X46275Y-28726D01*
X45784Y-28399D01*
X46068Y-27974D01*
X46068Y-27974D01*
G37*
G36*
X45653Y-28596D02*
X46144Y-28923D01*
X45860Y-29348D01*
X45369Y-29021D01*
X45653Y-28596D01*
X45653Y-28596D01*
G37*
G36*
X44476Y-30683D02*
X45021Y-30909D01*
X44825Y-31381D01*
X44280Y-31155D01*
X44476Y-30683D01*
X44476Y-30683D01*
G37*
G36*
X44189Y-31374D02*
X44735Y-31600D01*
X44539Y-32072D01*
X43994Y-31846D01*
X44189Y-31374D01*
X44189Y-31374D01*
G37*
G36*
X43435Y-33675D02*
X44014Y-33790D01*
X43914Y-34291D01*
X43335Y-34176D01*
X43435Y-33675D01*
X43435Y-33675D01*
G37*
G36*
X43289Y-34409D02*
X43868Y-34523D01*
X43769Y-35025D01*
X43190Y-34910D01*
X43289Y-34409D01*
X43289Y-34409D01*
G37*
G54D26*
X43307Y-37027D03*
X43307Y-37775D03*
G54D10*
G36*
X43189Y-39912D02*
X43768Y-39797D01*
X43868Y-40298D01*
X43289Y-40414D01*
X43189Y-39912D01*
X43189Y-39912D01*
G37*
G36*
X43336Y-40646D02*
X43914Y-40530D01*
X44014Y-41031D01*
X43436Y-41147D01*
X43336Y-40646D01*
X43336Y-40646D01*
G37*
G36*
X43994Y-42976D02*
X44539Y-42750D01*
X44735Y-43222D01*
X44189Y-43448D01*
X43994Y-42976D01*
X43994Y-42976D01*
G37*
G36*
X44280Y-43667D02*
X44825Y-43441D01*
X45021Y-43913D01*
X44476Y-44139D01*
X44280Y-43667D01*
X44280Y-43667D01*
G37*
G36*
X45349Y-45782D02*
X45839Y-45454D01*
X46124Y-45879D01*
X45633Y-46207D01*
X45349Y-45782D01*
X45349Y-45782D01*
G37*
G36*
X45765Y-46404D02*
X46255Y-46076D01*
X46540Y-46500D01*
X46049Y-46828D01*
X45765Y-46404D01*
X45765Y-46404D01*
G37*
G36*
X47259Y-48306D02*
X47676Y-47889D01*
X48038Y-48250D01*
X47620Y-48668D01*
X47259Y-48306D01*
X47259Y-48306D01*
G37*
G36*
X47788Y-48835D02*
X48205Y-48418D01*
X48567Y-48779D01*
X48149Y-49197D01*
X47788Y-48835D01*
X47788Y-48835D01*
G37*
G36*
X49607Y-50388D02*
X49935Y-49897D01*
X50360Y-50180D01*
X50033Y-50671D01*
X49607Y-50388D01*
X49607Y-50388D01*
G37*
G36*
X50230Y-50803D02*
X50557Y-50312D01*
X50982Y-50595D01*
X50655Y-51086D01*
X50230Y-50803D01*
X50230Y-50803D01*
G37*
G36*
X52337Y-51980D02*
X52562Y-51435D01*
X53034Y-51630D01*
X52809Y-52176D01*
X52337Y-51980D01*
X52337Y-51980D01*
G37*
G36*
X53028Y-52266D02*
X53253Y-51721D01*
X53725Y-51917D01*
X53500Y-52462D01*
X53028Y-52266D01*
X53028Y-52266D01*
G37*
G36*
X55289Y-53001D02*
X55404Y-52422D01*
X55905Y-52522D01*
X55791Y-53101D01*
X55289Y-53001D01*
X55289Y-53001D01*
G37*
G36*
X56023Y-53147D02*
X56138Y-52568D01*
X56639Y-52667D01*
X56524Y-53246D01*
X56023Y-53147D01*
X56023Y-53147D01*
G37*
G36*
X61563Y-53243D02*
X61452Y-52664D01*
X61953Y-52567D01*
X62065Y-53146D01*
X61563Y-53243D01*
X61563Y-53243D01*
G37*
G36*
X62298Y-53101D02*
X62186Y-52522D01*
X62688Y-52425D01*
X62799Y-53005D01*
X62298Y-53101D01*
X62298Y-53101D01*
G37*
G54D27*
X58681Y-53149D03*
X59429Y-53149D03*
G54D10*
G36*
X64612Y-52445D02*
X64384Y-51901D01*
X64855Y-51703D01*
X65083Y-52247D01*
X64612Y-52445D01*
X64612Y-52445D01*
G37*
G36*
X65302Y-52155D02*
X65073Y-51611D01*
X65544Y-51413D01*
X65773Y-51957D01*
X65302Y-52155D01*
X65302Y-52155D01*
G37*
G36*
X67398Y-51108D02*
X67069Y-50619D01*
X67492Y-50333D01*
X67822Y-50822D01*
X67398Y-51108D01*
X67398Y-51108D01*
G37*
G36*
X68019Y-50690D02*
X67689Y-50200D01*
X68112Y-49915D01*
X68442Y-50404D01*
X68019Y-50690D01*
X68019Y-50690D01*
G37*
G36*
X69960Y-49197D02*
X69543Y-48779D01*
X69904Y-48418D01*
X70321Y-48835D01*
X69960Y-49197D01*
X69960Y-49197D01*
G37*
G36*
X70489Y-48668D02*
X70072Y-48250D01*
X70433Y-47889D01*
X70850Y-48306D01*
X70489Y-48668D01*
X70489Y-48668D01*
G37*
G36*
X72060Y-46828D02*
X71570Y-46500D01*
X71854Y-46076D01*
X72344Y-46404D01*
X72060Y-46828D01*
X72060Y-46828D01*
G37*
G36*
X72476Y-46207D02*
X71986Y-45879D01*
X72270Y-45454D01*
X72760Y-45782D01*
X72476Y-46207D01*
X72476Y-46207D01*
G37*
G36*
X73634Y-44119D02*
X73088Y-43893D01*
X73284Y-43421D01*
X73829Y-43647D01*
X73634Y-44119D01*
X73634Y-44119D01*
G37*
G36*
X73920Y-43428D02*
X73375Y-43202D01*
X73570Y-42730D01*
X74115Y-42956D01*
X73920Y-43428D01*
X73920Y-43428D01*
G37*
G36*
X74654Y-41167D02*
X74075Y-41051D01*
X74175Y-40550D01*
X74754Y-40666D01*
X74654Y-41167D01*
X74654Y-41167D01*
G37*
G36*
X74800Y-40433D02*
X74222Y-40318D01*
X74322Y-39817D01*
X74900Y-39932D01*
X74800Y-40433D01*
X74800Y-40433D01*
G37*
G54D26*
X74803Y-37775D03*
X74803Y-37027D03*
G54D10*
G36*
X74919Y-34890D02*
X74340Y-35005D01*
X74241Y-34504D01*
X74820Y-34389D01*
X74919Y-34890D01*
X74919Y-34890D01*
G37*
G36*
X74774Y-34157D02*
X74195Y-34271D01*
X74096Y-33770D01*
X74674Y-33655D01*
X74774Y-34157D01*
X74774Y-34157D01*
G37*
G36*
X74115Y-31846D02*
X73570Y-32072D01*
X73375Y-31600D01*
X73920Y-31374D01*
X74115Y-31846D01*
X74115Y-31846D01*
G37*
G36*
X73829Y-31155D02*
X73284Y-31381D01*
X73088Y-30909D01*
X73634Y-30683D01*
X73829Y-31155D01*
X73829Y-31155D01*
G37*
G36*
X72740Y-29000D02*
X72250Y-29328D01*
X71966Y-28904D01*
X72456Y-28576D01*
X72740Y-29000D01*
X72740Y-29000D01*
G37*
G36*
X72324Y-28379D02*
X71834Y-28707D01*
X71550Y-28282D01*
X72040Y-27954D01*
X72324Y-28379D01*
X72324Y-28379D01*
G37*
G36*
X70850Y-26496D02*
X70433Y-26913D01*
X70072Y-26552D01*
X70489Y-26135D01*
X70850Y-26496D01*
X70850Y-26496D01*
G37*
G36*
X70321Y-25967D02*
X69904Y-26384D01*
X69543Y-26023D01*
X69960Y-25606D01*
X70321Y-25967D01*
X70321Y-25967D01*
G37*
G36*
X68522Y-24429D02*
X68198Y-24922D01*
X67771Y-24642D01*
X68095Y-24149D01*
X68522Y-24429D01*
X68522Y-24429D01*
G37*
G36*
X67897Y-24019D02*
X67573Y-24512D01*
X67146Y-24231D01*
X67470Y-23738D01*
X67897Y-24019D01*
X67897Y-24019D01*
G37*
G36*
X65773Y-22803D02*
X65547Y-23348D01*
X65075Y-23152D01*
X65301Y-22607D01*
X65773Y-22803D01*
X65773Y-22803D01*
G37*
G36*
X65082Y-22516D02*
X64856Y-23061D01*
X64384Y-22866D01*
X64610Y-22321D01*
X65082Y-22516D01*
X65082Y-22516D01*
G37*
G36*
X62801Y-21802D02*
X62685Y-22381D01*
X62184Y-22281D01*
X62299Y-21702D01*
X62801Y-21802D01*
X62801Y-21802D01*
G37*
G36*
X62067Y-21656D02*
X61951Y-22234D01*
X61450Y-22134D01*
X61566Y-21555D01*
X62067Y-21656D01*
X62067Y-21656D01*
G37*
G54D27*
X59429Y-21653D03*
X58681Y-21653D03*
G54D26*
X61492Y-35645D03*
X61492Y-36393D03*
G54D28*
X57039Y-36114D03*
X57039Y-35740D03*
X57039Y-35366D03*
G54D10*
G36*
X55288Y-39055D02*
X54757Y-39314D01*
X54498Y-38783D01*
X55029Y-38524D01*
X55288Y-39055D01*
X55288Y-39055D01*
G37*
G36*
X53942Y-36295D02*
X53411Y-36554D01*
X53152Y-36023D01*
X53683Y-35764D01*
X53942Y-36295D01*
X53942Y-36295D01*
G37*
G36*
X63478Y-39314D02*
X62947Y-39055D01*
X63206Y-38524D01*
X63737Y-38783D01*
X63478Y-39314D01*
X63478Y-39314D01*
G37*
G36*
X64824Y-36554D02*
X64294Y-36295D01*
X64552Y-35764D01*
X65083Y-36023D01*
X64824Y-36554D01*
X64824Y-36554D01*
G37*
G36*
X51275Y-27667D02*
X50881Y-27078D01*
X51470Y-26683D01*
X51864Y-27272D01*
X51275Y-27667D01*
X51275Y-27667D01*
G37*
G36*
X52387Y-26922D02*
X51993Y-26333D01*
X52582Y-25939D01*
X52976Y-26528D01*
X52387Y-26922D01*
X52387Y-26922D01*
G37*
G36*
X56830Y-19418D02*
X56135Y-19556D01*
X56027Y-19016D01*
X56722Y-18877D01*
X56830Y-19418D01*
X56830Y-19418D01*
G37*
G36*
X57085Y-20692D02*
X56390Y-20830D01*
X56282Y-20290D01*
X56977Y-20151D01*
X57085Y-20692D01*
X57085Y-20692D01*
G37*
G36*
X55232Y-21062D02*
X54537Y-21201D01*
X54429Y-20660D01*
X55124Y-20521D01*
X55232Y-21062D01*
X55232Y-21062D01*
G37*
G36*
X54977Y-19788D02*
X54282Y-19927D01*
X54174Y-19386D01*
X54869Y-19247D01*
X54977Y-19788D01*
X54977Y-19788D01*
G37*
G36*
X55811Y-19942D02*
X55425Y-20020D01*
X55386Y-19826D01*
X55772Y-19749D01*
X55811Y-19942D01*
X55811Y-19942D01*
G37*
G36*
X55873Y-20251D02*
X55487Y-20328D01*
X55448Y-20135D01*
X55834Y-20058D01*
X55873Y-20251D01*
X55873Y-20251D01*
G37*
G36*
X53340Y-20180D02*
X52685Y-20452D01*
X52475Y-19942D01*
X53129Y-19671D01*
X53340Y-20180D01*
X53340Y-20180D01*
G37*
G36*
X53837Y-21381D02*
X53183Y-21652D01*
X52972Y-21143D01*
X53626Y-20871D01*
X53837Y-21381D01*
X53837Y-21381D01*
G37*
G36*
X52091Y-22104D02*
X51437Y-22375D01*
X51226Y-21866D01*
X51880Y-21595D01*
X52091Y-22104D01*
X52091Y-22104D01*
G37*
G36*
X51594Y-20904D02*
X50940Y-21175D01*
X50729Y-20666D01*
X51383Y-20394D01*
X51594Y-20904D01*
X51594Y-20904D01*
G37*
G36*
X52442Y-20893D02*
X52078Y-21044D01*
X52003Y-20862D01*
X52367Y-20711D01*
X52442Y-20893D01*
X52442Y-20893D01*
G37*
G36*
X52563Y-21184D02*
X52199Y-21335D01*
X52124Y-21153D01*
X52487Y-21002D01*
X52563Y-21184D01*
X52563Y-21184D01*
G37*
G36*
X50084Y-21643D02*
X49495Y-22037D01*
X49188Y-21579D01*
X49777Y-21185D01*
X50084Y-21643D01*
X50084Y-21643D01*
G37*
G36*
X50806Y-22723D02*
X50218Y-23117D01*
X49911Y-22659D01*
X50500Y-22265D01*
X50806Y-22723D01*
X50806Y-22723D01*
G37*
G36*
X49236Y-23774D02*
X48647Y-24168D01*
X48341Y-23710D01*
X48929Y-23316D01*
X49236Y-23774D01*
X49236Y-23774D01*
G37*
G36*
X48513Y-22694D02*
X47924Y-23089D01*
X47618Y-22631D01*
X48207Y-22236D01*
X48513Y-22694D01*
X48513Y-22694D01*
G37*
G36*
X49343Y-22518D02*
X49016Y-22737D01*
X48906Y-22574D01*
X49233Y-22355D01*
X49343Y-22518D01*
X49343Y-22518D01*
G37*
G36*
X49518Y-22780D02*
X49191Y-22999D01*
X49081Y-22835D01*
X49409Y-22616D01*
X49518Y-22780D01*
X49518Y-22780D01*
G37*
G36*
X47169Y-23698D02*
X46668Y-24199D01*
X46279Y-23810D01*
X46780Y-23308D01*
X47169Y-23698D01*
X47169Y-23698D01*
G37*
G36*
X48088Y-24617D02*
X47587Y-25118D01*
X47197Y-24728D01*
X47698Y-24227D01*
X48088Y-24617D01*
X48088Y-24617D01*
G37*
G36*
X46752Y-25953D02*
X46251Y-26454D01*
X45861Y-26065D01*
X46362Y-25563D01*
X46752Y-25953D01*
X46752Y-25953D01*
G37*
G36*
X45833Y-25035D02*
X45332Y-25536D01*
X44942Y-25146D01*
X45443Y-24645D01*
X45833Y-25035D01*
X45833Y-25035D01*
G37*
G36*
X46613Y-24700D02*
X46334Y-24979D01*
X46195Y-24840D01*
X46473Y-24561D01*
X46613Y-24700D01*
X46613Y-24700D01*
G37*
G36*
X46835Y-24923D02*
X46557Y-25202D01*
X46418Y-25062D01*
X46696Y-24784D01*
X46835Y-24923D01*
X46835Y-24923D01*
G37*
G36*
X44720Y-26290D02*
X44327Y-26879D01*
X43868Y-26574D01*
X44262Y-25984D01*
X44720Y-26290D01*
X44720Y-26290D01*
G37*
G36*
X45801Y-27011D02*
X45408Y-27600D01*
X44949Y-27294D01*
X45343Y-26705D01*
X45801Y-27011D01*
X45801Y-27011D01*
G37*
G36*
X44753Y-28583D02*
X44359Y-29172D01*
X43901Y-28867D01*
X44294Y-28277D01*
X44753Y-28583D01*
X44753Y-28583D01*
G37*
G36*
X43672Y-27862D02*
X43278Y-28452D01*
X42820Y-28146D01*
X43213Y-27556D01*
X43672Y-27862D01*
X43672Y-27862D01*
G37*
G36*
X44371Y-27382D02*
X44152Y-27709D01*
X43988Y-27600D01*
X44207Y-27272D01*
X44371Y-27382D01*
X44371Y-27382D01*
G37*
G36*
X44633Y-27556D02*
X44414Y-27884D01*
X44250Y-27775D01*
X44469Y-27447D01*
X44633Y-27556D01*
X44633Y-27556D01*
G37*
G36*
X42828Y-29286D02*
X42557Y-29941D01*
X42048Y-29730D01*
X42319Y-29075D01*
X42828Y-29286D01*
X42828Y-29286D01*
G37*
G36*
X44029Y-29783D02*
X43757Y-30438D01*
X43248Y-30227D01*
X43519Y-29572D01*
X44029Y-29783D01*
X44029Y-29783D01*
G37*
G36*
X43305Y-31529D02*
X43034Y-32184D01*
X42525Y-31973D01*
X42796Y-31318D01*
X43305Y-31529D01*
X43305Y-31529D01*
G37*
G36*
X42105Y-31032D02*
X41834Y-31687D01*
X41325Y-31476D01*
X41596Y-30821D01*
X42105Y-31032D01*
X42105Y-31032D01*
G37*
G36*
X42697Y-30425D02*
X42547Y-30789D01*
X42365Y-30713D01*
X42516Y-30350D01*
X42697Y-30425D01*
X42697Y-30425D01*
G37*
G36*
X42988Y-30545D02*
X42838Y-30909D01*
X42656Y-30834D01*
X42807Y-30470D01*
X42988Y-30545D01*
X42988Y-30545D01*
G37*
G36*
X41558Y-32609D02*
X41421Y-33304D01*
X40880Y-33197D01*
X41018Y-32502D01*
X41558Y-32609D01*
X41558Y-32609D01*
G37*
G36*
X42833Y-32861D02*
X42695Y-33557D01*
X42154Y-33450D01*
X42292Y-32754D01*
X42833Y-32861D01*
X42833Y-32861D01*
G37*
G36*
X42466Y-34715D02*
X42328Y-35410D01*
X41787Y-35303D01*
X41925Y-34608D01*
X42466Y-34715D01*
X42466Y-34715D01*
G37*
G36*
X41191Y-34463D02*
X41053Y-35158D01*
X40513Y-35051D01*
X40650Y-34356D01*
X41191Y-34463D01*
X41191Y-34463D01*
G37*
G36*
X41653Y-33752D02*
X41577Y-34138D01*
X41383Y-34100D01*
X41460Y-33713D01*
X41653Y-33752D01*
X41653Y-33752D01*
G37*
G36*
X41962Y-33813D02*
X41886Y-34199D01*
X41692Y-34161D01*
X41769Y-33775D01*
X41962Y-33813D01*
X41962Y-33813D01*
G37*
G54D29*
X40688Y-36456D03*
X41988Y-36456D03*
X41988Y-38346D03*
X40688Y-38346D03*
G54D30*
X41181Y-37401D03*
X41496Y-37401D03*
G54D10*
G36*
X41051Y-39645D02*
X41190Y-40340D01*
X40650Y-40448D01*
X40511Y-39753D01*
X41051Y-39645D01*
X41051Y-39645D01*
G37*
G36*
X42325Y-39391D02*
X42464Y-40086D01*
X41924Y-40194D01*
X41785Y-39499D01*
X42325Y-39391D01*
X42325Y-39391D01*
G37*
G36*
X42696Y-41244D02*
X42835Y-41939D01*
X42294Y-42047D01*
X42155Y-41352D01*
X42696Y-41244D01*
X42696Y-41244D01*
G37*
G36*
X41422Y-41498D02*
X41561Y-42193D01*
X41020Y-42301D01*
X40881Y-41606D01*
X41422Y-41498D01*
X41422Y-41498D01*
G37*
G36*
X41576Y-40664D02*
X41653Y-41051D01*
X41460Y-41089D01*
X41383Y-40703D01*
X41576Y-40664D01*
X41576Y-40664D01*
G37*
G36*
X41885Y-40603D02*
X41962Y-40989D01*
X41769Y-41027D01*
X41692Y-40641D01*
X41885Y-40603D01*
X41885Y-40603D01*
G37*
G36*
X41854Y-43155D02*
X42125Y-43810D01*
X41616Y-44021D01*
X41344Y-43366D01*
X41854Y-43155D01*
X41854Y-43155D01*
G37*
G36*
X43054Y-42658D02*
X43325Y-43312D01*
X42816Y-43523D01*
X42545Y-42869D01*
X43054Y-42658D01*
X43054Y-42658D01*
G37*
G36*
X43777Y-44404D02*
X44048Y-45058D01*
X43539Y-45269D01*
X43268Y-44615D01*
X43777Y-44404D01*
X43777Y-44404D01*
G37*
G36*
X42577Y-44901D02*
X42848Y-45556D01*
X42339Y-45766D01*
X42068Y-45112D01*
X42577Y-44901D01*
X42577Y-44901D01*
G37*
G36*
X42566Y-44053D02*
X42717Y-44417D01*
X42535Y-44492D01*
X42385Y-44128D01*
X42566Y-44053D01*
X42566Y-44053D01*
G37*
G36*
X42857Y-43932D02*
X43008Y-44296D01*
X42826Y-44371D01*
X42676Y-44008D01*
X42857Y-43932D01*
X42857Y-43932D01*
G37*
G36*
X43277Y-46352D02*
X43671Y-46941D01*
X43213Y-47248D01*
X42819Y-46659D01*
X43277Y-46352D01*
X43277Y-46352D01*
G37*
G36*
X44357Y-45630D02*
X44751Y-46218D01*
X44293Y-46525D01*
X43899Y-45936D01*
X44357Y-45630D01*
X44357Y-45630D01*
G37*
G36*
X45408Y-47200D02*
X45802Y-47789D01*
X45344Y-48095D01*
X44950Y-47507D01*
X45408Y-47200D01*
X45408Y-47200D01*
G37*
G36*
X44328Y-47923D02*
X44722Y-48512D01*
X44264Y-48818D01*
X43870Y-48229D01*
X44328Y-47923D01*
X44328Y-47923D01*
G37*
G36*
X44152Y-47093D02*
X44371Y-47420D01*
X44207Y-47530D01*
X43988Y-47203D01*
X44152Y-47093D01*
X44152Y-47093D01*
G37*
G36*
X44414Y-46918D02*
X44633Y-47245D01*
X44469Y-47355D01*
X44250Y-47027D01*
X44414Y-46918D01*
X44414Y-46918D01*
G37*
G36*
X45352Y-49286D02*
X45853Y-49787D01*
X45463Y-50177D01*
X44962Y-49676D01*
X45352Y-49286D01*
X45352Y-49286D01*
G37*
G36*
X46270Y-48368D02*
X46772Y-48869D01*
X46382Y-49258D01*
X45881Y-48757D01*
X46270Y-48368D01*
X46270Y-48368D01*
G37*
G36*
X47607Y-49704D02*
X48108Y-50205D01*
X47718Y-50595D01*
X47217Y-50094D01*
X47607Y-49704D01*
X47607Y-49704D01*
G37*
G36*
X46688Y-50622D02*
X47189Y-51124D01*
X46799Y-51513D01*
X46298Y-51012D01*
X46688Y-50622D01*
X46688Y-50622D01*
G37*
G36*
X46354Y-49843D02*
X46632Y-50121D01*
X46493Y-50261D01*
X46215Y-49982D01*
X46354Y-49843D01*
X46354Y-49843D01*
G37*
G36*
X46577Y-49620D02*
X46855Y-49899D01*
X46716Y-50038D01*
X46437Y-49759D01*
X46577Y-49620D01*
X46577Y-49620D01*
G37*
G36*
X47904Y-51716D02*
X48494Y-52109D01*
X48188Y-52568D01*
X47598Y-52174D01*
X47904Y-51716D01*
X47904Y-51716D01*
G37*
G36*
X48625Y-50635D02*
X49214Y-51028D01*
X48909Y-51487D01*
X48319Y-51093D01*
X48625Y-50635D01*
X48625Y-50635D01*
G37*
G36*
X50197Y-51683D02*
X50787Y-52077D01*
X50481Y-52535D01*
X49891Y-52142D01*
X50197Y-51683D01*
X50197Y-51683D01*
G37*
G36*
X49476Y-52764D02*
X50066Y-53158D01*
X49760Y-53616D01*
X49170Y-53223D01*
X49476Y-52764D01*
X49476Y-52764D01*
G37*
G36*
X48996Y-52065D02*
X49323Y-52284D01*
X49214Y-52448D01*
X48887Y-52229D01*
X48996Y-52065D01*
X48996Y-52065D01*
G37*
G36*
X49171Y-51803D02*
X49498Y-52022D01*
X49389Y-52186D01*
X49061Y-51967D01*
X49171Y-51803D01*
X49171Y-51803D01*
G37*
G36*
X50940Y-53627D02*
X51594Y-53899D01*
X51383Y-54408D01*
X50729Y-54137D01*
X50940Y-53627D01*
X50940Y-53627D01*
G37*
G36*
X51437Y-52427D02*
X52091Y-52698D01*
X51880Y-53207D01*
X51226Y-52936D01*
X51437Y-52427D01*
X51437Y-52427D01*
G37*
G36*
X53183Y-53150D02*
X53837Y-53421D01*
X53626Y-53931D01*
X52972Y-53659D01*
X53183Y-53150D01*
X53183Y-53150D01*
G37*
G36*
X52685Y-54351D02*
X53340Y-54622D01*
X53129Y-55131D01*
X52475Y-54860D01*
X52685Y-54351D01*
X52685Y-54351D01*
G37*
G36*
X52078Y-53758D02*
X52442Y-53909D01*
X52367Y-54091D01*
X52003Y-53940D01*
X52078Y-53758D01*
X52078Y-53758D01*
G37*
G36*
X52199Y-53467D02*
X52563Y-53618D01*
X52487Y-53800D01*
X52124Y-53649D01*
X52199Y-53467D01*
X52199Y-53467D01*
G37*
G36*
X54223Y-54898D02*
X54918Y-55035D01*
X54811Y-55576D01*
X54116Y-55438D01*
X54223Y-54898D01*
X54223Y-54898D01*
G37*
G36*
X54476Y-53623D02*
X55171Y-53761D01*
X55064Y-54301D01*
X54369Y-54164D01*
X54476Y-53623D01*
X54476Y-53623D01*
G37*
G36*
X56329Y-53990D02*
X57025Y-54128D01*
X56917Y-54668D01*
X56222Y-54531D01*
X56329Y-53990D01*
X56329Y-53990D01*
G37*
G36*
X56077Y-55265D02*
X56772Y-55402D01*
X56665Y-55943D01*
X55970Y-55805D01*
X56077Y-55265D01*
X56077Y-55265D01*
G37*
G36*
X55366Y-54803D02*
X55752Y-54879D01*
X55714Y-55072D01*
X55328Y-54996D01*
X55366Y-54803D01*
X55366Y-54803D01*
G37*
G36*
X55427Y-54494D02*
X55813Y-54570D01*
X55775Y-54763D01*
X55389Y-54687D01*
X55427Y-54494D01*
X55427Y-54494D01*
G37*
G54D31*
X58110Y-55767D03*
X58110Y-54468D03*
X60000Y-54468D03*
X60000Y-55767D03*
G54D32*
X59055Y-55275D03*
X59055Y-54960D03*
G54D10*
G36*
X61282Y-55391D02*
X61977Y-55248D01*
X62087Y-55788D01*
X61393Y-55931D01*
X61282Y-55391D01*
X61282Y-55391D01*
G37*
G36*
X61021Y-54118D02*
X61715Y-53976D01*
X61826Y-54516D01*
X61132Y-54658D01*
X61021Y-54118D01*
X61021Y-54118D01*
G37*
G36*
X62872Y-53738D02*
X63566Y-53596D01*
X63677Y-54136D01*
X62983Y-54278D01*
X62872Y-53738D01*
X62872Y-53738D01*
G37*
G36*
X63134Y-55011D02*
X63828Y-54868D01*
X63939Y-55408D01*
X63244Y-55551D01*
X63134Y-55011D01*
X63134Y-55011D01*
G37*
G36*
X62299Y-54861D02*
X62685Y-54782D01*
X62724Y-54974D01*
X62338Y-55054D01*
X62299Y-54861D01*
X62299Y-54861D01*
G37*
G36*
X62236Y-54552D02*
X62621Y-54473D01*
X62661Y-54666D01*
X62275Y-54745D01*
X62236Y-54552D01*
X62236Y-54552D01*
G37*
G36*
X64774Y-54627D02*
X65427Y-54353D01*
X65640Y-54861D01*
X64987Y-55135D01*
X64774Y-54627D01*
X64774Y-54627D01*
G37*
G36*
X64270Y-53430D02*
X64923Y-53155D01*
X65137Y-53663D01*
X64484Y-53938D01*
X64270Y-53430D01*
X64270Y-53430D01*
G37*
G36*
X66012Y-52697D02*
X66665Y-52423D01*
X66879Y-52931D01*
X66226Y-53205D01*
X66012Y-52697D01*
X66012Y-52697D01*
G37*
G36*
X66516Y-53895D02*
X67169Y-53620D01*
X67382Y-54128D01*
X66729Y-54403D01*
X66516Y-53895D01*
X66516Y-53895D01*
G37*
G36*
X65668Y-53910D02*
X66031Y-53757D01*
X66107Y-53939D01*
X65744Y-54091D01*
X65668Y-53910D01*
X65668Y-53910D01*
G37*
G36*
X65546Y-53619D02*
X65909Y-53467D01*
X65985Y-53648D01*
X65622Y-53801D01*
X65546Y-53619D01*
X65546Y-53619D01*
G37*
G36*
X67990Y-53201D02*
X68577Y-52805D01*
X68886Y-53262D01*
X68298Y-53658D01*
X67990Y-53201D01*
X67990Y-53201D01*
G37*
G36*
X67263Y-52124D02*
X67851Y-51728D01*
X68159Y-52185D01*
X67572Y-52581D01*
X67263Y-52124D01*
X67263Y-52124D01*
G37*
G36*
X68830Y-51068D02*
X69418Y-50671D01*
X69726Y-51128D01*
X69138Y-51525D01*
X68830Y-51068D01*
X68830Y-51068D01*
G37*
G36*
X69557Y-52145D02*
X70144Y-51748D01*
X70452Y-52205D01*
X69865Y-52602D01*
X69557Y-52145D01*
X69557Y-52145D01*
G37*
G36*
X68728Y-52324D02*
X69054Y-52104D01*
X69164Y-52267D01*
X68838Y-52487D01*
X68728Y-52324D01*
X68728Y-52324D01*
G37*
G36*
X68551Y-52063D02*
X68878Y-51843D01*
X68988Y-52006D01*
X68662Y-52226D01*
X68551Y-52063D01*
X68551Y-52063D01*
G37*
G36*
X70922Y-51105D02*
X71422Y-50603D01*
X71813Y-50992D01*
X71313Y-51494D01*
X70922Y-51105D01*
X70922Y-51105D01*
G37*
G36*
X70002Y-50188D02*
X70502Y-49686D01*
X70893Y-50075D01*
X70392Y-50577D01*
X70002Y-50188D01*
X70002Y-50188D01*
G37*
G36*
X71336Y-48849D02*
X71836Y-48347D01*
X72226Y-48736D01*
X71726Y-49238D01*
X71336Y-48849D01*
X71336Y-48849D01*
G37*
G36*
X72256Y-49766D02*
X72756Y-49264D01*
X73147Y-49654D01*
X72647Y-50156D01*
X72256Y-49766D01*
X72256Y-49766D01*
G37*
G36*
X71477Y-50102D02*
X71755Y-49823D01*
X71895Y-49962D01*
X71617Y-50241D01*
X71477Y-50102D01*
X71477Y-50102D01*
G37*
G36*
X71254Y-49880D02*
X71532Y-49601D01*
X71671Y-49740D01*
X71394Y-50019D01*
X71254Y-49880D01*
X71254Y-49880D01*
G37*
G36*
X73369Y-48532D02*
X73763Y-47942D01*
X74221Y-48248D01*
X73828Y-48838D01*
X73369Y-48532D01*
X73369Y-48532D01*
G37*
G36*
X72288Y-47811D02*
X72682Y-47222D01*
X73140Y-47527D01*
X72747Y-48117D01*
X72288Y-47811D01*
X72288Y-47811D01*
G37*
G36*
X73337Y-46239D02*
X73730Y-45649D01*
X74189Y-45955D01*
X73796Y-46545D01*
X73337Y-46239D01*
X73337Y-46239D01*
G37*
G36*
X74418Y-46960D02*
X74811Y-46370D01*
X75270Y-46676D01*
X74876Y-47266D01*
X74418Y-46960D01*
X74418Y-46960D01*
G37*
G36*
X73719Y-47440D02*
X73937Y-47113D01*
X74101Y-47222D01*
X73883Y-47549D01*
X73719Y-47440D01*
X73719Y-47440D01*
G37*
G36*
X73457Y-47265D02*
X73675Y-46938D01*
X73839Y-47047D01*
X73621Y-47375D01*
X73457Y-47265D01*
X73457Y-47265D01*
G37*
G36*
X75281Y-45516D02*
X75552Y-44861D01*
X76061Y-45072D01*
X75790Y-45727D01*
X75281Y-45516D01*
X75281Y-45516D01*
G37*
G36*
X74081Y-45019D02*
X74352Y-44364D01*
X74861Y-44575D01*
X74590Y-45230D01*
X74081Y-45019D01*
X74081Y-45019D01*
G37*
G36*
X74804Y-43273D02*
X75075Y-42618D01*
X75584Y-42829D01*
X75313Y-43484D01*
X74804Y-43273D01*
X74804Y-43273D01*
G37*
G36*
X76004Y-43770D02*
X76275Y-43116D01*
X76785Y-43326D01*
X76513Y-43981D01*
X76004Y-43770D01*
X76004Y-43770D01*
G37*
G36*
X75412Y-44377D02*
X75562Y-44013D01*
X75744Y-44089D01*
X75594Y-44453D01*
X75412Y-44377D01*
X75412Y-44377D01*
G37*
G36*
X75121Y-44257D02*
X75271Y-43893D01*
X75453Y-43968D01*
X75303Y-44332D01*
X75121Y-44257D01*
X75121Y-44257D01*
G37*
G36*
X76529Y-42252D02*
X76668Y-41557D01*
X77208Y-41665D01*
X77070Y-42360D01*
X76529Y-42252D01*
X76529Y-42252D01*
G37*
G36*
X75255Y-41998D02*
X75394Y-41303D01*
X75934Y-41411D01*
X75795Y-42106D01*
X75255Y-41998D01*
X75255Y-41998D01*
G37*
G36*
X75625Y-40145D02*
X75764Y-39450D01*
X76305Y-39558D01*
X76166Y-40253D01*
X75625Y-40145D01*
X75625Y-40145D01*
G37*
G36*
X76899Y-40399D02*
X77038Y-39704D01*
X77579Y-39812D01*
X77440Y-40507D01*
X76899Y-40399D01*
X76899Y-40399D01*
G37*
G36*
X76436Y-41110D02*
X76513Y-40724D01*
X76706Y-40762D01*
X76629Y-41148D01*
X76436Y-41110D01*
X76436Y-41110D01*
G37*
G36*
X76127Y-41048D02*
X76204Y-40662D01*
X76397Y-40700D01*
X76320Y-41086D01*
X76127Y-41048D01*
X76127Y-41048D01*
G37*
G54D29*
X77421Y-38346D03*
X76122Y-38346D03*
X76122Y-36456D03*
X77421Y-36456D03*
G54D30*
X76929Y-37401D03*
X76614Y-37401D03*
G54D10*
G36*
X77036Y-35138D02*
X76898Y-34443D01*
X77439Y-34336D01*
X77577Y-35031D01*
X77036Y-35138D01*
X77036Y-35138D01*
G37*
G36*
X75762Y-35391D02*
X75624Y-34696D01*
X76165Y-34588D01*
X76302Y-35284D01*
X75762Y-35391D01*
X75762Y-35391D01*
G37*
G36*
X75395Y-33537D02*
X75257Y-32842D01*
X75798Y-32735D01*
X75935Y-33430D01*
X75395Y-33537D01*
X75395Y-33537D01*
G37*
G36*
X76669Y-33285D02*
X76531Y-32589D01*
X77072Y-32482D01*
X77210Y-33177D01*
X76669Y-33285D01*
X76669Y-33285D01*
G37*
G36*
X76513Y-34118D02*
X76437Y-33732D01*
X76630Y-33694D01*
X76706Y-34080D01*
X76513Y-34118D01*
X76513Y-34118D01*
G37*
G36*
X76204Y-34179D02*
X76128Y-33793D01*
X76321Y-33755D01*
X76397Y-34141D01*
X76204Y-34179D01*
X76204Y-34179D01*
G37*
G36*
X76273Y-31688D02*
X76003Y-31033D01*
X76513Y-30823D01*
X76783Y-31478D01*
X76273Y-31688D01*
X76273Y-31688D01*
G37*
G36*
X75072Y-32183D02*
X74802Y-31528D01*
X75312Y-31318D01*
X75582Y-31973D01*
X75072Y-32183D01*
X75072Y-32183D01*
G37*
G36*
X74352Y-30436D02*
X74082Y-29781D01*
X74592Y-29571D01*
X74862Y-30226D01*
X74352Y-30436D01*
X74352Y-30436D01*
G37*
G36*
X75553Y-29941D02*
X75283Y-29286D01*
X75793Y-29076D01*
X76063Y-29731D01*
X75553Y-29941D01*
X75553Y-29941D01*
G37*
G36*
X75562Y-30789D02*
X75412Y-30425D01*
X75594Y-30350D01*
X75744Y-30714D01*
X75562Y-30789D01*
X75562Y-30789D01*
G37*
G36*
X75271Y-30909D02*
X75121Y-30545D01*
X75303Y-30470D01*
X75453Y-30834D01*
X75271Y-30909D01*
X75271Y-30909D01*
G37*
G36*
X74813Y-28430D02*
X74418Y-27841D01*
X74876Y-27535D01*
X75271Y-28123D01*
X74813Y-28430D01*
X74813Y-28430D01*
G37*
G36*
X73733Y-29153D02*
X73339Y-28564D01*
X73797Y-28257D01*
X74191Y-28846D01*
X73733Y-29153D01*
X73733Y-29153D01*
G37*
G36*
X72682Y-27582D02*
X72287Y-26994D01*
X72745Y-26687D01*
X73140Y-27276D01*
X72682Y-27582D01*
X72682Y-27582D01*
G37*
G36*
X73761Y-26860D02*
X73367Y-26271D01*
X73825Y-25964D01*
X74219Y-26553D01*
X73761Y-26860D01*
X73761Y-26860D01*
G37*
G36*
X73938Y-27689D02*
X73719Y-27362D01*
X73882Y-27253D01*
X74101Y-27580D01*
X73938Y-27689D01*
X73938Y-27689D01*
G37*
G36*
X73676Y-27864D02*
X73457Y-27537D01*
X73620Y-27428D01*
X73839Y-27755D01*
X73676Y-27864D01*
X73676Y-27864D01*
G37*
G36*
X72757Y-25536D02*
X72256Y-25035D01*
X72646Y-24645D01*
X73147Y-25146D01*
X72757Y-25536D01*
X72757Y-25536D01*
G37*
G36*
X71839Y-26454D02*
X71338Y-25953D01*
X71727Y-25563D01*
X72229Y-26065D01*
X71839Y-26454D01*
X71839Y-26454D01*
G37*
G36*
X70503Y-25118D02*
X70001Y-24617D01*
X70391Y-24227D01*
X70892Y-24728D01*
X70503Y-25118D01*
X70503Y-25118D01*
G37*
G36*
X71421Y-24199D02*
X70920Y-23698D01*
X71310Y-23308D01*
X71811Y-23810D01*
X71421Y-24199D01*
X71421Y-24199D01*
G37*
G36*
X71755Y-24979D02*
X71477Y-24700D01*
X71616Y-24561D01*
X71894Y-24840D01*
X71755Y-24979D01*
X71755Y-24979D01*
G37*
G36*
X71533Y-25202D02*
X71254Y-24923D01*
X71393Y-24784D01*
X71672Y-25062D01*
X71533Y-25202D01*
X71533Y-25202D01*
G37*
G36*
X70185Y-23089D02*
X69596Y-22694D01*
X69903Y-22236D01*
X70491Y-22631D01*
X70185Y-23089D01*
X70185Y-23089D01*
G37*
G36*
X69462Y-24168D02*
X68873Y-23774D01*
X69180Y-23316D01*
X69769Y-23710D01*
X69462Y-24168D01*
X69462Y-24168D01*
G37*
G36*
X67892Y-23117D02*
X67303Y-22723D01*
X67609Y-22265D01*
X68198Y-22659D01*
X67892Y-23117D01*
X67892Y-23117D01*
G37*
G36*
X68614Y-22037D02*
X68026Y-21643D01*
X68332Y-21185D01*
X68921Y-21579D01*
X68614Y-22037D01*
X68614Y-22037D01*
G37*
G36*
X69094Y-22737D02*
X68766Y-22518D01*
X68876Y-22355D01*
X69203Y-22574D01*
X69094Y-22737D01*
X69094Y-22737D01*
G37*
G36*
X68918Y-22999D02*
X68591Y-22780D01*
X68701Y-22616D01*
X69028Y-22835D01*
X68918Y-22999D01*
X68918Y-22999D01*
G37*
G36*
X67170Y-21175D02*
X66515Y-20904D01*
X66726Y-20394D01*
X67381Y-20666D01*
X67170Y-21175D01*
X67170Y-21175D01*
G37*
G36*
X66673Y-22375D02*
X66018Y-22104D01*
X66229Y-21595D01*
X66883Y-21866D01*
X66673Y-22375D01*
X66673Y-22375D01*
G37*
G36*
X64927Y-21652D02*
X64272Y-21381D01*
X64483Y-20871D01*
X65138Y-21143D01*
X64927Y-21652D01*
X64927Y-21652D01*
G37*
G36*
X65424Y-20452D02*
X64769Y-20180D01*
X64980Y-19671D01*
X65635Y-19942D01*
X65424Y-20452D01*
X65424Y-20452D01*
G37*
G36*
X66031Y-21044D02*
X65667Y-20893D01*
X65742Y-20711D01*
X66106Y-20862D01*
X66031Y-21044D01*
X66031Y-21044D01*
G37*
G36*
X65910Y-21335D02*
X65546Y-21184D01*
X65622Y-21002D01*
X65986Y-21153D01*
X65910Y-21335D01*
X65910Y-21335D01*
G37*
G36*
X63866Y-19927D02*
X63172Y-19788D01*
X63280Y-19247D01*
X63975Y-19386D01*
X63866Y-19927D01*
X63866Y-19927D01*
G37*
G36*
X63612Y-21201D02*
X62917Y-21062D01*
X63025Y-20521D01*
X63720Y-20660D01*
X63612Y-21201D01*
X63612Y-21201D01*
G37*
G36*
X61759Y-20830D02*
X61064Y-20692D01*
X61172Y-20151D01*
X61867Y-20290D01*
X61759Y-20830D01*
X61759Y-20830D01*
G37*
G36*
X62013Y-19556D02*
X61318Y-19418D01*
X61426Y-18877D01*
X62121Y-19016D01*
X62013Y-19556D01*
X62013Y-19556D01*
G37*
G36*
X62724Y-20020D02*
X62338Y-19942D01*
X62376Y-19749D01*
X62762Y-19826D01*
X62724Y-20020D01*
X62724Y-20020D01*
G37*
G36*
X62662Y-20328D02*
X62276Y-20251D01*
X62315Y-20058D01*
X62701Y-20135D01*
X62662Y-20328D01*
X62662Y-20328D01*
G37*
G54D31*
X60000Y-19035D03*
X60000Y-20334D03*
X58110Y-20334D03*
X58110Y-19035D03*
G54D32*
X59055Y-19527D03*
X59055Y-19842D03*
G54D33*
X60413Y-24901D03*
X60413Y-25649D03*
X59547Y-25275D03*
X57696Y-25649D03*
X57696Y-24901D03*
X58562Y-25275D03*
G54D34*
X56909Y-25688D03*
X56909Y-25020D03*
X61200Y-25020D03*
X61200Y-25688D03*
M02*
