%FSLAX34Y34*%
G04 Gerber Fmt 3.4, Leading zero omitted, Abs format*
G04 (created by PCBNEW (2014-06-29 BZR 4957)-product) date Mon 14 Jul 2014 02:37:22 AM CEST*
%MOIN*%
G01*
G70*
G90*
G04 APERTURE LIST*
%ADD10C,0.003937*%
%ADD11R,0.059000X0.051100*%
%ADD12R,0.051100X0.059000*%
%ADD13R,0.055118X0.070866*%
%ADD14R,0.070866X0.055118*%
G04 APERTURE END LIST*
G54D10*
G36*
X53750Y-36816D02*
X53220Y-37075D01*
X52935Y-36491D01*
X53466Y-36232D01*
X53750Y-36816D01*
X53750Y-36816D01*
G37*
G36*
X55767Y-36389D02*
X55237Y-36647D01*
X54952Y-36064D01*
X55482Y-35805D01*
X55767Y-36389D01*
X55767Y-36389D01*
G37*
G36*
X54189Y-37715D02*
X53658Y-37974D01*
X53374Y-37390D01*
X53904Y-37131D01*
X54189Y-37715D01*
X54189Y-37715D01*
G37*
G36*
X56205Y-37288D02*
X55675Y-37546D01*
X55390Y-36962D01*
X55921Y-36704D01*
X56205Y-37288D01*
X56205Y-37288D01*
G37*
G36*
X63174Y-36198D02*
X62644Y-35939D01*
X62929Y-35356D01*
X63459Y-35614D01*
X63174Y-36198D01*
X63174Y-36198D01*
G37*
G36*
X64753Y-37524D02*
X64222Y-37266D01*
X64507Y-36682D01*
X65037Y-36940D01*
X64753Y-37524D01*
X64753Y-37524D01*
G37*
G36*
X62736Y-37097D02*
X62206Y-36838D01*
X62490Y-36254D01*
X63021Y-36513D01*
X62736Y-37097D01*
X62736Y-37097D01*
G37*
G36*
X64314Y-38423D02*
X63784Y-38164D01*
X64069Y-37580D01*
X64599Y-37839D01*
X64314Y-38423D01*
X64314Y-38423D01*
G37*
G36*
X56543Y-21516D02*
X56659Y-22095D01*
X56158Y-22195D01*
X56042Y-21616D01*
X56543Y-21516D01*
X56543Y-21516D01*
G37*
G36*
X55810Y-21663D02*
X55925Y-22241D01*
X55424Y-22341D01*
X55309Y-21763D01*
X55810Y-21663D01*
X55810Y-21663D01*
G37*
G36*
X53500Y-22321D02*
X53725Y-22866D01*
X53253Y-23061D01*
X53028Y-22516D01*
X53500Y-22321D01*
X53500Y-22321D01*
G37*
G36*
X52809Y-22607D02*
X53034Y-23152D01*
X52562Y-23348D01*
X52337Y-22803D01*
X52809Y-22607D01*
X52809Y-22607D01*
G37*
G36*
X50634Y-23735D02*
X50962Y-24225D01*
X50538Y-24509D01*
X50209Y-24019D01*
X50634Y-23735D01*
X50634Y-23735D01*
G37*
G36*
X50013Y-24151D02*
X50341Y-24641D01*
X49916Y-24926D01*
X49588Y-24435D01*
X50013Y-24151D01*
X50013Y-24151D01*
G37*
G36*
X48149Y-25606D02*
X48567Y-26023D01*
X48205Y-26384D01*
X47788Y-25967D01*
X48149Y-25606D01*
X48149Y-25606D01*
G37*
G36*
X47620Y-26135D02*
X48038Y-26552D01*
X47676Y-26913D01*
X47259Y-26496D01*
X47620Y-26135D01*
X47620Y-26135D01*
G37*
G36*
X46068Y-27974D02*
X46559Y-28301D01*
X46275Y-28726D01*
X45784Y-28399D01*
X46068Y-27974D01*
X46068Y-27974D01*
G37*
G36*
X45653Y-28596D02*
X46144Y-28923D01*
X45860Y-29348D01*
X45369Y-29021D01*
X45653Y-28596D01*
X45653Y-28596D01*
G37*
G36*
X44476Y-30683D02*
X45021Y-30909D01*
X44825Y-31381D01*
X44280Y-31155D01*
X44476Y-30683D01*
X44476Y-30683D01*
G37*
G36*
X44189Y-31374D02*
X44735Y-31600D01*
X44539Y-32072D01*
X43994Y-31846D01*
X44189Y-31374D01*
X44189Y-31374D01*
G37*
G36*
X43435Y-33675D02*
X44014Y-33790D01*
X43914Y-34291D01*
X43335Y-34176D01*
X43435Y-33675D01*
X43435Y-33675D01*
G37*
G36*
X43289Y-34409D02*
X43868Y-34523D01*
X43769Y-35025D01*
X43190Y-34910D01*
X43289Y-34409D01*
X43289Y-34409D01*
G37*
G54D11*
X43307Y-37027D03*
X43307Y-37775D03*
G54D10*
G36*
X43189Y-39912D02*
X43768Y-39797D01*
X43868Y-40298D01*
X43289Y-40414D01*
X43189Y-39912D01*
X43189Y-39912D01*
G37*
G36*
X43336Y-40646D02*
X43914Y-40530D01*
X44014Y-41031D01*
X43436Y-41147D01*
X43336Y-40646D01*
X43336Y-40646D01*
G37*
G36*
X43994Y-42976D02*
X44539Y-42750D01*
X44735Y-43222D01*
X44189Y-43448D01*
X43994Y-42976D01*
X43994Y-42976D01*
G37*
G36*
X44280Y-43667D02*
X44825Y-43441D01*
X45021Y-43913D01*
X44476Y-44139D01*
X44280Y-43667D01*
X44280Y-43667D01*
G37*
G36*
X45349Y-45782D02*
X45839Y-45454D01*
X46124Y-45879D01*
X45633Y-46207D01*
X45349Y-45782D01*
X45349Y-45782D01*
G37*
G36*
X45765Y-46404D02*
X46255Y-46076D01*
X46540Y-46500D01*
X46049Y-46828D01*
X45765Y-46404D01*
X45765Y-46404D01*
G37*
G36*
X47259Y-48306D02*
X47676Y-47889D01*
X48038Y-48250D01*
X47620Y-48668D01*
X47259Y-48306D01*
X47259Y-48306D01*
G37*
G36*
X47788Y-48835D02*
X48205Y-48418D01*
X48567Y-48779D01*
X48149Y-49197D01*
X47788Y-48835D01*
X47788Y-48835D01*
G37*
G36*
X49607Y-50388D02*
X49935Y-49897D01*
X50360Y-50180D01*
X50033Y-50671D01*
X49607Y-50388D01*
X49607Y-50388D01*
G37*
G36*
X50230Y-50803D02*
X50557Y-50312D01*
X50982Y-50595D01*
X50655Y-51086D01*
X50230Y-50803D01*
X50230Y-50803D01*
G37*
G36*
X52337Y-51980D02*
X52562Y-51435D01*
X53034Y-51630D01*
X52809Y-52176D01*
X52337Y-51980D01*
X52337Y-51980D01*
G37*
G36*
X53028Y-52266D02*
X53253Y-51721D01*
X53725Y-51917D01*
X53500Y-52462D01*
X53028Y-52266D01*
X53028Y-52266D01*
G37*
G36*
X55289Y-53001D02*
X55404Y-52422D01*
X55905Y-52522D01*
X55791Y-53101D01*
X55289Y-53001D01*
X55289Y-53001D01*
G37*
G36*
X56023Y-53147D02*
X56138Y-52568D01*
X56639Y-52667D01*
X56524Y-53246D01*
X56023Y-53147D01*
X56023Y-53147D01*
G37*
G54D12*
X58681Y-53149D03*
X59429Y-53149D03*
G54D10*
G36*
X61568Y-53250D02*
X61450Y-52672D01*
X61950Y-52569D01*
X62069Y-53147D01*
X61568Y-53250D01*
X61568Y-53250D01*
G37*
G36*
X62301Y-53099D02*
X62182Y-52521D01*
X62683Y-52419D01*
X62801Y-52997D01*
X62301Y-53099D01*
X62301Y-53099D01*
G37*
G36*
X64612Y-52445D02*
X64384Y-51901D01*
X64855Y-51703D01*
X65083Y-52247D01*
X64612Y-52445D01*
X64612Y-52445D01*
G37*
G36*
X65302Y-52155D02*
X65073Y-51611D01*
X65544Y-51413D01*
X65773Y-51957D01*
X65302Y-52155D01*
X65302Y-52155D01*
G37*
G36*
X67398Y-51108D02*
X67069Y-50619D01*
X67492Y-50333D01*
X67822Y-50822D01*
X67398Y-51108D01*
X67398Y-51108D01*
G37*
G36*
X68019Y-50690D02*
X67689Y-50200D01*
X68112Y-49915D01*
X68442Y-50404D01*
X68019Y-50690D01*
X68019Y-50690D01*
G37*
G36*
X69960Y-49197D02*
X69543Y-48779D01*
X69904Y-48418D01*
X70321Y-48835D01*
X69960Y-49197D01*
X69960Y-49197D01*
G37*
G36*
X70489Y-48668D02*
X70072Y-48250D01*
X70433Y-47889D01*
X70850Y-48306D01*
X70489Y-48668D01*
X70489Y-48668D01*
G37*
G36*
X72060Y-46828D02*
X71570Y-46500D01*
X71854Y-46076D01*
X72344Y-46404D01*
X72060Y-46828D01*
X72060Y-46828D01*
G37*
G36*
X72476Y-46207D02*
X71986Y-45879D01*
X72270Y-45454D01*
X72760Y-45782D01*
X72476Y-46207D01*
X72476Y-46207D01*
G37*
G36*
X73632Y-44119D02*
X73088Y-43892D01*
X73284Y-43421D01*
X73829Y-43647D01*
X73632Y-44119D01*
X73632Y-44119D01*
G37*
G36*
X73920Y-43429D02*
X73375Y-43202D01*
X73571Y-42730D01*
X74116Y-42957D01*
X73920Y-43429D01*
X73920Y-43429D01*
G37*
G36*
X74654Y-41167D02*
X74075Y-41051D01*
X74175Y-40550D01*
X74754Y-40666D01*
X74654Y-41167D01*
X74654Y-41167D01*
G37*
G36*
X74800Y-40433D02*
X74222Y-40318D01*
X74322Y-39817D01*
X74900Y-39932D01*
X74800Y-40433D01*
X74800Y-40433D01*
G37*
G54D11*
X74803Y-37775D03*
X74803Y-37027D03*
G54D10*
G36*
X74919Y-34890D02*
X74340Y-35005D01*
X74241Y-34504D01*
X74820Y-34389D01*
X74919Y-34890D01*
X74919Y-34890D01*
G37*
G36*
X74774Y-34157D02*
X74195Y-34271D01*
X74096Y-33770D01*
X74674Y-33655D01*
X74774Y-34157D01*
X74774Y-34157D01*
G37*
G36*
X74116Y-31845D02*
X73571Y-32072D01*
X73375Y-31600D01*
X73920Y-31373D01*
X74116Y-31845D01*
X74116Y-31845D01*
G37*
G36*
X73829Y-31155D02*
X73284Y-31381D01*
X73088Y-30910D01*
X73632Y-30683D01*
X73829Y-31155D01*
X73829Y-31155D01*
G37*
G36*
X72740Y-29000D02*
X72250Y-29328D01*
X71966Y-28904D01*
X72456Y-28576D01*
X72740Y-29000D01*
X72740Y-29000D01*
G37*
G36*
X72324Y-28379D02*
X71834Y-28707D01*
X71550Y-28282D01*
X72040Y-27954D01*
X72324Y-28379D01*
X72324Y-28379D01*
G37*
G36*
X70850Y-26496D02*
X70433Y-26913D01*
X70072Y-26552D01*
X70489Y-26135D01*
X70850Y-26496D01*
X70850Y-26496D01*
G37*
G36*
X70321Y-25967D02*
X69904Y-26384D01*
X69543Y-26023D01*
X69960Y-25606D01*
X70321Y-25967D01*
X70321Y-25967D01*
G37*
G36*
X68521Y-24435D02*
X68193Y-24926D01*
X67769Y-24641D01*
X68097Y-24151D01*
X68521Y-24435D01*
X68521Y-24435D01*
G37*
G36*
X67900Y-24019D02*
X67572Y-24509D01*
X67147Y-24225D01*
X67475Y-23735D01*
X67900Y-24019D01*
X67900Y-24019D01*
G37*
G36*
X65773Y-22803D02*
X65547Y-23348D01*
X65075Y-23152D01*
X65301Y-22607D01*
X65773Y-22803D01*
X65773Y-22803D01*
G37*
G36*
X65082Y-22516D02*
X64856Y-23061D01*
X64384Y-22866D01*
X64610Y-22321D01*
X65082Y-22516D01*
X65082Y-22516D01*
G37*
G36*
X62801Y-21802D02*
X62685Y-22381D01*
X62184Y-22281D01*
X62299Y-21702D01*
X62801Y-21802D01*
X62801Y-21802D01*
G37*
G36*
X62067Y-21656D02*
X61951Y-22234D01*
X61450Y-22134D01*
X61566Y-21555D01*
X62067Y-21656D01*
X62067Y-21656D01*
G37*
G54D12*
X59429Y-21653D03*
X58681Y-21653D03*
G54D10*
G36*
X56282Y-20290D02*
X56977Y-20151D01*
X57085Y-20692D01*
X56390Y-20830D01*
X56282Y-20290D01*
X56282Y-20290D01*
G37*
G36*
X56027Y-19016D02*
X56722Y-18877D01*
X56830Y-19418D01*
X56135Y-19556D01*
X56027Y-19016D01*
X56027Y-19016D01*
G37*
G36*
X54174Y-19386D02*
X54869Y-19247D01*
X54977Y-19788D01*
X54282Y-19927D01*
X54174Y-19386D01*
X54174Y-19386D01*
G37*
G36*
X54429Y-20660D02*
X55124Y-20521D01*
X55232Y-21062D01*
X54537Y-21201D01*
X54429Y-20660D01*
X54429Y-20660D01*
G37*
G36*
X52972Y-21143D02*
X53626Y-20871D01*
X53837Y-21381D01*
X53183Y-21652D01*
X52972Y-21143D01*
X52972Y-21143D01*
G37*
G36*
X52475Y-19942D02*
X53129Y-19671D01*
X53340Y-20180D01*
X52685Y-20452D01*
X52475Y-19942D01*
X52475Y-19942D01*
G37*
G36*
X50729Y-20666D02*
X51383Y-20394D01*
X51594Y-20904D01*
X50940Y-21175D01*
X50729Y-20666D01*
X50729Y-20666D01*
G37*
G36*
X51226Y-21866D02*
X51880Y-21595D01*
X52091Y-22104D01*
X51437Y-22375D01*
X51226Y-21866D01*
X51226Y-21866D01*
G37*
G36*
X49911Y-22659D02*
X50500Y-22265D01*
X50806Y-22723D01*
X50218Y-23117D01*
X49911Y-22659D01*
X49911Y-22659D01*
G37*
G36*
X49188Y-21579D02*
X49777Y-21185D01*
X50084Y-21643D01*
X49495Y-22037D01*
X49188Y-21579D01*
X49188Y-21579D01*
G37*
G36*
X47618Y-22631D02*
X48207Y-22236D01*
X48513Y-22694D01*
X47924Y-23089D01*
X47618Y-22631D01*
X47618Y-22631D01*
G37*
G36*
X48341Y-23710D02*
X48929Y-23316D01*
X49236Y-23774D01*
X48647Y-24168D01*
X48341Y-23710D01*
X48341Y-23710D01*
G37*
G36*
X47197Y-24728D02*
X47698Y-24227D01*
X48088Y-24617D01*
X47587Y-25118D01*
X47197Y-24728D01*
X47197Y-24728D01*
G37*
G36*
X46279Y-23810D02*
X46780Y-23308D01*
X47169Y-23698D01*
X46668Y-24199D01*
X46279Y-23810D01*
X46279Y-23810D01*
G37*
G36*
X44942Y-25146D02*
X45443Y-24645D01*
X45833Y-25035D01*
X45332Y-25536D01*
X44942Y-25146D01*
X44942Y-25146D01*
G37*
G36*
X45861Y-26065D02*
X46362Y-25563D01*
X46752Y-25953D01*
X46251Y-26454D01*
X45861Y-26065D01*
X45861Y-26065D01*
G37*
G36*
X44949Y-27294D02*
X45343Y-26705D01*
X45801Y-27011D01*
X45408Y-27600D01*
X44949Y-27294D01*
X44949Y-27294D01*
G37*
G36*
X43868Y-26574D02*
X44262Y-25984D01*
X44720Y-26290D01*
X44327Y-26879D01*
X43868Y-26574D01*
X43868Y-26574D01*
G37*
G36*
X42820Y-28146D02*
X43213Y-27556D01*
X43672Y-27862D01*
X43278Y-28452D01*
X42820Y-28146D01*
X42820Y-28146D01*
G37*
G36*
X43901Y-28867D02*
X44294Y-28277D01*
X44753Y-28583D01*
X44359Y-29172D01*
X43901Y-28867D01*
X43901Y-28867D01*
G37*
G36*
X43248Y-30227D02*
X43519Y-29572D01*
X44029Y-29783D01*
X43757Y-30438D01*
X43248Y-30227D01*
X43248Y-30227D01*
G37*
G36*
X42048Y-29730D02*
X42319Y-29075D01*
X42828Y-29286D01*
X42557Y-29941D01*
X42048Y-29730D01*
X42048Y-29730D01*
G37*
G36*
X41325Y-31476D02*
X41596Y-30821D01*
X42105Y-31032D01*
X41834Y-31687D01*
X41325Y-31476D01*
X41325Y-31476D01*
G37*
G36*
X42525Y-31973D02*
X42796Y-31318D01*
X43305Y-31529D01*
X43034Y-32184D01*
X42525Y-31973D01*
X42525Y-31973D01*
G37*
G36*
X42154Y-33450D02*
X42292Y-32754D01*
X42833Y-32861D01*
X42695Y-33557D01*
X42154Y-33450D01*
X42154Y-33450D01*
G37*
G36*
X40880Y-33197D02*
X41018Y-32502D01*
X41558Y-32609D01*
X41421Y-33304D01*
X40880Y-33197D01*
X40880Y-33197D01*
G37*
G36*
X40513Y-35051D02*
X40650Y-34356D01*
X41191Y-34463D01*
X41053Y-35158D01*
X40513Y-35051D01*
X40513Y-35051D01*
G37*
G36*
X41787Y-35303D02*
X41925Y-34608D01*
X42466Y-34715D01*
X42328Y-35410D01*
X41787Y-35303D01*
X41787Y-35303D01*
G37*
G54D13*
X41988Y-36456D03*
X40688Y-36456D03*
X40688Y-38346D03*
X41988Y-38346D03*
G54D10*
G36*
X41924Y-40194D02*
X41785Y-39499D01*
X42325Y-39391D01*
X42464Y-40086D01*
X41924Y-40194D01*
X41924Y-40194D01*
G37*
G36*
X40650Y-40448D02*
X40511Y-39753D01*
X41051Y-39645D01*
X41190Y-40340D01*
X40650Y-40448D01*
X40650Y-40448D01*
G37*
G36*
X41020Y-42301D02*
X40881Y-41606D01*
X41422Y-41498D01*
X41561Y-42193D01*
X41020Y-42301D01*
X41020Y-42301D01*
G37*
G36*
X42294Y-42047D02*
X42155Y-41352D01*
X42696Y-41244D01*
X42835Y-41939D01*
X42294Y-42047D01*
X42294Y-42047D01*
G37*
G36*
X42816Y-43523D02*
X42545Y-42869D01*
X43054Y-42658D01*
X43325Y-43312D01*
X42816Y-43523D01*
X42816Y-43523D01*
G37*
G36*
X41616Y-44021D02*
X41344Y-43366D01*
X41854Y-43155D01*
X42125Y-43810D01*
X41616Y-44021D01*
X41616Y-44021D01*
G37*
G36*
X42339Y-45766D02*
X42068Y-45112D01*
X42577Y-44901D01*
X42848Y-45556D01*
X42339Y-45766D01*
X42339Y-45766D01*
G37*
G36*
X43539Y-45269D02*
X43268Y-44615D01*
X43777Y-44404D01*
X44048Y-45058D01*
X43539Y-45269D01*
X43539Y-45269D01*
G37*
G36*
X44293Y-46525D02*
X43899Y-45936D01*
X44357Y-45630D01*
X44751Y-46218D01*
X44293Y-46525D01*
X44293Y-46525D01*
G37*
G36*
X43213Y-47248D02*
X42819Y-46659D01*
X43277Y-46352D01*
X43671Y-46941D01*
X43213Y-47248D01*
X43213Y-47248D01*
G37*
G36*
X44264Y-48818D02*
X43870Y-48229D01*
X44328Y-47923D01*
X44722Y-48512D01*
X44264Y-48818D01*
X44264Y-48818D01*
G37*
G36*
X45344Y-48095D02*
X44950Y-47507D01*
X45408Y-47200D01*
X45802Y-47789D01*
X45344Y-48095D01*
X45344Y-48095D01*
G37*
G36*
X46382Y-49258D02*
X45881Y-48757D01*
X46270Y-48368D01*
X46772Y-48869D01*
X46382Y-49258D01*
X46382Y-49258D01*
G37*
G36*
X45463Y-50177D02*
X44962Y-49676D01*
X45352Y-49286D01*
X45853Y-49787D01*
X45463Y-50177D01*
X45463Y-50177D01*
G37*
G36*
X46799Y-51513D02*
X46298Y-51012D01*
X46688Y-50622D01*
X47189Y-51124D01*
X46799Y-51513D01*
X46799Y-51513D01*
G37*
G36*
X47718Y-50595D02*
X47217Y-50094D01*
X47607Y-49704D01*
X48108Y-50205D01*
X47718Y-50595D01*
X47718Y-50595D01*
G37*
G36*
X48909Y-51487D02*
X48319Y-51093D01*
X48625Y-50635D01*
X49214Y-51028D01*
X48909Y-51487D01*
X48909Y-51487D01*
G37*
G36*
X48188Y-52568D02*
X47598Y-52174D01*
X47904Y-51716D01*
X48494Y-52109D01*
X48188Y-52568D01*
X48188Y-52568D01*
G37*
G36*
X49760Y-53616D02*
X49170Y-53223D01*
X49476Y-52764D01*
X50066Y-53158D01*
X49760Y-53616D01*
X49760Y-53616D01*
G37*
G36*
X50481Y-52535D02*
X49891Y-52142D01*
X50197Y-51683D01*
X50787Y-52077D01*
X50481Y-52535D01*
X50481Y-52535D01*
G37*
G36*
X51880Y-53207D02*
X51226Y-52936D01*
X51437Y-52427D01*
X52091Y-52698D01*
X51880Y-53207D01*
X51880Y-53207D01*
G37*
G36*
X51383Y-54408D02*
X50729Y-54137D01*
X50940Y-53627D01*
X51594Y-53899D01*
X51383Y-54408D01*
X51383Y-54408D01*
G37*
G36*
X53129Y-55131D02*
X52475Y-54860D01*
X52685Y-54351D01*
X53340Y-54622D01*
X53129Y-55131D01*
X53129Y-55131D01*
G37*
G36*
X53626Y-53931D02*
X52972Y-53659D01*
X53183Y-53150D01*
X53837Y-53421D01*
X53626Y-53931D01*
X53626Y-53931D01*
G37*
G36*
X55064Y-54301D02*
X54369Y-54164D01*
X54476Y-53623D01*
X55171Y-53761D01*
X55064Y-54301D01*
X55064Y-54301D01*
G37*
G36*
X54811Y-55576D02*
X54116Y-55438D01*
X54223Y-54898D01*
X54918Y-55035D01*
X54811Y-55576D01*
X54811Y-55576D01*
G37*
G36*
X56665Y-55943D02*
X55970Y-55805D01*
X56077Y-55265D01*
X56772Y-55402D01*
X56665Y-55943D01*
X56665Y-55943D01*
G37*
G36*
X56917Y-54668D02*
X56222Y-54531D01*
X56329Y-53990D01*
X57025Y-54128D01*
X56917Y-54668D01*
X56917Y-54668D01*
G37*
G54D14*
X58110Y-54468D03*
X58110Y-55767D03*
X60000Y-55767D03*
X60000Y-54468D03*
G54D10*
G36*
X61826Y-54516D02*
X61132Y-54658D01*
X61021Y-54118D01*
X61715Y-53976D01*
X61826Y-54516D01*
X61826Y-54516D01*
G37*
G36*
X62087Y-55788D02*
X61393Y-55931D01*
X61282Y-55391D01*
X61977Y-55248D01*
X62087Y-55788D01*
X62087Y-55788D01*
G37*
G36*
X63939Y-55408D02*
X63244Y-55551D01*
X63134Y-55011D01*
X63828Y-54868D01*
X63939Y-55408D01*
X63939Y-55408D01*
G37*
G36*
X63677Y-54136D02*
X62983Y-54278D01*
X62872Y-53738D01*
X63566Y-53596D01*
X63677Y-54136D01*
X63677Y-54136D01*
G37*
G36*
X65137Y-53663D02*
X64484Y-53938D01*
X64270Y-53430D01*
X64923Y-53155D01*
X65137Y-53663D01*
X65137Y-53663D01*
G37*
G36*
X65640Y-54861D02*
X64987Y-55135D01*
X64774Y-54627D01*
X65427Y-54353D01*
X65640Y-54861D01*
X65640Y-54861D01*
G37*
G36*
X67382Y-54128D02*
X66729Y-54403D01*
X66516Y-53895D01*
X67169Y-53620D01*
X67382Y-54128D01*
X67382Y-54128D01*
G37*
G36*
X66879Y-52931D02*
X66226Y-53205D01*
X66012Y-52697D01*
X66665Y-52423D01*
X66879Y-52931D01*
X66879Y-52931D01*
G37*
G36*
X68159Y-52185D02*
X67572Y-52581D01*
X67263Y-52124D01*
X67851Y-51728D01*
X68159Y-52185D01*
X68159Y-52185D01*
G37*
G36*
X68886Y-53262D02*
X68298Y-53658D01*
X67990Y-53201D01*
X68577Y-52805D01*
X68886Y-53262D01*
X68886Y-53262D01*
G37*
G36*
X70452Y-52205D02*
X69865Y-52602D01*
X69557Y-52145D01*
X70144Y-51748D01*
X70452Y-52205D01*
X70452Y-52205D01*
G37*
G36*
X69726Y-51128D02*
X69138Y-51525D01*
X68830Y-51068D01*
X69418Y-50671D01*
X69726Y-51128D01*
X69726Y-51128D01*
G37*
G36*
X70893Y-50075D02*
X70392Y-50577D01*
X70002Y-50188D01*
X70502Y-49686D01*
X70893Y-50075D01*
X70893Y-50075D01*
G37*
G36*
X71813Y-50992D02*
X71313Y-51494D01*
X70922Y-51105D01*
X71422Y-50603D01*
X71813Y-50992D01*
X71813Y-50992D01*
G37*
G36*
X73147Y-49654D02*
X72647Y-50156D01*
X72256Y-49766D01*
X72756Y-49264D01*
X73147Y-49654D01*
X73147Y-49654D01*
G37*
G36*
X72226Y-48736D02*
X71726Y-49238D01*
X71336Y-48849D01*
X71836Y-48347D01*
X72226Y-48736D01*
X72226Y-48736D01*
G37*
G36*
X73140Y-47527D02*
X72747Y-48117D01*
X72288Y-47811D01*
X72682Y-47222D01*
X73140Y-47527D01*
X73140Y-47527D01*
G37*
G36*
X74221Y-48248D02*
X73828Y-48838D01*
X73369Y-48532D01*
X73763Y-47942D01*
X74221Y-48248D01*
X74221Y-48248D01*
G37*
G36*
X75270Y-46676D02*
X74876Y-47266D01*
X74418Y-46960D01*
X74811Y-46370D01*
X75270Y-46676D01*
X75270Y-46676D01*
G37*
G36*
X74189Y-45955D02*
X73796Y-46545D01*
X73337Y-46239D01*
X73730Y-45649D01*
X74189Y-45955D01*
X74189Y-45955D01*
G37*
G36*
X74860Y-44574D02*
X74588Y-45228D01*
X74079Y-45017D01*
X74351Y-44362D01*
X74860Y-44574D01*
X74860Y-44574D01*
G37*
G36*
X76060Y-45073D02*
X75787Y-45728D01*
X75279Y-45516D01*
X75551Y-44862D01*
X76060Y-45073D01*
X76060Y-45073D01*
G37*
G36*
X76786Y-43329D02*
X76514Y-43983D01*
X76005Y-43771D01*
X76277Y-43117D01*
X76786Y-43329D01*
X76786Y-43329D01*
G37*
G36*
X75587Y-42830D02*
X75314Y-43484D01*
X74805Y-43272D01*
X75078Y-42618D01*
X75587Y-42830D01*
X75587Y-42830D01*
G37*
G36*
X75934Y-41411D02*
X75795Y-42106D01*
X75255Y-41998D01*
X75394Y-41303D01*
X75934Y-41411D01*
X75934Y-41411D01*
G37*
G36*
X77208Y-41665D02*
X77070Y-42360D01*
X76529Y-42252D01*
X76668Y-41557D01*
X77208Y-41665D01*
X77208Y-41665D01*
G37*
G36*
X77579Y-39812D02*
X77440Y-40507D01*
X76899Y-40399D01*
X77038Y-39704D01*
X77579Y-39812D01*
X77579Y-39812D01*
G37*
G36*
X76305Y-39558D02*
X76166Y-40253D01*
X75625Y-40145D01*
X75764Y-39450D01*
X76305Y-39558D01*
X76305Y-39558D01*
G37*
G54D13*
X76122Y-38346D03*
X77421Y-38346D03*
X77421Y-36456D03*
X76122Y-36456D03*
G54D10*
G36*
X76165Y-34588D02*
X76302Y-35284D01*
X75762Y-35391D01*
X75624Y-34696D01*
X76165Y-34588D01*
X76165Y-34588D01*
G37*
G36*
X77439Y-34336D02*
X77577Y-35031D01*
X77036Y-35138D01*
X76898Y-34443D01*
X77439Y-34336D01*
X77439Y-34336D01*
G37*
G36*
X77072Y-32482D02*
X77210Y-33177D01*
X76669Y-33285D01*
X76531Y-32589D01*
X77072Y-32482D01*
X77072Y-32482D01*
G37*
G36*
X75798Y-32735D02*
X75935Y-33430D01*
X75395Y-33537D01*
X75257Y-32842D01*
X75798Y-32735D01*
X75798Y-32735D01*
G37*
G36*
X75314Y-31318D02*
X75587Y-31973D01*
X75078Y-32184D01*
X74805Y-31530D01*
X75314Y-31318D01*
X75314Y-31318D01*
G37*
G36*
X76514Y-30819D02*
X76786Y-31473D01*
X76277Y-31685D01*
X76005Y-31031D01*
X76514Y-30819D01*
X76514Y-30819D01*
G37*
G36*
X75787Y-29074D02*
X76060Y-29729D01*
X75551Y-29940D01*
X75279Y-29286D01*
X75787Y-29074D01*
X75787Y-29074D01*
G37*
G36*
X74588Y-29574D02*
X74860Y-30228D01*
X74351Y-30440D01*
X74079Y-29786D01*
X74588Y-29574D01*
X74588Y-29574D01*
G37*
G36*
X73797Y-28257D02*
X74191Y-28846D01*
X73733Y-29153D01*
X73339Y-28564D01*
X73797Y-28257D01*
X73797Y-28257D01*
G37*
G36*
X74876Y-27535D02*
X75271Y-28123D01*
X74813Y-28430D01*
X74418Y-27841D01*
X74876Y-27535D01*
X74876Y-27535D01*
G37*
G36*
X73825Y-25964D02*
X74219Y-26553D01*
X73761Y-26860D01*
X73367Y-26271D01*
X73825Y-25964D01*
X73825Y-25964D01*
G37*
G36*
X72745Y-26687D02*
X73140Y-27276D01*
X72682Y-27582D01*
X72287Y-26994D01*
X72745Y-26687D01*
X72745Y-26687D01*
G37*
G36*
X71727Y-25563D02*
X72229Y-26065D01*
X71839Y-26454D01*
X71338Y-25953D01*
X71727Y-25563D01*
X71727Y-25563D01*
G37*
G36*
X72646Y-24645D02*
X73147Y-25146D01*
X72757Y-25536D01*
X72256Y-25035D01*
X72646Y-24645D01*
X72646Y-24645D01*
G37*
G36*
X71310Y-23308D02*
X71811Y-23810D01*
X71421Y-24199D01*
X70920Y-23698D01*
X71310Y-23308D01*
X71310Y-23308D01*
G37*
G36*
X70391Y-24227D02*
X70892Y-24728D01*
X70503Y-25118D01*
X70001Y-24617D01*
X70391Y-24227D01*
X70391Y-24227D01*
G37*
G36*
X69180Y-23316D02*
X69769Y-23710D01*
X69462Y-24168D01*
X68873Y-23774D01*
X69180Y-23316D01*
X69180Y-23316D01*
G37*
G36*
X69903Y-22236D02*
X70491Y-22631D01*
X70185Y-23089D01*
X69596Y-22694D01*
X69903Y-22236D01*
X69903Y-22236D01*
G37*
G36*
X68332Y-21185D02*
X68921Y-21579D01*
X68614Y-22037D01*
X68026Y-21643D01*
X68332Y-21185D01*
X68332Y-21185D01*
G37*
G36*
X67609Y-22265D02*
X68198Y-22659D01*
X67892Y-23117D01*
X67303Y-22723D01*
X67609Y-22265D01*
X67609Y-22265D01*
G37*
G36*
X66229Y-21595D02*
X66883Y-21866D01*
X66673Y-22375D01*
X66018Y-22104D01*
X66229Y-21595D01*
X66229Y-21595D01*
G37*
G36*
X66726Y-20394D02*
X67381Y-20666D01*
X67170Y-21175D01*
X66515Y-20904D01*
X66726Y-20394D01*
X66726Y-20394D01*
G37*
G36*
X64980Y-19671D02*
X65635Y-19942D01*
X65424Y-20452D01*
X64769Y-20180D01*
X64980Y-19671D01*
X64980Y-19671D01*
G37*
G36*
X64483Y-20871D02*
X65138Y-21143D01*
X64927Y-21652D01*
X64272Y-21381D01*
X64483Y-20871D01*
X64483Y-20871D01*
G37*
G36*
X63025Y-20521D02*
X63720Y-20660D01*
X63612Y-21201D01*
X62917Y-21062D01*
X63025Y-20521D01*
X63025Y-20521D01*
G37*
G36*
X63280Y-19247D02*
X63975Y-19386D01*
X63866Y-19927D01*
X63172Y-19788D01*
X63280Y-19247D01*
X63280Y-19247D01*
G37*
G36*
X61426Y-18877D02*
X62121Y-19016D01*
X62013Y-19556D01*
X61318Y-19418D01*
X61426Y-18877D01*
X61426Y-18877D01*
G37*
G36*
X61172Y-20151D02*
X61867Y-20290D01*
X61759Y-20830D01*
X61064Y-20692D01*
X61172Y-20151D01*
X61172Y-20151D01*
G37*
G54D14*
X60000Y-20334D03*
X60000Y-19035D03*
X58110Y-19035D03*
X58110Y-20334D03*
M02*
