M48
METRIC,TZ
T1C0.305
T2C0.356
T3C0.500
T4C0.800
T5C1.016
T6C1.200
%
G90
G05
T1
X102600Y-099650
X102700Y-090500
X104400Y-081100
X104600Y-108800
X105000Y-097500
X105400Y-088500
X106300Y-106100
X107500Y-080100
X108000Y-072500
X108100Y-117500
X109400Y-114500
X110000Y-097650
X110050Y-092350
X110200Y-089850
X110250Y-100200
X111100Y-072100
X111250Y-084650
X111300Y-105400
X112000Y-107900
X112050Y-082150
X113100Y-125100
X113200Y-064900
X113900Y-122000
X114050Y-077250
X114100Y-112800
X115250Y-114950
X115300Y-075050
X116500Y-064900
X118200Y-070600
X118200Y-119400
X119800Y-121450
X119800Y-131800
X119850Y-068600
X119900Y-058000
X119900Y-128600
X123000Y-059000
X123550Y-064800
X123600Y-125200
X125500Y-063350
X125550Y-126700
X127100Y-133800
X127400Y-053000
X127600Y-136800
X129850Y-060300
X129950Y-129750
X130500Y-054400
X132200Y-130950
X132250Y-059100
X135100Y-137600
X135500Y-063400
X136200Y-049400
X136200Y-140500
X137150Y-056950
X137150Y-133000
X138900Y-051400
X139550Y-056250
X139550Y-133700
X140040Y-062396
X142658Y-093052
X143080Y-088780
X143600Y-139800
X144750Y-134700
X144800Y-055150
X145300Y-047500
X145300Y-142200
X146180Y-055800
X146270Y-094820
X147251Y-091089
X147300Y-055000
X147350Y-135000
X147530Y-092840
X147600Y-049970
X147800Y-059530
X148697Y-094160
X148806Y-088927
X149930Y-090260
X152500Y-140200
X152639Y-095521
X152650Y-055000
X152650Y-135000
X153010Y-089810
X154010Y-089120
X154071Y-093957
X154600Y-047700
X154700Y-142400
X154980Y-093500
X155160Y-095570
X155200Y-055300
X155200Y-134750
X156300Y-050500
X156450Y-095259
X160400Y-056300
X160400Y-133650
X161100Y-138700
X161330Y-093530
X162329Y-091177
X162800Y-056950
X162850Y-133000
X163800Y-049600
X163800Y-140600
X164060Y-093270
X164300Y-052500
X167750Y-059050
X167750Y-130850
X169500Y-135800
X169850Y-129800
X170100Y-060250
X172300Y-053200
X172400Y-137100
X172600Y-056100
X174250Y-126700
X174500Y-063250
X176400Y-064850
X176450Y-125200
X177000Y-131200
X179900Y-061700
X180100Y-058400
X180100Y-131800
X180150Y-121350
X180200Y-068550
X181750Y-070550
X181850Y-119400
X183600Y-125000
X184700Y-074950
X184750Y-115000
X185900Y-077250
X185950Y-112750
X186000Y-068200
X186700Y-125000
X186800Y-064900
X187950Y-107850
X188000Y-082150
X188650Y-105450
X188700Y-117900
X188750Y-084600
X189700Y-100250
X189800Y-089800
X190000Y-092350
X190000Y-097650
X190500Y-075700
X191900Y-117400
X192000Y-072600
X192500Y-109900
X193500Y-083900
X194500Y-101500
X194900Y-092700
X195400Y-081300
X195600Y-108900
X197200Y-090400
X197300Y-099700
T2
X150885Y-090180
X150885Y-092720
X152155Y-090180
X152155Y-092720
T3
X130288Y-098105
X130440Y-098890
X130593Y-099675
X135422Y-096260
X135794Y-096969
X136166Y-097677
X164074Y-097612
X164448Y-096905
X164822Y-096198
X169456Y-099477
X169602Y-098690
X169747Y-097904
T4
X137023Y-092545
X138137Y-094827
X139863Y-092573
X140977Y-094855
X159790Y-093714
X160904Y-091431
X161516Y-095969
X162630Y-093686
T5
X143780Y-096640
X146320Y-096640
X148860Y-096640
X151400Y-096640
X153940Y-096640
X156480Y-096640
T6
X146210Y-130130
X148750Y-130130
X151290Y-130130
X153830Y-130130
T0
M30
