%FSLAX34Y34*%
G04 Gerber Fmt 3.4, Leading zero omitted, Abs format*
G04 (created by PCBNEW (2014-06-29 BZR 4957)-product) date Fri 25 Jul 2014 07:16:23 PM CEST*
%MOIN*%
G01*
G70*
G90*
G04 APERTURE LIST*
%ADD10C,0.003937*%
%ADD11C,0.007874*%
%ADD12C,0.100000*%
G04 APERTURE END LIST*
G54D10*
G54D11*
X57640Y-60804D02*
X57640Y-61067D01*
X57546Y-60654D02*
X57453Y-60936D01*
X57696Y-60935D01*
X57921Y-60673D02*
X57959Y-60673D01*
X57996Y-60691D01*
X58015Y-60710D01*
X58034Y-60748D01*
X58052Y-60823D01*
X58053Y-60916D01*
X58034Y-60991D01*
X58015Y-61029D01*
X57996Y-61048D01*
X57959Y-61066D01*
X57921Y-61066D01*
X57884Y-61048D01*
X57865Y-61029D01*
X57846Y-60992D01*
X57828Y-60917D01*
X57827Y-60823D01*
X57846Y-60748D01*
X57865Y-60710D01*
X57884Y-60692D01*
X57921Y-60673D01*
X58221Y-61029D02*
X58240Y-61047D01*
X58221Y-61066D01*
X58203Y-61047D01*
X58221Y-61029D01*
X58221Y-61066D01*
X58596Y-60672D02*
X58408Y-60672D01*
X58390Y-60860D01*
X58409Y-60841D01*
X58446Y-60822D01*
X58540Y-60822D01*
X58577Y-60841D01*
X58596Y-60859D01*
X58615Y-60897D01*
X58615Y-60991D01*
X58596Y-61028D01*
X58578Y-61047D01*
X58540Y-61066D01*
X58446Y-61066D01*
X58409Y-61047D01*
X58390Y-61028D01*
X58858Y-60672D02*
X58896Y-60672D01*
X58933Y-60690D01*
X58952Y-60709D01*
X58971Y-60746D01*
X58990Y-60821D01*
X58990Y-60915D01*
X58971Y-60990D01*
X58953Y-61028D01*
X58934Y-61046D01*
X58896Y-61065D01*
X58859Y-61065D01*
X58821Y-61047D01*
X58803Y-61028D01*
X58784Y-60990D01*
X58765Y-60915D01*
X58765Y-60822D01*
X58783Y-60747D01*
X58802Y-60709D01*
X58821Y-60690D01*
X58858Y-60672D01*
X59233Y-60671D02*
X59271Y-60671D01*
X59308Y-60690D01*
X59327Y-60708D01*
X59346Y-60746D01*
X59365Y-60821D01*
X59365Y-60915D01*
X59346Y-60990D01*
X59328Y-61027D01*
X59309Y-61046D01*
X59271Y-61065D01*
X59234Y-61065D01*
X59196Y-61046D01*
X59178Y-61027D01*
X59159Y-60990D01*
X59140Y-60915D01*
X59140Y-60821D01*
X59158Y-60746D01*
X59177Y-60709D01*
X59196Y-60690D01*
X59233Y-60671D01*
X59834Y-61064D02*
X59833Y-60802D01*
X59833Y-60839D02*
X59852Y-60820D01*
X59890Y-60802D01*
X59946Y-60801D01*
X59983Y-60820D01*
X60002Y-60858D01*
X60002Y-61064D01*
X60002Y-60858D02*
X60021Y-60820D01*
X60058Y-60801D01*
X60115Y-60801D01*
X60152Y-60820D01*
X60171Y-60857D01*
X60171Y-61064D01*
X60359Y-61063D02*
X60358Y-60801D01*
X60358Y-60838D02*
X60377Y-60820D01*
X60415Y-60801D01*
X60471Y-60801D01*
X60508Y-60819D01*
X60527Y-60857D01*
X60527Y-61063D01*
X60527Y-60857D02*
X60546Y-60819D01*
X60583Y-60801D01*
X60640Y-60801D01*
X60677Y-60819D01*
X60696Y-60857D01*
X60696Y-61063D01*
X51111Y-60542D02*
X67056Y-60523D01*
X51082Y-37401D02*
X51112Y-61251D01*
X67027Y-37381D02*
X67057Y-61231D01*
X67056Y-60523D02*
X66612Y-60754D01*
X67056Y-60523D02*
X66612Y-60292D01*
X51111Y-60542D02*
X51555Y-60773D01*
X51111Y-60542D02*
X51554Y-60311D01*
X57630Y-61910D02*
X57442Y-61910D01*
X57424Y-62097D01*
X57442Y-62079D01*
X57480Y-62060D01*
X57574Y-62060D01*
X57611Y-62079D01*
X57630Y-62097D01*
X57649Y-62135D01*
X57649Y-62229D01*
X57630Y-62266D01*
X57611Y-62285D01*
X57574Y-62304D01*
X57480Y-62304D01*
X57442Y-62285D01*
X57424Y-62266D01*
X57892Y-61910D02*
X57930Y-61910D01*
X57967Y-61929D01*
X57986Y-61947D01*
X58005Y-61985D01*
X58023Y-62060D01*
X58023Y-62154D01*
X58005Y-62229D01*
X57986Y-62266D01*
X57967Y-62285D01*
X57930Y-62304D01*
X57892Y-62304D01*
X57855Y-62285D01*
X57836Y-62266D01*
X57817Y-62229D01*
X57799Y-62154D01*
X57799Y-62060D01*
X57817Y-61985D01*
X57836Y-61947D01*
X57855Y-61929D01*
X57892Y-61910D01*
X58192Y-62266D02*
X58211Y-62285D01*
X58192Y-62304D01*
X58173Y-62285D01*
X58192Y-62266D01*
X58192Y-62304D01*
X58455Y-61910D02*
X58492Y-61910D01*
X58530Y-61929D01*
X58548Y-61947D01*
X58567Y-61985D01*
X58586Y-62060D01*
X58586Y-62154D01*
X58567Y-62229D01*
X58548Y-62266D01*
X58530Y-62285D01*
X58492Y-62304D01*
X58455Y-62304D01*
X58417Y-62285D01*
X58398Y-62266D01*
X58380Y-62229D01*
X58361Y-62154D01*
X58361Y-62060D01*
X58380Y-61985D01*
X58398Y-61947D01*
X58417Y-61929D01*
X58455Y-61910D01*
X58830Y-61910D02*
X58867Y-61910D01*
X58905Y-61929D01*
X58923Y-61947D01*
X58942Y-61985D01*
X58961Y-62060D01*
X58961Y-62154D01*
X58942Y-62229D01*
X58923Y-62266D01*
X58905Y-62285D01*
X58867Y-62304D01*
X58830Y-62304D01*
X58792Y-62285D01*
X58773Y-62266D01*
X58755Y-62229D01*
X58736Y-62154D01*
X58736Y-62060D01*
X58755Y-61985D01*
X58773Y-61947D01*
X58792Y-61929D01*
X58830Y-61910D01*
X59205Y-61910D02*
X59242Y-61910D01*
X59280Y-61929D01*
X59298Y-61947D01*
X59317Y-61985D01*
X59336Y-62060D01*
X59336Y-62154D01*
X59317Y-62229D01*
X59298Y-62266D01*
X59280Y-62285D01*
X59242Y-62304D01*
X59205Y-62304D01*
X59167Y-62285D01*
X59148Y-62266D01*
X59130Y-62229D01*
X59111Y-62154D01*
X59111Y-62060D01*
X59130Y-61985D01*
X59148Y-61947D01*
X59167Y-61929D01*
X59205Y-61910D01*
X59805Y-62304D02*
X59805Y-62041D01*
X59805Y-62079D02*
X59823Y-62060D01*
X59861Y-62041D01*
X59917Y-62041D01*
X59955Y-62060D01*
X59973Y-62097D01*
X59973Y-62304D01*
X59973Y-62097D02*
X59992Y-62060D01*
X60029Y-62041D01*
X60086Y-62041D01*
X60123Y-62060D01*
X60142Y-62097D01*
X60142Y-62304D01*
X60329Y-62304D02*
X60329Y-62041D01*
X60329Y-62079D02*
X60348Y-62060D01*
X60386Y-62041D01*
X60442Y-62041D01*
X60479Y-62060D01*
X60498Y-62097D01*
X60498Y-62304D01*
X60498Y-62097D02*
X60517Y-62060D01*
X60554Y-62041D01*
X60611Y-62041D01*
X60648Y-62060D01*
X60667Y-62097D01*
X60667Y-62304D01*
X49212Y-61771D02*
X68897Y-61771D01*
X49212Y-37401D02*
X49212Y-62480D01*
X68897Y-37401D02*
X68897Y-62480D01*
X68897Y-61771D02*
X68454Y-62002D01*
X68897Y-61771D02*
X68454Y-61540D01*
X49212Y-61771D02*
X49656Y-62002D01*
X49212Y-61771D02*
X49656Y-61540D01*
X57611Y-63130D02*
X57536Y-63130D01*
X57499Y-63149D01*
X57480Y-63168D01*
X57442Y-63224D01*
X57424Y-63299D01*
X57424Y-63449D01*
X57442Y-63487D01*
X57461Y-63505D01*
X57499Y-63524D01*
X57574Y-63524D01*
X57611Y-63505D01*
X57630Y-63487D01*
X57649Y-63449D01*
X57649Y-63355D01*
X57630Y-63318D01*
X57611Y-63299D01*
X57574Y-63280D01*
X57499Y-63280D01*
X57461Y-63299D01*
X57442Y-63318D01*
X57424Y-63355D01*
X58005Y-63130D02*
X57817Y-63130D01*
X57799Y-63318D01*
X57817Y-63299D01*
X57855Y-63280D01*
X57949Y-63280D01*
X57986Y-63299D01*
X58005Y-63318D01*
X58023Y-63355D01*
X58023Y-63449D01*
X58005Y-63487D01*
X57986Y-63505D01*
X57949Y-63524D01*
X57855Y-63524D01*
X57817Y-63505D01*
X57799Y-63487D01*
X58192Y-63487D02*
X58211Y-63505D01*
X58192Y-63524D01*
X58173Y-63505D01*
X58192Y-63487D01*
X58192Y-63524D01*
X58455Y-63130D02*
X58492Y-63130D01*
X58530Y-63149D01*
X58548Y-63168D01*
X58567Y-63205D01*
X58586Y-63280D01*
X58586Y-63374D01*
X58567Y-63449D01*
X58548Y-63487D01*
X58530Y-63505D01*
X58492Y-63524D01*
X58455Y-63524D01*
X58417Y-63505D01*
X58398Y-63487D01*
X58380Y-63449D01*
X58361Y-63374D01*
X58361Y-63280D01*
X58380Y-63205D01*
X58398Y-63168D01*
X58417Y-63149D01*
X58455Y-63130D01*
X58830Y-63130D02*
X58867Y-63130D01*
X58905Y-63149D01*
X58923Y-63168D01*
X58942Y-63205D01*
X58961Y-63280D01*
X58961Y-63374D01*
X58942Y-63449D01*
X58923Y-63487D01*
X58905Y-63505D01*
X58867Y-63524D01*
X58830Y-63524D01*
X58792Y-63505D01*
X58773Y-63487D01*
X58755Y-63449D01*
X58736Y-63374D01*
X58736Y-63280D01*
X58755Y-63205D01*
X58773Y-63168D01*
X58792Y-63149D01*
X58830Y-63130D01*
X59205Y-63130D02*
X59242Y-63130D01*
X59280Y-63149D01*
X59298Y-63168D01*
X59317Y-63205D01*
X59336Y-63280D01*
X59336Y-63374D01*
X59317Y-63449D01*
X59298Y-63487D01*
X59280Y-63505D01*
X59242Y-63524D01*
X59205Y-63524D01*
X59167Y-63505D01*
X59148Y-63487D01*
X59130Y-63449D01*
X59111Y-63374D01*
X59111Y-63280D01*
X59130Y-63205D01*
X59148Y-63168D01*
X59167Y-63149D01*
X59205Y-63130D01*
X59805Y-63524D02*
X59805Y-63262D01*
X59805Y-63299D02*
X59823Y-63280D01*
X59861Y-63262D01*
X59917Y-63262D01*
X59955Y-63280D01*
X59973Y-63318D01*
X59973Y-63524D01*
X59973Y-63318D02*
X59992Y-63280D01*
X60029Y-63262D01*
X60086Y-63262D01*
X60123Y-63280D01*
X60142Y-63318D01*
X60142Y-63524D01*
X60329Y-63524D02*
X60329Y-63262D01*
X60329Y-63299D02*
X60348Y-63280D01*
X60386Y-63262D01*
X60442Y-63262D01*
X60479Y-63280D01*
X60498Y-63318D01*
X60498Y-63524D01*
X60498Y-63318D02*
X60517Y-63280D01*
X60554Y-63262D01*
X60611Y-63262D01*
X60648Y-63280D01*
X60667Y-63318D01*
X60667Y-63524D01*
X46259Y-62992D02*
X71850Y-62992D01*
X46259Y-37401D02*
X46259Y-63700D01*
X71850Y-37401D02*
X71850Y-63700D01*
X71850Y-62992D02*
X71406Y-63223D01*
X71850Y-62992D02*
X71406Y-62761D01*
X46259Y-62992D02*
X46703Y-63223D01*
X46259Y-62992D02*
X46703Y-62761D01*
X57461Y-64666D02*
X57236Y-64666D01*
X57349Y-64666D02*
X57349Y-64272D01*
X57311Y-64328D01*
X57274Y-64366D01*
X57236Y-64385D01*
X57705Y-64272D02*
X57742Y-64272D01*
X57780Y-64291D01*
X57799Y-64310D01*
X57817Y-64347D01*
X57836Y-64422D01*
X57836Y-64516D01*
X57817Y-64591D01*
X57799Y-64628D01*
X57780Y-64647D01*
X57742Y-64666D01*
X57705Y-64666D01*
X57667Y-64647D01*
X57649Y-64628D01*
X57630Y-64591D01*
X57611Y-64516D01*
X57611Y-64422D01*
X57630Y-64347D01*
X57649Y-64310D01*
X57667Y-64291D01*
X57705Y-64272D01*
X58080Y-64272D02*
X58117Y-64272D01*
X58155Y-64291D01*
X58173Y-64310D01*
X58192Y-64347D01*
X58211Y-64422D01*
X58211Y-64516D01*
X58192Y-64591D01*
X58173Y-64628D01*
X58155Y-64647D01*
X58117Y-64666D01*
X58080Y-64666D01*
X58042Y-64647D01*
X58023Y-64628D01*
X58005Y-64591D01*
X57986Y-64516D01*
X57986Y-64422D01*
X58005Y-64347D01*
X58023Y-64310D01*
X58042Y-64291D01*
X58080Y-64272D01*
X58380Y-64628D02*
X58398Y-64647D01*
X58380Y-64666D01*
X58361Y-64647D01*
X58380Y-64628D01*
X58380Y-64666D01*
X58642Y-64272D02*
X58680Y-64272D01*
X58717Y-64291D01*
X58736Y-64310D01*
X58755Y-64347D01*
X58773Y-64422D01*
X58773Y-64516D01*
X58755Y-64591D01*
X58736Y-64628D01*
X58717Y-64647D01*
X58680Y-64666D01*
X58642Y-64666D01*
X58605Y-64647D01*
X58586Y-64628D01*
X58567Y-64591D01*
X58548Y-64516D01*
X58548Y-64422D01*
X58567Y-64347D01*
X58586Y-64310D01*
X58605Y-64291D01*
X58642Y-64272D01*
X59017Y-64272D02*
X59055Y-64272D01*
X59092Y-64291D01*
X59111Y-64310D01*
X59130Y-64347D01*
X59148Y-64422D01*
X59148Y-64516D01*
X59130Y-64591D01*
X59111Y-64628D01*
X59092Y-64647D01*
X59055Y-64666D01*
X59017Y-64666D01*
X58980Y-64647D01*
X58961Y-64628D01*
X58942Y-64591D01*
X58923Y-64516D01*
X58923Y-64422D01*
X58942Y-64347D01*
X58961Y-64310D01*
X58980Y-64291D01*
X59017Y-64272D01*
X59392Y-64272D02*
X59430Y-64272D01*
X59467Y-64291D01*
X59486Y-64310D01*
X59505Y-64347D01*
X59523Y-64422D01*
X59523Y-64516D01*
X59505Y-64591D01*
X59486Y-64628D01*
X59467Y-64647D01*
X59430Y-64666D01*
X59392Y-64666D01*
X59355Y-64647D01*
X59336Y-64628D01*
X59317Y-64591D01*
X59298Y-64516D01*
X59298Y-64422D01*
X59317Y-64347D01*
X59336Y-64310D01*
X59355Y-64291D01*
X59392Y-64272D01*
X59992Y-64666D02*
X59992Y-64403D01*
X59992Y-64441D02*
X60011Y-64422D01*
X60048Y-64403D01*
X60104Y-64403D01*
X60142Y-64422D01*
X60161Y-64460D01*
X60161Y-64666D01*
X60161Y-64460D02*
X60179Y-64422D01*
X60217Y-64403D01*
X60273Y-64403D01*
X60311Y-64422D01*
X60329Y-64460D01*
X60329Y-64666D01*
X60517Y-64666D02*
X60517Y-64403D01*
X60517Y-64441D02*
X60536Y-64422D01*
X60573Y-64403D01*
X60629Y-64403D01*
X60667Y-64422D01*
X60686Y-64460D01*
X60686Y-64666D01*
X60686Y-64460D02*
X60704Y-64422D01*
X60742Y-64403D01*
X60798Y-64403D01*
X60836Y-64422D01*
X60854Y-64460D01*
X60854Y-64666D01*
X39370Y-64133D02*
X78740Y-64133D01*
X39370Y-37401D02*
X39370Y-64842D01*
X78740Y-37401D02*
X78740Y-64842D01*
X78740Y-64133D02*
X78296Y-64364D01*
X78740Y-64133D02*
X78296Y-63902D01*
X39370Y-64133D02*
X39813Y-64364D01*
X39370Y-64133D02*
X39813Y-63902D01*
X67027Y-37401D02*
G75*
G03X67027Y-37401I-7972J0D01*
G74*
G01*
G54D12*
X51954Y-39750D02*
X51954Y-39750D01*
X51604Y-37949D02*
X51604Y-37949D01*
X52652Y-37565D02*
X52652Y-37565D01*
X53505Y-39190D02*
X53505Y-39190D01*
X66513Y-37873D02*
X66513Y-37873D01*
X66179Y-39677D02*
X66179Y-39677D01*
X64696Y-39165D02*
X64696Y-39165D01*
X65555Y-37543D02*
X65555Y-37543D01*
M02*
