%FSLAX34Y34*%
G04 Gerber Fmt 3.4, Leading zero omitted, Abs format*
G04 (created by PCBNEW (2014-06-29 BZR 4957)-product) date Mon 28 Jul 2014 03:06:46 PM CEST*
%MOIN*%
G01*
G70*
G90*
G04 APERTURE LIST*
%ADD10C,0.003937*%
%ADD11C,0.007874*%
%ADD12C,0.009843*%
%ADD13C,0.007382*%
%ADD14C,0.008000*%
%ADD15R,0.055118X0.039370*%
%ADD16R,0.039370X0.039370*%
%ADD17R,0.015748X0.039370*%
%ADD18C,0.078740*%
%ADD19R,0.098400X0.129900*%
%ADD20R,0.043307X0.039370*%
%ADD21C,0.055118*%
%ADD22R,0.070866X0.070866*%
%ADD23R,0.055118X0.149606*%
%ADD24R,0.010000X0.030000*%
%ADD25R,0.030000X0.010000*%
%ADD26R,0.078740X0.049213*%
%ADD27R,0.064961X0.064961*%
%ADD28C,0.064961*%
%ADD29R,0.059000X0.051100*%
%ADD30R,0.051100X0.059000*%
%ADD31R,0.078740X0.023622*%
%ADD32R,0.055118X0.070866*%
%ADD33R,0.019685X0.039370*%
%ADD34R,0.070866X0.055118*%
%ADD35R,0.039370X0.019685*%
%ADD36R,0.043300X0.039300*%
%ADD37R,0.039300X0.043300*%
G04 APERTURE END LIST*
G54D10*
G54D11*
X63200Y-35548D02*
X63425Y-35548D01*
X63313Y-35548D02*
X63313Y-35154D01*
X63350Y-35210D01*
X63388Y-35248D01*
X63425Y-35266D01*
X63069Y-35154D02*
X62826Y-35154D01*
X62957Y-35304D01*
X62901Y-35304D01*
X62863Y-35323D01*
X62844Y-35341D01*
X62826Y-35379D01*
X62826Y-35473D01*
X62844Y-35510D01*
X62863Y-35529D01*
X62901Y-35548D01*
X63013Y-35548D01*
X63050Y-35529D01*
X63069Y-35510D01*
X56542Y-51248D02*
X56842Y-51248D01*
X61306Y-51248D02*
X61606Y-51248D01*
X58606Y-37271D02*
X58468Y-37133D01*
X58606Y-37468D02*
X58606Y-37271D01*
X58606Y-37468D02*
X58708Y-37385D01*
X58606Y-37468D02*
X58503Y-37385D01*
X58468Y-37133D02*
X58287Y-37133D01*
X57920Y-36918D02*
X58108Y-36918D01*
X58126Y-37105D01*
X58108Y-37086D01*
X58070Y-37068D01*
X57976Y-37068D01*
X57939Y-37086D01*
X57920Y-37105D01*
X57901Y-37143D01*
X57901Y-37236D01*
X57920Y-37274D01*
X57939Y-37293D01*
X57976Y-37311D01*
X58070Y-37311D01*
X58108Y-37293D01*
X58126Y-37274D01*
X57789Y-36918D02*
X57658Y-37311D01*
X57526Y-36918D01*
X57395Y-37274D02*
X57377Y-37293D01*
X57395Y-37311D01*
X57414Y-37293D01*
X57395Y-37274D01*
X57395Y-37311D01*
X57395Y-37161D02*
X57414Y-36937D01*
X57395Y-36918D01*
X57377Y-36937D01*
X57395Y-37161D01*
X57395Y-36918D01*
X59737Y-52115D02*
X59925Y-52115D01*
X59944Y-52302D01*
X59925Y-52283D01*
X59887Y-52265D01*
X59794Y-52265D01*
X59756Y-52283D01*
X59737Y-52302D01*
X59719Y-52340D01*
X59719Y-52433D01*
X59737Y-52471D01*
X59756Y-52490D01*
X59794Y-52508D01*
X59887Y-52508D01*
X59925Y-52490D01*
X59944Y-52471D01*
X59606Y-52115D02*
X59475Y-52508D01*
X59344Y-52115D01*
X59212Y-52358D02*
X58913Y-52358D01*
X58556Y-52246D02*
X58556Y-52508D01*
X58650Y-52096D02*
X58744Y-52377D01*
X58500Y-52377D01*
X58369Y-52396D02*
X58181Y-52396D01*
X58406Y-52508D02*
X58275Y-52115D01*
X58144Y-52508D01*
G54D12*
X62646Y-39080D02*
X62853Y-38655D01*
X62563Y-38889D01*
X62570Y-38517D01*
X62363Y-38941D01*
X55706Y-38704D02*
X55564Y-38773D01*
X55612Y-39025D02*
X55814Y-38927D01*
X55607Y-38502D01*
X55405Y-38601D01*
G54D13*
X56839Y-37017D02*
X56867Y-37003D01*
X56909Y-37003D01*
X56951Y-37017D01*
X56979Y-37045D01*
X56993Y-37073D01*
X57007Y-37130D01*
X57007Y-37172D01*
X56993Y-37228D01*
X56979Y-37256D01*
X56951Y-37284D01*
X56909Y-37298D01*
X56881Y-37298D01*
X56839Y-37284D01*
X56825Y-37270D01*
X56825Y-37172D01*
X56881Y-37172D01*
X56698Y-37298D02*
X56698Y-37003D01*
X56529Y-37298D01*
X56529Y-37003D01*
X56389Y-37298D02*
X56389Y-37003D01*
X56318Y-37003D01*
X56276Y-37017D01*
X56248Y-37045D01*
X56234Y-37073D01*
X56220Y-37130D01*
X56220Y-37172D01*
X56234Y-37228D01*
X56248Y-37256D01*
X56276Y-37284D01*
X56318Y-37298D01*
X56389Y-37298D01*
G54D11*
X59921Y-28192D02*
X59864Y-28211D01*
X59846Y-28229D01*
X59827Y-28267D01*
X59827Y-28323D01*
X59846Y-28361D01*
X59864Y-28379D01*
X59902Y-28398D01*
X60052Y-28398D01*
X60052Y-28004D01*
X59921Y-28004D01*
X59883Y-28023D01*
X59864Y-28042D01*
X59846Y-28079D01*
X59846Y-28117D01*
X59864Y-28154D01*
X59883Y-28173D01*
X59921Y-28192D01*
X60052Y-28192D01*
X59583Y-28004D02*
X59508Y-28004D01*
X59471Y-28023D01*
X59433Y-28061D01*
X59414Y-28136D01*
X59414Y-28267D01*
X59433Y-28342D01*
X59471Y-28379D01*
X59508Y-28398D01*
X59583Y-28398D01*
X59621Y-28379D01*
X59658Y-28342D01*
X59677Y-28267D01*
X59677Y-28136D01*
X59658Y-28061D01*
X59621Y-28023D01*
X59583Y-28004D01*
X59302Y-28004D02*
X59077Y-28004D01*
X59189Y-28398D02*
X59189Y-28004D01*
X59002Y-28004D02*
X58777Y-28004D01*
X58889Y-28398D02*
X58889Y-28004D01*
X58571Y-28004D02*
X58496Y-28004D01*
X58458Y-28023D01*
X58421Y-28061D01*
X58402Y-28136D01*
X58402Y-28267D01*
X58421Y-28342D01*
X58458Y-28379D01*
X58496Y-28398D01*
X58571Y-28398D01*
X58608Y-28379D01*
X58646Y-28342D01*
X58664Y-28267D01*
X58664Y-28136D01*
X58646Y-28061D01*
X58608Y-28023D01*
X58571Y-28004D01*
X58233Y-28398D02*
X58233Y-28004D01*
X58102Y-28286D01*
X57971Y-28004D01*
X57971Y-28398D01*
X58996Y-24527D02*
X57263Y-24527D01*
X57263Y-24527D02*
X57263Y-26023D01*
X57263Y-26023D02*
X58996Y-26023D01*
X58996Y-26023D02*
X58996Y-24527D01*
X58409Y-25365D02*
X58409Y-25185D01*
X58409Y-25185D02*
X58638Y-25185D01*
X58638Y-25365D02*
X58638Y-25185D01*
X58409Y-25365D02*
X58638Y-25365D01*
X57620Y-24995D02*
X57620Y-24815D01*
X57620Y-24815D02*
X57849Y-24815D01*
X57849Y-24995D02*
X57849Y-24815D01*
X57620Y-24995D02*
X57849Y-24995D01*
X57620Y-25735D02*
X57620Y-25555D01*
X57620Y-25555D02*
X57849Y-25555D01*
X57849Y-25735D02*
X57849Y-25555D01*
X57620Y-25735D02*
X57849Y-25735D01*
X58011Y-25471D02*
X58011Y-25079D01*
X58011Y-25079D02*
X58247Y-25079D01*
X58247Y-25471D02*
X58247Y-25079D01*
X58011Y-25471D02*
X58247Y-25471D01*
X58388Y-24716D02*
X57870Y-24716D01*
X57870Y-24716D02*
X57870Y-25834D01*
X57870Y-25834D02*
X58388Y-25834D01*
X58388Y-25834D02*
X58388Y-24716D01*
X59114Y-26023D02*
X60846Y-26023D01*
X60846Y-26023D02*
X60846Y-24527D01*
X60846Y-24527D02*
X59114Y-24527D01*
X59114Y-24527D02*
X59114Y-26023D01*
X59700Y-25185D02*
X59700Y-25365D01*
X59700Y-25365D02*
X59471Y-25365D01*
X59471Y-25185D02*
X59471Y-25365D01*
X59700Y-25185D02*
X59471Y-25185D01*
X60489Y-25555D02*
X60489Y-25735D01*
X60489Y-25735D02*
X60260Y-25735D01*
X60260Y-25555D02*
X60260Y-25735D01*
X60489Y-25555D02*
X60260Y-25555D01*
X60489Y-24815D02*
X60489Y-24995D01*
X60489Y-24995D02*
X60260Y-24995D01*
X60260Y-24815D02*
X60260Y-24995D01*
X60489Y-24815D02*
X60260Y-24815D01*
X60098Y-25079D02*
X60098Y-25471D01*
X60098Y-25471D02*
X59862Y-25471D01*
X59862Y-25079D02*
X59862Y-25471D01*
X60098Y-25079D02*
X59862Y-25079D01*
X59721Y-25834D02*
X60239Y-25834D01*
X60239Y-25834D02*
X60239Y-24716D01*
X60239Y-24716D02*
X59721Y-24716D01*
X59721Y-24716D02*
X59721Y-25834D01*
X57062Y-50732D02*
X58562Y-50732D01*
X57062Y-51732D02*
X58562Y-51732D01*
X59562Y-50732D02*
X61062Y-50732D01*
X59562Y-51732D02*
X61062Y-51732D01*
X61062Y-51732D02*
X61062Y-50732D01*
X57062Y-50732D02*
X57062Y-51732D01*
X58062Y-51732D02*
X58062Y-50732D01*
X57062Y-51732D02*
X57062Y-51732D01*
X57062Y-51732D02*
X57062Y-51732D01*
X60066Y-50732D02*
X60066Y-51732D01*
X59267Y-48779D02*
X59149Y-48779D01*
X59149Y-48779D02*
X59149Y-48858D01*
X59267Y-49409D02*
X59385Y-49409D01*
X59385Y-49409D02*
X59385Y-49330D01*
X59267Y-49094D02*
X59622Y-49094D01*
X58814Y-49094D02*
X58421Y-49094D01*
X60256Y-47755D02*
X60256Y-48228D01*
X60256Y-50433D02*
X60256Y-49960D01*
X60472Y-47755D02*
X60472Y-48228D01*
X60472Y-50433D02*
X60472Y-49960D01*
X57638Y-47755D02*
X57638Y-48248D01*
X57638Y-50433D02*
X57638Y-49940D01*
X59267Y-49409D02*
X59267Y-48779D01*
X58814Y-48799D02*
X58814Y-49409D01*
X59267Y-49094D02*
X58814Y-48799D01*
X59267Y-49094D02*
X58814Y-49409D01*
X57638Y-47755D02*
X60472Y-47755D01*
X57638Y-50433D02*
X60472Y-50433D01*
X61925Y-35311D02*
X62570Y-35311D01*
X62570Y-36618D02*
X62570Y-35311D01*
X61925Y-36618D02*
X62570Y-36618D01*
X61925Y-35311D02*
X61925Y-36618D01*
G54D10*
X62425Y-35826D02*
X62425Y-36101D01*
X62070Y-36101D02*
X62070Y-35826D01*
X62129Y-36298D02*
X62070Y-36298D01*
X62070Y-36298D02*
X62070Y-36101D01*
X62070Y-36101D02*
X62425Y-36101D01*
X62425Y-36101D02*
X62425Y-36298D01*
X62425Y-36298D02*
X62366Y-36298D01*
X62425Y-35629D02*
X62356Y-35629D01*
X62070Y-35629D02*
X62139Y-35629D01*
X62425Y-35629D02*
X62425Y-35826D01*
X62425Y-35826D02*
X62070Y-35826D01*
X62070Y-35826D02*
X62070Y-35629D01*
X62198Y-35954D02*
X62296Y-35954D01*
X62296Y-35954D02*
X62296Y-36052D01*
X62198Y-36052D02*
X62296Y-36052D01*
X62198Y-35954D02*
X62198Y-36052D01*
X62129Y-36297D02*
G75*
G02X62365Y-36297I118J0D01*
G74*
G01*
X62355Y-35630D02*
G75*
G02X62139Y-35630I-108J0D01*
G74*
G01*
G54D11*
X56257Y-26571D02*
X55779Y-26804D01*
X55779Y-26804D02*
X55649Y-26538D01*
X54894Y-27235D02*
X54417Y-27468D01*
X54765Y-26970D02*
X54894Y-27235D01*
X53533Y-25118D02*
X54499Y-27099D01*
X54499Y-27099D02*
X55915Y-26409D01*
X55915Y-26409D02*
X54948Y-24427D01*
X54948Y-24427D02*
X53533Y-25118D01*
X54417Y-27468D02*
X53191Y-24956D01*
X53191Y-24956D02*
X55031Y-24058D01*
X55031Y-24058D02*
X56257Y-26571D01*
X63775Y-27468D02*
X63298Y-27235D01*
X63298Y-27235D02*
X63427Y-26970D01*
X62413Y-26804D02*
X61935Y-26571D01*
X62542Y-26538D02*
X62413Y-26804D01*
X63244Y-24427D02*
X62277Y-26409D01*
X62277Y-26409D02*
X63692Y-27099D01*
X63692Y-27099D02*
X64659Y-25118D01*
X64659Y-25118D02*
X63244Y-24427D01*
X61935Y-26571D02*
X63161Y-24058D01*
X63161Y-24058D02*
X65001Y-24956D01*
X65001Y-24956D02*
X63775Y-27468D01*
X56338Y-49763D02*
X55157Y-49763D01*
X55944Y-49409D02*
X55551Y-49409D01*
X55944Y-48779D02*
X55551Y-48779D01*
X56338Y-48425D02*
X55157Y-48425D01*
X57086Y-48188D02*
X54409Y-48188D01*
X54409Y-48188D02*
X54409Y-50000D01*
X54409Y-50000D02*
X57086Y-50000D01*
X57086Y-50000D02*
X57086Y-48188D01*
X61771Y-48425D02*
X62952Y-48425D01*
X62165Y-48779D02*
X62559Y-48779D01*
X62165Y-49409D02*
X62559Y-49409D01*
X61771Y-49763D02*
X62952Y-49763D01*
X61023Y-50000D02*
X63700Y-50000D01*
X63700Y-50000D02*
X63700Y-48188D01*
X63700Y-48188D02*
X61023Y-48188D01*
X61023Y-48188D02*
X61023Y-50000D01*
X58828Y-37200D02*
X60478Y-37200D01*
X60478Y-37200D02*
X60853Y-37200D01*
X60853Y-37200D02*
X60853Y-34800D01*
X60853Y-34800D02*
X58453Y-34800D01*
X58453Y-34800D02*
X58453Y-36825D01*
X58453Y-36825D02*
X58828Y-37200D01*
X56106Y-37547D02*
X56106Y-38547D01*
X56106Y-38547D02*
X62106Y-38547D01*
X62106Y-38547D02*
X62106Y-37547D01*
X62106Y-37547D02*
X56106Y-37547D01*
X57106Y-37547D02*
X57106Y-38547D01*
X55127Y-21658D02*
X56671Y-21350D01*
X55127Y-21658D02*
X55296Y-22508D01*
X55296Y-22508D02*
X56841Y-22199D01*
X56841Y-22199D02*
X56671Y-21350D01*
X52138Y-22735D02*
X53593Y-22133D01*
X52138Y-22735D02*
X52469Y-23536D01*
X52469Y-23536D02*
X53924Y-22933D01*
X53924Y-22933D02*
X53593Y-22133D01*
X49380Y-24408D02*
X50688Y-23532D01*
X49380Y-24408D02*
X49862Y-25128D01*
X49862Y-25128D02*
X51170Y-24252D01*
X51170Y-24252D02*
X50688Y-23532D01*
X47050Y-26510D02*
X48163Y-25396D01*
X47050Y-26510D02*
X47662Y-27122D01*
X47662Y-27122D02*
X48776Y-26009D01*
X48776Y-26009D02*
X48163Y-25396D01*
X45167Y-29076D02*
X46041Y-27766D01*
X45167Y-29076D02*
X45887Y-29556D01*
X45887Y-29556D02*
X46761Y-28246D01*
X46761Y-28246D02*
X46041Y-27766D01*
X43806Y-31939D02*
X44409Y-30484D01*
X43806Y-31939D02*
X44606Y-32271D01*
X44606Y-32271D02*
X45209Y-30816D01*
X45209Y-30816D02*
X44409Y-30484D01*
X43024Y-35038D02*
X43330Y-33493D01*
X43024Y-35038D02*
X43874Y-35206D01*
X43874Y-35206D02*
X44180Y-33662D01*
X44180Y-33662D02*
X43330Y-33493D01*
X42874Y-38188D02*
X42874Y-36614D01*
X42874Y-38188D02*
X43740Y-38188D01*
X43740Y-38188D02*
X43740Y-36614D01*
X43740Y-36614D02*
X42874Y-36614D01*
X43331Y-41329D02*
X43023Y-39785D01*
X43331Y-41329D02*
X44181Y-41159D01*
X44181Y-41159D02*
X43872Y-39615D01*
X43872Y-39615D02*
X43023Y-39785D01*
X44409Y-44338D02*
X43806Y-42883D01*
X44409Y-44338D02*
X45209Y-44006D01*
X45209Y-44006D02*
X44606Y-42551D01*
X44606Y-42551D02*
X43806Y-42883D01*
X46023Y-47036D02*
X45146Y-45728D01*
X46023Y-47036D02*
X46742Y-46555D01*
X46742Y-46555D02*
X45866Y-45246D01*
X45866Y-45246D02*
X45146Y-45728D01*
X48163Y-49406D02*
X47050Y-48292D01*
X48163Y-49406D02*
X48776Y-48793D01*
X48776Y-48793D02*
X47662Y-47680D01*
X47662Y-47680D02*
X47050Y-48292D01*
X50710Y-51289D02*
X49399Y-50415D01*
X50710Y-51289D02*
X51190Y-50568D01*
X51190Y-50568D02*
X49880Y-49694D01*
X49880Y-49694D02*
X49399Y-50415D01*
X53593Y-52650D02*
X52138Y-52047D01*
X53593Y-52650D02*
X53924Y-51850D01*
X53924Y-51850D02*
X52469Y-51247D01*
X52469Y-51247D02*
X52138Y-52047D01*
X56652Y-53412D02*
X55108Y-53106D01*
X56652Y-53412D02*
X56821Y-52562D01*
X56821Y-52562D02*
X55276Y-52256D01*
X55276Y-52256D02*
X55108Y-53106D01*
X62981Y-53111D02*
X61434Y-53408D01*
X62981Y-53111D02*
X62817Y-52260D01*
X62817Y-52260D02*
X61270Y-52558D01*
X61270Y-52558D02*
X61434Y-53408D01*
X59842Y-53582D02*
X58267Y-53582D01*
X59842Y-53582D02*
X59842Y-52716D01*
X59842Y-52716D02*
X58267Y-52716D01*
X58267Y-52716D02*
X58267Y-53582D01*
X65972Y-52023D02*
X64520Y-52633D01*
X65972Y-52023D02*
X65636Y-51224D01*
X65636Y-51224D02*
X64185Y-51835D01*
X64185Y-51835D02*
X64520Y-52633D01*
X68650Y-50430D02*
X67345Y-51311D01*
X68650Y-50430D02*
X68166Y-49712D01*
X68166Y-49712D02*
X66860Y-50593D01*
X66860Y-50593D02*
X67345Y-51311D01*
X71059Y-48292D02*
X69946Y-49406D01*
X71059Y-48292D02*
X70447Y-47680D01*
X70447Y-47680D02*
X69333Y-48793D01*
X69333Y-48793D02*
X69946Y-49406D01*
X72963Y-45728D02*
X72087Y-47036D01*
X72963Y-45728D02*
X72243Y-45246D01*
X72243Y-45246D02*
X71367Y-46555D01*
X71367Y-46555D02*
X72087Y-47036D01*
X74303Y-42863D02*
X73701Y-44318D01*
X74303Y-42863D02*
X73503Y-42532D01*
X73503Y-42532D02*
X72900Y-43986D01*
X72900Y-43986D02*
X73701Y-44318D01*
X75067Y-39804D02*
X74758Y-41349D01*
X75067Y-39804D02*
X74217Y-39635D01*
X74217Y-39635D02*
X73909Y-41179D01*
X73909Y-41179D02*
X74758Y-41349D01*
X75236Y-36614D02*
X75236Y-38188D01*
X75236Y-36614D02*
X74370Y-36614D01*
X74370Y-36614D02*
X74370Y-38188D01*
X74370Y-38188D02*
X75236Y-38188D01*
X74779Y-33474D02*
X75085Y-35018D01*
X74779Y-33474D02*
X73930Y-33642D01*
X73930Y-33642D02*
X74235Y-35187D01*
X74235Y-35187D02*
X75085Y-35018D01*
X73701Y-30484D02*
X74303Y-31939D01*
X73701Y-30484D02*
X72900Y-30816D01*
X72900Y-30816D02*
X73503Y-32271D01*
X73503Y-32271D02*
X74303Y-31939D01*
X72067Y-27746D02*
X72943Y-29055D01*
X72067Y-27746D02*
X71347Y-28228D01*
X71347Y-28228D02*
X72223Y-29536D01*
X72223Y-29536D02*
X72943Y-29055D01*
X69946Y-25396D02*
X71059Y-26510D01*
X69946Y-25396D02*
X69333Y-26009D01*
X69333Y-26009D02*
X70447Y-27122D01*
X70447Y-27122D02*
X71059Y-26510D01*
X67414Y-23536D02*
X68730Y-24401D01*
X67414Y-23536D02*
X66938Y-24260D01*
X66938Y-24260D02*
X68254Y-25124D01*
X68254Y-25124D02*
X68730Y-24401D01*
X64517Y-22133D02*
X65971Y-22735D01*
X64517Y-22133D02*
X64185Y-22933D01*
X64185Y-22933D02*
X65640Y-23536D01*
X65640Y-23536D02*
X65971Y-22735D01*
X61438Y-21389D02*
X62982Y-21698D01*
X61438Y-21389D02*
X61268Y-22238D01*
X61268Y-22238D02*
X62813Y-22547D01*
X62813Y-22547D02*
X62982Y-21698D01*
X58267Y-21220D02*
X59842Y-21220D01*
X58267Y-21220D02*
X58267Y-22086D01*
X58267Y-22086D02*
X59842Y-22086D01*
X59842Y-22086D02*
X59842Y-21220D01*
X61059Y-36807D02*
X61059Y-35232D01*
X61059Y-36807D02*
X61925Y-36807D01*
X61925Y-36807D02*
X61925Y-35232D01*
X61925Y-35232D02*
X61059Y-35232D01*
X57027Y-34854D02*
X57027Y-36114D01*
X57539Y-36114D02*
X57539Y-34854D01*
X57539Y-34854D02*
X57027Y-34854D01*
X57539Y-36114D02*
X57027Y-36114D01*
X55051Y-38075D02*
X54309Y-36554D01*
X54309Y-36554D02*
X53389Y-37002D01*
X53389Y-37002D02*
X54131Y-38524D01*
X54131Y-38524D02*
X55051Y-38075D01*
X54674Y-37887D02*
X54226Y-36967D01*
X54226Y-36967D02*
X53766Y-37191D01*
X53766Y-37191D02*
X54214Y-38111D01*
X54214Y-38111D02*
X54674Y-37887D01*
X53808Y-36426D02*
X53636Y-36072D01*
X53636Y-36072D02*
X53423Y-36175D01*
X53423Y-36175D02*
X53596Y-36529D01*
X54844Y-38549D02*
X55016Y-38903D01*
X55016Y-38903D02*
X54804Y-39006D01*
X54804Y-39006D02*
X54632Y-38652D01*
X54357Y-36158D02*
X53048Y-36797D01*
X53048Y-36797D02*
X54083Y-38920D01*
X54083Y-38920D02*
X55392Y-38281D01*
X55392Y-38281D02*
X54357Y-36158D01*
X64104Y-38524D02*
X64846Y-37002D01*
X64846Y-37002D02*
X63926Y-36554D01*
X63926Y-36554D02*
X63184Y-38075D01*
X63184Y-38075D02*
X64104Y-38524D01*
X64021Y-38111D02*
X64470Y-37191D01*
X64470Y-37191D02*
X64010Y-36967D01*
X64010Y-36967D02*
X63561Y-37887D01*
X63561Y-37887D02*
X64021Y-38111D01*
X64639Y-36529D02*
X64812Y-36175D01*
X64812Y-36175D02*
X64599Y-36072D01*
X64599Y-36072D02*
X64427Y-36426D01*
X63604Y-38652D02*
X63431Y-39006D01*
X63431Y-39006D02*
X63219Y-38903D01*
X63219Y-38903D02*
X63391Y-38549D01*
X65188Y-36797D02*
X63878Y-36158D01*
X63878Y-36158D02*
X62843Y-38281D01*
X62843Y-38281D02*
X64152Y-38920D01*
X64152Y-38920D02*
X65188Y-36797D01*
X59429Y-26574D02*
X59212Y-26574D01*
X58937Y-26574D02*
X58681Y-26574D01*
X58996Y-26574D02*
X59212Y-26358D01*
X59212Y-26358D02*
X59212Y-26791D01*
X59212Y-26791D02*
X58996Y-26574D01*
X58937Y-26358D02*
X58937Y-26791D01*
X58484Y-26338D02*
X58307Y-26338D01*
X58307Y-26338D02*
X58307Y-26811D01*
X58307Y-26811D02*
X58484Y-26811D01*
X59625Y-26338D02*
X59803Y-26338D01*
X59803Y-26338D02*
X59803Y-26811D01*
X59803Y-26811D02*
X59625Y-26811D01*
X59625Y-26200D02*
X58484Y-26200D01*
X58484Y-26200D02*
X58484Y-26948D01*
X58484Y-26948D02*
X59625Y-26948D01*
X59625Y-26948D02*
X59625Y-26200D01*
X56093Y-20348D02*
X55938Y-19576D01*
X55938Y-19576D02*
X55166Y-19730D01*
X55166Y-19730D02*
X55282Y-20309D01*
X55282Y-20309D02*
X55514Y-20464D01*
X55514Y-20464D02*
X56093Y-20348D01*
G54D14*
X56208Y-20927D02*
X55436Y-21081D01*
X54703Y-20425D02*
X54626Y-20039D01*
X55823Y-18997D02*
X55050Y-19151D01*
X56633Y-20039D02*
X56556Y-19653D01*
G54D11*
X52797Y-21236D02*
X52496Y-20509D01*
X52496Y-20509D02*
X51769Y-20810D01*
X51769Y-20810D02*
X51995Y-21356D01*
X51995Y-21356D02*
X52252Y-21462D01*
X52252Y-21462D02*
X52797Y-21236D01*
G54D14*
X53023Y-21782D02*
X52296Y-22083D01*
X51449Y-21582D02*
X51298Y-21218D01*
X52270Y-19963D02*
X51543Y-20264D01*
X53268Y-20828D02*
X53117Y-20465D01*
G54D11*
X49758Y-22785D02*
X49320Y-22130D01*
X49320Y-22130D02*
X48666Y-22569D01*
X48666Y-22569D02*
X48994Y-23059D01*
X48994Y-23059D02*
X49268Y-23113D01*
X49268Y-23113D02*
X49758Y-22785D01*
G54D14*
X50087Y-23276D02*
X49432Y-23714D01*
X48504Y-23388D02*
X48285Y-23061D01*
X48992Y-21640D02*
X48337Y-22078D01*
X50140Y-22293D02*
X49920Y-21966D01*
G54D11*
X47072Y-24881D02*
X46515Y-24325D01*
X46515Y-24325D02*
X45958Y-24881D01*
X45958Y-24881D02*
X46376Y-25299D01*
X46376Y-25299D02*
X46654Y-25299D01*
X46654Y-25299D02*
X47072Y-24881D01*
G54D14*
X47490Y-25299D02*
X46933Y-25856D01*
X45958Y-25717D02*
X45680Y-25438D01*
X46098Y-23907D02*
X45541Y-24464D01*
X47350Y-24325D02*
X47072Y-24046D01*
G54D11*
X44857Y-27469D02*
X44201Y-27032D01*
X44201Y-27032D02*
X43765Y-27687D01*
X43765Y-27687D02*
X44256Y-28015D01*
X44256Y-28015D02*
X44529Y-27960D01*
X44529Y-27960D02*
X44857Y-27469D01*
G54D14*
X45348Y-27797D02*
X44911Y-28452D01*
X43928Y-28506D02*
X43601Y-28288D01*
X43710Y-26705D02*
X43273Y-27360D01*
X45020Y-26869D02*
X44693Y-26650D01*
G54D11*
X43191Y-30416D02*
X42464Y-30115D01*
X42464Y-30115D02*
X42162Y-30842D01*
X42162Y-30842D02*
X42708Y-31068D01*
X42708Y-31068D02*
X42965Y-30962D01*
X42965Y-30962D02*
X43191Y-30416D01*
G54D14*
X43737Y-30642D02*
X43435Y-31370D01*
X42482Y-31614D02*
X42118Y-31463D01*
X41918Y-29889D02*
X41617Y-30616D01*
X43235Y-29795D02*
X42871Y-29645D01*
G54D11*
X42135Y-33646D02*
X41363Y-33494D01*
X41363Y-33494D02*
X41210Y-34266D01*
X41210Y-34266D02*
X41789Y-34381D01*
X41789Y-34381D02*
X42021Y-34226D01*
X42021Y-34226D02*
X42135Y-33646D01*
G54D14*
X42715Y-33761D02*
X42562Y-34534D01*
X41675Y-34960D02*
X41288Y-34883D01*
X40784Y-33379D02*
X40631Y-34151D01*
X42057Y-33029D02*
X41671Y-32952D01*
G54D11*
X41732Y-37007D02*
X40944Y-37007D01*
X40944Y-37007D02*
X40944Y-37795D01*
X40944Y-37795D02*
X41535Y-37795D01*
X41535Y-37795D02*
X41732Y-37598D01*
X41732Y-37598D02*
X41732Y-37007D01*
G54D14*
X42322Y-37007D02*
X42322Y-37795D01*
X41535Y-38385D02*
X41141Y-38385D01*
X40354Y-37007D02*
X40354Y-37795D01*
X41535Y-36417D02*
X41141Y-36417D01*
G54D11*
X41982Y-40383D02*
X41210Y-40537D01*
X41210Y-40537D02*
X41364Y-41309D01*
X41364Y-41309D02*
X41943Y-41193D01*
X41943Y-41193D02*
X42097Y-40962D01*
X42097Y-40962D02*
X41982Y-40383D01*
G54D14*
X42561Y-40267D02*
X42715Y-41039D01*
X42059Y-41773D02*
X41673Y-41850D01*
X40630Y-40653D02*
X40785Y-41425D01*
X41673Y-39842D02*
X41287Y-39919D01*
G54D11*
X42909Y-43698D02*
X42182Y-43999D01*
X42182Y-43999D02*
X42483Y-44726D01*
X42483Y-44726D02*
X43029Y-44500D01*
X43029Y-44500D02*
X43135Y-44243D01*
X43135Y-44243D02*
X42909Y-43698D01*
G54D14*
X43455Y-43472D02*
X43756Y-44199D01*
X43255Y-45046D02*
X42891Y-45197D01*
X41636Y-44225D02*
X41938Y-44952D01*
X42502Y-43227D02*
X42138Y-43378D01*
G54D11*
X44419Y-46678D02*
X43764Y-47116D01*
X43764Y-47116D02*
X44202Y-47770D01*
X44202Y-47770D02*
X44693Y-47442D01*
X44693Y-47442D02*
X44747Y-47168D01*
X44747Y-47168D02*
X44419Y-46678D01*
G54D14*
X44909Y-46349D02*
X45347Y-47004D01*
X45022Y-47932D02*
X44694Y-48151D01*
X43274Y-47444D02*
X43712Y-48099D01*
X43927Y-46297D02*
X43599Y-46516D01*
G54D11*
X46535Y-49384D02*
X45978Y-49940D01*
X45978Y-49940D02*
X46535Y-50497D01*
X46535Y-50497D02*
X46953Y-50080D01*
X46953Y-50080D02*
X46953Y-49801D01*
X46953Y-49801D02*
X46535Y-49384D01*
G54D14*
X46953Y-48966D02*
X47509Y-49523D01*
X47370Y-50497D02*
X47092Y-50776D01*
X45561Y-50358D02*
X46117Y-50915D01*
X45978Y-49105D02*
X45700Y-49384D01*
G54D11*
X49083Y-51580D02*
X48646Y-52235D01*
X48646Y-52235D02*
X49302Y-52671D01*
X49302Y-52671D02*
X49629Y-52180D01*
X49629Y-52180D02*
X49575Y-51907D01*
X49575Y-51907D02*
X49083Y-51580D01*
G54D14*
X49411Y-51088D02*
X50066Y-51525D01*
X50120Y-52508D02*
X49902Y-52835D01*
X48319Y-52726D02*
X48974Y-53163D01*
X48483Y-51416D02*
X48264Y-51743D01*
G54D11*
X52070Y-53265D02*
X51769Y-53992D01*
X51769Y-53992D02*
X52496Y-54293D01*
X52496Y-54293D02*
X52722Y-53748D01*
X52722Y-53748D02*
X52615Y-53491D01*
X52615Y-53491D02*
X52070Y-53265D01*
G54D14*
X52296Y-52719D02*
X53023Y-53020D01*
X53268Y-53974D02*
X53117Y-54338D01*
X51543Y-54538D02*
X52270Y-54839D01*
X51449Y-53221D02*
X51298Y-53584D01*
G54D11*
X55261Y-54320D02*
X55108Y-55093D01*
X55108Y-55093D02*
X55880Y-55246D01*
X55880Y-55246D02*
X55995Y-54666D01*
X55995Y-54666D02*
X55840Y-54435D01*
X55840Y-54435D02*
X55261Y-54320D01*
G54D14*
X55375Y-53741D02*
X56148Y-53894D01*
X56574Y-54781D02*
X56498Y-55167D01*
X54993Y-55672D02*
X55765Y-55825D01*
X54643Y-54399D02*
X54567Y-54785D01*
G54D11*
X58661Y-54724D02*
X58661Y-55511D01*
X58661Y-55511D02*
X59448Y-55511D01*
X59448Y-55511D02*
X59448Y-54921D01*
X59448Y-54921D02*
X59251Y-54724D01*
X59251Y-54724D02*
X58661Y-54724D01*
G54D14*
X58661Y-54133D02*
X59448Y-54133D01*
X60039Y-54921D02*
X60039Y-55314D01*
X58661Y-56102D02*
X59448Y-56102D01*
X58070Y-54921D02*
X58070Y-55314D01*
G54D11*
X62015Y-54457D02*
X62173Y-55228D01*
X62173Y-55228D02*
X62945Y-55070D01*
X62945Y-55070D02*
X62826Y-54491D01*
X62826Y-54491D02*
X62593Y-54338D01*
X62593Y-54338D02*
X62015Y-54457D01*
G54D14*
X61896Y-53878D02*
X62668Y-53720D01*
X63404Y-54373D02*
X63484Y-54758D01*
X62292Y-55807D02*
X63063Y-55648D01*
X61476Y-54768D02*
X61555Y-55154D01*
G54D11*
X65311Y-53569D02*
X65616Y-54295D01*
X65616Y-54295D02*
X66342Y-53989D01*
X66342Y-53989D02*
X66113Y-53445D01*
X66113Y-53445D02*
X65855Y-53340D01*
X65855Y-53340D02*
X65311Y-53569D01*
G54D14*
X65082Y-53024D02*
X65808Y-52719D01*
X66657Y-53216D02*
X66810Y-53579D01*
X65845Y-54839D02*
X66571Y-54534D01*
X64843Y-53979D02*
X64995Y-54342D01*
G54D11*
X68311Y-52059D02*
X68752Y-52711D01*
X68752Y-52711D02*
X69404Y-52271D01*
X69404Y-52271D02*
X69074Y-51782D01*
X69074Y-51782D02*
X68801Y-51728D01*
X68801Y-51728D02*
X68311Y-52059D01*
G54D14*
X67981Y-51569D02*
X68634Y-51129D01*
X69564Y-51451D02*
X69784Y-51778D01*
X69082Y-53201D02*
X69735Y-52761D01*
X67932Y-52552D02*
X68152Y-52878D01*
G54D11*
X71018Y-49922D02*
X71575Y-50478D01*
X71575Y-50478D02*
X72131Y-49920D01*
X72131Y-49920D02*
X71713Y-49503D01*
X71713Y-49503D02*
X71434Y-49503D01*
X71434Y-49503D02*
X71018Y-49922D01*
G54D14*
X70599Y-49505D02*
X71155Y-48947D01*
X72130Y-49085D02*
X72408Y-49363D01*
X71994Y-50894D02*
X72549Y-50337D01*
X70740Y-50479D02*
X71019Y-50757D01*
G54D11*
X73233Y-47353D02*
X73888Y-47790D01*
X73888Y-47790D02*
X74325Y-47134D01*
X74325Y-47134D02*
X73834Y-46807D01*
X73834Y-46807D02*
X73561Y-46861D01*
X73561Y-46861D02*
X73233Y-47353D01*
G54D14*
X72742Y-47025D02*
X73179Y-46370D01*
X74161Y-46316D02*
X74489Y-46534D01*
X74379Y-48117D02*
X74816Y-47462D01*
X73069Y-47953D02*
X73397Y-48172D01*
G54D11*
X74918Y-44386D02*
X75646Y-44687D01*
X75646Y-44687D02*
X75947Y-43960D01*
X75947Y-43960D02*
X75401Y-43734D01*
X75401Y-43734D02*
X75144Y-43840D01*
X75144Y-43840D02*
X74918Y-44386D01*
G54D14*
X74373Y-44160D02*
X74674Y-43432D01*
X75627Y-43188D02*
X75991Y-43339D01*
X76191Y-44913D02*
X76493Y-44186D01*
X74874Y-45007D02*
X75238Y-45157D01*
G54D11*
X75954Y-41214D02*
X76726Y-41368D01*
X76726Y-41368D02*
X76880Y-40596D01*
X76880Y-40596D02*
X76301Y-40480D01*
X76301Y-40480D02*
X76069Y-40635D01*
X76069Y-40635D02*
X75954Y-41214D01*
G54D14*
X75375Y-41098D02*
X75529Y-40326D01*
X76417Y-39901D02*
X76803Y-39978D01*
X77305Y-41484D02*
X77459Y-40712D01*
X76031Y-41832D02*
X76417Y-41909D01*
G54D11*
X76377Y-37795D02*
X77165Y-37795D01*
X77165Y-37795D02*
X77165Y-37007D01*
X77165Y-37007D02*
X76574Y-37007D01*
X76574Y-37007D02*
X76377Y-37204D01*
X76377Y-37204D02*
X76377Y-37795D01*
G54D14*
X75787Y-37795D02*
X75787Y-37007D01*
X76574Y-36417D02*
X76968Y-36417D01*
X77755Y-37795D02*
X77755Y-37007D01*
X76574Y-38385D02*
X76968Y-38385D01*
G54D11*
X76107Y-34399D02*
X76879Y-34246D01*
X76879Y-34246D02*
X76727Y-33474D01*
X76727Y-33474D02*
X76147Y-33589D01*
X76147Y-33589D02*
X75992Y-33820D01*
X75992Y-33820D02*
X76107Y-34399D01*
G54D14*
X75528Y-34514D02*
X75375Y-33741D01*
X76033Y-33009D02*
X76419Y-32933D01*
X77459Y-34132D02*
X77306Y-33359D01*
X76415Y-34940D02*
X76801Y-34864D01*
G54D11*
X75219Y-31143D02*
X75947Y-30843D01*
X75947Y-30843D02*
X75647Y-30115D01*
X75647Y-30115D02*
X75101Y-30340D01*
X75101Y-30340D02*
X74994Y-30597D01*
X74994Y-30597D02*
X75219Y-31143D01*
G54D14*
X74673Y-31368D02*
X74373Y-30640D01*
X74876Y-29794D02*
X75239Y-29644D01*
X76493Y-30618D02*
X76193Y-29890D01*
X75626Y-31614D02*
X75990Y-31464D01*
G54D11*
X73671Y-28105D02*
X74325Y-27667D01*
X74325Y-27667D02*
X73887Y-27012D01*
X73887Y-27012D02*
X73396Y-27341D01*
X73396Y-27341D02*
X73342Y-27614D01*
X73342Y-27614D02*
X73671Y-28105D01*
G54D14*
X73180Y-28433D02*
X72742Y-27779D01*
X73068Y-26850D02*
X73395Y-26631D01*
X74816Y-27338D02*
X74378Y-26684D01*
X74163Y-28486D02*
X74490Y-28267D01*
G54D11*
X71574Y-25438D02*
X72131Y-24881D01*
X72131Y-24881D02*
X71574Y-24325D01*
X71574Y-24325D02*
X71157Y-24742D01*
X71157Y-24742D02*
X71157Y-25021D01*
X71157Y-25021D02*
X71574Y-25438D01*
G54D14*
X71157Y-25856D02*
X70600Y-25299D01*
X70739Y-24325D02*
X71018Y-24046D01*
X72549Y-24464D02*
X71992Y-23907D01*
X72131Y-25717D02*
X72409Y-25438D01*
G54D11*
X69005Y-23223D02*
X69443Y-22569D01*
X69443Y-22569D02*
X68789Y-22130D01*
X68789Y-22130D02*
X68460Y-22621D01*
X68460Y-22621D02*
X68515Y-22894D01*
X68515Y-22894D02*
X69005Y-23223D01*
G54D14*
X68677Y-23714D02*
X68022Y-23276D01*
X67970Y-22293D02*
X68189Y-21966D01*
X69772Y-22078D02*
X69118Y-21640D01*
X69606Y-23388D02*
X69825Y-23061D01*
G54D11*
X66039Y-21538D02*
X66341Y-20810D01*
X66341Y-20810D02*
X65613Y-20509D01*
X65613Y-20509D02*
X65387Y-21054D01*
X65387Y-21054D02*
X65494Y-21312D01*
X65494Y-21312D02*
X66039Y-21538D01*
G54D14*
X65813Y-22083D02*
X65086Y-21782D01*
X64842Y-20828D02*
X64992Y-20465D01*
X66567Y-20264D02*
X65839Y-19963D01*
X66660Y-21582D02*
X66811Y-21218D01*
G54D11*
X62828Y-20502D02*
X62982Y-19730D01*
X62982Y-19730D02*
X62210Y-19576D01*
X62210Y-19576D02*
X62095Y-20155D01*
X62095Y-20155D02*
X62249Y-20386D01*
X62249Y-20386D02*
X62828Y-20502D01*
G54D14*
X62712Y-21081D02*
X61940Y-20927D01*
X61515Y-20039D02*
X61593Y-19653D01*
X63098Y-19151D02*
X62326Y-18997D01*
X63446Y-20425D02*
X63523Y-20039D01*
G54D11*
X59448Y-20078D02*
X59448Y-19291D01*
X59448Y-19291D02*
X58661Y-19291D01*
X58661Y-19291D02*
X58661Y-19881D01*
X58661Y-19881D02*
X58858Y-20078D01*
X58858Y-20078D02*
X59448Y-20078D01*
G54D14*
X59448Y-20669D02*
X58661Y-20669D01*
X58070Y-19881D02*
X58070Y-19488D01*
X59448Y-18700D02*
X58661Y-18700D01*
X60039Y-19881D02*
X60039Y-19488D01*
G54D11*
X57263Y-26023D02*
X57263Y-24685D01*
X57263Y-24685D02*
X56555Y-24685D01*
X56555Y-24685D02*
X56555Y-26023D01*
X56555Y-26023D02*
X57263Y-26023D01*
X56739Y-25184D02*
X56739Y-25024D01*
X56739Y-25024D02*
X57079Y-25024D01*
X57079Y-25184D02*
X57079Y-25024D01*
X56739Y-25184D02*
X57079Y-25184D01*
X56739Y-25684D02*
X56739Y-25524D01*
X56739Y-25524D02*
X57079Y-25524D01*
X57079Y-25684D02*
X57079Y-25524D01*
X56739Y-25684D02*
X57079Y-25684D01*
X56769Y-25524D02*
X56769Y-25184D01*
X57049Y-25184D02*
X57049Y-25524D01*
X60846Y-24685D02*
X60846Y-26023D01*
X60846Y-26023D02*
X61555Y-26023D01*
X61555Y-26023D02*
X61555Y-24685D01*
X61555Y-24685D02*
X60846Y-24685D01*
X61370Y-25524D02*
X61370Y-25684D01*
X61370Y-25684D02*
X61030Y-25684D01*
X61030Y-25524D02*
X61030Y-25684D01*
X61370Y-25524D02*
X61030Y-25524D01*
X61370Y-25024D02*
X61370Y-25184D01*
X61370Y-25184D02*
X61030Y-25184D01*
X61030Y-25024D02*
X61030Y-25184D01*
X61370Y-25024D02*
X61030Y-25024D01*
X61340Y-25184D02*
X61340Y-25524D01*
X61060Y-25524D02*
X61060Y-25184D01*
X62397Y-36807D02*
X61059Y-36807D01*
X61059Y-36807D02*
X61059Y-37515D01*
X61059Y-37515D02*
X62397Y-37515D01*
X62397Y-37515D02*
X62397Y-36807D01*
X61558Y-37331D02*
X61398Y-37331D01*
X61398Y-37331D02*
X61398Y-36991D01*
X61558Y-36991D02*
X61398Y-36991D01*
X61558Y-37331D02*
X61558Y-36991D01*
X62058Y-37331D02*
X61898Y-37331D01*
X61898Y-37331D02*
X61898Y-36991D01*
X62058Y-36991D02*
X61898Y-36991D01*
X62058Y-37331D02*
X62058Y-36991D01*
X61898Y-37301D02*
X61558Y-37301D01*
X61558Y-37021D02*
X61898Y-37021D01*
X61612Y-51260D02*
X61313Y-51260D01*
X56812Y-51260D02*
X56513Y-51260D01*
X59212Y-50760D02*
X58913Y-50760D01*
X59062Y-50910D02*
X59062Y-50610D01*
X59212Y-51760D02*
X58913Y-51760D01*
X59062Y-51910D02*
X59062Y-51610D01*
G54D13*
X55095Y-26380D02*
X55046Y-26279D01*
X54900Y-26428D02*
X55127Y-26317D01*
X55146Y-26293D01*
X55147Y-26261D01*
X55134Y-26236D01*
X54789Y-26170D02*
X54789Y-26201D01*
X54813Y-26252D01*
X54838Y-26271D01*
X54870Y-26271D01*
X54971Y-26222D01*
X54990Y-26197D01*
X54990Y-26165D01*
X54966Y-26115D01*
X54941Y-26096D01*
X54909Y-26095D01*
X54884Y-26108D01*
X54920Y-26246D01*
X54715Y-26049D02*
X54892Y-25963D01*
X54866Y-25975D02*
X54873Y-25957D01*
X54873Y-25925D01*
X54855Y-25887D01*
X54830Y-25868D01*
X54798Y-25868D01*
X54659Y-25936D01*
X54798Y-25868D02*
X54817Y-25843D01*
X54818Y-25811D01*
X54799Y-25773D01*
X54774Y-25754D01*
X54743Y-25754D01*
X54604Y-25822D01*
X54487Y-25582D02*
X54626Y-25514D01*
X54657Y-25514D01*
X54682Y-25533D01*
X54707Y-25584D01*
X54707Y-25615D01*
X54499Y-25576D02*
X54499Y-25607D01*
X54530Y-25670D01*
X54555Y-25689D01*
X54586Y-25690D01*
X54612Y-25677D01*
X54631Y-25652D01*
X54631Y-25621D01*
X54600Y-25558D01*
X54600Y-25526D01*
X54407Y-25417D02*
X54432Y-25437D01*
X54463Y-25437D01*
X54690Y-25326D01*
X54321Y-25209D02*
X54320Y-25241D01*
X54345Y-25291D01*
X54370Y-25310D01*
X54401Y-25310D01*
X54502Y-25261D01*
X54522Y-25236D01*
X54522Y-25205D01*
X54497Y-25154D01*
X54472Y-25135D01*
X54441Y-25135D01*
X54416Y-25147D01*
X54452Y-25286D01*
X63725Y-25091D02*
X63676Y-25192D01*
X63884Y-25215D02*
X63656Y-25104D01*
X63625Y-25105D01*
X63600Y-25124D01*
X63588Y-25149D01*
X63748Y-25462D02*
X63773Y-25443D01*
X63798Y-25392D01*
X63797Y-25361D01*
X63778Y-25336D01*
X63677Y-25286D01*
X63646Y-25287D01*
X63621Y-25306D01*
X63596Y-25356D01*
X63596Y-25388D01*
X63615Y-25413D01*
X63641Y-25425D01*
X63728Y-25311D01*
X63699Y-25594D02*
X63522Y-25508D01*
X63547Y-25520D02*
X63529Y-25527D01*
X63504Y-25546D01*
X63485Y-25584D01*
X63485Y-25615D01*
X63505Y-25640D01*
X63644Y-25708D01*
X63505Y-25640D02*
X63473Y-25641D01*
X63448Y-25660D01*
X63430Y-25698D01*
X63430Y-25729D01*
X63449Y-25754D01*
X63588Y-25822D01*
X63471Y-26062D02*
X63332Y-25994D01*
X63313Y-25969D01*
X63313Y-25938D01*
X63337Y-25887D01*
X63362Y-25868D01*
X63458Y-26056D02*
X63483Y-26037D01*
X63514Y-25973D01*
X63514Y-25942D01*
X63495Y-25917D01*
X63469Y-25905D01*
X63438Y-25905D01*
X63413Y-25924D01*
X63382Y-25987D01*
X63357Y-26006D01*
X63391Y-26226D02*
X63391Y-26195D01*
X63371Y-26170D01*
X63144Y-26059D01*
X63280Y-26422D02*
X63305Y-26403D01*
X63329Y-26353D01*
X63329Y-26321D01*
X63310Y-26296D01*
X63209Y-26247D01*
X63177Y-26247D01*
X63152Y-26266D01*
X63128Y-26317D01*
X63128Y-26348D01*
X63147Y-26373D01*
X63172Y-26386D01*
X63259Y-26272D01*
G54D11*
X57396Y-36538D02*
X57527Y-36538D01*
X57527Y-36745D02*
X57527Y-36351D01*
X57339Y-36351D01*
X57246Y-36351D02*
X57021Y-36351D01*
X57133Y-36745D02*
X57133Y-36351D01*
X56889Y-36745D02*
X56889Y-36351D01*
X56796Y-36351D01*
X56739Y-36370D01*
X56702Y-36407D01*
X56683Y-36445D01*
X56664Y-36520D01*
X56664Y-36576D01*
X56683Y-36651D01*
X56702Y-36688D01*
X56739Y-36726D01*
X56796Y-36745D01*
X56889Y-36745D01*
X56496Y-36745D02*
X56496Y-36351D01*
%LPC*%
G54D15*
X57696Y-25649D03*
X57696Y-24901D03*
X58562Y-25275D03*
G54D16*
X58267Y-24901D03*
G54D17*
X58377Y-25078D03*
G54D15*
X60413Y-24901D03*
X60413Y-25649D03*
X59547Y-25275D03*
G54D16*
X59842Y-25649D03*
G54D17*
X59740Y-25472D03*
G54D18*
X57562Y-51232D03*
X58562Y-51232D03*
X59562Y-51232D03*
X60562Y-51232D03*
G54D19*
X57716Y-49094D03*
X60394Y-49094D03*
G54D20*
X62248Y-35610D03*
X62248Y-36318D03*
G54D21*
X63589Y-37783D03*
X62909Y-36895D03*
X64027Y-36884D03*
X63347Y-35996D03*
X55502Y-37344D03*
X54384Y-37333D03*
X55064Y-36445D03*
X53946Y-36434D03*
G54D10*
G36*
X53376Y-26368D02*
X54438Y-25850D01*
X54541Y-26063D01*
X53480Y-26580D01*
X53376Y-26368D01*
X53376Y-26368D01*
G37*
G36*
X53532Y-26686D02*
X54593Y-26169D01*
X54697Y-26381D01*
X53635Y-26899D01*
X53532Y-26686D01*
X53532Y-26686D01*
G37*
G36*
X54261Y-25937D02*
X54438Y-25850D01*
X54697Y-26381D01*
X54520Y-26467D01*
X54261Y-25937D01*
X54261Y-25937D01*
G37*
G36*
X55188Y-26041D02*
X55365Y-25954D01*
X55624Y-26485D01*
X55447Y-26572D01*
X55188Y-26041D01*
X55188Y-26041D01*
G37*
G36*
X54749Y-25142D02*
X54926Y-25056D01*
X55185Y-25586D01*
X55008Y-25673D01*
X54749Y-25142D01*
X54749Y-25142D01*
G37*
G36*
X53823Y-25038D02*
X53999Y-24951D01*
X54258Y-25482D01*
X54081Y-25569D01*
X53823Y-25038D01*
X53823Y-25038D01*
G37*
G36*
X55188Y-26041D02*
X56249Y-25523D01*
X56353Y-25735D01*
X55291Y-26253D01*
X55188Y-26041D01*
X55188Y-26041D01*
G37*
G36*
X55343Y-26359D02*
X56405Y-25841D01*
X56508Y-26054D01*
X55447Y-26572D01*
X55343Y-26359D01*
X55343Y-26359D01*
G37*
G36*
X52938Y-25469D02*
X53999Y-24951D01*
X54103Y-25164D01*
X53041Y-25682D01*
X52938Y-25469D01*
X52938Y-25469D01*
G37*
G36*
X53093Y-25788D02*
X54155Y-25270D01*
X54258Y-25482D01*
X53197Y-26000D01*
X53093Y-25788D01*
X53093Y-25788D01*
G37*
G36*
X54749Y-25142D02*
X55811Y-24624D01*
X55915Y-24837D01*
X54853Y-25354D01*
X54749Y-25142D01*
X54749Y-25142D01*
G37*
G36*
X54905Y-25460D02*
X55966Y-24943D01*
X56070Y-25155D01*
X55008Y-25673D01*
X54905Y-25460D01*
X54905Y-25460D01*
G37*
G36*
X54171Y-25981D02*
X54436Y-25851D01*
X54540Y-26063D01*
X54274Y-26193D01*
X54171Y-25981D01*
X54171Y-25981D01*
G37*
G36*
X54326Y-26299D02*
X54591Y-26170D01*
X54695Y-26382D01*
X54430Y-26511D01*
X54326Y-26299D01*
X54326Y-26299D01*
G37*
G36*
X55345Y-26358D02*
X55610Y-26229D01*
X55714Y-26441D01*
X55448Y-26571D01*
X55345Y-26358D01*
X55345Y-26358D01*
G37*
G36*
X55190Y-26040D02*
X55455Y-25910D01*
X55558Y-26123D01*
X55293Y-26252D01*
X55190Y-26040D01*
X55190Y-26040D01*
G37*
G36*
X53888Y-25400D02*
X54153Y-25271D01*
X54257Y-25483D01*
X53991Y-25613D01*
X53888Y-25400D01*
X53888Y-25400D01*
G37*
G36*
X53732Y-25082D02*
X53998Y-24952D01*
X54101Y-25165D01*
X53836Y-25294D01*
X53732Y-25082D01*
X53732Y-25082D01*
G37*
G36*
X54907Y-25460D02*
X55172Y-25330D01*
X55275Y-25542D01*
X55010Y-25672D01*
X54907Y-25460D01*
X54907Y-25460D01*
G37*
G36*
X54751Y-25141D02*
X55017Y-25012D01*
X55120Y-25224D01*
X54855Y-25353D01*
X54751Y-25141D01*
X54751Y-25141D01*
G37*
G36*
X62162Y-25074D02*
X63223Y-25591D01*
X63120Y-25804D01*
X62058Y-25286D01*
X62162Y-25074D01*
X62162Y-25074D01*
G37*
G36*
X62006Y-25392D02*
X63068Y-25910D01*
X62964Y-26122D01*
X61903Y-25604D01*
X62006Y-25392D01*
X62006Y-25392D01*
G37*
G36*
X63046Y-25505D02*
X63223Y-25591D01*
X62964Y-26122D01*
X62788Y-26036D01*
X63046Y-25505D01*
X63046Y-25505D01*
G37*
G36*
X63535Y-26300D02*
X63712Y-26386D01*
X63453Y-26917D01*
X63276Y-26830D01*
X63535Y-26300D01*
X63535Y-26300D01*
G37*
G36*
X63973Y-25401D02*
X64150Y-25487D01*
X63891Y-26018D01*
X63714Y-25932D01*
X63973Y-25401D01*
X63973Y-25401D01*
G37*
G36*
X63485Y-24606D02*
X63662Y-24693D01*
X63403Y-25223D01*
X63226Y-25137D01*
X63485Y-24606D01*
X63485Y-24606D01*
G37*
G36*
X63535Y-26300D02*
X64596Y-26817D01*
X64493Y-27030D01*
X63431Y-26512D01*
X63535Y-26300D01*
X63535Y-26300D01*
G37*
G36*
X63380Y-26618D02*
X64441Y-27136D01*
X64338Y-27348D01*
X63276Y-26830D01*
X63380Y-26618D01*
X63380Y-26618D01*
G37*
G36*
X62600Y-24175D02*
X63662Y-24693D01*
X63558Y-24905D01*
X62497Y-24387D01*
X62600Y-24175D01*
X62600Y-24175D01*
G37*
G36*
X62445Y-24493D02*
X63506Y-25011D01*
X63403Y-25223D01*
X62341Y-24706D01*
X62445Y-24493D01*
X62445Y-24493D01*
G37*
G36*
X63973Y-25401D02*
X65035Y-25919D01*
X64931Y-26131D01*
X63870Y-25613D01*
X63973Y-25401D01*
X63973Y-25401D01*
G37*
G36*
X63818Y-25719D02*
X64880Y-26237D01*
X64776Y-26449D01*
X63714Y-25932D01*
X63818Y-25719D01*
X63818Y-25719D01*
G37*
G36*
X62956Y-25461D02*
X63222Y-25591D01*
X63118Y-25803D01*
X62853Y-25673D01*
X62956Y-25461D01*
X62956Y-25461D01*
G37*
G36*
X62801Y-25780D02*
X63066Y-25909D01*
X62963Y-26121D01*
X62697Y-25992D01*
X62801Y-25780D01*
X62801Y-25780D01*
G37*
G36*
X63381Y-26619D02*
X63647Y-26748D01*
X63543Y-26961D01*
X63278Y-26831D01*
X63381Y-26619D01*
X63381Y-26619D01*
G37*
G36*
X63537Y-26301D02*
X63802Y-26430D01*
X63699Y-26642D01*
X63433Y-26513D01*
X63537Y-26301D01*
X63537Y-26301D01*
G37*
G36*
X63239Y-24881D02*
X63505Y-25010D01*
X63401Y-25223D01*
X63136Y-25093D01*
X63239Y-24881D01*
X63239Y-24881D01*
G37*
G36*
X63395Y-24562D02*
X63660Y-24692D01*
X63556Y-24904D01*
X63291Y-24775D01*
X63395Y-24562D01*
X63395Y-24562D01*
G37*
G36*
X63820Y-25720D02*
X64085Y-25850D01*
X63982Y-26062D01*
X63716Y-25933D01*
X63820Y-25720D01*
X63820Y-25720D01*
G37*
G36*
X63975Y-25402D02*
X64240Y-25531D01*
X64137Y-25743D01*
X63872Y-25614D01*
X63975Y-25402D01*
X63975Y-25402D01*
G37*
G54D22*
X56338Y-49094D03*
X55157Y-49094D03*
G54D23*
X56653Y-49094D03*
X54842Y-49094D03*
G54D22*
X61771Y-49094D03*
X62952Y-49094D03*
G54D23*
X61456Y-49094D03*
X63267Y-49094D03*
G54D24*
X59161Y-36984D03*
X59358Y-36984D03*
X59555Y-36984D03*
X58964Y-36984D03*
G54D25*
X58669Y-36689D03*
X58669Y-36492D03*
X58669Y-36295D03*
X58669Y-36098D03*
X58669Y-35902D03*
X58669Y-35705D03*
X58669Y-35508D03*
X58669Y-35311D03*
G54D24*
X60342Y-35016D03*
X58964Y-35016D03*
X59161Y-35016D03*
X59358Y-35016D03*
X59555Y-35016D03*
X59751Y-35016D03*
X59948Y-35016D03*
X60145Y-35016D03*
G54D25*
X60637Y-35311D03*
X60637Y-35508D03*
X60637Y-35705D03*
X60637Y-35902D03*
X60637Y-36098D03*
X60637Y-36295D03*
X60637Y-36492D03*
X60637Y-36689D03*
G54D24*
X60342Y-36984D03*
X60145Y-36984D03*
X59948Y-36984D03*
X59751Y-36984D03*
G54D26*
X59653Y-36000D03*
G54D27*
X56606Y-38047D03*
G54D28*
X57606Y-38047D03*
X58606Y-38047D03*
X59606Y-38047D03*
X60606Y-38047D03*
X61606Y-38047D03*
G54D10*
G36*
X56543Y-21516D02*
X56659Y-22095D01*
X56158Y-22195D01*
X56042Y-21616D01*
X56543Y-21516D01*
X56543Y-21516D01*
G37*
G36*
X55810Y-21663D02*
X55925Y-22241D01*
X55424Y-22341D01*
X55309Y-21763D01*
X55810Y-21663D01*
X55810Y-21663D01*
G37*
G36*
X53500Y-22321D02*
X53725Y-22866D01*
X53253Y-23061D01*
X53028Y-22516D01*
X53500Y-22321D01*
X53500Y-22321D01*
G37*
G36*
X52809Y-22607D02*
X53034Y-23152D01*
X52562Y-23348D01*
X52337Y-22803D01*
X52809Y-22607D01*
X52809Y-22607D01*
G37*
G36*
X50634Y-23735D02*
X50962Y-24225D01*
X50538Y-24509D01*
X50209Y-24019D01*
X50634Y-23735D01*
X50634Y-23735D01*
G37*
G36*
X50013Y-24151D02*
X50341Y-24641D01*
X49916Y-24926D01*
X49588Y-24435D01*
X50013Y-24151D01*
X50013Y-24151D01*
G37*
G36*
X48149Y-25606D02*
X48567Y-26023D01*
X48205Y-26384D01*
X47788Y-25967D01*
X48149Y-25606D01*
X48149Y-25606D01*
G37*
G36*
X47620Y-26135D02*
X48038Y-26552D01*
X47676Y-26913D01*
X47259Y-26496D01*
X47620Y-26135D01*
X47620Y-26135D01*
G37*
G36*
X46068Y-27974D02*
X46559Y-28301D01*
X46275Y-28726D01*
X45784Y-28399D01*
X46068Y-27974D01*
X46068Y-27974D01*
G37*
G36*
X45653Y-28596D02*
X46144Y-28923D01*
X45860Y-29348D01*
X45369Y-29021D01*
X45653Y-28596D01*
X45653Y-28596D01*
G37*
G36*
X44476Y-30683D02*
X45021Y-30909D01*
X44825Y-31381D01*
X44280Y-31155D01*
X44476Y-30683D01*
X44476Y-30683D01*
G37*
G36*
X44189Y-31374D02*
X44735Y-31600D01*
X44539Y-32072D01*
X43994Y-31846D01*
X44189Y-31374D01*
X44189Y-31374D01*
G37*
G36*
X43435Y-33675D02*
X44014Y-33790D01*
X43914Y-34291D01*
X43335Y-34176D01*
X43435Y-33675D01*
X43435Y-33675D01*
G37*
G36*
X43289Y-34409D02*
X43868Y-34523D01*
X43769Y-35025D01*
X43190Y-34910D01*
X43289Y-34409D01*
X43289Y-34409D01*
G37*
G54D29*
X43307Y-37027D03*
X43307Y-37775D03*
G54D10*
G36*
X43189Y-39912D02*
X43768Y-39797D01*
X43868Y-40298D01*
X43289Y-40414D01*
X43189Y-39912D01*
X43189Y-39912D01*
G37*
G36*
X43336Y-40646D02*
X43914Y-40530D01*
X44014Y-41031D01*
X43436Y-41147D01*
X43336Y-40646D01*
X43336Y-40646D01*
G37*
G36*
X43994Y-42976D02*
X44539Y-42750D01*
X44735Y-43222D01*
X44189Y-43448D01*
X43994Y-42976D01*
X43994Y-42976D01*
G37*
G36*
X44280Y-43667D02*
X44825Y-43441D01*
X45021Y-43913D01*
X44476Y-44139D01*
X44280Y-43667D01*
X44280Y-43667D01*
G37*
G36*
X45349Y-45782D02*
X45839Y-45454D01*
X46124Y-45879D01*
X45633Y-46207D01*
X45349Y-45782D01*
X45349Y-45782D01*
G37*
G36*
X45765Y-46404D02*
X46255Y-46076D01*
X46540Y-46500D01*
X46049Y-46828D01*
X45765Y-46404D01*
X45765Y-46404D01*
G37*
G36*
X47259Y-48306D02*
X47676Y-47889D01*
X48038Y-48250D01*
X47620Y-48668D01*
X47259Y-48306D01*
X47259Y-48306D01*
G37*
G36*
X47788Y-48835D02*
X48205Y-48418D01*
X48567Y-48779D01*
X48149Y-49197D01*
X47788Y-48835D01*
X47788Y-48835D01*
G37*
G36*
X49607Y-50388D02*
X49935Y-49897D01*
X50360Y-50180D01*
X50033Y-50671D01*
X49607Y-50388D01*
X49607Y-50388D01*
G37*
G36*
X50230Y-50803D02*
X50557Y-50312D01*
X50982Y-50595D01*
X50655Y-51086D01*
X50230Y-50803D01*
X50230Y-50803D01*
G37*
G36*
X52337Y-51980D02*
X52562Y-51435D01*
X53034Y-51630D01*
X52809Y-52176D01*
X52337Y-51980D01*
X52337Y-51980D01*
G37*
G36*
X53028Y-52266D02*
X53253Y-51721D01*
X53725Y-51917D01*
X53500Y-52462D01*
X53028Y-52266D01*
X53028Y-52266D01*
G37*
G36*
X55289Y-53001D02*
X55404Y-52422D01*
X55905Y-52522D01*
X55791Y-53101D01*
X55289Y-53001D01*
X55289Y-53001D01*
G37*
G36*
X56023Y-53147D02*
X56138Y-52568D01*
X56639Y-52667D01*
X56524Y-53246D01*
X56023Y-53147D01*
X56023Y-53147D01*
G37*
G36*
X61563Y-53243D02*
X61452Y-52664D01*
X61953Y-52567D01*
X62065Y-53146D01*
X61563Y-53243D01*
X61563Y-53243D01*
G37*
G36*
X62298Y-53101D02*
X62186Y-52522D01*
X62688Y-52425D01*
X62799Y-53005D01*
X62298Y-53101D01*
X62298Y-53101D01*
G37*
G54D30*
X58681Y-53149D03*
X59429Y-53149D03*
G54D10*
G36*
X64612Y-52445D02*
X64384Y-51901D01*
X64855Y-51703D01*
X65083Y-52247D01*
X64612Y-52445D01*
X64612Y-52445D01*
G37*
G36*
X65302Y-52155D02*
X65073Y-51611D01*
X65544Y-51413D01*
X65773Y-51957D01*
X65302Y-52155D01*
X65302Y-52155D01*
G37*
G36*
X67398Y-51108D02*
X67069Y-50619D01*
X67492Y-50333D01*
X67822Y-50822D01*
X67398Y-51108D01*
X67398Y-51108D01*
G37*
G36*
X68019Y-50690D02*
X67689Y-50200D01*
X68112Y-49915D01*
X68442Y-50404D01*
X68019Y-50690D01*
X68019Y-50690D01*
G37*
G36*
X69960Y-49197D02*
X69543Y-48779D01*
X69904Y-48418D01*
X70321Y-48835D01*
X69960Y-49197D01*
X69960Y-49197D01*
G37*
G36*
X70489Y-48668D02*
X70072Y-48250D01*
X70433Y-47889D01*
X70850Y-48306D01*
X70489Y-48668D01*
X70489Y-48668D01*
G37*
G36*
X72060Y-46828D02*
X71570Y-46500D01*
X71854Y-46076D01*
X72344Y-46404D01*
X72060Y-46828D01*
X72060Y-46828D01*
G37*
G36*
X72476Y-46207D02*
X71986Y-45879D01*
X72270Y-45454D01*
X72760Y-45782D01*
X72476Y-46207D01*
X72476Y-46207D01*
G37*
G36*
X73634Y-44119D02*
X73088Y-43893D01*
X73284Y-43421D01*
X73829Y-43647D01*
X73634Y-44119D01*
X73634Y-44119D01*
G37*
G36*
X73920Y-43428D02*
X73375Y-43202D01*
X73570Y-42730D01*
X74115Y-42956D01*
X73920Y-43428D01*
X73920Y-43428D01*
G37*
G36*
X74654Y-41167D02*
X74075Y-41051D01*
X74175Y-40550D01*
X74754Y-40666D01*
X74654Y-41167D01*
X74654Y-41167D01*
G37*
G36*
X74800Y-40433D02*
X74222Y-40318D01*
X74322Y-39817D01*
X74900Y-39932D01*
X74800Y-40433D01*
X74800Y-40433D01*
G37*
G54D29*
X74803Y-37775D03*
X74803Y-37027D03*
G54D10*
G36*
X74919Y-34890D02*
X74340Y-35005D01*
X74241Y-34504D01*
X74820Y-34389D01*
X74919Y-34890D01*
X74919Y-34890D01*
G37*
G36*
X74774Y-34157D02*
X74195Y-34271D01*
X74096Y-33770D01*
X74674Y-33655D01*
X74774Y-34157D01*
X74774Y-34157D01*
G37*
G36*
X74115Y-31846D02*
X73570Y-32072D01*
X73375Y-31600D01*
X73920Y-31374D01*
X74115Y-31846D01*
X74115Y-31846D01*
G37*
G36*
X73829Y-31155D02*
X73284Y-31381D01*
X73088Y-30909D01*
X73634Y-30683D01*
X73829Y-31155D01*
X73829Y-31155D01*
G37*
G36*
X72740Y-29000D02*
X72250Y-29328D01*
X71966Y-28904D01*
X72456Y-28576D01*
X72740Y-29000D01*
X72740Y-29000D01*
G37*
G36*
X72324Y-28379D02*
X71834Y-28707D01*
X71550Y-28282D01*
X72040Y-27954D01*
X72324Y-28379D01*
X72324Y-28379D01*
G37*
G36*
X70850Y-26496D02*
X70433Y-26913D01*
X70072Y-26552D01*
X70489Y-26135D01*
X70850Y-26496D01*
X70850Y-26496D01*
G37*
G36*
X70321Y-25967D02*
X69904Y-26384D01*
X69543Y-26023D01*
X69960Y-25606D01*
X70321Y-25967D01*
X70321Y-25967D01*
G37*
G36*
X68522Y-24429D02*
X68198Y-24922D01*
X67771Y-24642D01*
X68095Y-24149D01*
X68522Y-24429D01*
X68522Y-24429D01*
G37*
G36*
X67897Y-24019D02*
X67573Y-24512D01*
X67146Y-24231D01*
X67470Y-23738D01*
X67897Y-24019D01*
X67897Y-24019D01*
G37*
G36*
X65773Y-22803D02*
X65547Y-23348D01*
X65075Y-23152D01*
X65301Y-22607D01*
X65773Y-22803D01*
X65773Y-22803D01*
G37*
G36*
X65082Y-22516D02*
X64856Y-23061D01*
X64384Y-22866D01*
X64610Y-22321D01*
X65082Y-22516D01*
X65082Y-22516D01*
G37*
G36*
X62801Y-21802D02*
X62685Y-22381D01*
X62184Y-22281D01*
X62299Y-21702D01*
X62801Y-21802D01*
X62801Y-21802D01*
G37*
G36*
X62067Y-21656D02*
X61951Y-22234D01*
X61450Y-22134D01*
X61566Y-21555D01*
X62067Y-21656D01*
X62067Y-21656D01*
G37*
G54D30*
X59429Y-21653D03*
X58681Y-21653D03*
G54D29*
X61492Y-35645D03*
X61492Y-36393D03*
G54D31*
X57283Y-35858D03*
X57283Y-35484D03*
X57283Y-35110D03*
G54D10*
G36*
X55288Y-39055D02*
X54757Y-39314D01*
X54498Y-38783D01*
X55029Y-38524D01*
X55288Y-39055D01*
X55288Y-39055D01*
G37*
G36*
X53942Y-36295D02*
X53411Y-36554D01*
X53152Y-36023D01*
X53683Y-35764D01*
X53942Y-36295D01*
X53942Y-36295D01*
G37*
G36*
X63478Y-39314D02*
X62947Y-39055D01*
X63206Y-38524D01*
X63737Y-38783D01*
X63478Y-39314D01*
X63478Y-39314D01*
G37*
G36*
X64824Y-36554D02*
X64294Y-36295D01*
X64552Y-35764D01*
X65083Y-36023D01*
X64824Y-36554D01*
X64824Y-36554D01*
G37*
G54D22*
X59724Y-26574D03*
X58385Y-26574D03*
G54D10*
G36*
X56830Y-19418D02*
X56135Y-19556D01*
X56027Y-19016D01*
X56722Y-18877D01*
X56830Y-19418D01*
X56830Y-19418D01*
G37*
G36*
X57085Y-20692D02*
X56390Y-20830D01*
X56282Y-20290D01*
X56977Y-20151D01*
X57085Y-20692D01*
X57085Y-20692D01*
G37*
G36*
X55232Y-21062D02*
X54537Y-21201D01*
X54429Y-20660D01*
X55124Y-20521D01*
X55232Y-21062D01*
X55232Y-21062D01*
G37*
G36*
X54977Y-19788D02*
X54282Y-19927D01*
X54174Y-19386D01*
X54869Y-19247D01*
X54977Y-19788D01*
X54977Y-19788D01*
G37*
G36*
X55811Y-19942D02*
X55425Y-20020D01*
X55386Y-19826D01*
X55772Y-19749D01*
X55811Y-19942D01*
X55811Y-19942D01*
G37*
G36*
X55873Y-20251D02*
X55487Y-20328D01*
X55448Y-20135D01*
X55834Y-20058D01*
X55873Y-20251D01*
X55873Y-20251D01*
G37*
G36*
X53340Y-20180D02*
X52685Y-20452D01*
X52475Y-19942D01*
X53129Y-19671D01*
X53340Y-20180D01*
X53340Y-20180D01*
G37*
G36*
X53837Y-21381D02*
X53183Y-21652D01*
X52972Y-21143D01*
X53626Y-20871D01*
X53837Y-21381D01*
X53837Y-21381D01*
G37*
G36*
X52091Y-22104D02*
X51437Y-22375D01*
X51226Y-21866D01*
X51880Y-21595D01*
X52091Y-22104D01*
X52091Y-22104D01*
G37*
G36*
X51594Y-20904D02*
X50940Y-21175D01*
X50729Y-20666D01*
X51383Y-20394D01*
X51594Y-20904D01*
X51594Y-20904D01*
G37*
G36*
X52442Y-20893D02*
X52078Y-21044D01*
X52003Y-20862D01*
X52367Y-20711D01*
X52442Y-20893D01*
X52442Y-20893D01*
G37*
G36*
X52563Y-21184D02*
X52199Y-21335D01*
X52124Y-21153D01*
X52487Y-21002D01*
X52563Y-21184D01*
X52563Y-21184D01*
G37*
G36*
X50084Y-21643D02*
X49495Y-22037D01*
X49188Y-21579D01*
X49777Y-21185D01*
X50084Y-21643D01*
X50084Y-21643D01*
G37*
G36*
X50806Y-22723D02*
X50218Y-23117D01*
X49911Y-22659D01*
X50500Y-22265D01*
X50806Y-22723D01*
X50806Y-22723D01*
G37*
G36*
X49236Y-23774D02*
X48647Y-24168D01*
X48341Y-23710D01*
X48929Y-23316D01*
X49236Y-23774D01*
X49236Y-23774D01*
G37*
G36*
X48513Y-22694D02*
X47924Y-23089D01*
X47618Y-22631D01*
X48207Y-22236D01*
X48513Y-22694D01*
X48513Y-22694D01*
G37*
G36*
X49343Y-22518D02*
X49016Y-22737D01*
X48906Y-22574D01*
X49233Y-22355D01*
X49343Y-22518D01*
X49343Y-22518D01*
G37*
G36*
X49518Y-22780D02*
X49191Y-22999D01*
X49081Y-22835D01*
X49409Y-22616D01*
X49518Y-22780D01*
X49518Y-22780D01*
G37*
G36*
X47169Y-23698D02*
X46668Y-24199D01*
X46279Y-23810D01*
X46780Y-23308D01*
X47169Y-23698D01*
X47169Y-23698D01*
G37*
G36*
X48088Y-24617D02*
X47587Y-25118D01*
X47197Y-24728D01*
X47698Y-24227D01*
X48088Y-24617D01*
X48088Y-24617D01*
G37*
G36*
X46752Y-25953D02*
X46251Y-26454D01*
X45861Y-26065D01*
X46362Y-25563D01*
X46752Y-25953D01*
X46752Y-25953D01*
G37*
G36*
X45833Y-25035D02*
X45332Y-25536D01*
X44942Y-25146D01*
X45443Y-24645D01*
X45833Y-25035D01*
X45833Y-25035D01*
G37*
G36*
X46613Y-24700D02*
X46334Y-24979D01*
X46195Y-24840D01*
X46473Y-24561D01*
X46613Y-24700D01*
X46613Y-24700D01*
G37*
G36*
X46835Y-24923D02*
X46557Y-25202D01*
X46418Y-25062D01*
X46696Y-24784D01*
X46835Y-24923D01*
X46835Y-24923D01*
G37*
G36*
X44720Y-26290D02*
X44327Y-26879D01*
X43868Y-26574D01*
X44262Y-25984D01*
X44720Y-26290D01*
X44720Y-26290D01*
G37*
G36*
X45801Y-27011D02*
X45408Y-27600D01*
X44949Y-27294D01*
X45343Y-26705D01*
X45801Y-27011D01*
X45801Y-27011D01*
G37*
G36*
X44753Y-28583D02*
X44359Y-29172D01*
X43901Y-28867D01*
X44294Y-28277D01*
X44753Y-28583D01*
X44753Y-28583D01*
G37*
G36*
X43672Y-27862D02*
X43278Y-28452D01*
X42820Y-28146D01*
X43213Y-27556D01*
X43672Y-27862D01*
X43672Y-27862D01*
G37*
G36*
X44371Y-27382D02*
X44152Y-27709D01*
X43988Y-27600D01*
X44207Y-27272D01*
X44371Y-27382D01*
X44371Y-27382D01*
G37*
G36*
X44633Y-27556D02*
X44414Y-27884D01*
X44250Y-27775D01*
X44469Y-27447D01*
X44633Y-27556D01*
X44633Y-27556D01*
G37*
G36*
X42828Y-29286D02*
X42557Y-29941D01*
X42048Y-29730D01*
X42319Y-29075D01*
X42828Y-29286D01*
X42828Y-29286D01*
G37*
G36*
X44029Y-29783D02*
X43757Y-30438D01*
X43248Y-30227D01*
X43519Y-29572D01*
X44029Y-29783D01*
X44029Y-29783D01*
G37*
G36*
X43305Y-31529D02*
X43034Y-32184D01*
X42525Y-31973D01*
X42796Y-31318D01*
X43305Y-31529D01*
X43305Y-31529D01*
G37*
G36*
X42105Y-31032D02*
X41834Y-31687D01*
X41325Y-31476D01*
X41596Y-30821D01*
X42105Y-31032D01*
X42105Y-31032D01*
G37*
G36*
X42697Y-30425D02*
X42547Y-30789D01*
X42365Y-30713D01*
X42516Y-30350D01*
X42697Y-30425D01*
X42697Y-30425D01*
G37*
G36*
X42988Y-30545D02*
X42838Y-30909D01*
X42656Y-30834D01*
X42807Y-30470D01*
X42988Y-30545D01*
X42988Y-30545D01*
G37*
G36*
X41558Y-32609D02*
X41421Y-33304D01*
X40880Y-33197D01*
X41018Y-32502D01*
X41558Y-32609D01*
X41558Y-32609D01*
G37*
G36*
X42833Y-32861D02*
X42695Y-33557D01*
X42154Y-33450D01*
X42292Y-32754D01*
X42833Y-32861D01*
X42833Y-32861D01*
G37*
G36*
X42466Y-34715D02*
X42328Y-35410D01*
X41787Y-35303D01*
X41925Y-34608D01*
X42466Y-34715D01*
X42466Y-34715D01*
G37*
G36*
X41191Y-34463D02*
X41053Y-35158D01*
X40513Y-35051D01*
X40650Y-34356D01*
X41191Y-34463D01*
X41191Y-34463D01*
G37*
G36*
X41653Y-33752D02*
X41577Y-34138D01*
X41383Y-34100D01*
X41460Y-33713D01*
X41653Y-33752D01*
X41653Y-33752D01*
G37*
G36*
X41962Y-33813D02*
X41886Y-34199D01*
X41692Y-34161D01*
X41769Y-33775D01*
X41962Y-33813D01*
X41962Y-33813D01*
G37*
G54D32*
X40688Y-36456D03*
X41988Y-36456D03*
X41988Y-38346D03*
X40688Y-38346D03*
G54D33*
X41181Y-37401D03*
X41496Y-37401D03*
G54D10*
G36*
X41051Y-39645D02*
X41190Y-40340D01*
X40650Y-40448D01*
X40511Y-39753D01*
X41051Y-39645D01*
X41051Y-39645D01*
G37*
G36*
X42325Y-39391D02*
X42464Y-40086D01*
X41924Y-40194D01*
X41785Y-39499D01*
X42325Y-39391D01*
X42325Y-39391D01*
G37*
G36*
X42696Y-41244D02*
X42835Y-41939D01*
X42294Y-42047D01*
X42155Y-41352D01*
X42696Y-41244D01*
X42696Y-41244D01*
G37*
G36*
X41422Y-41498D02*
X41561Y-42193D01*
X41020Y-42301D01*
X40881Y-41606D01*
X41422Y-41498D01*
X41422Y-41498D01*
G37*
G36*
X41576Y-40664D02*
X41653Y-41051D01*
X41460Y-41089D01*
X41383Y-40703D01*
X41576Y-40664D01*
X41576Y-40664D01*
G37*
G36*
X41885Y-40603D02*
X41962Y-40989D01*
X41769Y-41027D01*
X41692Y-40641D01*
X41885Y-40603D01*
X41885Y-40603D01*
G37*
G36*
X41854Y-43155D02*
X42125Y-43810D01*
X41616Y-44021D01*
X41344Y-43366D01*
X41854Y-43155D01*
X41854Y-43155D01*
G37*
G36*
X43054Y-42658D02*
X43325Y-43312D01*
X42816Y-43523D01*
X42545Y-42869D01*
X43054Y-42658D01*
X43054Y-42658D01*
G37*
G36*
X43777Y-44404D02*
X44048Y-45058D01*
X43539Y-45269D01*
X43268Y-44615D01*
X43777Y-44404D01*
X43777Y-44404D01*
G37*
G36*
X42577Y-44901D02*
X42848Y-45556D01*
X42339Y-45766D01*
X42068Y-45112D01*
X42577Y-44901D01*
X42577Y-44901D01*
G37*
G36*
X42566Y-44053D02*
X42717Y-44417D01*
X42535Y-44492D01*
X42385Y-44128D01*
X42566Y-44053D01*
X42566Y-44053D01*
G37*
G36*
X42857Y-43932D02*
X43008Y-44296D01*
X42826Y-44371D01*
X42676Y-44008D01*
X42857Y-43932D01*
X42857Y-43932D01*
G37*
G36*
X43277Y-46352D02*
X43671Y-46941D01*
X43213Y-47248D01*
X42819Y-46659D01*
X43277Y-46352D01*
X43277Y-46352D01*
G37*
G36*
X44357Y-45630D02*
X44751Y-46218D01*
X44293Y-46525D01*
X43899Y-45936D01*
X44357Y-45630D01*
X44357Y-45630D01*
G37*
G36*
X45408Y-47200D02*
X45802Y-47789D01*
X45344Y-48095D01*
X44950Y-47507D01*
X45408Y-47200D01*
X45408Y-47200D01*
G37*
G36*
X44328Y-47923D02*
X44722Y-48512D01*
X44264Y-48818D01*
X43870Y-48229D01*
X44328Y-47923D01*
X44328Y-47923D01*
G37*
G36*
X44152Y-47093D02*
X44371Y-47420D01*
X44207Y-47530D01*
X43988Y-47203D01*
X44152Y-47093D01*
X44152Y-47093D01*
G37*
G36*
X44414Y-46918D02*
X44633Y-47245D01*
X44469Y-47355D01*
X44250Y-47027D01*
X44414Y-46918D01*
X44414Y-46918D01*
G37*
G36*
X45352Y-49286D02*
X45853Y-49787D01*
X45463Y-50177D01*
X44962Y-49676D01*
X45352Y-49286D01*
X45352Y-49286D01*
G37*
G36*
X46270Y-48368D02*
X46772Y-48869D01*
X46382Y-49258D01*
X45881Y-48757D01*
X46270Y-48368D01*
X46270Y-48368D01*
G37*
G36*
X47607Y-49704D02*
X48108Y-50205D01*
X47718Y-50595D01*
X47217Y-50094D01*
X47607Y-49704D01*
X47607Y-49704D01*
G37*
G36*
X46688Y-50622D02*
X47189Y-51124D01*
X46799Y-51513D01*
X46298Y-51012D01*
X46688Y-50622D01*
X46688Y-50622D01*
G37*
G36*
X46354Y-49843D02*
X46632Y-50121D01*
X46493Y-50261D01*
X46215Y-49982D01*
X46354Y-49843D01*
X46354Y-49843D01*
G37*
G36*
X46577Y-49620D02*
X46855Y-49899D01*
X46716Y-50038D01*
X46437Y-49759D01*
X46577Y-49620D01*
X46577Y-49620D01*
G37*
G36*
X47904Y-51716D02*
X48494Y-52109D01*
X48188Y-52568D01*
X47598Y-52174D01*
X47904Y-51716D01*
X47904Y-51716D01*
G37*
G36*
X48625Y-50635D02*
X49214Y-51028D01*
X48909Y-51487D01*
X48319Y-51093D01*
X48625Y-50635D01*
X48625Y-50635D01*
G37*
G36*
X50197Y-51683D02*
X50787Y-52077D01*
X50481Y-52535D01*
X49891Y-52142D01*
X50197Y-51683D01*
X50197Y-51683D01*
G37*
G36*
X49476Y-52764D02*
X50066Y-53158D01*
X49760Y-53616D01*
X49170Y-53223D01*
X49476Y-52764D01*
X49476Y-52764D01*
G37*
G36*
X48996Y-52065D02*
X49323Y-52284D01*
X49214Y-52448D01*
X48887Y-52229D01*
X48996Y-52065D01*
X48996Y-52065D01*
G37*
G36*
X49171Y-51803D02*
X49498Y-52022D01*
X49389Y-52186D01*
X49061Y-51967D01*
X49171Y-51803D01*
X49171Y-51803D01*
G37*
G36*
X50940Y-53627D02*
X51594Y-53899D01*
X51383Y-54408D01*
X50729Y-54137D01*
X50940Y-53627D01*
X50940Y-53627D01*
G37*
G36*
X51437Y-52427D02*
X52091Y-52698D01*
X51880Y-53207D01*
X51226Y-52936D01*
X51437Y-52427D01*
X51437Y-52427D01*
G37*
G36*
X53183Y-53150D02*
X53837Y-53421D01*
X53626Y-53931D01*
X52972Y-53659D01*
X53183Y-53150D01*
X53183Y-53150D01*
G37*
G36*
X52685Y-54351D02*
X53340Y-54622D01*
X53129Y-55131D01*
X52475Y-54860D01*
X52685Y-54351D01*
X52685Y-54351D01*
G37*
G36*
X52078Y-53758D02*
X52442Y-53909D01*
X52367Y-54091D01*
X52003Y-53940D01*
X52078Y-53758D01*
X52078Y-53758D01*
G37*
G36*
X52199Y-53467D02*
X52563Y-53618D01*
X52487Y-53800D01*
X52124Y-53649D01*
X52199Y-53467D01*
X52199Y-53467D01*
G37*
G36*
X54223Y-54898D02*
X54918Y-55035D01*
X54811Y-55576D01*
X54116Y-55438D01*
X54223Y-54898D01*
X54223Y-54898D01*
G37*
G36*
X54476Y-53623D02*
X55171Y-53761D01*
X55064Y-54301D01*
X54369Y-54164D01*
X54476Y-53623D01*
X54476Y-53623D01*
G37*
G36*
X56329Y-53990D02*
X57025Y-54128D01*
X56917Y-54668D01*
X56222Y-54531D01*
X56329Y-53990D01*
X56329Y-53990D01*
G37*
G36*
X56077Y-55265D02*
X56772Y-55402D01*
X56665Y-55943D01*
X55970Y-55805D01*
X56077Y-55265D01*
X56077Y-55265D01*
G37*
G36*
X55366Y-54803D02*
X55752Y-54879D01*
X55714Y-55072D01*
X55328Y-54996D01*
X55366Y-54803D01*
X55366Y-54803D01*
G37*
G36*
X55427Y-54494D02*
X55813Y-54570D01*
X55775Y-54763D01*
X55389Y-54687D01*
X55427Y-54494D01*
X55427Y-54494D01*
G37*
G54D34*
X58110Y-55767D03*
X58110Y-54468D03*
X60000Y-54468D03*
X60000Y-55767D03*
G54D35*
X59055Y-55275D03*
X59055Y-54960D03*
G54D10*
G36*
X61282Y-55391D02*
X61977Y-55248D01*
X62087Y-55788D01*
X61393Y-55931D01*
X61282Y-55391D01*
X61282Y-55391D01*
G37*
G36*
X61021Y-54118D02*
X61715Y-53976D01*
X61826Y-54516D01*
X61132Y-54658D01*
X61021Y-54118D01*
X61021Y-54118D01*
G37*
G36*
X62872Y-53738D02*
X63566Y-53596D01*
X63677Y-54136D01*
X62983Y-54278D01*
X62872Y-53738D01*
X62872Y-53738D01*
G37*
G36*
X63134Y-55011D02*
X63828Y-54868D01*
X63939Y-55408D01*
X63244Y-55551D01*
X63134Y-55011D01*
X63134Y-55011D01*
G37*
G36*
X62299Y-54861D02*
X62685Y-54782D01*
X62724Y-54974D01*
X62338Y-55054D01*
X62299Y-54861D01*
X62299Y-54861D01*
G37*
G36*
X62236Y-54552D02*
X62621Y-54473D01*
X62661Y-54666D01*
X62275Y-54745D01*
X62236Y-54552D01*
X62236Y-54552D01*
G37*
G36*
X64774Y-54627D02*
X65427Y-54353D01*
X65640Y-54861D01*
X64987Y-55135D01*
X64774Y-54627D01*
X64774Y-54627D01*
G37*
G36*
X64270Y-53430D02*
X64923Y-53155D01*
X65137Y-53663D01*
X64484Y-53938D01*
X64270Y-53430D01*
X64270Y-53430D01*
G37*
G36*
X66012Y-52697D02*
X66665Y-52423D01*
X66879Y-52931D01*
X66226Y-53205D01*
X66012Y-52697D01*
X66012Y-52697D01*
G37*
G36*
X66516Y-53895D02*
X67169Y-53620D01*
X67382Y-54128D01*
X66729Y-54403D01*
X66516Y-53895D01*
X66516Y-53895D01*
G37*
G36*
X65668Y-53910D02*
X66031Y-53757D01*
X66107Y-53939D01*
X65744Y-54091D01*
X65668Y-53910D01*
X65668Y-53910D01*
G37*
G36*
X65546Y-53619D02*
X65909Y-53467D01*
X65985Y-53648D01*
X65622Y-53801D01*
X65546Y-53619D01*
X65546Y-53619D01*
G37*
G36*
X67990Y-53201D02*
X68577Y-52805D01*
X68886Y-53262D01*
X68298Y-53658D01*
X67990Y-53201D01*
X67990Y-53201D01*
G37*
G36*
X67263Y-52124D02*
X67851Y-51728D01*
X68159Y-52185D01*
X67572Y-52581D01*
X67263Y-52124D01*
X67263Y-52124D01*
G37*
G36*
X68830Y-51068D02*
X69418Y-50671D01*
X69726Y-51128D01*
X69138Y-51525D01*
X68830Y-51068D01*
X68830Y-51068D01*
G37*
G36*
X69557Y-52145D02*
X70144Y-51748D01*
X70452Y-52205D01*
X69865Y-52602D01*
X69557Y-52145D01*
X69557Y-52145D01*
G37*
G36*
X68728Y-52324D02*
X69054Y-52104D01*
X69164Y-52267D01*
X68838Y-52487D01*
X68728Y-52324D01*
X68728Y-52324D01*
G37*
G36*
X68551Y-52063D02*
X68878Y-51843D01*
X68988Y-52006D01*
X68662Y-52226D01*
X68551Y-52063D01*
X68551Y-52063D01*
G37*
G36*
X70922Y-51105D02*
X71422Y-50603D01*
X71813Y-50992D01*
X71313Y-51494D01*
X70922Y-51105D01*
X70922Y-51105D01*
G37*
G36*
X70002Y-50188D02*
X70502Y-49686D01*
X70893Y-50075D01*
X70392Y-50577D01*
X70002Y-50188D01*
X70002Y-50188D01*
G37*
G36*
X71336Y-48849D02*
X71836Y-48347D01*
X72226Y-48736D01*
X71726Y-49238D01*
X71336Y-48849D01*
X71336Y-48849D01*
G37*
G36*
X72256Y-49766D02*
X72756Y-49264D01*
X73147Y-49654D01*
X72647Y-50156D01*
X72256Y-49766D01*
X72256Y-49766D01*
G37*
G36*
X71477Y-50102D02*
X71755Y-49823D01*
X71895Y-49962D01*
X71617Y-50241D01*
X71477Y-50102D01*
X71477Y-50102D01*
G37*
G36*
X71254Y-49880D02*
X71532Y-49601D01*
X71671Y-49740D01*
X71394Y-50019D01*
X71254Y-49880D01*
X71254Y-49880D01*
G37*
G36*
X73369Y-48532D02*
X73763Y-47942D01*
X74221Y-48248D01*
X73828Y-48838D01*
X73369Y-48532D01*
X73369Y-48532D01*
G37*
G36*
X72288Y-47811D02*
X72682Y-47222D01*
X73140Y-47527D01*
X72747Y-48117D01*
X72288Y-47811D01*
X72288Y-47811D01*
G37*
G36*
X73337Y-46239D02*
X73730Y-45649D01*
X74189Y-45955D01*
X73796Y-46545D01*
X73337Y-46239D01*
X73337Y-46239D01*
G37*
G36*
X74418Y-46960D02*
X74811Y-46370D01*
X75270Y-46676D01*
X74876Y-47266D01*
X74418Y-46960D01*
X74418Y-46960D01*
G37*
G36*
X73719Y-47440D02*
X73937Y-47113D01*
X74101Y-47222D01*
X73883Y-47549D01*
X73719Y-47440D01*
X73719Y-47440D01*
G37*
G36*
X73457Y-47265D02*
X73675Y-46938D01*
X73839Y-47047D01*
X73621Y-47375D01*
X73457Y-47265D01*
X73457Y-47265D01*
G37*
G36*
X75281Y-45516D02*
X75552Y-44861D01*
X76061Y-45072D01*
X75790Y-45727D01*
X75281Y-45516D01*
X75281Y-45516D01*
G37*
G36*
X74081Y-45019D02*
X74352Y-44364D01*
X74861Y-44575D01*
X74590Y-45230D01*
X74081Y-45019D01*
X74081Y-45019D01*
G37*
G36*
X74804Y-43273D02*
X75075Y-42618D01*
X75584Y-42829D01*
X75313Y-43484D01*
X74804Y-43273D01*
X74804Y-43273D01*
G37*
G36*
X76004Y-43770D02*
X76275Y-43116D01*
X76785Y-43326D01*
X76513Y-43981D01*
X76004Y-43770D01*
X76004Y-43770D01*
G37*
G36*
X75412Y-44377D02*
X75562Y-44013D01*
X75744Y-44089D01*
X75594Y-44453D01*
X75412Y-44377D01*
X75412Y-44377D01*
G37*
G36*
X75121Y-44257D02*
X75271Y-43893D01*
X75453Y-43968D01*
X75303Y-44332D01*
X75121Y-44257D01*
X75121Y-44257D01*
G37*
G36*
X76529Y-42252D02*
X76668Y-41557D01*
X77208Y-41665D01*
X77070Y-42360D01*
X76529Y-42252D01*
X76529Y-42252D01*
G37*
G36*
X75255Y-41998D02*
X75394Y-41303D01*
X75934Y-41411D01*
X75795Y-42106D01*
X75255Y-41998D01*
X75255Y-41998D01*
G37*
G36*
X75625Y-40145D02*
X75764Y-39450D01*
X76305Y-39558D01*
X76166Y-40253D01*
X75625Y-40145D01*
X75625Y-40145D01*
G37*
G36*
X76899Y-40399D02*
X77038Y-39704D01*
X77579Y-39812D01*
X77440Y-40507D01*
X76899Y-40399D01*
X76899Y-40399D01*
G37*
G36*
X76436Y-41110D02*
X76513Y-40724D01*
X76706Y-40762D01*
X76629Y-41148D01*
X76436Y-41110D01*
X76436Y-41110D01*
G37*
G36*
X76127Y-41048D02*
X76204Y-40662D01*
X76397Y-40700D01*
X76320Y-41086D01*
X76127Y-41048D01*
X76127Y-41048D01*
G37*
G54D32*
X77421Y-38346D03*
X76122Y-38346D03*
X76122Y-36456D03*
X77421Y-36456D03*
G54D33*
X76929Y-37401D03*
X76614Y-37401D03*
G54D10*
G36*
X77036Y-35138D02*
X76898Y-34443D01*
X77439Y-34336D01*
X77577Y-35031D01*
X77036Y-35138D01*
X77036Y-35138D01*
G37*
G36*
X75762Y-35391D02*
X75624Y-34696D01*
X76165Y-34588D01*
X76302Y-35284D01*
X75762Y-35391D01*
X75762Y-35391D01*
G37*
G36*
X75395Y-33537D02*
X75257Y-32842D01*
X75798Y-32735D01*
X75935Y-33430D01*
X75395Y-33537D01*
X75395Y-33537D01*
G37*
G36*
X76669Y-33285D02*
X76531Y-32589D01*
X77072Y-32482D01*
X77210Y-33177D01*
X76669Y-33285D01*
X76669Y-33285D01*
G37*
G36*
X76513Y-34118D02*
X76437Y-33732D01*
X76630Y-33694D01*
X76706Y-34080D01*
X76513Y-34118D01*
X76513Y-34118D01*
G37*
G36*
X76204Y-34179D02*
X76128Y-33793D01*
X76321Y-33755D01*
X76397Y-34141D01*
X76204Y-34179D01*
X76204Y-34179D01*
G37*
G36*
X76273Y-31688D02*
X76003Y-31033D01*
X76513Y-30823D01*
X76783Y-31478D01*
X76273Y-31688D01*
X76273Y-31688D01*
G37*
G36*
X75072Y-32183D02*
X74802Y-31528D01*
X75312Y-31318D01*
X75582Y-31973D01*
X75072Y-32183D01*
X75072Y-32183D01*
G37*
G36*
X74352Y-30436D02*
X74082Y-29781D01*
X74592Y-29571D01*
X74862Y-30226D01*
X74352Y-30436D01*
X74352Y-30436D01*
G37*
G36*
X75553Y-29941D02*
X75283Y-29286D01*
X75793Y-29076D01*
X76063Y-29731D01*
X75553Y-29941D01*
X75553Y-29941D01*
G37*
G36*
X75562Y-30789D02*
X75412Y-30425D01*
X75594Y-30350D01*
X75744Y-30714D01*
X75562Y-30789D01*
X75562Y-30789D01*
G37*
G36*
X75271Y-30909D02*
X75121Y-30545D01*
X75303Y-30470D01*
X75453Y-30834D01*
X75271Y-30909D01*
X75271Y-30909D01*
G37*
G36*
X74813Y-28430D02*
X74418Y-27841D01*
X74876Y-27535D01*
X75271Y-28123D01*
X74813Y-28430D01*
X74813Y-28430D01*
G37*
G36*
X73733Y-29153D02*
X73339Y-28564D01*
X73797Y-28257D01*
X74191Y-28846D01*
X73733Y-29153D01*
X73733Y-29153D01*
G37*
G36*
X72682Y-27582D02*
X72287Y-26994D01*
X72745Y-26687D01*
X73140Y-27276D01*
X72682Y-27582D01*
X72682Y-27582D01*
G37*
G36*
X73761Y-26860D02*
X73367Y-26271D01*
X73825Y-25964D01*
X74219Y-26553D01*
X73761Y-26860D01*
X73761Y-26860D01*
G37*
G36*
X73938Y-27689D02*
X73719Y-27362D01*
X73882Y-27253D01*
X74101Y-27580D01*
X73938Y-27689D01*
X73938Y-27689D01*
G37*
G36*
X73676Y-27864D02*
X73457Y-27537D01*
X73620Y-27428D01*
X73839Y-27755D01*
X73676Y-27864D01*
X73676Y-27864D01*
G37*
G36*
X72757Y-25536D02*
X72256Y-25035D01*
X72646Y-24645D01*
X73147Y-25146D01*
X72757Y-25536D01*
X72757Y-25536D01*
G37*
G36*
X71839Y-26454D02*
X71338Y-25953D01*
X71727Y-25563D01*
X72229Y-26065D01*
X71839Y-26454D01*
X71839Y-26454D01*
G37*
G36*
X70503Y-25118D02*
X70001Y-24617D01*
X70391Y-24227D01*
X70892Y-24728D01*
X70503Y-25118D01*
X70503Y-25118D01*
G37*
G36*
X71421Y-24199D02*
X70920Y-23698D01*
X71310Y-23308D01*
X71811Y-23810D01*
X71421Y-24199D01*
X71421Y-24199D01*
G37*
G36*
X71755Y-24979D02*
X71477Y-24700D01*
X71616Y-24561D01*
X71894Y-24840D01*
X71755Y-24979D01*
X71755Y-24979D01*
G37*
G36*
X71533Y-25202D02*
X71254Y-24923D01*
X71393Y-24784D01*
X71672Y-25062D01*
X71533Y-25202D01*
X71533Y-25202D01*
G37*
G36*
X70185Y-23089D02*
X69596Y-22694D01*
X69903Y-22236D01*
X70491Y-22631D01*
X70185Y-23089D01*
X70185Y-23089D01*
G37*
G36*
X69462Y-24168D02*
X68873Y-23774D01*
X69180Y-23316D01*
X69769Y-23710D01*
X69462Y-24168D01*
X69462Y-24168D01*
G37*
G36*
X67892Y-23117D02*
X67303Y-22723D01*
X67609Y-22265D01*
X68198Y-22659D01*
X67892Y-23117D01*
X67892Y-23117D01*
G37*
G36*
X68614Y-22037D02*
X68026Y-21643D01*
X68332Y-21185D01*
X68921Y-21579D01*
X68614Y-22037D01*
X68614Y-22037D01*
G37*
G36*
X69094Y-22737D02*
X68766Y-22518D01*
X68876Y-22355D01*
X69203Y-22574D01*
X69094Y-22737D01*
X69094Y-22737D01*
G37*
G36*
X68918Y-22999D02*
X68591Y-22780D01*
X68701Y-22616D01*
X69028Y-22835D01*
X68918Y-22999D01*
X68918Y-22999D01*
G37*
G36*
X67170Y-21175D02*
X66515Y-20904D01*
X66726Y-20394D01*
X67381Y-20666D01*
X67170Y-21175D01*
X67170Y-21175D01*
G37*
G36*
X66673Y-22375D02*
X66018Y-22104D01*
X66229Y-21595D01*
X66883Y-21866D01*
X66673Y-22375D01*
X66673Y-22375D01*
G37*
G36*
X64927Y-21652D02*
X64272Y-21381D01*
X64483Y-20871D01*
X65138Y-21143D01*
X64927Y-21652D01*
X64927Y-21652D01*
G37*
G36*
X65424Y-20452D02*
X64769Y-20180D01*
X64980Y-19671D01*
X65635Y-19942D01*
X65424Y-20452D01*
X65424Y-20452D01*
G37*
G36*
X66031Y-21044D02*
X65667Y-20893D01*
X65742Y-20711D01*
X66106Y-20862D01*
X66031Y-21044D01*
X66031Y-21044D01*
G37*
G36*
X65910Y-21335D02*
X65546Y-21184D01*
X65622Y-21002D01*
X65986Y-21153D01*
X65910Y-21335D01*
X65910Y-21335D01*
G37*
G36*
X63866Y-19927D02*
X63172Y-19788D01*
X63280Y-19247D01*
X63975Y-19386D01*
X63866Y-19927D01*
X63866Y-19927D01*
G37*
G36*
X63612Y-21201D02*
X62917Y-21062D01*
X63025Y-20521D01*
X63720Y-20660D01*
X63612Y-21201D01*
X63612Y-21201D01*
G37*
G36*
X61759Y-20830D02*
X61064Y-20692D01*
X61172Y-20151D01*
X61867Y-20290D01*
X61759Y-20830D01*
X61759Y-20830D01*
G37*
G36*
X62013Y-19556D02*
X61318Y-19418D01*
X61426Y-18877D01*
X62121Y-19016D01*
X62013Y-19556D01*
X62013Y-19556D01*
G37*
G36*
X62724Y-20020D02*
X62338Y-19942D01*
X62376Y-19749D01*
X62762Y-19826D01*
X62724Y-20020D01*
X62724Y-20020D01*
G37*
G36*
X62662Y-20328D02*
X62276Y-20251D01*
X62315Y-20058D01*
X62701Y-20135D01*
X62662Y-20328D01*
X62662Y-20328D01*
G37*
G54D34*
X60000Y-19035D03*
X60000Y-20334D03*
X58110Y-20334D03*
X58110Y-19035D03*
G54D35*
X59055Y-19527D03*
X59055Y-19842D03*
G54D36*
X56909Y-25688D03*
X56909Y-25020D03*
X61200Y-25020D03*
X61200Y-25688D03*
G54D37*
X62062Y-37161D03*
X61394Y-37161D03*
M02*
