G04 #@! TF.FileFunction,Drawing*
%FSLAX46Y46*%
G04 Gerber Fmt 4.6, Leading zero omitted, Abs format (unit mm)*
G04 Created by KiCad (PCBNEW (2015-02-16 BZR 5425)-product) date Mon 16 Feb 2015 09:15:25 PM CET*
%MOMM*%
G01*
G04 APERTURE LIST*
%ADD10C,0.100000*%
%ADD11C,0.200000*%
%ADD12C,0.203200*%
G04 APERTURE END LIST*
D10*
X199600000Y-95000000D02*
G75*
G03X199600000Y-95000000I-49600000J0D01*
G01*
X171250000Y-95000000D02*
G75*
G03X171250000Y-95000000I-21250000J0D01*
G01*
D11*
X149132663Y-130448183D02*
X146632663Y-130448183D01*
X146632663Y-130448183D02*
X146632663Y-129448183D01*
X146632663Y-129448183D02*
X149132663Y-129448183D01*
X149132663Y-129448183D02*
X149132663Y-130448183D01*
X151149660Y-129228096D02*
X152149660Y-129228096D01*
X151149660Y-131728096D02*
X151149660Y-129228096D01*
X152149660Y-131728096D02*
X151149660Y-131728096D01*
X152149660Y-129228096D02*
X152149660Y-131728096D01*
X148240000Y-121300000D02*
X148240000Y-126100000D01*
X148240000Y-126100000D02*
X151640000Y-126100000D01*
X151640000Y-126100000D02*
X151640000Y-121300000D01*
X151640000Y-121300000D02*
X148240000Y-121300000D01*
X150816300Y-122010900D02*
X150816300Y-122747500D01*
X150816300Y-122747500D02*
X149063700Y-122747500D01*
X149063700Y-122010900D02*
X149063700Y-122747500D01*
X150816300Y-122010900D02*
X149063700Y-122010900D01*
X150816300Y-124652500D02*
X150816300Y-125389100D01*
X150816300Y-125389100D02*
X149063700Y-125389100D01*
X149063700Y-124652500D02*
X149063700Y-125389100D01*
X150816300Y-124652500D02*
X149063700Y-124652500D01*
X150752800Y-124652500D02*
X150752800Y-122734800D01*
X149127200Y-124652500D02*
X149127200Y-122734800D01*
D10*
X141925499Y-55346943D02*
X142082256Y-56131435D01*
X142317744Y-55268565D02*
X142474501Y-56053057D01*
X142396123Y-55660811D02*
X142788369Y-55582432D01*
X142003877Y-55739189D02*
X141611631Y-55817568D01*
D11*
X143057169Y-54886267D02*
X141095939Y-55278159D01*
X141095939Y-55278159D02*
X141342831Y-56513733D01*
X141342831Y-56513733D02*
X143304061Y-56121841D01*
X143304061Y-56121841D02*
X143057169Y-54886267D01*
D10*
X134362151Y-57706985D02*
X134668297Y-58446088D01*
X134731703Y-57553912D02*
X135037849Y-58293015D01*
X134884776Y-57923463D02*
X135254328Y-57770390D01*
X134515224Y-58076537D02*
X134145672Y-58229610D01*
D11*
X135382789Y-57035272D02*
X133535030Y-57800639D01*
X133535030Y-57800639D02*
X134017211Y-58964728D01*
X134017211Y-58964728D02*
X135864970Y-58199361D01*
X135864970Y-58199361D02*
X135382789Y-57035272D01*
D10*
X127311285Y-61578865D02*
X127756321Y-62243653D01*
X127643679Y-61356347D02*
X128088715Y-62021135D01*
X127866197Y-61688741D02*
X128198591Y-61466223D01*
X127533803Y-61911259D02*
X127201409Y-62133777D01*
D11*
X128180518Y-60720184D02*
X126518549Y-61832775D01*
X126518549Y-61832775D02*
X127219482Y-62879816D01*
X127219482Y-62879816D02*
X128881451Y-61767225D01*
X128881451Y-61767225D02*
X128180518Y-60720184D01*
D10*
X121275736Y-66558579D02*
X121841421Y-67124264D01*
X121558579Y-66275736D02*
X122124264Y-66841421D01*
X121841421Y-66558579D02*
X122124264Y-66275736D01*
X121558579Y-66841421D02*
X121275736Y-67124264D01*
D11*
X121961630Y-65547416D02*
X120547416Y-66961630D01*
X120547416Y-66961630D02*
X121438370Y-67852584D01*
X121438370Y-67852584D02*
X122852584Y-66438370D01*
X122852584Y-66438370D02*
X121961630Y-65547416D01*
D10*
X116306249Y-72744453D02*
X116971813Y-73188329D01*
X116528187Y-72411671D02*
X117193751Y-72855547D01*
X116860969Y-72633609D02*
X117082907Y-72300828D01*
X116639031Y-72966391D02*
X116417093Y-73299172D01*
D11*
X116780713Y-71618494D02*
X115671024Y-73282402D01*
X115671024Y-73282402D02*
X116719287Y-73981506D01*
X116719287Y-73981506D02*
X117828976Y-72317598D01*
X117828976Y-72317598D02*
X116780713Y-71618494D01*
D10*
X112603912Y-79731703D02*
X113343015Y-80037849D01*
X112756985Y-79362151D02*
X113496088Y-79668297D01*
X113126537Y-79515224D02*
X113279610Y-79145672D01*
X112973463Y-79884776D02*
X112820390Y-80254328D01*
D11*
X112850639Y-78535030D02*
X112085272Y-80382789D01*
X112085272Y-80382789D02*
X113249361Y-80864970D01*
X113249361Y-80864970D02*
X114014728Y-79017211D01*
X114014728Y-79017211D02*
X112850639Y-78535030D01*
D10*
X110318771Y-87368497D02*
X111103535Y-87523885D01*
X110396465Y-86976115D02*
X111181229Y-87131503D01*
X110788847Y-87053809D02*
X110866541Y-86661427D01*
X110711153Y-87446191D02*
X110633459Y-87838573D01*
D11*
X110326233Y-86146677D02*
X109937764Y-88108588D01*
X109937764Y-88108588D02*
X111173767Y-88353323D01*
X111173767Y-88353323D02*
X111562236Y-86391412D01*
X111562236Y-86391412D02*
X110326233Y-86146677D01*
D10*
X109600000Y-95200000D02*
X110400000Y-95200000D01*
X109600000Y-94800000D02*
X110400000Y-94800000D01*
X110000000Y-94800000D02*
X110000000Y-94400000D01*
X110000000Y-95200000D02*
X110000000Y-95600000D01*
D11*
X109370000Y-94000000D02*
X109370000Y-96000000D01*
X109370000Y-96000000D02*
X110630000Y-96000000D01*
X110630000Y-96000000D02*
X110630000Y-94000000D01*
X110630000Y-94000000D02*
X109370000Y-94000000D01*
D10*
X110396943Y-103074501D02*
X111181435Y-102917744D01*
X110318565Y-102682256D02*
X111103057Y-102525499D01*
X110710811Y-102603877D02*
X110632432Y-102211631D01*
X110789189Y-102996123D02*
X110867568Y-103388369D01*
D11*
X109936267Y-101942831D02*
X110328159Y-103904061D01*
X110328159Y-103904061D02*
X111563733Y-103657169D01*
X111563733Y-103657169D02*
X111171841Y-101695939D01*
X111171841Y-101695939D02*
X109936267Y-101942831D01*
D10*
X112756985Y-110687849D02*
X113496088Y-110381703D01*
X112603912Y-110318297D02*
X113343015Y-110012151D01*
X112973463Y-110165224D02*
X112820390Y-109795672D01*
X113126537Y-110534776D02*
X113279610Y-110904328D01*
D11*
X112085272Y-109667211D02*
X112850639Y-111514970D01*
X112850639Y-111514970D02*
X114014728Y-111032789D01*
X114014728Y-111032789D02*
X113249361Y-109185030D01*
X113249361Y-109185030D02*
X112085272Y-109667211D01*
D10*
X116478865Y-117588715D02*
X117143653Y-117143679D01*
X116256347Y-117256321D02*
X116921135Y-116811285D01*
X116588741Y-117033803D02*
X116366223Y-116701409D01*
X116811259Y-117366197D02*
X117033777Y-117698591D01*
D11*
X115620184Y-116719482D02*
X116732775Y-118381451D01*
X116732775Y-118381451D02*
X117779816Y-117680518D01*
X117779816Y-117680518D02*
X116667225Y-116018549D01*
X116667225Y-116018549D02*
X115620184Y-116719482D01*
D10*
X121558579Y-123724264D02*
X122124264Y-123158579D01*
X121275736Y-123441421D02*
X121841421Y-122875736D01*
X121558579Y-123158579D02*
X121275736Y-122875736D01*
X121841421Y-123441421D02*
X122124264Y-123724264D01*
D11*
X120547416Y-123038370D02*
X121961630Y-124452584D01*
X121961630Y-124452584D02*
X122852584Y-123561630D01*
X122852584Y-123561630D02*
X121438370Y-122147416D01*
X121438370Y-122147416D02*
X120547416Y-123038370D01*
D10*
X127694453Y-128693751D02*
X128138329Y-128028187D01*
X127361671Y-128471813D02*
X127805547Y-127806249D01*
X127583609Y-128139031D02*
X127250828Y-127917093D01*
X127916391Y-128360969D02*
X128249172Y-128582907D01*
D11*
X126568494Y-128219287D02*
X128232402Y-129328976D01*
X128232402Y-129328976D02*
X128931506Y-128280713D01*
X128931506Y-128280713D02*
X127267598Y-127171024D01*
X127267598Y-127171024D02*
X126568494Y-128219287D01*
D10*
X134731703Y-132396088D02*
X135037849Y-131656985D01*
X134362151Y-132243015D02*
X134668297Y-131503912D01*
X134515224Y-131873463D02*
X134145672Y-131720390D01*
X134884776Y-132026537D02*
X135254328Y-132179610D01*
D11*
X133535030Y-132149361D02*
X135382789Y-132914728D01*
X135382789Y-132914728D02*
X135864970Y-131750639D01*
X135864970Y-131750639D02*
X134017211Y-130985272D01*
X134017211Y-130985272D02*
X133535030Y-132149361D01*
D10*
X142268497Y-134631229D02*
X142423885Y-133846465D01*
X141876115Y-134553535D02*
X142031503Y-133768771D01*
X141953809Y-134161153D02*
X141561427Y-134083459D01*
X142346191Y-134238847D02*
X142738573Y-134316541D01*
D11*
X141046677Y-134623767D02*
X143008588Y-135012236D01*
X143008588Y-135012236D02*
X143253323Y-133776233D01*
X143253323Y-133776233D02*
X141291412Y-133387764D01*
X141291412Y-133387764D02*
X141046677Y-134623767D01*
D10*
X158072030Y-134554964D02*
X157920754Y-133769397D01*
X157679246Y-134630603D02*
X157527970Y-133845036D01*
X157603608Y-134237819D02*
X157210825Y-134313457D01*
X157996392Y-134162181D02*
X158389175Y-134086543D01*
D11*
X156937171Y-135007729D02*
X158901089Y-134629539D01*
X158901089Y-134629539D02*
X158662829Y-133392271D01*
X158662829Y-133392271D02*
X156698911Y-133770461D01*
X156698911Y-133770461D02*
X156937171Y-135007729D01*
D10*
X150200000Y-135400000D02*
X150200000Y-134600000D01*
X149800000Y-135400000D02*
X149800000Y-134600000D01*
X149800000Y-135000000D02*
X149400000Y-135000000D01*
X150200000Y-135000000D02*
X150600000Y-135000000D01*
D11*
X149000000Y-135630000D02*
X151000000Y-135630000D01*
X151000000Y-135630000D02*
X151000000Y-134370000D01*
X151000000Y-134370000D02*
X149000000Y-134370000D01*
X149000000Y-134370000D02*
X149000000Y-135630000D01*
D10*
X165639379Y-132191242D02*
X165329366Y-131453752D01*
X165270634Y-132346248D02*
X164960621Y-131608758D01*
X165115627Y-131977503D02*
X164746882Y-132132509D01*
X165484373Y-131822497D02*
X165853118Y-131667491D01*
D11*
X164622272Y-132868289D02*
X166465998Y-132093258D01*
X166465998Y-132093258D02*
X165977728Y-130931711D01*
X165977728Y-130931711D02*
X164134002Y-131706742D01*
X164134002Y-131706742D02*
X164622272Y-132868289D01*
D10*
X172489485Y-128519776D02*
X172042130Y-127856546D01*
X172157870Y-128743454D02*
X171710515Y-128080224D01*
X171934192Y-128411839D02*
X171602577Y-128635516D01*
X172265808Y-128188161D02*
X172597423Y-127964484D01*
D11*
X171623254Y-129381487D02*
X173281329Y-128263101D01*
X173281329Y-128263101D02*
X172576746Y-127218513D01*
X172576746Y-127218513D02*
X170918671Y-128336899D01*
X170918671Y-128336899D02*
X171623254Y-129381487D01*
D10*
X178724264Y-123441421D02*
X178158579Y-122875736D01*
X178441421Y-123724264D02*
X177875736Y-123158579D01*
X178158579Y-123441421D02*
X177875736Y-123724264D01*
X178441421Y-123158579D02*
X178724264Y-122875736D01*
D11*
X178038370Y-124452584D02*
X179452584Y-123038370D01*
X179452584Y-123038370D02*
X178561630Y-122147416D01*
X178561630Y-122147416D02*
X177147416Y-123561630D01*
X177147416Y-123561630D02*
X178038370Y-124452584D01*
D10*
X183743653Y-117256321D02*
X183078865Y-116811285D01*
X183521135Y-117588715D02*
X182856347Y-117143679D01*
X183188741Y-117366197D02*
X182966223Y-117698591D01*
X183411259Y-117033803D02*
X183633777Y-116701409D01*
D11*
X183267225Y-118381451D02*
X184379816Y-116719482D01*
X184379816Y-116719482D02*
X183332775Y-116018549D01*
X183332775Y-116018549D02*
X182220184Y-117680518D01*
X182220184Y-117680518D02*
X183267225Y-118381451D01*
D10*
X187396088Y-110268297D02*
X186656985Y-109962151D01*
X187243015Y-110637849D02*
X186503912Y-110331703D01*
X186873463Y-110484776D02*
X186720390Y-110854328D01*
X187026537Y-110115224D02*
X187179610Y-109745672D01*
D11*
X187149361Y-111464970D02*
X187914728Y-109617211D01*
X187914728Y-109617211D02*
X186750639Y-109135030D01*
X186750639Y-109135030D02*
X185985272Y-110982789D01*
X185985272Y-110982789D02*
X187149361Y-111464970D01*
D10*
X189631435Y-102732256D02*
X188846943Y-102575499D01*
X189553057Y-103124501D02*
X188768565Y-102967744D01*
X189160811Y-103046123D02*
X189082432Y-103438369D01*
X189239189Y-102653877D02*
X189317568Y-102261631D01*
D11*
X189621841Y-103954061D02*
X190013733Y-101992831D01*
X190013733Y-101992831D02*
X188778159Y-101745939D01*
X188778159Y-101745939D02*
X188386267Y-103707169D01*
X188386267Y-103707169D02*
X189621841Y-103954061D01*
D10*
X190400000Y-94800000D02*
X189600000Y-94800000D01*
X190400000Y-95200000D02*
X189600000Y-95200000D01*
X190000000Y-95200000D02*
X190000000Y-95600000D01*
X190000000Y-94800000D02*
X190000000Y-94400000D01*
D11*
X190630000Y-96000000D02*
X190630000Y-94000000D01*
X190630000Y-94000000D02*
X189370000Y-94000000D01*
X189370000Y-94000000D02*
X189370000Y-96000000D01*
X189370000Y-96000000D02*
X190630000Y-96000000D01*
D10*
X189603535Y-86926115D02*
X188818771Y-87081503D01*
X189681229Y-87318497D02*
X188896465Y-87473885D01*
X189288847Y-87396191D02*
X189366541Y-87788573D01*
X189211153Y-87003809D02*
X189133459Y-86611427D01*
D11*
X190062236Y-88058588D02*
X189673767Y-86096677D01*
X189673767Y-86096677D02*
X188437764Y-86341412D01*
X188437764Y-86341412D02*
X188826233Y-88303323D01*
X188826233Y-88303323D02*
X190062236Y-88058588D01*
D10*
X187243015Y-79362151D02*
X186503912Y-79668297D01*
X187396088Y-79731703D02*
X186656985Y-80037849D01*
X187026537Y-79884776D02*
X187179610Y-80254328D01*
X186873463Y-79515224D02*
X186720390Y-79145672D01*
D11*
X187914728Y-80382789D02*
X187149361Y-78535030D01*
X187149361Y-78535030D02*
X185985272Y-79017211D01*
X185985272Y-79017211D02*
X186750639Y-80864970D01*
X186750639Y-80864970D02*
X187914728Y-80382789D01*
D10*
X183471135Y-72361285D02*
X182806347Y-72806321D01*
X183693653Y-72693679D02*
X183028865Y-73138715D01*
X183361259Y-72916197D02*
X183583777Y-73248591D01*
X183138741Y-72583803D02*
X182916223Y-72251409D01*
D11*
X184329816Y-73230518D02*
X183217225Y-71568549D01*
X183217225Y-71568549D02*
X182170184Y-72269482D01*
X182170184Y-72269482D02*
X183282775Y-73931451D01*
X183282775Y-73931451D02*
X184329816Y-73230518D01*
D10*
X178441421Y-66275736D02*
X177875736Y-66841421D01*
X178724264Y-66558579D02*
X178158579Y-67124264D01*
X178441421Y-66841421D02*
X178724264Y-67124264D01*
X178158579Y-66558579D02*
X177875736Y-66275736D01*
D11*
X179452584Y-66961630D02*
X178038370Y-65547416D01*
X178038370Y-65547416D02*
X177147416Y-66438370D01*
X177147416Y-66438370D02*
X178561630Y-67852584D01*
X178561630Y-67852584D02*
X179452584Y-66961630D01*
D10*
X172352448Y-61355872D02*
X171913229Y-62024518D01*
X172686771Y-61575482D02*
X172247552Y-62244128D01*
X172467161Y-61909805D02*
X172801484Y-62129414D01*
X172132839Y-61690195D02*
X171798516Y-61470586D01*
D11*
X173481692Y-61822464D02*
X171810077Y-60724419D01*
X171810077Y-60724419D02*
X171118308Y-61777536D01*
X171118308Y-61777536D02*
X172789923Y-62875581D01*
X172789923Y-62875581D02*
X173481692Y-61822464D01*
D10*
X165268297Y-57553912D02*
X164962151Y-58293015D01*
X165637849Y-57706985D02*
X165331703Y-58446088D01*
X165484776Y-58076537D02*
X165854328Y-58229610D01*
X165115224Y-57923463D02*
X164745672Y-57770390D01*
D11*
X166464970Y-57800639D02*
X164617211Y-57035272D01*
X164617211Y-57035272D02*
X164135030Y-58199361D01*
X164135030Y-58199361D02*
X165982789Y-58964728D01*
X165982789Y-58964728D02*
X166464970Y-57800639D01*
D10*
X157682256Y-55368565D02*
X157525499Y-56153057D01*
X158074501Y-55446943D02*
X157917744Y-56231435D01*
X157996123Y-55839189D02*
X158388369Y-55917568D01*
X157603877Y-55760811D02*
X157211631Y-55682432D01*
D11*
X158904061Y-55378159D02*
X156942831Y-54986267D01*
X156942831Y-54986267D02*
X156695939Y-56221841D01*
X156695939Y-56221841D02*
X158657169Y-56613733D01*
X158657169Y-56613733D02*
X158904061Y-55378159D01*
D10*
X149800000Y-54600000D02*
X149800000Y-55400000D01*
X150200000Y-54600000D02*
X150200000Y-55400000D01*
X150200000Y-55000000D02*
X150600000Y-55000000D01*
X149800000Y-55000000D02*
X149400000Y-55000000D01*
D11*
X151000000Y-54370000D02*
X149000000Y-54370000D01*
X149000000Y-54370000D02*
X149000000Y-55630000D01*
X149000000Y-55630000D02*
X151000000Y-55630000D01*
X151000000Y-55630000D02*
X151000000Y-54370000D01*
D10*
X142082256Y-56131435D02*
X141925499Y-55346943D01*
X142474501Y-56053057D02*
X142317744Y-55268565D01*
X142396123Y-55660811D02*
X142788369Y-55582432D01*
X142003877Y-55739189D02*
X141611631Y-55817568D01*
D11*
X143304061Y-56121841D02*
X141342831Y-56513733D01*
X141342831Y-56513733D02*
X141095939Y-55278159D01*
X141095939Y-55278159D02*
X143057169Y-54886267D01*
X143057169Y-54886267D02*
X143304061Y-56121841D01*
D10*
X134668297Y-58446088D02*
X134362151Y-57706985D01*
X135037849Y-58293015D02*
X134731703Y-57553912D01*
X134884776Y-57923463D02*
X135254328Y-57770390D01*
X134515224Y-58076537D02*
X134145672Y-58229610D01*
D11*
X135864970Y-58199361D02*
X134017211Y-58964728D01*
X134017211Y-58964728D02*
X133535030Y-57800639D01*
X133535030Y-57800639D02*
X135382789Y-57035272D01*
X135382789Y-57035272D02*
X135864970Y-58199361D01*
D10*
X127756321Y-62243653D02*
X127311285Y-61578865D01*
X128088715Y-62021135D02*
X127643679Y-61356347D01*
X127866197Y-61688741D02*
X128198591Y-61466223D01*
X127533803Y-61911259D02*
X127201409Y-62133777D01*
D11*
X128881451Y-61767225D02*
X127219482Y-62879816D01*
X127219482Y-62879816D02*
X126518549Y-61832775D01*
X126518549Y-61832775D02*
X128180518Y-60720184D01*
X128180518Y-60720184D02*
X128881451Y-61767225D01*
D10*
X121841421Y-67124264D02*
X121275736Y-66558579D01*
X122124264Y-66841421D02*
X121558579Y-66275736D01*
X121841421Y-66558579D02*
X122124264Y-66275736D01*
X121558579Y-66841421D02*
X121275736Y-67124264D01*
D11*
X122852584Y-66438370D02*
X121438370Y-67852584D01*
X121438370Y-67852584D02*
X120547416Y-66961630D01*
X120547416Y-66961630D02*
X121961630Y-65547416D01*
X121961630Y-65547416D02*
X122852584Y-66438370D01*
D10*
X116971813Y-73188329D02*
X116306249Y-72744453D01*
X117193751Y-72855547D02*
X116528187Y-72411671D01*
X116860969Y-72633609D02*
X117082907Y-72300828D01*
X116639031Y-72966391D02*
X116417093Y-73299172D01*
D11*
X117828976Y-72317598D02*
X116719287Y-73981506D01*
X116719287Y-73981506D02*
X115671024Y-73282402D01*
X115671024Y-73282402D02*
X116780713Y-71618494D01*
X116780713Y-71618494D02*
X117828976Y-72317598D01*
D10*
X113343015Y-80037849D02*
X112603912Y-79731703D01*
X113496088Y-79668297D02*
X112756985Y-79362151D01*
X113126537Y-79515224D02*
X113279610Y-79145672D01*
X112973463Y-79884776D02*
X112820390Y-80254328D01*
D11*
X114014728Y-79017211D02*
X113249361Y-80864970D01*
X113249361Y-80864970D02*
X112085272Y-80382789D01*
X112085272Y-80382789D02*
X112850639Y-78535030D01*
X112850639Y-78535030D02*
X114014728Y-79017211D01*
D10*
X111103535Y-87523885D02*
X110318771Y-87368497D01*
X111181229Y-87131503D02*
X110396465Y-86976115D01*
X110788847Y-87053809D02*
X110866541Y-86661427D01*
X110711153Y-87446191D02*
X110633459Y-87838573D01*
D11*
X111562236Y-86391412D02*
X111173767Y-88353323D01*
X111173767Y-88353323D02*
X109937764Y-88108588D01*
X109937764Y-88108588D02*
X110326233Y-86146677D01*
X110326233Y-86146677D02*
X111562236Y-86391412D01*
D10*
X110400000Y-95200000D02*
X109600000Y-95200000D01*
X110400000Y-94800000D02*
X109600000Y-94800000D01*
X110000000Y-94800000D02*
X110000000Y-94400000D01*
X110000000Y-95200000D02*
X110000000Y-95600000D01*
D11*
X110630000Y-94000000D02*
X110630000Y-96000000D01*
X110630000Y-96000000D02*
X109370000Y-96000000D01*
X109370000Y-96000000D02*
X109370000Y-94000000D01*
X109370000Y-94000000D02*
X110630000Y-94000000D01*
D10*
X111181435Y-102917744D02*
X110396943Y-103074501D01*
X111103057Y-102525499D02*
X110318565Y-102682256D01*
X110710811Y-102603877D02*
X110632432Y-102211631D01*
X110789189Y-102996123D02*
X110867568Y-103388369D01*
D11*
X111171841Y-101695939D02*
X111563733Y-103657169D01*
X111563733Y-103657169D02*
X110328159Y-103904061D01*
X110328159Y-103904061D02*
X109936267Y-101942831D01*
X109936267Y-101942831D02*
X111171841Y-101695939D01*
D10*
X113496088Y-110381703D02*
X112756985Y-110687849D01*
X113343015Y-110012151D02*
X112603912Y-110318297D01*
X112973463Y-110165224D02*
X112820390Y-109795672D01*
X113126537Y-110534776D02*
X113279610Y-110904328D01*
D11*
X113249361Y-109185030D02*
X114014728Y-111032789D01*
X114014728Y-111032789D02*
X112850639Y-111514970D01*
X112850639Y-111514970D02*
X112085272Y-109667211D01*
X112085272Y-109667211D02*
X113249361Y-109185030D01*
D10*
X117143653Y-117143679D02*
X116478865Y-117588715D01*
X116921135Y-116811285D02*
X116256347Y-117256321D01*
X116588741Y-117033803D02*
X116366223Y-116701409D01*
X116811259Y-117366197D02*
X117033777Y-117698591D01*
D11*
X116667225Y-116018549D02*
X117779816Y-117680518D01*
X117779816Y-117680518D02*
X116732775Y-118381451D01*
X116732775Y-118381451D02*
X115620184Y-116719482D01*
X115620184Y-116719482D02*
X116667225Y-116018549D01*
D10*
X122124264Y-123158579D02*
X121558579Y-123724264D01*
X121841421Y-122875736D02*
X121275736Y-123441421D01*
X121558579Y-123158579D02*
X121275736Y-122875736D01*
X121841421Y-123441421D02*
X122124264Y-123724264D01*
D11*
X121438370Y-122147416D02*
X122852584Y-123561630D01*
X122852584Y-123561630D02*
X121961630Y-124452584D01*
X121961630Y-124452584D02*
X120547416Y-123038370D01*
X120547416Y-123038370D02*
X121438370Y-122147416D01*
D10*
X128138329Y-128028187D02*
X127694453Y-128693751D01*
X127805547Y-127806249D02*
X127361671Y-128471813D01*
X127583609Y-128139031D02*
X127250828Y-127917093D01*
X127916391Y-128360969D02*
X128249172Y-128582907D01*
D11*
X127267598Y-127171024D02*
X128931506Y-128280713D01*
X128931506Y-128280713D02*
X128232402Y-129328976D01*
X128232402Y-129328976D02*
X126568494Y-128219287D01*
X126568494Y-128219287D02*
X127267598Y-127171024D01*
D10*
X135037849Y-131656985D02*
X134731703Y-132396088D01*
X134668297Y-131503912D02*
X134362151Y-132243015D01*
X134515224Y-131873463D02*
X134145672Y-131720390D01*
X134884776Y-132026537D02*
X135254328Y-132179610D01*
D11*
X134017211Y-130985272D02*
X135864970Y-131750639D01*
X135864970Y-131750639D02*
X135382789Y-132914728D01*
X135382789Y-132914728D02*
X133535030Y-132149361D01*
X133535030Y-132149361D02*
X134017211Y-130985272D01*
D10*
X142423885Y-133846465D02*
X142268497Y-134631229D01*
X142031503Y-133768771D02*
X141876115Y-134553535D01*
X141953809Y-134161153D02*
X141561427Y-134083459D01*
X142346191Y-134238847D02*
X142738573Y-134316541D01*
D11*
X141291412Y-133387764D02*
X143253323Y-133776233D01*
X143253323Y-133776233D02*
X143008588Y-135012236D01*
X143008588Y-135012236D02*
X141046677Y-134623767D01*
X141046677Y-134623767D02*
X141291412Y-133387764D01*
D10*
X150200000Y-134600000D02*
X150200000Y-135400000D01*
X149800000Y-134600000D02*
X149800000Y-135400000D01*
X149800000Y-135000000D02*
X149400000Y-135000000D01*
X150200000Y-135000000D02*
X150600000Y-135000000D01*
D11*
X149000000Y-134370000D02*
X151000000Y-134370000D01*
X151000000Y-134370000D02*
X151000000Y-135630000D01*
X151000000Y-135630000D02*
X149000000Y-135630000D01*
X149000000Y-135630000D02*
X149000000Y-134370000D01*
D10*
X157915484Y-133767954D02*
X158076346Y-134551615D01*
X157523654Y-133848385D02*
X157684516Y-134632046D01*
X157604085Y-134240216D02*
X157212255Y-134320647D01*
X157995915Y-134159784D02*
X158387745Y-134079353D01*
D11*
X156693746Y-133783946D02*
X158652896Y-133381790D01*
X158652896Y-133381790D02*
X158906254Y-134616054D01*
X158906254Y-134616054D02*
X156947104Y-135018210D01*
X156947104Y-135018210D02*
X156693746Y-133783946D01*
D10*
X165329366Y-131453752D02*
X165639379Y-132191242D01*
X164960621Y-131608758D02*
X165270634Y-132346248D01*
X165115627Y-131977503D02*
X164746882Y-132132509D01*
X165484373Y-131822497D02*
X165853118Y-131667491D01*
D11*
X164134002Y-131706742D02*
X165977728Y-130931711D01*
X165977728Y-130931711D02*
X166465998Y-132093258D01*
X166465998Y-132093258D02*
X164622272Y-132868289D01*
X164622272Y-132868289D02*
X164134002Y-131706742D01*
D10*
X172042130Y-127856546D02*
X172489485Y-128519776D01*
X171710515Y-128080224D02*
X172157870Y-128743454D01*
X171934192Y-128411839D02*
X171602577Y-128635516D01*
X172265808Y-128188161D02*
X172597423Y-127964484D01*
D11*
X170918671Y-128336899D02*
X172576746Y-127218513D01*
X172576746Y-127218513D02*
X173281329Y-128263101D01*
X173281329Y-128263101D02*
X171623254Y-129381487D01*
X171623254Y-129381487D02*
X170918671Y-128336899D01*
D10*
X178158579Y-122875736D02*
X178724264Y-123441421D01*
X177875736Y-123158579D02*
X178441421Y-123724264D01*
X178158579Y-123441421D02*
X177875736Y-123724264D01*
X178441421Y-123158579D02*
X178724264Y-122875736D01*
D11*
X177147416Y-123561630D02*
X178561630Y-122147416D01*
X178561630Y-122147416D02*
X179452584Y-123038370D01*
X179452584Y-123038370D02*
X178038370Y-124452584D01*
X178038370Y-124452584D02*
X177147416Y-123561630D01*
D10*
X183078865Y-116811285D02*
X183743653Y-117256321D01*
X182856347Y-117143679D02*
X183521135Y-117588715D01*
X183188741Y-117366197D02*
X182966223Y-117698591D01*
X183411259Y-117033803D02*
X183633777Y-116701409D01*
D11*
X182220184Y-117680518D02*
X183332775Y-116018549D01*
X183332775Y-116018549D02*
X184379816Y-116719482D01*
X184379816Y-116719482D02*
X183267225Y-118381451D01*
X183267225Y-118381451D02*
X182220184Y-117680518D01*
D10*
X186657575Y-109961640D02*
X187396143Y-110269076D01*
X186503857Y-110330924D02*
X187242425Y-110638360D01*
X186873141Y-110484642D02*
X186719423Y-110853926D01*
X187026859Y-110115358D02*
X187180577Y-109746074D01*
D11*
X185984082Y-110981104D02*
X186752673Y-109134684D01*
X186752673Y-109134684D02*
X187915918Y-109618896D01*
X187915918Y-109618896D02*
X187147327Y-111465316D01*
X187147327Y-111465316D02*
X185984082Y-110981104D01*
D10*
X188846943Y-102575499D02*
X189631435Y-102732256D01*
X188768565Y-102967744D02*
X189553057Y-103124501D01*
X189160811Y-103046123D02*
X189082432Y-103438369D01*
X189239189Y-102653877D02*
X189317568Y-102261631D01*
D11*
X188386267Y-103707169D02*
X188778159Y-101745939D01*
X188778159Y-101745939D02*
X190013733Y-101992831D01*
X190013733Y-101992831D02*
X189621841Y-103954061D01*
X189621841Y-103954061D02*
X188386267Y-103707169D01*
D10*
X189600000Y-94800000D02*
X190400000Y-94800000D01*
X189600000Y-95200000D02*
X190400000Y-95200000D01*
X190000000Y-95200000D02*
X190000000Y-95600000D01*
X190000000Y-94800000D02*
X190000000Y-94400000D01*
D11*
X189370000Y-96000000D02*
X189370000Y-94000000D01*
X189370000Y-94000000D02*
X190630000Y-94000000D01*
X190630000Y-94000000D02*
X190630000Y-96000000D01*
X190630000Y-96000000D02*
X189370000Y-96000000D01*
D10*
X188818771Y-87081503D02*
X189603535Y-86926115D01*
X188896465Y-87473885D02*
X189681229Y-87318497D01*
X189288847Y-87396191D02*
X189366541Y-87788573D01*
X189211153Y-87003809D02*
X189133459Y-86611427D01*
D11*
X188826233Y-88303323D02*
X188437764Y-86341412D01*
X188437764Y-86341412D02*
X189673767Y-86096677D01*
X189673767Y-86096677D02*
X190062236Y-88058588D01*
X190062236Y-88058588D02*
X188826233Y-88303323D01*
D10*
X186503857Y-79669076D02*
X187242425Y-79361640D01*
X186657575Y-80038360D02*
X187396143Y-79730924D01*
X187026859Y-79884642D02*
X187180577Y-80253926D01*
X186873141Y-79515358D02*
X186719423Y-79146074D01*
D11*
X186752673Y-80865316D02*
X185984082Y-79018896D01*
X185984082Y-79018896D02*
X187147327Y-78534684D01*
X187147327Y-78534684D02*
X187915918Y-80381104D01*
X187915918Y-80381104D02*
X186752673Y-80865316D01*
D10*
X182806347Y-72806321D02*
X183471135Y-72361285D01*
X183028865Y-73138715D02*
X183693653Y-72693679D01*
X183361259Y-72916197D02*
X183583777Y-73248591D01*
X183138741Y-72583803D02*
X182916223Y-72251409D01*
D11*
X183282775Y-73931451D02*
X182170184Y-72269482D01*
X182170184Y-72269482D02*
X183217225Y-71568549D01*
X183217225Y-71568549D02*
X184329816Y-73230518D01*
X184329816Y-73230518D02*
X183282775Y-73931451D01*
D10*
X177875736Y-66841421D02*
X178441421Y-66275736D01*
X178158579Y-67124264D02*
X178724264Y-66558579D01*
X178441421Y-66841421D02*
X178724264Y-67124264D01*
X178158579Y-66558579D02*
X177875736Y-66275736D01*
D11*
X178561630Y-67852584D02*
X177147416Y-66438370D01*
X177147416Y-66438370D02*
X178038370Y-65547416D01*
X178038370Y-65547416D02*
X179452584Y-66961630D01*
X179452584Y-66961630D02*
X178561630Y-67852584D01*
D10*
X171911285Y-62021135D02*
X172356321Y-61356347D01*
X172243679Y-62243653D02*
X172688715Y-61578865D01*
X172466197Y-61911259D02*
X172798591Y-62133777D01*
X172133803Y-61688741D02*
X171801409Y-61466223D01*
D11*
X172780518Y-62879816D02*
X171118549Y-61767225D01*
X171118549Y-61767225D02*
X171819482Y-60720184D01*
X171819482Y-60720184D02*
X173481451Y-61832775D01*
X173481451Y-61832775D02*
X172780518Y-62879816D01*
D10*
X164962151Y-58293015D02*
X165268297Y-57553912D01*
X165331703Y-58446088D02*
X165637849Y-57706985D01*
X165484776Y-58076537D02*
X165854328Y-58229610D01*
X165115224Y-57923463D02*
X164745672Y-57770390D01*
D11*
X165982789Y-58964728D02*
X164135030Y-58199361D01*
X164135030Y-58199361D02*
X164617211Y-57035272D01*
X164617211Y-57035272D02*
X166464970Y-57800639D01*
X166464970Y-57800639D02*
X165982789Y-58964728D01*
D10*
X157525499Y-56153057D02*
X157682256Y-55368565D01*
X157917744Y-56231435D02*
X158074501Y-55446943D01*
X157996123Y-55839189D02*
X158388369Y-55917568D01*
X157603877Y-55760811D02*
X157211631Y-55682432D01*
D11*
X158657169Y-56613733D02*
X156695939Y-56221841D01*
X156695939Y-56221841D02*
X156942831Y-54986267D01*
X156942831Y-54986267D02*
X158904061Y-55378159D01*
X158904061Y-55378159D02*
X158657169Y-56613733D01*
D10*
X149800000Y-55400000D02*
X149800000Y-54600000D01*
X150200000Y-55400000D02*
X150200000Y-54600000D01*
X150200000Y-55000000D02*
X150600000Y-55000000D01*
X149800000Y-55000000D02*
X149400000Y-55000000D01*
D11*
X151000000Y-55630000D02*
X149000000Y-55630000D01*
X149000000Y-55630000D02*
X149000000Y-54370000D01*
X149000000Y-54370000D02*
X151000000Y-54370000D01*
X151000000Y-54370000D02*
X151000000Y-55630000D01*
D12*
X138436976Y-49330575D02*
X138358598Y-48938329D01*
X139083599Y-52566603D02*
X138613328Y-50213128D01*
X139338329Y-53841402D02*
X139259950Y-53449156D01*
X143340050Y-48350844D02*
X143261671Y-47958598D01*
X143986672Y-51586872D02*
X143516401Y-49233397D01*
X144241402Y-52861671D02*
X144163024Y-52469425D01*
X144359146Y-52430236D02*
X144182795Y-51547683D01*
X144182795Y-51547683D02*
X143300242Y-51724035D01*
X143300242Y-51724035D02*
X143476593Y-52606588D01*
X143476593Y-52606588D02*
X144359146Y-52430236D01*
X143536173Y-48311655D02*
X143712524Y-49194208D01*
X143712524Y-49194208D02*
X142829971Y-49370559D01*
X142829971Y-49370559D02*
X142653619Y-48488006D01*
X142653619Y-48488006D02*
X143536173Y-48311655D01*
D11*
X139063827Y-53488345D02*
X139946381Y-53311994D01*
X139946381Y-53311994D02*
X139770029Y-52429441D01*
X139770029Y-52429441D02*
X138887476Y-52605792D01*
X138887476Y-52605792D02*
X139063827Y-53488345D01*
X138417205Y-50252317D02*
X139299758Y-50075965D01*
X139299758Y-50075965D02*
X139123407Y-49193412D01*
X139123407Y-49193412D02*
X138240854Y-49369764D01*
X138240854Y-49369764D02*
X138417205Y-50252317D01*
X143261671Y-47958598D02*
X138358598Y-48938329D01*
X139338831Y-53840649D02*
X144240649Y-52861169D01*
D12*
X129686666Y-52416562D02*
X129533593Y-52047010D01*
X130949521Y-55465364D02*
X130031081Y-53248053D01*
X131447010Y-56666407D02*
X131293936Y-56296856D01*
X134306064Y-50503144D02*
X134152990Y-50133593D01*
X135568919Y-53551947D02*
X134650479Y-51334636D01*
X136066407Y-54752990D02*
X135913334Y-54383438D01*
X136098110Y-54306902D02*
X135753695Y-53475410D01*
X135753695Y-53475410D02*
X134922203Y-53819825D01*
X134922203Y-53819825D02*
X135266618Y-54651317D01*
X135266618Y-54651317D02*
X136098110Y-54306902D01*
X134490840Y-50426608D02*
X134835255Y-51258099D01*
X134835255Y-51258099D02*
X134003763Y-51602514D01*
X134003763Y-51602514D02*
X133659348Y-50771023D01*
X133659348Y-50771023D02*
X134490840Y-50426608D01*
D11*
X131109160Y-56373392D02*
X131940652Y-56028977D01*
X131940652Y-56028977D02*
X131596237Y-55197486D01*
X131596237Y-55197486D02*
X130764745Y-55541901D01*
X130764745Y-55541901D02*
X131109160Y-56373392D01*
X129846305Y-53324590D02*
X130677797Y-52980175D01*
X130677797Y-52980175D02*
X130333382Y-52148683D01*
X130333382Y-52148683D02*
X129501890Y-52493098D01*
X129501890Y-52493098D02*
X129846305Y-53324590D01*
X134152990Y-50133593D02*
X129533593Y-52047010D01*
X131447356Y-56665571D02*
X136065571Y-54752644D01*
D12*
X121754318Y-57245672D02*
X121531800Y-56913278D01*
X123590094Y-59987920D02*
X122254984Y-57993558D01*
X124313278Y-61068200D02*
X124090760Y-60735806D01*
X125909240Y-54464194D02*
X125686722Y-54131800D01*
X127745016Y-57206442D02*
X126409906Y-55212080D01*
X128468200Y-58286722D02*
X128245682Y-57954328D01*
X128411879Y-57843069D02*
X127911213Y-57095183D01*
X127911213Y-57095183D02*
X127163327Y-57595849D01*
X127163327Y-57595849D02*
X127663993Y-58343735D01*
X127663993Y-58343735D02*
X128411879Y-57843069D01*
X126075437Y-54352934D02*
X126576103Y-55100820D01*
X126576103Y-55100820D02*
X125828217Y-55601487D01*
X125828217Y-55601487D02*
X125327551Y-54853601D01*
X125327551Y-54853601D02*
X126075437Y-54352934D01*
D11*
X123924563Y-60847066D02*
X124672449Y-60346399D01*
X124672449Y-60346399D02*
X124171783Y-59598513D01*
X124171783Y-59598513D02*
X123423897Y-60099180D01*
X123423897Y-60099180D02*
X123924563Y-60847066D01*
X122088787Y-58104817D02*
X122836673Y-57604151D01*
X122836673Y-57604151D02*
X122336007Y-56856265D01*
X122336007Y-56856265D02*
X121588121Y-57356931D01*
X121588121Y-57356931D02*
X122088787Y-58104817D01*
X125686722Y-54131800D02*
X121531800Y-56913278D01*
X124313454Y-61067312D02*
X128467312Y-58286546D01*
D12*
X114897309Y-63482843D02*
X114614466Y-63200000D01*
X117230761Y-65816295D02*
X115533705Y-64119239D01*
X118150000Y-66735534D02*
X117867157Y-66452691D01*
X118432843Y-59947309D02*
X118150000Y-59664466D01*
X120766295Y-62280761D02*
X119069239Y-60583705D01*
X121685534Y-63200000D02*
X121402691Y-62917157D01*
X121544113Y-62775736D02*
X120907716Y-62139340D01*
X120907716Y-62139340D02*
X120271320Y-62775736D01*
X120271320Y-62775736D02*
X120907716Y-63412132D01*
X120907716Y-63412132D02*
X121544113Y-62775736D01*
X118574264Y-59805887D02*
X119210660Y-60442284D01*
X119210660Y-60442284D02*
X118574264Y-61078680D01*
X118574264Y-61078680D02*
X117937868Y-60442284D01*
X117937868Y-60442284D02*
X118574264Y-59805887D01*
D11*
X117725736Y-66594113D02*
X118362132Y-65957716D01*
X118362132Y-65957716D02*
X117725736Y-65321320D01*
X117725736Y-65321320D02*
X117089340Y-65957716D01*
X117089340Y-65957716D02*
X117725736Y-66594113D01*
X115392284Y-64260660D02*
X116028680Y-63624264D01*
X116028680Y-63624264D02*
X115392284Y-62987868D01*
X115392284Y-62987868D02*
X114755887Y-63624264D01*
X114755887Y-63624264D02*
X115392284Y-64260660D01*
X118150000Y-59664466D02*
X114614466Y-63200000D01*
X118150000Y-66734629D02*
X121684629Y-63200000D01*
D12*
X109415785Y-70964712D02*
X109083004Y-70742774D01*
X112161234Y-72795699D02*
X110164544Y-71464072D01*
X113242774Y-73516996D02*
X112909993Y-73295059D01*
X112190007Y-66804941D02*
X111857226Y-66583004D01*
X114935456Y-68635928D02*
X112938766Y-67304301D01*
X116016996Y-69357226D02*
X115684215Y-69135288D01*
X115795184Y-68968897D02*
X115046425Y-68469537D01*
X115046425Y-68469537D02*
X114547065Y-69218296D01*
X114547065Y-69218296D02*
X115295824Y-69717656D01*
X115295824Y-69717656D02*
X115795184Y-68968897D01*
X112300976Y-66638551D02*
X113049735Y-67137911D01*
X113049735Y-67137911D02*
X112550375Y-67886669D01*
X112550375Y-67886669D02*
X111801616Y-67387309D01*
X111801616Y-67387309D02*
X112300976Y-66638551D01*
D11*
X112799024Y-73461449D02*
X113298384Y-72712691D01*
X113298384Y-72712691D02*
X112549625Y-72213331D01*
X112549625Y-72213331D02*
X112050265Y-72962089D01*
X112050265Y-72962089D02*
X112799024Y-73461449D01*
X110053575Y-71630463D02*
X110552935Y-70881704D01*
X110552935Y-70881704D02*
X109804176Y-70382344D01*
X109804176Y-70382344D02*
X109304816Y-71131103D01*
X109304816Y-71131103D02*
X110053575Y-71630463D01*
X111857226Y-66583004D02*
X109083004Y-70742774D01*
X113242597Y-73516109D02*
X116016109Y-69357403D01*
D12*
X105503144Y-79306064D02*
X105133593Y-79152990D01*
X108551947Y-80568919D02*
X106334636Y-79650479D01*
X109752990Y-81066407D02*
X109383438Y-80913334D01*
X107416562Y-74686666D02*
X107047010Y-74533593D01*
X110465364Y-75949521D02*
X108248053Y-75031081D01*
X111666407Y-76447010D02*
X111296856Y-76293936D01*
X111373392Y-76109160D02*
X110541901Y-75764745D01*
X110541901Y-75764745D02*
X110197486Y-76596237D01*
X110197486Y-76596237D02*
X111028977Y-76940652D01*
X111028977Y-76940652D02*
X111373392Y-76109160D01*
X107493098Y-74501890D02*
X108324590Y-74846305D01*
X108324590Y-74846305D02*
X107980175Y-75677797D01*
X107980175Y-75677797D02*
X107148683Y-75333382D01*
X107148683Y-75333382D02*
X107493098Y-74501890D01*
D11*
X109306902Y-81098110D02*
X109651317Y-80266618D01*
X109651317Y-80266618D02*
X108819825Y-79922203D01*
X108819825Y-79922203D02*
X108475410Y-80753695D01*
X108475410Y-80753695D02*
X109306902Y-81098110D01*
X106258099Y-79835255D02*
X106602514Y-79003763D01*
X106602514Y-79003763D02*
X105771023Y-78659348D01*
X105771023Y-78659348D02*
X105426608Y-79490840D01*
X105426608Y-79490840D02*
X106258099Y-79835255D01*
X107047010Y-74533593D02*
X105133593Y-79152990D01*
X109752644Y-81065571D02*
X111665571Y-76447356D01*
D12*
X103304408Y-88294496D02*
X102912026Y-88216802D01*
X106541560Y-88935469D02*
X104187268Y-88469307D01*
X107816802Y-89187974D02*
X107424420Y-89110280D01*
X104275580Y-83389720D02*
X103883198Y-83312026D01*
X107512732Y-84030693D02*
X105158440Y-83564531D01*
X108787974Y-84283198D02*
X108395592Y-84205504D01*
X108434439Y-84009313D02*
X107551579Y-83834502D01*
X107551579Y-83834502D02*
X107376768Y-84717362D01*
X107376768Y-84717362D02*
X108259628Y-84892173D01*
X108259628Y-84892173D02*
X108434439Y-84009313D01*
X104314427Y-83193529D02*
X105197287Y-83368340D01*
X105197287Y-83368340D02*
X105022476Y-84251199D01*
X105022476Y-84251199D02*
X104139616Y-84076389D01*
X104139616Y-84076389D02*
X104314427Y-83193529D01*
D11*
X107385573Y-89306471D02*
X107560384Y-88423611D01*
X107560384Y-88423611D02*
X106677524Y-88248801D01*
X106677524Y-88248801D02*
X106502713Y-89131660D01*
X106502713Y-89131660D02*
X107385573Y-89306471D01*
X104148421Y-88665498D02*
X104323232Y-87782638D01*
X104323232Y-87782638D02*
X103440372Y-87607827D01*
X103440372Y-87607827D02*
X103265561Y-88490687D01*
X103265561Y-88490687D02*
X104148421Y-88665498D01*
X103883198Y-83312026D02*
X102912026Y-88216802D01*
X107816299Y-89187222D02*
X108787222Y-84283701D01*
D12*
X102900000Y-97500000D02*
X102500000Y-97500000D01*
X106200000Y-97500000D02*
X103800000Y-97500000D01*
X107500000Y-97500000D02*
X107100000Y-97500000D01*
X102900000Y-92500000D02*
X102500000Y-92500000D01*
X106200000Y-92500000D02*
X103800000Y-92500000D01*
X107500000Y-92500000D02*
X107100000Y-92500000D01*
X107100000Y-92300000D02*
X106200000Y-92300000D01*
X106200000Y-92300000D02*
X106200000Y-93200000D01*
X106200000Y-93200000D02*
X107100000Y-93200000D01*
X107100000Y-93200000D02*
X107100000Y-92300000D01*
X102900000Y-92300000D02*
X103800000Y-92300000D01*
X103800000Y-92300000D02*
X103800000Y-93200000D01*
X103800000Y-93200000D02*
X102900000Y-93200000D01*
X102900000Y-93200000D02*
X102900000Y-92300000D01*
D11*
X107100000Y-97700000D02*
X107100000Y-96800000D01*
X107100000Y-96800000D02*
X106200000Y-96800000D01*
X106200000Y-96800000D02*
X106200000Y-97700000D01*
X106200000Y-97700000D02*
X107100000Y-97700000D01*
X103800000Y-97700000D02*
X103800000Y-96800000D01*
X103800000Y-96800000D02*
X102900000Y-96800000D01*
X102900000Y-96800000D02*
X102900000Y-97700000D01*
X102900000Y-97700000D02*
X103800000Y-97700000D01*
X102500000Y-92500000D02*
X102500000Y-97500000D01*
X107499360Y-97499360D02*
X107499360Y-92500640D01*
D12*
X104280575Y-106613024D02*
X103888329Y-106691402D01*
X107516603Y-105966401D02*
X105163128Y-106436672D01*
X108791402Y-105711671D02*
X108399156Y-105790050D01*
X103300844Y-101709950D02*
X102908598Y-101788329D01*
X106536872Y-101063328D02*
X104183397Y-101533599D01*
X107811671Y-100808598D02*
X107419425Y-100886976D01*
X107380236Y-100690854D02*
X106497683Y-100867205D01*
X106497683Y-100867205D02*
X106674035Y-101749758D01*
X106674035Y-101749758D02*
X107556588Y-101573407D01*
X107556588Y-101573407D02*
X107380236Y-100690854D01*
X103261655Y-101513827D02*
X104144208Y-101337476D01*
X104144208Y-101337476D02*
X104320559Y-102220029D01*
X104320559Y-102220029D02*
X103438006Y-102396381D01*
X103438006Y-102396381D02*
X103261655Y-101513827D01*
D11*
X108438345Y-105986173D02*
X108261994Y-105103619D01*
X108261994Y-105103619D02*
X107379441Y-105279971D01*
X107379441Y-105279971D02*
X107555792Y-106162524D01*
X107555792Y-106162524D02*
X108438345Y-105986173D01*
X105202317Y-106632795D02*
X105025965Y-105750242D01*
X105025965Y-105750242D02*
X104143412Y-105926593D01*
X104143412Y-105926593D02*
X104319764Y-106809146D01*
X104319764Y-106809146D02*
X105202317Y-106632795D01*
X102908598Y-101788329D02*
X103888329Y-106691402D01*
X108790649Y-105711169D02*
X107811169Y-100809351D01*
D12*
X107466562Y-115413334D02*
X107097010Y-115566407D01*
X110515364Y-114150479D02*
X108298053Y-115068919D01*
X111716407Y-113652990D02*
X111346856Y-113806064D01*
X105553144Y-110793936D02*
X105183593Y-110947010D01*
X108601947Y-109531081D02*
X106384636Y-110449521D01*
X109802990Y-109033593D02*
X109433438Y-109186666D01*
X109356902Y-109001890D02*
X108525410Y-109346305D01*
X108525410Y-109346305D02*
X108869825Y-110177797D01*
X108869825Y-110177797D02*
X109701317Y-109833382D01*
X109701317Y-109833382D02*
X109356902Y-109001890D01*
X105476608Y-110609160D02*
X106308099Y-110264745D01*
X106308099Y-110264745D02*
X106652514Y-111096237D01*
X106652514Y-111096237D02*
X105821023Y-111440652D01*
X105821023Y-111440652D02*
X105476608Y-110609160D01*
D11*
X111423392Y-113990840D02*
X111078977Y-113159348D01*
X111078977Y-113159348D02*
X110247486Y-113503763D01*
X110247486Y-113503763D02*
X110591901Y-114335255D01*
X110591901Y-114335255D02*
X111423392Y-113990840D01*
X108374590Y-115253695D02*
X108030175Y-114422203D01*
X108030175Y-114422203D02*
X107198683Y-114766618D01*
X107198683Y-114766618D02*
X107543098Y-115598110D01*
X107543098Y-115598110D02*
X108374590Y-115253695D01*
X105183593Y-110947010D02*
X107097010Y-115566407D01*
X111715571Y-113652644D02*
X109802644Y-109034429D01*
D12*
X112195672Y-123195682D02*
X111863278Y-123418200D01*
X114937920Y-121359906D02*
X112943558Y-122695016D01*
X116018200Y-120636722D02*
X115685806Y-120859240D01*
X109414194Y-119040760D02*
X109081800Y-119263278D01*
X112156442Y-117204984D02*
X110162080Y-118540094D01*
X113236722Y-116481800D02*
X112904328Y-116704318D01*
X112793069Y-116538121D02*
X112045183Y-117038787D01*
X112045183Y-117038787D02*
X112545849Y-117786673D01*
X112545849Y-117786673D02*
X113293735Y-117286007D01*
X113293735Y-117286007D02*
X112793069Y-116538121D01*
X109302934Y-118874563D02*
X110050820Y-118373897D01*
X110050820Y-118373897D02*
X110551487Y-119121783D01*
X110551487Y-119121783D02*
X109803601Y-119622449D01*
X109803601Y-119622449D02*
X109302934Y-118874563D01*
D11*
X115797066Y-121025437D02*
X115296399Y-120277551D01*
X115296399Y-120277551D02*
X114548513Y-120778217D01*
X114548513Y-120778217D02*
X115049180Y-121526103D01*
X115049180Y-121526103D02*
X115797066Y-121025437D01*
X113054817Y-122861213D02*
X112554151Y-122113327D01*
X112554151Y-122113327D02*
X111806265Y-122613993D01*
X111806265Y-122613993D02*
X112306931Y-123361879D01*
X112306931Y-123361879D02*
X113054817Y-122861213D01*
X109081800Y-119263278D02*
X111863278Y-123418200D01*
X116017312Y-120636546D02*
X113236546Y-116482688D01*
D12*
X118482843Y-130102691D02*
X118200000Y-130385534D01*
X120816295Y-127769239D02*
X119119239Y-129466295D01*
X121735534Y-126850000D02*
X121452691Y-127132843D01*
X114947309Y-126567157D02*
X114664466Y-126850000D01*
X117280761Y-124233705D02*
X115583705Y-125930761D01*
X118200000Y-123314466D02*
X117917157Y-123597309D01*
X117775736Y-123455887D02*
X117139340Y-124092284D01*
X117139340Y-124092284D02*
X117775736Y-124728680D01*
X117775736Y-124728680D02*
X118412132Y-124092284D01*
X118412132Y-124092284D02*
X117775736Y-123455887D01*
X114805887Y-126425736D02*
X115442284Y-125789340D01*
X115442284Y-125789340D02*
X116078680Y-126425736D01*
X116078680Y-126425736D02*
X115442284Y-127062132D01*
X115442284Y-127062132D02*
X114805887Y-126425736D01*
D11*
X121594113Y-127274264D02*
X120957716Y-126637868D01*
X120957716Y-126637868D02*
X120321320Y-127274264D01*
X120321320Y-127274264D02*
X120957716Y-127910660D01*
X120957716Y-127910660D02*
X121594113Y-127274264D01*
X119260660Y-129607716D02*
X118624264Y-128971320D01*
X118624264Y-128971320D02*
X117987868Y-129607716D01*
X117987868Y-129607716D02*
X118624264Y-130244113D01*
X118624264Y-130244113D02*
X119260660Y-129607716D01*
X114664466Y-126850000D02*
X118200000Y-130385534D01*
X121734629Y-126850000D02*
X118200000Y-123315371D01*
D12*
X125864712Y-135534215D02*
X125642774Y-135866996D01*
X127695699Y-132788766D02*
X126364072Y-134785456D01*
X128416996Y-131707226D02*
X128195059Y-132040007D01*
X121704941Y-132759993D02*
X121483004Y-133092774D01*
X123535928Y-130014544D02*
X122204301Y-132011234D01*
X124257226Y-128933004D02*
X124035288Y-129265785D01*
X123868897Y-129154816D02*
X123369537Y-129903575D01*
X123369537Y-129903575D02*
X124118296Y-130402935D01*
X124118296Y-130402935D02*
X124617656Y-129654176D01*
X124617656Y-129654176D02*
X123868897Y-129154816D01*
X121538551Y-132649024D02*
X122037911Y-131900265D01*
X122037911Y-131900265D02*
X122786669Y-132399625D01*
X122786669Y-132399625D02*
X122287309Y-133148384D01*
X122287309Y-133148384D02*
X121538551Y-132649024D01*
D11*
X128361449Y-132150976D02*
X127612691Y-131651616D01*
X127612691Y-131651616D02*
X127113331Y-132400375D01*
X127113331Y-132400375D02*
X127862089Y-132899735D01*
X127862089Y-132899735D02*
X128361449Y-132150976D01*
X126530463Y-134896425D02*
X125781704Y-134397065D01*
X125781704Y-134397065D02*
X125282344Y-135145824D01*
X125282344Y-135145824D02*
X126031103Y-135645184D01*
X126031103Y-135645184D02*
X126530463Y-134896425D01*
X121483004Y-133092774D02*
X125642774Y-135866996D01*
X128416109Y-131707403D02*
X124257403Y-128933891D01*
D12*
X134306064Y-139496856D02*
X134152990Y-139866407D01*
X135568919Y-136448053D02*
X134650479Y-138665364D01*
X136066407Y-135247010D02*
X135913334Y-135616562D01*
X129686666Y-137583438D02*
X129533593Y-137952990D01*
X130949521Y-134534636D02*
X130031081Y-136751947D01*
X131447010Y-133333593D02*
X131293936Y-133703144D01*
X131109160Y-133626608D02*
X130764745Y-134458099D01*
X130764745Y-134458099D02*
X131596237Y-134802514D01*
X131596237Y-134802514D02*
X131940652Y-133971023D01*
X131940652Y-133971023D02*
X131109160Y-133626608D01*
X129501890Y-137506902D02*
X129846305Y-136675410D01*
X129846305Y-136675410D02*
X130677797Y-137019825D01*
X130677797Y-137019825D02*
X130333382Y-137851317D01*
X130333382Y-137851317D02*
X129501890Y-137506902D01*
D11*
X136098110Y-135693098D02*
X135266618Y-135348683D01*
X135266618Y-135348683D02*
X134922203Y-136180175D01*
X134922203Y-136180175D02*
X135753695Y-136524590D01*
X135753695Y-136524590D02*
X136098110Y-135693098D01*
X134835255Y-138741901D02*
X134003763Y-138397486D01*
X134003763Y-138397486D02*
X133659348Y-139228977D01*
X133659348Y-139228977D02*
X134490840Y-139573392D01*
X134490840Y-139573392D02*
X134835255Y-138741901D01*
X129533593Y-137952990D02*
X134152990Y-139866407D01*
X136065571Y-135247356D02*
X131447356Y-133334429D01*
D12*
X143194496Y-141695592D02*
X143116802Y-142087974D01*
X143835469Y-138458440D02*
X143369307Y-140812732D01*
X144087974Y-137183198D02*
X144010280Y-137575580D01*
X138289720Y-140724420D02*
X138212026Y-141116802D01*
X138930693Y-137487268D02*
X138464531Y-139841560D01*
X139183198Y-136212026D02*
X139105504Y-136604408D01*
X138909313Y-136565561D02*
X138734502Y-137448421D01*
X138734502Y-137448421D02*
X139617362Y-137623232D01*
X139617362Y-137623232D02*
X139792173Y-136740372D01*
X139792173Y-136740372D02*
X138909313Y-136565561D01*
X138093529Y-140685573D02*
X138268340Y-139802713D01*
X138268340Y-139802713D02*
X139151199Y-139977524D01*
X139151199Y-139977524D02*
X138976389Y-140860384D01*
X138976389Y-140860384D02*
X138093529Y-140685573D01*
D11*
X144206471Y-137614427D02*
X143323611Y-137439616D01*
X143323611Y-137439616D02*
X143148801Y-138322476D01*
X143148801Y-138322476D02*
X144031660Y-138497287D01*
X144031660Y-138497287D02*
X144206471Y-137614427D01*
X143565498Y-140851579D02*
X142682638Y-140676768D01*
X142682638Y-140676768D02*
X142507827Y-141559628D01*
X142507827Y-141559628D02*
X143390687Y-141734439D01*
X143390687Y-141734439D02*
X143565498Y-140851579D01*
X138212026Y-141116802D02*
X143116802Y-142087974D01*
X144087222Y-137183701D02*
X139183701Y-136212778D01*
D12*
X152500000Y-142100000D02*
X152500000Y-142500000D01*
X152500000Y-138800000D02*
X152500000Y-141200000D01*
X152500000Y-137500000D02*
X152500000Y-137900000D01*
X147500000Y-142100000D02*
X147500000Y-142500000D01*
X147500000Y-138800000D02*
X147500000Y-141200000D01*
X147500000Y-137500000D02*
X147500000Y-137900000D01*
X147300000Y-137900000D02*
X147300000Y-138800000D01*
X147300000Y-138800000D02*
X148200000Y-138800000D01*
X148200000Y-138800000D02*
X148200000Y-137900000D01*
X148200000Y-137900000D02*
X147300000Y-137900000D01*
X147300000Y-142100000D02*
X147300000Y-141200000D01*
X147300000Y-141200000D02*
X148200000Y-141200000D01*
X148200000Y-141200000D02*
X148200000Y-142100000D01*
X148200000Y-142100000D02*
X147300000Y-142100000D01*
D11*
X152700000Y-137900000D02*
X151800000Y-137900000D01*
X151800000Y-137900000D02*
X151800000Y-138800000D01*
X151800000Y-138800000D02*
X152700000Y-138800000D01*
X152700000Y-138800000D02*
X152700000Y-137900000D01*
X152700000Y-141200000D02*
X151800000Y-141200000D01*
X151800000Y-141200000D02*
X151800000Y-142100000D01*
X151800000Y-142100000D02*
X152700000Y-142100000D01*
X152700000Y-142100000D02*
X152700000Y-141200000D01*
X147500000Y-142500000D02*
X152500000Y-142500000D01*
X152499360Y-137500640D02*
X147500640Y-137500640D01*
D12*
X161571202Y-140654413D02*
X161651633Y-141046243D01*
X160907645Y-137421815D02*
X161390232Y-139772795D01*
X160646243Y-136148367D02*
X160726674Y-136540197D01*
X156673326Y-141659803D02*
X156753757Y-142051633D01*
X156009768Y-138427205D02*
X156492355Y-140778185D01*
X155748367Y-137153757D02*
X155828798Y-137545587D01*
X155632883Y-137585802D02*
X155813853Y-138467420D01*
X155813853Y-138467420D02*
X156695471Y-138286450D01*
X156695471Y-138286450D02*
X156514501Y-137404832D01*
X156514501Y-137404832D02*
X155632883Y-137585802D01*
X156477410Y-141700018D02*
X156296440Y-140818401D01*
X156296440Y-140818401D02*
X157178058Y-140637431D01*
X157178058Y-140637431D02*
X157359028Y-141519048D01*
X157359028Y-141519048D02*
X156477410Y-141700018D01*
D11*
X160922590Y-136499982D02*
X160040972Y-136680952D01*
X160040972Y-136680952D02*
X160221942Y-137562569D01*
X160221942Y-137562569D02*
X161103560Y-137381599D01*
X161103560Y-137381599D02*
X160922590Y-136499982D01*
X161586147Y-139732580D02*
X160704529Y-139913550D01*
X160704529Y-139913550D02*
X160885499Y-140795168D01*
X160885499Y-140795168D02*
X161767117Y-140614198D01*
X161767117Y-140614198D02*
X161586147Y-139732580D01*
X156753757Y-142051633D02*
X161651633Y-141046243D01*
X160645745Y-136149123D02*
X155749123Y-137154255D01*
D12*
X170318441Y-137567124D02*
X170473447Y-137935869D01*
X169039639Y-134524975D02*
X169969677Y-136737447D01*
X168535869Y-133326553D02*
X168690875Y-133695298D01*
X165709125Y-139504702D02*
X165864131Y-139873447D01*
X164430323Y-136462553D02*
X165360361Y-138675025D01*
X163926553Y-135264131D02*
X164081559Y-135632876D01*
X163897187Y-135710379D02*
X164245951Y-136540056D01*
X164245951Y-136540056D02*
X165075628Y-136191292D01*
X165075628Y-136191292D02*
X164726864Y-135361615D01*
X164726864Y-135361615D02*
X163897187Y-135710379D01*
X165524752Y-139582205D02*
X165175988Y-138752528D01*
X165175988Y-138752528D02*
X166005665Y-138403764D01*
X166005665Y-138403764D02*
X166354429Y-139233441D01*
X166354429Y-139233441D02*
X165524752Y-139582205D01*
D11*
X168875248Y-133617795D02*
X168045571Y-133966559D01*
X168045571Y-133966559D02*
X168394335Y-134796236D01*
X168394335Y-134796236D02*
X169224012Y-134447472D01*
X169224012Y-134447472D02*
X168875248Y-133617795D01*
X170154049Y-136659944D02*
X169324372Y-137008708D01*
X169324372Y-137008708D02*
X169673136Y-137838385D01*
X169673136Y-137838385D02*
X170502813Y-137489621D01*
X170502813Y-137489621D02*
X170154049Y-136659944D01*
X165864131Y-139873447D02*
X170473447Y-137935869D01*
X168535527Y-133327391D02*
X163927391Y-135264473D01*
D12*
X178146899Y-132842997D02*
X178370576Y-133174612D01*
X176301562Y-130107173D02*
X177643625Y-132096863D01*
X175574612Y-129029424D02*
X175798289Y-129361039D01*
X174001711Y-135638961D02*
X174225388Y-135970576D01*
X172156375Y-132903137D02*
X173498438Y-134892827D01*
X171429424Y-131825388D02*
X171653101Y-132157003D01*
X171487293Y-132268842D02*
X171990567Y-133014976D01*
X171990567Y-133014976D02*
X172736701Y-132511702D01*
X172736701Y-132511702D02*
X172233427Y-131765568D01*
X172233427Y-131765568D02*
X171487293Y-132268842D01*
X173835904Y-135750800D02*
X173332630Y-135004666D01*
X173332630Y-135004666D02*
X174078764Y-134501392D01*
X174078764Y-134501392D02*
X174582037Y-135247526D01*
X174582037Y-135247526D02*
X173835904Y-135750800D01*
D11*
X175964096Y-129249200D02*
X175217963Y-129752474D01*
X175217963Y-129752474D02*
X175721236Y-130498608D01*
X175721236Y-130498608D02*
X176467370Y-129995334D01*
X176467370Y-129995334D02*
X175964096Y-129249200D01*
X177809433Y-131985024D02*
X177063299Y-132488298D01*
X177063299Y-132488298D02*
X177566573Y-133234432D01*
X177566573Y-133234432D02*
X178312707Y-132731158D01*
X178312707Y-132731158D02*
X177809433Y-131985024D01*
X174225388Y-135970576D02*
X178370576Y-133174612D01*
X175574439Y-129030312D02*
X171430312Y-131825561D01*
D12*
X185052193Y-126511481D02*
X185335529Y-126793829D01*
X182714671Y-124182105D02*
X184414687Y-125876196D01*
X181793829Y-123264471D02*
X182077165Y-123546820D01*
X181522835Y-130053180D02*
X181806171Y-130335529D01*
X179185313Y-127723804D02*
X180885329Y-129417895D01*
X178264471Y-126806171D02*
X178547807Y-127088519D01*
X178406633Y-127230187D02*
X179044139Y-127865472D01*
X179044139Y-127865472D02*
X179679423Y-127227966D01*
X179679423Y-127227966D02*
X179041918Y-126592681D01*
X179041918Y-126592681D02*
X178406633Y-127230187D01*
X181381660Y-130194848D02*
X180744155Y-129559563D01*
X180744155Y-129559563D02*
X181379439Y-128922058D01*
X181379439Y-128922058D02*
X182016945Y-129557342D01*
X182016945Y-129557342D02*
X181381660Y-130194848D01*
D11*
X182218340Y-123405152D02*
X181583055Y-124042658D01*
X181583055Y-124042658D02*
X182220561Y-124677942D01*
X182220561Y-124677942D02*
X182855845Y-124040437D01*
X182855845Y-124040437D02*
X182218340Y-123405152D01*
X184555861Y-125734528D02*
X183920577Y-126372034D01*
X183920577Y-126372034D02*
X184558082Y-127007319D01*
X184558082Y-127007319D02*
X185193367Y-126369813D01*
X185193367Y-126369813D02*
X184555861Y-125734528D01*
X181806171Y-130335529D02*
X185335529Y-126793829D01*
X181793831Y-123265377D02*
X178265377Y-126806169D01*
D12*
X190534215Y-119085288D02*
X190866996Y-119307226D01*
X187788766Y-117254301D02*
X189785456Y-118585928D01*
X186707226Y-116533004D02*
X187040007Y-116754941D01*
X187759993Y-123245059D02*
X188092774Y-123466996D01*
X185014544Y-121414072D02*
X187011234Y-122745699D01*
X183933004Y-120692774D02*
X184265785Y-120914712D01*
X184154816Y-121081103D02*
X184903575Y-121580463D01*
X184903575Y-121580463D02*
X185402935Y-120831704D01*
X185402935Y-120831704D02*
X184654176Y-120332344D01*
X184654176Y-120332344D02*
X184154816Y-121081103D01*
X187649024Y-123411449D02*
X186900265Y-122912089D01*
X186900265Y-122912089D02*
X187399625Y-122163331D01*
X187399625Y-122163331D02*
X188148384Y-122662691D01*
X188148384Y-122662691D02*
X187649024Y-123411449D01*
D11*
X187150976Y-116588551D02*
X186651616Y-117337309D01*
X186651616Y-117337309D02*
X187400375Y-117836669D01*
X187400375Y-117836669D02*
X187899735Y-117087911D01*
X187899735Y-117087911D02*
X187150976Y-116588551D01*
X189896425Y-118419537D02*
X189397065Y-119168296D01*
X189397065Y-119168296D02*
X190145824Y-119667656D01*
X190145824Y-119667656D02*
X190645184Y-118918897D01*
X190645184Y-118918897D02*
X189896425Y-118419537D01*
X188092774Y-123466996D02*
X190866996Y-119307226D01*
X186707403Y-116533891D02*
X183933891Y-120692597D01*
D12*
X194496856Y-110693936D02*
X194866407Y-110847010D01*
X191448053Y-109431081D02*
X193665364Y-110349521D01*
X190247010Y-108933593D02*
X190616562Y-109086666D01*
X192583438Y-115313334D02*
X192952990Y-115466407D01*
X189534636Y-114050479D02*
X191751947Y-114968919D01*
X188333593Y-113552990D02*
X188703144Y-113706064D01*
X188626608Y-113890840D02*
X189458099Y-114235255D01*
X189458099Y-114235255D02*
X189802514Y-113403763D01*
X189802514Y-113403763D02*
X188971023Y-113059348D01*
X188971023Y-113059348D02*
X188626608Y-113890840D01*
X192506902Y-115498110D02*
X191675410Y-115153695D01*
X191675410Y-115153695D02*
X192019825Y-114322203D01*
X192019825Y-114322203D02*
X192851317Y-114666618D01*
X192851317Y-114666618D02*
X192506902Y-115498110D01*
D11*
X190693098Y-108901890D02*
X190348683Y-109733382D01*
X190348683Y-109733382D02*
X191180175Y-110077797D01*
X191180175Y-110077797D02*
X191524590Y-109246305D01*
X191524590Y-109246305D02*
X190693098Y-108901890D01*
X193741901Y-110164745D02*
X193397486Y-110996237D01*
X193397486Y-110996237D02*
X194228977Y-111340652D01*
X194228977Y-111340652D02*
X194573392Y-110509160D01*
X194573392Y-110509160D02*
X193741901Y-110164745D01*
X192952990Y-115466407D02*
X194866407Y-110847010D01*
X190247356Y-108934429D02*
X188334429Y-113552644D01*
D12*
X196649156Y-101859950D02*
X197041402Y-101938329D01*
X193413128Y-101213328D02*
X195766603Y-101683599D01*
X192138329Y-100958598D02*
X192530575Y-101036976D01*
X195669425Y-106763024D02*
X196061671Y-106841402D01*
X192433397Y-106116401D02*
X194786872Y-106586672D01*
X191158598Y-105861671D02*
X191550844Y-105940050D01*
X191511655Y-106136173D02*
X192394208Y-106312524D01*
X192394208Y-106312524D02*
X192570559Y-105429971D01*
X192570559Y-105429971D02*
X191688006Y-105253619D01*
X191688006Y-105253619D02*
X191511655Y-106136173D01*
X195630236Y-106959146D02*
X194747683Y-106782795D01*
X194747683Y-106782795D02*
X194924035Y-105900242D01*
X194924035Y-105900242D02*
X195806588Y-106076593D01*
X195806588Y-106076593D02*
X195630236Y-106959146D01*
D11*
X192569764Y-100840854D02*
X192393412Y-101723407D01*
X192393412Y-101723407D02*
X193275965Y-101899758D01*
X193275965Y-101899758D02*
X193452317Y-101017205D01*
X193452317Y-101017205D02*
X192569764Y-100840854D01*
X195805792Y-101487476D02*
X195629441Y-102370029D01*
X195629441Y-102370029D02*
X196511994Y-102546381D01*
X196511994Y-102546381D02*
X196688345Y-101663827D01*
X196688345Y-101663827D02*
X195805792Y-101487476D01*
X196061671Y-106841402D02*
X197041402Y-101938329D01*
X192138831Y-100959351D02*
X191159351Y-105861169D01*
D12*
X197100000Y-92500000D02*
X197500000Y-92500000D01*
X193800000Y-92500000D02*
X196200000Y-92500000D01*
X192500000Y-92500000D02*
X192900000Y-92500000D01*
X197100000Y-97500000D02*
X197500000Y-97500000D01*
X193800000Y-97500000D02*
X196200000Y-97500000D01*
X192500000Y-97500000D02*
X192900000Y-97500000D01*
X192900000Y-97700000D02*
X193800000Y-97700000D01*
X193800000Y-97700000D02*
X193800000Y-96800000D01*
X193800000Y-96800000D02*
X192900000Y-96800000D01*
X192900000Y-96800000D02*
X192900000Y-97700000D01*
X197100000Y-97700000D02*
X196200000Y-97700000D01*
X196200000Y-97700000D02*
X196200000Y-96800000D01*
X196200000Y-96800000D02*
X197100000Y-96800000D01*
X197100000Y-96800000D02*
X197100000Y-97700000D01*
D11*
X192900000Y-92300000D02*
X192900000Y-93200000D01*
X192900000Y-93200000D02*
X193800000Y-93200000D01*
X193800000Y-93200000D02*
X193800000Y-92300000D01*
X193800000Y-92300000D02*
X192900000Y-92300000D01*
X196200000Y-92300000D02*
X196200000Y-93200000D01*
X196200000Y-93200000D02*
X197100000Y-93200000D01*
X197100000Y-93200000D02*
X197100000Y-92300000D01*
X197100000Y-92300000D02*
X196200000Y-92300000D01*
X197500000Y-97500000D02*
X197500000Y-92500000D01*
X192500640Y-92500640D02*
X192500640Y-97499360D01*
D12*
X195674420Y-83339720D02*
X196066802Y-83262026D01*
X192437268Y-83980693D02*
X194791560Y-83514531D01*
X191162026Y-84233198D02*
X191554408Y-84155504D01*
X196645592Y-88244496D02*
X197037974Y-88166802D01*
X193408440Y-88885469D02*
X195762732Y-88419307D01*
X192133198Y-89137974D02*
X192525580Y-89060280D01*
X192564427Y-89256471D02*
X193447287Y-89081660D01*
X193447287Y-89081660D02*
X193272476Y-88198801D01*
X193272476Y-88198801D02*
X192389616Y-88373611D01*
X192389616Y-88373611D02*
X192564427Y-89256471D01*
X196684439Y-88440687D02*
X195801579Y-88615498D01*
X195801579Y-88615498D02*
X195626768Y-87732638D01*
X195626768Y-87732638D02*
X196509628Y-87557827D01*
X196509628Y-87557827D02*
X196684439Y-88440687D01*
D11*
X191515561Y-83959313D02*
X191690372Y-84842173D01*
X191690372Y-84842173D02*
X192573232Y-84667362D01*
X192573232Y-84667362D02*
X192398421Y-83784502D01*
X192398421Y-83784502D02*
X191515561Y-83959313D01*
X194752713Y-83318340D02*
X194927524Y-84201199D01*
X194927524Y-84201199D02*
X195810384Y-84026389D01*
X195810384Y-84026389D02*
X195635573Y-83143529D01*
X195635573Y-83143529D02*
X194752713Y-83318340D01*
X197037974Y-88166802D02*
X196066802Y-83262026D01*
X191162778Y-84233701D02*
X192133701Y-89137222D01*
D12*
X192588871Y-74688387D02*
X192958689Y-74535959D01*
X189537869Y-75945919D02*
X191756779Y-75031350D01*
X188335959Y-76441311D02*
X188705777Y-76288883D01*
X194494223Y-79311117D02*
X194864041Y-79158689D01*
X191443221Y-80568650D02*
X193662131Y-79654081D01*
X190241311Y-81064041D02*
X190611129Y-80911613D01*
X190687343Y-81096522D02*
X191519435Y-80753559D01*
X191519435Y-80753559D02*
X191176471Y-79921467D01*
X191176471Y-79921467D02*
X190344380Y-80264431D01*
X190344380Y-80264431D02*
X190687343Y-81096522D01*
X194570437Y-79496027D02*
X193738345Y-79838990D01*
X193738345Y-79838990D02*
X193395382Y-79006898D01*
X193395382Y-79006898D02*
X194227473Y-78663935D01*
X194227473Y-78663935D02*
X194570437Y-79496027D01*
D11*
X188629563Y-76103973D02*
X188972527Y-76936065D01*
X188972527Y-76936065D02*
X189804618Y-76593102D01*
X189804618Y-76593102D02*
X189461655Y-75761010D01*
X189461655Y-75761010D02*
X188629563Y-76103973D01*
X191680565Y-74846441D02*
X192023529Y-75678533D01*
X192023529Y-75678533D02*
X192855620Y-75335569D01*
X192855620Y-75335569D02*
X192512657Y-74503478D01*
X192512657Y-74503478D02*
X191680565Y-74846441D01*
X194864041Y-79158689D02*
X192958689Y-74535959D01*
X188336795Y-76441659D02*
X190241659Y-81063205D01*
D12*
X187754328Y-66754318D02*
X188086722Y-66531800D01*
X185012080Y-68590094D02*
X187006442Y-67254984D01*
X183931800Y-69313278D02*
X184264194Y-69090760D01*
X190535806Y-70909240D02*
X190868200Y-70686722D01*
X187793558Y-72745016D02*
X189787920Y-71409906D01*
X186713278Y-73468200D02*
X187045672Y-73245682D01*
X187156931Y-73411879D02*
X187904817Y-72911213D01*
X187904817Y-72911213D02*
X187404151Y-72163327D01*
X187404151Y-72163327D02*
X186656265Y-72663993D01*
X186656265Y-72663993D02*
X187156931Y-73411879D01*
X190647066Y-71075437D02*
X189899180Y-71576103D01*
X189899180Y-71576103D02*
X189398513Y-70828217D01*
X189398513Y-70828217D02*
X190146399Y-70327551D01*
X190146399Y-70327551D02*
X190647066Y-71075437D01*
D11*
X184152934Y-68924563D02*
X184653601Y-69672449D01*
X184653601Y-69672449D02*
X185401487Y-69171783D01*
X185401487Y-69171783D02*
X184900820Y-68423897D01*
X184900820Y-68423897D02*
X184152934Y-68924563D01*
X186895183Y-67088787D02*
X187395849Y-67836673D01*
X187395849Y-67836673D02*
X188143735Y-67336007D01*
X188143735Y-67336007D02*
X187643069Y-66588121D01*
X187643069Y-66588121D02*
X186895183Y-67088787D01*
X190868200Y-70686722D02*
X188086722Y-66531800D01*
X183932688Y-69313454D02*
X186713454Y-73467312D01*
D12*
X181517157Y-59947309D02*
X181800000Y-59664466D01*
X179183705Y-62280761D02*
X180880761Y-60583705D01*
X178264466Y-63200000D02*
X178547309Y-62917157D01*
X185052691Y-63482843D02*
X185335534Y-63200000D01*
X182719239Y-65816295D02*
X184416295Y-64119239D01*
X181800000Y-66735534D02*
X182082843Y-66452691D01*
X182224264Y-66594113D02*
X182860660Y-65957716D01*
X182860660Y-65957716D02*
X182224264Y-65321320D01*
X182224264Y-65321320D02*
X181587868Y-65957716D01*
X181587868Y-65957716D02*
X182224264Y-66594113D01*
X185194113Y-63624264D02*
X184557716Y-64260660D01*
X184557716Y-64260660D02*
X183921320Y-63624264D01*
X183921320Y-63624264D02*
X184557716Y-62987868D01*
X184557716Y-62987868D02*
X185194113Y-63624264D01*
D11*
X178405887Y-62775736D02*
X179042284Y-63412132D01*
X179042284Y-63412132D02*
X179678680Y-62775736D01*
X179678680Y-62775736D02*
X179042284Y-62139340D01*
X179042284Y-62139340D02*
X178405887Y-62775736D01*
X180739340Y-60442284D02*
X181375736Y-61078680D01*
X181375736Y-61078680D02*
X182012132Y-60442284D01*
X182012132Y-60442284D02*
X181375736Y-59805887D01*
X181375736Y-59805887D02*
X180739340Y-60442284D01*
X185335534Y-63200000D02*
X181800000Y-59664466D01*
X178265371Y-63200000D02*
X181800000Y-66734629D01*
D12*
X174090760Y-54464194D02*
X174313278Y-54131800D01*
X172254984Y-57206442D02*
X173590094Y-55212080D01*
X171531800Y-58286722D02*
X171754318Y-57954328D01*
X178245682Y-57245672D02*
X178468200Y-56913278D01*
X176409906Y-59987920D02*
X177745016Y-57993558D01*
X175686722Y-61068200D02*
X175909240Y-60735806D01*
X176075437Y-60847066D02*
X176576103Y-60099180D01*
X176576103Y-60099180D02*
X175828217Y-59598513D01*
X175828217Y-59598513D02*
X175327551Y-60346399D01*
X175327551Y-60346399D02*
X176075437Y-60847066D01*
X178411879Y-57356931D02*
X177911213Y-58104817D01*
X177911213Y-58104817D02*
X177163327Y-57604151D01*
X177163327Y-57604151D02*
X177663993Y-56856265D01*
X177663993Y-56856265D02*
X178411879Y-57356931D01*
D11*
X171588121Y-57843069D02*
X172336007Y-58343735D01*
X172336007Y-58343735D02*
X172836673Y-57595849D01*
X172836673Y-57595849D02*
X172088787Y-57095183D01*
X172088787Y-57095183D02*
X171588121Y-57843069D01*
X173423897Y-55100820D02*
X174171783Y-55601487D01*
X174171783Y-55601487D02*
X174672449Y-54853601D01*
X174672449Y-54853601D02*
X173924563Y-54352934D01*
X173924563Y-54352934D02*
X173423897Y-55100820D01*
X178468200Y-56913278D02*
X174313278Y-54131800D01*
X171532688Y-58286546D02*
X175686546Y-61067312D01*
D12*
X165693936Y-50503144D02*
X165847010Y-50133593D01*
X164431081Y-53551947D02*
X165349521Y-51334636D01*
X163933593Y-54752990D02*
X164086666Y-54383438D01*
X170313334Y-52416562D02*
X170466407Y-52047010D01*
X169050479Y-55465364D02*
X169968919Y-53248053D01*
X168552990Y-56666407D02*
X168706064Y-56296856D01*
X168890840Y-56373392D02*
X169235255Y-55541901D01*
X169235255Y-55541901D02*
X168403763Y-55197486D01*
X168403763Y-55197486D02*
X168059348Y-56028977D01*
X168059348Y-56028977D02*
X168890840Y-56373392D01*
X170498110Y-52493098D02*
X170153695Y-53324590D01*
X170153695Y-53324590D02*
X169322203Y-52980175D01*
X169322203Y-52980175D02*
X169666618Y-52148683D01*
X169666618Y-52148683D02*
X170498110Y-52493098D01*
D11*
X163901890Y-54306902D02*
X164733382Y-54651317D01*
X164733382Y-54651317D02*
X165077797Y-53819825D01*
X165077797Y-53819825D02*
X164246305Y-53475410D01*
X164246305Y-53475410D02*
X163901890Y-54306902D01*
X165164745Y-51258099D02*
X165996237Y-51602514D01*
X165996237Y-51602514D02*
X166340652Y-50771023D01*
X166340652Y-50771023D02*
X165509160Y-50426608D01*
X165509160Y-50426608D02*
X165164745Y-51258099D01*
X170466407Y-52047010D02*
X165847010Y-50133593D01*
X163934429Y-54752644D02*
X168552644Y-56665571D01*
D12*
X156759950Y-48350844D02*
X156838329Y-47958598D01*
X156113328Y-51586872D02*
X156583599Y-49233397D01*
X155858598Y-52861671D02*
X155936976Y-52469425D01*
X161663024Y-49330575D02*
X161741402Y-48938329D01*
X161016401Y-52566603D02*
X161486672Y-50213128D01*
X160761671Y-53841402D02*
X160840050Y-53449156D01*
X161036173Y-53488345D02*
X161212524Y-52605792D01*
X161212524Y-52605792D02*
X160329971Y-52429441D01*
X160329971Y-52429441D02*
X160153619Y-53311994D01*
X160153619Y-53311994D02*
X161036173Y-53488345D01*
X161859146Y-49369764D02*
X161682795Y-50252317D01*
X161682795Y-50252317D02*
X160800242Y-50075965D01*
X160800242Y-50075965D02*
X160976593Y-49193412D01*
X160976593Y-49193412D02*
X161859146Y-49369764D01*
D11*
X155740854Y-52430236D02*
X156623407Y-52606588D01*
X156623407Y-52606588D02*
X156799758Y-51724035D01*
X156799758Y-51724035D02*
X155917205Y-51547683D01*
X155917205Y-51547683D02*
X155740854Y-52430236D01*
X156387476Y-49194208D02*
X157270029Y-49370559D01*
X157270029Y-49370559D02*
X157446381Y-48488006D01*
X157446381Y-48488006D02*
X156563827Y-48311655D01*
X156563827Y-48311655D02*
X156387476Y-49194208D01*
X161741402Y-48938329D02*
X156838329Y-47958598D01*
X155859351Y-52861169D02*
X160761169Y-53840649D01*
D12*
X139259950Y-53449156D02*
X139338329Y-53841402D01*
X138613328Y-50213128D02*
X139083599Y-52566603D01*
X138358598Y-48938329D02*
X138436976Y-49330575D01*
X144163024Y-52469425D02*
X144241402Y-52861671D01*
X143516401Y-49233397D02*
X143986672Y-51586872D01*
X143261671Y-47958598D02*
X143340050Y-48350844D01*
X143536173Y-48311655D02*
X143712524Y-49194208D01*
X143712524Y-49194208D02*
X142829971Y-49370559D01*
X142829971Y-49370559D02*
X142653619Y-48488006D01*
X142653619Y-48488006D02*
X143536173Y-48311655D01*
X144359146Y-52430236D02*
X144182795Y-51547683D01*
X144182795Y-51547683D02*
X143300242Y-51724035D01*
X143300242Y-51724035D02*
X143476593Y-52606588D01*
X143476593Y-52606588D02*
X144359146Y-52430236D01*
D11*
X138240854Y-49369764D02*
X139123407Y-49193412D01*
X139123407Y-49193412D02*
X139299758Y-50075965D01*
X139299758Y-50075965D02*
X138417205Y-50252317D01*
X138417205Y-50252317D02*
X138240854Y-49369764D01*
X138887476Y-52605792D02*
X139770029Y-52429441D01*
X139770029Y-52429441D02*
X139946381Y-53311994D01*
X139946381Y-53311994D02*
X139063827Y-53488345D01*
X139063827Y-53488345D02*
X138887476Y-52605792D01*
X144241402Y-52861671D02*
X139338329Y-53841402D01*
X138359351Y-48938831D02*
X143261169Y-47959351D01*
D12*
X131293936Y-56296856D02*
X131447010Y-56666407D01*
X130031081Y-53248053D02*
X130949521Y-55465364D01*
X129533593Y-52047010D02*
X129686666Y-52416562D01*
X135913334Y-54383438D02*
X136066407Y-54752990D01*
X134650479Y-51334636D02*
X135568919Y-53551947D01*
X134152990Y-50133593D02*
X134306064Y-50503144D01*
X134490840Y-50426608D02*
X134835255Y-51258099D01*
X134835255Y-51258099D02*
X134003763Y-51602514D01*
X134003763Y-51602514D02*
X133659348Y-50771023D01*
X133659348Y-50771023D02*
X134490840Y-50426608D01*
X136098110Y-54306902D02*
X135753695Y-53475410D01*
X135753695Y-53475410D02*
X134922203Y-53819825D01*
X134922203Y-53819825D02*
X135266618Y-54651317D01*
X135266618Y-54651317D02*
X136098110Y-54306902D01*
D11*
X129501890Y-52493098D02*
X130333382Y-52148683D01*
X130333382Y-52148683D02*
X130677797Y-52980175D01*
X130677797Y-52980175D02*
X129846305Y-53324590D01*
X129846305Y-53324590D02*
X129501890Y-52493098D01*
X130764745Y-55541901D02*
X131596237Y-55197486D01*
X131596237Y-55197486D02*
X131940652Y-56028977D01*
X131940652Y-56028977D02*
X131109160Y-56373392D01*
X131109160Y-56373392D02*
X130764745Y-55541901D01*
X136066407Y-54752990D02*
X131447010Y-56666407D01*
X129534429Y-52047356D02*
X134152644Y-50134429D01*
D12*
X124090760Y-60735806D02*
X124313278Y-61068200D01*
X122254984Y-57993558D02*
X123590094Y-59987920D01*
X121531800Y-56913278D02*
X121754318Y-57245672D01*
X128245682Y-57954328D02*
X128468200Y-58286722D01*
X126409906Y-55212080D02*
X127745016Y-57206442D01*
X125686722Y-54131800D02*
X125909240Y-54464194D01*
X126075437Y-54352934D02*
X126576103Y-55100820D01*
X126576103Y-55100820D02*
X125828217Y-55601487D01*
X125828217Y-55601487D02*
X125327551Y-54853601D01*
X125327551Y-54853601D02*
X126075437Y-54352934D01*
X128411879Y-57843069D02*
X127911213Y-57095183D01*
X127911213Y-57095183D02*
X127163327Y-57595849D01*
X127163327Y-57595849D02*
X127663993Y-58343735D01*
X127663993Y-58343735D02*
X128411879Y-57843069D01*
D11*
X121588121Y-57356931D02*
X122336007Y-56856265D01*
X122336007Y-56856265D02*
X122836673Y-57604151D01*
X122836673Y-57604151D02*
X122088787Y-58104817D01*
X122088787Y-58104817D02*
X121588121Y-57356931D01*
X123423897Y-60099180D02*
X124171783Y-59598513D01*
X124171783Y-59598513D02*
X124672449Y-60346399D01*
X124672449Y-60346399D02*
X123924563Y-60847066D01*
X123924563Y-60847066D02*
X123423897Y-60099180D01*
X128468200Y-58286722D02*
X124313278Y-61068200D01*
X121532688Y-56913454D02*
X125686546Y-54132688D01*
D12*
X117867157Y-66452691D02*
X118150000Y-66735534D01*
X115533705Y-64119239D02*
X117230761Y-65816295D01*
X114614466Y-63200000D02*
X114897309Y-63482843D01*
X121402691Y-62917157D02*
X121685534Y-63200000D01*
X119069239Y-60583705D02*
X120766295Y-62280761D01*
X118150000Y-59664466D02*
X118432843Y-59947309D01*
X118574264Y-59805887D02*
X119210660Y-60442284D01*
X119210660Y-60442284D02*
X118574264Y-61078680D01*
X118574264Y-61078680D02*
X117937868Y-60442284D01*
X117937868Y-60442284D02*
X118574264Y-59805887D01*
X121544113Y-62775736D02*
X120907716Y-62139340D01*
X120907716Y-62139340D02*
X120271320Y-62775736D01*
X120271320Y-62775736D02*
X120907716Y-63412132D01*
X120907716Y-63412132D02*
X121544113Y-62775736D01*
D11*
X114755887Y-63624264D02*
X115392284Y-62987868D01*
X115392284Y-62987868D02*
X116028680Y-63624264D01*
X116028680Y-63624264D02*
X115392284Y-64260660D01*
X115392284Y-64260660D02*
X114755887Y-63624264D01*
X117089340Y-65957716D02*
X117725736Y-65321320D01*
X117725736Y-65321320D02*
X118362132Y-65957716D01*
X118362132Y-65957716D02*
X117725736Y-66594113D01*
X117725736Y-66594113D02*
X117089340Y-65957716D01*
X121685534Y-63200000D02*
X118150000Y-66735534D01*
X114615371Y-63200000D02*
X118150000Y-59665371D01*
D12*
X112909993Y-73295059D02*
X113242774Y-73516996D01*
X110164544Y-71464072D02*
X112161234Y-72795699D01*
X109083004Y-70742774D02*
X109415785Y-70964712D01*
X115684215Y-69135288D02*
X116016996Y-69357226D01*
X112938766Y-67304301D02*
X114935456Y-68635928D01*
X111857226Y-66583004D02*
X112190007Y-66804941D01*
X112300976Y-66638551D02*
X113049735Y-67137911D01*
X113049735Y-67137911D02*
X112550375Y-67886669D01*
X112550375Y-67886669D02*
X111801616Y-67387309D01*
X111801616Y-67387309D02*
X112300976Y-66638551D01*
X115795184Y-68968897D02*
X115046425Y-68469537D01*
X115046425Y-68469537D02*
X114547065Y-69218296D01*
X114547065Y-69218296D02*
X115295824Y-69717656D01*
X115295824Y-69717656D02*
X115795184Y-68968897D01*
D11*
X109304816Y-71131103D02*
X109804176Y-70382344D01*
X109804176Y-70382344D02*
X110552935Y-70881704D01*
X110552935Y-70881704D02*
X110053575Y-71630463D01*
X110053575Y-71630463D02*
X109304816Y-71131103D01*
X112050265Y-72962089D02*
X112549625Y-72213331D01*
X112549625Y-72213331D02*
X113298384Y-72712691D01*
X113298384Y-72712691D02*
X112799024Y-73461449D01*
X112799024Y-73461449D02*
X112050265Y-72962089D01*
X116016996Y-69357226D02*
X113242774Y-73516996D01*
X109083891Y-70742597D02*
X111857403Y-66583891D01*
D12*
X109383438Y-80913334D02*
X109752990Y-81066407D01*
X106334636Y-79650479D02*
X108551947Y-80568919D01*
X105133593Y-79152990D02*
X105503144Y-79306064D01*
X111296856Y-76293936D02*
X111666407Y-76447010D01*
X108248053Y-75031081D02*
X110465364Y-75949521D01*
X107047010Y-74533593D02*
X107416562Y-74686666D01*
X107493098Y-74501890D02*
X108324590Y-74846305D01*
X108324590Y-74846305D02*
X107980175Y-75677797D01*
X107980175Y-75677797D02*
X107148683Y-75333382D01*
X107148683Y-75333382D02*
X107493098Y-74501890D01*
X111373392Y-76109160D02*
X110541901Y-75764745D01*
X110541901Y-75764745D02*
X110197486Y-76596237D01*
X110197486Y-76596237D02*
X111028977Y-76940652D01*
X111028977Y-76940652D02*
X111373392Y-76109160D01*
D11*
X105426608Y-79490840D02*
X105771023Y-78659348D01*
X105771023Y-78659348D02*
X106602514Y-79003763D01*
X106602514Y-79003763D02*
X106258099Y-79835255D01*
X106258099Y-79835255D02*
X105426608Y-79490840D01*
X108475410Y-80753695D02*
X108819825Y-79922203D01*
X108819825Y-79922203D02*
X109651317Y-80266618D01*
X109651317Y-80266618D02*
X109306902Y-81098110D01*
X109306902Y-81098110D02*
X108475410Y-80753695D01*
X111666407Y-76447010D02*
X109752990Y-81066407D01*
X105134429Y-79152644D02*
X107047356Y-74534429D01*
D12*
X107424420Y-89110280D02*
X107816802Y-89187974D01*
X104187268Y-88469307D02*
X106541560Y-88935469D01*
X102912026Y-88216802D02*
X103304408Y-88294496D01*
X108395592Y-84205504D02*
X108787974Y-84283198D01*
X105158440Y-83564531D02*
X107512732Y-84030693D01*
X103883198Y-83312026D02*
X104275580Y-83389720D01*
X104314427Y-83193529D02*
X105197287Y-83368340D01*
X105197287Y-83368340D02*
X105022476Y-84251199D01*
X105022476Y-84251199D02*
X104139616Y-84076389D01*
X104139616Y-84076389D02*
X104314427Y-83193529D01*
X108434439Y-84009313D02*
X107551579Y-83834502D01*
X107551579Y-83834502D02*
X107376768Y-84717362D01*
X107376768Y-84717362D02*
X108259628Y-84892173D01*
X108259628Y-84892173D02*
X108434439Y-84009313D01*
D11*
X103265561Y-88490687D02*
X103440372Y-87607827D01*
X103440372Y-87607827D02*
X104323232Y-87782638D01*
X104323232Y-87782638D02*
X104148421Y-88665498D01*
X104148421Y-88665498D02*
X103265561Y-88490687D01*
X106502713Y-89131660D02*
X106677524Y-88248801D01*
X106677524Y-88248801D02*
X107560384Y-88423611D01*
X107560384Y-88423611D02*
X107385573Y-89306471D01*
X107385573Y-89306471D02*
X106502713Y-89131660D01*
X108787974Y-84283198D02*
X107816802Y-89187974D01*
X102912778Y-88216299D02*
X103883701Y-83312778D01*
D12*
X107100000Y-97500000D02*
X107500000Y-97500000D01*
X103800000Y-97500000D02*
X106200000Y-97500000D01*
X102500000Y-97500000D02*
X102900000Y-97500000D01*
X107100000Y-92500000D02*
X107500000Y-92500000D01*
X103800000Y-92500000D02*
X106200000Y-92500000D01*
X102500000Y-92500000D02*
X102900000Y-92500000D01*
X102900000Y-92300000D02*
X103800000Y-92300000D01*
X103800000Y-92300000D02*
X103800000Y-93200000D01*
X103800000Y-93200000D02*
X102900000Y-93200000D01*
X102900000Y-93200000D02*
X102900000Y-92300000D01*
X107100000Y-92300000D02*
X106200000Y-92300000D01*
X106200000Y-92300000D02*
X106200000Y-93200000D01*
X106200000Y-93200000D02*
X107100000Y-93200000D01*
X107100000Y-93200000D02*
X107100000Y-92300000D01*
D11*
X102900000Y-97700000D02*
X102900000Y-96800000D01*
X102900000Y-96800000D02*
X103800000Y-96800000D01*
X103800000Y-96800000D02*
X103800000Y-97700000D01*
X103800000Y-97700000D02*
X102900000Y-97700000D01*
X106200000Y-97700000D02*
X106200000Y-96800000D01*
X106200000Y-96800000D02*
X107100000Y-96800000D01*
X107100000Y-96800000D02*
X107100000Y-97700000D01*
X107100000Y-97700000D02*
X106200000Y-97700000D01*
X107500000Y-92500000D02*
X107500000Y-97500000D01*
X102500640Y-97499360D02*
X102500640Y-92500640D01*
D12*
X108399156Y-105790050D02*
X108791402Y-105711671D01*
X105163128Y-106436672D02*
X107516603Y-105966401D01*
X103888329Y-106691402D02*
X104280575Y-106613024D01*
X107419425Y-100886976D02*
X107811671Y-100808598D01*
X104183397Y-101533599D02*
X106536872Y-101063328D01*
X102908598Y-101788329D02*
X103300844Y-101709950D01*
X103261655Y-101513827D02*
X104144208Y-101337476D01*
X104144208Y-101337476D02*
X104320559Y-102220029D01*
X104320559Y-102220029D02*
X103438006Y-102396381D01*
X103438006Y-102396381D02*
X103261655Y-101513827D01*
X107380236Y-100690854D02*
X106497683Y-100867205D01*
X106497683Y-100867205D02*
X106674035Y-101749758D01*
X106674035Y-101749758D02*
X107556588Y-101573407D01*
X107556588Y-101573407D02*
X107380236Y-100690854D01*
D11*
X104319764Y-106809146D02*
X104143412Y-105926593D01*
X104143412Y-105926593D02*
X105025965Y-105750242D01*
X105025965Y-105750242D02*
X105202317Y-106632795D01*
X105202317Y-106632795D02*
X104319764Y-106809146D01*
X107555792Y-106162524D02*
X107379441Y-105279971D01*
X107379441Y-105279971D02*
X108261994Y-105103619D01*
X108261994Y-105103619D02*
X108438345Y-105986173D01*
X108438345Y-105986173D02*
X107555792Y-106162524D01*
X107811671Y-100808598D02*
X108791402Y-105711671D01*
X103888831Y-106690649D02*
X102909351Y-101788831D01*
D12*
X111346856Y-113806064D02*
X111716407Y-113652990D01*
X108298053Y-115068919D02*
X110515364Y-114150479D01*
X107097010Y-115566407D02*
X107466562Y-115413334D01*
X109433438Y-109186666D02*
X109802990Y-109033593D01*
X106384636Y-110449521D02*
X108601947Y-109531081D01*
X105183593Y-110947010D02*
X105553144Y-110793936D01*
X105476608Y-110609160D02*
X106308099Y-110264745D01*
X106308099Y-110264745D02*
X106652514Y-111096237D01*
X106652514Y-111096237D02*
X105821023Y-111440652D01*
X105821023Y-111440652D02*
X105476608Y-110609160D01*
X109356902Y-109001890D02*
X108525410Y-109346305D01*
X108525410Y-109346305D02*
X108869825Y-110177797D01*
X108869825Y-110177797D02*
X109701317Y-109833382D01*
X109701317Y-109833382D02*
X109356902Y-109001890D01*
D11*
X107543098Y-115598110D02*
X107198683Y-114766618D01*
X107198683Y-114766618D02*
X108030175Y-114422203D01*
X108030175Y-114422203D02*
X108374590Y-115253695D01*
X108374590Y-115253695D02*
X107543098Y-115598110D01*
X110591901Y-114335255D02*
X110247486Y-113503763D01*
X110247486Y-113503763D02*
X111078977Y-113159348D01*
X111078977Y-113159348D02*
X111423392Y-113990840D01*
X111423392Y-113990840D02*
X110591901Y-114335255D01*
X109802990Y-109033593D02*
X111716407Y-113652990D01*
X107097356Y-115565571D02*
X105184429Y-110947356D01*
D12*
X115685806Y-120859240D02*
X116018200Y-120636722D01*
X112943558Y-122695016D02*
X114937920Y-121359906D01*
X111863278Y-123418200D02*
X112195672Y-123195682D01*
X112904328Y-116704318D02*
X113236722Y-116481800D01*
X110162080Y-118540094D02*
X112156442Y-117204984D01*
X109081800Y-119263278D02*
X109414194Y-119040760D01*
X109302934Y-118874563D02*
X110050820Y-118373897D01*
X110050820Y-118373897D02*
X110551487Y-119121783D01*
X110551487Y-119121783D02*
X109803601Y-119622449D01*
X109803601Y-119622449D02*
X109302934Y-118874563D01*
X112793069Y-116538121D02*
X112045183Y-117038787D01*
X112045183Y-117038787D02*
X112545849Y-117786673D01*
X112545849Y-117786673D02*
X113293735Y-117286007D01*
X113293735Y-117286007D02*
X112793069Y-116538121D01*
D11*
X112306931Y-123361879D02*
X111806265Y-122613993D01*
X111806265Y-122613993D02*
X112554151Y-122113327D01*
X112554151Y-122113327D02*
X113054817Y-122861213D01*
X113054817Y-122861213D02*
X112306931Y-123361879D01*
X115049180Y-121526103D02*
X114548513Y-120778217D01*
X114548513Y-120778217D02*
X115296399Y-120277551D01*
X115296399Y-120277551D02*
X115797066Y-121025437D01*
X115797066Y-121025437D02*
X115049180Y-121526103D01*
X113236722Y-116481800D02*
X116018200Y-120636722D01*
X111863454Y-123417312D02*
X109082688Y-119263454D01*
D12*
X121452691Y-127132843D02*
X121735534Y-126850000D01*
X119119239Y-129466295D02*
X120816295Y-127769239D01*
X118200000Y-130385534D02*
X118482843Y-130102691D01*
X117917157Y-123597309D02*
X118200000Y-123314466D01*
X115583705Y-125930761D02*
X117280761Y-124233705D01*
X114664466Y-126850000D02*
X114947309Y-126567157D01*
X114805887Y-126425736D02*
X115442284Y-125789340D01*
X115442284Y-125789340D02*
X116078680Y-126425736D01*
X116078680Y-126425736D02*
X115442284Y-127062132D01*
X115442284Y-127062132D02*
X114805887Y-126425736D01*
X117775736Y-123455887D02*
X117139340Y-124092284D01*
X117139340Y-124092284D02*
X117775736Y-124728680D01*
X117775736Y-124728680D02*
X118412132Y-124092284D01*
X118412132Y-124092284D02*
X117775736Y-123455887D01*
D11*
X118624264Y-130244113D02*
X117987868Y-129607716D01*
X117987868Y-129607716D02*
X118624264Y-128971320D01*
X118624264Y-128971320D02*
X119260660Y-129607716D01*
X119260660Y-129607716D02*
X118624264Y-130244113D01*
X120957716Y-127910660D02*
X120321320Y-127274264D01*
X120321320Y-127274264D02*
X120957716Y-126637868D01*
X120957716Y-126637868D02*
X121594113Y-127274264D01*
X121594113Y-127274264D02*
X120957716Y-127910660D01*
X118200000Y-123314466D02*
X121735534Y-126850000D01*
X118200000Y-130384629D02*
X114665371Y-126850000D01*
D12*
X128195059Y-132040007D02*
X128416996Y-131707226D01*
X126364072Y-134785456D02*
X127695699Y-132788766D01*
X125642774Y-135866996D02*
X125864712Y-135534215D01*
X124035288Y-129265785D02*
X124257226Y-128933004D01*
X122204301Y-132011234D02*
X123535928Y-130014544D01*
X121483004Y-133092774D02*
X121704941Y-132759993D01*
X121538551Y-132649024D02*
X122037911Y-131900265D01*
X122037911Y-131900265D02*
X122786669Y-132399625D01*
X122786669Y-132399625D02*
X122287309Y-133148384D01*
X122287309Y-133148384D02*
X121538551Y-132649024D01*
X123868897Y-129154816D02*
X123369537Y-129903575D01*
X123369537Y-129903575D02*
X124118296Y-130402935D01*
X124118296Y-130402935D02*
X124617656Y-129654176D01*
X124617656Y-129654176D02*
X123868897Y-129154816D01*
D11*
X126031103Y-135645184D02*
X125282344Y-135145824D01*
X125282344Y-135145824D02*
X125781704Y-134397065D01*
X125781704Y-134397065D02*
X126530463Y-134896425D01*
X126530463Y-134896425D02*
X126031103Y-135645184D01*
X127862089Y-132899735D02*
X127113331Y-132400375D01*
X127113331Y-132400375D02*
X127612691Y-131651616D01*
X127612691Y-131651616D02*
X128361449Y-132150976D01*
X128361449Y-132150976D02*
X127862089Y-132899735D01*
X124257226Y-128933004D02*
X128416996Y-131707226D01*
X125642597Y-135866109D02*
X121483891Y-133092597D01*
D12*
X135913334Y-135616562D02*
X136066407Y-135247010D01*
X134650479Y-138665364D02*
X135568919Y-136448053D01*
X134152990Y-139866407D02*
X134306064Y-139496856D01*
X131293936Y-133703144D02*
X131447010Y-133333593D01*
X130031081Y-136751947D02*
X130949521Y-134534636D01*
X129533593Y-137952990D02*
X129686666Y-137583438D01*
X129501890Y-137506902D02*
X129846305Y-136675410D01*
X129846305Y-136675410D02*
X130677797Y-137019825D01*
X130677797Y-137019825D02*
X130333382Y-137851317D01*
X130333382Y-137851317D02*
X129501890Y-137506902D01*
X131109160Y-133626608D02*
X130764745Y-134458099D01*
X130764745Y-134458099D02*
X131596237Y-134802514D01*
X131596237Y-134802514D02*
X131940652Y-133971023D01*
X131940652Y-133971023D02*
X131109160Y-133626608D01*
D11*
X134490840Y-139573392D02*
X133659348Y-139228977D01*
X133659348Y-139228977D02*
X134003763Y-138397486D01*
X134003763Y-138397486D02*
X134835255Y-138741901D01*
X134835255Y-138741901D02*
X134490840Y-139573392D01*
X135753695Y-136524590D02*
X134922203Y-136180175D01*
X134922203Y-136180175D02*
X135266618Y-135348683D01*
X135266618Y-135348683D02*
X136098110Y-135693098D01*
X136098110Y-135693098D02*
X135753695Y-136524590D01*
X131447010Y-133333593D02*
X136066407Y-135247010D01*
X134152644Y-139865571D02*
X129534429Y-137952644D01*
D12*
X144010280Y-137575580D02*
X144087974Y-137183198D01*
X143369307Y-140812732D02*
X143835469Y-138458440D01*
X143116802Y-142087974D02*
X143194496Y-141695592D01*
X139105504Y-136604408D02*
X139183198Y-136212026D01*
X138464531Y-139841560D02*
X138930693Y-137487268D01*
X138212026Y-141116802D02*
X138289720Y-140724420D01*
X138093529Y-140685573D02*
X138268340Y-139802713D01*
X138268340Y-139802713D02*
X139151199Y-139977524D01*
X139151199Y-139977524D02*
X138976389Y-140860384D01*
X138976389Y-140860384D02*
X138093529Y-140685573D01*
X138909313Y-136565561D02*
X138734502Y-137448421D01*
X138734502Y-137448421D02*
X139617362Y-137623232D01*
X139617362Y-137623232D02*
X139792173Y-136740372D01*
X139792173Y-136740372D02*
X138909313Y-136565561D01*
D11*
X143390687Y-141734439D02*
X142507827Y-141559628D01*
X142507827Y-141559628D02*
X142682638Y-140676768D01*
X142682638Y-140676768D02*
X143565498Y-140851579D01*
X143565498Y-140851579D02*
X143390687Y-141734439D01*
X144031660Y-138497287D02*
X143148801Y-138322476D01*
X143148801Y-138322476D02*
X143323611Y-137439616D01*
X143323611Y-137439616D02*
X144206471Y-137614427D01*
X144206471Y-137614427D02*
X144031660Y-138497287D01*
X139183198Y-136212026D02*
X144087974Y-137183198D01*
X143116299Y-142087222D02*
X138212778Y-141116299D01*
D12*
X152500000Y-137900000D02*
X152500000Y-137500000D01*
X152500000Y-141200000D02*
X152500000Y-138800000D01*
X152500000Y-142500000D02*
X152500000Y-142100000D01*
X147500000Y-137900000D02*
X147500000Y-137500000D01*
X147500000Y-141200000D02*
X147500000Y-138800000D01*
X147500000Y-142500000D02*
X147500000Y-142100000D01*
X147300000Y-142100000D02*
X147300000Y-141200000D01*
X147300000Y-141200000D02*
X148200000Y-141200000D01*
X148200000Y-141200000D02*
X148200000Y-142100000D01*
X148200000Y-142100000D02*
X147300000Y-142100000D01*
X147300000Y-137900000D02*
X147300000Y-138800000D01*
X147300000Y-138800000D02*
X148200000Y-138800000D01*
X148200000Y-138800000D02*
X148200000Y-137900000D01*
X148200000Y-137900000D02*
X147300000Y-137900000D01*
D11*
X152700000Y-142100000D02*
X151800000Y-142100000D01*
X151800000Y-142100000D02*
X151800000Y-141200000D01*
X151800000Y-141200000D02*
X152700000Y-141200000D01*
X152700000Y-141200000D02*
X152700000Y-142100000D01*
X152700000Y-138800000D02*
X151800000Y-138800000D01*
X151800000Y-138800000D02*
X151800000Y-137900000D01*
X151800000Y-137900000D02*
X152700000Y-137900000D01*
X152700000Y-137900000D02*
X152700000Y-138800000D01*
X147500000Y-137500000D02*
X152500000Y-137500000D01*
X152499360Y-142499360D02*
X147500640Y-142499360D01*
D12*
X160726674Y-136540197D02*
X160646243Y-136148367D01*
X161390232Y-139772795D02*
X160907645Y-137421815D01*
X161651633Y-141046243D02*
X161571202Y-140654413D01*
X155828798Y-137545587D02*
X155748367Y-137153757D01*
X156492355Y-140778185D02*
X156009768Y-138427205D01*
X156753757Y-142051633D02*
X156673326Y-141659803D01*
X156477410Y-141700018D02*
X156296440Y-140818401D01*
X156296440Y-140818401D02*
X157178058Y-140637431D01*
X157178058Y-140637431D02*
X157359028Y-141519048D01*
X157359028Y-141519048D02*
X156477410Y-141700018D01*
X155632883Y-137585802D02*
X155813853Y-138467420D01*
X155813853Y-138467420D02*
X156695471Y-138286450D01*
X156695471Y-138286450D02*
X156514501Y-137404832D01*
X156514501Y-137404832D02*
X155632883Y-137585802D01*
D11*
X161767117Y-140614198D02*
X160885499Y-140795168D01*
X160885499Y-140795168D02*
X160704529Y-139913550D01*
X160704529Y-139913550D02*
X161586147Y-139732580D01*
X161586147Y-139732580D02*
X161767117Y-140614198D01*
X161103560Y-137381599D02*
X160221942Y-137562569D01*
X160221942Y-137562569D02*
X160040972Y-136680952D01*
X160040972Y-136680952D02*
X160922590Y-136499982D01*
X160922590Y-136499982D02*
X161103560Y-137381599D01*
X155748367Y-137153757D02*
X160646243Y-136148367D01*
X161650877Y-141045745D02*
X156754255Y-142050877D01*
D12*
X168690875Y-133695298D02*
X168535869Y-133326553D01*
X169969677Y-136737447D02*
X169039639Y-134524975D01*
X170473447Y-137935869D02*
X170318441Y-137567124D01*
X164081559Y-135632876D02*
X163926553Y-135264131D01*
X165360361Y-138675025D02*
X164430323Y-136462553D01*
X165864131Y-139873447D02*
X165709125Y-139504702D01*
X165524752Y-139582205D02*
X165175988Y-138752528D01*
X165175988Y-138752528D02*
X166005665Y-138403764D01*
X166005665Y-138403764D02*
X166354429Y-139233441D01*
X166354429Y-139233441D02*
X165524752Y-139582205D01*
X163897187Y-135710379D02*
X164245951Y-136540056D01*
X164245951Y-136540056D02*
X165075628Y-136191292D01*
X165075628Y-136191292D02*
X164726864Y-135361615D01*
X164726864Y-135361615D02*
X163897187Y-135710379D01*
D11*
X170502813Y-137489621D02*
X169673136Y-137838385D01*
X169673136Y-137838385D02*
X169324372Y-137008708D01*
X169324372Y-137008708D02*
X170154049Y-136659944D01*
X170154049Y-136659944D02*
X170502813Y-137489621D01*
X169224012Y-134447472D02*
X168394335Y-134796236D01*
X168394335Y-134796236D02*
X168045571Y-133966559D01*
X168045571Y-133966559D02*
X168875248Y-133617795D01*
X168875248Y-133617795D02*
X169224012Y-134447472D01*
X163926553Y-135264131D02*
X168535869Y-133326553D01*
X170472609Y-137935527D02*
X165864473Y-139872609D01*
D12*
X175798289Y-129361039D02*
X175574612Y-129029424D01*
X177643625Y-132096863D02*
X176301562Y-130107173D01*
X178370576Y-133174612D02*
X178146899Y-132842997D01*
X171653101Y-132157003D02*
X171429424Y-131825388D01*
X173498438Y-134892827D02*
X172156375Y-132903137D01*
X174225388Y-135970576D02*
X174001711Y-135638961D01*
X173835904Y-135750800D02*
X173332630Y-135004666D01*
X173332630Y-135004666D02*
X174078764Y-134501392D01*
X174078764Y-134501392D02*
X174582037Y-135247526D01*
X174582037Y-135247526D02*
X173835904Y-135750800D01*
X171487293Y-132268842D02*
X171990567Y-133014976D01*
X171990567Y-133014976D02*
X172736701Y-132511702D01*
X172736701Y-132511702D02*
X172233427Y-131765568D01*
X172233427Y-131765568D02*
X171487293Y-132268842D01*
D11*
X178312707Y-132731158D02*
X177566573Y-133234432D01*
X177566573Y-133234432D02*
X177063299Y-132488298D01*
X177063299Y-132488298D02*
X177809433Y-131985024D01*
X177809433Y-131985024D02*
X178312707Y-132731158D01*
X176467370Y-129995334D02*
X175721236Y-130498608D01*
X175721236Y-130498608D02*
X175217963Y-129752474D01*
X175217963Y-129752474D02*
X175964096Y-129249200D01*
X175964096Y-129249200D02*
X176467370Y-129995334D01*
X171429424Y-131825388D02*
X175574612Y-129029424D01*
X178369688Y-133174439D02*
X174225561Y-135969688D01*
D12*
X182077165Y-123546820D02*
X181793829Y-123264471D01*
X184414687Y-125876196D02*
X182714671Y-124182105D01*
X185335529Y-126793829D02*
X185052193Y-126511481D01*
X178547807Y-127088519D02*
X178264471Y-126806171D01*
X180885329Y-129417895D02*
X179185313Y-127723804D01*
X181806171Y-130335529D02*
X181522835Y-130053180D01*
X181381660Y-130194848D02*
X180744155Y-129559563D01*
X180744155Y-129559563D02*
X181379439Y-128922058D01*
X181379439Y-128922058D02*
X182016945Y-129557342D01*
X182016945Y-129557342D02*
X181381660Y-130194848D01*
X178406633Y-127230187D02*
X179044139Y-127865472D01*
X179044139Y-127865472D02*
X179679423Y-127227966D01*
X179679423Y-127227966D02*
X179041918Y-126592681D01*
X179041918Y-126592681D02*
X178406633Y-127230187D01*
D11*
X185193367Y-126369813D02*
X184558082Y-127007319D01*
X184558082Y-127007319D02*
X183920577Y-126372034D01*
X183920577Y-126372034D02*
X184555861Y-125734528D01*
X184555861Y-125734528D02*
X185193367Y-126369813D01*
X182855845Y-124040437D02*
X182220561Y-124677942D01*
X182220561Y-124677942D02*
X181583055Y-124042658D01*
X181583055Y-124042658D02*
X182218340Y-123405152D01*
X182218340Y-123405152D02*
X182855845Y-124040437D01*
X178264471Y-126806171D02*
X181793829Y-123264471D01*
X185334623Y-126793831D02*
X181806169Y-130334623D01*
D12*
X187040007Y-116754941D02*
X186707226Y-116533004D01*
X189785456Y-118585928D02*
X187788766Y-117254301D01*
X190866996Y-119307226D02*
X190534215Y-119085288D01*
X184265785Y-120914712D02*
X183933004Y-120692774D01*
X187011234Y-122745699D02*
X185014544Y-121414072D01*
X188092774Y-123466996D02*
X187759993Y-123245059D01*
X187649024Y-123411449D02*
X186900265Y-122912089D01*
X186900265Y-122912089D02*
X187399625Y-122163331D01*
X187399625Y-122163331D02*
X188148384Y-122662691D01*
X188148384Y-122662691D02*
X187649024Y-123411449D01*
X184154816Y-121081103D02*
X184903575Y-121580463D01*
X184903575Y-121580463D02*
X185402935Y-120831704D01*
X185402935Y-120831704D02*
X184654176Y-120332344D01*
X184654176Y-120332344D02*
X184154816Y-121081103D01*
D11*
X190645184Y-118918897D02*
X190145824Y-119667656D01*
X190145824Y-119667656D02*
X189397065Y-119168296D01*
X189397065Y-119168296D02*
X189896425Y-118419537D01*
X189896425Y-118419537D02*
X190645184Y-118918897D01*
X187899735Y-117087911D02*
X187400375Y-117836669D01*
X187400375Y-117836669D02*
X186651616Y-117337309D01*
X186651616Y-117337309D02*
X187150976Y-116588551D01*
X187150976Y-116588551D02*
X187899735Y-117087911D01*
X183933004Y-120692774D02*
X186707226Y-116533004D01*
X190866109Y-119307403D02*
X188092597Y-123466109D01*
D12*
X190621997Y-109084954D02*
X190252713Y-108931236D01*
X193668591Y-110353129D02*
X191452886Y-109430820D01*
X194868764Y-110852713D02*
X194499480Y-110698995D01*
X188700520Y-113701005D02*
X188331236Y-113547287D01*
X191747114Y-114969180D02*
X189531409Y-114046871D01*
X192947287Y-115468764D02*
X192578003Y-115315046D01*
X192501144Y-115499688D02*
X191670255Y-115153822D01*
X191670255Y-115153822D02*
X192016121Y-114322933D01*
X192016121Y-114322933D02*
X192847010Y-114668799D01*
X192847010Y-114668799D02*
X192501144Y-115499688D01*
X188623661Y-113885647D02*
X189454550Y-114231513D01*
X189454550Y-114231513D02*
X189800416Y-113400624D01*
X189800416Y-113400624D02*
X188969527Y-113054758D01*
X188969527Y-113054758D02*
X188623661Y-113885647D01*
D11*
X194576339Y-110514353D02*
X194230473Y-111345242D01*
X194230473Y-111345242D02*
X193399584Y-110999376D01*
X193399584Y-110999376D02*
X193745450Y-110168487D01*
X193745450Y-110168487D02*
X194576339Y-110514353D01*
X191529745Y-109246178D02*
X191183879Y-110077067D01*
X191183879Y-110077067D02*
X190352990Y-109731201D01*
X190352990Y-109731201D02*
X190698856Y-108900312D01*
X190698856Y-108900312D02*
X191529745Y-109246178D01*
X188331236Y-113547287D02*
X190252713Y-108931236D01*
X194867927Y-110853058D02*
X192946942Y-115467927D01*
D12*
X192530575Y-101036976D02*
X192138329Y-100958598D01*
X195766603Y-101683599D02*
X193413128Y-101213328D01*
X197041402Y-101938329D02*
X196649156Y-101859950D01*
X191550844Y-105940050D02*
X191158598Y-105861671D01*
X194786872Y-106586672D02*
X192433397Y-106116401D01*
X196061671Y-106841402D02*
X195669425Y-106763024D01*
X195630236Y-106959146D02*
X194747683Y-106782795D01*
X194747683Y-106782795D02*
X194924035Y-105900242D01*
X194924035Y-105900242D02*
X195806588Y-106076593D01*
X195806588Y-106076593D02*
X195630236Y-106959146D01*
X191511655Y-106136173D02*
X192394208Y-106312524D01*
X192394208Y-106312524D02*
X192570559Y-105429971D01*
X192570559Y-105429971D02*
X191688006Y-105253619D01*
X191688006Y-105253619D02*
X191511655Y-106136173D01*
D11*
X196688345Y-101663827D02*
X196511994Y-102546381D01*
X196511994Y-102546381D02*
X195629441Y-102370029D01*
X195629441Y-102370029D02*
X195805792Y-101487476D01*
X195805792Y-101487476D02*
X196688345Y-101663827D01*
X193452317Y-101017205D02*
X193275965Y-101899758D01*
X193275965Y-101899758D02*
X192393412Y-101723407D01*
X192393412Y-101723407D02*
X192569764Y-100840854D01*
X192569764Y-100840854D02*
X193452317Y-101017205D01*
X191158598Y-105861671D02*
X192138329Y-100958598D01*
X197040649Y-101938831D02*
X196061169Y-106840649D01*
D12*
X192900000Y-92500000D02*
X192500000Y-92500000D01*
X196200000Y-92500000D02*
X193800000Y-92500000D01*
X197500000Y-92500000D02*
X197100000Y-92500000D01*
X192900000Y-97500000D02*
X192500000Y-97500000D01*
X196200000Y-97500000D02*
X193800000Y-97500000D01*
X197500000Y-97500000D02*
X197100000Y-97500000D01*
X197100000Y-97700000D02*
X196200000Y-97700000D01*
X196200000Y-97700000D02*
X196200000Y-96800000D01*
X196200000Y-96800000D02*
X197100000Y-96800000D01*
X197100000Y-96800000D02*
X197100000Y-97700000D01*
X192900000Y-97700000D02*
X193800000Y-97700000D01*
X193800000Y-97700000D02*
X193800000Y-96800000D01*
X193800000Y-96800000D02*
X192900000Y-96800000D01*
X192900000Y-96800000D02*
X192900000Y-97700000D01*
D11*
X197100000Y-92300000D02*
X197100000Y-93200000D01*
X197100000Y-93200000D02*
X196200000Y-93200000D01*
X196200000Y-93200000D02*
X196200000Y-92300000D01*
X196200000Y-92300000D02*
X197100000Y-92300000D01*
X193800000Y-92300000D02*
X193800000Y-93200000D01*
X193800000Y-93200000D02*
X192900000Y-93200000D01*
X192900000Y-93200000D02*
X192900000Y-92300000D01*
X192900000Y-92300000D02*
X193800000Y-92300000D01*
X192500000Y-97500000D02*
X192500000Y-92500000D01*
X197499360Y-92500640D02*
X197499360Y-97499360D01*
D12*
X191554408Y-84155504D02*
X191162026Y-84233198D01*
X194791560Y-83514531D02*
X192437268Y-83980693D01*
X196066802Y-83262026D02*
X195674420Y-83339720D01*
X192525580Y-89060280D02*
X192133198Y-89137974D01*
X195762732Y-88419307D02*
X193408440Y-88885469D01*
X197037974Y-88166802D02*
X196645592Y-88244496D01*
X196684439Y-88440687D02*
X195801579Y-88615498D01*
X195801579Y-88615498D02*
X195626768Y-87732638D01*
X195626768Y-87732638D02*
X196509628Y-87557827D01*
X196509628Y-87557827D02*
X196684439Y-88440687D01*
X192564427Y-89256471D02*
X193447287Y-89081660D01*
X193447287Y-89081660D02*
X193272476Y-88198801D01*
X193272476Y-88198801D02*
X192389616Y-88373611D01*
X192389616Y-88373611D02*
X192564427Y-89256471D01*
D11*
X195635573Y-83143529D02*
X195810384Y-84026389D01*
X195810384Y-84026389D02*
X194927524Y-84201199D01*
X194927524Y-84201199D02*
X194752713Y-83318340D01*
X194752713Y-83318340D02*
X195635573Y-83143529D01*
X192398421Y-83784502D02*
X192573232Y-84667362D01*
X192573232Y-84667362D02*
X191690372Y-84842173D01*
X191690372Y-84842173D02*
X191515561Y-83959313D01*
X191515561Y-83959313D02*
X192398421Y-83784502D01*
X192133198Y-89137974D02*
X191162026Y-84233198D01*
X196066299Y-83262778D02*
X197037222Y-88166299D01*
D12*
X188700520Y-76298995D02*
X188331236Y-76452713D01*
X191747114Y-75030820D02*
X189531409Y-75953129D01*
X192947287Y-74531236D02*
X192578003Y-74684954D01*
X190621997Y-80915046D02*
X190252713Y-81068764D01*
X193668591Y-79646871D02*
X191452886Y-80569180D01*
X194868764Y-79147287D02*
X194499480Y-79301005D01*
X194576339Y-79485647D02*
X193745450Y-79831513D01*
X193745450Y-79831513D02*
X193399584Y-79000624D01*
X193399584Y-79000624D02*
X194230473Y-78654758D01*
X194230473Y-78654758D02*
X194576339Y-79485647D01*
X190698856Y-81099688D02*
X191529745Y-80753822D01*
X191529745Y-80753822D02*
X191183879Y-79922933D01*
X191183879Y-79922933D02*
X190352990Y-80268799D01*
X190352990Y-80268799D02*
X190698856Y-81099688D01*
D11*
X192501144Y-74500312D02*
X192847010Y-75331201D01*
X192847010Y-75331201D02*
X192016121Y-75677067D01*
X192016121Y-75677067D02*
X191670255Y-74846178D01*
X191670255Y-74846178D02*
X192501144Y-74500312D01*
X189454550Y-75768487D02*
X189800416Y-76599376D01*
X189800416Y-76599376D02*
X188969527Y-76945242D01*
X188969527Y-76945242D02*
X188623661Y-76114353D01*
X188623661Y-76114353D02*
X189454550Y-75768487D01*
X190252713Y-81068764D02*
X188331236Y-76452713D01*
X192946942Y-74532073D02*
X194867927Y-79146942D01*
D12*
X184264194Y-69090760D02*
X183931800Y-69313278D01*
X187006442Y-67254984D02*
X185012080Y-68590094D01*
X188086722Y-66531800D02*
X187754328Y-66754318D01*
X187045672Y-73245682D02*
X186713278Y-73468200D01*
X189787920Y-71409906D02*
X187793558Y-72745016D01*
X190868200Y-70686722D02*
X190535806Y-70909240D01*
X190647066Y-71075437D02*
X189899180Y-71576103D01*
X189899180Y-71576103D02*
X189398513Y-70828217D01*
X189398513Y-70828217D02*
X190146399Y-70327551D01*
X190146399Y-70327551D02*
X190647066Y-71075437D01*
X187156931Y-73411879D02*
X187904817Y-72911213D01*
X187904817Y-72911213D02*
X187404151Y-72163327D01*
X187404151Y-72163327D02*
X186656265Y-72663993D01*
X186656265Y-72663993D02*
X187156931Y-73411879D01*
D11*
X187643069Y-66588121D02*
X188143735Y-67336007D01*
X188143735Y-67336007D02*
X187395849Y-67836673D01*
X187395849Y-67836673D02*
X186895183Y-67088787D01*
X186895183Y-67088787D02*
X187643069Y-66588121D01*
X184900820Y-68423897D02*
X185401487Y-69171783D01*
X185401487Y-69171783D02*
X184653601Y-69672449D01*
X184653601Y-69672449D02*
X184152934Y-68924563D01*
X184152934Y-68924563D02*
X184900820Y-68423897D01*
X186713278Y-73468200D02*
X183931800Y-69313278D01*
X188086546Y-66532688D02*
X190867312Y-70686546D01*
D12*
X178547309Y-62917157D02*
X178264466Y-63200000D01*
X180880761Y-60583705D02*
X179183705Y-62280761D01*
X181800000Y-59664466D02*
X181517157Y-59947309D01*
X182082843Y-66452691D02*
X181800000Y-66735534D01*
X184416295Y-64119239D02*
X182719239Y-65816295D01*
X185335534Y-63200000D02*
X185052691Y-63482843D01*
X185194113Y-63624264D02*
X184557716Y-64260660D01*
X184557716Y-64260660D02*
X183921320Y-63624264D01*
X183921320Y-63624264D02*
X184557716Y-62987868D01*
X184557716Y-62987868D02*
X185194113Y-63624264D01*
X182224264Y-66594113D02*
X182860660Y-65957716D01*
X182860660Y-65957716D02*
X182224264Y-65321320D01*
X182224264Y-65321320D02*
X181587868Y-65957716D01*
X181587868Y-65957716D02*
X182224264Y-66594113D01*
D11*
X181375736Y-59805887D02*
X182012132Y-60442284D01*
X182012132Y-60442284D02*
X181375736Y-61078680D01*
X181375736Y-61078680D02*
X180739340Y-60442284D01*
X180739340Y-60442284D02*
X181375736Y-59805887D01*
X179042284Y-62139340D02*
X179678680Y-62775736D01*
X179678680Y-62775736D02*
X179042284Y-63412132D01*
X179042284Y-63412132D02*
X178405887Y-62775736D01*
X178405887Y-62775736D02*
X179042284Y-62139340D01*
X181800000Y-66735534D02*
X178264466Y-63200000D01*
X181800000Y-59665371D02*
X185334629Y-63200000D01*
D12*
X171754318Y-57954328D02*
X171531800Y-58286722D01*
X173590094Y-55212080D02*
X172254984Y-57206442D01*
X174313278Y-54131800D02*
X174090760Y-54464194D01*
X175909240Y-60735806D02*
X175686722Y-61068200D01*
X177745016Y-57993558D02*
X176409906Y-59987920D01*
X178468200Y-56913278D02*
X178245682Y-57245672D01*
X178411879Y-57356931D02*
X177911213Y-58104817D01*
X177911213Y-58104817D02*
X177163327Y-57604151D01*
X177163327Y-57604151D02*
X177663993Y-56856265D01*
X177663993Y-56856265D02*
X178411879Y-57356931D01*
X176075437Y-60847066D02*
X176576103Y-60099180D01*
X176576103Y-60099180D02*
X175828217Y-59598513D01*
X175828217Y-59598513D02*
X175327551Y-60346399D01*
X175327551Y-60346399D02*
X176075437Y-60847066D01*
D11*
X173924563Y-54352934D02*
X174672449Y-54853601D01*
X174672449Y-54853601D02*
X174171783Y-55601487D01*
X174171783Y-55601487D02*
X173423897Y-55100820D01*
X173423897Y-55100820D02*
X173924563Y-54352934D01*
X172088787Y-57095183D02*
X172836673Y-57595849D01*
X172836673Y-57595849D02*
X172336007Y-58343735D01*
X172336007Y-58343735D02*
X171588121Y-57843069D01*
X171588121Y-57843069D02*
X172088787Y-57095183D01*
X175686722Y-61068200D02*
X171531800Y-58286722D01*
X174313454Y-54132688D02*
X178467312Y-56913454D01*
D12*
X164086666Y-54383438D02*
X163933593Y-54752990D01*
X165349521Y-51334636D02*
X164431081Y-53551947D01*
X165847010Y-50133593D02*
X165693936Y-50503144D01*
X168706064Y-56296856D02*
X168552990Y-56666407D01*
X169968919Y-53248053D02*
X169050479Y-55465364D01*
X170466407Y-52047010D02*
X170313334Y-52416562D01*
X170498110Y-52493098D02*
X170153695Y-53324590D01*
X170153695Y-53324590D02*
X169322203Y-52980175D01*
X169322203Y-52980175D02*
X169666618Y-52148683D01*
X169666618Y-52148683D02*
X170498110Y-52493098D01*
X168890840Y-56373392D02*
X169235255Y-55541901D01*
X169235255Y-55541901D02*
X168403763Y-55197486D01*
X168403763Y-55197486D02*
X168059348Y-56028977D01*
X168059348Y-56028977D02*
X168890840Y-56373392D01*
D11*
X165509160Y-50426608D02*
X166340652Y-50771023D01*
X166340652Y-50771023D02*
X165996237Y-51602514D01*
X165996237Y-51602514D02*
X165164745Y-51258099D01*
X165164745Y-51258099D02*
X165509160Y-50426608D01*
X164246305Y-53475410D02*
X165077797Y-53819825D01*
X165077797Y-53819825D02*
X164733382Y-54651317D01*
X164733382Y-54651317D02*
X163901890Y-54306902D01*
X163901890Y-54306902D02*
X164246305Y-53475410D01*
X168552990Y-56666407D02*
X163933593Y-54752990D01*
X165847356Y-50134429D02*
X170465571Y-52047356D01*
D12*
X155936976Y-52469425D02*
X155858598Y-52861671D01*
X156583599Y-49233397D02*
X156113328Y-51586872D01*
X156838329Y-47958598D02*
X156759950Y-48350844D01*
X160840050Y-53449156D02*
X160761671Y-53841402D01*
X161486672Y-50213128D02*
X161016401Y-52566603D01*
X161741402Y-48938329D02*
X161663024Y-49330575D01*
X161859146Y-49369764D02*
X161682795Y-50252317D01*
X161682795Y-50252317D02*
X160800242Y-50075965D01*
X160800242Y-50075965D02*
X160976593Y-49193412D01*
X160976593Y-49193412D02*
X161859146Y-49369764D01*
X161036173Y-53488345D02*
X161212524Y-52605792D01*
X161212524Y-52605792D02*
X160329971Y-52429441D01*
X160329971Y-52429441D02*
X160153619Y-53311994D01*
X160153619Y-53311994D02*
X161036173Y-53488345D01*
D11*
X156563827Y-48311655D02*
X157446381Y-48488006D01*
X157446381Y-48488006D02*
X157270029Y-49370559D01*
X157270029Y-49370559D02*
X156387476Y-49194208D01*
X156387476Y-49194208D02*
X156563827Y-48311655D01*
X155917205Y-51547683D02*
X156799758Y-51724035D01*
X156799758Y-51724035D02*
X156623407Y-52606588D01*
X156623407Y-52606588D02*
X155740854Y-52430236D01*
X155740854Y-52430236D02*
X155917205Y-51547683D01*
X160761671Y-53841402D02*
X155858598Y-52861671D01*
X156838831Y-47959351D02*
X161740649Y-48938831D01*
D12*
X147500000Y-47900000D02*
X147500000Y-47500000D01*
X147500000Y-51200000D02*
X147500000Y-48800000D01*
X147500000Y-52500000D02*
X147500000Y-52100000D01*
X152500000Y-47900000D02*
X152500000Y-47500000D01*
X152500000Y-51200000D02*
X152500000Y-48800000D01*
X152500000Y-52500000D02*
X152500000Y-52100000D01*
X152700000Y-52100000D02*
X152700000Y-51200000D01*
X152700000Y-51200000D02*
X151800000Y-51200000D01*
X151800000Y-51200000D02*
X151800000Y-52100000D01*
X151800000Y-52100000D02*
X152700000Y-52100000D01*
X152700000Y-47900000D02*
X152700000Y-48800000D01*
X152700000Y-48800000D02*
X151800000Y-48800000D01*
X151800000Y-48800000D02*
X151800000Y-47900000D01*
X151800000Y-47900000D02*
X152700000Y-47900000D01*
D11*
X147300000Y-52100000D02*
X148200000Y-52100000D01*
X148200000Y-52100000D02*
X148200000Y-51200000D01*
X148200000Y-51200000D02*
X147300000Y-51200000D01*
X147300000Y-51200000D02*
X147300000Y-52100000D01*
X147300000Y-48800000D02*
X148200000Y-48800000D01*
X148200000Y-48800000D02*
X148200000Y-47900000D01*
X148200000Y-47900000D02*
X147300000Y-47900000D01*
X147300000Y-47900000D02*
X147300000Y-48800000D01*
X152500000Y-47500000D02*
X147500000Y-47500000D01*
X147500640Y-52499360D02*
X152499360Y-52499360D01*
D12*
X147500000Y-52100000D02*
X147500000Y-52500000D01*
X147500000Y-48800000D02*
X147500000Y-51200000D01*
X147500000Y-47500000D02*
X147500000Y-47900000D01*
X152500000Y-52100000D02*
X152500000Y-52500000D01*
X152500000Y-48800000D02*
X152500000Y-51200000D01*
X152500000Y-47500000D02*
X152500000Y-47900000D01*
X152700000Y-47900000D02*
X152700000Y-48800000D01*
X152700000Y-48800000D02*
X151800000Y-48800000D01*
X151800000Y-48800000D02*
X151800000Y-47900000D01*
X151800000Y-47900000D02*
X152700000Y-47900000D01*
X152700000Y-52100000D02*
X152700000Y-51200000D01*
X152700000Y-51200000D02*
X151800000Y-51200000D01*
X151800000Y-51200000D02*
X151800000Y-52100000D01*
X151800000Y-52100000D02*
X152700000Y-52100000D01*
D11*
X147300000Y-47900000D02*
X148200000Y-47900000D01*
X148200000Y-47900000D02*
X148200000Y-48800000D01*
X148200000Y-48800000D02*
X147300000Y-48800000D01*
X147300000Y-48800000D02*
X147300000Y-47900000D01*
X147300000Y-51200000D02*
X148200000Y-51200000D01*
X148200000Y-51200000D02*
X148200000Y-52100000D01*
X148200000Y-52100000D02*
X147300000Y-52100000D01*
X147300000Y-52100000D02*
X147300000Y-51200000D01*
X152500000Y-52500000D02*
X147500000Y-52500000D01*
X147500640Y-47500640D02*
X152499360Y-47500640D01*
X136863843Y-64367929D02*
X135066255Y-65244672D01*
X136179718Y-67527609D02*
X137977306Y-66650866D01*
X141824666Y-63361379D02*
X140027078Y-64238122D01*
X142938128Y-65644316D02*
X141140540Y-66521058D01*
X160739654Y-63096653D02*
X158942066Y-62219911D01*
X157828603Y-64502848D02*
X159626191Y-65379590D01*
X164587013Y-66386140D02*
X162789425Y-65509398D01*
X163473551Y-68669077D02*
X161675962Y-67792335D01*
D10*
X146000000Y-68400000D02*
X146000000Y-67600000D01*
X145600000Y-68400000D02*
X145600000Y-67600000D01*
X145600000Y-68000000D02*
X145200000Y-68000000D01*
X146000000Y-68000000D02*
X146400000Y-68000000D01*
D11*
X144800000Y-68630000D02*
X146800000Y-68630000D01*
X146800000Y-68630000D02*
X146800000Y-67370000D01*
X146800000Y-67370000D02*
X144800000Y-67370000D01*
X144800000Y-67370000D02*
X144800000Y-68630000D01*
M02*
