M48
INCH,TZ
T1C0.012
T2C0.040
T3C0.118
%
G90
G05
T1
X040394Y-039232
X040433Y-035630
X041102Y-031929
X041181Y-042835
X041339Y-038386
X041496Y-034843
X041850Y-041772
X042323Y-031535
X042520Y-028543
X042559Y-046260
X043071Y-045079
X043307Y-038445
X043327Y-036358
X043386Y-035374
X043406Y-039449
X043740Y-028386
X043799Y-033327
X043819Y-041496
X044094Y-042480
X044114Y-032343
X044528Y-049252
X044567Y-025551
X044843Y-048031
X044902Y-030413
X044921Y-044409
X045374Y-045256
X045394Y-029547
X045866Y-025551
X046535Y-027795
X046535Y-047008
X047165Y-047815
X047165Y-051890
X047185Y-027008
X047205Y-022835
X047205Y-050630
X048425Y-023228
X048642Y-025512
X048661Y-049291
X049409Y-024941
X049429Y-049882
X050039Y-052677
X050157Y-020866
X050236Y-053858
X051122Y-023740
X051161Y-051083
X051378Y-021417
X052047Y-051555
X052067Y-023268
X053189Y-054173
X053346Y-024961
X053622Y-019449
X053622Y-055315
X053996Y-022421
X053996Y-052362
X054685Y-020236
X054941Y-022146
X054941Y-052638
X056429Y-048402
X056535Y-055039
X056988Y-053031
X057008Y-021713
X057205Y-018701
X057205Y-055984
X057551Y-021969
X057756Y-026339
X057992Y-021654
X058012Y-053150
X058110Y-019673
X058362Y-024051
X058399Y-024369
X059185Y-024047
X060039Y-055197
X060098Y-021654
X060098Y-053150
X060866Y-018780
X060906Y-056063
X061102Y-021772
X061102Y-053051
X061535Y-019882
X061594Y-047654
X063150Y-022165
X063150Y-052618
X063425Y-054606
X064094Y-022421
X064114Y-052362
X064488Y-019528
X064488Y-055354
X064685Y-020669
X066043Y-023248
X066043Y-051516
X066732Y-053465
X066870Y-051102
X066969Y-023720
X067835Y-020945
X067874Y-053976
X067953Y-022087
X068602Y-049882
X068701Y-024902
X069449Y-025531
X069469Y-049291
X069685Y-051654
X070827Y-024291
X070906Y-022992
X070906Y-051890
X070925Y-047776
X070945Y-026988
X071555Y-027776
X071594Y-047008
X072283Y-049213
X072717Y-029508
X072736Y-045276
X073189Y-030413
X073209Y-044390
X073228Y-026850
X073504Y-049213
X073543Y-025551
X073996Y-042461
X074016Y-032343
X074272Y-041516
X074291Y-046417
X074311Y-033307
X074685Y-039469
X074724Y-035354
X074803Y-036358
X074803Y-038445
X075000Y-029803
X075551Y-046220
X075591Y-028583
X075787Y-043268
X076181Y-033031
X076575Y-039961
X076732Y-036496
X076929Y-032008
X077008Y-042874
X077638Y-035591
X077677Y-039252
T2
X056555Y-023358
X057555Y-023358
X058555Y-023358
X059555Y-023358
X060555Y-023358
X061555Y-023358
T3
X058228Y-051154
X059705Y-051370
T0
M30
