%FSLAX34Y34*%
G04 Gerber Fmt 3.4, Leading zero omitted, Abs format*
G04 (created by PCBNEW (2014-06-29 BZR 4957)-product) date Tue 08 Jul 2014 04:48:14 PM CEST*
%MOIN*%
G01*
G70*
G90*
G04 APERTURE LIST*
%ADD10C,0.003937*%
%ADD11C,0.007874*%
%ADD12C,0.078740*%
%ADD13C,0.011811*%
G04 APERTURE END LIST*
G54D10*
G54D11*
X56408Y-26287D02*
G75*
G03X48523Y-41830I2646J-11114D01*
G74*
G01*
X49977Y-44332D02*
G75*
G03X68011Y-44488I9078J6930D01*
G74*
G01*
X69610Y-41799D02*
G75*
G03X61712Y-26279I-10555J4398D01*
G74*
G01*
G54D12*
X59055Y-28740D02*
X59055Y-25393D01*
G54D13*
X57806Y-28908D02*
X57497Y-28908D01*
X57440Y-28937D01*
X57412Y-28993D01*
X57412Y-29105D01*
X57440Y-29161D01*
X57778Y-28908D02*
X57806Y-28965D01*
X57806Y-29105D01*
X57778Y-29161D01*
X57722Y-29190D01*
X57665Y-29190D01*
X57609Y-29161D01*
X57581Y-29105D01*
X57581Y-28965D01*
X57553Y-28908D01*
X57806Y-28543D02*
X57778Y-28599D01*
X57722Y-28627D01*
X57215Y-28627D01*
X57806Y-28318D02*
X57412Y-28318D01*
X57215Y-28318D02*
X57244Y-28346D01*
X57272Y-28318D01*
X57244Y-28290D01*
X57215Y-28318D01*
X57272Y-28318D01*
X57412Y-27784D02*
X57890Y-27784D01*
X57947Y-27812D01*
X57975Y-27840D01*
X58003Y-27896D01*
X58003Y-27980D01*
X57975Y-28037D01*
X57778Y-27784D02*
X57806Y-27840D01*
X57806Y-27952D01*
X57778Y-28008D01*
X57750Y-28037D01*
X57694Y-28065D01*
X57525Y-28065D01*
X57469Y-28037D01*
X57440Y-28008D01*
X57412Y-27952D01*
X57412Y-27840D01*
X57440Y-27784D01*
X57412Y-27502D02*
X57806Y-27502D01*
X57469Y-27502D02*
X57440Y-27474D01*
X57412Y-27418D01*
X57412Y-27334D01*
X57440Y-27277D01*
X57497Y-27249D01*
X57806Y-27249D01*
X57412Y-26574D02*
X57806Y-26462D01*
X57525Y-26349D01*
X57806Y-26237D01*
X57412Y-26124D01*
X57806Y-25899D02*
X57412Y-25899D01*
X57215Y-25899D02*
X57244Y-25928D01*
X57272Y-25899D01*
X57244Y-25871D01*
X57215Y-25899D01*
X57272Y-25899D01*
X57412Y-25703D02*
X57412Y-25478D01*
X57215Y-25618D02*
X57722Y-25618D01*
X57778Y-25590D01*
X57806Y-25534D01*
X57806Y-25478D01*
X57806Y-25281D02*
X57215Y-25281D01*
X57806Y-25028D02*
X57497Y-25028D01*
X57440Y-25056D01*
X57412Y-25112D01*
X57412Y-25196D01*
X57440Y-25253D01*
X57469Y-25281D01*
X60613Y-28023D02*
X60641Y-27966D01*
X60641Y-27854D01*
X60613Y-27798D01*
X60556Y-27769D01*
X60528Y-27769D01*
X60472Y-27798D01*
X60444Y-27854D01*
X60444Y-27938D01*
X60416Y-27994D01*
X60359Y-28023D01*
X60331Y-28023D01*
X60275Y-27994D01*
X60247Y-27938D01*
X60247Y-27854D01*
X60275Y-27798D01*
X60247Y-27516D02*
X60838Y-27516D01*
X60275Y-27516D02*
X60247Y-27460D01*
X60247Y-27348D01*
X60275Y-27291D01*
X60303Y-27263D01*
X60359Y-27235D01*
X60528Y-27235D01*
X60584Y-27263D01*
X60613Y-27291D01*
X60641Y-27348D01*
X60641Y-27460D01*
X60613Y-27516D01*
X60641Y-26898D02*
X60613Y-26954D01*
X60584Y-26982D01*
X60528Y-27010D01*
X60359Y-27010D01*
X60303Y-26982D01*
X60275Y-26954D01*
X60247Y-26898D01*
X60247Y-26813D01*
X60275Y-26757D01*
X60303Y-26729D01*
X60359Y-26701D01*
X60528Y-26701D01*
X60584Y-26729D01*
X60613Y-26757D01*
X60641Y-26813D01*
X60641Y-26898D01*
X60641Y-26448D02*
X60050Y-26448D01*
X60416Y-26392D02*
X60641Y-26223D01*
X60247Y-26223D02*
X60472Y-26448D01*
X60613Y-25745D02*
X60641Y-25801D01*
X60641Y-25913D01*
X60613Y-25970D01*
X60556Y-25998D01*
X60331Y-25998D01*
X60275Y-25970D01*
X60247Y-25913D01*
X60247Y-25801D01*
X60275Y-25745D01*
X60331Y-25717D01*
X60388Y-25717D01*
X60444Y-25998D01*
G54D11*
X69403Y-39027D02*
X69403Y-38877D01*
X69272Y-38971D02*
X69610Y-38971D01*
X69647Y-38952D01*
X69666Y-38915D01*
X69666Y-38877D01*
X69666Y-38690D02*
X69647Y-38727D01*
X69628Y-38746D01*
X69591Y-38765D01*
X69478Y-38765D01*
X69441Y-38746D01*
X69422Y-38727D01*
X69403Y-38690D01*
X69403Y-38634D01*
X69422Y-38596D01*
X69441Y-38577D01*
X69478Y-38559D01*
X69591Y-38559D01*
X69628Y-38577D01*
X69647Y-38596D01*
X69666Y-38634D01*
X69666Y-38690D01*
X69403Y-38390D02*
X69797Y-38390D01*
X69422Y-38390D02*
X69403Y-38353D01*
X69403Y-38278D01*
X69422Y-38240D01*
X69441Y-38221D01*
X69478Y-38203D01*
X69591Y-38203D01*
X69628Y-38221D01*
X69647Y-38240D01*
X69666Y-38278D01*
X69666Y-38353D01*
X69647Y-38390D01*
X69666Y-37734D02*
X69272Y-37734D01*
X69516Y-37696D02*
X69666Y-37584D01*
X69403Y-37584D02*
X69553Y-37734D01*
X69647Y-37265D02*
X69666Y-37303D01*
X69666Y-37378D01*
X69647Y-37415D01*
X69610Y-37434D01*
X69460Y-37434D01*
X69422Y-37415D01*
X69403Y-37378D01*
X69403Y-37303D01*
X69422Y-37265D01*
X69460Y-37246D01*
X69497Y-37246D01*
X69535Y-37434D01*
X69647Y-36928D02*
X69666Y-36965D01*
X69666Y-37040D01*
X69647Y-37078D01*
X69610Y-37096D01*
X69460Y-37096D01*
X69422Y-37078D01*
X69403Y-37040D01*
X69403Y-36965D01*
X69422Y-36928D01*
X69460Y-36909D01*
X69497Y-36909D01*
X69535Y-37096D01*
X69403Y-36740D02*
X69797Y-36740D01*
X69422Y-36740D02*
X69403Y-36703D01*
X69403Y-36628D01*
X69422Y-36590D01*
X69441Y-36571D01*
X69478Y-36553D01*
X69591Y-36553D01*
X69628Y-36571D01*
X69647Y-36590D01*
X69666Y-36628D01*
X69666Y-36703D01*
X69647Y-36740D01*
X69666Y-36328D02*
X69647Y-36365D01*
X69628Y-36384D01*
X69591Y-36403D01*
X69478Y-36403D01*
X69441Y-36384D01*
X69422Y-36365D01*
X69403Y-36328D01*
X69403Y-36272D01*
X69422Y-36234D01*
X69441Y-36215D01*
X69478Y-36197D01*
X69591Y-36197D01*
X69628Y-36215D01*
X69647Y-36234D01*
X69666Y-36272D01*
X69666Y-36328D01*
X69403Y-35859D02*
X69666Y-35859D01*
X69403Y-36028D02*
X69610Y-36028D01*
X69647Y-36009D01*
X69666Y-35972D01*
X69666Y-35915D01*
X69647Y-35878D01*
X69628Y-35859D01*
X69403Y-35728D02*
X69403Y-35578D01*
X69272Y-35672D02*
X69610Y-35672D01*
X69647Y-35653D01*
X69666Y-35615D01*
X69666Y-35578D01*
G54D12*
X51574Y-41732D02*
X48622Y-43405D01*
X66535Y-41732D02*
X69488Y-43405D01*
%LPC*%
M02*
