G04 #@! TF.FileFunction,Other,Comment*
%FSLAX46Y46*%
G04 Gerber Fmt 4.6, Leading zero omitted, Abs format (unit mm)*
G04 Created by KiCad (PCBNEW (2015-02-11 BZR 5414)-product) date Thu 12 Feb 2015 02:52:31 PM CET*
%MOMM*%
G01*
G04 APERTURE LIST*
%ADD10C,0.100000*%
%ADD11C,0.200000*%
G04 APERTURE END LIST*
D10*
D11*
X173652381Y-100642858D02*
X172652381Y-100642858D01*
X173033333Y-100642858D02*
X172985714Y-100547620D01*
X172985714Y-100357143D01*
X173033333Y-100261905D01*
X173080952Y-100214286D01*
X173176190Y-100166667D01*
X173461905Y-100166667D01*
X173557143Y-100214286D01*
X173604762Y-100261905D01*
X173652381Y-100357143D01*
X173652381Y-100547620D01*
X173604762Y-100642858D01*
X173652381Y-99595239D02*
X173604762Y-99690477D01*
X173557143Y-99738096D01*
X173461905Y-99785715D01*
X173176190Y-99785715D01*
X173080952Y-99738096D01*
X173033333Y-99690477D01*
X172985714Y-99595239D01*
X172985714Y-99452381D01*
X173033333Y-99357143D01*
X173080952Y-99309524D01*
X173176190Y-99261905D01*
X173461905Y-99261905D01*
X173557143Y-99309524D01*
X173604762Y-99357143D01*
X173652381Y-99452381D01*
X173652381Y-99595239D01*
X172985714Y-98976191D02*
X172985714Y-98595239D01*
X172652381Y-98833334D02*
X173509524Y-98833334D01*
X173604762Y-98785715D01*
X173652381Y-98690477D01*
X173652381Y-98595239D01*
X172985714Y-98404762D02*
X172985714Y-98023810D01*
X172652381Y-98261905D02*
X173509524Y-98261905D01*
X173604762Y-98214286D01*
X173652381Y-98119048D01*
X173652381Y-98023810D01*
X173652381Y-97547619D02*
X173604762Y-97642857D01*
X173557143Y-97690476D01*
X173461905Y-97738095D01*
X173176190Y-97738095D01*
X173080952Y-97690476D01*
X173033333Y-97642857D01*
X172985714Y-97547619D01*
X172985714Y-97404761D01*
X173033333Y-97309523D01*
X173080952Y-97261904D01*
X173176190Y-97214285D01*
X173461905Y-97214285D01*
X173557143Y-97261904D01*
X173604762Y-97309523D01*
X173652381Y-97404761D01*
X173652381Y-97547619D01*
X173652381Y-96785714D02*
X172985714Y-96785714D01*
X173080952Y-96785714D02*
X173033333Y-96738095D01*
X172985714Y-96642857D01*
X172985714Y-96499999D01*
X173033333Y-96404761D01*
X173128571Y-96357142D01*
X173652381Y-96357142D01*
X173128571Y-96357142D02*
X173033333Y-96309523D01*
X172985714Y-96214285D01*
X172985714Y-96071428D01*
X173033333Y-95976190D01*
X173128571Y-95928571D01*
X173652381Y-95928571D01*
X173652381Y-94690476D02*
X172652381Y-94690476D01*
X173271429Y-94595238D02*
X173652381Y-94309523D01*
X172985714Y-94309523D02*
X173366667Y-94690476D01*
X173604762Y-93499999D02*
X173652381Y-93595237D01*
X173652381Y-93785714D01*
X173604762Y-93880952D01*
X173509524Y-93928571D01*
X173128571Y-93928571D01*
X173033333Y-93880952D01*
X172985714Y-93785714D01*
X172985714Y-93595237D01*
X173033333Y-93499999D01*
X173128571Y-93452380D01*
X173223810Y-93452380D01*
X173319048Y-93928571D01*
X173604762Y-92642856D02*
X173652381Y-92738094D01*
X173652381Y-92928571D01*
X173604762Y-93023809D01*
X173509524Y-93071428D01*
X173128571Y-93071428D01*
X173033333Y-93023809D01*
X172985714Y-92928571D01*
X172985714Y-92738094D01*
X173033333Y-92642856D01*
X173128571Y-92595237D01*
X173223810Y-92595237D01*
X173319048Y-93071428D01*
X172985714Y-92166666D02*
X173985714Y-92166666D01*
X173033333Y-92166666D02*
X172985714Y-92071428D01*
X172985714Y-91880951D01*
X173033333Y-91785713D01*
X173080952Y-91738094D01*
X173176190Y-91690475D01*
X173461905Y-91690475D01*
X173557143Y-91738094D01*
X173604762Y-91785713D01*
X173652381Y-91880951D01*
X173652381Y-92071428D01*
X173604762Y-92166666D01*
X173652381Y-91119047D02*
X173604762Y-91214285D01*
X173557143Y-91261904D01*
X173461905Y-91309523D01*
X173176190Y-91309523D01*
X173080952Y-91261904D01*
X173033333Y-91214285D01*
X172985714Y-91119047D01*
X172985714Y-90976189D01*
X173033333Y-90880951D01*
X173080952Y-90833332D01*
X173176190Y-90785713D01*
X173461905Y-90785713D01*
X173557143Y-90833332D01*
X173604762Y-90880951D01*
X173652381Y-90976189D01*
X173652381Y-91119047D01*
X172985714Y-89928570D02*
X173652381Y-89928570D01*
X172985714Y-90357142D02*
X173509524Y-90357142D01*
X173604762Y-90309523D01*
X173652381Y-90214285D01*
X173652381Y-90071427D01*
X173604762Y-89976189D01*
X173557143Y-89928570D01*
X172985714Y-89595237D02*
X172985714Y-89214285D01*
X172652381Y-89452380D02*
X173509524Y-89452380D01*
X173604762Y-89404761D01*
X173652381Y-89309523D01*
X173652381Y-89214285D01*
X180485714Y-99380953D02*
X180485714Y-99000001D01*
X180152381Y-99238096D02*
X181009524Y-99238096D01*
X181104762Y-99190477D01*
X181152381Y-99095239D01*
X181152381Y-99000001D01*
X181152381Y-98523810D02*
X181104762Y-98619048D01*
X181057143Y-98666667D01*
X180961905Y-98714286D01*
X180676190Y-98714286D01*
X180580952Y-98666667D01*
X180533333Y-98619048D01*
X180485714Y-98523810D01*
X180485714Y-98380952D01*
X180533333Y-98285714D01*
X180580952Y-98238095D01*
X180676190Y-98190476D01*
X180961905Y-98190476D01*
X181057143Y-98238095D01*
X181104762Y-98285714D01*
X181152381Y-98380952D01*
X181152381Y-98523810D01*
X180485714Y-97761905D02*
X181485714Y-97761905D01*
X180533333Y-97761905D02*
X180485714Y-97666667D01*
X180485714Y-97476190D01*
X180533333Y-97380952D01*
X180580952Y-97333333D01*
X180676190Y-97285714D01*
X180961905Y-97285714D01*
X181057143Y-97333333D01*
X181104762Y-97380952D01*
X181152381Y-97476190D01*
X181152381Y-97666667D01*
X181104762Y-97761905D01*
X181152381Y-96095238D02*
X180152381Y-96095238D01*
X180771429Y-96000000D02*
X181152381Y-95714285D01*
X180485714Y-95714285D02*
X180866667Y-96095238D01*
X181104762Y-94904761D02*
X181152381Y-94999999D01*
X181152381Y-95190476D01*
X181104762Y-95285714D01*
X181009524Y-95333333D01*
X180628571Y-95333333D01*
X180533333Y-95285714D01*
X180485714Y-95190476D01*
X180485714Y-94999999D01*
X180533333Y-94904761D01*
X180628571Y-94857142D01*
X180723810Y-94857142D01*
X180819048Y-95333333D01*
X181104762Y-94047618D02*
X181152381Y-94142856D01*
X181152381Y-94333333D01*
X181104762Y-94428571D01*
X181009524Y-94476190D01*
X180628571Y-94476190D01*
X180533333Y-94428571D01*
X180485714Y-94333333D01*
X180485714Y-94142856D01*
X180533333Y-94047618D01*
X180628571Y-93999999D01*
X180723810Y-93999999D01*
X180819048Y-94476190D01*
X180485714Y-93571428D02*
X181485714Y-93571428D01*
X180533333Y-93571428D02*
X180485714Y-93476190D01*
X180485714Y-93285713D01*
X180533333Y-93190475D01*
X180580952Y-93142856D01*
X180676190Y-93095237D01*
X180961905Y-93095237D01*
X181057143Y-93142856D01*
X181104762Y-93190475D01*
X181152381Y-93285713D01*
X181152381Y-93476190D01*
X181104762Y-93571428D01*
X181152381Y-92523809D02*
X181104762Y-92619047D01*
X181057143Y-92666666D01*
X180961905Y-92714285D01*
X180676190Y-92714285D01*
X180580952Y-92666666D01*
X180533333Y-92619047D01*
X180485714Y-92523809D01*
X180485714Y-92380951D01*
X180533333Y-92285713D01*
X180580952Y-92238094D01*
X180676190Y-92190475D01*
X180961905Y-92190475D01*
X181057143Y-92238094D01*
X181104762Y-92285713D01*
X181152381Y-92380951D01*
X181152381Y-92523809D01*
X180485714Y-91333332D02*
X181152381Y-91333332D01*
X180485714Y-91761904D02*
X181009524Y-91761904D01*
X181104762Y-91714285D01*
X181152381Y-91619047D01*
X181152381Y-91476189D01*
X181104762Y-91380951D01*
X181057143Y-91333332D01*
X180485714Y-90999999D02*
X180485714Y-90619047D01*
X180152381Y-90857142D02*
X181009524Y-90857142D01*
X181104762Y-90809523D01*
X181152381Y-90714285D01*
X181152381Y-90619047D01*
M02*
