%FSLAX34Y34*%
G04 Gerber Fmt 3.4, Leading zero omitted, Abs format*
G04 (created by PCBNEW (2014-06-29 BZR 4957)-product) date Mon 28 Jul 2014 10:19:58 PM CEST*
%MOIN*%
G01*
G70*
G90*
G04 APERTURE LIST*
%ADD10C,0.003937*%
%ADD11C,0.007874*%
%ADD12C,0.100000*%
G04 APERTURE END LIST*
G54D10*
G54D11*
X57611Y-60899D02*
X57611Y-61162D01*
X57517Y-60749D02*
X57424Y-61031D01*
X57667Y-61031D01*
X57892Y-60768D02*
X57930Y-60768D01*
X57967Y-60787D01*
X57986Y-60806D01*
X58005Y-60843D01*
X58023Y-60918D01*
X58023Y-61012D01*
X58005Y-61087D01*
X57986Y-61124D01*
X57967Y-61143D01*
X57930Y-61162D01*
X57892Y-61162D01*
X57855Y-61143D01*
X57836Y-61124D01*
X57817Y-61087D01*
X57799Y-61012D01*
X57799Y-60918D01*
X57817Y-60843D01*
X57836Y-60806D01*
X57855Y-60787D01*
X57892Y-60768D01*
X58192Y-61124D02*
X58211Y-61143D01*
X58192Y-61162D01*
X58173Y-61143D01*
X58192Y-61124D01*
X58192Y-61162D01*
X58567Y-60768D02*
X58380Y-60768D01*
X58361Y-60956D01*
X58380Y-60937D01*
X58417Y-60918D01*
X58511Y-60918D01*
X58548Y-60937D01*
X58567Y-60956D01*
X58586Y-60993D01*
X58586Y-61087D01*
X58567Y-61124D01*
X58548Y-61143D01*
X58511Y-61162D01*
X58417Y-61162D01*
X58380Y-61143D01*
X58361Y-61124D01*
X58830Y-60768D02*
X58867Y-60768D01*
X58905Y-60787D01*
X58923Y-60806D01*
X58942Y-60843D01*
X58961Y-60918D01*
X58961Y-61012D01*
X58942Y-61087D01*
X58923Y-61124D01*
X58905Y-61143D01*
X58867Y-61162D01*
X58830Y-61162D01*
X58792Y-61143D01*
X58773Y-61124D01*
X58755Y-61087D01*
X58736Y-61012D01*
X58736Y-60918D01*
X58755Y-60843D01*
X58773Y-60806D01*
X58792Y-60787D01*
X58830Y-60768D01*
X59205Y-60768D02*
X59242Y-60768D01*
X59280Y-60787D01*
X59298Y-60806D01*
X59317Y-60843D01*
X59336Y-60918D01*
X59336Y-61012D01*
X59317Y-61087D01*
X59298Y-61124D01*
X59280Y-61143D01*
X59242Y-61162D01*
X59205Y-61162D01*
X59167Y-61143D01*
X59148Y-61124D01*
X59130Y-61087D01*
X59111Y-61012D01*
X59111Y-60918D01*
X59130Y-60843D01*
X59148Y-60806D01*
X59167Y-60787D01*
X59205Y-60768D01*
X59805Y-61162D02*
X59805Y-60899D01*
X59805Y-60937D02*
X59823Y-60918D01*
X59861Y-60899D01*
X59917Y-60899D01*
X59955Y-60918D01*
X59973Y-60956D01*
X59973Y-61162D01*
X59973Y-60956D02*
X59992Y-60918D01*
X60029Y-60899D01*
X60086Y-60899D01*
X60123Y-60918D01*
X60142Y-60956D01*
X60142Y-61162D01*
X60329Y-61162D02*
X60329Y-60899D01*
X60329Y-60937D02*
X60348Y-60918D01*
X60386Y-60899D01*
X60442Y-60899D01*
X60479Y-60918D01*
X60498Y-60956D01*
X60498Y-61162D01*
X60498Y-60956D02*
X60517Y-60918D01*
X60554Y-60899D01*
X60611Y-60899D01*
X60648Y-60918D01*
X60667Y-60956D01*
X60667Y-61162D01*
X51082Y-60629D02*
X67027Y-60629D01*
X51082Y-37401D02*
X51082Y-61338D01*
X67027Y-37401D02*
X67027Y-61338D01*
X67027Y-60629D02*
X66584Y-60860D01*
X67027Y-60629D02*
X66584Y-60399D01*
X51082Y-60629D02*
X51526Y-60860D01*
X51082Y-60629D02*
X51526Y-60399D01*
X57630Y-61910D02*
X57442Y-61910D01*
X57424Y-62097D01*
X57442Y-62079D01*
X57480Y-62060D01*
X57574Y-62060D01*
X57611Y-62079D01*
X57630Y-62097D01*
X57649Y-62135D01*
X57649Y-62229D01*
X57630Y-62266D01*
X57611Y-62285D01*
X57574Y-62304D01*
X57480Y-62304D01*
X57442Y-62285D01*
X57424Y-62266D01*
X57892Y-61910D02*
X57930Y-61910D01*
X57967Y-61929D01*
X57986Y-61947D01*
X58005Y-61985D01*
X58023Y-62060D01*
X58023Y-62154D01*
X58005Y-62229D01*
X57986Y-62266D01*
X57967Y-62285D01*
X57930Y-62304D01*
X57892Y-62304D01*
X57855Y-62285D01*
X57836Y-62266D01*
X57817Y-62229D01*
X57799Y-62154D01*
X57799Y-62060D01*
X57817Y-61985D01*
X57836Y-61947D01*
X57855Y-61929D01*
X57892Y-61910D01*
X58192Y-62266D02*
X58211Y-62285D01*
X58192Y-62304D01*
X58173Y-62285D01*
X58192Y-62266D01*
X58192Y-62304D01*
X58455Y-61910D02*
X58492Y-61910D01*
X58530Y-61929D01*
X58548Y-61947D01*
X58567Y-61985D01*
X58586Y-62060D01*
X58586Y-62154D01*
X58567Y-62229D01*
X58548Y-62266D01*
X58530Y-62285D01*
X58492Y-62304D01*
X58455Y-62304D01*
X58417Y-62285D01*
X58398Y-62266D01*
X58380Y-62229D01*
X58361Y-62154D01*
X58361Y-62060D01*
X58380Y-61985D01*
X58398Y-61947D01*
X58417Y-61929D01*
X58455Y-61910D01*
X58830Y-61910D02*
X58867Y-61910D01*
X58905Y-61929D01*
X58923Y-61947D01*
X58942Y-61985D01*
X58961Y-62060D01*
X58961Y-62154D01*
X58942Y-62229D01*
X58923Y-62266D01*
X58905Y-62285D01*
X58867Y-62304D01*
X58830Y-62304D01*
X58792Y-62285D01*
X58773Y-62266D01*
X58755Y-62229D01*
X58736Y-62154D01*
X58736Y-62060D01*
X58755Y-61985D01*
X58773Y-61947D01*
X58792Y-61929D01*
X58830Y-61910D01*
X59205Y-61910D02*
X59242Y-61910D01*
X59280Y-61929D01*
X59298Y-61947D01*
X59317Y-61985D01*
X59336Y-62060D01*
X59336Y-62154D01*
X59317Y-62229D01*
X59298Y-62266D01*
X59280Y-62285D01*
X59242Y-62304D01*
X59205Y-62304D01*
X59167Y-62285D01*
X59148Y-62266D01*
X59130Y-62229D01*
X59111Y-62154D01*
X59111Y-62060D01*
X59130Y-61985D01*
X59148Y-61947D01*
X59167Y-61929D01*
X59205Y-61910D01*
X59805Y-62304D02*
X59805Y-62041D01*
X59805Y-62079D02*
X59823Y-62060D01*
X59861Y-62041D01*
X59917Y-62041D01*
X59955Y-62060D01*
X59973Y-62097D01*
X59973Y-62304D01*
X59973Y-62097D02*
X59992Y-62060D01*
X60029Y-62041D01*
X60086Y-62041D01*
X60123Y-62060D01*
X60142Y-62097D01*
X60142Y-62304D01*
X60329Y-62304D02*
X60329Y-62041D01*
X60329Y-62079D02*
X60348Y-62060D01*
X60386Y-62041D01*
X60442Y-62041D01*
X60479Y-62060D01*
X60498Y-62097D01*
X60498Y-62304D01*
X60498Y-62097D02*
X60517Y-62060D01*
X60554Y-62041D01*
X60611Y-62041D01*
X60648Y-62060D01*
X60667Y-62097D01*
X60667Y-62304D01*
X49212Y-61771D02*
X68897Y-61771D01*
X49212Y-37401D02*
X49212Y-62480D01*
X68897Y-37401D02*
X68897Y-62480D01*
X68897Y-61771D02*
X68454Y-62002D01*
X68897Y-61771D02*
X68454Y-61540D01*
X49212Y-61771D02*
X49656Y-62002D01*
X49212Y-61771D02*
X49656Y-61540D01*
X57611Y-63130D02*
X57536Y-63130D01*
X57499Y-63149D01*
X57480Y-63168D01*
X57442Y-63224D01*
X57424Y-63299D01*
X57424Y-63449D01*
X57442Y-63487D01*
X57461Y-63505D01*
X57499Y-63524D01*
X57574Y-63524D01*
X57611Y-63505D01*
X57630Y-63487D01*
X57649Y-63449D01*
X57649Y-63355D01*
X57630Y-63318D01*
X57611Y-63299D01*
X57574Y-63280D01*
X57499Y-63280D01*
X57461Y-63299D01*
X57442Y-63318D01*
X57424Y-63355D01*
X58005Y-63130D02*
X57817Y-63130D01*
X57799Y-63318D01*
X57817Y-63299D01*
X57855Y-63280D01*
X57949Y-63280D01*
X57986Y-63299D01*
X58005Y-63318D01*
X58023Y-63355D01*
X58023Y-63449D01*
X58005Y-63487D01*
X57986Y-63505D01*
X57949Y-63524D01*
X57855Y-63524D01*
X57817Y-63505D01*
X57799Y-63487D01*
X58192Y-63487D02*
X58211Y-63505D01*
X58192Y-63524D01*
X58173Y-63505D01*
X58192Y-63487D01*
X58192Y-63524D01*
X58455Y-63130D02*
X58492Y-63130D01*
X58530Y-63149D01*
X58548Y-63168D01*
X58567Y-63205D01*
X58586Y-63280D01*
X58586Y-63374D01*
X58567Y-63449D01*
X58548Y-63487D01*
X58530Y-63505D01*
X58492Y-63524D01*
X58455Y-63524D01*
X58417Y-63505D01*
X58398Y-63487D01*
X58380Y-63449D01*
X58361Y-63374D01*
X58361Y-63280D01*
X58380Y-63205D01*
X58398Y-63168D01*
X58417Y-63149D01*
X58455Y-63130D01*
X58830Y-63130D02*
X58867Y-63130D01*
X58905Y-63149D01*
X58923Y-63168D01*
X58942Y-63205D01*
X58961Y-63280D01*
X58961Y-63374D01*
X58942Y-63449D01*
X58923Y-63487D01*
X58905Y-63505D01*
X58867Y-63524D01*
X58830Y-63524D01*
X58792Y-63505D01*
X58773Y-63487D01*
X58755Y-63449D01*
X58736Y-63374D01*
X58736Y-63280D01*
X58755Y-63205D01*
X58773Y-63168D01*
X58792Y-63149D01*
X58830Y-63130D01*
X59205Y-63130D02*
X59242Y-63130D01*
X59280Y-63149D01*
X59298Y-63168D01*
X59317Y-63205D01*
X59336Y-63280D01*
X59336Y-63374D01*
X59317Y-63449D01*
X59298Y-63487D01*
X59280Y-63505D01*
X59242Y-63524D01*
X59205Y-63524D01*
X59167Y-63505D01*
X59148Y-63487D01*
X59130Y-63449D01*
X59111Y-63374D01*
X59111Y-63280D01*
X59130Y-63205D01*
X59148Y-63168D01*
X59167Y-63149D01*
X59205Y-63130D01*
X59805Y-63524D02*
X59805Y-63262D01*
X59805Y-63299D02*
X59823Y-63280D01*
X59861Y-63262D01*
X59917Y-63262D01*
X59955Y-63280D01*
X59973Y-63318D01*
X59973Y-63524D01*
X59973Y-63318D02*
X59992Y-63280D01*
X60029Y-63262D01*
X60086Y-63262D01*
X60123Y-63280D01*
X60142Y-63318D01*
X60142Y-63524D01*
X60329Y-63524D02*
X60329Y-63262D01*
X60329Y-63299D02*
X60348Y-63280D01*
X60386Y-63262D01*
X60442Y-63262D01*
X60479Y-63280D01*
X60498Y-63318D01*
X60498Y-63524D01*
X60498Y-63318D02*
X60517Y-63280D01*
X60554Y-63262D01*
X60611Y-63262D01*
X60648Y-63280D01*
X60667Y-63318D01*
X60667Y-63524D01*
X46259Y-62992D02*
X71850Y-62992D01*
X46259Y-37401D02*
X46259Y-63700D01*
X71850Y-37401D02*
X71850Y-63700D01*
X71850Y-62992D02*
X71406Y-63223D01*
X71850Y-62992D02*
X71406Y-62761D01*
X46259Y-62992D02*
X46703Y-63223D01*
X46259Y-62992D02*
X46703Y-62761D01*
X57461Y-64666D02*
X57236Y-64666D01*
X57349Y-64666D02*
X57349Y-64272D01*
X57311Y-64328D01*
X57274Y-64366D01*
X57236Y-64385D01*
X57705Y-64272D02*
X57742Y-64272D01*
X57780Y-64291D01*
X57799Y-64310D01*
X57817Y-64347D01*
X57836Y-64422D01*
X57836Y-64516D01*
X57817Y-64591D01*
X57799Y-64628D01*
X57780Y-64647D01*
X57742Y-64666D01*
X57705Y-64666D01*
X57667Y-64647D01*
X57649Y-64628D01*
X57630Y-64591D01*
X57611Y-64516D01*
X57611Y-64422D01*
X57630Y-64347D01*
X57649Y-64310D01*
X57667Y-64291D01*
X57705Y-64272D01*
X58080Y-64272D02*
X58117Y-64272D01*
X58155Y-64291D01*
X58173Y-64310D01*
X58192Y-64347D01*
X58211Y-64422D01*
X58211Y-64516D01*
X58192Y-64591D01*
X58173Y-64628D01*
X58155Y-64647D01*
X58117Y-64666D01*
X58080Y-64666D01*
X58042Y-64647D01*
X58023Y-64628D01*
X58005Y-64591D01*
X57986Y-64516D01*
X57986Y-64422D01*
X58005Y-64347D01*
X58023Y-64310D01*
X58042Y-64291D01*
X58080Y-64272D01*
X58380Y-64628D02*
X58398Y-64647D01*
X58380Y-64666D01*
X58361Y-64647D01*
X58380Y-64628D01*
X58380Y-64666D01*
X58642Y-64272D02*
X58680Y-64272D01*
X58717Y-64291D01*
X58736Y-64310D01*
X58755Y-64347D01*
X58773Y-64422D01*
X58773Y-64516D01*
X58755Y-64591D01*
X58736Y-64628D01*
X58717Y-64647D01*
X58680Y-64666D01*
X58642Y-64666D01*
X58605Y-64647D01*
X58586Y-64628D01*
X58567Y-64591D01*
X58548Y-64516D01*
X58548Y-64422D01*
X58567Y-64347D01*
X58586Y-64310D01*
X58605Y-64291D01*
X58642Y-64272D01*
X59017Y-64272D02*
X59055Y-64272D01*
X59092Y-64291D01*
X59111Y-64310D01*
X59130Y-64347D01*
X59148Y-64422D01*
X59148Y-64516D01*
X59130Y-64591D01*
X59111Y-64628D01*
X59092Y-64647D01*
X59055Y-64666D01*
X59017Y-64666D01*
X58980Y-64647D01*
X58961Y-64628D01*
X58942Y-64591D01*
X58923Y-64516D01*
X58923Y-64422D01*
X58942Y-64347D01*
X58961Y-64310D01*
X58980Y-64291D01*
X59017Y-64272D01*
X59392Y-64272D02*
X59430Y-64272D01*
X59467Y-64291D01*
X59486Y-64310D01*
X59505Y-64347D01*
X59523Y-64422D01*
X59523Y-64516D01*
X59505Y-64591D01*
X59486Y-64628D01*
X59467Y-64647D01*
X59430Y-64666D01*
X59392Y-64666D01*
X59355Y-64647D01*
X59336Y-64628D01*
X59317Y-64591D01*
X59298Y-64516D01*
X59298Y-64422D01*
X59317Y-64347D01*
X59336Y-64310D01*
X59355Y-64291D01*
X59392Y-64272D01*
X59992Y-64666D02*
X59992Y-64403D01*
X59992Y-64441D02*
X60011Y-64422D01*
X60048Y-64403D01*
X60104Y-64403D01*
X60142Y-64422D01*
X60161Y-64460D01*
X60161Y-64666D01*
X60161Y-64460D02*
X60179Y-64422D01*
X60217Y-64403D01*
X60273Y-64403D01*
X60311Y-64422D01*
X60329Y-64460D01*
X60329Y-64666D01*
X60517Y-64666D02*
X60517Y-64403D01*
X60517Y-64441D02*
X60536Y-64422D01*
X60573Y-64403D01*
X60629Y-64403D01*
X60667Y-64422D01*
X60686Y-64460D01*
X60686Y-64666D01*
X60686Y-64460D02*
X60704Y-64422D01*
X60742Y-64403D01*
X60798Y-64403D01*
X60836Y-64422D01*
X60854Y-64460D01*
X60854Y-64666D01*
X39370Y-64133D02*
X78740Y-64133D01*
X39370Y-37401D02*
X39370Y-64842D01*
X78740Y-37401D02*
X78740Y-64842D01*
X78740Y-64133D02*
X78296Y-64364D01*
X78740Y-64133D02*
X78296Y-63902D01*
X39370Y-64133D02*
X39813Y-64364D01*
X39370Y-64133D02*
X39813Y-63902D01*
X67027Y-37401D02*
G75*
G03X67027Y-37401I-7972J0D01*
G74*
G01*
G54D12*
X51954Y-39750D02*
X51954Y-39750D01*
X51604Y-37949D02*
X51604Y-37949D01*
X52652Y-37565D02*
X52652Y-37565D01*
X53505Y-39190D02*
X53505Y-39190D01*
X66513Y-37873D02*
X66513Y-37873D01*
X66179Y-39677D02*
X66179Y-39677D01*
X64696Y-39165D02*
X64696Y-39165D01*
X65555Y-37543D02*
X65555Y-37543D01*
M02*
