%FSLAX46Y46*%
G04 Gerber Fmt 4.6, Leading zero omitted, Abs format (unit mm)*
G04 Created by KiCad (PCBNEW (2014-09-01 BZR 5110)-product) date Thu 04 Sep 2014 12:00:29 AM CEST*
%MOMM*%
G01*
G04 APERTURE LIST*
%ADD10C,0.100000*%
%ADD11C,0.200000*%
%ADD12C,0.250000*%
%ADD13C,0.203200*%
%ADD14C,0.002540*%
%ADD15C,2.000000*%
%ADD16R,1.498600X1.297940*%
%ADD17R,1.297940X1.498600*%
%ADD18R,1.400000X1.800000*%
%ADD19R,0.500000X1.000000*%
%ADD20R,1.800000X1.400000*%
%ADD21R,1.000000X0.500000*%
G04 APERTURE END LIST*
D10*
D11*
X137637619Y-120012381D02*
X137637619Y-119012381D01*
X138113809Y-120012381D02*
X138113809Y-119012381D01*
X138685238Y-120012381D02*
X138256666Y-119440952D01*
X138685238Y-119012381D02*
X138113809Y-119583810D01*
X139113809Y-119488571D02*
X139447143Y-119488571D01*
X139590000Y-120012381D02*
X139113809Y-120012381D01*
X139113809Y-119012381D01*
X139590000Y-119012381D01*
X139970952Y-119726667D02*
X140447143Y-119726667D01*
X139875714Y-120012381D02*
X140209047Y-119012381D01*
X140542381Y-120012381D01*
X140875714Y-119631429D02*
X141637619Y-119631429D01*
X142066190Y-119964762D02*
X142209047Y-120012381D01*
X142447143Y-120012381D01*
X142542381Y-119964762D01*
X142590000Y-119917143D01*
X142637619Y-119821905D01*
X142637619Y-119726667D01*
X142590000Y-119631429D01*
X142542381Y-119583810D01*
X142447143Y-119536190D01*
X142256666Y-119488571D01*
X142161428Y-119440952D01*
X142113809Y-119393333D01*
X142066190Y-119298095D01*
X142066190Y-119202857D01*
X142113809Y-119107619D01*
X142161428Y-119060000D01*
X142256666Y-119012381D01*
X142494762Y-119012381D01*
X142637619Y-119060000D01*
X143494762Y-120012381D02*
X143494762Y-119488571D01*
X143447143Y-119393333D01*
X143351905Y-119345714D01*
X143161428Y-119345714D01*
X143066190Y-119393333D01*
X143494762Y-119964762D02*
X143399524Y-120012381D01*
X143161428Y-120012381D01*
X143066190Y-119964762D01*
X143018571Y-119869524D01*
X143018571Y-119774286D01*
X143066190Y-119679048D01*
X143161428Y-119631429D01*
X143399524Y-119631429D01*
X143494762Y-119583810D01*
X143970952Y-120012381D02*
X143970952Y-119345714D01*
X143970952Y-119440952D02*
X144018571Y-119393333D01*
X144113809Y-119345714D01*
X144256667Y-119345714D01*
X144351905Y-119393333D01*
X144399524Y-119488571D01*
X144399524Y-120012381D01*
X144399524Y-119488571D02*
X144447143Y-119393333D01*
X144542381Y-119345714D01*
X144685238Y-119345714D01*
X144780476Y-119393333D01*
X144828095Y-119488571D01*
X144828095Y-120012381D01*
X145161428Y-119345714D02*
X145542380Y-119345714D01*
X145304285Y-119012381D02*
X145304285Y-119869524D01*
X145351904Y-119964762D01*
X145447142Y-120012381D01*
X145542380Y-120012381D01*
X145875714Y-120012381D02*
X145875714Y-119345714D01*
X145875714Y-119012381D02*
X145828095Y-119060000D01*
X145875714Y-119107619D01*
X145923333Y-119060000D01*
X145875714Y-119012381D01*
X145875714Y-119107619D01*
X146780476Y-120012381D02*
X146780476Y-119012381D01*
X146780476Y-119964762D02*
X146685238Y-120012381D01*
X146494761Y-120012381D01*
X146399523Y-119964762D01*
X146351904Y-119917143D01*
X146304285Y-119821905D01*
X146304285Y-119536190D01*
X146351904Y-119440952D01*
X146399523Y-119393333D01*
X146494761Y-119345714D01*
X146685238Y-119345714D01*
X146780476Y-119393333D01*
X148018571Y-120012381D02*
X148018571Y-119345714D01*
X148018571Y-119440952D02*
X148066190Y-119393333D01*
X148161428Y-119345714D01*
X148304286Y-119345714D01*
X148399524Y-119393333D01*
X148447143Y-119488571D01*
X148447143Y-120012381D01*
X148447143Y-119488571D02*
X148494762Y-119393333D01*
X148590000Y-119345714D01*
X148732857Y-119345714D01*
X148828095Y-119393333D01*
X148875714Y-119488571D01*
X148875714Y-120012381D01*
X149494761Y-120012381D02*
X149399523Y-119964762D01*
X149351904Y-119917143D01*
X149304285Y-119821905D01*
X149304285Y-119536190D01*
X149351904Y-119440952D01*
X149399523Y-119393333D01*
X149494761Y-119345714D01*
X149637619Y-119345714D01*
X149732857Y-119393333D01*
X149780476Y-119440952D01*
X149828095Y-119536190D01*
X149828095Y-119821905D01*
X149780476Y-119917143D01*
X149732857Y-119964762D01*
X149637619Y-120012381D01*
X149494761Y-120012381D01*
X150399523Y-120012381D02*
X150304285Y-119964762D01*
X150256666Y-119917143D01*
X150209047Y-119821905D01*
X150209047Y-119536190D01*
X150256666Y-119440952D01*
X150304285Y-119393333D01*
X150399523Y-119345714D01*
X150542381Y-119345714D01*
X150637619Y-119393333D01*
X150685238Y-119440952D01*
X150732857Y-119536190D01*
X150732857Y-119821905D01*
X150685238Y-119917143D01*
X150637619Y-119964762D01*
X150542381Y-120012381D01*
X150399523Y-120012381D01*
X151590000Y-120012381D02*
X151590000Y-119012381D01*
X151590000Y-119964762D02*
X151494762Y-120012381D01*
X151304285Y-120012381D01*
X151209047Y-119964762D01*
X151161428Y-119917143D01*
X151113809Y-119821905D01*
X151113809Y-119536190D01*
X151161428Y-119440952D01*
X151209047Y-119393333D01*
X151304285Y-119345714D01*
X151494762Y-119345714D01*
X151590000Y-119393333D01*
X152066190Y-119631429D02*
X152828095Y-119631429D01*
X153447142Y-120012381D02*
X153351904Y-119964762D01*
X153304285Y-119869524D01*
X153304285Y-119012381D01*
X153828095Y-120012381D02*
X153828095Y-119345714D01*
X153828095Y-119012381D02*
X153780476Y-119060000D01*
X153828095Y-119107619D01*
X153875714Y-119060000D01*
X153828095Y-119012381D01*
X153828095Y-119107619D01*
X154732857Y-119345714D02*
X154732857Y-120155238D01*
X154685238Y-120250476D01*
X154637619Y-120298095D01*
X154542380Y-120345714D01*
X154399523Y-120345714D01*
X154304285Y-120298095D01*
X154732857Y-119964762D02*
X154637619Y-120012381D01*
X154447142Y-120012381D01*
X154351904Y-119964762D01*
X154304285Y-119917143D01*
X154256666Y-119821905D01*
X154256666Y-119536190D01*
X154304285Y-119440952D01*
X154351904Y-119393333D01*
X154447142Y-119345714D01*
X154637619Y-119345714D01*
X154732857Y-119393333D01*
X155209047Y-120012381D02*
X155209047Y-119012381D01*
X155637619Y-120012381D02*
X155637619Y-119488571D01*
X155590000Y-119393333D01*
X155494762Y-119345714D01*
X155351904Y-119345714D01*
X155256666Y-119393333D01*
X155209047Y-119440952D01*
X155970952Y-119345714D02*
X156351904Y-119345714D01*
X156113809Y-119012381D02*
X156113809Y-119869524D01*
X156161428Y-119964762D01*
X156256666Y-120012381D01*
X156351904Y-120012381D01*
X157304286Y-119012381D02*
X157637619Y-120012381D01*
X157970953Y-119012381D01*
X158494762Y-119012381D02*
X158590001Y-119012381D01*
X158685239Y-119060000D01*
X158732858Y-119107619D01*
X158780477Y-119202857D01*
X158828096Y-119393333D01*
X158828096Y-119631429D01*
X158780477Y-119821905D01*
X158732858Y-119917143D01*
X158685239Y-119964762D01*
X158590001Y-120012381D01*
X158494762Y-120012381D01*
X158399524Y-119964762D01*
X158351905Y-119917143D01*
X158304286Y-119821905D01*
X158256667Y-119631429D01*
X158256667Y-119393333D01*
X158304286Y-119202857D01*
X158351905Y-119107619D01*
X158399524Y-119060000D01*
X158494762Y-119012381D01*
X159256667Y-119917143D02*
X159304286Y-119964762D01*
X159256667Y-120012381D01*
X159209048Y-119964762D01*
X159256667Y-119917143D01*
X159256667Y-120012381D01*
X159637619Y-119012381D02*
X160256667Y-119012381D01*
X159923333Y-119393333D01*
X160066191Y-119393333D01*
X160161429Y-119440952D01*
X160209048Y-119488571D01*
X160256667Y-119583810D01*
X160256667Y-119821905D01*
X160209048Y-119917143D01*
X160161429Y-119964762D01*
X160066191Y-120012381D01*
X159780476Y-120012381D01*
X159685238Y-119964762D01*
X159637619Y-119917143D01*
X161209048Y-120012381D02*
X160637619Y-120012381D01*
X160923333Y-120012381D02*
X160923333Y-119012381D01*
X160828095Y-119155238D01*
X160732857Y-119250476D01*
X160637619Y-119298095D01*
X161637619Y-119917143D02*
X161685238Y-119964762D01*
X161637619Y-120012381D01*
X161590000Y-119964762D01*
X161637619Y-119917143D01*
X161637619Y-120012381D01*
X162113809Y-120012381D02*
X162113809Y-119012381D01*
X162113809Y-119393333D02*
X162209047Y-119345714D01*
X162399524Y-119345714D01*
X162494762Y-119393333D01*
X162542381Y-119440952D01*
X162590000Y-119536190D01*
X162590000Y-119821905D01*
X162542381Y-119917143D01*
X162494762Y-119964762D01*
X162399524Y-120012381D01*
X162209047Y-120012381D01*
X162113809Y-119964762D01*
X139351904Y-120707619D02*
X139399523Y-120660000D01*
X139494761Y-120612381D01*
X139732857Y-120612381D01*
X139828095Y-120660000D01*
X139875714Y-120707619D01*
X139923333Y-120802857D01*
X139923333Y-120898095D01*
X139875714Y-121040952D01*
X139304285Y-121612381D01*
X139923333Y-121612381D01*
X140542380Y-120612381D02*
X140637619Y-120612381D01*
X140732857Y-120660000D01*
X140780476Y-120707619D01*
X140828095Y-120802857D01*
X140875714Y-120993333D01*
X140875714Y-121231429D01*
X140828095Y-121421905D01*
X140780476Y-121517143D01*
X140732857Y-121564762D01*
X140637619Y-121612381D01*
X140542380Y-121612381D01*
X140447142Y-121564762D01*
X140399523Y-121517143D01*
X140351904Y-121421905D01*
X140304285Y-121231429D01*
X140304285Y-120993333D01*
X140351904Y-120802857D01*
X140399523Y-120707619D01*
X140447142Y-120660000D01*
X140542380Y-120612381D01*
X141828095Y-121612381D02*
X141256666Y-121612381D01*
X141542380Y-121612381D02*
X141542380Y-120612381D01*
X141447142Y-120755238D01*
X141351904Y-120850476D01*
X141256666Y-120898095D01*
X142685238Y-120945714D02*
X142685238Y-121612381D01*
X142447142Y-120564762D02*
X142209047Y-121279048D01*
X142828095Y-121279048D01*
X143970952Y-121231429D02*
X144732857Y-121231429D01*
X145970952Y-121612381D02*
X145970952Y-120612381D01*
X145970952Y-120993333D02*
X146066190Y-120945714D01*
X146256667Y-120945714D01*
X146351905Y-120993333D01*
X146399524Y-121040952D01*
X146447143Y-121136190D01*
X146447143Y-121421905D01*
X146399524Y-121517143D01*
X146351905Y-121564762D01*
X146256667Y-121612381D01*
X146066190Y-121612381D01*
X145970952Y-121564762D01*
X147018571Y-121612381D02*
X146923333Y-121564762D01*
X146875714Y-121469524D01*
X146875714Y-120612381D01*
X147542381Y-121612381D02*
X147447143Y-121564762D01*
X147399524Y-121517143D01*
X147351905Y-121421905D01*
X147351905Y-121136190D01*
X147399524Y-121040952D01*
X147447143Y-120993333D01*
X147542381Y-120945714D01*
X147685239Y-120945714D01*
X147780477Y-120993333D01*
X147828096Y-121040952D01*
X147875715Y-121136190D01*
X147875715Y-121421905D01*
X147828096Y-121517143D01*
X147780477Y-121564762D01*
X147685239Y-121612381D01*
X147542381Y-121612381D01*
X148732858Y-120945714D02*
X148732858Y-121755238D01*
X148685239Y-121850476D01*
X148637620Y-121898095D01*
X148542381Y-121945714D01*
X148399524Y-121945714D01*
X148304286Y-121898095D01*
X148732858Y-121564762D02*
X148637620Y-121612381D01*
X148447143Y-121612381D01*
X148351905Y-121564762D01*
X148304286Y-121517143D01*
X148256667Y-121421905D01*
X148256667Y-121136190D01*
X148304286Y-121040952D01*
X148351905Y-120993333D01*
X148447143Y-120945714D01*
X148637620Y-120945714D01*
X148732858Y-120993333D01*
X149209048Y-121517143D02*
X149256667Y-121564762D01*
X149209048Y-121612381D01*
X149161429Y-121564762D01*
X149209048Y-121517143D01*
X149209048Y-121612381D01*
X149637619Y-121564762D02*
X149732857Y-121612381D01*
X149923333Y-121612381D01*
X150018572Y-121564762D01*
X150066191Y-121469524D01*
X150066191Y-121421905D01*
X150018572Y-121326667D01*
X149923333Y-121279048D01*
X149780476Y-121279048D01*
X149685238Y-121231429D01*
X149637619Y-121136190D01*
X149637619Y-121088571D01*
X149685238Y-120993333D01*
X149780476Y-120945714D01*
X149923333Y-120945714D01*
X150018572Y-120993333D01*
X150494762Y-120945714D02*
X150494762Y-121945714D01*
X150494762Y-120993333D02*
X150590000Y-120945714D01*
X150780477Y-120945714D01*
X150875715Y-120993333D01*
X150923334Y-121040952D01*
X150970953Y-121136190D01*
X150970953Y-121421905D01*
X150923334Y-121517143D01*
X150875715Y-121564762D01*
X150780477Y-121612381D01*
X150590000Y-121612381D01*
X150494762Y-121564762D01*
X151399524Y-121612381D02*
X151399524Y-120945714D01*
X151399524Y-120612381D02*
X151351905Y-120660000D01*
X151399524Y-120707619D01*
X151447143Y-120660000D01*
X151399524Y-120612381D01*
X151399524Y-120707619D01*
X151732857Y-120945714D02*
X152113809Y-120945714D01*
X151875714Y-120612381D02*
X151875714Y-121469524D01*
X151923333Y-121564762D01*
X152018571Y-121612381D01*
X152113809Y-121612381D01*
X152351905Y-120945714D02*
X152875715Y-120945714D01*
X152351905Y-121612381D01*
X152875715Y-121612381D01*
X153637620Y-121564762D02*
X153542382Y-121612381D01*
X153351905Y-121612381D01*
X153256667Y-121564762D01*
X153209048Y-121469524D01*
X153209048Y-121088571D01*
X153256667Y-120993333D01*
X153351905Y-120945714D01*
X153542382Y-120945714D01*
X153637620Y-120993333D01*
X153685239Y-121088571D01*
X153685239Y-121183810D01*
X153209048Y-121279048D01*
X154113810Y-120945714D02*
X154113810Y-121612381D01*
X154113810Y-121040952D02*
X154161429Y-120993333D01*
X154256667Y-120945714D01*
X154399525Y-120945714D01*
X154494763Y-120993333D01*
X154542382Y-121088571D01*
X154542382Y-121612381D01*
X155018572Y-120945714D02*
X155018572Y-121945714D01*
X155018572Y-120993333D02*
X155113810Y-120945714D01*
X155304287Y-120945714D01*
X155399525Y-120993333D01*
X155447144Y-121040952D01*
X155494763Y-121136190D01*
X155494763Y-121421905D01*
X155447144Y-121517143D01*
X155399525Y-121564762D01*
X155304287Y-121612381D01*
X155113810Y-121612381D01*
X155018572Y-121564762D01*
X155780477Y-120945714D02*
X156161429Y-120945714D01*
X155923334Y-121612381D02*
X155923334Y-120755238D01*
X155970953Y-120660000D01*
X156066191Y-120612381D01*
X156161429Y-120612381D01*
X156875716Y-121564762D02*
X156780478Y-121612381D01*
X156590001Y-121612381D01*
X156494763Y-121564762D01*
X156447144Y-121469524D01*
X156447144Y-121088571D01*
X156494763Y-120993333D01*
X156590001Y-120945714D01*
X156780478Y-120945714D01*
X156875716Y-120993333D01*
X156923335Y-121088571D01*
X156923335Y-121183810D01*
X156447144Y-121279048D01*
X157351906Y-121612381D02*
X157351906Y-120945714D01*
X157351906Y-120612381D02*
X157304287Y-120660000D01*
X157351906Y-120707619D01*
X157399525Y-120660000D01*
X157351906Y-120612381D01*
X157351906Y-120707619D01*
X157970953Y-121612381D02*
X157875715Y-121564762D01*
X157828096Y-121469524D01*
X157828096Y-120612381D01*
X158351906Y-121517143D02*
X158399525Y-121564762D01*
X158351906Y-121612381D01*
X158304287Y-121564762D01*
X158351906Y-121517143D01*
X158351906Y-121612381D01*
X158970953Y-121612381D02*
X158875715Y-121564762D01*
X158828096Y-121517143D01*
X158780477Y-121421905D01*
X158780477Y-121136190D01*
X158828096Y-121040952D01*
X158875715Y-120993333D01*
X158970953Y-120945714D01*
X159113811Y-120945714D01*
X159209049Y-120993333D01*
X159256668Y-121040952D01*
X159304287Y-121136190D01*
X159304287Y-121421905D01*
X159256668Y-121517143D01*
X159209049Y-121564762D01*
X159113811Y-121612381D01*
X158970953Y-121612381D01*
X159732858Y-121612381D02*
X159732858Y-120945714D01*
X159732858Y-121136190D02*
X159780477Y-121040952D01*
X159828096Y-120993333D01*
X159923334Y-120945714D01*
X160018573Y-120945714D01*
X160780478Y-120945714D02*
X160780478Y-121755238D01*
X160732859Y-121850476D01*
X160685240Y-121898095D01*
X160590001Y-121945714D01*
X160447144Y-121945714D01*
X160351906Y-121898095D01*
X160780478Y-121564762D02*
X160685240Y-121612381D01*
X160494763Y-121612381D01*
X160399525Y-121564762D01*
X160351906Y-121517143D01*
X160304287Y-121421905D01*
X160304287Y-121136190D01*
X160351906Y-121040952D01*
X160399525Y-120993333D01*
X160494763Y-120945714D01*
X160685240Y-120945714D01*
X160780478Y-120993333D01*
X148700476Y-71182381D02*
X149271905Y-71182381D01*
X148986190Y-72182381D02*
X148986190Y-71182381D01*
X149795714Y-71182381D02*
X149986191Y-71182381D01*
X150081429Y-71230000D01*
X150176667Y-71325238D01*
X150224286Y-71515714D01*
X150224286Y-71849048D01*
X150176667Y-72039524D01*
X150081429Y-72134762D01*
X149986191Y-72182381D01*
X149795714Y-72182381D01*
X149700476Y-72134762D01*
X149605238Y-72039524D01*
X149557619Y-71849048D01*
X149557619Y-71515714D01*
X149605238Y-71325238D01*
X149700476Y-71230000D01*
X149795714Y-71182381D01*
X150652857Y-72182381D02*
X150652857Y-71182381D01*
X151033810Y-71182381D01*
X151129048Y-71230000D01*
X151176667Y-71277619D01*
X151224286Y-71372857D01*
X151224286Y-71515714D01*
X151176667Y-71610952D01*
X151129048Y-71658571D01*
X151033810Y-71706190D01*
X150652857Y-71706190D01*
D12*
X182500000Y-95000000D02*
G75*
G03X182500000Y-95000000I-32500000J0D01*
G74*
G01*
D11*
X140454311Y-57170568D02*
X144376770Y-56386784D01*
X140454311Y-57170568D02*
X140023230Y-55013216D01*
X140023230Y-55013216D02*
X143945689Y-54229432D01*
X143945689Y-54229432D02*
X144376770Y-56386784D01*
X133273193Y-59781634D02*
X136968711Y-58250901D01*
X133273193Y-59781634D02*
X132431289Y-57749099D01*
X132431289Y-57749099D02*
X136126807Y-56218366D01*
X136126807Y-56218366D02*
X136968711Y-58250901D01*
X126649956Y-63826674D02*
X129973894Y-61601492D01*
X126649956Y-63826674D02*
X125426106Y-61998508D01*
X125426106Y-61998508D02*
X128750044Y-59773326D01*
X128750044Y-59773326D02*
X129973894Y-61601492D01*
X121063604Y-68892031D02*
X123892031Y-66063604D01*
X121063604Y-68892031D02*
X119507969Y-67336396D01*
X119507969Y-67336396D02*
X122336396Y-64507969D01*
X122336396Y-64507969D02*
X123892031Y-66063604D01*
X116555461Y-75074237D02*
X118774838Y-71746421D01*
X116555461Y-75074237D02*
X114725162Y-73853579D01*
X114725162Y-73853579D02*
X116944539Y-70525763D01*
X116944539Y-70525763D02*
X118774838Y-71746421D01*
X113300901Y-81968711D02*
X114831634Y-78273193D01*
X113300901Y-81968711D02*
X111268366Y-81126807D01*
X111268366Y-81126807D02*
X112799099Y-77431289D01*
X112799099Y-77431289D02*
X114831634Y-78273193D01*
X111440582Y-89425568D02*
X112217519Y-85501747D01*
X111440582Y-89425568D02*
X109282481Y-88998253D01*
X109282481Y-88998253D02*
X110059418Y-85074432D01*
X110059418Y-85074432D02*
X112217519Y-85501747D01*
X111100000Y-97000000D02*
X111100000Y-93000000D01*
X111100000Y-97000000D02*
X108900000Y-97000000D01*
X108900000Y-97000000D02*
X108900000Y-93000000D01*
X108900000Y-93000000D02*
X111100000Y-93000000D01*
X112220568Y-104545689D02*
X111436784Y-100623230D01*
X112220568Y-104545689D02*
X110063216Y-104976770D01*
X110063216Y-104976770D02*
X109279432Y-101054311D01*
X109279432Y-101054311D02*
X111436784Y-100623230D01*
X114831634Y-111776807D02*
X113300901Y-108081289D01*
X114831634Y-111776807D02*
X112799099Y-112618711D01*
X112799099Y-112618711D02*
X111268366Y-108923193D01*
X111268366Y-108923193D02*
X113300901Y-108081289D01*
X118726674Y-118250044D02*
X116501492Y-114926106D01*
X118726674Y-118250044D02*
X116898508Y-119473894D01*
X116898508Y-119473894D02*
X114673326Y-116149956D01*
X114673326Y-116149956D02*
X116501492Y-114926106D01*
X123892031Y-123936396D02*
X121063604Y-121107969D01*
X123892031Y-123936396D02*
X122336396Y-125492031D01*
X122336396Y-125492031D02*
X119507969Y-122663604D01*
X119507969Y-122663604D02*
X121063604Y-121107969D01*
X130024237Y-128444539D02*
X126696421Y-126225162D01*
X130024237Y-128444539D02*
X128803579Y-130274838D01*
X128803579Y-130274838D02*
X125475763Y-128055461D01*
X125475763Y-128055461D02*
X126696421Y-126225162D01*
X136968711Y-131699099D02*
X133273193Y-130168366D01*
X136968711Y-131699099D02*
X136126807Y-133731634D01*
X136126807Y-133731634D02*
X132431289Y-132200901D01*
X132431289Y-132200901D02*
X133273193Y-130168366D01*
X144325568Y-133509418D02*
X140401747Y-132732481D01*
X144325568Y-133509418D02*
X143898253Y-135667519D01*
X143898253Y-135667519D02*
X139974432Y-134890582D01*
X139974432Y-134890582D02*
X140401747Y-132732481D01*
X152000000Y-133900000D02*
X148000000Y-133900000D01*
X152000000Y-133900000D02*
X152000000Y-136100000D01*
X152000000Y-136100000D02*
X148000000Y-136100000D01*
X148000000Y-136100000D02*
X148000000Y-133900000D01*
X159537965Y-132720311D02*
X155619664Y-133524623D01*
X159537965Y-132720311D02*
X159980336Y-134875377D01*
X159980336Y-134875377D02*
X156062035Y-135679689D01*
X156062035Y-135679689D02*
X155619664Y-133524623D01*
X166717459Y-130110919D02*
X163030007Y-131660982D01*
X166717459Y-130110919D02*
X167569993Y-132139018D01*
X167569993Y-132139018D02*
X163882541Y-133689081D01*
X163882541Y-133689081D02*
X163030007Y-131660982D01*
X173142963Y-126269673D02*
X169826813Y-128506444D01*
X173142963Y-126269673D02*
X174373187Y-128093556D01*
X174373187Y-128093556D02*
X171057037Y-130330327D01*
X171057037Y-130330327D02*
X169826813Y-128506444D01*
X178936396Y-121107969D02*
X176107969Y-123936396D01*
X178936396Y-121107969D02*
X180492031Y-122663604D01*
X180492031Y-122663604D02*
X177663604Y-125492031D01*
X177663604Y-125492031D02*
X176107969Y-123936396D01*
X183498508Y-114926106D02*
X181273326Y-118250044D01*
X183498508Y-114926106D02*
X185326674Y-116149956D01*
X185326674Y-116149956D02*
X183101492Y-119473894D01*
X183101492Y-119473894D02*
X181273326Y-118250044D01*
X186703059Y-108030855D02*
X185165878Y-111723696D01*
X186703059Y-108030855D02*
X188734122Y-108876304D01*
X188734122Y-108876304D02*
X187196941Y-112569145D01*
X187196941Y-112569145D02*
X185165878Y-111723696D01*
X188513216Y-100673230D02*
X187729432Y-104595689D01*
X188513216Y-100673230D02*
X190670568Y-101104311D01*
X190670568Y-101104311D02*
X189886784Y-105026770D01*
X189886784Y-105026770D02*
X187729432Y-104595689D01*
X188900000Y-93000000D02*
X188900000Y-97000000D01*
X188900000Y-93000000D02*
X191100000Y-93000000D01*
X191100000Y-93000000D02*
X191100000Y-97000000D01*
X191100000Y-97000000D02*
X188900000Y-97000000D01*
X187782481Y-85451747D02*
X188559418Y-89375568D01*
X187782481Y-85451747D02*
X189940582Y-85024432D01*
X189940582Y-85024432D02*
X190717519Y-88948253D01*
X190717519Y-88948253D02*
X188559418Y-89375568D01*
X185165878Y-78276304D02*
X186703059Y-81969145D01*
X185165878Y-78276304D02*
X187196941Y-77430855D01*
X187196941Y-77430855D02*
X188734122Y-81123696D01*
X188734122Y-81123696D02*
X186703059Y-81969145D01*
X181223326Y-71699956D02*
X183448508Y-75023894D01*
X181223326Y-71699956D02*
X183051492Y-70476106D01*
X183051492Y-70476106D02*
X185276674Y-73800044D01*
X185276674Y-73800044D02*
X183448508Y-75023894D01*
X176107969Y-66063604D02*
X178936396Y-68892031D01*
X176107969Y-66063604D02*
X177663604Y-64507969D01*
X177663604Y-64507969D02*
X180492031Y-67336396D01*
X180492031Y-67336396D02*
X178936396Y-68892031D01*
X170026106Y-61601492D02*
X173350044Y-63826674D01*
X170026106Y-61601492D02*
X171249956Y-59773326D01*
X171249956Y-59773326D02*
X174573894Y-61998508D01*
X174573894Y-61998508D02*
X173350044Y-63826674D01*
X163031289Y-58250901D02*
X166726807Y-59781634D01*
X163031289Y-58250901D02*
X163873193Y-56218366D01*
X163873193Y-56218366D02*
X167568711Y-57749099D01*
X167568711Y-57749099D02*
X166726807Y-59781634D01*
X155623230Y-56486784D02*
X159545689Y-57270568D01*
X155623230Y-56486784D02*
X156054311Y-54329432D01*
X156054311Y-54329432D02*
X159976770Y-55113216D01*
X159976770Y-55113216D02*
X159545689Y-57270568D01*
X148000000Y-56100000D02*
X152000000Y-56100000D01*
X148000000Y-56100000D02*
X148000000Y-53900000D01*
X148000000Y-53900000D02*
X152000000Y-53900000D01*
X152000000Y-53900000D02*
X152000000Y-56100000D01*
X142084669Y-49723439D02*
X142476561Y-51684669D01*
X142476561Y-51684669D02*
X140515331Y-52076561D01*
X140515331Y-52076561D02*
X140221412Y-50605639D01*
X140221412Y-50605639D02*
X140613747Y-50017358D01*
X140613747Y-50017358D02*
X142084669Y-49723439D01*
D13*
X141790749Y-48252517D02*
X139829520Y-48644409D01*
X138750490Y-50899558D02*
X138946436Y-51880173D01*
X142770480Y-53155591D02*
X140809251Y-53547483D01*
X143653564Y-49919827D02*
X143849510Y-50900442D01*
D11*
X133341196Y-52093437D02*
X134106563Y-53941196D01*
X134106563Y-53941196D02*
X132258804Y-54706563D01*
X132258804Y-54706563D02*
X131684779Y-53320744D01*
X131684779Y-53320744D02*
X131955377Y-52667462D01*
X131955377Y-52667462D02*
X133341196Y-52093437D01*
D13*
X132767171Y-50707618D02*
X130919412Y-51472985D01*
X130298959Y-53894769D02*
X130681643Y-54818648D01*
X134680588Y-55327015D02*
X132832829Y-56092382D01*
X134918357Y-51981352D02*
X135301041Y-52905231D01*
D11*
X125274689Y-56212720D02*
X126387280Y-57874689D01*
X126387280Y-57874689D02*
X124725311Y-58987280D01*
X124725311Y-58987280D02*
X123890868Y-57740803D01*
X123890868Y-57740803D02*
X124028212Y-57047163D01*
X124028212Y-57047163D02*
X125274689Y-56212720D01*
D13*
X124440245Y-54966243D02*
X122778276Y-56078834D01*
X122644391Y-58575247D02*
X123200687Y-59406231D01*
X127221724Y-59121166D02*
X125559755Y-60233757D01*
X126799313Y-55793769D02*
X127355609Y-56624753D01*
D11*
X118150000Y-61785786D02*
X119564214Y-63200000D01*
X119564214Y-63200000D02*
X118150000Y-64614214D01*
X118150000Y-64614214D02*
X117089340Y-63553553D01*
X117089340Y-63553553D02*
X117089340Y-62846447D01*
X117089340Y-62846447D02*
X118150000Y-61785786D01*
D13*
X117089340Y-60725126D02*
X115675126Y-62139340D01*
X116028680Y-64614214D02*
X116735786Y-65321320D01*
X120624874Y-64260660D02*
X119210660Y-65674874D01*
X119564214Y-61078680D02*
X120271320Y-61785786D01*
D11*
X112272890Y-68663201D02*
X113936799Y-69772890D01*
X113936799Y-69772890D02*
X112827110Y-71436799D01*
X112827110Y-71436799D02*
X111579179Y-70604532D01*
X111579179Y-70604532D02*
X111440624Y-69911133D01*
X111440624Y-69911133D02*
X112272890Y-68663201D01*
D13*
X111024959Y-67830935D02*
X109915270Y-69494843D01*
X110746912Y-71852463D02*
X111578866Y-72407308D01*
X115184730Y-70605157D02*
X114075041Y-72269065D01*
X113521134Y-67692692D02*
X114353088Y-68247537D01*
D11*
X107858804Y-76493437D02*
X109706563Y-77258804D01*
X109706563Y-77258804D02*
X108941196Y-79106563D01*
X108941196Y-79106563D02*
X107555377Y-78532538D01*
X107555377Y-78532538D02*
X107284779Y-77879256D01*
X107284779Y-77879256D02*
X107858804Y-76493437D01*
D13*
X106472985Y-75919412D02*
X105707618Y-77767171D01*
X106981352Y-79918357D02*
X107905231Y-80301041D01*
X111092382Y-77832829D02*
X110327015Y-79680588D01*
X108894769Y-75298959D02*
X109818648Y-75681643D01*
D11*
X105063279Y-85074810D02*
X107025190Y-85463279D01*
X107025190Y-85463279D02*
X106636721Y-87425190D01*
X106636721Y-87425190D02*
X105165288Y-87133838D01*
X105165288Y-87133838D02*
X104771928Y-86546243D01*
X104771928Y-86546243D02*
X105063279Y-85074810D01*
D13*
X103591846Y-84783459D02*
X103203378Y-86745369D01*
X104873937Y-88605271D02*
X105854892Y-88799505D01*
X108496622Y-85754631D02*
X108108154Y-87716541D01*
X105845108Y-83700495D02*
X106826063Y-83894729D01*
D11*
X104000000Y-94000000D02*
X106000000Y-94000000D01*
X106000000Y-94000000D02*
X106000000Y-96000000D01*
X106000000Y-96000000D02*
X104500000Y-96000000D01*
X104500000Y-96000000D02*
X104000000Y-95500000D01*
X104000000Y-95500000D02*
X104000000Y-94000000D01*
D13*
X102500000Y-94000000D02*
X102500000Y-96000000D01*
X104500000Y-97500000D02*
X105500000Y-97500000D01*
X107500000Y-94000000D02*
X107500000Y-96000000D01*
X104500000Y-92500000D02*
X105500000Y-92500000D01*
D11*
X104673439Y-102965331D02*
X106634669Y-102573439D01*
X106634669Y-102573439D02*
X107026561Y-104534669D01*
X107026561Y-104534669D02*
X105555639Y-104828588D01*
X105555639Y-104828588D02*
X104967358Y-104436253D01*
X104967358Y-104436253D02*
X104673439Y-102965331D01*
D13*
X103202517Y-103259251D02*
X103594409Y-105220480D01*
X105849558Y-106299510D02*
X106830173Y-106103564D01*
X108105591Y-102279520D02*
X108497483Y-104240749D01*
X104869827Y-101396436D02*
X105850442Y-101200490D01*
D11*
X107143437Y-111758804D02*
X108991196Y-110993437D01*
X108991196Y-110993437D02*
X109756563Y-112841196D01*
X109756563Y-112841196D02*
X108370744Y-113415221D01*
X108370744Y-113415221D02*
X107717462Y-113144623D01*
X107717462Y-113144623D02*
X107143437Y-111758804D01*
D13*
X105757618Y-112332829D02*
X106522985Y-114180588D01*
X108944769Y-114801041D02*
X109868648Y-114418357D01*
X110377015Y-110419412D02*
X111142382Y-112267171D01*
X107031352Y-110181643D02*
X107955231Y-109798959D01*
D11*
X111162720Y-119675311D02*
X112824689Y-118562720D01*
X112824689Y-118562720D02*
X113937280Y-120224689D01*
X113937280Y-120224689D02*
X112690803Y-121059132D01*
X112690803Y-121059132D02*
X111997163Y-120921788D01*
X111997163Y-120921788D02*
X111162720Y-119675311D01*
D13*
X109916243Y-120509755D02*
X111028834Y-122171724D01*
X113525247Y-122305609D02*
X114356231Y-121749313D01*
X114071166Y-117728276D02*
X115183757Y-119390245D01*
X110743769Y-118150687D02*
X111574753Y-117594391D01*
D11*
X116785786Y-126850000D02*
X118200000Y-125435786D01*
X118200000Y-125435786D02*
X119614214Y-126850000D01*
X119614214Y-126850000D02*
X118553553Y-127910660D01*
X118553553Y-127910660D02*
X117846447Y-127910660D01*
X117846447Y-127910660D02*
X116785786Y-126850000D01*
D13*
X115725126Y-127910660D02*
X117139340Y-129324874D01*
X119614214Y-128971320D02*
X120321320Y-128264214D01*
X119260660Y-124375126D02*
X120674874Y-125789340D01*
X116078680Y-125435786D02*
X116785786Y-124728680D01*
D11*
X123563201Y-132677110D02*
X124672890Y-131013201D01*
X124672890Y-131013201D02*
X126336799Y-132122890D01*
X126336799Y-132122890D02*
X125504532Y-133370821D01*
X125504532Y-133370821D02*
X124811133Y-133509376D01*
X124811133Y-133509376D02*
X123563201Y-132677110D01*
D13*
X122730935Y-133925041D02*
X124394843Y-135034730D01*
X126752463Y-134203088D02*
X127307308Y-133371134D01*
X125505157Y-129765270D02*
X127169065Y-130874959D01*
X122592692Y-131428866D02*
X123147537Y-130596912D01*
D11*
X131493437Y-137141196D02*
X132258804Y-135293437D01*
X132258804Y-135293437D02*
X134106563Y-136058804D01*
X134106563Y-136058804D02*
X133532538Y-137444623D01*
X133532538Y-137444623D02*
X132879256Y-137715221D01*
X132879256Y-137715221D02*
X131493437Y-137141196D01*
D13*
X130919412Y-138527015D02*
X132767171Y-139292382D01*
X134918357Y-138018648D02*
X135301041Y-137094769D01*
X132832829Y-133907618D02*
X134680588Y-134672985D01*
X130298959Y-136105231D02*
X130681643Y-135181352D01*
D11*
X139974810Y-139936721D02*
X140363279Y-137974810D01*
X140363279Y-137974810D02*
X142325190Y-138363279D01*
X142325190Y-138363279D02*
X142033838Y-139834712D01*
X142033838Y-139834712D02*
X141446243Y-140228072D01*
X141446243Y-140228072D02*
X139974810Y-139936721D01*
D13*
X139683459Y-141408154D02*
X141645369Y-141796622D01*
X143505271Y-140126063D02*
X143699505Y-139145108D01*
X140654631Y-136503378D02*
X142616541Y-136891846D01*
X138600495Y-139154892D02*
X138794729Y-138173937D01*
D11*
X149000000Y-141000000D02*
X149000000Y-139000000D01*
X149000000Y-139000000D02*
X151000000Y-139000000D01*
X151000000Y-139000000D02*
X151000000Y-140500000D01*
X151000000Y-140500000D02*
X150500000Y-141000000D01*
X150500000Y-141000000D02*
X149000000Y-141000000D01*
D13*
X149000000Y-142500000D02*
X151000000Y-142500000D01*
X152500000Y-140500000D02*
X152500000Y-139500000D01*
X149000000Y-137500000D02*
X151000000Y-137500000D01*
X147500000Y-140500000D02*
X147500000Y-139500000D01*
D11*
X157921503Y-140280653D02*
X157519347Y-138321503D01*
X157519347Y-138321503D02*
X159478497Y-137919347D01*
X159478497Y-137919347D02*
X159780114Y-139388710D01*
X159780114Y-139388710D02*
X159390866Y-139979036D01*
X159390866Y-139979036D02*
X157921503Y-140280653D01*
D13*
X158223120Y-141750016D02*
X160182270Y-141347860D01*
X161249477Y-139087093D02*
X161048399Y-138107518D01*
X157217730Y-136852140D02*
X159176880Y-136449984D01*
X156351601Y-140092482D02*
X156150523Y-139112907D01*
D11*
X166665652Y-137909379D02*
X165890621Y-136065652D01*
X165890621Y-136065652D02*
X167734348Y-135290621D01*
X167734348Y-135290621D02*
X168315621Y-136673416D01*
X168315621Y-136673416D02*
X168048447Y-137328105D01*
X168048447Y-137328105D02*
X166665652Y-137909379D01*
D13*
X167246926Y-139292173D02*
X169090652Y-138517142D01*
X169698416Y-136092143D02*
X169310900Y-135170279D01*
X165309348Y-134682858D02*
X167153074Y-133907827D01*
X165089100Y-138029721D02*
X164701584Y-137107857D01*
D11*
X174630155Y-133888230D02*
X173511770Y-132230155D01*
X173511770Y-132230155D02*
X175169845Y-131111770D01*
X175169845Y-131111770D02*
X176008634Y-132355326D01*
X176008634Y-132355326D02*
X175873712Y-133049441D01*
X175873712Y-133049441D02*
X174630155Y-133888230D01*
D13*
X175468945Y-135131787D02*
X177127020Y-134013401D01*
X177252190Y-131516537D02*
X176692997Y-130687499D01*
X172672980Y-130986599D02*
X174331055Y-129868213D01*
X173107003Y-134312501D02*
X172547810Y-133483463D01*
D11*
X181802468Y-128214211D02*
X180385789Y-126802468D01*
X180385789Y-126802468D02*
X181797532Y-125385789D01*
X181797532Y-125385789D02*
X182860041Y-126444596D01*
X182860041Y-126444596D02*
X182861276Y-127151702D01*
X182861276Y-127151702D02*
X181802468Y-128214211D01*
D13*
X182864978Y-129273019D02*
X184276721Y-127856339D01*
X183918849Y-125382086D02*
X183210509Y-124676215D01*
X179323279Y-125743661D02*
X180735022Y-124326981D01*
X180389491Y-128923785D02*
X179681151Y-128217914D01*
D11*
X187677110Y-121386799D02*
X186013201Y-120277110D01*
X186013201Y-120277110D02*
X187122890Y-118613201D01*
X187122890Y-118613201D02*
X188370821Y-119445468D01*
X188370821Y-119445468D02*
X188509376Y-120138867D01*
X188509376Y-120138867D02*
X187677110Y-121386799D01*
D13*
X188925041Y-122219065D02*
X190034730Y-120555157D01*
X189203088Y-118197537D02*
X188371134Y-117642692D01*
X184765270Y-119444843D02*
X185874959Y-117780935D01*
X186428866Y-122357308D02*
X185596912Y-121802463D01*
D11*
X192138915Y-113507506D02*
X190292494Y-112738915D01*
X190292494Y-112738915D02*
X191061085Y-110892494D01*
X191061085Y-110892494D02*
X192445900Y-111468937D01*
X192445900Y-111468937D02*
X192715358Y-112122690D01*
X192715358Y-112122690D02*
X192138915Y-113507506D01*
D13*
X193523730Y-114083949D02*
X194292321Y-112237528D01*
X193022343Y-110084122D02*
X192099133Y-109699827D01*
X188907679Y-112162472D02*
X189676270Y-110316051D01*
X191100867Y-114700173D02*
X190177657Y-114315878D01*
D11*
X194884669Y-105076561D02*
X192923439Y-104684669D01*
X192923439Y-104684669D02*
X193315331Y-102723439D01*
X193315331Y-102723439D02*
X194786253Y-103017358D01*
X194786253Y-103017358D02*
X195178588Y-103605639D01*
X195178588Y-103605639D02*
X194884669Y-105076561D01*
D13*
X196355591Y-105370480D02*
X196747483Y-103409251D01*
X195080173Y-101546436D02*
X194099558Y-101350490D01*
X191452517Y-104390749D02*
X191844409Y-102429520D01*
X194100442Y-106449510D02*
X193119827Y-106253564D01*
D11*
X196000000Y-96000000D02*
X194000000Y-96000000D01*
X194000000Y-96000000D02*
X194000000Y-94000000D01*
X194000000Y-94000000D02*
X195500000Y-94000000D01*
X195500000Y-94000000D02*
X196000000Y-94500000D01*
X196000000Y-94500000D02*
X196000000Y-96000000D01*
D13*
X197500000Y-96000000D02*
X197500000Y-94000000D01*
X195500000Y-92500000D02*
X194500000Y-92500000D01*
X192500000Y-96000000D02*
X192500000Y-94000000D01*
X195500000Y-97500000D02*
X194500000Y-97500000D01*
D11*
X195275190Y-86986721D02*
X193313279Y-87375190D01*
X193313279Y-87375190D02*
X192924810Y-85413279D01*
X192924810Y-85413279D02*
X194396243Y-85121928D01*
X194396243Y-85121928D02*
X194983838Y-85515288D01*
X194983838Y-85515288D02*
X195275190Y-86986721D01*
D13*
X196746622Y-86695369D02*
X196358154Y-84733459D01*
X194104892Y-83650495D02*
X193123937Y-83844729D01*
X191841846Y-87666541D02*
X191453378Y-85704631D01*
X195076063Y-88555271D02*
X194095108Y-88749505D01*
D11*
X192907506Y-78338915D02*
X191061085Y-79107506D01*
X191061085Y-79107506D02*
X190292494Y-77261085D01*
X190292494Y-77261085D02*
X191677310Y-76684642D01*
X191677310Y-76684642D02*
X192331063Y-76954100D01*
X192331063Y-76954100D02*
X192907506Y-78338915D01*
D13*
X194292321Y-77762472D02*
X193523730Y-75916051D01*
X191100867Y-75299827D02*
X190177657Y-75684122D01*
X189676270Y-79683949D02*
X188907679Y-77837528D01*
X193022343Y-79915878D02*
X192099133Y-80300173D01*
D11*
X188787280Y-70274689D02*
X187125311Y-71387280D01*
X187125311Y-71387280D02*
X186012720Y-69725311D01*
X186012720Y-69725311D02*
X187259197Y-68890868D01*
X187259197Y-68890868D02*
X187952837Y-69028212D01*
X187952837Y-69028212D02*
X188787280Y-70274689D01*
D13*
X190033757Y-69440245D02*
X188921166Y-67778276D01*
X186424753Y-67644391D02*
X185593769Y-68200687D01*
X185878834Y-72221724D02*
X184766243Y-70559755D01*
X189206231Y-71799313D02*
X188375247Y-72355609D01*
D11*
X183214214Y-63200000D02*
X181800000Y-64614214D01*
X181800000Y-64614214D02*
X180385786Y-63200000D01*
X180385786Y-63200000D02*
X181446447Y-62139340D01*
X181446447Y-62139340D02*
X182153553Y-62139340D01*
X182153553Y-62139340D02*
X183214214Y-63200000D01*
D13*
X184274874Y-62139340D02*
X182860660Y-60725126D01*
X180385786Y-61078680D02*
X179678680Y-61785786D01*
X180739340Y-65674874D02*
X179325126Y-64260660D01*
X183921320Y-64614214D02*
X183214214Y-65321320D01*
D11*
X176387280Y-57325311D02*
X175274689Y-58987280D01*
X175274689Y-58987280D02*
X173612720Y-57874689D01*
X173612720Y-57874689D02*
X174447163Y-56628212D01*
X174447163Y-56628212D02*
X175140803Y-56490868D01*
X175140803Y-56490868D02*
X176387280Y-57325311D01*
D13*
X177221724Y-56078834D02*
X175559755Y-54966243D01*
X173200687Y-55793769D02*
X172644391Y-56624753D01*
X174440245Y-60233757D02*
X172778276Y-59121166D01*
X177355609Y-58575247D02*
X176799313Y-59406231D01*
D11*
X168506563Y-52858804D02*
X167741196Y-54706563D01*
X167741196Y-54706563D02*
X165893437Y-53941196D01*
X165893437Y-53941196D02*
X166467462Y-52555377D01*
X166467462Y-52555377D02*
X167120744Y-52284779D01*
X167120744Y-52284779D02*
X168506563Y-52858804D01*
D13*
X169080588Y-51472985D02*
X167232829Y-50707618D01*
X165081643Y-51981352D02*
X164698959Y-52905231D01*
X167167171Y-56092382D02*
X165319412Y-55327015D01*
X169701041Y-53894769D02*
X169318357Y-54818648D01*
D11*
X159976561Y-50115331D02*
X159584669Y-52076561D01*
X159584669Y-52076561D02*
X157623439Y-51684669D01*
X157623439Y-51684669D02*
X157917358Y-50213747D01*
X157917358Y-50213747D02*
X158505639Y-49821412D01*
X158505639Y-49821412D02*
X159976561Y-50115331D01*
D13*
X160270480Y-48644409D02*
X158309251Y-48252517D01*
X156446436Y-49919827D02*
X156250490Y-50900442D01*
X159290749Y-53547483D02*
X157329520Y-53155591D01*
X161349510Y-50899558D02*
X161153564Y-51880173D01*
D11*
X151000000Y-49000000D02*
X151000000Y-51000000D01*
X151000000Y-51000000D02*
X149000000Y-51000000D01*
X149000000Y-51000000D02*
X149000000Y-49500000D01*
X149000000Y-49500000D02*
X149500000Y-49000000D01*
X149500000Y-49000000D02*
X151000000Y-49000000D01*
D13*
X151000000Y-47500000D02*
X149000000Y-47500000D01*
X147500000Y-49500000D02*
X147500000Y-50500000D01*
X151000000Y-52500000D02*
X149000000Y-52500000D01*
X152500000Y-49500000D02*
X152500000Y-50500000D01*
D14*
G36*
X135132840Y-118623820D02*
X135209040Y-118613660D01*
X135277620Y-118590800D01*
X135308100Y-118575560D01*
X135371600Y-118529840D01*
X135422400Y-118476500D01*
X135460500Y-118413000D01*
X135485900Y-118344420D01*
X135498600Y-118270760D01*
X135496060Y-118197100D01*
X135478280Y-118123440D01*
X135445260Y-118052320D01*
X135422400Y-118021840D01*
X135391920Y-117988820D01*
X135356360Y-117955800D01*
X135325880Y-117932940D01*
X135315720Y-117925320D01*
X135249680Y-117894840D01*
X135183640Y-117879600D01*
X135107440Y-117877060D01*
X135082040Y-117877060D01*
X135041400Y-117882140D01*
X135005840Y-117892300D01*
X134965200Y-117910080D01*
X134922020Y-117932940D01*
X134861060Y-117981200D01*
X134812800Y-118042160D01*
X134774700Y-118110740D01*
X134764540Y-118141220D01*
X134754380Y-118179320D01*
X134749300Y-118207260D01*
X134749300Y-118212340D01*
X134749300Y-118212340D01*
X134746760Y-118197100D01*
X134746760Y-118194560D01*
X134734060Y-118146300D01*
X134716280Y-118098040D01*
X134693420Y-118054860D01*
X134652780Y-117998980D01*
X134594360Y-117945640D01*
X134528320Y-117907540D01*
X134454660Y-117882140D01*
X134375920Y-117874520D01*
X134355600Y-117874520D01*
X134297180Y-117882140D01*
X134238760Y-117897380D01*
X134228600Y-117902460D01*
X134165100Y-117938020D01*
X134109220Y-117983740D01*
X134060960Y-118042160D01*
X134027940Y-118103120D01*
X134007620Y-118171700D01*
X134005080Y-118174240D01*
X134002540Y-118192020D01*
X134000000Y-118199640D01*
X134000000Y-118199640D01*
X133997460Y-118189480D01*
X133992380Y-118171700D01*
X133992380Y-118164080D01*
X133969520Y-118098040D01*
X133933960Y-118034540D01*
X133885700Y-117978660D01*
X133839980Y-117940560D01*
X133776480Y-117905000D01*
X133702820Y-117882140D01*
X133624080Y-117874520D01*
X133568200Y-117879600D01*
X133494540Y-117897380D01*
X133425960Y-117932940D01*
X133365000Y-117978660D01*
X133316740Y-118039620D01*
X133309120Y-118047240D01*
X133293880Y-118075180D01*
X133281180Y-118098040D01*
X133276100Y-118115820D01*
X133263400Y-118148840D01*
X133255780Y-118181860D01*
X133253240Y-118207260D01*
X133253240Y-118212340D01*
X133250700Y-118212340D01*
X133248160Y-118194560D01*
X133240540Y-118153920D01*
X133220220Y-118103120D01*
X133199900Y-118057400D01*
X133154180Y-117996440D01*
X133095760Y-117945640D01*
X133029720Y-117907540D01*
X132956060Y-117882140D01*
X132879860Y-117874520D01*
X132808740Y-117879600D01*
X132735080Y-117899920D01*
X132669040Y-117938020D01*
X132608080Y-117988820D01*
X132577600Y-118021840D01*
X132549660Y-118062480D01*
X132526800Y-118110740D01*
X132514100Y-118148840D01*
X132501400Y-118225040D01*
X132503940Y-118298700D01*
X132519180Y-118367280D01*
X132549660Y-118433320D01*
X132590300Y-118491740D01*
X132641100Y-118542540D01*
X132702060Y-118583180D01*
X132770640Y-118608580D01*
X132846840Y-118621280D01*
X132854460Y-118623820D01*
X132930660Y-118621280D01*
X133001780Y-118603500D01*
X133070360Y-118570480D01*
X133095760Y-118552700D01*
X133144020Y-118509520D01*
X133189740Y-118456180D01*
X133220220Y-118400300D01*
X133227840Y-118379980D01*
X133238000Y-118346960D01*
X133245620Y-118313940D01*
X133250700Y-118288540D01*
X133250700Y-118273300D01*
X133253240Y-118288540D01*
X133253240Y-118301240D01*
X133260860Y-118334260D01*
X133271020Y-118372360D01*
X133283720Y-118402840D01*
X133301500Y-118438400D01*
X133347220Y-118499360D01*
X133405640Y-118550160D01*
X133471680Y-118590800D01*
X133545340Y-118616200D01*
X133558040Y-118618740D01*
X133608840Y-118623820D01*
X133664720Y-118621280D01*
X133712980Y-118613660D01*
X133763780Y-118598420D01*
X133832360Y-118562860D01*
X133895860Y-118512060D01*
X133898400Y-118506980D01*
X133941580Y-118453640D01*
X133974600Y-118390140D01*
X133992380Y-118326640D01*
X133994920Y-118324100D01*
X133997460Y-118306320D01*
X134000000Y-118298700D01*
X134002540Y-118303780D01*
X134005080Y-118319020D01*
X134005080Y-118324100D01*
X134015240Y-118362200D01*
X134033020Y-118405380D01*
X134055880Y-118446020D01*
X134088900Y-118491740D01*
X134144780Y-118545080D01*
X134210820Y-118585720D01*
X134284480Y-118613660D01*
X134297180Y-118616200D01*
X134347980Y-118621280D01*
X134403860Y-118621280D01*
X134452120Y-118616200D01*
X134492760Y-118603500D01*
X134563880Y-118573020D01*
X134624840Y-118527300D01*
X134678180Y-118468880D01*
X134716280Y-118402840D01*
X134723900Y-118382520D01*
X134736600Y-118346960D01*
X134744220Y-118313940D01*
X134746760Y-118288540D01*
X134746760Y-118286000D01*
X134749300Y-118286000D01*
X134751840Y-118301240D01*
X134751840Y-118303780D01*
X134762000Y-118349500D01*
X134782320Y-118400300D01*
X134802640Y-118443480D01*
X134812800Y-118458720D01*
X134861060Y-118517140D01*
X134922020Y-118562860D01*
X134985520Y-118598420D01*
X135056640Y-118618740D01*
X135132840Y-118623820D01*
X135132840Y-118623820D01*
G37*
X135132840Y-118623820D02*
X135209040Y-118613660D01*
X135277620Y-118590800D01*
X135308100Y-118575560D01*
X135371600Y-118529840D01*
X135422400Y-118476500D01*
X135460500Y-118413000D01*
X135485900Y-118344420D01*
X135498600Y-118270760D01*
X135496060Y-118197100D01*
X135478280Y-118123440D01*
X135445260Y-118052320D01*
X135422400Y-118021840D01*
X135391920Y-117988820D01*
X135356360Y-117955800D01*
X135325880Y-117932940D01*
X135315720Y-117925320D01*
X135249680Y-117894840D01*
X135183640Y-117879600D01*
X135107440Y-117877060D01*
X135082040Y-117877060D01*
X135041400Y-117882140D01*
X135005840Y-117892300D01*
X134965200Y-117910080D01*
X134922020Y-117932940D01*
X134861060Y-117981200D01*
X134812800Y-118042160D01*
X134774700Y-118110740D01*
X134764540Y-118141220D01*
X134754380Y-118179320D01*
X134749300Y-118207260D01*
X134749300Y-118212340D01*
X134749300Y-118212340D01*
X134746760Y-118197100D01*
X134746760Y-118194560D01*
X134734060Y-118146300D01*
X134716280Y-118098040D01*
X134693420Y-118054860D01*
X134652780Y-117998980D01*
X134594360Y-117945640D01*
X134528320Y-117907540D01*
X134454660Y-117882140D01*
X134375920Y-117874520D01*
X134355600Y-117874520D01*
X134297180Y-117882140D01*
X134238760Y-117897380D01*
X134228600Y-117902460D01*
X134165100Y-117938020D01*
X134109220Y-117983740D01*
X134060960Y-118042160D01*
X134027940Y-118103120D01*
X134007620Y-118171700D01*
X134005080Y-118174240D01*
X134002540Y-118192020D01*
X134000000Y-118199640D01*
X134000000Y-118199640D01*
X133997460Y-118189480D01*
X133992380Y-118171700D01*
X133992380Y-118164080D01*
X133969520Y-118098040D01*
X133933960Y-118034540D01*
X133885700Y-117978660D01*
X133839980Y-117940560D01*
X133776480Y-117905000D01*
X133702820Y-117882140D01*
X133624080Y-117874520D01*
X133568200Y-117879600D01*
X133494540Y-117897380D01*
X133425960Y-117932940D01*
X133365000Y-117978660D01*
X133316740Y-118039620D01*
X133309120Y-118047240D01*
X133293880Y-118075180D01*
X133281180Y-118098040D01*
X133276100Y-118115820D01*
X133263400Y-118148840D01*
X133255780Y-118181860D01*
X133253240Y-118207260D01*
X133253240Y-118212340D01*
X133250700Y-118212340D01*
X133248160Y-118194560D01*
X133240540Y-118153920D01*
X133220220Y-118103120D01*
X133199900Y-118057400D01*
X133154180Y-117996440D01*
X133095760Y-117945640D01*
X133029720Y-117907540D01*
X132956060Y-117882140D01*
X132879860Y-117874520D01*
X132808740Y-117879600D01*
X132735080Y-117899920D01*
X132669040Y-117938020D01*
X132608080Y-117988820D01*
X132577600Y-118021840D01*
X132549660Y-118062480D01*
X132526800Y-118110740D01*
X132514100Y-118148840D01*
X132501400Y-118225040D01*
X132503940Y-118298700D01*
X132519180Y-118367280D01*
X132549660Y-118433320D01*
X132590300Y-118491740D01*
X132641100Y-118542540D01*
X132702060Y-118583180D01*
X132770640Y-118608580D01*
X132846840Y-118621280D01*
X132854460Y-118623820D01*
X132930660Y-118621280D01*
X133001780Y-118603500D01*
X133070360Y-118570480D01*
X133095760Y-118552700D01*
X133144020Y-118509520D01*
X133189740Y-118456180D01*
X133220220Y-118400300D01*
X133227840Y-118379980D01*
X133238000Y-118346960D01*
X133245620Y-118313940D01*
X133250700Y-118288540D01*
X133250700Y-118273300D01*
X133253240Y-118288540D01*
X133253240Y-118301240D01*
X133260860Y-118334260D01*
X133271020Y-118372360D01*
X133283720Y-118402840D01*
X133301500Y-118438400D01*
X133347220Y-118499360D01*
X133405640Y-118550160D01*
X133471680Y-118590800D01*
X133545340Y-118616200D01*
X133558040Y-118618740D01*
X133608840Y-118623820D01*
X133664720Y-118621280D01*
X133712980Y-118613660D01*
X133763780Y-118598420D01*
X133832360Y-118562860D01*
X133895860Y-118512060D01*
X133898400Y-118506980D01*
X133941580Y-118453640D01*
X133974600Y-118390140D01*
X133992380Y-118326640D01*
X133994920Y-118324100D01*
X133997460Y-118306320D01*
X134000000Y-118298700D01*
X134002540Y-118303780D01*
X134005080Y-118319020D01*
X134005080Y-118324100D01*
X134015240Y-118362200D01*
X134033020Y-118405380D01*
X134055880Y-118446020D01*
X134088900Y-118491740D01*
X134144780Y-118545080D01*
X134210820Y-118585720D01*
X134284480Y-118613660D01*
X134297180Y-118616200D01*
X134347980Y-118621280D01*
X134403860Y-118621280D01*
X134452120Y-118616200D01*
X134492760Y-118603500D01*
X134563880Y-118573020D01*
X134624840Y-118527300D01*
X134678180Y-118468880D01*
X134716280Y-118402840D01*
X134723900Y-118382520D01*
X134736600Y-118346960D01*
X134744220Y-118313940D01*
X134746760Y-118288540D01*
X134746760Y-118286000D01*
X134749300Y-118286000D01*
X134751840Y-118301240D01*
X134751840Y-118303780D01*
X134762000Y-118349500D01*
X134782320Y-118400300D01*
X134802640Y-118443480D01*
X134812800Y-118458720D01*
X134861060Y-118517140D01*
X134922020Y-118562860D01*
X134985520Y-118598420D01*
X135056640Y-118618740D01*
X135132840Y-118623820D01*
G36*
X132102620Y-117874520D02*
X132148340Y-117871980D01*
X132191520Y-117869440D01*
X132242320Y-117856740D01*
X132310900Y-117823720D01*
X132374400Y-117780540D01*
X132425200Y-117724660D01*
X132465840Y-117658620D01*
X132491240Y-117587500D01*
X132501400Y-117511300D01*
X132496320Y-117435100D01*
X132476000Y-117363980D01*
X132442980Y-117297940D01*
X132394720Y-117236980D01*
X132333760Y-117186180D01*
X132315980Y-117176020D01*
X132242320Y-117143000D01*
X132168660Y-117125220D01*
X132089920Y-117125220D01*
X132013720Y-117140460D01*
X131952760Y-117165860D01*
X131886720Y-117209040D01*
X131833380Y-117264920D01*
X131790200Y-117330960D01*
X131762260Y-117407160D01*
X131754640Y-117445260D01*
X131752100Y-117493520D01*
X131752100Y-117541780D01*
X131759720Y-117582420D01*
X131762260Y-117595120D01*
X131792740Y-117671320D01*
X131835920Y-117737360D01*
X131894340Y-117793240D01*
X131962920Y-117836420D01*
X131993400Y-117849120D01*
X132036580Y-117864360D01*
X132077220Y-117871980D01*
X132102620Y-117874520D01*
X132102620Y-117874520D01*
G37*
X132102620Y-117874520D02*
X132148340Y-117871980D01*
X132191520Y-117869440D01*
X132242320Y-117856740D01*
X132310900Y-117823720D01*
X132374400Y-117780540D01*
X132425200Y-117724660D01*
X132465840Y-117658620D01*
X132491240Y-117587500D01*
X132501400Y-117511300D01*
X132496320Y-117435100D01*
X132476000Y-117363980D01*
X132442980Y-117297940D01*
X132394720Y-117236980D01*
X132333760Y-117186180D01*
X132315980Y-117176020D01*
X132242320Y-117143000D01*
X132168660Y-117125220D01*
X132089920Y-117125220D01*
X132013720Y-117140460D01*
X131952760Y-117165860D01*
X131886720Y-117209040D01*
X131833380Y-117264920D01*
X131790200Y-117330960D01*
X131762260Y-117407160D01*
X131754640Y-117445260D01*
X131752100Y-117493520D01*
X131752100Y-117541780D01*
X131759720Y-117582420D01*
X131762260Y-117595120D01*
X131792740Y-117671320D01*
X131835920Y-117737360D01*
X131894340Y-117793240D01*
X131962920Y-117836420D01*
X131993400Y-117849120D01*
X132036580Y-117864360D01*
X132077220Y-117871980D01*
X132102620Y-117874520D01*
G36*
X135882140Y-117874520D02*
X135958340Y-117864360D01*
X136034540Y-117838960D01*
X136103120Y-117795780D01*
X136118360Y-117783080D01*
X136169160Y-117729740D01*
X136209800Y-117663700D01*
X136237740Y-117590040D01*
X136245360Y-117551940D01*
X136247900Y-117503680D01*
X136247900Y-117455420D01*
X136240280Y-117417320D01*
X136235200Y-117399540D01*
X136207260Y-117323340D01*
X136164080Y-117259840D01*
X136108200Y-117206500D01*
X136044700Y-117165860D01*
X135973580Y-117137920D01*
X135894840Y-117125220D01*
X135866900Y-117122680D01*
X135790700Y-117132840D01*
X135719580Y-117155700D01*
X135656080Y-117193800D01*
X135600200Y-117242060D01*
X135557020Y-117300480D01*
X135524000Y-117366520D01*
X135503680Y-117437640D01*
X135501140Y-117516380D01*
X135503680Y-117562100D01*
X135513840Y-117602740D01*
X135529080Y-117645920D01*
X135559560Y-117704340D01*
X135607820Y-117762760D01*
X135666240Y-117811020D01*
X135732280Y-117846580D01*
X135805940Y-117866900D01*
X135882140Y-117874520D01*
X135882140Y-117874520D01*
G37*
X135882140Y-117874520D02*
X135958340Y-117864360D01*
X136034540Y-117838960D01*
X136103120Y-117795780D01*
X136118360Y-117783080D01*
X136169160Y-117729740D01*
X136209800Y-117663700D01*
X136237740Y-117590040D01*
X136245360Y-117551940D01*
X136247900Y-117503680D01*
X136247900Y-117455420D01*
X136240280Y-117417320D01*
X136235200Y-117399540D01*
X136207260Y-117323340D01*
X136164080Y-117259840D01*
X136108200Y-117206500D01*
X136044700Y-117165860D01*
X135973580Y-117137920D01*
X135894840Y-117125220D01*
X135866900Y-117122680D01*
X135790700Y-117132840D01*
X135719580Y-117155700D01*
X135656080Y-117193800D01*
X135600200Y-117242060D01*
X135557020Y-117300480D01*
X135524000Y-117366520D01*
X135503680Y-117437640D01*
X135501140Y-117516380D01*
X135503680Y-117562100D01*
X135513840Y-117602740D01*
X135529080Y-117645920D01*
X135559560Y-117704340D01*
X135607820Y-117762760D01*
X135666240Y-117811020D01*
X135732280Y-117846580D01*
X135805940Y-117866900D01*
X135882140Y-117874520D01*
G36*
X131355860Y-117122680D02*
X131409200Y-117122680D01*
X131454920Y-117115060D01*
X131508260Y-117099820D01*
X131576840Y-117064260D01*
X131640340Y-117013460D01*
X131680980Y-116967740D01*
X131719080Y-116901700D01*
X131741940Y-116828040D01*
X131747020Y-116800100D01*
X131749560Y-116754380D01*
X131749560Y-116708660D01*
X131744480Y-116670560D01*
X131736860Y-116647700D01*
X131708920Y-116574040D01*
X131665740Y-116510540D01*
X131609860Y-116454660D01*
X131541280Y-116414020D01*
X131515880Y-116401320D01*
X131467620Y-116383540D01*
X131419360Y-116375920D01*
X131363480Y-116375920D01*
X131327920Y-116378460D01*
X131287280Y-116383540D01*
X131249180Y-116393700D01*
X131208540Y-116414020D01*
X131185680Y-116426720D01*
X131122180Y-116472440D01*
X131071380Y-116530860D01*
X131030740Y-116599440D01*
X131007880Y-116675640D01*
X131005340Y-116693420D01*
X131000260Y-116736600D01*
X131002800Y-116782320D01*
X131007880Y-116822960D01*
X131012960Y-116848360D01*
X131043440Y-116922020D01*
X131086620Y-116988060D01*
X131139960Y-117041400D01*
X131208540Y-117084580D01*
X131282200Y-117112520D01*
X131305060Y-117117600D01*
X131355860Y-117122680D01*
X131355860Y-117122680D01*
G37*
X131355860Y-117122680D02*
X131409200Y-117122680D01*
X131454920Y-117115060D01*
X131508260Y-117099820D01*
X131576840Y-117064260D01*
X131640340Y-117013460D01*
X131680980Y-116967740D01*
X131719080Y-116901700D01*
X131741940Y-116828040D01*
X131747020Y-116800100D01*
X131749560Y-116754380D01*
X131749560Y-116708660D01*
X131744480Y-116670560D01*
X131736860Y-116647700D01*
X131708920Y-116574040D01*
X131665740Y-116510540D01*
X131609860Y-116454660D01*
X131541280Y-116414020D01*
X131515880Y-116401320D01*
X131467620Y-116383540D01*
X131419360Y-116375920D01*
X131363480Y-116375920D01*
X131327920Y-116378460D01*
X131287280Y-116383540D01*
X131249180Y-116393700D01*
X131208540Y-116414020D01*
X131185680Y-116426720D01*
X131122180Y-116472440D01*
X131071380Y-116530860D01*
X131030740Y-116599440D01*
X131007880Y-116675640D01*
X131005340Y-116693420D01*
X131000260Y-116736600D01*
X131002800Y-116782320D01*
X131007880Y-116822960D01*
X131012960Y-116848360D01*
X131043440Y-116922020D01*
X131086620Y-116988060D01*
X131139960Y-117041400D01*
X131208540Y-117084580D01*
X131282200Y-117112520D01*
X131305060Y-117117600D01*
X131355860Y-117122680D01*
G36*
X134365760Y-117122680D02*
X134439420Y-117117600D01*
X134510540Y-117097280D01*
X134553720Y-117079500D01*
X134617220Y-117033780D01*
X134670560Y-116977900D01*
X134711200Y-116911860D01*
X134736600Y-116840740D01*
X134741680Y-116822960D01*
X134749300Y-116764540D01*
X134746760Y-116706120D01*
X134731520Y-116640080D01*
X134701040Y-116566420D01*
X134657860Y-116502920D01*
X134601980Y-116452120D01*
X134535940Y-116411480D01*
X134459740Y-116383540D01*
X134411480Y-116370840D01*
X134436880Y-116368300D01*
X134441960Y-116368300D01*
X134495300Y-116353060D01*
X134551180Y-116327660D01*
X134604520Y-116294640D01*
X134612140Y-116287020D01*
X134665480Y-116233680D01*
X134708660Y-116170180D01*
X134734060Y-116099060D01*
X134746760Y-116027940D01*
X134746760Y-115954280D01*
X134728980Y-115880620D01*
X134695960Y-115809500D01*
X134695960Y-115806960D01*
X134647700Y-115746000D01*
X134591820Y-115695200D01*
X134528320Y-115659640D01*
X134459740Y-115636780D01*
X134388620Y-115626620D01*
X134314960Y-115631700D01*
X134243840Y-115649480D01*
X134177800Y-115682500D01*
X134114300Y-115728220D01*
X134083820Y-115763780D01*
X134045720Y-115819660D01*
X134017780Y-115878080D01*
X134005080Y-115933960D01*
X134002540Y-115946660D01*
X134000000Y-115954280D01*
X133997460Y-115949200D01*
X133994920Y-115933960D01*
X133982220Y-115883160D01*
X133959360Y-115829820D01*
X133928880Y-115779020D01*
X133908560Y-115756160D01*
X133852680Y-115702820D01*
X133786640Y-115662180D01*
X133715520Y-115636780D01*
X133639320Y-115626620D01*
X133563120Y-115631700D01*
X133517400Y-115641860D01*
X133443740Y-115672340D01*
X133382780Y-115715520D01*
X133329440Y-115771400D01*
X133288800Y-115837440D01*
X133260860Y-115911100D01*
X133255780Y-115949200D01*
X133250700Y-116025400D01*
X133265940Y-116099060D01*
X133291340Y-116170180D01*
X133334520Y-116233680D01*
X133387860Y-116287020D01*
X133453900Y-116332740D01*
X133484380Y-116345440D01*
X133519940Y-116358140D01*
X133550420Y-116365760D01*
X133575820Y-116370840D01*
X133578360Y-116370840D01*
X133578360Y-116373380D01*
X133560580Y-116378460D01*
X133525020Y-116388620D01*
X133474220Y-116406400D01*
X133431040Y-116426720D01*
X133408180Y-116444500D01*
X133357380Y-116487680D01*
X133314200Y-116541020D01*
X133281180Y-116596900D01*
X133260860Y-116660400D01*
X133250700Y-116726440D01*
X133253240Y-116792480D01*
X133255780Y-116805180D01*
X133276100Y-116883920D01*
X133311660Y-116952500D01*
X133362460Y-117013460D01*
X133403100Y-117051560D01*
X133471680Y-117092200D01*
X133545340Y-117115060D01*
X133573280Y-117120140D01*
X133613920Y-117122680D01*
X133657100Y-117120140D01*
X133697740Y-117117600D01*
X133728220Y-117109980D01*
X133753620Y-117102360D01*
X133824740Y-117066800D01*
X133888240Y-117018540D01*
X133939040Y-116957580D01*
X133956820Y-116927100D01*
X133979680Y-116876300D01*
X133992380Y-116825500D01*
X133994920Y-116822960D01*
X133997460Y-116805180D01*
X134000000Y-116797560D01*
X134000000Y-116797560D01*
X134000000Y-116698500D01*
X134000000Y-116698500D01*
X133997460Y-116690880D01*
X133992380Y-116670560D01*
X133992380Y-116665480D01*
X133969520Y-116599440D01*
X133933960Y-116535940D01*
X133885700Y-116480060D01*
X133829820Y-116434340D01*
X133766320Y-116401320D01*
X133761240Y-116398780D01*
X133728220Y-116388620D01*
X133697740Y-116381000D01*
X133662180Y-116373380D01*
X133695200Y-116368300D01*
X133740920Y-116355600D01*
X133806960Y-116327660D01*
X133867920Y-116284480D01*
X133921260Y-116231140D01*
X133961900Y-116170180D01*
X133974600Y-116137160D01*
X133987300Y-116099060D01*
X133994920Y-116066040D01*
X133997460Y-116053340D01*
X134000000Y-116045720D01*
X134002540Y-116050800D01*
X134005080Y-116066040D01*
X134010160Y-116093980D01*
X134022860Y-116132080D01*
X134038100Y-116170180D01*
X134063500Y-116208280D01*
X134111760Y-116266700D01*
X134170180Y-116312420D01*
X134236220Y-116347980D01*
X134304800Y-116368300D01*
X134337820Y-116373380D01*
X134304800Y-116381000D01*
X134299720Y-116381000D01*
X134266700Y-116388620D01*
X134233680Y-116401320D01*
X134228600Y-116403860D01*
X134165100Y-116436880D01*
X134109220Y-116485140D01*
X134060960Y-116541020D01*
X134027940Y-116604520D01*
X134007620Y-116670560D01*
X134005080Y-116673100D01*
X134002540Y-116690880D01*
X134000000Y-116698500D01*
X134000000Y-116797560D01*
X134000000Y-116797560D01*
X134002540Y-116807720D01*
X134007620Y-116825500D01*
X134020320Y-116876300D01*
X134050800Y-116942340D01*
X134096520Y-117000760D01*
X134152400Y-117051560D01*
X134218440Y-117089660D01*
X134218440Y-117089660D01*
X134289560Y-117115060D01*
X134365760Y-117122680D01*
X134365760Y-117122680D01*
G37*
X134365760Y-117122680D02*
X134439420Y-117117600D01*
X134510540Y-117097280D01*
X134553720Y-117079500D01*
X134617220Y-117033780D01*
X134670560Y-116977900D01*
X134711200Y-116911860D01*
X134736600Y-116840740D01*
X134741680Y-116822960D01*
X134749300Y-116764540D01*
X134746760Y-116706120D01*
X134731520Y-116640080D01*
X134701040Y-116566420D01*
X134657860Y-116502920D01*
X134601980Y-116452120D01*
X134535940Y-116411480D01*
X134459740Y-116383540D01*
X134411480Y-116370840D01*
X134436880Y-116368300D01*
X134441960Y-116368300D01*
X134495300Y-116353060D01*
X134551180Y-116327660D01*
X134604520Y-116294640D01*
X134612140Y-116287020D01*
X134665480Y-116233680D01*
X134708660Y-116170180D01*
X134734060Y-116099060D01*
X134746760Y-116027940D01*
X134746760Y-115954280D01*
X134728980Y-115880620D01*
X134695960Y-115809500D01*
X134695960Y-115806960D01*
X134647700Y-115746000D01*
X134591820Y-115695200D01*
X134528320Y-115659640D01*
X134459740Y-115636780D01*
X134388620Y-115626620D01*
X134314960Y-115631700D01*
X134243840Y-115649480D01*
X134177800Y-115682500D01*
X134114300Y-115728220D01*
X134083820Y-115763780D01*
X134045720Y-115819660D01*
X134017780Y-115878080D01*
X134005080Y-115933960D01*
X134002540Y-115946660D01*
X134000000Y-115954280D01*
X133997460Y-115949200D01*
X133994920Y-115933960D01*
X133982220Y-115883160D01*
X133959360Y-115829820D01*
X133928880Y-115779020D01*
X133908560Y-115756160D01*
X133852680Y-115702820D01*
X133786640Y-115662180D01*
X133715520Y-115636780D01*
X133639320Y-115626620D01*
X133563120Y-115631700D01*
X133517400Y-115641860D01*
X133443740Y-115672340D01*
X133382780Y-115715520D01*
X133329440Y-115771400D01*
X133288800Y-115837440D01*
X133260860Y-115911100D01*
X133255780Y-115949200D01*
X133250700Y-116025400D01*
X133265940Y-116099060D01*
X133291340Y-116170180D01*
X133334520Y-116233680D01*
X133387860Y-116287020D01*
X133453900Y-116332740D01*
X133484380Y-116345440D01*
X133519940Y-116358140D01*
X133550420Y-116365760D01*
X133575820Y-116370840D01*
X133578360Y-116370840D01*
X133578360Y-116373380D01*
X133560580Y-116378460D01*
X133525020Y-116388620D01*
X133474220Y-116406400D01*
X133431040Y-116426720D01*
X133408180Y-116444500D01*
X133357380Y-116487680D01*
X133314200Y-116541020D01*
X133281180Y-116596900D01*
X133260860Y-116660400D01*
X133250700Y-116726440D01*
X133253240Y-116792480D01*
X133255780Y-116805180D01*
X133276100Y-116883920D01*
X133311660Y-116952500D01*
X133362460Y-117013460D01*
X133403100Y-117051560D01*
X133471680Y-117092200D01*
X133545340Y-117115060D01*
X133573280Y-117120140D01*
X133613920Y-117122680D01*
X133657100Y-117120140D01*
X133697740Y-117117600D01*
X133728220Y-117109980D01*
X133753620Y-117102360D01*
X133824740Y-117066800D01*
X133888240Y-117018540D01*
X133939040Y-116957580D01*
X133956820Y-116927100D01*
X133979680Y-116876300D01*
X133992380Y-116825500D01*
X133994920Y-116822960D01*
X133997460Y-116805180D01*
X134000000Y-116797560D01*
X134000000Y-116797560D01*
X134000000Y-116698500D01*
X134000000Y-116698500D01*
X133997460Y-116690880D01*
X133992380Y-116670560D01*
X133992380Y-116665480D01*
X133969520Y-116599440D01*
X133933960Y-116535940D01*
X133885700Y-116480060D01*
X133829820Y-116434340D01*
X133766320Y-116401320D01*
X133761240Y-116398780D01*
X133728220Y-116388620D01*
X133697740Y-116381000D01*
X133662180Y-116373380D01*
X133695200Y-116368300D01*
X133740920Y-116355600D01*
X133806960Y-116327660D01*
X133867920Y-116284480D01*
X133921260Y-116231140D01*
X133961900Y-116170180D01*
X133974600Y-116137160D01*
X133987300Y-116099060D01*
X133994920Y-116066040D01*
X133997460Y-116053340D01*
X134000000Y-116045720D01*
X134002540Y-116050800D01*
X134005080Y-116066040D01*
X134010160Y-116093980D01*
X134022860Y-116132080D01*
X134038100Y-116170180D01*
X134063500Y-116208280D01*
X134111760Y-116266700D01*
X134170180Y-116312420D01*
X134236220Y-116347980D01*
X134304800Y-116368300D01*
X134337820Y-116373380D01*
X134304800Y-116381000D01*
X134299720Y-116381000D01*
X134266700Y-116388620D01*
X134233680Y-116401320D01*
X134228600Y-116403860D01*
X134165100Y-116436880D01*
X134109220Y-116485140D01*
X134060960Y-116541020D01*
X134027940Y-116604520D01*
X134007620Y-116670560D01*
X134005080Y-116673100D01*
X134002540Y-116690880D01*
X134000000Y-116698500D01*
X134000000Y-116797560D01*
X134000000Y-116797560D01*
X134002540Y-116807720D01*
X134007620Y-116825500D01*
X134020320Y-116876300D01*
X134050800Y-116942340D01*
X134096520Y-117000760D01*
X134152400Y-117051560D01*
X134218440Y-117089660D01*
X134218440Y-117089660D01*
X134289560Y-117115060D01*
X134365760Y-117122680D01*
G36*
X136595880Y-117122680D02*
X136656840Y-117122680D01*
X136712720Y-117112520D01*
X136748280Y-117102360D01*
X136819400Y-117069340D01*
X136880360Y-117023620D01*
X136931160Y-116967740D01*
X136966720Y-116901700D01*
X136989580Y-116828040D01*
X136999740Y-116749300D01*
X136997200Y-116718820D01*
X136984500Y-116640080D01*
X136954020Y-116568960D01*
X136905760Y-116500380D01*
X136893060Y-116487680D01*
X136839720Y-116441960D01*
X136778760Y-116406400D01*
X136712720Y-116383540D01*
X136710180Y-116383540D01*
X136654300Y-116375920D01*
X136593340Y-116375920D01*
X136537460Y-116383540D01*
X136517140Y-116388620D01*
X136446020Y-116419100D01*
X136382520Y-116462280D01*
X136331720Y-116513080D01*
X136291080Y-116576580D01*
X136263140Y-116642620D01*
X136250440Y-116716280D01*
X136250440Y-116792480D01*
X136268220Y-116868680D01*
X136293620Y-116924560D01*
X136336800Y-116988060D01*
X136392680Y-117043940D01*
X136456180Y-117084580D01*
X136529840Y-117112520D01*
X136537460Y-117115060D01*
X136595880Y-117122680D01*
X136595880Y-117122680D01*
G37*
X136595880Y-117122680D02*
X136656840Y-117122680D01*
X136712720Y-117112520D01*
X136748280Y-117102360D01*
X136819400Y-117069340D01*
X136880360Y-117023620D01*
X136931160Y-116967740D01*
X136966720Y-116901700D01*
X136989580Y-116828040D01*
X136999740Y-116749300D01*
X136997200Y-116718820D01*
X136984500Y-116640080D01*
X136954020Y-116568960D01*
X136905760Y-116500380D01*
X136893060Y-116487680D01*
X136839720Y-116441960D01*
X136778760Y-116406400D01*
X136712720Y-116383540D01*
X136710180Y-116383540D01*
X136654300Y-116375920D01*
X136593340Y-116375920D01*
X136537460Y-116383540D01*
X136517140Y-116388620D01*
X136446020Y-116419100D01*
X136382520Y-116462280D01*
X136331720Y-116513080D01*
X136291080Y-116576580D01*
X136263140Y-116642620D01*
X136250440Y-116716280D01*
X136250440Y-116792480D01*
X136268220Y-116868680D01*
X136293620Y-116924560D01*
X136336800Y-116988060D01*
X136392680Y-117043940D01*
X136456180Y-117084580D01*
X136529840Y-117112520D01*
X136537460Y-117115060D01*
X136595880Y-117122680D01*
G36*
X132887480Y-114877320D02*
X132961140Y-114867160D01*
X133034800Y-114841760D01*
X133067820Y-114823980D01*
X133100840Y-114801120D01*
X133136400Y-114768100D01*
X133174500Y-114727460D01*
X133215140Y-114663960D01*
X133240540Y-114590300D01*
X133245620Y-114569980D01*
X133250700Y-114521720D01*
X133250700Y-114468380D01*
X133243080Y-114422660D01*
X133222760Y-114359160D01*
X133189740Y-114293120D01*
X133144020Y-114237240D01*
X133136400Y-114229620D01*
X133100840Y-114201680D01*
X133060200Y-114173740D01*
X133022100Y-114155960D01*
X133009400Y-114150880D01*
X132978920Y-114140720D01*
X132948440Y-114133100D01*
X132925580Y-114128020D01*
X132912880Y-114128020D01*
X132928120Y-114125480D01*
X132945900Y-114120400D01*
X132968760Y-114115320D01*
X132996700Y-114107700D01*
X133052580Y-114079760D01*
X133108460Y-114046740D01*
X133151640Y-114006100D01*
X133159260Y-113995940D01*
X133204980Y-113932440D01*
X133235460Y-113861320D01*
X133250700Y-113787660D01*
X133250700Y-113711460D01*
X133248160Y-113693680D01*
X133225300Y-113617480D01*
X133192280Y-113548900D01*
X133138940Y-113485400D01*
X133093220Y-113447300D01*
X133029720Y-113409200D01*
X132956060Y-113383800D01*
X132940820Y-113381260D01*
X132892560Y-113376180D01*
X132839220Y-113378720D01*
X132790960Y-113386340D01*
X132747780Y-113399040D01*
X132679200Y-113432060D01*
X132618240Y-113477780D01*
X132569980Y-113536200D01*
X132531880Y-113599700D01*
X132509020Y-113673360D01*
X132506480Y-113680980D01*
X132501400Y-113698760D01*
X132498860Y-113706380D01*
X132496320Y-113696220D01*
X132496320Y-113680980D01*
X132488700Y-113650500D01*
X132476000Y-113617480D01*
X132463300Y-113587000D01*
X132450600Y-113564140D01*
X132404880Y-113500640D01*
X132349000Y-113447300D01*
X132282960Y-113409200D01*
X132209300Y-113386340D01*
X132128020Y-113376180D01*
X132067060Y-113381260D01*
X131995940Y-113399040D01*
X131929900Y-113432060D01*
X131891800Y-113457460D01*
X131835920Y-113513340D01*
X131795280Y-113576840D01*
X131764800Y-113645420D01*
X131752100Y-113719080D01*
X131752100Y-113795280D01*
X131769880Y-113863860D01*
X131800360Y-113937520D01*
X131846080Y-113998480D01*
X131901960Y-114051820D01*
X131970540Y-114092460D01*
X132046740Y-114117860D01*
X132089920Y-114128020D01*
X132064520Y-114130560D01*
X132049280Y-114133100D01*
X131988320Y-114150880D01*
X131929900Y-114181360D01*
X131874020Y-114222000D01*
X131830840Y-114267720D01*
X131805440Y-114308360D01*
X131780040Y-114359160D01*
X131762260Y-114409960D01*
X131754640Y-114448060D01*
X131752100Y-114496320D01*
X131752100Y-114544580D01*
X131759720Y-114582680D01*
X131772420Y-114628400D01*
X131807980Y-114699520D01*
X131856240Y-114760480D01*
X131914660Y-114811280D01*
X131983240Y-114849380D01*
X132061980Y-114872240D01*
X132082300Y-114874780D01*
X132128020Y-114874780D01*
X132176280Y-114872240D01*
X132219460Y-114864620D01*
X132249940Y-114854460D01*
X132321060Y-114821440D01*
X132382020Y-114775720D01*
X132432820Y-114717300D01*
X132470920Y-114651260D01*
X132493780Y-114575060D01*
X132496320Y-114569980D01*
X132498860Y-114552200D01*
X132501400Y-114554740D01*
X132501400Y-114450600D01*
X132498860Y-114448060D01*
X132496320Y-114432820D01*
X132493780Y-114427740D01*
X132481080Y-114379480D01*
X132458220Y-114326140D01*
X132427740Y-114277880D01*
X132404880Y-114249940D01*
X132346460Y-114196600D01*
X132277880Y-114158500D01*
X132201680Y-114133100D01*
X132166120Y-114125480D01*
X132191520Y-114120400D01*
X132214380Y-114115320D01*
X132237240Y-114110240D01*
X132252480Y-114105160D01*
X132321060Y-114072140D01*
X132382020Y-114023880D01*
X132432820Y-113968000D01*
X132468380Y-113901960D01*
X132493780Y-113830840D01*
X132496320Y-113813060D01*
X132501400Y-113802900D01*
X132503940Y-113807980D01*
X132509020Y-113830840D01*
X132509020Y-113833380D01*
X132521720Y-113874020D01*
X132539500Y-113917200D01*
X132562360Y-113957840D01*
X132582680Y-113983240D01*
X132615700Y-114018800D01*
X132653800Y-114051820D01*
X132689360Y-114077220D01*
X132691900Y-114077220D01*
X132750320Y-114102620D01*
X132811280Y-114120400D01*
X132836680Y-114125480D01*
X132806200Y-114133100D01*
X132740160Y-114150880D01*
X132674120Y-114186440D01*
X132613160Y-114232160D01*
X132564900Y-114288040D01*
X132554740Y-114308360D01*
X132536960Y-114343920D01*
X132519180Y-114382020D01*
X132509020Y-114417580D01*
X132506480Y-114442980D01*
X132506480Y-114442980D01*
X132501400Y-114450600D01*
X132501400Y-114554740D01*
X132503940Y-114554740D01*
X132506480Y-114572520D01*
X132511560Y-114592840D01*
X132519180Y-114615700D01*
X132534420Y-114653800D01*
X132572520Y-114719840D01*
X132620780Y-114775720D01*
X132679200Y-114818900D01*
X132745240Y-114851920D01*
X132813820Y-114872240D01*
X132887480Y-114877320D01*
X132887480Y-114877320D01*
G37*
X132887480Y-114877320D02*
X132961140Y-114867160D01*
X133034800Y-114841760D01*
X133067820Y-114823980D01*
X133100840Y-114801120D01*
X133136400Y-114768100D01*
X133174500Y-114727460D01*
X133215140Y-114663960D01*
X133240540Y-114590300D01*
X133245620Y-114569980D01*
X133250700Y-114521720D01*
X133250700Y-114468380D01*
X133243080Y-114422660D01*
X133222760Y-114359160D01*
X133189740Y-114293120D01*
X133144020Y-114237240D01*
X133136400Y-114229620D01*
X133100840Y-114201680D01*
X133060200Y-114173740D01*
X133022100Y-114155960D01*
X133009400Y-114150880D01*
X132978920Y-114140720D01*
X132948440Y-114133100D01*
X132925580Y-114128020D01*
X132912880Y-114128020D01*
X132928120Y-114125480D01*
X132945900Y-114120400D01*
X132968760Y-114115320D01*
X132996700Y-114107700D01*
X133052580Y-114079760D01*
X133108460Y-114046740D01*
X133151640Y-114006100D01*
X133159260Y-113995940D01*
X133204980Y-113932440D01*
X133235460Y-113861320D01*
X133250700Y-113787660D01*
X133250700Y-113711460D01*
X133248160Y-113693680D01*
X133225300Y-113617480D01*
X133192280Y-113548900D01*
X133138940Y-113485400D01*
X133093220Y-113447300D01*
X133029720Y-113409200D01*
X132956060Y-113383800D01*
X132940820Y-113381260D01*
X132892560Y-113376180D01*
X132839220Y-113378720D01*
X132790960Y-113386340D01*
X132747780Y-113399040D01*
X132679200Y-113432060D01*
X132618240Y-113477780D01*
X132569980Y-113536200D01*
X132531880Y-113599700D01*
X132509020Y-113673360D01*
X132506480Y-113680980D01*
X132501400Y-113698760D01*
X132498860Y-113706380D01*
X132496320Y-113696220D01*
X132496320Y-113680980D01*
X132488700Y-113650500D01*
X132476000Y-113617480D01*
X132463300Y-113587000D01*
X132450600Y-113564140D01*
X132404880Y-113500640D01*
X132349000Y-113447300D01*
X132282960Y-113409200D01*
X132209300Y-113386340D01*
X132128020Y-113376180D01*
X132067060Y-113381260D01*
X131995940Y-113399040D01*
X131929900Y-113432060D01*
X131891800Y-113457460D01*
X131835920Y-113513340D01*
X131795280Y-113576840D01*
X131764800Y-113645420D01*
X131752100Y-113719080D01*
X131752100Y-113795280D01*
X131769880Y-113863860D01*
X131800360Y-113937520D01*
X131846080Y-113998480D01*
X131901960Y-114051820D01*
X131970540Y-114092460D01*
X132046740Y-114117860D01*
X132089920Y-114128020D01*
X132064520Y-114130560D01*
X132049280Y-114133100D01*
X131988320Y-114150880D01*
X131929900Y-114181360D01*
X131874020Y-114222000D01*
X131830840Y-114267720D01*
X131805440Y-114308360D01*
X131780040Y-114359160D01*
X131762260Y-114409960D01*
X131754640Y-114448060D01*
X131752100Y-114496320D01*
X131752100Y-114544580D01*
X131759720Y-114582680D01*
X131772420Y-114628400D01*
X131807980Y-114699520D01*
X131856240Y-114760480D01*
X131914660Y-114811280D01*
X131983240Y-114849380D01*
X132061980Y-114872240D01*
X132082300Y-114874780D01*
X132128020Y-114874780D01*
X132176280Y-114872240D01*
X132219460Y-114864620D01*
X132249940Y-114854460D01*
X132321060Y-114821440D01*
X132382020Y-114775720D01*
X132432820Y-114717300D01*
X132470920Y-114651260D01*
X132493780Y-114575060D01*
X132496320Y-114569980D01*
X132498860Y-114552200D01*
X132501400Y-114554740D01*
X132501400Y-114450600D01*
X132498860Y-114448060D01*
X132496320Y-114432820D01*
X132493780Y-114427740D01*
X132481080Y-114379480D01*
X132458220Y-114326140D01*
X132427740Y-114277880D01*
X132404880Y-114249940D01*
X132346460Y-114196600D01*
X132277880Y-114158500D01*
X132201680Y-114133100D01*
X132166120Y-114125480D01*
X132191520Y-114120400D01*
X132214380Y-114115320D01*
X132237240Y-114110240D01*
X132252480Y-114105160D01*
X132321060Y-114072140D01*
X132382020Y-114023880D01*
X132432820Y-113968000D01*
X132468380Y-113901960D01*
X132493780Y-113830840D01*
X132496320Y-113813060D01*
X132501400Y-113802900D01*
X132503940Y-113807980D01*
X132509020Y-113830840D01*
X132509020Y-113833380D01*
X132521720Y-113874020D01*
X132539500Y-113917200D01*
X132562360Y-113957840D01*
X132582680Y-113983240D01*
X132615700Y-114018800D01*
X132653800Y-114051820D01*
X132689360Y-114077220D01*
X132691900Y-114077220D01*
X132750320Y-114102620D01*
X132811280Y-114120400D01*
X132836680Y-114125480D01*
X132806200Y-114133100D01*
X132740160Y-114150880D01*
X132674120Y-114186440D01*
X132613160Y-114232160D01*
X132564900Y-114288040D01*
X132554740Y-114308360D01*
X132536960Y-114343920D01*
X132519180Y-114382020D01*
X132509020Y-114417580D01*
X132506480Y-114442980D01*
X132506480Y-114442980D01*
X132501400Y-114450600D01*
X132501400Y-114554740D01*
X132503940Y-114554740D01*
X132506480Y-114572520D01*
X132511560Y-114592840D01*
X132519180Y-114615700D01*
X132534420Y-114653800D01*
X132572520Y-114719840D01*
X132620780Y-114775720D01*
X132679200Y-114818900D01*
X132745240Y-114851920D01*
X132813820Y-114872240D01*
X132887480Y-114877320D01*
G36*
X135143000Y-114877320D02*
X135216660Y-114864620D01*
X135287780Y-114839220D01*
X135351280Y-114798580D01*
X135404620Y-114747780D01*
X135450340Y-114686820D01*
X135480820Y-114615700D01*
X135488440Y-114592840D01*
X135493520Y-114572520D01*
X135493520Y-114567440D01*
X135498600Y-114552200D01*
X135498600Y-114552200D01*
X135498600Y-114448060D01*
X135493520Y-114437900D01*
X135488440Y-114412500D01*
X135475740Y-114369320D01*
X135442720Y-114300740D01*
X135397000Y-114242320D01*
X135338580Y-114194060D01*
X135272540Y-114155960D01*
X135198880Y-114133100D01*
X135163320Y-114125480D01*
X135188720Y-114120400D01*
X135191260Y-114120400D01*
X135252220Y-114102620D01*
X135310640Y-114077220D01*
X135333500Y-114061980D01*
X135371600Y-114028960D01*
X135409700Y-113993400D01*
X135437640Y-113957840D01*
X135455420Y-113924820D01*
X135478280Y-113876560D01*
X135490980Y-113833380D01*
X135493520Y-113813060D01*
X135498600Y-113802900D01*
X135501140Y-113807980D01*
X135506220Y-113830840D01*
X135521460Y-113879100D01*
X135554480Y-113950220D01*
X135605280Y-114011180D01*
X135661160Y-114059440D01*
X135729740Y-114097540D01*
X135808480Y-114120400D01*
X135833880Y-114125480D01*
X135798320Y-114133100D01*
X135762760Y-114143260D01*
X135691640Y-114173740D01*
X135628140Y-114219460D01*
X135574800Y-114277880D01*
X135557020Y-114298200D01*
X135539240Y-114333760D01*
X135521460Y-114371860D01*
X135511300Y-114399800D01*
X135506220Y-114427740D01*
X135506220Y-114430280D01*
X135501140Y-114445520D01*
X135498600Y-114448060D01*
X135498600Y-114552200D01*
X135501140Y-114554740D01*
X135506220Y-114575060D01*
X135511300Y-114600460D01*
X135534160Y-114656340D01*
X135562100Y-114709680D01*
X135584960Y-114737620D01*
X135640840Y-114793500D01*
X135706880Y-114836680D01*
X135783080Y-114864620D01*
X135816100Y-114872240D01*
X135866900Y-114874780D01*
X135920240Y-114872240D01*
X135965960Y-114864620D01*
X135971040Y-114864620D01*
X136047240Y-114834140D01*
X136113280Y-114790960D01*
X136166620Y-114735080D01*
X136209800Y-114669040D01*
X136237740Y-114592840D01*
X136245360Y-114559820D01*
X136247900Y-114506480D01*
X136245360Y-114455680D01*
X136237740Y-114409960D01*
X136225040Y-114369320D01*
X136199640Y-114315980D01*
X136169160Y-114267720D01*
X136133600Y-114232160D01*
X136087880Y-114194060D01*
X136039620Y-114163580D01*
X136021840Y-114155960D01*
X135986280Y-114143260D01*
X135950720Y-114133100D01*
X135925320Y-114128020D01*
X135922780Y-114128020D01*
X135930400Y-114125480D01*
X135953260Y-114117860D01*
X135996440Y-114105160D01*
X136044700Y-114084840D01*
X136085340Y-114061980D01*
X136095500Y-114054360D01*
X136143760Y-114011180D01*
X136186940Y-113957840D01*
X136217420Y-113901960D01*
X136230120Y-113874020D01*
X136245360Y-113800360D01*
X136247900Y-113721620D01*
X136235200Y-113647960D01*
X136230120Y-113630180D01*
X136197100Y-113561600D01*
X136151380Y-113500640D01*
X136095500Y-113447300D01*
X136029460Y-113409200D01*
X135953260Y-113383800D01*
X135943100Y-113381260D01*
X135892300Y-113376180D01*
X135836420Y-113378720D01*
X135788160Y-113386340D01*
X135775460Y-113388880D01*
X135701800Y-113416820D01*
X135635760Y-113460000D01*
X135579880Y-113518420D01*
X135536700Y-113587000D01*
X135526540Y-113607320D01*
X135516380Y-113640340D01*
X135506220Y-113673360D01*
X135503680Y-113696220D01*
X135503680Y-113701300D01*
X135501140Y-113703840D01*
X135496060Y-113693680D01*
X135490980Y-113673360D01*
X135478280Y-113622560D01*
X135445260Y-113556520D01*
X135399540Y-113498100D01*
X135343660Y-113447300D01*
X135277620Y-113409200D01*
X135277620Y-113409200D01*
X135209040Y-113386340D01*
X135132840Y-113376180D01*
X135056640Y-113381260D01*
X134985520Y-113401580D01*
X134944880Y-113421900D01*
X134881380Y-113465080D01*
X134828040Y-113520960D01*
X134787400Y-113587000D01*
X134759460Y-113660660D01*
X134756920Y-113675900D01*
X134746760Y-113736860D01*
X134751840Y-113795280D01*
X134767080Y-113863860D01*
X134797560Y-113934980D01*
X134843280Y-113998480D01*
X134899160Y-114051820D01*
X134967740Y-114092460D01*
X135043940Y-114117860D01*
X135059180Y-114122940D01*
X135074420Y-114128020D01*
X135074420Y-114128020D01*
X135051560Y-114130560D01*
X135008380Y-114143260D01*
X134962660Y-114163580D01*
X134916940Y-114188980D01*
X134876300Y-114219460D01*
X134822960Y-114277880D01*
X134782320Y-114346460D01*
X134777240Y-114356620D01*
X134754380Y-114430280D01*
X134749300Y-114506480D01*
X134756920Y-114585220D01*
X134782320Y-114656340D01*
X134800100Y-114691900D01*
X134822960Y-114724920D01*
X134855980Y-114760480D01*
X134855980Y-114763020D01*
X134916940Y-114813820D01*
X134985520Y-114849380D01*
X135059180Y-114869700D01*
X135066800Y-114872240D01*
X135143000Y-114877320D01*
X135143000Y-114877320D01*
G37*
X135143000Y-114877320D02*
X135216660Y-114864620D01*
X135287780Y-114839220D01*
X135351280Y-114798580D01*
X135404620Y-114747780D01*
X135450340Y-114686820D01*
X135480820Y-114615700D01*
X135488440Y-114592840D01*
X135493520Y-114572520D01*
X135493520Y-114567440D01*
X135498600Y-114552200D01*
X135498600Y-114552200D01*
X135498600Y-114448060D01*
X135493520Y-114437900D01*
X135488440Y-114412500D01*
X135475740Y-114369320D01*
X135442720Y-114300740D01*
X135397000Y-114242320D01*
X135338580Y-114194060D01*
X135272540Y-114155960D01*
X135198880Y-114133100D01*
X135163320Y-114125480D01*
X135188720Y-114120400D01*
X135191260Y-114120400D01*
X135252220Y-114102620D01*
X135310640Y-114077220D01*
X135333500Y-114061980D01*
X135371600Y-114028960D01*
X135409700Y-113993400D01*
X135437640Y-113957840D01*
X135455420Y-113924820D01*
X135478280Y-113876560D01*
X135490980Y-113833380D01*
X135493520Y-113813060D01*
X135498600Y-113802900D01*
X135501140Y-113807980D01*
X135506220Y-113830840D01*
X135521460Y-113879100D01*
X135554480Y-113950220D01*
X135605280Y-114011180D01*
X135661160Y-114059440D01*
X135729740Y-114097540D01*
X135808480Y-114120400D01*
X135833880Y-114125480D01*
X135798320Y-114133100D01*
X135762760Y-114143260D01*
X135691640Y-114173740D01*
X135628140Y-114219460D01*
X135574800Y-114277880D01*
X135557020Y-114298200D01*
X135539240Y-114333760D01*
X135521460Y-114371860D01*
X135511300Y-114399800D01*
X135506220Y-114427740D01*
X135506220Y-114430280D01*
X135501140Y-114445520D01*
X135498600Y-114448060D01*
X135498600Y-114552200D01*
X135501140Y-114554740D01*
X135506220Y-114575060D01*
X135511300Y-114600460D01*
X135534160Y-114656340D01*
X135562100Y-114709680D01*
X135584960Y-114737620D01*
X135640840Y-114793500D01*
X135706880Y-114836680D01*
X135783080Y-114864620D01*
X135816100Y-114872240D01*
X135866900Y-114874780D01*
X135920240Y-114872240D01*
X135965960Y-114864620D01*
X135971040Y-114864620D01*
X136047240Y-114834140D01*
X136113280Y-114790960D01*
X136166620Y-114735080D01*
X136209800Y-114669040D01*
X136237740Y-114592840D01*
X136245360Y-114559820D01*
X136247900Y-114506480D01*
X136245360Y-114455680D01*
X136237740Y-114409960D01*
X136225040Y-114369320D01*
X136199640Y-114315980D01*
X136169160Y-114267720D01*
X136133600Y-114232160D01*
X136087880Y-114194060D01*
X136039620Y-114163580D01*
X136021840Y-114155960D01*
X135986280Y-114143260D01*
X135950720Y-114133100D01*
X135925320Y-114128020D01*
X135922780Y-114128020D01*
X135930400Y-114125480D01*
X135953260Y-114117860D01*
X135996440Y-114105160D01*
X136044700Y-114084840D01*
X136085340Y-114061980D01*
X136095500Y-114054360D01*
X136143760Y-114011180D01*
X136186940Y-113957840D01*
X136217420Y-113901960D01*
X136230120Y-113874020D01*
X136245360Y-113800360D01*
X136247900Y-113721620D01*
X136235200Y-113647960D01*
X136230120Y-113630180D01*
X136197100Y-113561600D01*
X136151380Y-113500640D01*
X136095500Y-113447300D01*
X136029460Y-113409200D01*
X135953260Y-113383800D01*
X135943100Y-113381260D01*
X135892300Y-113376180D01*
X135836420Y-113378720D01*
X135788160Y-113386340D01*
X135775460Y-113388880D01*
X135701800Y-113416820D01*
X135635760Y-113460000D01*
X135579880Y-113518420D01*
X135536700Y-113587000D01*
X135526540Y-113607320D01*
X135516380Y-113640340D01*
X135506220Y-113673360D01*
X135503680Y-113696220D01*
X135503680Y-113701300D01*
X135501140Y-113703840D01*
X135496060Y-113693680D01*
X135490980Y-113673360D01*
X135478280Y-113622560D01*
X135445260Y-113556520D01*
X135399540Y-113498100D01*
X135343660Y-113447300D01*
X135277620Y-113409200D01*
X135277620Y-113409200D01*
X135209040Y-113386340D01*
X135132840Y-113376180D01*
X135056640Y-113381260D01*
X134985520Y-113401580D01*
X134944880Y-113421900D01*
X134881380Y-113465080D01*
X134828040Y-113520960D01*
X134787400Y-113587000D01*
X134759460Y-113660660D01*
X134756920Y-113675900D01*
X134746760Y-113736860D01*
X134751840Y-113795280D01*
X134767080Y-113863860D01*
X134797560Y-113934980D01*
X134843280Y-113998480D01*
X134899160Y-114051820D01*
X134967740Y-114092460D01*
X135043940Y-114117860D01*
X135059180Y-114122940D01*
X135074420Y-114128020D01*
X135074420Y-114128020D01*
X135051560Y-114130560D01*
X135008380Y-114143260D01*
X134962660Y-114163580D01*
X134916940Y-114188980D01*
X134876300Y-114219460D01*
X134822960Y-114277880D01*
X134782320Y-114346460D01*
X134777240Y-114356620D01*
X134754380Y-114430280D01*
X134749300Y-114506480D01*
X134756920Y-114585220D01*
X134782320Y-114656340D01*
X134800100Y-114691900D01*
X134822960Y-114724920D01*
X134855980Y-114760480D01*
X134855980Y-114763020D01*
X134916940Y-114813820D01*
X134985520Y-114849380D01*
X135059180Y-114869700D01*
X135066800Y-114872240D01*
X135143000Y-114877320D01*
G36*
X164181360Y-118694940D02*
X164214380Y-118677160D01*
X164282960Y-118633980D01*
X164384560Y-118567940D01*
X164501400Y-118489200D01*
X164620780Y-118407920D01*
X164719840Y-118341880D01*
X164788420Y-118298700D01*
X164816360Y-118283460D01*
X164831600Y-118288540D01*
X164887480Y-118316480D01*
X164968760Y-118359660D01*
X165017020Y-118382520D01*
X165093220Y-118415540D01*
X165128780Y-118423160D01*
X165136400Y-118413000D01*
X165164340Y-118354580D01*
X165207520Y-118255520D01*
X165263400Y-118125980D01*
X165329440Y-117973580D01*
X165398020Y-117808480D01*
X165466600Y-117640840D01*
X165532640Y-117483360D01*
X165593600Y-117338580D01*
X165639320Y-117221740D01*
X165669800Y-117140460D01*
X165682500Y-117104900D01*
X165677420Y-117097280D01*
X165641860Y-117061720D01*
X165575820Y-117013460D01*
X165433580Y-116896620D01*
X165293880Y-116721360D01*
X165207520Y-116523240D01*
X165179580Y-116302260D01*
X165202440Y-116099060D01*
X165283720Y-115903480D01*
X165420880Y-115725680D01*
X165588520Y-115593600D01*
X165781560Y-115512320D01*
X166000000Y-115484380D01*
X166208280Y-115507240D01*
X166408940Y-115585980D01*
X166586740Y-115720600D01*
X166660400Y-115806960D01*
X166764540Y-115987300D01*
X166822960Y-116177800D01*
X166828040Y-116226060D01*
X166820420Y-116436880D01*
X166756920Y-116640080D01*
X166647700Y-116820420D01*
X166492760Y-116967740D01*
X166472440Y-116982980D01*
X166401320Y-117036320D01*
X166353060Y-117071880D01*
X166314960Y-117102360D01*
X166584200Y-117750060D01*
X166627380Y-117851660D01*
X166701040Y-118026920D01*
X166764540Y-118179320D01*
X166817880Y-118301240D01*
X166853440Y-118382520D01*
X166868680Y-118415540D01*
X166871220Y-118415540D01*
X166894080Y-118420620D01*
X166942340Y-118402840D01*
X167033780Y-118359660D01*
X167092200Y-118329180D01*
X167160780Y-118296160D01*
X167191260Y-118283460D01*
X167219200Y-118296160D01*
X167285240Y-118339340D01*
X167379220Y-118405380D01*
X167496060Y-118481580D01*
X167605280Y-118557780D01*
X167706880Y-118623820D01*
X167780540Y-118672080D01*
X167816100Y-118689860D01*
X167821180Y-118689860D01*
X167854200Y-118672080D01*
X167912620Y-118623820D01*
X167998980Y-118540000D01*
X168123440Y-118418080D01*
X168143760Y-118400300D01*
X168245360Y-118296160D01*
X168329180Y-118207260D01*
X168385060Y-118146300D01*
X168405380Y-118118360D01*
X168405380Y-118118360D01*
X168385060Y-118082800D01*
X168339340Y-118009140D01*
X168273300Y-117907540D01*
X168192020Y-117785620D01*
X167976120Y-117475740D01*
X168095500Y-117183640D01*
X168131060Y-117092200D01*
X168176780Y-116982980D01*
X168209800Y-116906780D01*
X168227580Y-116871220D01*
X168260600Y-116861060D01*
X168339340Y-116840740D01*
X168456180Y-116817880D01*
X168595880Y-116792480D01*
X168727960Y-116767080D01*
X168847340Y-116744220D01*
X168933700Y-116728980D01*
X168971800Y-116721360D01*
X168981960Y-116713740D01*
X168989580Y-116695960D01*
X168994660Y-116655320D01*
X168997200Y-116581660D01*
X168999740Y-116467360D01*
X168999740Y-116302260D01*
X168999740Y-116284480D01*
X168997200Y-116127000D01*
X168994660Y-116002540D01*
X168989580Y-115921260D01*
X168984500Y-115888240D01*
X168984500Y-115888240D01*
X168946400Y-115878080D01*
X168862580Y-115860300D01*
X168743200Y-115837440D01*
X168600960Y-115809500D01*
X168590800Y-115809500D01*
X168448560Y-115781560D01*
X168331720Y-115756160D01*
X168247900Y-115738380D01*
X168212340Y-115725680D01*
X168204720Y-115715520D01*
X168176780Y-115659640D01*
X168136140Y-115573280D01*
X168087880Y-115466600D01*
X168042160Y-115354840D01*
X168001520Y-115253240D01*
X167976120Y-115179580D01*
X167968500Y-115144020D01*
X167968500Y-115144020D01*
X167988820Y-115111000D01*
X168037080Y-115037340D01*
X168108200Y-114935740D01*
X168189480Y-114813820D01*
X168197100Y-114803660D01*
X168278380Y-114684280D01*
X168344420Y-114582680D01*
X168387600Y-114511560D01*
X168405380Y-114478540D01*
X168405380Y-114476000D01*
X168377440Y-114440440D01*
X168316480Y-114371860D01*
X168227580Y-114280420D01*
X168123440Y-114176280D01*
X168090420Y-114143260D01*
X167973580Y-114028960D01*
X167892300Y-113955300D01*
X167841500Y-113914660D01*
X167818640Y-113904500D01*
X167816100Y-113907040D01*
X167780540Y-113927360D01*
X167704340Y-113978160D01*
X167602740Y-114046740D01*
X167480820Y-114130560D01*
X167473200Y-114135640D01*
X167351280Y-114216920D01*
X167252220Y-114285500D01*
X167181100Y-114331220D01*
X167150620Y-114349000D01*
X167145540Y-114349000D01*
X167097280Y-114336300D01*
X167010920Y-114305820D01*
X166906780Y-114265180D01*
X166795020Y-114222000D01*
X166693420Y-114178820D01*
X166619760Y-114143260D01*
X166584200Y-114122940D01*
X166581660Y-114122940D01*
X166568960Y-114079760D01*
X166548640Y-113988320D01*
X166523240Y-113866400D01*
X166495300Y-113719080D01*
X166490220Y-113696220D01*
X166464820Y-113551440D01*
X166441960Y-113434600D01*
X166424180Y-113353320D01*
X166416560Y-113317760D01*
X166396240Y-113315220D01*
X166325120Y-113310140D01*
X166218440Y-113305060D01*
X166088900Y-113305060D01*
X165954280Y-113305060D01*
X165822200Y-113307600D01*
X165710440Y-113312680D01*
X165629160Y-113317760D01*
X165593600Y-113325380D01*
X165593600Y-113327920D01*
X165580900Y-113371100D01*
X165560580Y-113460000D01*
X165535180Y-113584460D01*
X165507240Y-113731780D01*
X165502160Y-113759720D01*
X165476760Y-113901960D01*
X165451360Y-114018800D01*
X165433580Y-114097540D01*
X165425960Y-114130560D01*
X165413260Y-114135640D01*
X165354840Y-114163580D01*
X165258320Y-114201680D01*
X165138940Y-114249940D01*
X164864620Y-114361700D01*
X164529340Y-114130560D01*
X164498860Y-114110240D01*
X164376940Y-114026420D01*
X164277880Y-113960380D01*
X164206760Y-113917200D01*
X164178820Y-113899420D01*
X164176280Y-113901960D01*
X164143260Y-113929900D01*
X164077220Y-113993400D01*
X163985780Y-114082300D01*
X163879100Y-114186440D01*
X163800360Y-114265180D01*
X163708920Y-114359160D01*
X163650500Y-114422660D01*
X163617480Y-114463300D01*
X163604780Y-114488700D01*
X163609860Y-114506480D01*
X163630180Y-114539500D01*
X163680980Y-114613160D01*
X163749560Y-114717300D01*
X163830840Y-114834140D01*
X163899420Y-114935740D01*
X163973080Y-115047500D01*
X164018800Y-115128780D01*
X164036580Y-115166880D01*
X164031500Y-115184660D01*
X164008640Y-115250700D01*
X163968000Y-115349760D01*
X163917200Y-115469140D01*
X163800360Y-115735840D01*
X163625100Y-115768860D01*
X163520960Y-115789180D01*
X163371100Y-115817120D01*
X163228860Y-115845060D01*
X163007880Y-115888240D01*
X163000260Y-116698500D01*
X163035820Y-116713740D01*
X163068840Y-116723900D01*
X163150120Y-116741680D01*
X163266960Y-116764540D01*
X163404120Y-116789940D01*
X163523500Y-116812800D01*
X163640340Y-116835660D01*
X163726700Y-116850900D01*
X163764800Y-116858520D01*
X163772420Y-116871220D01*
X163802900Y-116929640D01*
X163846080Y-117021080D01*
X163891800Y-117130300D01*
X163940060Y-117244600D01*
X163980700Y-117348740D01*
X164011180Y-117430020D01*
X164021340Y-117470660D01*
X164006100Y-117501140D01*
X163960380Y-117572260D01*
X163894340Y-117671320D01*
X163815600Y-117788160D01*
X163734320Y-117907540D01*
X163665740Y-118006600D01*
X163617480Y-118080260D01*
X163599700Y-118113280D01*
X163609860Y-118136140D01*
X163655580Y-118192020D01*
X163744480Y-118283460D01*
X163876560Y-118415540D01*
X163899420Y-118435860D01*
X164003560Y-118537460D01*
X164092460Y-118618740D01*
X164153420Y-118674620D01*
X164181360Y-118694940D01*
X164181360Y-118694940D01*
G37*
X164181360Y-118694940D02*
X164214380Y-118677160D01*
X164282960Y-118633980D01*
X164384560Y-118567940D01*
X164501400Y-118489200D01*
X164620780Y-118407920D01*
X164719840Y-118341880D01*
X164788420Y-118298700D01*
X164816360Y-118283460D01*
X164831600Y-118288540D01*
X164887480Y-118316480D01*
X164968760Y-118359660D01*
X165017020Y-118382520D01*
X165093220Y-118415540D01*
X165128780Y-118423160D01*
X165136400Y-118413000D01*
X165164340Y-118354580D01*
X165207520Y-118255520D01*
X165263400Y-118125980D01*
X165329440Y-117973580D01*
X165398020Y-117808480D01*
X165466600Y-117640840D01*
X165532640Y-117483360D01*
X165593600Y-117338580D01*
X165639320Y-117221740D01*
X165669800Y-117140460D01*
X165682500Y-117104900D01*
X165677420Y-117097280D01*
X165641860Y-117061720D01*
X165575820Y-117013460D01*
X165433580Y-116896620D01*
X165293880Y-116721360D01*
X165207520Y-116523240D01*
X165179580Y-116302260D01*
X165202440Y-116099060D01*
X165283720Y-115903480D01*
X165420880Y-115725680D01*
X165588520Y-115593600D01*
X165781560Y-115512320D01*
X166000000Y-115484380D01*
X166208280Y-115507240D01*
X166408940Y-115585980D01*
X166586740Y-115720600D01*
X166660400Y-115806960D01*
X166764540Y-115987300D01*
X166822960Y-116177800D01*
X166828040Y-116226060D01*
X166820420Y-116436880D01*
X166756920Y-116640080D01*
X166647700Y-116820420D01*
X166492760Y-116967740D01*
X166472440Y-116982980D01*
X166401320Y-117036320D01*
X166353060Y-117071880D01*
X166314960Y-117102360D01*
X166584200Y-117750060D01*
X166627380Y-117851660D01*
X166701040Y-118026920D01*
X166764540Y-118179320D01*
X166817880Y-118301240D01*
X166853440Y-118382520D01*
X166868680Y-118415540D01*
X166871220Y-118415540D01*
X166894080Y-118420620D01*
X166942340Y-118402840D01*
X167033780Y-118359660D01*
X167092200Y-118329180D01*
X167160780Y-118296160D01*
X167191260Y-118283460D01*
X167219200Y-118296160D01*
X167285240Y-118339340D01*
X167379220Y-118405380D01*
X167496060Y-118481580D01*
X167605280Y-118557780D01*
X167706880Y-118623820D01*
X167780540Y-118672080D01*
X167816100Y-118689860D01*
X167821180Y-118689860D01*
X167854200Y-118672080D01*
X167912620Y-118623820D01*
X167998980Y-118540000D01*
X168123440Y-118418080D01*
X168143760Y-118400300D01*
X168245360Y-118296160D01*
X168329180Y-118207260D01*
X168385060Y-118146300D01*
X168405380Y-118118360D01*
X168405380Y-118118360D01*
X168385060Y-118082800D01*
X168339340Y-118009140D01*
X168273300Y-117907540D01*
X168192020Y-117785620D01*
X167976120Y-117475740D01*
X168095500Y-117183640D01*
X168131060Y-117092200D01*
X168176780Y-116982980D01*
X168209800Y-116906780D01*
X168227580Y-116871220D01*
X168260600Y-116861060D01*
X168339340Y-116840740D01*
X168456180Y-116817880D01*
X168595880Y-116792480D01*
X168727960Y-116767080D01*
X168847340Y-116744220D01*
X168933700Y-116728980D01*
X168971800Y-116721360D01*
X168981960Y-116713740D01*
X168989580Y-116695960D01*
X168994660Y-116655320D01*
X168997200Y-116581660D01*
X168999740Y-116467360D01*
X168999740Y-116302260D01*
X168999740Y-116284480D01*
X168997200Y-116127000D01*
X168994660Y-116002540D01*
X168989580Y-115921260D01*
X168984500Y-115888240D01*
X168984500Y-115888240D01*
X168946400Y-115878080D01*
X168862580Y-115860300D01*
X168743200Y-115837440D01*
X168600960Y-115809500D01*
X168590800Y-115809500D01*
X168448560Y-115781560D01*
X168331720Y-115756160D01*
X168247900Y-115738380D01*
X168212340Y-115725680D01*
X168204720Y-115715520D01*
X168176780Y-115659640D01*
X168136140Y-115573280D01*
X168087880Y-115466600D01*
X168042160Y-115354840D01*
X168001520Y-115253240D01*
X167976120Y-115179580D01*
X167968500Y-115144020D01*
X167968500Y-115144020D01*
X167988820Y-115111000D01*
X168037080Y-115037340D01*
X168108200Y-114935740D01*
X168189480Y-114813820D01*
X168197100Y-114803660D01*
X168278380Y-114684280D01*
X168344420Y-114582680D01*
X168387600Y-114511560D01*
X168405380Y-114478540D01*
X168405380Y-114476000D01*
X168377440Y-114440440D01*
X168316480Y-114371860D01*
X168227580Y-114280420D01*
X168123440Y-114176280D01*
X168090420Y-114143260D01*
X167973580Y-114028960D01*
X167892300Y-113955300D01*
X167841500Y-113914660D01*
X167818640Y-113904500D01*
X167816100Y-113907040D01*
X167780540Y-113927360D01*
X167704340Y-113978160D01*
X167602740Y-114046740D01*
X167480820Y-114130560D01*
X167473200Y-114135640D01*
X167351280Y-114216920D01*
X167252220Y-114285500D01*
X167181100Y-114331220D01*
X167150620Y-114349000D01*
X167145540Y-114349000D01*
X167097280Y-114336300D01*
X167010920Y-114305820D01*
X166906780Y-114265180D01*
X166795020Y-114222000D01*
X166693420Y-114178820D01*
X166619760Y-114143260D01*
X166584200Y-114122940D01*
X166581660Y-114122940D01*
X166568960Y-114079760D01*
X166548640Y-113988320D01*
X166523240Y-113866400D01*
X166495300Y-113719080D01*
X166490220Y-113696220D01*
X166464820Y-113551440D01*
X166441960Y-113434600D01*
X166424180Y-113353320D01*
X166416560Y-113317760D01*
X166396240Y-113315220D01*
X166325120Y-113310140D01*
X166218440Y-113305060D01*
X166088900Y-113305060D01*
X165954280Y-113305060D01*
X165822200Y-113307600D01*
X165710440Y-113312680D01*
X165629160Y-113317760D01*
X165593600Y-113325380D01*
X165593600Y-113327920D01*
X165580900Y-113371100D01*
X165560580Y-113460000D01*
X165535180Y-113584460D01*
X165507240Y-113731780D01*
X165502160Y-113759720D01*
X165476760Y-113901960D01*
X165451360Y-114018800D01*
X165433580Y-114097540D01*
X165425960Y-114130560D01*
X165413260Y-114135640D01*
X165354840Y-114163580D01*
X165258320Y-114201680D01*
X165138940Y-114249940D01*
X164864620Y-114361700D01*
X164529340Y-114130560D01*
X164498860Y-114110240D01*
X164376940Y-114026420D01*
X164277880Y-113960380D01*
X164206760Y-113917200D01*
X164178820Y-113899420D01*
X164176280Y-113901960D01*
X164143260Y-113929900D01*
X164077220Y-113993400D01*
X163985780Y-114082300D01*
X163879100Y-114186440D01*
X163800360Y-114265180D01*
X163708920Y-114359160D01*
X163650500Y-114422660D01*
X163617480Y-114463300D01*
X163604780Y-114488700D01*
X163609860Y-114506480D01*
X163630180Y-114539500D01*
X163680980Y-114613160D01*
X163749560Y-114717300D01*
X163830840Y-114834140D01*
X163899420Y-114935740D01*
X163973080Y-115047500D01*
X164018800Y-115128780D01*
X164036580Y-115166880D01*
X164031500Y-115184660D01*
X164008640Y-115250700D01*
X163968000Y-115349760D01*
X163917200Y-115469140D01*
X163800360Y-115735840D01*
X163625100Y-115768860D01*
X163520960Y-115789180D01*
X163371100Y-115817120D01*
X163228860Y-115845060D01*
X163007880Y-115888240D01*
X163000260Y-116698500D01*
X163035820Y-116713740D01*
X163068840Y-116723900D01*
X163150120Y-116741680D01*
X163266960Y-116764540D01*
X163404120Y-116789940D01*
X163523500Y-116812800D01*
X163640340Y-116835660D01*
X163726700Y-116850900D01*
X163764800Y-116858520D01*
X163772420Y-116871220D01*
X163802900Y-116929640D01*
X163846080Y-117021080D01*
X163891800Y-117130300D01*
X163940060Y-117244600D01*
X163980700Y-117348740D01*
X164011180Y-117430020D01*
X164021340Y-117470660D01*
X164006100Y-117501140D01*
X163960380Y-117572260D01*
X163894340Y-117671320D01*
X163815600Y-117788160D01*
X163734320Y-117907540D01*
X163665740Y-118006600D01*
X163617480Y-118080260D01*
X163599700Y-118113280D01*
X163609860Y-118136140D01*
X163655580Y-118192020D01*
X163744480Y-118283460D01*
X163876560Y-118415540D01*
X163899420Y-118435860D01*
X164003560Y-118537460D01*
X164092460Y-118618740D01*
X164153420Y-118674620D01*
X164181360Y-118694940D01*
%LPC*%
D15*
X146210000Y-130130000D03*
X148750000Y-130130000D03*
X151290000Y-130130000D03*
X153830000Y-130130000D03*
D10*
G36*
X143621112Y-54651921D02*
X143914757Y-56121470D01*
X142641978Y-56375797D01*
X142348333Y-54906248D01*
X143621112Y-54651921D01*
X143621112Y-54651921D01*
G37*
G36*
X141758022Y-55024203D02*
X142051667Y-56493752D01*
X140778888Y-56748079D01*
X140485243Y-55278530D01*
X141758022Y-55024203D01*
X141758022Y-55024203D01*
G37*
G36*
X135890474Y-56695853D02*
X136463964Y-58080379D01*
X135264824Y-58577079D01*
X134691334Y-57192553D01*
X135890474Y-56695853D01*
X135890474Y-56695853D01*
G37*
G36*
X134135176Y-57422921D02*
X134708666Y-58807447D01*
X133509526Y-59304147D01*
X132936036Y-57919621D01*
X134135176Y-57422921D01*
X134135176Y-57422921D01*
G37*
G36*
X128611854Y-60287865D02*
X129445518Y-61533178D01*
X128366950Y-62255217D01*
X127533286Y-61009904D01*
X128611854Y-60287865D01*
X128611854Y-60287865D01*
G37*
G36*
X127033050Y-61344783D02*
X127866714Y-62590096D01*
X126788146Y-63312135D01*
X125954482Y-62066822D01*
X127033050Y-61344783D01*
X127033050Y-61344783D01*
G37*
G36*
X122300779Y-65039551D02*
X123360449Y-66099221D01*
X122442667Y-67017003D01*
X121382997Y-65957333D01*
X122300779Y-65039551D01*
X122300779Y-65039551D01*
G37*
G36*
X120957333Y-66382997D02*
X122017003Y-67442667D01*
X121099221Y-68360449D01*
X120039551Y-67300779D01*
X120957333Y-66382997D01*
X120957333Y-66382997D01*
G37*
G36*
X117013774Y-71054019D02*
X118260541Y-71885509D01*
X117540386Y-72965335D01*
X116293619Y-72133845D01*
X117013774Y-71054019D01*
X117013774Y-71054019D01*
G37*
G36*
X115959614Y-72634665D02*
X117206381Y-73466155D01*
X116486226Y-74545981D01*
X115239459Y-73714491D01*
X115959614Y-72634665D01*
X115959614Y-72634665D01*
G37*
G36*
X112969621Y-77936036D02*
X114354147Y-78509526D01*
X113857447Y-79708666D01*
X112472921Y-79135176D01*
X112969621Y-77936036D01*
X112969621Y-77936036D01*
G37*
G36*
X112242553Y-79691334D02*
X113627079Y-80264824D01*
X113130379Y-81463964D01*
X111745853Y-80890474D01*
X112242553Y-79691334D01*
X112242553Y-79691334D01*
G37*
G36*
X110325538Y-85535982D02*
X111795597Y-85827061D01*
X111543492Y-87100282D01*
X110073433Y-86809203D01*
X110325538Y-85535982D01*
X110325538Y-85535982D01*
G37*
G36*
X109956508Y-87399718D02*
X111426567Y-87690797D01*
X111174462Y-88964018D01*
X109704403Y-88672939D01*
X109956508Y-87399718D01*
X109956508Y-87399718D01*
G37*
D16*
X110000000Y-94050040D03*
X110000000Y-95949960D03*
D10*
G36*
X109701921Y-101378888D02*
X111171470Y-101085243D01*
X111425797Y-102358022D01*
X109956248Y-102651667D01*
X109701921Y-101378888D01*
X109701921Y-101378888D01*
G37*
G36*
X110074203Y-103241978D02*
X111543752Y-102948333D01*
X111798079Y-104221112D01*
X110328530Y-104514757D01*
X110074203Y-103241978D01*
X110074203Y-103241978D01*
G37*
G36*
X111745853Y-109159526D02*
X113130379Y-108586036D01*
X113627079Y-109785176D01*
X112242553Y-110358666D01*
X111745853Y-109159526D01*
X111745853Y-109159526D01*
G37*
G36*
X112472921Y-110914824D02*
X113857447Y-110341334D01*
X114354147Y-111540474D01*
X112969621Y-112113964D01*
X112472921Y-110914824D01*
X112472921Y-110914824D01*
G37*
G36*
X115187865Y-116288146D02*
X116433178Y-115454482D01*
X117155217Y-116533050D01*
X115909904Y-117366714D01*
X115187865Y-116288146D01*
X115187865Y-116288146D01*
G37*
G36*
X116244783Y-117866950D02*
X117490096Y-117033286D01*
X118212135Y-118111854D01*
X116966822Y-118945518D01*
X116244783Y-117866950D01*
X116244783Y-117866950D01*
G37*
G36*
X120039551Y-122699221D02*
X121099221Y-121639551D01*
X122017003Y-122557333D01*
X120957333Y-123617003D01*
X120039551Y-122699221D01*
X120039551Y-122699221D01*
G37*
G36*
X121382997Y-124042667D02*
X122442667Y-122982997D01*
X123360449Y-123900779D01*
X122300779Y-124960449D01*
X121382997Y-124042667D01*
X121382997Y-124042667D01*
G37*
G36*
X126004019Y-127986226D02*
X126835509Y-126739459D01*
X127915335Y-127459614D01*
X127083845Y-128706381D01*
X126004019Y-127986226D01*
X126004019Y-127986226D01*
G37*
G36*
X127584665Y-129040386D02*
X128416155Y-127793619D01*
X129495981Y-128513774D01*
X128664491Y-129760541D01*
X127584665Y-129040386D01*
X127584665Y-129040386D01*
G37*
G36*
X132936036Y-132030379D02*
X133509526Y-130645853D01*
X134708666Y-131142553D01*
X134135176Y-132527079D01*
X132936036Y-132030379D01*
X132936036Y-132030379D01*
G37*
G36*
X134691334Y-132757447D02*
X135264824Y-131372921D01*
X136463964Y-131869621D01*
X135890474Y-133254147D01*
X134691334Y-132757447D01*
X134691334Y-132757447D01*
G37*
G36*
X140435982Y-134624462D02*
X140727061Y-133154403D01*
X142000282Y-133406508D01*
X141709203Y-134876567D01*
X140435982Y-134624462D01*
X140435982Y-134624462D01*
G37*
G36*
X142299718Y-134993492D02*
X142590797Y-133523433D01*
X143864018Y-133775538D01*
X143572939Y-135245597D01*
X142299718Y-134993492D01*
X142299718Y-134993492D01*
G37*
D17*
X149050040Y-135000000D03*
X150949960Y-135000000D03*
D10*
G36*
X156384396Y-135255505D02*
X156083060Y-133787514D01*
X157354490Y-133526527D01*
X157655826Y-134994518D01*
X156384396Y-135255505D01*
X156384396Y-135255505D01*
G37*
G36*
X158245510Y-134873473D02*
X157944174Y-133405482D01*
X159215604Y-133144495D01*
X159516940Y-134612486D01*
X158245510Y-134873473D01*
X158245510Y-134873473D01*
G37*
G36*
X164116371Y-133210362D02*
X163535640Y-131828858D01*
X164732163Y-131325886D01*
X165312894Y-132707390D01*
X164116371Y-133210362D01*
X164116371Y-133210362D01*
G37*
G36*
X165867837Y-132474114D02*
X165287106Y-131092610D01*
X166483629Y-130589638D01*
X167064360Y-131971142D01*
X165867837Y-132474114D01*
X165867837Y-132474114D01*
G37*
G36*
X171193430Y-129815308D02*
X170355423Y-128572913D01*
X171431464Y-127847114D01*
X172269471Y-129089509D01*
X171193430Y-129815308D01*
X171193430Y-129815308D01*
G37*
G36*
X172768536Y-128752886D02*
X171930529Y-127510491D01*
X173006570Y-126784692D01*
X173844577Y-128027087D01*
X172768536Y-128752886D01*
X172768536Y-128752886D01*
G37*
G36*
X177699221Y-124960449D02*
X176639551Y-123900779D01*
X177557333Y-122982997D01*
X178617003Y-124042667D01*
X177699221Y-124960449D01*
X177699221Y-124960449D01*
G37*
G36*
X179042667Y-123617003D02*
X177982997Y-122557333D01*
X178900779Y-121639551D01*
X179960449Y-122699221D01*
X179042667Y-123617003D01*
X179042667Y-123617003D01*
G37*
G36*
X183033178Y-118945518D02*
X181787865Y-118111854D01*
X182509904Y-117033286D01*
X183755217Y-117866950D01*
X183033178Y-118945518D01*
X183033178Y-118945518D01*
G37*
G36*
X184090096Y-117366714D02*
X182844783Y-116533050D01*
X183566822Y-115454482D01*
X184812135Y-116288146D01*
X184090096Y-117366714D01*
X184090096Y-117366714D01*
G37*
G36*
X187027300Y-112064101D02*
X185643777Y-111488196D01*
X186142570Y-110289925D01*
X187526093Y-110865830D01*
X187027300Y-112064101D01*
X187027300Y-112064101D01*
G37*
G36*
X187757430Y-110310075D02*
X186373907Y-109734170D01*
X186872700Y-108535899D01*
X188256223Y-109111804D01*
X187757430Y-110310075D01*
X187757430Y-110310075D01*
G37*
G36*
X189621470Y-104564757D02*
X188151921Y-104271112D01*
X188406248Y-102998333D01*
X189875797Y-103291978D01*
X189621470Y-104564757D01*
X189621470Y-104564757D01*
G37*
G36*
X189993752Y-102701667D02*
X188524203Y-102408022D01*
X188778530Y-101135243D01*
X190248079Y-101428888D01*
X189993752Y-102701667D01*
X189993752Y-102701667D01*
G37*
D16*
X190000000Y-95949960D03*
X190000000Y-94050040D03*
D10*
G36*
X190295597Y-88622939D02*
X188825538Y-88914018D01*
X188573433Y-87640797D01*
X190043492Y-87349718D01*
X190295597Y-88622939D01*
X190295597Y-88622939D01*
G37*
G36*
X189926567Y-86759203D02*
X188456508Y-87050282D01*
X188204403Y-85777061D01*
X189674462Y-85485982D01*
X189926567Y-86759203D01*
X189926567Y-86759203D01*
G37*
G36*
X188256223Y-80888196D02*
X186872700Y-81464101D01*
X186373907Y-80265830D01*
X187757430Y-79689925D01*
X188256223Y-80888196D01*
X188256223Y-80888196D01*
G37*
G36*
X187526093Y-79134170D02*
X186142570Y-79710075D01*
X185643777Y-78511804D01*
X187027300Y-77935899D01*
X187526093Y-79134170D01*
X187526093Y-79134170D01*
G37*
G36*
X184762135Y-73661854D02*
X183516822Y-74495518D01*
X182794783Y-73416950D01*
X184040096Y-72583286D01*
X184762135Y-73661854D01*
X184762135Y-73661854D01*
G37*
G36*
X183705217Y-72083050D02*
X182459904Y-72916714D01*
X181737865Y-71838146D01*
X182983178Y-71004482D01*
X183705217Y-72083050D01*
X183705217Y-72083050D01*
G37*
G36*
X179960449Y-67300779D02*
X178900779Y-68360449D01*
X177982997Y-67442667D01*
X179042667Y-66382997D01*
X179960449Y-67300779D01*
X179960449Y-67300779D01*
G37*
G36*
X178617003Y-65957333D02*
X177557333Y-67017003D01*
X176639551Y-66099221D01*
X177699221Y-65039551D01*
X178617003Y-65957333D01*
X178617003Y-65957333D01*
G37*
G36*
X174045518Y-62066822D02*
X173211854Y-63312135D01*
X172133286Y-62590096D01*
X172966950Y-61344783D01*
X174045518Y-62066822D01*
X174045518Y-62066822D01*
G37*
G36*
X172466714Y-61009904D02*
X171633050Y-62255217D01*
X170554482Y-61533178D01*
X171388146Y-60287865D01*
X172466714Y-61009904D01*
X172466714Y-61009904D01*
G37*
G36*
X167063964Y-57919621D02*
X166490474Y-59304147D01*
X165291334Y-58807447D01*
X165864824Y-57422921D01*
X167063964Y-57919621D01*
X167063964Y-57919621D01*
G37*
G36*
X165308666Y-57192553D02*
X164735176Y-58577079D01*
X163536036Y-58080379D01*
X164109526Y-56695853D01*
X165308666Y-57192553D01*
X165308666Y-57192553D01*
G37*
G36*
X159514757Y-55378530D02*
X159221112Y-56848079D01*
X157948333Y-56593752D01*
X158241978Y-55124203D01*
X159514757Y-55378530D01*
X159514757Y-55378530D01*
G37*
G36*
X157651667Y-55006248D02*
X157358022Y-56475797D01*
X156085243Y-56221470D01*
X156378888Y-54751921D01*
X157651667Y-55006248D01*
X157651667Y-55006248D01*
G37*
D17*
X150949960Y-55000000D03*
X149050040Y-55000000D03*
D10*
G36*
X142957071Y-51537664D02*
X144722177Y-51184961D01*
X144996501Y-52557822D01*
X143231395Y-52910525D01*
X142957071Y-51537664D01*
X142957071Y-51537664D01*
G37*
G36*
X142310449Y-48301636D02*
X144075555Y-47948933D01*
X144349879Y-49321794D01*
X142584773Y-49674497D01*
X142310449Y-48301636D01*
X142310449Y-48301636D01*
G37*
G36*
X137603499Y-49242178D02*
X139368605Y-48889475D01*
X139642929Y-50262336D01*
X137877823Y-50615039D01*
X137603499Y-49242178D01*
X137603499Y-49242178D01*
G37*
G36*
X138250121Y-52478206D02*
X140015227Y-52125503D01*
X140289551Y-53498364D01*
X138524445Y-53851067D01*
X138250121Y-52478206D01*
X138250121Y-52478206D01*
G37*
G36*
X140839084Y-51145065D02*
X141819699Y-50949119D01*
X141917672Y-51439427D01*
X140937057Y-51635373D01*
X140839084Y-51145065D01*
X140839084Y-51145065D01*
G37*
G36*
X140682328Y-50360573D02*
X141662943Y-50164627D01*
X141760916Y-50654935D01*
X140780301Y-50850881D01*
X140682328Y-50360573D01*
X140682328Y-50360573D01*
G37*
G36*
X134549369Y-53703660D02*
X136212352Y-53014830D01*
X136748109Y-54308262D01*
X135085126Y-54997092D01*
X134549369Y-53703660D01*
X134549369Y-53703660D01*
G37*
G36*
X133286513Y-50654858D02*
X134949496Y-49966028D01*
X135485253Y-51259460D01*
X133822270Y-51948290D01*
X133286513Y-50654858D01*
X133286513Y-50654858D01*
G37*
G36*
X128851891Y-52491738D02*
X130514874Y-51802908D01*
X131050631Y-53096340D01*
X129387648Y-53785170D01*
X128851891Y-52491738D01*
X128851891Y-52491738D01*
G37*
G36*
X130114747Y-55540540D02*
X131777730Y-54851710D01*
X132313487Y-56145142D01*
X130650504Y-56833972D01*
X130114747Y-55540540D01*
X130114747Y-55540540D01*
G37*
G36*
X132395462Y-53729924D02*
X133319342Y-53347240D01*
X133510684Y-53809180D01*
X132586804Y-54191864D01*
X132395462Y-53729924D01*
X132395462Y-53729924D01*
G37*
G36*
X132089316Y-52990820D02*
X133013196Y-52608136D01*
X133204538Y-53070076D01*
X132280658Y-53452760D01*
X132089316Y-52990820D01*
X132089316Y-52990820D01*
G37*
G36*
X126774957Y-57554992D02*
X128270729Y-56553660D01*
X129049543Y-57717038D01*
X127553771Y-58718370D01*
X126774957Y-57554992D01*
X126774957Y-57554992D01*
G37*
G36*
X124939182Y-54812743D02*
X126434954Y-53811411D01*
X127213768Y-54974789D01*
X125717996Y-55976121D01*
X124939182Y-54812743D01*
X124939182Y-54812743D01*
G37*
G36*
X120950457Y-57482962D02*
X122446229Y-56481630D01*
X123225043Y-57645008D01*
X121729271Y-58646340D01*
X120950457Y-57482962D01*
X120950457Y-57482962D01*
G37*
G36*
X122786232Y-60225211D02*
X124282004Y-59223879D01*
X125060818Y-60387257D01*
X123565046Y-61388589D01*
X122786232Y-60225211D01*
X122786232Y-60225211D01*
G37*
G36*
X124667952Y-58002796D02*
X125498936Y-57446500D01*
X125777084Y-57861992D01*
X124946100Y-58418288D01*
X124667952Y-58002796D01*
X124667952Y-58002796D01*
G37*
G36*
X124222916Y-57338008D02*
X125053900Y-56781712D01*
X125332048Y-57197204D01*
X124501064Y-57753500D01*
X124222916Y-57338008D01*
X124222916Y-57338008D01*
G37*
G36*
X119882411Y-62811091D02*
X121155203Y-61538299D01*
X122145153Y-62528249D01*
X120872361Y-63801041D01*
X119882411Y-62811091D01*
X119882411Y-62811091D01*
G37*
G36*
X117548959Y-60477639D02*
X118821751Y-59204847D01*
X119811701Y-60194797D01*
X118538909Y-61467589D01*
X117548959Y-60477639D01*
X117548959Y-60477639D01*
G37*
G36*
X114154847Y-63871751D02*
X115427639Y-62598959D01*
X116417589Y-63588909D01*
X115144797Y-64861701D01*
X114154847Y-63871751D01*
X114154847Y-63871751D01*
G37*
G36*
X116488299Y-66205203D02*
X117761091Y-64932411D01*
X118751041Y-65922361D01*
X117478249Y-67195153D01*
X116488299Y-66205203D01*
X116488299Y-66205203D01*
G37*
G36*
X117902513Y-63659620D02*
X118609620Y-62952513D01*
X118963173Y-63306066D01*
X118256066Y-64013173D01*
X117902513Y-63659620D01*
X117902513Y-63659620D01*
G37*
G36*
X117336827Y-63093934D02*
X118043934Y-62386827D01*
X118397487Y-62740380D01*
X117690380Y-63447487D01*
X117336827Y-63093934D01*
X117336827Y-63093934D01*
G37*
G36*
X114172623Y-69329171D02*
X115171343Y-67831653D01*
X116336079Y-68608435D01*
X115337359Y-70105953D01*
X114172623Y-69329171D01*
X114172623Y-69329171D01*
G37*
G36*
X111427174Y-67498185D02*
X112425894Y-66000667D01*
X113590630Y-66777449D01*
X112591910Y-68274967D01*
X111427174Y-67498185D01*
X111427174Y-67498185D01*
G37*
G36*
X108763921Y-71491565D02*
X109762641Y-69994047D01*
X110927377Y-70770829D01*
X109928657Y-72268347D01*
X108763921Y-71491565D01*
X108763921Y-71491565D01*
G37*
G36*
X111509370Y-73322551D02*
X112508090Y-71825033D01*
X113672826Y-72601815D01*
X112674106Y-74099333D01*
X111509370Y-73322551D01*
X111509370Y-73322551D01*
G37*
G36*
X112397371Y-70549204D02*
X112952216Y-69717250D01*
X113368193Y-69994672D01*
X112813348Y-70826626D01*
X112397371Y-70549204D01*
X112397371Y-70549204D01*
G37*
G36*
X111731807Y-70105328D02*
X112286652Y-69273374D01*
X112702629Y-69550796D01*
X112147784Y-70382750D01*
X111731807Y-70105328D01*
X111731807Y-70105328D01*
G37*
G36*
X109851710Y-76777730D02*
X110540540Y-75114747D01*
X111833972Y-75650504D01*
X111145142Y-77313487D01*
X109851710Y-76777730D01*
X109851710Y-76777730D01*
G37*
G36*
X106802908Y-75514874D02*
X107491738Y-73851891D01*
X108785170Y-74387648D01*
X108096340Y-76050631D01*
X106802908Y-75514874D01*
X106802908Y-75514874D01*
G37*
G36*
X104966028Y-79949496D02*
X105654858Y-78286513D01*
X106948290Y-78822270D01*
X106259460Y-80485253D01*
X104966028Y-79949496D01*
X104966028Y-79949496D01*
G37*
G36*
X108014830Y-81212352D02*
X108703660Y-79549369D01*
X109997092Y-80085126D01*
X109308262Y-81748109D01*
X108014830Y-81212352D01*
X108014830Y-81212352D01*
G37*
G36*
X108347240Y-78319342D02*
X108729924Y-77395462D01*
X109191864Y-77586804D01*
X108809180Y-78510684D01*
X108347240Y-78319342D01*
X108347240Y-78319342D01*
G37*
G36*
X107608136Y-78013196D02*
X107990820Y-77089316D01*
X108452760Y-77280658D01*
X108070076Y-78204538D01*
X107608136Y-78013196D01*
X107608136Y-78013196D01*
G37*
G36*
X107073258Y-84963090D02*
X107422880Y-83197370D01*
X108796218Y-83469298D01*
X108446596Y-85235018D01*
X107073258Y-84963090D01*
X107073258Y-84963090D01*
G37*
G36*
X103836106Y-84322117D02*
X104185728Y-82556397D01*
X105559066Y-82828325D01*
X105209444Y-84594045D01*
X103836106Y-84322117D01*
X103836106Y-84322117D01*
G37*
G36*
X102903782Y-89030702D02*
X103253404Y-87264982D01*
X104626742Y-87536910D01*
X104277120Y-89302630D01*
X102903782Y-89030702D01*
X102903782Y-89030702D01*
G37*
G36*
X106140934Y-89671675D02*
X106490556Y-87905955D01*
X107863894Y-88177883D01*
X107514272Y-89943603D01*
X106140934Y-89671675D01*
X106140934Y-89671675D01*
G37*
G36*
X105900026Y-86769613D02*
X106094260Y-85788658D01*
X106584738Y-85885775D01*
X106390504Y-86866730D01*
X105900026Y-86769613D01*
X105900026Y-86769613D01*
G37*
G36*
X105115262Y-86614225D02*
X105309496Y-85633270D01*
X105799974Y-85730387D01*
X105605740Y-86711342D01*
X105115262Y-86614225D01*
X105115262Y-86614225D01*
G37*
D18*
X106650000Y-92600000D03*
X103350000Y-92600000D03*
X103350000Y-97400000D03*
X106650000Y-97400000D03*
D19*
X105400000Y-95000000D03*
X104600000Y-95000000D03*
D10*
G36*
X106487664Y-102092929D02*
X106134961Y-100327823D01*
X107507822Y-100053499D01*
X107860525Y-101818605D01*
X106487664Y-102092929D01*
X106487664Y-102092929D01*
G37*
G36*
X103251636Y-102739551D02*
X102898933Y-100974445D01*
X104271794Y-100700121D01*
X104624497Y-102465227D01*
X103251636Y-102739551D01*
X103251636Y-102739551D01*
G37*
G36*
X104192178Y-107446501D02*
X103839475Y-105681395D01*
X105212336Y-105407071D01*
X105565039Y-107172177D01*
X104192178Y-107446501D01*
X104192178Y-107446501D01*
G37*
G36*
X107428206Y-106799879D02*
X107075503Y-105034773D01*
X108448364Y-104760449D01*
X108801067Y-106525555D01*
X107428206Y-106799879D01*
X107428206Y-106799879D01*
G37*
G36*
X106095065Y-104210916D02*
X105899119Y-103230301D01*
X106389427Y-103132328D01*
X106585373Y-104112943D01*
X106095065Y-104210916D01*
X106095065Y-104210916D01*
G37*
G36*
X105310573Y-104367672D02*
X105114627Y-103387057D01*
X105604935Y-103289084D01*
X105800881Y-104269699D01*
X105310573Y-104367672D01*
X105310573Y-104367672D01*
G37*
G36*
X108753660Y-110550631D02*
X108064830Y-108887648D01*
X109358262Y-108351891D01*
X110047092Y-110014874D01*
X108753660Y-110550631D01*
X108753660Y-110550631D01*
G37*
G36*
X105704858Y-111813487D02*
X105016028Y-110150504D01*
X106309460Y-109614747D01*
X106998290Y-111277730D01*
X105704858Y-111813487D01*
X105704858Y-111813487D01*
G37*
G36*
X107541738Y-116248109D02*
X106852908Y-114585126D01*
X108146340Y-114049369D01*
X108835170Y-115712352D01*
X107541738Y-116248109D01*
X107541738Y-116248109D01*
G37*
G36*
X110590540Y-114985253D02*
X109901710Y-113322270D01*
X111195142Y-112786513D01*
X111883972Y-114449496D01*
X110590540Y-114985253D01*
X110590540Y-114985253D01*
G37*
G36*
X108779924Y-112704538D02*
X108397240Y-111780658D01*
X108859180Y-111589316D01*
X109241864Y-112513196D01*
X108779924Y-112704538D01*
X108779924Y-112704538D01*
G37*
G36*
X108040820Y-113010684D02*
X107658136Y-112086804D01*
X108120076Y-111895462D01*
X108502760Y-112819342D01*
X108040820Y-113010684D01*
X108040820Y-113010684D01*
G37*
G36*
X112504992Y-118175043D02*
X111503660Y-116679271D01*
X112667038Y-115900457D01*
X113668370Y-117396229D01*
X112504992Y-118175043D01*
X112504992Y-118175043D01*
G37*
G36*
X109762743Y-120010818D02*
X108761411Y-118515046D01*
X109924789Y-117736232D01*
X110926121Y-119232004D01*
X109762743Y-120010818D01*
X109762743Y-120010818D01*
G37*
G36*
X112432962Y-123999543D02*
X111431630Y-122503771D01*
X112595008Y-121724957D01*
X113596340Y-123220729D01*
X112432962Y-123999543D01*
X112432962Y-123999543D01*
G37*
G36*
X115175211Y-122163768D02*
X114173879Y-120667996D01*
X115337257Y-119889182D01*
X116338589Y-121384954D01*
X115175211Y-122163768D01*
X115175211Y-122163768D01*
G37*
G36*
X112952796Y-120282048D02*
X112396500Y-119451064D01*
X112811992Y-119172916D01*
X113368288Y-120003900D01*
X112952796Y-120282048D01*
X112952796Y-120282048D01*
G37*
G36*
X112288008Y-120727084D02*
X111731712Y-119896100D01*
X112147204Y-119617952D01*
X112703500Y-120448936D01*
X112288008Y-120727084D01*
X112288008Y-120727084D01*
G37*
G36*
X117811091Y-125117589D02*
X116538299Y-123844797D01*
X117528249Y-122854847D01*
X118801041Y-124127639D01*
X117811091Y-125117589D01*
X117811091Y-125117589D01*
G37*
G36*
X115477639Y-127451041D02*
X114204847Y-126178249D01*
X115194797Y-125188299D01*
X116467589Y-126461091D01*
X115477639Y-127451041D01*
X115477639Y-127451041D01*
G37*
G36*
X118871751Y-130845153D02*
X117598959Y-129572361D01*
X118588909Y-128582411D01*
X119861701Y-129855203D01*
X118871751Y-130845153D01*
X118871751Y-130845153D01*
G37*
G36*
X121205203Y-128511701D02*
X119932411Y-127238909D01*
X120922361Y-126248959D01*
X122195153Y-127521751D01*
X121205203Y-128511701D01*
X121205203Y-128511701D01*
G37*
G36*
X118659620Y-127097487D02*
X117952513Y-126390380D01*
X118306066Y-126036827D01*
X119013173Y-126743934D01*
X118659620Y-127097487D01*
X118659620Y-127097487D01*
G37*
G36*
X118093934Y-127663173D02*
X117386827Y-126956066D01*
X117740380Y-126602513D01*
X118447487Y-127309620D01*
X118093934Y-127663173D01*
X118093934Y-127663173D01*
G37*
G36*
X124229171Y-130777377D02*
X122731653Y-129778657D01*
X123508435Y-128613921D01*
X125005953Y-129612641D01*
X124229171Y-130777377D01*
X124229171Y-130777377D01*
G37*
G36*
X122398185Y-133522826D02*
X120900667Y-132524106D01*
X121677449Y-131359370D01*
X123174967Y-132358090D01*
X122398185Y-133522826D01*
X122398185Y-133522826D01*
G37*
G36*
X126391565Y-136186079D02*
X124894047Y-135187359D01*
X125670829Y-134022623D01*
X127168347Y-135021343D01*
X126391565Y-136186079D01*
X126391565Y-136186079D01*
G37*
G36*
X128222551Y-133440630D02*
X126725033Y-132441910D01*
X127501815Y-131277174D01*
X128999333Y-132275894D01*
X128222551Y-133440630D01*
X128222551Y-133440630D01*
G37*
G36*
X125449204Y-132552629D02*
X124617250Y-131997784D01*
X124894672Y-131581807D01*
X125726626Y-132136652D01*
X125449204Y-132552629D01*
X125449204Y-132552629D01*
G37*
G36*
X125005328Y-133218193D02*
X124173374Y-132663348D01*
X124450796Y-132247371D01*
X125282750Y-132802216D01*
X125005328Y-133218193D01*
X125005328Y-133218193D01*
G37*
G36*
X131777730Y-135148290D02*
X130114747Y-134459460D01*
X130650504Y-133166028D01*
X132313487Y-133854858D01*
X131777730Y-135148290D01*
X131777730Y-135148290D01*
G37*
G36*
X130514874Y-138197092D02*
X128851891Y-137508262D01*
X129387648Y-136214830D01*
X131050631Y-136903660D01*
X130514874Y-138197092D01*
X130514874Y-138197092D01*
G37*
G36*
X134949496Y-140033972D02*
X133286513Y-139345142D01*
X133822270Y-138051710D01*
X135485253Y-138740540D01*
X134949496Y-140033972D01*
X134949496Y-140033972D01*
G37*
G36*
X136212352Y-136985170D02*
X134549369Y-136296340D01*
X135085126Y-135002908D01*
X136748109Y-135691738D01*
X136212352Y-136985170D01*
X136212352Y-136985170D01*
G37*
G36*
X133319342Y-136652760D02*
X132395462Y-136270076D01*
X132586804Y-135808136D01*
X133510684Y-136190820D01*
X133319342Y-136652760D01*
X133319342Y-136652760D01*
G37*
G36*
X133013196Y-137391864D02*
X132089316Y-137009180D01*
X132280658Y-136547240D01*
X133204538Y-136929924D01*
X133013196Y-137391864D01*
X133013196Y-137391864D01*
G37*
G36*
X139863090Y-137926742D02*
X138097370Y-137577120D01*
X138369298Y-136203782D01*
X140135018Y-136553404D01*
X139863090Y-137926742D01*
X139863090Y-137926742D01*
G37*
G36*
X139222117Y-141163894D02*
X137456397Y-140814272D01*
X137728325Y-139440934D01*
X139494045Y-139790556D01*
X139222117Y-141163894D01*
X139222117Y-141163894D01*
G37*
G36*
X143930702Y-142096218D02*
X142164982Y-141746596D01*
X142436910Y-140373258D01*
X144202630Y-140722880D01*
X143930702Y-142096218D01*
X143930702Y-142096218D01*
G37*
G36*
X144571675Y-138859066D02*
X142805955Y-138509444D01*
X143077883Y-137136106D01*
X144843603Y-137485728D01*
X144571675Y-138859066D01*
X144571675Y-138859066D01*
G37*
G36*
X141669613Y-139099974D02*
X140688658Y-138905740D01*
X140785775Y-138415262D01*
X141766730Y-138609496D01*
X141669613Y-139099974D01*
X141669613Y-139099974D01*
G37*
G36*
X141514225Y-139884738D02*
X140533270Y-139690504D01*
X140630387Y-139200026D01*
X141611342Y-139394260D01*
X141514225Y-139884738D01*
X141514225Y-139884738D01*
G37*
D20*
X147600000Y-138350000D03*
X147600000Y-141650000D03*
X152400000Y-141650000D03*
X152400000Y-138350000D03*
D21*
X150000000Y-139600000D03*
X150000000Y-140400000D03*
D10*
G36*
X157039613Y-138471021D02*
X155276378Y-138832961D01*
X154994869Y-137461555D01*
X156758104Y-137099615D01*
X157039613Y-138471021D01*
X157039613Y-138471021D01*
G37*
G36*
X157703170Y-141703619D02*
X155939935Y-142065559D01*
X155658426Y-140694153D01*
X157421661Y-140332213D01*
X157703170Y-141703619D01*
X157703170Y-141703619D01*
G37*
G36*
X162405131Y-140738445D02*
X160641896Y-141100385D01*
X160360387Y-139728979D01*
X162123622Y-139367039D01*
X162405131Y-140738445D01*
X162405131Y-140738445D01*
G37*
G36*
X161741574Y-137505847D02*
X159978339Y-137867787D01*
X159696830Y-136496381D01*
X161460065Y-136134441D01*
X161741574Y-137505847D01*
X161741574Y-137505847D01*
G37*
G36*
X159159626Y-138852525D02*
X158180051Y-139053603D01*
X158079512Y-138563815D01*
X159059087Y-138362737D01*
X159159626Y-138852525D01*
X159159626Y-138852525D01*
G37*
G36*
X159320488Y-139636185D02*
X158340913Y-139837263D01*
X158240374Y-139347475D01*
X159219949Y-139146397D01*
X159320488Y-139636185D01*
X159320488Y-139636185D01*
G37*
G36*
X165449066Y-136305503D02*
X163789712Y-137003031D01*
X163247190Y-135712423D01*
X164906544Y-135014895D01*
X165449066Y-136305503D01*
X165449066Y-136305503D01*
G37*
G36*
X166727867Y-139347652D02*
X165068513Y-140045180D01*
X164525991Y-138754572D01*
X166185345Y-138057044D01*
X166727867Y-139347652D01*
X166727867Y-139347652D01*
G37*
G36*
X171152810Y-137487577D02*
X169493456Y-138185105D01*
X168950934Y-136894497D01*
X170610288Y-136196969D01*
X171152810Y-137487577D01*
X171152810Y-137487577D01*
G37*
G36*
X169874009Y-134445428D02*
X168214655Y-135142956D01*
X167672133Y-133852348D01*
X169331487Y-133154820D01*
X169874009Y-134445428D01*
X169874009Y-134445428D01*
G37*
G36*
X167602804Y-136267963D02*
X166680941Y-136655479D01*
X166487184Y-136194547D01*
X167409047Y-135807031D01*
X167602804Y-136267963D01*
X167602804Y-136267963D01*
G37*
G36*
X167912816Y-137005453D02*
X166990953Y-137392969D01*
X166797196Y-136932037D01*
X167719059Y-136544521D01*
X167912816Y-137005453D01*
X167912816Y-137005453D01*
G37*
G36*
X173125211Y-132551204D02*
X171632943Y-133557751D01*
X170850073Y-132397098D01*
X172342341Y-131390551D01*
X173125211Y-132551204D01*
X173125211Y-132551204D01*
G37*
G36*
X174970547Y-135287028D02*
X173478279Y-136293575D01*
X172695409Y-135132922D01*
X174187677Y-134126375D01*
X174970547Y-135287028D01*
X174970547Y-135287028D01*
G37*
G36*
X178949927Y-132602902D02*
X177457659Y-133609449D01*
X176674789Y-132448796D01*
X178167057Y-131442249D01*
X178949927Y-132602902D01*
X178949927Y-132602902D01*
G37*
G36*
X177104591Y-129867078D02*
X175612323Y-130873625D01*
X174829453Y-129712972D01*
X176321721Y-128706425D01*
X177104591Y-129867078D01*
X177104591Y-129867078D01*
G37*
G36*
X175230640Y-132096048D02*
X174401602Y-132655241D01*
X174122006Y-132240722D01*
X174951044Y-131681529D01*
X175230640Y-132096048D01*
X175230640Y-132096048D01*
G37*
G36*
X175677994Y-132759278D02*
X174848956Y-133318471D01*
X174569360Y-132903952D01*
X175398398Y-132344759D01*
X175677994Y-132759278D01*
X175677994Y-132759278D01*
G37*
G36*
X180068269Y-127191932D02*
X178797700Y-128466944D01*
X177806025Y-127478724D01*
X179076594Y-126203712D01*
X180068269Y-127191932D01*
X180068269Y-127191932D01*
G37*
G36*
X182405791Y-129521308D02*
X181135222Y-130796320D01*
X180143547Y-129808100D01*
X181414116Y-128533088D01*
X182405791Y-129521308D01*
X182405791Y-129521308D01*
G37*
G36*
X185793975Y-126121276D02*
X184523406Y-127396288D01*
X183531731Y-126408068D01*
X184802300Y-125133056D01*
X185793975Y-126121276D01*
X185793975Y-126121276D01*
G37*
G36*
X183456453Y-123791900D02*
X182185884Y-125066912D01*
X181194209Y-124078692D01*
X182464778Y-122803680D01*
X183456453Y-123791900D01*
X183456453Y-123791900D01*
G37*
G36*
X182046685Y-126339949D02*
X181340813Y-127048289D01*
X180986643Y-126695353D01*
X181692515Y-125987013D01*
X182046685Y-126339949D01*
X182046685Y-126339949D01*
G37*
G36*
X182613357Y-126904647D02*
X181907485Y-127612987D01*
X181553315Y-127260051D01*
X182259187Y-126551711D01*
X182613357Y-126904647D01*
X182613357Y-126904647D01*
G37*
G36*
X185777377Y-120720829D02*
X184778657Y-122218347D01*
X183613921Y-121441565D01*
X184612641Y-119944047D01*
X185777377Y-120720829D01*
X185777377Y-120720829D01*
G37*
G36*
X188522826Y-122551815D02*
X187524106Y-124049333D01*
X186359370Y-123272551D01*
X187358090Y-121775033D01*
X188522826Y-122551815D01*
X188522826Y-122551815D01*
G37*
G36*
X191186079Y-118558435D02*
X190187359Y-120055953D01*
X189022623Y-119279171D01*
X190021343Y-117781653D01*
X191186079Y-118558435D01*
X191186079Y-118558435D01*
G37*
G36*
X188440630Y-116727449D02*
X187441910Y-118224967D01*
X186277174Y-117448185D01*
X187275894Y-115950667D01*
X188440630Y-116727449D01*
X188440630Y-116727449D01*
G37*
G36*
X187552629Y-119500796D02*
X186997784Y-120332750D01*
X186581807Y-120055328D01*
X187136652Y-119223374D01*
X187552629Y-119500796D01*
X187552629Y-119500796D01*
G37*
G36*
X188218193Y-119944672D02*
X187663348Y-120776626D01*
X187247371Y-120499204D01*
X187802216Y-119667250D01*
X188218193Y-119944672D01*
X188218193Y-119944672D01*
G37*
G36*
X190146507Y-113219735D02*
X189454775Y-114881513D01*
X188162281Y-114343499D01*
X188854013Y-112681721D01*
X190146507Y-113219735D01*
X190146507Y-113219735D01*
G37*
G36*
X193193101Y-114487910D02*
X192501369Y-116149688D01*
X191208875Y-115611674D01*
X191900607Y-113949896D01*
X193193101Y-114487910D01*
X193193101Y-114487910D01*
G37*
G36*
X195037719Y-110056501D02*
X194345987Y-111718279D01*
X193053493Y-111180265D01*
X193745225Y-109518487D01*
X195037719Y-110056501D01*
X195037719Y-110056501D01*
G37*
G36*
X191991125Y-108788326D02*
X191299393Y-110450104D01*
X190006899Y-109912090D01*
X190698631Y-108250312D01*
X191991125Y-108788326D01*
X191991125Y-108788326D01*
G37*
G36*
X191653666Y-111680751D02*
X191269371Y-112603961D01*
X190807766Y-112411813D01*
X191192061Y-111488603D01*
X191653666Y-111680751D01*
X191653666Y-111680751D01*
G37*
G36*
X192392234Y-111988187D02*
X192007939Y-112911397D01*
X191546334Y-112719249D01*
X191930629Y-111796039D01*
X192392234Y-111988187D01*
X192392234Y-111988187D01*
G37*
G36*
X192874497Y-105184773D02*
X192521794Y-106949879D01*
X191148933Y-106675555D01*
X191501636Y-104910449D01*
X192874497Y-105184773D01*
X192874497Y-105184773D01*
G37*
G36*
X196110525Y-105831395D02*
X195757822Y-107596501D01*
X194384961Y-107322177D01*
X194737664Y-105557071D01*
X196110525Y-105831395D01*
X196110525Y-105831395D01*
G37*
G36*
X197051067Y-101124445D02*
X196698364Y-102889551D01*
X195325503Y-102615227D01*
X195678206Y-100850121D01*
X197051067Y-101124445D01*
X197051067Y-101124445D01*
G37*
G36*
X193815039Y-100477823D02*
X193462336Y-102242929D01*
X192089475Y-101968605D01*
X192442178Y-100203499D01*
X193815039Y-100477823D01*
X193815039Y-100477823D01*
G37*
G36*
X194050881Y-103380301D02*
X193854935Y-104360916D01*
X193364627Y-104262943D01*
X193560573Y-103282328D01*
X194050881Y-103380301D01*
X194050881Y-103380301D01*
G37*
G36*
X194835373Y-103537057D02*
X194639427Y-104517672D01*
X194149119Y-104419699D01*
X194345065Y-103439084D01*
X194835373Y-103537057D01*
X194835373Y-103537057D01*
G37*
D18*
X193350000Y-97400000D03*
X196650000Y-97400000D03*
X196650000Y-92600000D03*
X193350000Y-92600000D03*
D19*
X194600000Y-95000000D03*
X195400000Y-95000000D03*
D10*
G36*
X193459444Y-87855955D02*
X193809066Y-89621675D01*
X192435728Y-89893603D01*
X192086106Y-88127883D01*
X193459444Y-87855955D01*
X193459444Y-87855955D01*
G37*
G36*
X196696596Y-87214982D02*
X197046218Y-88980702D01*
X195672880Y-89252630D01*
X195323258Y-87486910D01*
X196696596Y-87214982D01*
X196696596Y-87214982D01*
G37*
G36*
X195764272Y-82506397D02*
X196113894Y-84272117D01*
X194740556Y-84544045D01*
X194390934Y-82778325D01*
X195764272Y-82506397D01*
X195764272Y-82506397D01*
G37*
G36*
X192527120Y-83147370D02*
X192876742Y-84913090D01*
X191503404Y-85185018D01*
X191153782Y-83419298D01*
X192527120Y-83147370D01*
X192527120Y-83147370D01*
G37*
G36*
X193855740Y-85738658D02*
X194049974Y-86719613D01*
X193559496Y-86816730D01*
X193365262Y-85835775D01*
X193855740Y-85738658D01*
X193855740Y-85738658D01*
G37*
G36*
X194640504Y-85583270D02*
X194834738Y-86564225D01*
X194344260Y-86661342D01*
X194150026Y-85680387D01*
X194640504Y-85583270D01*
X194640504Y-85583270D01*
G37*
G36*
X191299393Y-79549896D02*
X191991125Y-81211674D01*
X190698631Y-81749688D01*
X190006899Y-80087910D01*
X191299393Y-79549896D01*
X191299393Y-79549896D01*
G37*
G36*
X194345987Y-78281721D02*
X195037719Y-79943499D01*
X193745225Y-80481513D01*
X193053493Y-78819735D01*
X194345987Y-78281721D01*
X194345987Y-78281721D01*
G37*
G36*
X192501369Y-73850312D02*
X193193101Y-75512090D01*
X191900607Y-76050104D01*
X191208875Y-74388326D01*
X192501369Y-73850312D01*
X192501369Y-73850312D01*
G37*
G36*
X189454775Y-75118487D02*
X190146507Y-76780265D01*
X188854013Y-77318279D01*
X188162281Y-75656501D01*
X189454775Y-75118487D01*
X189454775Y-75118487D01*
G37*
G36*
X191269371Y-77396039D02*
X191653666Y-78319249D01*
X191192061Y-78511397D01*
X190807766Y-77588187D01*
X191269371Y-77396039D01*
X191269371Y-77396039D01*
G37*
G36*
X192007939Y-77088603D02*
X192392234Y-78011813D01*
X191930629Y-78203961D01*
X191546334Y-77280751D01*
X192007939Y-77088603D01*
X192007939Y-77088603D01*
G37*
G36*
X187445008Y-71774957D02*
X188446340Y-73270729D01*
X187282962Y-74049543D01*
X186281630Y-72553771D01*
X187445008Y-71774957D01*
X187445008Y-71774957D01*
G37*
G36*
X190187257Y-69939182D02*
X191188589Y-71434954D01*
X190025211Y-72213768D01*
X189023879Y-70717996D01*
X190187257Y-69939182D01*
X190187257Y-69939182D01*
G37*
G36*
X187517038Y-65950457D02*
X188518370Y-67446229D01*
X187354992Y-68225043D01*
X186353660Y-66729271D01*
X187517038Y-65950457D01*
X187517038Y-65950457D01*
G37*
G36*
X184774789Y-67786232D02*
X185776121Y-69282004D01*
X184612743Y-70060818D01*
X183611411Y-68565046D01*
X184774789Y-67786232D01*
X184774789Y-67786232D01*
G37*
G36*
X186997204Y-69667952D02*
X187553500Y-70498936D01*
X187138008Y-70777084D01*
X186581712Y-69946100D01*
X186997204Y-69667952D01*
X186997204Y-69667952D01*
G37*
G36*
X187661992Y-69222916D02*
X188218288Y-70053900D01*
X187802796Y-70332048D01*
X187246500Y-69501064D01*
X187661992Y-69222916D01*
X187661992Y-69222916D01*
G37*
G36*
X182188909Y-64932411D02*
X183461701Y-66205203D01*
X182471751Y-67195153D01*
X181198959Y-65922361D01*
X182188909Y-64932411D01*
X182188909Y-64932411D01*
G37*
G36*
X184522361Y-62598959D02*
X185795153Y-63871751D01*
X184805203Y-64861701D01*
X183532411Y-63588909D01*
X184522361Y-62598959D01*
X184522361Y-62598959D01*
G37*
G36*
X181128249Y-59204847D02*
X182401041Y-60477639D01*
X181411091Y-61467589D01*
X180138299Y-60194797D01*
X181128249Y-59204847D01*
X181128249Y-59204847D01*
G37*
G36*
X178794797Y-61538299D02*
X180067589Y-62811091D01*
X179077639Y-63801041D01*
X177804847Y-62528249D01*
X178794797Y-61538299D01*
X178794797Y-61538299D01*
G37*
G36*
X181340380Y-62952513D02*
X182047487Y-63659620D01*
X181693934Y-64013173D01*
X180986827Y-63306066D01*
X181340380Y-62952513D01*
X181340380Y-62952513D01*
G37*
G36*
X181906066Y-62386827D02*
X182613173Y-63093934D01*
X182259620Y-63447487D01*
X181552513Y-62740380D01*
X181906066Y-62386827D01*
X181906066Y-62386827D01*
G37*
G36*
X175717996Y-59223879D02*
X177213768Y-60225211D01*
X176434954Y-61388589D01*
X174939182Y-60387257D01*
X175717996Y-59223879D01*
X175717996Y-59223879D01*
G37*
G36*
X177553771Y-56481630D02*
X179049543Y-57482962D01*
X178270729Y-58646340D01*
X176774957Y-57645008D01*
X177553771Y-56481630D01*
X177553771Y-56481630D01*
G37*
G36*
X173565046Y-53811411D02*
X175060818Y-54812743D01*
X174282004Y-55976121D01*
X172786232Y-54974789D01*
X173565046Y-53811411D01*
X173565046Y-53811411D01*
G37*
G36*
X171729271Y-56553660D02*
X173225043Y-57554992D01*
X172446229Y-58718370D01*
X170950457Y-57717038D01*
X171729271Y-56553660D01*
X171729271Y-56553660D01*
G37*
G36*
X174501064Y-57446500D02*
X175332048Y-58002796D01*
X175053900Y-58418288D01*
X174222916Y-57861992D01*
X174501064Y-57446500D01*
X174501064Y-57446500D01*
G37*
G36*
X174946100Y-56781712D02*
X175777084Y-57338008D01*
X175498936Y-57753500D01*
X174667952Y-57197204D01*
X174946100Y-56781712D01*
X174946100Y-56781712D01*
G37*
G36*
X168222270Y-54851710D02*
X169885253Y-55540540D01*
X169349496Y-56833972D01*
X167686513Y-56145142D01*
X168222270Y-54851710D01*
X168222270Y-54851710D01*
G37*
G36*
X169485126Y-51802908D02*
X171148109Y-52491738D01*
X170612352Y-53785170D01*
X168949369Y-53096340D01*
X169485126Y-51802908D01*
X169485126Y-51802908D01*
G37*
G36*
X165050504Y-49966028D02*
X166713487Y-50654858D01*
X166177730Y-51948290D01*
X164514747Y-51259460D01*
X165050504Y-49966028D01*
X165050504Y-49966028D01*
G37*
G36*
X163787648Y-53014830D02*
X165450631Y-53703660D01*
X164914874Y-54997092D01*
X163251891Y-54308262D01*
X163787648Y-53014830D01*
X163787648Y-53014830D01*
G37*
G36*
X166680658Y-53347240D02*
X167604538Y-53729924D01*
X167413196Y-54191864D01*
X166489316Y-53809180D01*
X166680658Y-53347240D01*
X166680658Y-53347240D01*
G37*
G36*
X166986804Y-52608136D02*
X167910684Y-52990820D01*
X167719342Y-53452760D01*
X166795462Y-53070076D01*
X166986804Y-52608136D01*
X166986804Y-52608136D01*
G37*
G36*
X160084773Y-52125503D02*
X161849879Y-52478206D01*
X161575555Y-53851067D01*
X159810449Y-53498364D01*
X160084773Y-52125503D01*
X160084773Y-52125503D01*
G37*
G36*
X160731395Y-48889475D02*
X162496501Y-49242178D01*
X162222177Y-50615039D01*
X160457071Y-50262336D01*
X160731395Y-48889475D01*
X160731395Y-48889475D01*
G37*
G36*
X156024445Y-47948933D02*
X157789551Y-48301636D01*
X157515227Y-49674497D01*
X155750121Y-49321794D01*
X156024445Y-47948933D01*
X156024445Y-47948933D01*
G37*
G36*
X155377823Y-51184961D02*
X157142929Y-51537664D01*
X156868605Y-52910525D01*
X155103499Y-52557822D01*
X155377823Y-51184961D01*
X155377823Y-51184961D01*
G37*
G36*
X158280301Y-50949119D02*
X159260916Y-51145065D01*
X159162943Y-51635373D01*
X158182328Y-51439427D01*
X158280301Y-50949119D01*
X158280301Y-50949119D01*
G37*
G36*
X158437057Y-50164627D02*
X159417672Y-50360573D01*
X159319699Y-50850881D01*
X158339084Y-50654935D01*
X158437057Y-50164627D01*
X158437057Y-50164627D01*
G37*
D20*
X152400000Y-51650000D03*
X152400000Y-48350000D03*
X147600000Y-48350000D03*
X147600000Y-51650000D03*
D21*
X150000000Y-50400000D03*
X150000000Y-49600000D03*
M02*
