%FSLAX34Y34*%
G04 Gerber Fmt 3.4, Leading zero omitted, Abs format*
G04 (created by PCBNEW (2014-06-29 BZR 4957)-product) date Sun 17 Aug 2014 05:39:30 PM CEST*
%MOIN*%
G01*
G70*
G90*
G04 APERTURE LIST*
%ADD10C,0.003937*%
%ADD11R,0.055118X0.039370*%
%ADD12R,0.039370X0.039370*%
%ADD13R,0.015748X0.039370*%
%ADD14C,0.078740*%
%ADD15R,0.098400X0.129900*%
%ADD16R,0.070866X0.070866*%
%ADD17R,0.055118X0.149606*%
%ADD18R,0.059000X0.051100*%
%ADD19R,0.051100X0.059000*%
%ADD20R,0.055118X0.070866*%
%ADD21R,0.019685X0.039370*%
%ADD22R,0.070866X0.055118*%
%ADD23R,0.039370X0.019685*%
%ADD24R,0.043300X0.039300*%
G04 APERTURE END LIST*
G54D10*
G54D11*
X57696Y-25649D03*
X57696Y-24901D03*
X58562Y-25275D03*
G54D12*
X58267Y-24901D03*
G54D13*
X58377Y-25078D03*
G54D11*
X60413Y-24901D03*
X60413Y-25649D03*
X59547Y-25275D03*
G54D12*
X59842Y-25649D03*
G54D13*
X59740Y-25472D03*
G54D14*
X57562Y-51232D03*
X58562Y-51232D03*
X59562Y-51232D03*
X60562Y-51232D03*
G54D15*
X57716Y-49094D03*
X60394Y-49094D03*
G54D16*
X56338Y-49094D03*
X55157Y-49094D03*
G54D17*
X56653Y-49094D03*
X54842Y-49094D03*
G54D16*
X61771Y-49094D03*
X62952Y-49094D03*
G54D17*
X61456Y-49094D03*
X63267Y-49094D03*
G54D10*
G36*
X56543Y-21516D02*
X56659Y-22095D01*
X56158Y-22195D01*
X56042Y-21616D01*
X56543Y-21516D01*
X56543Y-21516D01*
G37*
G36*
X55810Y-21663D02*
X55925Y-22241D01*
X55424Y-22341D01*
X55309Y-21763D01*
X55810Y-21663D01*
X55810Y-21663D01*
G37*
G36*
X53500Y-22321D02*
X53725Y-22866D01*
X53253Y-23061D01*
X53028Y-22516D01*
X53500Y-22321D01*
X53500Y-22321D01*
G37*
G36*
X52809Y-22607D02*
X53034Y-23152D01*
X52562Y-23348D01*
X52337Y-22803D01*
X52809Y-22607D01*
X52809Y-22607D01*
G37*
G36*
X50634Y-23735D02*
X50962Y-24225D01*
X50538Y-24509D01*
X50209Y-24019D01*
X50634Y-23735D01*
X50634Y-23735D01*
G37*
G36*
X50013Y-24151D02*
X50341Y-24641D01*
X49916Y-24926D01*
X49588Y-24435D01*
X50013Y-24151D01*
X50013Y-24151D01*
G37*
G36*
X48149Y-25606D02*
X48567Y-26023D01*
X48205Y-26384D01*
X47788Y-25967D01*
X48149Y-25606D01*
X48149Y-25606D01*
G37*
G36*
X47620Y-26135D02*
X48038Y-26552D01*
X47676Y-26913D01*
X47259Y-26496D01*
X47620Y-26135D01*
X47620Y-26135D01*
G37*
G36*
X46068Y-27974D02*
X46559Y-28301D01*
X46275Y-28726D01*
X45784Y-28399D01*
X46068Y-27974D01*
X46068Y-27974D01*
G37*
G36*
X45653Y-28596D02*
X46144Y-28923D01*
X45860Y-29348D01*
X45369Y-29021D01*
X45653Y-28596D01*
X45653Y-28596D01*
G37*
G36*
X44476Y-30683D02*
X45021Y-30909D01*
X44825Y-31381D01*
X44280Y-31155D01*
X44476Y-30683D01*
X44476Y-30683D01*
G37*
G36*
X44189Y-31374D02*
X44735Y-31600D01*
X44539Y-32072D01*
X43994Y-31846D01*
X44189Y-31374D01*
X44189Y-31374D01*
G37*
G36*
X43435Y-33675D02*
X44014Y-33790D01*
X43914Y-34291D01*
X43335Y-34176D01*
X43435Y-33675D01*
X43435Y-33675D01*
G37*
G36*
X43289Y-34409D02*
X43868Y-34523D01*
X43769Y-35025D01*
X43190Y-34910D01*
X43289Y-34409D01*
X43289Y-34409D01*
G37*
G54D18*
X43307Y-37027D03*
X43307Y-37775D03*
G54D10*
G36*
X43189Y-39912D02*
X43768Y-39797D01*
X43868Y-40298D01*
X43289Y-40414D01*
X43189Y-39912D01*
X43189Y-39912D01*
G37*
G36*
X43336Y-40646D02*
X43914Y-40530D01*
X44014Y-41031D01*
X43436Y-41147D01*
X43336Y-40646D01*
X43336Y-40646D01*
G37*
G36*
X43994Y-42976D02*
X44539Y-42750D01*
X44735Y-43222D01*
X44189Y-43448D01*
X43994Y-42976D01*
X43994Y-42976D01*
G37*
G36*
X44280Y-43667D02*
X44825Y-43441D01*
X45021Y-43913D01*
X44476Y-44139D01*
X44280Y-43667D01*
X44280Y-43667D01*
G37*
G36*
X45349Y-45782D02*
X45839Y-45454D01*
X46124Y-45879D01*
X45633Y-46207D01*
X45349Y-45782D01*
X45349Y-45782D01*
G37*
G36*
X45765Y-46404D02*
X46255Y-46076D01*
X46540Y-46500D01*
X46049Y-46828D01*
X45765Y-46404D01*
X45765Y-46404D01*
G37*
G36*
X47259Y-48306D02*
X47676Y-47889D01*
X48038Y-48250D01*
X47620Y-48668D01*
X47259Y-48306D01*
X47259Y-48306D01*
G37*
G36*
X47788Y-48835D02*
X48205Y-48418D01*
X48567Y-48779D01*
X48149Y-49197D01*
X47788Y-48835D01*
X47788Y-48835D01*
G37*
G36*
X49607Y-50388D02*
X49935Y-49897D01*
X50360Y-50180D01*
X50033Y-50671D01*
X49607Y-50388D01*
X49607Y-50388D01*
G37*
G36*
X50230Y-50803D02*
X50557Y-50312D01*
X50982Y-50595D01*
X50655Y-51086D01*
X50230Y-50803D01*
X50230Y-50803D01*
G37*
G36*
X52337Y-51980D02*
X52562Y-51435D01*
X53034Y-51630D01*
X52809Y-52176D01*
X52337Y-51980D01*
X52337Y-51980D01*
G37*
G36*
X53028Y-52266D02*
X53253Y-51721D01*
X53725Y-51917D01*
X53500Y-52462D01*
X53028Y-52266D01*
X53028Y-52266D01*
G37*
G36*
X55289Y-53001D02*
X55404Y-52422D01*
X55905Y-52522D01*
X55791Y-53101D01*
X55289Y-53001D01*
X55289Y-53001D01*
G37*
G36*
X56023Y-53147D02*
X56138Y-52568D01*
X56639Y-52667D01*
X56524Y-53246D01*
X56023Y-53147D01*
X56023Y-53147D01*
G37*
G36*
X61563Y-53243D02*
X61452Y-52664D01*
X61953Y-52567D01*
X62065Y-53146D01*
X61563Y-53243D01*
X61563Y-53243D01*
G37*
G36*
X62298Y-53101D02*
X62186Y-52522D01*
X62688Y-52425D01*
X62799Y-53005D01*
X62298Y-53101D01*
X62298Y-53101D01*
G37*
G54D19*
X58681Y-53149D03*
X59429Y-53149D03*
G54D10*
G36*
X64612Y-52445D02*
X64384Y-51901D01*
X64855Y-51703D01*
X65083Y-52247D01*
X64612Y-52445D01*
X64612Y-52445D01*
G37*
G36*
X65302Y-52155D02*
X65073Y-51611D01*
X65544Y-51413D01*
X65773Y-51957D01*
X65302Y-52155D01*
X65302Y-52155D01*
G37*
G36*
X67398Y-51108D02*
X67069Y-50619D01*
X67492Y-50333D01*
X67822Y-50822D01*
X67398Y-51108D01*
X67398Y-51108D01*
G37*
G36*
X68019Y-50690D02*
X67689Y-50200D01*
X68112Y-49915D01*
X68442Y-50404D01*
X68019Y-50690D01*
X68019Y-50690D01*
G37*
G36*
X69960Y-49197D02*
X69543Y-48779D01*
X69904Y-48418D01*
X70321Y-48835D01*
X69960Y-49197D01*
X69960Y-49197D01*
G37*
G36*
X70489Y-48668D02*
X70072Y-48250D01*
X70433Y-47889D01*
X70850Y-48306D01*
X70489Y-48668D01*
X70489Y-48668D01*
G37*
G36*
X72060Y-46828D02*
X71570Y-46500D01*
X71854Y-46076D01*
X72344Y-46404D01*
X72060Y-46828D01*
X72060Y-46828D01*
G37*
G36*
X72476Y-46207D02*
X71986Y-45879D01*
X72270Y-45454D01*
X72760Y-45782D01*
X72476Y-46207D01*
X72476Y-46207D01*
G37*
G36*
X73634Y-44119D02*
X73088Y-43893D01*
X73284Y-43421D01*
X73829Y-43647D01*
X73634Y-44119D01*
X73634Y-44119D01*
G37*
G36*
X73920Y-43428D02*
X73375Y-43202D01*
X73570Y-42730D01*
X74115Y-42956D01*
X73920Y-43428D01*
X73920Y-43428D01*
G37*
G36*
X74654Y-41167D02*
X74075Y-41051D01*
X74175Y-40550D01*
X74754Y-40666D01*
X74654Y-41167D01*
X74654Y-41167D01*
G37*
G36*
X74800Y-40433D02*
X74222Y-40318D01*
X74322Y-39817D01*
X74900Y-39932D01*
X74800Y-40433D01*
X74800Y-40433D01*
G37*
G54D18*
X74803Y-37775D03*
X74803Y-37027D03*
G54D10*
G36*
X74919Y-34890D02*
X74340Y-35005D01*
X74241Y-34504D01*
X74820Y-34389D01*
X74919Y-34890D01*
X74919Y-34890D01*
G37*
G36*
X74774Y-34157D02*
X74195Y-34271D01*
X74096Y-33770D01*
X74674Y-33655D01*
X74774Y-34157D01*
X74774Y-34157D01*
G37*
G36*
X74115Y-31846D02*
X73570Y-32072D01*
X73375Y-31600D01*
X73920Y-31374D01*
X74115Y-31846D01*
X74115Y-31846D01*
G37*
G36*
X73829Y-31155D02*
X73284Y-31381D01*
X73088Y-30909D01*
X73634Y-30683D01*
X73829Y-31155D01*
X73829Y-31155D01*
G37*
G36*
X72740Y-29000D02*
X72250Y-29328D01*
X71966Y-28904D01*
X72456Y-28576D01*
X72740Y-29000D01*
X72740Y-29000D01*
G37*
G36*
X72324Y-28379D02*
X71834Y-28707D01*
X71550Y-28282D01*
X72040Y-27954D01*
X72324Y-28379D01*
X72324Y-28379D01*
G37*
G36*
X70850Y-26496D02*
X70433Y-26913D01*
X70072Y-26552D01*
X70489Y-26135D01*
X70850Y-26496D01*
X70850Y-26496D01*
G37*
G36*
X70321Y-25967D02*
X69904Y-26384D01*
X69543Y-26023D01*
X69960Y-25606D01*
X70321Y-25967D01*
X70321Y-25967D01*
G37*
G36*
X68522Y-24429D02*
X68198Y-24922D01*
X67771Y-24642D01*
X68095Y-24149D01*
X68522Y-24429D01*
X68522Y-24429D01*
G37*
G36*
X67897Y-24019D02*
X67573Y-24512D01*
X67146Y-24231D01*
X67470Y-23738D01*
X67897Y-24019D01*
X67897Y-24019D01*
G37*
G36*
X65773Y-22803D02*
X65547Y-23348D01*
X65075Y-23152D01*
X65301Y-22607D01*
X65773Y-22803D01*
X65773Y-22803D01*
G37*
G36*
X65082Y-22516D02*
X64856Y-23061D01*
X64384Y-22866D01*
X64610Y-22321D01*
X65082Y-22516D01*
X65082Y-22516D01*
G37*
G36*
X62801Y-21802D02*
X62685Y-22381D01*
X62184Y-22281D01*
X62299Y-21702D01*
X62801Y-21802D01*
X62801Y-21802D01*
G37*
G36*
X62067Y-21656D02*
X61951Y-22234D01*
X61450Y-22134D01*
X61566Y-21555D01*
X62067Y-21656D01*
X62067Y-21656D01*
G37*
G54D19*
X59429Y-21653D03*
X58681Y-21653D03*
G54D16*
X59724Y-26574D03*
X58385Y-26574D03*
G54D10*
G36*
X56830Y-19418D02*
X56135Y-19556D01*
X56027Y-19016D01*
X56722Y-18877D01*
X56830Y-19418D01*
X56830Y-19418D01*
G37*
G36*
X57085Y-20692D02*
X56390Y-20830D01*
X56282Y-20290D01*
X56977Y-20151D01*
X57085Y-20692D01*
X57085Y-20692D01*
G37*
G36*
X55232Y-21062D02*
X54537Y-21201D01*
X54429Y-20660D01*
X55124Y-20521D01*
X55232Y-21062D01*
X55232Y-21062D01*
G37*
G36*
X54977Y-19788D02*
X54282Y-19927D01*
X54174Y-19386D01*
X54869Y-19247D01*
X54977Y-19788D01*
X54977Y-19788D01*
G37*
G36*
X55811Y-19942D02*
X55425Y-20020D01*
X55386Y-19826D01*
X55772Y-19749D01*
X55811Y-19942D01*
X55811Y-19942D01*
G37*
G36*
X55873Y-20251D02*
X55487Y-20328D01*
X55448Y-20135D01*
X55834Y-20058D01*
X55873Y-20251D01*
X55873Y-20251D01*
G37*
G36*
X53340Y-20180D02*
X52685Y-20452D01*
X52475Y-19942D01*
X53129Y-19671D01*
X53340Y-20180D01*
X53340Y-20180D01*
G37*
G36*
X53837Y-21381D02*
X53183Y-21652D01*
X52972Y-21143D01*
X53626Y-20871D01*
X53837Y-21381D01*
X53837Y-21381D01*
G37*
G36*
X52091Y-22104D02*
X51437Y-22375D01*
X51226Y-21866D01*
X51880Y-21595D01*
X52091Y-22104D01*
X52091Y-22104D01*
G37*
G36*
X51594Y-20904D02*
X50940Y-21175D01*
X50729Y-20666D01*
X51383Y-20394D01*
X51594Y-20904D01*
X51594Y-20904D01*
G37*
G36*
X52442Y-20893D02*
X52078Y-21044D01*
X52003Y-20862D01*
X52367Y-20711D01*
X52442Y-20893D01*
X52442Y-20893D01*
G37*
G36*
X52563Y-21184D02*
X52199Y-21335D01*
X52124Y-21153D01*
X52487Y-21002D01*
X52563Y-21184D01*
X52563Y-21184D01*
G37*
G36*
X50084Y-21643D02*
X49495Y-22037D01*
X49188Y-21579D01*
X49777Y-21185D01*
X50084Y-21643D01*
X50084Y-21643D01*
G37*
G36*
X50806Y-22723D02*
X50218Y-23117D01*
X49911Y-22659D01*
X50500Y-22265D01*
X50806Y-22723D01*
X50806Y-22723D01*
G37*
G36*
X49236Y-23774D02*
X48647Y-24168D01*
X48341Y-23710D01*
X48929Y-23316D01*
X49236Y-23774D01*
X49236Y-23774D01*
G37*
G36*
X48513Y-22694D02*
X47924Y-23089D01*
X47618Y-22631D01*
X48207Y-22236D01*
X48513Y-22694D01*
X48513Y-22694D01*
G37*
G36*
X49343Y-22518D02*
X49016Y-22737D01*
X48906Y-22574D01*
X49233Y-22355D01*
X49343Y-22518D01*
X49343Y-22518D01*
G37*
G36*
X49518Y-22780D02*
X49191Y-22999D01*
X49081Y-22835D01*
X49409Y-22616D01*
X49518Y-22780D01*
X49518Y-22780D01*
G37*
G36*
X47169Y-23698D02*
X46668Y-24199D01*
X46279Y-23810D01*
X46780Y-23308D01*
X47169Y-23698D01*
X47169Y-23698D01*
G37*
G36*
X48088Y-24617D02*
X47587Y-25118D01*
X47197Y-24728D01*
X47698Y-24227D01*
X48088Y-24617D01*
X48088Y-24617D01*
G37*
G36*
X46752Y-25953D02*
X46251Y-26454D01*
X45861Y-26065D01*
X46362Y-25563D01*
X46752Y-25953D01*
X46752Y-25953D01*
G37*
G36*
X45833Y-25035D02*
X45332Y-25536D01*
X44942Y-25146D01*
X45443Y-24645D01*
X45833Y-25035D01*
X45833Y-25035D01*
G37*
G36*
X46613Y-24700D02*
X46334Y-24979D01*
X46195Y-24840D01*
X46473Y-24561D01*
X46613Y-24700D01*
X46613Y-24700D01*
G37*
G36*
X46835Y-24923D02*
X46557Y-25202D01*
X46418Y-25062D01*
X46696Y-24784D01*
X46835Y-24923D01*
X46835Y-24923D01*
G37*
G36*
X44720Y-26290D02*
X44327Y-26879D01*
X43868Y-26574D01*
X44262Y-25984D01*
X44720Y-26290D01*
X44720Y-26290D01*
G37*
G36*
X45801Y-27011D02*
X45408Y-27600D01*
X44949Y-27294D01*
X45343Y-26705D01*
X45801Y-27011D01*
X45801Y-27011D01*
G37*
G36*
X44753Y-28583D02*
X44359Y-29172D01*
X43901Y-28867D01*
X44294Y-28277D01*
X44753Y-28583D01*
X44753Y-28583D01*
G37*
G36*
X43672Y-27862D02*
X43278Y-28452D01*
X42820Y-28146D01*
X43213Y-27556D01*
X43672Y-27862D01*
X43672Y-27862D01*
G37*
G36*
X44371Y-27382D02*
X44152Y-27709D01*
X43988Y-27600D01*
X44207Y-27272D01*
X44371Y-27382D01*
X44371Y-27382D01*
G37*
G36*
X44633Y-27556D02*
X44414Y-27884D01*
X44250Y-27775D01*
X44469Y-27447D01*
X44633Y-27556D01*
X44633Y-27556D01*
G37*
G36*
X42828Y-29286D02*
X42557Y-29941D01*
X42048Y-29730D01*
X42319Y-29075D01*
X42828Y-29286D01*
X42828Y-29286D01*
G37*
G36*
X44029Y-29783D02*
X43757Y-30438D01*
X43248Y-30227D01*
X43519Y-29572D01*
X44029Y-29783D01*
X44029Y-29783D01*
G37*
G36*
X43305Y-31529D02*
X43034Y-32184D01*
X42525Y-31973D01*
X42796Y-31318D01*
X43305Y-31529D01*
X43305Y-31529D01*
G37*
G36*
X42105Y-31032D02*
X41834Y-31687D01*
X41325Y-31476D01*
X41596Y-30821D01*
X42105Y-31032D01*
X42105Y-31032D01*
G37*
G36*
X42697Y-30425D02*
X42547Y-30789D01*
X42365Y-30713D01*
X42516Y-30350D01*
X42697Y-30425D01*
X42697Y-30425D01*
G37*
G36*
X42988Y-30545D02*
X42838Y-30909D01*
X42656Y-30834D01*
X42807Y-30470D01*
X42988Y-30545D01*
X42988Y-30545D01*
G37*
G36*
X41558Y-32609D02*
X41421Y-33304D01*
X40880Y-33197D01*
X41018Y-32502D01*
X41558Y-32609D01*
X41558Y-32609D01*
G37*
G36*
X42833Y-32861D02*
X42695Y-33557D01*
X42154Y-33450D01*
X42292Y-32754D01*
X42833Y-32861D01*
X42833Y-32861D01*
G37*
G36*
X42466Y-34715D02*
X42328Y-35410D01*
X41787Y-35303D01*
X41925Y-34608D01*
X42466Y-34715D01*
X42466Y-34715D01*
G37*
G36*
X41191Y-34463D02*
X41053Y-35158D01*
X40513Y-35051D01*
X40650Y-34356D01*
X41191Y-34463D01*
X41191Y-34463D01*
G37*
G36*
X41653Y-33752D02*
X41577Y-34138D01*
X41383Y-34100D01*
X41460Y-33713D01*
X41653Y-33752D01*
X41653Y-33752D01*
G37*
G36*
X41962Y-33813D02*
X41886Y-34199D01*
X41692Y-34161D01*
X41769Y-33775D01*
X41962Y-33813D01*
X41962Y-33813D01*
G37*
G54D20*
X40688Y-36456D03*
X41988Y-36456D03*
X41988Y-38346D03*
X40688Y-38346D03*
G54D21*
X41181Y-37401D03*
X41496Y-37401D03*
G54D10*
G36*
X41051Y-39645D02*
X41190Y-40340D01*
X40650Y-40448D01*
X40511Y-39753D01*
X41051Y-39645D01*
X41051Y-39645D01*
G37*
G36*
X42325Y-39391D02*
X42464Y-40086D01*
X41924Y-40194D01*
X41785Y-39499D01*
X42325Y-39391D01*
X42325Y-39391D01*
G37*
G36*
X42696Y-41244D02*
X42835Y-41939D01*
X42294Y-42047D01*
X42155Y-41352D01*
X42696Y-41244D01*
X42696Y-41244D01*
G37*
G36*
X41422Y-41498D02*
X41561Y-42193D01*
X41020Y-42301D01*
X40881Y-41606D01*
X41422Y-41498D01*
X41422Y-41498D01*
G37*
G36*
X41576Y-40664D02*
X41653Y-41051D01*
X41460Y-41089D01*
X41383Y-40703D01*
X41576Y-40664D01*
X41576Y-40664D01*
G37*
G36*
X41885Y-40603D02*
X41962Y-40989D01*
X41769Y-41027D01*
X41692Y-40641D01*
X41885Y-40603D01*
X41885Y-40603D01*
G37*
G36*
X41854Y-43155D02*
X42125Y-43810D01*
X41616Y-44021D01*
X41344Y-43366D01*
X41854Y-43155D01*
X41854Y-43155D01*
G37*
G36*
X43054Y-42658D02*
X43325Y-43312D01*
X42816Y-43523D01*
X42545Y-42869D01*
X43054Y-42658D01*
X43054Y-42658D01*
G37*
G36*
X43777Y-44404D02*
X44048Y-45058D01*
X43539Y-45269D01*
X43268Y-44615D01*
X43777Y-44404D01*
X43777Y-44404D01*
G37*
G36*
X42577Y-44901D02*
X42848Y-45556D01*
X42339Y-45766D01*
X42068Y-45112D01*
X42577Y-44901D01*
X42577Y-44901D01*
G37*
G36*
X42566Y-44053D02*
X42717Y-44417D01*
X42535Y-44492D01*
X42385Y-44128D01*
X42566Y-44053D01*
X42566Y-44053D01*
G37*
G36*
X42857Y-43932D02*
X43008Y-44296D01*
X42826Y-44371D01*
X42676Y-44008D01*
X42857Y-43932D01*
X42857Y-43932D01*
G37*
G36*
X43277Y-46352D02*
X43671Y-46941D01*
X43213Y-47248D01*
X42819Y-46659D01*
X43277Y-46352D01*
X43277Y-46352D01*
G37*
G36*
X44357Y-45630D02*
X44751Y-46218D01*
X44293Y-46525D01*
X43899Y-45936D01*
X44357Y-45630D01*
X44357Y-45630D01*
G37*
G36*
X45408Y-47200D02*
X45802Y-47789D01*
X45344Y-48095D01*
X44950Y-47507D01*
X45408Y-47200D01*
X45408Y-47200D01*
G37*
G36*
X44328Y-47923D02*
X44722Y-48512D01*
X44264Y-48818D01*
X43870Y-48229D01*
X44328Y-47923D01*
X44328Y-47923D01*
G37*
G36*
X44152Y-47093D02*
X44371Y-47420D01*
X44207Y-47530D01*
X43988Y-47203D01*
X44152Y-47093D01*
X44152Y-47093D01*
G37*
G36*
X44414Y-46918D02*
X44633Y-47245D01*
X44469Y-47355D01*
X44250Y-47027D01*
X44414Y-46918D01*
X44414Y-46918D01*
G37*
G36*
X45352Y-49286D02*
X45853Y-49787D01*
X45463Y-50177D01*
X44962Y-49676D01*
X45352Y-49286D01*
X45352Y-49286D01*
G37*
G36*
X46270Y-48368D02*
X46772Y-48869D01*
X46382Y-49258D01*
X45881Y-48757D01*
X46270Y-48368D01*
X46270Y-48368D01*
G37*
G36*
X47607Y-49704D02*
X48108Y-50205D01*
X47718Y-50595D01*
X47217Y-50094D01*
X47607Y-49704D01*
X47607Y-49704D01*
G37*
G36*
X46688Y-50622D02*
X47189Y-51124D01*
X46799Y-51513D01*
X46298Y-51012D01*
X46688Y-50622D01*
X46688Y-50622D01*
G37*
G36*
X46354Y-49843D02*
X46632Y-50121D01*
X46493Y-50261D01*
X46215Y-49982D01*
X46354Y-49843D01*
X46354Y-49843D01*
G37*
G36*
X46577Y-49620D02*
X46855Y-49899D01*
X46716Y-50038D01*
X46437Y-49759D01*
X46577Y-49620D01*
X46577Y-49620D01*
G37*
G36*
X47904Y-51716D02*
X48494Y-52109D01*
X48188Y-52568D01*
X47598Y-52174D01*
X47904Y-51716D01*
X47904Y-51716D01*
G37*
G36*
X48625Y-50635D02*
X49214Y-51028D01*
X48909Y-51487D01*
X48319Y-51093D01*
X48625Y-50635D01*
X48625Y-50635D01*
G37*
G36*
X50197Y-51683D02*
X50787Y-52077D01*
X50481Y-52535D01*
X49891Y-52142D01*
X50197Y-51683D01*
X50197Y-51683D01*
G37*
G36*
X49476Y-52764D02*
X50066Y-53158D01*
X49760Y-53616D01*
X49170Y-53223D01*
X49476Y-52764D01*
X49476Y-52764D01*
G37*
G36*
X48996Y-52065D02*
X49323Y-52284D01*
X49214Y-52448D01*
X48887Y-52229D01*
X48996Y-52065D01*
X48996Y-52065D01*
G37*
G36*
X49171Y-51803D02*
X49498Y-52022D01*
X49389Y-52186D01*
X49061Y-51967D01*
X49171Y-51803D01*
X49171Y-51803D01*
G37*
G36*
X50940Y-53627D02*
X51594Y-53899D01*
X51383Y-54408D01*
X50729Y-54137D01*
X50940Y-53627D01*
X50940Y-53627D01*
G37*
G36*
X51437Y-52427D02*
X52091Y-52698D01*
X51880Y-53207D01*
X51226Y-52936D01*
X51437Y-52427D01*
X51437Y-52427D01*
G37*
G36*
X53183Y-53150D02*
X53837Y-53421D01*
X53626Y-53931D01*
X52972Y-53659D01*
X53183Y-53150D01*
X53183Y-53150D01*
G37*
G36*
X52685Y-54351D02*
X53340Y-54622D01*
X53129Y-55131D01*
X52475Y-54860D01*
X52685Y-54351D01*
X52685Y-54351D01*
G37*
G36*
X52078Y-53758D02*
X52442Y-53909D01*
X52367Y-54091D01*
X52003Y-53940D01*
X52078Y-53758D01*
X52078Y-53758D01*
G37*
G36*
X52199Y-53467D02*
X52563Y-53618D01*
X52487Y-53800D01*
X52124Y-53649D01*
X52199Y-53467D01*
X52199Y-53467D01*
G37*
G36*
X54223Y-54898D02*
X54918Y-55035D01*
X54811Y-55576D01*
X54116Y-55438D01*
X54223Y-54898D01*
X54223Y-54898D01*
G37*
G36*
X54476Y-53623D02*
X55171Y-53761D01*
X55064Y-54301D01*
X54369Y-54164D01*
X54476Y-53623D01*
X54476Y-53623D01*
G37*
G36*
X56329Y-53990D02*
X57025Y-54128D01*
X56917Y-54668D01*
X56222Y-54531D01*
X56329Y-53990D01*
X56329Y-53990D01*
G37*
G36*
X56077Y-55265D02*
X56772Y-55402D01*
X56665Y-55943D01*
X55970Y-55805D01*
X56077Y-55265D01*
X56077Y-55265D01*
G37*
G36*
X55366Y-54803D02*
X55752Y-54879D01*
X55714Y-55072D01*
X55328Y-54996D01*
X55366Y-54803D01*
X55366Y-54803D01*
G37*
G36*
X55427Y-54494D02*
X55813Y-54570D01*
X55775Y-54763D01*
X55389Y-54687D01*
X55427Y-54494D01*
X55427Y-54494D01*
G37*
G54D22*
X58110Y-55767D03*
X58110Y-54468D03*
X60000Y-54468D03*
X60000Y-55767D03*
G54D23*
X59055Y-55275D03*
X59055Y-54960D03*
G54D10*
G36*
X61282Y-55391D02*
X61977Y-55248D01*
X62087Y-55788D01*
X61393Y-55931D01*
X61282Y-55391D01*
X61282Y-55391D01*
G37*
G36*
X61021Y-54118D02*
X61715Y-53976D01*
X61826Y-54516D01*
X61132Y-54658D01*
X61021Y-54118D01*
X61021Y-54118D01*
G37*
G36*
X62872Y-53738D02*
X63566Y-53596D01*
X63677Y-54136D01*
X62983Y-54278D01*
X62872Y-53738D01*
X62872Y-53738D01*
G37*
G36*
X63134Y-55011D02*
X63828Y-54868D01*
X63939Y-55408D01*
X63244Y-55551D01*
X63134Y-55011D01*
X63134Y-55011D01*
G37*
G36*
X62299Y-54861D02*
X62685Y-54782D01*
X62724Y-54974D01*
X62338Y-55054D01*
X62299Y-54861D01*
X62299Y-54861D01*
G37*
G36*
X62236Y-54552D02*
X62621Y-54473D01*
X62661Y-54666D01*
X62275Y-54745D01*
X62236Y-54552D01*
X62236Y-54552D01*
G37*
G36*
X64774Y-54627D02*
X65427Y-54353D01*
X65640Y-54861D01*
X64987Y-55135D01*
X64774Y-54627D01*
X64774Y-54627D01*
G37*
G36*
X64270Y-53430D02*
X64923Y-53155D01*
X65137Y-53663D01*
X64484Y-53938D01*
X64270Y-53430D01*
X64270Y-53430D01*
G37*
G36*
X66012Y-52697D02*
X66665Y-52423D01*
X66879Y-52931D01*
X66226Y-53205D01*
X66012Y-52697D01*
X66012Y-52697D01*
G37*
G36*
X66516Y-53895D02*
X67169Y-53620D01*
X67382Y-54128D01*
X66729Y-54403D01*
X66516Y-53895D01*
X66516Y-53895D01*
G37*
G36*
X65668Y-53910D02*
X66031Y-53757D01*
X66107Y-53939D01*
X65744Y-54091D01*
X65668Y-53910D01*
X65668Y-53910D01*
G37*
G36*
X65546Y-53619D02*
X65909Y-53467D01*
X65985Y-53648D01*
X65622Y-53801D01*
X65546Y-53619D01*
X65546Y-53619D01*
G37*
G36*
X67990Y-53201D02*
X68577Y-52805D01*
X68886Y-53262D01*
X68298Y-53658D01*
X67990Y-53201D01*
X67990Y-53201D01*
G37*
G36*
X67263Y-52124D02*
X67851Y-51728D01*
X68159Y-52185D01*
X67572Y-52581D01*
X67263Y-52124D01*
X67263Y-52124D01*
G37*
G36*
X68830Y-51068D02*
X69418Y-50671D01*
X69726Y-51128D01*
X69138Y-51525D01*
X68830Y-51068D01*
X68830Y-51068D01*
G37*
G36*
X69557Y-52145D02*
X70144Y-51748D01*
X70452Y-52205D01*
X69865Y-52602D01*
X69557Y-52145D01*
X69557Y-52145D01*
G37*
G36*
X68728Y-52324D02*
X69054Y-52104D01*
X69164Y-52267D01*
X68838Y-52487D01*
X68728Y-52324D01*
X68728Y-52324D01*
G37*
G36*
X68551Y-52063D02*
X68878Y-51843D01*
X68988Y-52006D01*
X68662Y-52226D01*
X68551Y-52063D01*
X68551Y-52063D01*
G37*
G36*
X70922Y-51105D02*
X71422Y-50603D01*
X71813Y-50992D01*
X71313Y-51494D01*
X70922Y-51105D01*
X70922Y-51105D01*
G37*
G36*
X70002Y-50188D02*
X70502Y-49686D01*
X70893Y-50075D01*
X70392Y-50577D01*
X70002Y-50188D01*
X70002Y-50188D01*
G37*
G36*
X71336Y-48849D02*
X71836Y-48347D01*
X72226Y-48736D01*
X71726Y-49238D01*
X71336Y-48849D01*
X71336Y-48849D01*
G37*
G36*
X72256Y-49766D02*
X72756Y-49264D01*
X73147Y-49654D01*
X72647Y-50156D01*
X72256Y-49766D01*
X72256Y-49766D01*
G37*
G36*
X71477Y-50102D02*
X71755Y-49823D01*
X71895Y-49962D01*
X71617Y-50241D01*
X71477Y-50102D01*
X71477Y-50102D01*
G37*
G36*
X71254Y-49880D02*
X71532Y-49601D01*
X71671Y-49740D01*
X71394Y-50019D01*
X71254Y-49880D01*
X71254Y-49880D01*
G37*
G36*
X73369Y-48532D02*
X73763Y-47942D01*
X74221Y-48248D01*
X73828Y-48838D01*
X73369Y-48532D01*
X73369Y-48532D01*
G37*
G36*
X72288Y-47811D02*
X72682Y-47222D01*
X73140Y-47527D01*
X72747Y-48117D01*
X72288Y-47811D01*
X72288Y-47811D01*
G37*
G36*
X73337Y-46239D02*
X73730Y-45649D01*
X74189Y-45955D01*
X73796Y-46545D01*
X73337Y-46239D01*
X73337Y-46239D01*
G37*
G36*
X74418Y-46960D02*
X74811Y-46370D01*
X75270Y-46676D01*
X74876Y-47266D01*
X74418Y-46960D01*
X74418Y-46960D01*
G37*
G36*
X73719Y-47440D02*
X73937Y-47113D01*
X74101Y-47222D01*
X73883Y-47549D01*
X73719Y-47440D01*
X73719Y-47440D01*
G37*
G36*
X73457Y-47265D02*
X73675Y-46938D01*
X73839Y-47047D01*
X73621Y-47375D01*
X73457Y-47265D01*
X73457Y-47265D01*
G37*
G36*
X75281Y-45516D02*
X75552Y-44861D01*
X76061Y-45072D01*
X75790Y-45727D01*
X75281Y-45516D01*
X75281Y-45516D01*
G37*
G36*
X74081Y-45019D02*
X74352Y-44364D01*
X74861Y-44575D01*
X74590Y-45230D01*
X74081Y-45019D01*
X74081Y-45019D01*
G37*
G36*
X74804Y-43273D02*
X75075Y-42618D01*
X75584Y-42829D01*
X75313Y-43484D01*
X74804Y-43273D01*
X74804Y-43273D01*
G37*
G36*
X76004Y-43770D02*
X76275Y-43116D01*
X76785Y-43326D01*
X76513Y-43981D01*
X76004Y-43770D01*
X76004Y-43770D01*
G37*
G36*
X75412Y-44377D02*
X75562Y-44013D01*
X75744Y-44089D01*
X75594Y-44453D01*
X75412Y-44377D01*
X75412Y-44377D01*
G37*
G36*
X75121Y-44257D02*
X75271Y-43893D01*
X75453Y-43968D01*
X75303Y-44332D01*
X75121Y-44257D01*
X75121Y-44257D01*
G37*
G36*
X76529Y-42252D02*
X76668Y-41557D01*
X77208Y-41665D01*
X77070Y-42360D01*
X76529Y-42252D01*
X76529Y-42252D01*
G37*
G36*
X75255Y-41998D02*
X75394Y-41303D01*
X75934Y-41411D01*
X75795Y-42106D01*
X75255Y-41998D01*
X75255Y-41998D01*
G37*
G36*
X75625Y-40145D02*
X75764Y-39450D01*
X76305Y-39558D01*
X76166Y-40253D01*
X75625Y-40145D01*
X75625Y-40145D01*
G37*
G36*
X76899Y-40399D02*
X77038Y-39704D01*
X77579Y-39812D01*
X77440Y-40507D01*
X76899Y-40399D01*
X76899Y-40399D01*
G37*
G36*
X76436Y-41110D02*
X76513Y-40724D01*
X76706Y-40762D01*
X76629Y-41148D01*
X76436Y-41110D01*
X76436Y-41110D01*
G37*
G36*
X76127Y-41048D02*
X76204Y-40662D01*
X76397Y-40700D01*
X76320Y-41086D01*
X76127Y-41048D01*
X76127Y-41048D01*
G37*
G54D20*
X77421Y-38346D03*
X76122Y-38346D03*
X76122Y-36456D03*
X77421Y-36456D03*
G54D21*
X76929Y-37401D03*
X76614Y-37401D03*
G54D10*
G36*
X77036Y-35138D02*
X76898Y-34443D01*
X77439Y-34336D01*
X77577Y-35031D01*
X77036Y-35138D01*
X77036Y-35138D01*
G37*
G36*
X75762Y-35391D02*
X75624Y-34696D01*
X76165Y-34588D01*
X76302Y-35284D01*
X75762Y-35391D01*
X75762Y-35391D01*
G37*
G36*
X75395Y-33537D02*
X75257Y-32842D01*
X75798Y-32735D01*
X75935Y-33430D01*
X75395Y-33537D01*
X75395Y-33537D01*
G37*
G36*
X76669Y-33285D02*
X76531Y-32589D01*
X77072Y-32482D01*
X77210Y-33177D01*
X76669Y-33285D01*
X76669Y-33285D01*
G37*
G36*
X76513Y-34118D02*
X76437Y-33732D01*
X76630Y-33694D01*
X76706Y-34080D01*
X76513Y-34118D01*
X76513Y-34118D01*
G37*
G36*
X76204Y-34179D02*
X76128Y-33793D01*
X76321Y-33755D01*
X76397Y-34141D01*
X76204Y-34179D01*
X76204Y-34179D01*
G37*
G36*
X76273Y-31688D02*
X76003Y-31033D01*
X76513Y-30823D01*
X76783Y-31478D01*
X76273Y-31688D01*
X76273Y-31688D01*
G37*
G36*
X75072Y-32183D02*
X74802Y-31528D01*
X75312Y-31318D01*
X75582Y-31973D01*
X75072Y-32183D01*
X75072Y-32183D01*
G37*
G36*
X74352Y-30436D02*
X74082Y-29781D01*
X74592Y-29571D01*
X74862Y-30226D01*
X74352Y-30436D01*
X74352Y-30436D01*
G37*
G36*
X75553Y-29941D02*
X75283Y-29286D01*
X75793Y-29076D01*
X76063Y-29731D01*
X75553Y-29941D01*
X75553Y-29941D01*
G37*
G36*
X75562Y-30789D02*
X75412Y-30425D01*
X75594Y-30350D01*
X75744Y-30714D01*
X75562Y-30789D01*
X75562Y-30789D01*
G37*
G36*
X75271Y-30909D02*
X75121Y-30545D01*
X75303Y-30470D01*
X75453Y-30834D01*
X75271Y-30909D01*
X75271Y-30909D01*
G37*
G36*
X74813Y-28430D02*
X74418Y-27841D01*
X74876Y-27535D01*
X75271Y-28123D01*
X74813Y-28430D01*
X74813Y-28430D01*
G37*
G36*
X73733Y-29153D02*
X73339Y-28564D01*
X73797Y-28257D01*
X74191Y-28846D01*
X73733Y-29153D01*
X73733Y-29153D01*
G37*
G36*
X72682Y-27582D02*
X72287Y-26994D01*
X72745Y-26687D01*
X73140Y-27276D01*
X72682Y-27582D01*
X72682Y-27582D01*
G37*
G36*
X73761Y-26860D02*
X73367Y-26271D01*
X73825Y-25964D01*
X74219Y-26553D01*
X73761Y-26860D01*
X73761Y-26860D01*
G37*
G36*
X73938Y-27689D02*
X73719Y-27362D01*
X73882Y-27253D01*
X74101Y-27580D01*
X73938Y-27689D01*
X73938Y-27689D01*
G37*
G36*
X73676Y-27864D02*
X73457Y-27537D01*
X73620Y-27428D01*
X73839Y-27755D01*
X73676Y-27864D01*
X73676Y-27864D01*
G37*
G36*
X72757Y-25536D02*
X72256Y-25035D01*
X72646Y-24645D01*
X73147Y-25146D01*
X72757Y-25536D01*
X72757Y-25536D01*
G37*
G36*
X71839Y-26454D02*
X71338Y-25953D01*
X71727Y-25563D01*
X72229Y-26065D01*
X71839Y-26454D01*
X71839Y-26454D01*
G37*
G36*
X70503Y-25118D02*
X70001Y-24617D01*
X70391Y-24227D01*
X70892Y-24728D01*
X70503Y-25118D01*
X70503Y-25118D01*
G37*
G36*
X71421Y-24199D02*
X70920Y-23698D01*
X71310Y-23308D01*
X71811Y-23810D01*
X71421Y-24199D01*
X71421Y-24199D01*
G37*
G36*
X71755Y-24979D02*
X71477Y-24700D01*
X71616Y-24561D01*
X71894Y-24840D01*
X71755Y-24979D01*
X71755Y-24979D01*
G37*
G36*
X71533Y-25202D02*
X71254Y-24923D01*
X71393Y-24784D01*
X71672Y-25062D01*
X71533Y-25202D01*
X71533Y-25202D01*
G37*
G36*
X70185Y-23089D02*
X69596Y-22694D01*
X69903Y-22236D01*
X70491Y-22631D01*
X70185Y-23089D01*
X70185Y-23089D01*
G37*
G36*
X69462Y-24168D02*
X68873Y-23774D01*
X69180Y-23316D01*
X69769Y-23710D01*
X69462Y-24168D01*
X69462Y-24168D01*
G37*
G36*
X67892Y-23117D02*
X67303Y-22723D01*
X67609Y-22265D01*
X68198Y-22659D01*
X67892Y-23117D01*
X67892Y-23117D01*
G37*
G36*
X68614Y-22037D02*
X68026Y-21643D01*
X68332Y-21185D01*
X68921Y-21579D01*
X68614Y-22037D01*
X68614Y-22037D01*
G37*
G36*
X69094Y-22737D02*
X68766Y-22518D01*
X68876Y-22355D01*
X69203Y-22574D01*
X69094Y-22737D01*
X69094Y-22737D01*
G37*
G36*
X68918Y-22999D02*
X68591Y-22780D01*
X68701Y-22616D01*
X69028Y-22835D01*
X68918Y-22999D01*
X68918Y-22999D01*
G37*
G36*
X67170Y-21175D02*
X66515Y-20904D01*
X66726Y-20394D01*
X67381Y-20666D01*
X67170Y-21175D01*
X67170Y-21175D01*
G37*
G36*
X66673Y-22375D02*
X66018Y-22104D01*
X66229Y-21595D01*
X66883Y-21866D01*
X66673Y-22375D01*
X66673Y-22375D01*
G37*
G36*
X64927Y-21652D02*
X64272Y-21381D01*
X64483Y-20871D01*
X65138Y-21143D01*
X64927Y-21652D01*
X64927Y-21652D01*
G37*
G36*
X65424Y-20452D02*
X64769Y-20180D01*
X64980Y-19671D01*
X65635Y-19942D01*
X65424Y-20452D01*
X65424Y-20452D01*
G37*
G36*
X66031Y-21044D02*
X65667Y-20893D01*
X65742Y-20711D01*
X66106Y-20862D01*
X66031Y-21044D01*
X66031Y-21044D01*
G37*
G36*
X65910Y-21335D02*
X65546Y-21184D01*
X65622Y-21002D01*
X65986Y-21153D01*
X65910Y-21335D01*
X65910Y-21335D01*
G37*
G36*
X63866Y-19927D02*
X63172Y-19788D01*
X63280Y-19247D01*
X63975Y-19386D01*
X63866Y-19927D01*
X63866Y-19927D01*
G37*
G36*
X63612Y-21201D02*
X62917Y-21062D01*
X63025Y-20521D01*
X63720Y-20660D01*
X63612Y-21201D01*
X63612Y-21201D01*
G37*
G36*
X61759Y-20830D02*
X61064Y-20692D01*
X61172Y-20151D01*
X61867Y-20290D01*
X61759Y-20830D01*
X61759Y-20830D01*
G37*
G36*
X62013Y-19556D02*
X61318Y-19418D01*
X61426Y-18877D01*
X62121Y-19016D01*
X62013Y-19556D01*
X62013Y-19556D01*
G37*
G36*
X62724Y-20020D02*
X62338Y-19942D01*
X62376Y-19749D01*
X62762Y-19826D01*
X62724Y-20020D01*
X62724Y-20020D01*
G37*
G36*
X62662Y-20328D02*
X62276Y-20251D01*
X62315Y-20058D01*
X62701Y-20135D01*
X62662Y-20328D01*
X62662Y-20328D01*
G37*
G54D22*
X60000Y-19035D03*
X60000Y-20334D03*
X58110Y-20334D03*
X58110Y-19035D03*
G54D23*
X59055Y-19527D03*
X59055Y-19842D03*
G54D24*
X56909Y-25688D03*
X56909Y-25020D03*
X61200Y-25020D03*
X61200Y-25688D03*
G54D10*
G36*
X53376Y-26368D02*
X54438Y-25850D01*
X54541Y-26063D01*
X53480Y-26580D01*
X53376Y-26368D01*
X53376Y-26368D01*
G37*
G36*
X53532Y-26686D02*
X54593Y-26169D01*
X54697Y-26381D01*
X53635Y-26899D01*
X53532Y-26686D01*
X53532Y-26686D01*
G37*
G36*
X54261Y-25937D02*
X54438Y-25850D01*
X54697Y-26381D01*
X54520Y-26467D01*
X54261Y-25937D01*
X54261Y-25937D01*
G37*
G36*
X55188Y-26041D02*
X55365Y-25954D01*
X55624Y-26485D01*
X55447Y-26572D01*
X55188Y-26041D01*
X55188Y-26041D01*
G37*
G36*
X54749Y-25142D02*
X54926Y-25056D01*
X55185Y-25586D01*
X55008Y-25673D01*
X54749Y-25142D01*
X54749Y-25142D01*
G37*
G36*
X53823Y-25038D02*
X53999Y-24951D01*
X54258Y-25482D01*
X54081Y-25569D01*
X53823Y-25038D01*
X53823Y-25038D01*
G37*
G36*
X55188Y-26041D02*
X56249Y-25523D01*
X56353Y-25735D01*
X55291Y-26253D01*
X55188Y-26041D01*
X55188Y-26041D01*
G37*
G36*
X55343Y-26359D02*
X56405Y-25841D01*
X56508Y-26054D01*
X55447Y-26572D01*
X55343Y-26359D01*
X55343Y-26359D01*
G37*
G36*
X52938Y-25469D02*
X53999Y-24951D01*
X54103Y-25164D01*
X53041Y-25682D01*
X52938Y-25469D01*
X52938Y-25469D01*
G37*
G36*
X53093Y-25788D02*
X54155Y-25270D01*
X54258Y-25482D01*
X53197Y-26000D01*
X53093Y-25788D01*
X53093Y-25788D01*
G37*
G36*
X54749Y-25142D02*
X55811Y-24624D01*
X55915Y-24837D01*
X54853Y-25354D01*
X54749Y-25142D01*
X54749Y-25142D01*
G37*
G36*
X54905Y-25460D02*
X55966Y-24943D01*
X56070Y-25155D01*
X55008Y-25673D01*
X54905Y-25460D01*
X54905Y-25460D01*
G37*
G36*
X54171Y-25981D02*
X54436Y-25851D01*
X54540Y-26063D01*
X54274Y-26193D01*
X54171Y-25981D01*
X54171Y-25981D01*
G37*
G36*
X54326Y-26299D02*
X54591Y-26170D01*
X54695Y-26382D01*
X54430Y-26511D01*
X54326Y-26299D01*
X54326Y-26299D01*
G37*
G36*
X55345Y-26358D02*
X55610Y-26229D01*
X55714Y-26441D01*
X55448Y-26571D01*
X55345Y-26358D01*
X55345Y-26358D01*
G37*
G36*
X55190Y-26040D02*
X55455Y-25910D01*
X55558Y-26123D01*
X55293Y-26252D01*
X55190Y-26040D01*
X55190Y-26040D01*
G37*
G36*
X53888Y-25400D02*
X54153Y-25271D01*
X54257Y-25483D01*
X53991Y-25613D01*
X53888Y-25400D01*
X53888Y-25400D01*
G37*
G36*
X53732Y-25082D02*
X53998Y-24952D01*
X54101Y-25165D01*
X53836Y-25294D01*
X53732Y-25082D01*
X53732Y-25082D01*
G37*
G36*
X54907Y-25460D02*
X55172Y-25330D01*
X55275Y-25542D01*
X55010Y-25672D01*
X54907Y-25460D01*
X54907Y-25460D01*
G37*
G36*
X54751Y-25141D02*
X55017Y-25012D01*
X55120Y-25224D01*
X54855Y-25353D01*
X54751Y-25141D01*
X54751Y-25141D01*
G37*
G36*
X52938Y-25469D02*
X53999Y-24951D01*
X54258Y-25482D01*
X53197Y-26000D01*
X52938Y-25469D01*
X52938Y-25469D01*
G37*
G36*
X53376Y-26368D02*
X54438Y-25850D01*
X54697Y-26381D01*
X53635Y-26899D01*
X53376Y-26368D01*
X53376Y-26368D01*
G37*
G36*
X54749Y-25142D02*
X55811Y-24624D01*
X56070Y-25155D01*
X55008Y-25673D01*
X54749Y-25142D01*
X54749Y-25142D01*
G37*
G36*
X55188Y-26041D02*
X56249Y-25523D01*
X56508Y-26054D01*
X55447Y-26572D01*
X55188Y-26041D01*
X55188Y-26041D01*
G37*
G36*
X62162Y-25074D02*
X63223Y-25591D01*
X63120Y-25804D01*
X62058Y-25286D01*
X62162Y-25074D01*
X62162Y-25074D01*
G37*
G36*
X62006Y-25392D02*
X63068Y-25910D01*
X62964Y-26122D01*
X61903Y-25604D01*
X62006Y-25392D01*
X62006Y-25392D01*
G37*
G36*
X63046Y-25505D02*
X63223Y-25591D01*
X62964Y-26122D01*
X62788Y-26036D01*
X63046Y-25505D01*
X63046Y-25505D01*
G37*
G36*
X63535Y-26300D02*
X63712Y-26386D01*
X63453Y-26917D01*
X63276Y-26830D01*
X63535Y-26300D01*
X63535Y-26300D01*
G37*
G36*
X63973Y-25401D02*
X64150Y-25487D01*
X63891Y-26018D01*
X63714Y-25932D01*
X63973Y-25401D01*
X63973Y-25401D01*
G37*
G36*
X63485Y-24606D02*
X63662Y-24693D01*
X63403Y-25223D01*
X63226Y-25137D01*
X63485Y-24606D01*
X63485Y-24606D01*
G37*
G36*
X63535Y-26300D02*
X64596Y-26817D01*
X64493Y-27030D01*
X63431Y-26512D01*
X63535Y-26300D01*
X63535Y-26300D01*
G37*
G36*
X63380Y-26618D02*
X64441Y-27136D01*
X64338Y-27348D01*
X63276Y-26830D01*
X63380Y-26618D01*
X63380Y-26618D01*
G37*
G36*
X62600Y-24175D02*
X63662Y-24693D01*
X63558Y-24905D01*
X62497Y-24387D01*
X62600Y-24175D01*
X62600Y-24175D01*
G37*
G36*
X62445Y-24493D02*
X63506Y-25011D01*
X63403Y-25223D01*
X62341Y-24706D01*
X62445Y-24493D01*
X62445Y-24493D01*
G37*
G36*
X63973Y-25401D02*
X65035Y-25919D01*
X64931Y-26131D01*
X63870Y-25613D01*
X63973Y-25401D01*
X63973Y-25401D01*
G37*
G36*
X63818Y-25719D02*
X64880Y-26237D01*
X64776Y-26449D01*
X63714Y-25932D01*
X63818Y-25719D01*
X63818Y-25719D01*
G37*
G36*
X62956Y-25461D02*
X63222Y-25591D01*
X63118Y-25803D01*
X62853Y-25673D01*
X62956Y-25461D01*
X62956Y-25461D01*
G37*
G36*
X62801Y-25780D02*
X63066Y-25909D01*
X62963Y-26121D01*
X62697Y-25992D01*
X62801Y-25780D01*
X62801Y-25780D01*
G37*
G36*
X63381Y-26619D02*
X63647Y-26748D01*
X63543Y-26961D01*
X63278Y-26831D01*
X63381Y-26619D01*
X63381Y-26619D01*
G37*
G36*
X63537Y-26301D02*
X63802Y-26430D01*
X63699Y-26642D01*
X63433Y-26513D01*
X63537Y-26301D01*
X63537Y-26301D01*
G37*
G36*
X63239Y-24881D02*
X63505Y-25010D01*
X63401Y-25223D01*
X63136Y-25093D01*
X63239Y-24881D01*
X63239Y-24881D01*
G37*
G36*
X63395Y-24562D02*
X63660Y-24692D01*
X63556Y-24904D01*
X63291Y-24775D01*
X63395Y-24562D01*
X63395Y-24562D01*
G37*
G36*
X63820Y-25720D02*
X64085Y-25850D01*
X63982Y-26062D01*
X63716Y-25933D01*
X63820Y-25720D01*
X63820Y-25720D01*
G37*
G36*
X63975Y-25402D02*
X64240Y-25531D01*
X64137Y-25743D01*
X63872Y-25614D01*
X63975Y-25402D01*
X63975Y-25402D01*
G37*
G36*
X62600Y-24175D02*
X63662Y-24693D01*
X63403Y-25223D01*
X62341Y-24706D01*
X62600Y-24175D01*
X62600Y-24175D01*
G37*
G36*
X62162Y-25074D02*
X63223Y-25591D01*
X62964Y-26122D01*
X61903Y-25604D01*
X62162Y-25074D01*
X62162Y-25074D01*
G37*
G36*
X63973Y-25401D02*
X65035Y-25919D01*
X64776Y-26449D01*
X63714Y-25932D01*
X63973Y-25401D01*
X63973Y-25401D01*
G37*
G36*
X63535Y-26300D02*
X64596Y-26817D01*
X64338Y-27348D01*
X63276Y-26830D01*
X63535Y-26300D01*
X63535Y-26300D01*
G37*
M02*
