G04 #@! TF.FileFunction,Other,ECO1*
%FSLAX46Y46*%
G04 Gerber Fmt 4.6, Leading zero omitted, Abs format (unit mm)*
G04 Created by KiCad (PCBNEW (2015-02-16 BZR 5425)-product) date Mon 16 Feb 2015 09:15:25 PM CET*
%MOMM*%
G01*
G04 APERTURE LIST*
%ADD10C,0.100000*%
%ADD11C,0.200000*%
G04 APERTURE END LIST*
D10*
D11*
X146333334Y-154685714D02*
X146333334Y-155352381D01*
X146095238Y-154304762D02*
X145857143Y-155019048D01*
X146476191Y-155019048D01*
X147047619Y-154352381D02*
X147142858Y-154352381D01*
X147238096Y-154400000D01*
X147285715Y-154447619D01*
X147333334Y-154542857D01*
X147380953Y-154733333D01*
X147380953Y-154971429D01*
X147333334Y-155161905D01*
X147285715Y-155257143D01*
X147238096Y-155304762D01*
X147142858Y-155352381D01*
X147047619Y-155352381D01*
X146952381Y-155304762D01*
X146904762Y-155257143D01*
X146857143Y-155161905D01*
X146809524Y-154971429D01*
X146809524Y-154733333D01*
X146857143Y-154542857D01*
X146904762Y-154447619D01*
X146952381Y-154400000D01*
X147047619Y-154352381D01*
X147809524Y-155257143D02*
X147857143Y-155304762D01*
X147809524Y-155352381D01*
X147761905Y-155304762D01*
X147809524Y-155257143D01*
X147809524Y-155352381D01*
X148761905Y-154352381D02*
X148285714Y-154352381D01*
X148238095Y-154828571D01*
X148285714Y-154780952D01*
X148380952Y-154733333D01*
X148619048Y-154733333D01*
X148714286Y-154780952D01*
X148761905Y-154828571D01*
X148809524Y-154923810D01*
X148809524Y-155161905D01*
X148761905Y-155257143D01*
X148714286Y-155304762D01*
X148619048Y-155352381D01*
X148380952Y-155352381D01*
X148285714Y-155304762D01*
X148238095Y-155257143D01*
X149428571Y-154352381D02*
X149523810Y-154352381D01*
X149619048Y-154400000D01*
X149666667Y-154447619D01*
X149714286Y-154542857D01*
X149761905Y-154733333D01*
X149761905Y-154971429D01*
X149714286Y-155161905D01*
X149666667Y-155257143D01*
X149619048Y-155304762D01*
X149523810Y-155352381D01*
X149428571Y-155352381D01*
X149333333Y-155304762D01*
X149285714Y-155257143D01*
X149238095Y-155161905D01*
X149190476Y-154971429D01*
X149190476Y-154733333D01*
X149238095Y-154542857D01*
X149285714Y-154447619D01*
X149333333Y-154400000D01*
X149428571Y-154352381D01*
X150380952Y-154352381D02*
X150476191Y-154352381D01*
X150571429Y-154400000D01*
X150619048Y-154447619D01*
X150666667Y-154542857D01*
X150714286Y-154733333D01*
X150714286Y-154971429D01*
X150666667Y-155161905D01*
X150619048Y-155257143D01*
X150571429Y-155304762D01*
X150476191Y-155352381D01*
X150380952Y-155352381D01*
X150285714Y-155304762D01*
X150238095Y-155257143D01*
X150190476Y-155161905D01*
X150142857Y-154971429D01*
X150142857Y-154733333D01*
X150190476Y-154542857D01*
X150238095Y-154447619D01*
X150285714Y-154400000D01*
X150380952Y-154352381D01*
X151904762Y-155352381D02*
X151904762Y-154685714D01*
X151904762Y-154780952D02*
X151952381Y-154733333D01*
X152047619Y-154685714D01*
X152190477Y-154685714D01*
X152285715Y-154733333D01*
X152333334Y-154828571D01*
X152333334Y-155352381D01*
X152333334Y-154828571D02*
X152380953Y-154733333D01*
X152476191Y-154685714D01*
X152619048Y-154685714D01*
X152714286Y-154733333D01*
X152761905Y-154828571D01*
X152761905Y-155352381D01*
X153238095Y-155352381D02*
X153238095Y-154685714D01*
X153238095Y-154780952D02*
X153285714Y-154733333D01*
X153380952Y-154685714D01*
X153523810Y-154685714D01*
X153619048Y-154733333D01*
X153666667Y-154828571D01*
X153666667Y-155352381D01*
X153666667Y-154828571D02*
X153714286Y-154733333D01*
X153809524Y-154685714D01*
X153952381Y-154685714D01*
X154047619Y-154733333D01*
X154095238Y-154828571D01*
X154095238Y-155352381D01*
X129750000Y-154000000D02*
X170250000Y-154000000D01*
X129750000Y-95000000D02*
X129750000Y-155800000D01*
X170250000Y-95000000D02*
X170250000Y-155800000D01*
X170250000Y-154000000D02*
X169123496Y-154586421D01*
X170250000Y-154000000D02*
X169123496Y-153413579D01*
X129750000Y-154000000D02*
X130876504Y-154586421D01*
X129750000Y-154000000D02*
X130876504Y-153413579D01*
X146380953Y-157252381D02*
X145904762Y-157252381D01*
X145857143Y-157728571D01*
X145904762Y-157680952D01*
X146000000Y-157633333D01*
X146238096Y-157633333D01*
X146333334Y-157680952D01*
X146380953Y-157728571D01*
X146428572Y-157823810D01*
X146428572Y-158061905D01*
X146380953Y-158157143D01*
X146333334Y-158204762D01*
X146238096Y-158252381D01*
X146000000Y-158252381D01*
X145904762Y-158204762D01*
X145857143Y-158157143D01*
X147047619Y-157252381D02*
X147142858Y-157252381D01*
X147238096Y-157300000D01*
X147285715Y-157347619D01*
X147333334Y-157442857D01*
X147380953Y-157633333D01*
X147380953Y-157871429D01*
X147333334Y-158061905D01*
X147285715Y-158157143D01*
X147238096Y-158204762D01*
X147142858Y-158252381D01*
X147047619Y-158252381D01*
X146952381Y-158204762D01*
X146904762Y-158157143D01*
X146857143Y-158061905D01*
X146809524Y-157871429D01*
X146809524Y-157633333D01*
X146857143Y-157442857D01*
X146904762Y-157347619D01*
X146952381Y-157300000D01*
X147047619Y-157252381D01*
X147809524Y-158157143D02*
X147857143Y-158204762D01*
X147809524Y-158252381D01*
X147761905Y-158204762D01*
X147809524Y-158157143D01*
X147809524Y-158252381D01*
X148476190Y-157252381D02*
X148571429Y-157252381D01*
X148666667Y-157300000D01*
X148714286Y-157347619D01*
X148761905Y-157442857D01*
X148809524Y-157633333D01*
X148809524Y-157871429D01*
X148761905Y-158061905D01*
X148714286Y-158157143D01*
X148666667Y-158204762D01*
X148571429Y-158252381D01*
X148476190Y-158252381D01*
X148380952Y-158204762D01*
X148333333Y-158157143D01*
X148285714Y-158061905D01*
X148238095Y-157871429D01*
X148238095Y-157633333D01*
X148285714Y-157442857D01*
X148333333Y-157347619D01*
X148380952Y-157300000D01*
X148476190Y-157252381D01*
X149428571Y-157252381D02*
X149523810Y-157252381D01*
X149619048Y-157300000D01*
X149666667Y-157347619D01*
X149714286Y-157442857D01*
X149761905Y-157633333D01*
X149761905Y-157871429D01*
X149714286Y-158061905D01*
X149666667Y-158157143D01*
X149619048Y-158204762D01*
X149523810Y-158252381D01*
X149428571Y-158252381D01*
X149333333Y-158204762D01*
X149285714Y-158157143D01*
X149238095Y-158061905D01*
X149190476Y-157871429D01*
X149190476Y-157633333D01*
X149238095Y-157442857D01*
X149285714Y-157347619D01*
X149333333Y-157300000D01*
X149428571Y-157252381D01*
X150380952Y-157252381D02*
X150476191Y-157252381D01*
X150571429Y-157300000D01*
X150619048Y-157347619D01*
X150666667Y-157442857D01*
X150714286Y-157633333D01*
X150714286Y-157871429D01*
X150666667Y-158061905D01*
X150619048Y-158157143D01*
X150571429Y-158204762D01*
X150476191Y-158252381D01*
X150380952Y-158252381D01*
X150285714Y-158204762D01*
X150238095Y-158157143D01*
X150190476Y-158061905D01*
X150142857Y-157871429D01*
X150142857Y-157633333D01*
X150190476Y-157442857D01*
X150238095Y-157347619D01*
X150285714Y-157300000D01*
X150380952Y-157252381D01*
X151904762Y-158252381D02*
X151904762Y-157585714D01*
X151904762Y-157680952D02*
X151952381Y-157633333D01*
X152047619Y-157585714D01*
X152190477Y-157585714D01*
X152285715Y-157633333D01*
X152333334Y-157728571D01*
X152333334Y-158252381D01*
X152333334Y-157728571D02*
X152380953Y-157633333D01*
X152476191Y-157585714D01*
X152619048Y-157585714D01*
X152714286Y-157633333D01*
X152761905Y-157728571D01*
X152761905Y-158252381D01*
X153238095Y-158252381D02*
X153238095Y-157585714D01*
X153238095Y-157680952D02*
X153285714Y-157633333D01*
X153380952Y-157585714D01*
X153523810Y-157585714D01*
X153619048Y-157633333D01*
X153666667Y-157728571D01*
X153666667Y-158252381D01*
X153666667Y-157728571D02*
X153714286Y-157633333D01*
X153809524Y-157585714D01*
X153952381Y-157585714D01*
X154047619Y-157633333D01*
X154095238Y-157728571D01*
X154095238Y-158252381D01*
X125000000Y-156900000D02*
X175000000Y-156900000D01*
X125000000Y-95000000D02*
X125000000Y-158700000D01*
X175000000Y-95000000D02*
X175000000Y-158700000D01*
X175000000Y-156900000D02*
X173873496Y-157486421D01*
X175000000Y-156900000D02*
X173873496Y-156313579D01*
X125000000Y-156900000D02*
X126126504Y-157486421D01*
X125000000Y-156900000D02*
X126126504Y-156313579D01*
X146333334Y-160352381D02*
X146142857Y-160352381D01*
X146047619Y-160400000D01*
X146000000Y-160447619D01*
X145904762Y-160590476D01*
X145857143Y-160780952D01*
X145857143Y-161161905D01*
X145904762Y-161257143D01*
X145952381Y-161304762D01*
X146047619Y-161352381D01*
X146238096Y-161352381D01*
X146333334Y-161304762D01*
X146380953Y-161257143D01*
X146428572Y-161161905D01*
X146428572Y-160923810D01*
X146380953Y-160828571D01*
X146333334Y-160780952D01*
X146238096Y-160733333D01*
X146047619Y-160733333D01*
X145952381Y-160780952D01*
X145904762Y-160828571D01*
X145857143Y-160923810D01*
X147333334Y-160352381D02*
X146857143Y-160352381D01*
X146809524Y-160828571D01*
X146857143Y-160780952D01*
X146952381Y-160733333D01*
X147190477Y-160733333D01*
X147285715Y-160780952D01*
X147333334Y-160828571D01*
X147380953Y-160923810D01*
X147380953Y-161161905D01*
X147333334Y-161257143D01*
X147285715Y-161304762D01*
X147190477Y-161352381D01*
X146952381Y-161352381D01*
X146857143Y-161304762D01*
X146809524Y-161257143D01*
X147809524Y-161257143D02*
X147857143Y-161304762D01*
X147809524Y-161352381D01*
X147761905Y-161304762D01*
X147809524Y-161257143D01*
X147809524Y-161352381D01*
X148476190Y-160352381D02*
X148571429Y-160352381D01*
X148666667Y-160400000D01*
X148714286Y-160447619D01*
X148761905Y-160542857D01*
X148809524Y-160733333D01*
X148809524Y-160971429D01*
X148761905Y-161161905D01*
X148714286Y-161257143D01*
X148666667Y-161304762D01*
X148571429Y-161352381D01*
X148476190Y-161352381D01*
X148380952Y-161304762D01*
X148333333Y-161257143D01*
X148285714Y-161161905D01*
X148238095Y-160971429D01*
X148238095Y-160733333D01*
X148285714Y-160542857D01*
X148333333Y-160447619D01*
X148380952Y-160400000D01*
X148476190Y-160352381D01*
X149428571Y-160352381D02*
X149523810Y-160352381D01*
X149619048Y-160400000D01*
X149666667Y-160447619D01*
X149714286Y-160542857D01*
X149761905Y-160733333D01*
X149761905Y-160971429D01*
X149714286Y-161161905D01*
X149666667Y-161257143D01*
X149619048Y-161304762D01*
X149523810Y-161352381D01*
X149428571Y-161352381D01*
X149333333Y-161304762D01*
X149285714Y-161257143D01*
X149238095Y-161161905D01*
X149190476Y-160971429D01*
X149190476Y-160733333D01*
X149238095Y-160542857D01*
X149285714Y-160447619D01*
X149333333Y-160400000D01*
X149428571Y-160352381D01*
X150380952Y-160352381D02*
X150476191Y-160352381D01*
X150571429Y-160400000D01*
X150619048Y-160447619D01*
X150666667Y-160542857D01*
X150714286Y-160733333D01*
X150714286Y-160971429D01*
X150666667Y-161161905D01*
X150619048Y-161257143D01*
X150571429Y-161304762D01*
X150476191Y-161352381D01*
X150380952Y-161352381D01*
X150285714Y-161304762D01*
X150238095Y-161257143D01*
X150190476Y-161161905D01*
X150142857Y-160971429D01*
X150142857Y-160733333D01*
X150190476Y-160542857D01*
X150238095Y-160447619D01*
X150285714Y-160400000D01*
X150380952Y-160352381D01*
X151904762Y-161352381D02*
X151904762Y-160685714D01*
X151904762Y-160780952D02*
X151952381Y-160733333D01*
X152047619Y-160685714D01*
X152190477Y-160685714D01*
X152285715Y-160733333D01*
X152333334Y-160828571D01*
X152333334Y-161352381D01*
X152333334Y-160828571D02*
X152380953Y-160733333D01*
X152476191Y-160685714D01*
X152619048Y-160685714D01*
X152714286Y-160733333D01*
X152761905Y-160828571D01*
X152761905Y-161352381D01*
X153238095Y-161352381D02*
X153238095Y-160685714D01*
X153238095Y-160780952D02*
X153285714Y-160733333D01*
X153380952Y-160685714D01*
X153523810Y-160685714D01*
X153619048Y-160733333D01*
X153666667Y-160828571D01*
X153666667Y-161352381D01*
X153666667Y-160828571D02*
X153714286Y-160733333D01*
X153809524Y-160685714D01*
X153952381Y-160685714D01*
X154047619Y-160733333D01*
X154095238Y-160828571D01*
X154095238Y-161352381D01*
X117500000Y-160000000D02*
X182500000Y-160000000D01*
X117500000Y-95000000D02*
X117500000Y-161800000D01*
X182500000Y-95000000D02*
X182500000Y-161800000D01*
X182500000Y-160000000D02*
X181373496Y-160586421D01*
X182500000Y-160000000D02*
X181373496Y-159413579D01*
X117500000Y-160000000D02*
X118626504Y-160586421D01*
X117500000Y-160000000D02*
X118626504Y-159413579D01*
X145952382Y-164252381D02*
X145380953Y-164252381D01*
X145666667Y-164252381D02*
X145666667Y-163252381D01*
X145571429Y-163395238D01*
X145476191Y-163490476D01*
X145380953Y-163538095D01*
X146571429Y-163252381D02*
X146666668Y-163252381D01*
X146761906Y-163300000D01*
X146809525Y-163347619D01*
X146857144Y-163442857D01*
X146904763Y-163633333D01*
X146904763Y-163871429D01*
X146857144Y-164061905D01*
X146809525Y-164157143D01*
X146761906Y-164204762D01*
X146666668Y-164252381D01*
X146571429Y-164252381D01*
X146476191Y-164204762D01*
X146428572Y-164157143D01*
X146380953Y-164061905D01*
X146333334Y-163871429D01*
X146333334Y-163633333D01*
X146380953Y-163442857D01*
X146428572Y-163347619D01*
X146476191Y-163300000D01*
X146571429Y-163252381D01*
X147523810Y-163252381D02*
X147619049Y-163252381D01*
X147714287Y-163300000D01*
X147761906Y-163347619D01*
X147809525Y-163442857D01*
X147857144Y-163633333D01*
X147857144Y-163871429D01*
X147809525Y-164061905D01*
X147761906Y-164157143D01*
X147714287Y-164204762D01*
X147619049Y-164252381D01*
X147523810Y-164252381D01*
X147428572Y-164204762D01*
X147380953Y-164157143D01*
X147333334Y-164061905D01*
X147285715Y-163871429D01*
X147285715Y-163633333D01*
X147333334Y-163442857D01*
X147380953Y-163347619D01*
X147428572Y-163300000D01*
X147523810Y-163252381D01*
X148285715Y-164157143D02*
X148333334Y-164204762D01*
X148285715Y-164252381D01*
X148238096Y-164204762D01*
X148285715Y-164157143D01*
X148285715Y-164252381D01*
X148952381Y-163252381D02*
X149047620Y-163252381D01*
X149142858Y-163300000D01*
X149190477Y-163347619D01*
X149238096Y-163442857D01*
X149285715Y-163633333D01*
X149285715Y-163871429D01*
X149238096Y-164061905D01*
X149190477Y-164157143D01*
X149142858Y-164204762D01*
X149047620Y-164252381D01*
X148952381Y-164252381D01*
X148857143Y-164204762D01*
X148809524Y-164157143D01*
X148761905Y-164061905D01*
X148714286Y-163871429D01*
X148714286Y-163633333D01*
X148761905Y-163442857D01*
X148809524Y-163347619D01*
X148857143Y-163300000D01*
X148952381Y-163252381D01*
X149904762Y-163252381D02*
X150000001Y-163252381D01*
X150095239Y-163300000D01*
X150142858Y-163347619D01*
X150190477Y-163442857D01*
X150238096Y-163633333D01*
X150238096Y-163871429D01*
X150190477Y-164061905D01*
X150142858Y-164157143D01*
X150095239Y-164204762D01*
X150000001Y-164252381D01*
X149904762Y-164252381D01*
X149809524Y-164204762D01*
X149761905Y-164157143D01*
X149714286Y-164061905D01*
X149666667Y-163871429D01*
X149666667Y-163633333D01*
X149714286Y-163442857D01*
X149761905Y-163347619D01*
X149809524Y-163300000D01*
X149904762Y-163252381D01*
X150857143Y-163252381D02*
X150952382Y-163252381D01*
X151047620Y-163300000D01*
X151095239Y-163347619D01*
X151142858Y-163442857D01*
X151190477Y-163633333D01*
X151190477Y-163871429D01*
X151142858Y-164061905D01*
X151095239Y-164157143D01*
X151047620Y-164204762D01*
X150952382Y-164252381D01*
X150857143Y-164252381D01*
X150761905Y-164204762D01*
X150714286Y-164157143D01*
X150666667Y-164061905D01*
X150619048Y-163871429D01*
X150619048Y-163633333D01*
X150666667Y-163442857D01*
X150714286Y-163347619D01*
X150761905Y-163300000D01*
X150857143Y-163252381D01*
X152380953Y-164252381D02*
X152380953Y-163585714D01*
X152380953Y-163680952D02*
X152428572Y-163633333D01*
X152523810Y-163585714D01*
X152666668Y-163585714D01*
X152761906Y-163633333D01*
X152809525Y-163728571D01*
X152809525Y-164252381D01*
X152809525Y-163728571D02*
X152857144Y-163633333D01*
X152952382Y-163585714D01*
X153095239Y-163585714D01*
X153190477Y-163633333D01*
X153238096Y-163728571D01*
X153238096Y-164252381D01*
X153714286Y-164252381D02*
X153714286Y-163585714D01*
X153714286Y-163680952D02*
X153761905Y-163633333D01*
X153857143Y-163585714D01*
X154000001Y-163585714D01*
X154095239Y-163633333D01*
X154142858Y-163728571D01*
X154142858Y-164252381D01*
X154142858Y-163728571D02*
X154190477Y-163633333D01*
X154285715Y-163585714D01*
X154428572Y-163585714D01*
X154523810Y-163633333D01*
X154571429Y-163728571D01*
X154571429Y-164252381D01*
X100000000Y-162900000D02*
X200000000Y-162900000D01*
X100000000Y-95000000D02*
X100000000Y-164700000D01*
X200000000Y-95000000D02*
X200000000Y-164700000D01*
X200000000Y-162900000D02*
X198873496Y-163486421D01*
X200000000Y-162900000D02*
X198873496Y-162313579D01*
X100000000Y-162900000D02*
X101126504Y-163486421D01*
X100000000Y-162900000D02*
X101126504Y-162313579D01*
M02*
