%FSLAX46Y46*%
G04 Gerber Fmt 4.6, Leading zero omitted, Abs format (unit mm)*
G04 Created by KiCad (PCBNEW (2014-08-24 BZR 5095)-product) date Mon 25 Aug 2014 10:59:19 AM CEST*
%MOMM*%
G01*
G04 APERTURE LIST*
%ADD10C,0.100000*%
%ADD11C,2.000000*%
%ADD12R,1.498600X1.297940*%
%ADD13R,1.297940X1.498600*%
%ADD14R,1.400000X1.800000*%
%ADD15R,0.500000X1.000000*%
%ADD16R,1.800000X1.400000*%
%ADD17R,1.000000X0.500000*%
G04 APERTURE END LIST*
D10*
D11*
X146210000Y-130130000D03*
X148750000Y-130130000D03*
X151290000Y-130130000D03*
X153830000Y-130130000D03*
D10*
G36*
X143621112Y-54651921D02*
X143914757Y-56121470D01*
X142641978Y-56375797D01*
X142348333Y-54906248D01*
X143621112Y-54651921D01*
X143621112Y-54651921D01*
G37*
G36*
X141758022Y-55024203D02*
X142051667Y-56493752D01*
X140778888Y-56748079D01*
X140485243Y-55278530D01*
X141758022Y-55024203D01*
X141758022Y-55024203D01*
G37*
G36*
X135890474Y-56695853D02*
X136463964Y-58080379D01*
X135264824Y-58577079D01*
X134691334Y-57192553D01*
X135890474Y-56695853D01*
X135890474Y-56695853D01*
G37*
G36*
X134135176Y-57422921D02*
X134708666Y-58807447D01*
X133509526Y-59304147D01*
X132936036Y-57919621D01*
X134135176Y-57422921D01*
X134135176Y-57422921D01*
G37*
G36*
X128611854Y-60287865D02*
X129445518Y-61533178D01*
X128366950Y-62255217D01*
X127533286Y-61009904D01*
X128611854Y-60287865D01*
X128611854Y-60287865D01*
G37*
G36*
X127033050Y-61344783D02*
X127866714Y-62590096D01*
X126788146Y-63312135D01*
X125954482Y-62066822D01*
X127033050Y-61344783D01*
X127033050Y-61344783D01*
G37*
G36*
X122300779Y-65039551D02*
X123360449Y-66099221D01*
X122442667Y-67017003D01*
X121382997Y-65957333D01*
X122300779Y-65039551D01*
X122300779Y-65039551D01*
G37*
G36*
X120957333Y-66382997D02*
X122017003Y-67442667D01*
X121099221Y-68360449D01*
X120039551Y-67300779D01*
X120957333Y-66382997D01*
X120957333Y-66382997D01*
G37*
G36*
X117013774Y-71054019D02*
X118260541Y-71885509D01*
X117540386Y-72965335D01*
X116293619Y-72133845D01*
X117013774Y-71054019D01*
X117013774Y-71054019D01*
G37*
G36*
X115959614Y-72634665D02*
X117206381Y-73466155D01*
X116486226Y-74545981D01*
X115239459Y-73714491D01*
X115959614Y-72634665D01*
X115959614Y-72634665D01*
G37*
G36*
X112969621Y-77936036D02*
X114354147Y-78509526D01*
X113857447Y-79708666D01*
X112472921Y-79135176D01*
X112969621Y-77936036D01*
X112969621Y-77936036D01*
G37*
G36*
X112242553Y-79691334D02*
X113627079Y-80264824D01*
X113130379Y-81463964D01*
X111745853Y-80890474D01*
X112242553Y-79691334D01*
X112242553Y-79691334D01*
G37*
G36*
X110325538Y-85535982D02*
X111795597Y-85827061D01*
X111543492Y-87100282D01*
X110073433Y-86809203D01*
X110325538Y-85535982D01*
X110325538Y-85535982D01*
G37*
G36*
X109956508Y-87399718D02*
X111426567Y-87690797D01*
X111174462Y-88964018D01*
X109704403Y-88672939D01*
X109956508Y-87399718D01*
X109956508Y-87399718D01*
G37*
D12*
X110000000Y-94050040D03*
X110000000Y-95949960D03*
D10*
G36*
X109701921Y-101378888D02*
X111171470Y-101085243D01*
X111425797Y-102358022D01*
X109956248Y-102651667D01*
X109701921Y-101378888D01*
X109701921Y-101378888D01*
G37*
G36*
X110074203Y-103241978D02*
X111543752Y-102948333D01*
X111798079Y-104221112D01*
X110328530Y-104514757D01*
X110074203Y-103241978D01*
X110074203Y-103241978D01*
G37*
G36*
X111745853Y-109159526D02*
X113130379Y-108586036D01*
X113627079Y-109785176D01*
X112242553Y-110358666D01*
X111745853Y-109159526D01*
X111745853Y-109159526D01*
G37*
G36*
X112472921Y-110914824D02*
X113857447Y-110341334D01*
X114354147Y-111540474D01*
X112969621Y-112113964D01*
X112472921Y-110914824D01*
X112472921Y-110914824D01*
G37*
G36*
X115187865Y-116288146D02*
X116433178Y-115454482D01*
X117155217Y-116533050D01*
X115909904Y-117366714D01*
X115187865Y-116288146D01*
X115187865Y-116288146D01*
G37*
G36*
X116244783Y-117866950D02*
X117490096Y-117033286D01*
X118212135Y-118111854D01*
X116966822Y-118945518D01*
X116244783Y-117866950D01*
X116244783Y-117866950D01*
G37*
G36*
X120039551Y-122699221D02*
X121099221Y-121639551D01*
X122017003Y-122557333D01*
X120957333Y-123617003D01*
X120039551Y-122699221D01*
X120039551Y-122699221D01*
G37*
G36*
X121382997Y-124042667D02*
X122442667Y-122982997D01*
X123360449Y-123900779D01*
X122300779Y-124960449D01*
X121382997Y-124042667D01*
X121382997Y-124042667D01*
G37*
G36*
X126004019Y-127986226D02*
X126835509Y-126739459D01*
X127915335Y-127459614D01*
X127083845Y-128706381D01*
X126004019Y-127986226D01*
X126004019Y-127986226D01*
G37*
G36*
X127584665Y-129040386D02*
X128416155Y-127793619D01*
X129495981Y-128513774D01*
X128664491Y-129760541D01*
X127584665Y-129040386D01*
X127584665Y-129040386D01*
G37*
G36*
X132936036Y-132030379D02*
X133509526Y-130645853D01*
X134708666Y-131142553D01*
X134135176Y-132527079D01*
X132936036Y-132030379D01*
X132936036Y-132030379D01*
G37*
G36*
X134691334Y-132757447D02*
X135264824Y-131372921D01*
X136463964Y-131869621D01*
X135890474Y-133254147D01*
X134691334Y-132757447D01*
X134691334Y-132757447D01*
G37*
G36*
X140435982Y-134624462D02*
X140727061Y-133154403D01*
X142000282Y-133406508D01*
X141709203Y-134876567D01*
X140435982Y-134624462D01*
X140435982Y-134624462D01*
G37*
G36*
X142299718Y-134993492D02*
X142590797Y-133523433D01*
X143864018Y-133775538D01*
X143572939Y-135245597D01*
X142299718Y-134993492D01*
X142299718Y-134993492D01*
G37*
D13*
X149050040Y-135000000D03*
X150949960Y-135000000D03*
D10*
G36*
X156384396Y-135255505D02*
X156083060Y-133787514D01*
X157354490Y-133526527D01*
X157655826Y-134994518D01*
X156384396Y-135255505D01*
X156384396Y-135255505D01*
G37*
G36*
X158245510Y-134873473D02*
X157944174Y-133405482D01*
X159215604Y-133144495D01*
X159516940Y-134612486D01*
X158245510Y-134873473D01*
X158245510Y-134873473D01*
G37*
G36*
X164116371Y-133210362D02*
X163535640Y-131828858D01*
X164732163Y-131325886D01*
X165312894Y-132707390D01*
X164116371Y-133210362D01*
X164116371Y-133210362D01*
G37*
G36*
X165867837Y-132474114D02*
X165287106Y-131092610D01*
X166483629Y-130589638D01*
X167064360Y-131971142D01*
X165867837Y-132474114D01*
X165867837Y-132474114D01*
G37*
G36*
X171193430Y-129815308D02*
X170355423Y-128572913D01*
X171431464Y-127847114D01*
X172269471Y-129089509D01*
X171193430Y-129815308D01*
X171193430Y-129815308D01*
G37*
G36*
X172768536Y-128752886D02*
X171930529Y-127510491D01*
X173006570Y-126784692D01*
X173844577Y-128027087D01*
X172768536Y-128752886D01*
X172768536Y-128752886D01*
G37*
G36*
X177699221Y-124960449D02*
X176639551Y-123900779D01*
X177557333Y-122982997D01*
X178617003Y-124042667D01*
X177699221Y-124960449D01*
X177699221Y-124960449D01*
G37*
G36*
X179042667Y-123617003D02*
X177982997Y-122557333D01*
X178900779Y-121639551D01*
X179960449Y-122699221D01*
X179042667Y-123617003D01*
X179042667Y-123617003D01*
G37*
G36*
X183033178Y-118945518D02*
X181787865Y-118111854D01*
X182509904Y-117033286D01*
X183755217Y-117866950D01*
X183033178Y-118945518D01*
X183033178Y-118945518D01*
G37*
G36*
X184090096Y-117366714D02*
X182844783Y-116533050D01*
X183566822Y-115454482D01*
X184812135Y-116288146D01*
X184090096Y-117366714D01*
X184090096Y-117366714D01*
G37*
G36*
X187027300Y-112064101D02*
X185643777Y-111488196D01*
X186142570Y-110289925D01*
X187526093Y-110865830D01*
X187027300Y-112064101D01*
X187027300Y-112064101D01*
G37*
G36*
X187757430Y-110310075D02*
X186373907Y-109734170D01*
X186872700Y-108535899D01*
X188256223Y-109111804D01*
X187757430Y-110310075D01*
X187757430Y-110310075D01*
G37*
G36*
X189621470Y-104564757D02*
X188151921Y-104271112D01*
X188406248Y-102998333D01*
X189875797Y-103291978D01*
X189621470Y-104564757D01*
X189621470Y-104564757D01*
G37*
G36*
X189993752Y-102701667D02*
X188524203Y-102408022D01*
X188778530Y-101135243D01*
X190248079Y-101428888D01*
X189993752Y-102701667D01*
X189993752Y-102701667D01*
G37*
D12*
X190000000Y-95949960D03*
X190000000Y-94050040D03*
D10*
G36*
X190295597Y-88622939D02*
X188825538Y-88914018D01*
X188573433Y-87640797D01*
X190043492Y-87349718D01*
X190295597Y-88622939D01*
X190295597Y-88622939D01*
G37*
G36*
X189926567Y-86759203D02*
X188456508Y-87050282D01*
X188204403Y-85777061D01*
X189674462Y-85485982D01*
X189926567Y-86759203D01*
X189926567Y-86759203D01*
G37*
G36*
X188256223Y-80888196D02*
X186872700Y-81464101D01*
X186373907Y-80265830D01*
X187757430Y-79689925D01*
X188256223Y-80888196D01*
X188256223Y-80888196D01*
G37*
G36*
X187526093Y-79134170D02*
X186142570Y-79710075D01*
X185643777Y-78511804D01*
X187027300Y-77935899D01*
X187526093Y-79134170D01*
X187526093Y-79134170D01*
G37*
G36*
X184762135Y-73661854D02*
X183516822Y-74495518D01*
X182794783Y-73416950D01*
X184040096Y-72583286D01*
X184762135Y-73661854D01*
X184762135Y-73661854D01*
G37*
G36*
X183705217Y-72083050D02*
X182459904Y-72916714D01*
X181737865Y-71838146D01*
X182983178Y-71004482D01*
X183705217Y-72083050D01*
X183705217Y-72083050D01*
G37*
G36*
X179960449Y-67300779D02*
X178900779Y-68360449D01*
X177982997Y-67442667D01*
X179042667Y-66382997D01*
X179960449Y-67300779D01*
X179960449Y-67300779D01*
G37*
G36*
X178617003Y-65957333D02*
X177557333Y-67017003D01*
X176639551Y-66099221D01*
X177699221Y-65039551D01*
X178617003Y-65957333D01*
X178617003Y-65957333D01*
G37*
G36*
X174045518Y-62066822D02*
X173211854Y-63312135D01*
X172133286Y-62590096D01*
X172966950Y-61344783D01*
X174045518Y-62066822D01*
X174045518Y-62066822D01*
G37*
G36*
X172466714Y-61009904D02*
X171633050Y-62255217D01*
X170554482Y-61533178D01*
X171388146Y-60287865D01*
X172466714Y-61009904D01*
X172466714Y-61009904D01*
G37*
G36*
X167063964Y-57919621D02*
X166490474Y-59304147D01*
X165291334Y-58807447D01*
X165864824Y-57422921D01*
X167063964Y-57919621D01*
X167063964Y-57919621D01*
G37*
G36*
X165308666Y-57192553D02*
X164735176Y-58577079D01*
X163536036Y-58080379D01*
X164109526Y-56695853D01*
X165308666Y-57192553D01*
X165308666Y-57192553D01*
G37*
G36*
X159514757Y-55378530D02*
X159221112Y-56848079D01*
X157948333Y-56593752D01*
X158241978Y-55124203D01*
X159514757Y-55378530D01*
X159514757Y-55378530D01*
G37*
G36*
X157651667Y-55006248D02*
X157358022Y-56475797D01*
X156085243Y-56221470D01*
X156378888Y-54751921D01*
X157651667Y-55006248D01*
X157651667Y-55006248D01*
G37*
D13*
X150949960Y-55000000D03*
X149050040Y-55000000D03*
D10*
G36*
X142957071Y-51537664D02*
X144722177Y-51184961D01*
X144996501Y-52557822D01*
X143231395Y-52910525D01*
X142957071Y-51537664D01*
X142957071Y-51537664D01*
G37*
G36*
X142310449Y-48301636D02*
X144075555Y-47948933D01*
X144349879Y-49321794D01*
X142584773Y-49674497D01*
X142310449Y-48301636D01*
X142310449Y-48301636D01*
G37*
G36*
X137603499Y-49242178D02*
X139368605Y-48889475D01*
X139642929Y-50262336D01*
X137877823Y-50615039D01*
X137603499Y-49242178D01*
X137603499Y-49242178D01*
G37*
G36*
X138250121Y-52478206D02*
X140015227Y-52125503D01*
X140289551Y-53498364D01*
X138524445Y-53851067D01*
X138250121Y-52478206D01*
X138250121Y-52478206D01*
G37*
G36*
X140839084Y-51145065D02*
X141819699Y-50949119D01*
X141917672Y-51439427D01*
X140937057Y-51635373D01*
X140839084Y-51145065D01*
X140839084Y-51145065D01*
G37*
G36*
X140682328Y-50360573D02*
X141662943Y-50164627D01*
X141760916Y-50654935D01*
X140780301Y-50850881D01*
X140682328Y-50360573D01*
X140682328Y-50360573D01*
G37*
G36*
X134549369Y-53703660D02*
X136212352Y-53014830D01*
X136748109Y-54308262D01*
X135085126Y-54997092D01*
X134549369Y-53703660D01*
X134549369Y-53703660D01*
G37*
G36*
X133286513Y-50654858D02*
X134949496Y-49966028D01*
X135485253Y-51259460D01*
X133822270Y-51948290D01*
X133286513Y-50654858D01*
X133286513Y-50654858D01*
G37*
G36*
X128851891Y-52491738D02*
X130514874Y-51802908D01*
X131050631Y-53096340D01*
X129387648Y-53785170D01*
X128851891Y-52491738D01*
X128851891Y-52491738D01*
G37*
G36*
X130114747Y-55540540D02*
X131777730Y-54851710D01*
X132313487Y-56145142D01*
X130650504Y-56833972D01*
X130114747Y-55540540D01*
X130114747Y-55540540D01*
G37*
G36*
X132395462Y-53729924D02*
X133319342Y-53347240D01*
X133510684Y-53809180D01*
X132586804Y-54191864D01*
X132395462Y-53729924D01*
X132395462Y-53729924D01*
G37*
G36*
X132089316Y-52990820D02*
X133013196Y-52608136D01*
X133204538Y-53070076D01*
X132280658Y-53452760D01*
X132089316Y-52990820D01*
X132089316Y-52990820D01*
G37*
G36*
X126774957Y-57554992D02*
X128270729Y-56553660D01*
X129049543Y-57717038D01*
X127553771Y-58718370D01*
X126774957Y-57554992D01*
X126774957Y-57554992D01*
G37*
G36*
X124939182Y-54812743D02*
X126434954Y-53811411D01*
X127213768Y-54974789D01*
X125717996Y-55976121D01*
X124939182Y-54812743D01*
X124939182Y-54812743D01*
G37*
G36*
X120950457Y-57482962D02*
X122446229Y-56481630D01*
X123225043Y-57645008D01*
X121729271Y-58646340D01*
X120950457Y-57482962D01*
X120950457Y-57482962D01*
G37*
G36*
X122786232Y-60225211D02*
X124282004Y-59223879D01*
X125060818Y-60387257D01*
X123565046Y-61388589D01*
X122786232Y-60225211D01*
X122786232Y-60225211D01*
G37*
G36*
X124667952Y-58002796D02*
X125498936Y-57446500D01*
X125777084Y-57861992D01*
X124946100Y-58418288D01*
X124667952Y-58002796D01*
X124667952Y-58002796D01*
G37*
G36*
X124222916Y-57338008D02*
X125053900Y-56781712D01*
X125332048Y-57197204D01*
X124501064Y-57753500D01*
X124222916Y-57338008D01*
X124222916Y-57338008D01*
G37*
G36*
X119882411Y-62811091D02*
X121155203Y-61538299D01*
X122145153Y-62528249D01*
X120872361Y-63801041D01*
X119882411Y-62811091D01*
X119882411Y-62811091D01*
G37*
G36*
X117548959Y-60477639D02*
X118821751Y-59204847D01*
X119811701Y-60194797D01*
X118538909Y-61467589D01*
X117548959Y-60477639D01*
X117548959Y-60477639D01*
G37*
G36*
X114154847Y-63871751D02*
X115427639Y-62598959D01*
X116417589Y-63588909D01*
X115144797Y-64861701D01*
X114154847Y-63871751D01*
X114154847Y-63871751D01*
G37*
G36*
X116488299Y-66205203D02*
X117761091Y-64932411D01*
X118751041Y-65922361D01*
X117478249Y-67195153D01*
X116488299Y-66205203D01*
X116488299Y-66205203D01*
G37*
G36*
X117902513Y-63659620D02*
X118609620Y-62952513D01*
X118963173Y-63306066D01*
X118256066Y-64013173D01*
X117902513Y-63659620D01*
X117902513Y-63659620D01*
G37*
G36*
X117336827Y-63093934D02*
X118043934Y-62386827D01*
X118397487Y-62740380D01*
X117690380Y-63447487D01*
X117336827Y-63093934D01*
X117336827Y-63093934D01*
G37*
G36*
X114172623Y-69329171D02*
X115171343Y-67831653D01*
X116336079Y-68608435D01*
X115337359Y-70105953D01*
X114172623Y-69329171D01*
X114172623Y-69329171D01*
G37*
G36*
X111427174Y-67498185D02*
X112425894Y-66000667D01*
X113590630Y-66777449D01*
X112591910Y-68274967D01*
X111427174Y-67498185D01*
X111427174Y-67498185D01*
G37*
G36*
X108763921Y-71491565D02*
X109762641Y-69994047D01*
X110927377Y-70770829D01*
X109928657Y-72268347D01*
X108763921Y-71491565D01*
X108763921Y-71491565D01*
G37*
G36*
X111509370Y-73322551D02*
X112508090Y-71825033D01*
X113672826Y-72601815D01*
X112674106Y-74099333D01*
X111509370Y-73322551D01*
X111509370Y-73322551D01*
G37*
G36*
X112397371Y-70549204D02*
X112952216Y-69717250D01*
X113368193Y-69994672D01*
X112813348Y-70826626D01*
X112397371Y-70549204D01*
X112397371Y-70549204D01*
G37*
G36*
X111731807Y-70105328D02*
X112286652Y-69273374D01*
X112702629Y-69550796D01*
X112147784Y-70382750D01*
X111731807Y-70105328D01*
X111731807Y-70105328D01*
G37*
G36*
X109851710Y-76777730D02*
X110540540Y-75114747D01*
X111833972Y-75650504D01*
X111145142Y-77313487D01*
X109851710Y-76777730D01*
X109851710Y-76777730D01*
G37*
G36*
X106802908Y-75514874D02*
X107491738Y-73851891D01*
X108785170Y-74387648D01*
X108096340Y-76050631D01*
X106802908Y-75514874D01*
X106802908Y-75514874D01*
G37*
G36*
X104966028Y-79949496D02*
X105654858Y-78286513D01*
X106948290Y-78822270D01*
X106259460Y-80485253D01*
X104966028Y-79949496D01*
X104966028Y-79949496D01*
G37*
G36*
X108014830Y-81212352D02*
X108703660Y-79549369D01*
X109997092Y-80085126D01*
X109308262Y-81748109D01*
X108014830Y-81212352D01*
X108014830Y-81212352D01*
G37*
G36*
X108347240Y-78319342D02*
X108729924Y-77395462D01*
X109191864Y-77586804D01*
X108809180Y-78510684D01*
X108347240Y-78319342D01*
X108347240Y-78319342D01*
G37*
G36*
X107608136Y-78013196D02*
X107990820Y-77089316D01*
X108452760Y-77280658D01*
X108070076Y-78204538D01*
X107608136Y-78013196D01*
X107608136Y-78013196D01*
G37*
G36*
X107073258Y-84963090D02*
X107422880Y-83197370D01*
X108796218Y-83469298D01*
X108446596Y-85235018D01*
X107073258Y-84963090D01*
X107073258Y-84963090D01*
G37*
G36*
X103836106Y-84322117D02*
X104185728Y-82556397D01*
X105559066Y-82828325D01*
X105209444Y-84594045D01*
X103836106Y-84322117D01*
X103836106Y-84322117D01*
G37*
G36*
X102903782Y-89030702D02*
X103253404Y-87264982D01*
X104626742Y-87536910D01*
X104277120Y-89302630D01*
X102903782Y-89030702D01*
X102903782Y-89030702D01*
G37*
G36*
X106140934Y-89671675D02*
X106490556Y-87905955D01*
X107863894Y-88177883D01*
X107514272Y-89943603D01*
X106140934Y-89671675D01*
X106140934Y-89671675D01*
G37*
G36*
X105900026Y-86769613D02*
X106094260Y-85788658D01*
X106584738Y-85885775D01*
X106390504Y-86866730D01*
X105900026Y-86769613D01*
X105900026Y-86769613D01*
G37*
G36*
X105115262Y-86614225D02*
X105309496Y-85633270D01*
X105799974Y-85730387D01*
X105605740Y-86711342D01*
X105115262Y-86614225D01*
X105115262Y-86614225D01*
G37*
D14*
X106650000Y-92600000D03*
X103350000Y-92600000D03*
X103350000Y-97400000D03*
X106650000Y-97400000D03*
D15*
X105400000Y-95000000D03*
X104600000Y-95000000D03*
D10*
G36*
X106487664Y-102092929D02*
X106134961Y-100327823D01*
X107507822Y-100053499D01*
X107860525Y-101818605D01*
X106487664Y-102092929D01*
X106487664Y-102092929D01*
G37*
G36*
X103251636Y-102739551D02*
X102898933Y-100974445D01*
X104271794Y-100700121D01*
X104624497Y-102465227D01*
X103251636Y-102739551D01*
X103251636Y-102739551D01*
G37*
G36*
X104192178Y-107446501D02*
X103839475Y-105681395D01*
X105212336Y-105407071D01*
X105565039Y-107172177D01*
X104192178Y-107446501D01*
X104192178Y-107446501D01*
G37*
G36*
X107428206Y-106799879D02*
X107075503Y-105034773D01*
X108448364Y-104760449D01*
X108801067Y-106525555D01*
X107428206Y-106799879D01*
X107428206Y-106799879D01*
G37*
G36*
X106095065Y-104210916D02*
X105899119Y-103230301D01*
X106389427Y-103132328D01*
X106585373Y-104112943D01*
X106095065Y-104210916D01*
X106095065Y-104210916D01*
G37*
G36*
X105310573Y-104367672D02*
X105114627Y-103387057D01*
X105604935Y-103289084D01*
X105800881Y-104269699D01*
X105310573Y-104367672D01*
X105310573Y-104367672D01*
G37*
G36*
X108753660Y-110550631D02*
X108064830Y-108887648D01*
X109358262Y-108351891D01*
X110047092Y-110014874D01*
X108753660Y-110550631D01*
X108753660Y-110550631D01*
G37*
G36*
X105704858Y-111813487D02*
X105016028Y-110150504D01*
X106309460Y-109614747D01*
X106998290Y-111277730D01*
X105704858Y-111813487D01*
X105704858Y-111813487D01*
G37*
G36*
X107541738Y-116248109D02*
X106852908Y-114585126D01*
X108146340Y-114049369D01*
X108835170Y-115712352D01*
X107541738Y-116248109D01*
X107541738Y-116248109D01*
G37*
G36*
X110590540Y-114985253D02*
X109901710Y-113322270D01*
X111195142Y-112786513D01*
X111883972Y-114449496D01*
X110590540Y-114985253D01*
X110590540Y-114985253D01*
G37*
G36*
X108779924Y-112704538D02*
X108397240Y-111780658D01*
X108859180Y-111589316D01*
X109241864Y-112513196D01*
X108779924Y-112704538D01*
X108779924Y-112704538D01*
G37*
G36*
X108040820Y-113010684D02*
X107658136Y-112086804D01*
X108120076Y-111895462D01*
X108502760Y-112819342D01*
X108040820Y-113010684D01*
X108040820Y-113010684D01*
G37*
G36*
X112504992Y-118175043D02*
X111503660Y-116679271D01*
X112667038Y-115900457D01*
X113668370Y-117396229D01*
X112504992Y-118175043D01*
X112504992Y-118175043D01*
G37*
G36*
X109762743Y-120010818D02*
X108761411Y-118515046D01*
X109924789Y-117736232D01*
X110926121Y-119232004D01*
X109762743Y-120010818D01*
X109762743Y-120010818D01*
G37*
G36*
X112432962Y-123999543D02*
X111431630Y-122503771D01*
X112595008Y-121724957D01*
X113596340Y-123220729D01*
X112432962Y-123999543D01*
X112432962Y-123999543D01*
G37*
G36*
X115175211Y-122163768D02*
X114173879Y-120667996D01*
X115337257Y-119889182D01*
X116338589Y-121384954D01*
X115175211Y-122163768D01*
X115175211Y-122163768D01*
G37*
G36*
X112952796Y-120282048D02*
X112396500Y-119451064D01*
X112811992Y-119172916D01*
X113368288Y-120003900D01*
X112952796Y-120282048D01*
X112952796Y-120282048D01*
G37*
G36*
X112288008Y-120727084D02*
X111731712Y-119896100D01*
X112147204Y-119617952D01*
X112703500Y-120448936D01*
X112288008Y-120727084D01*
X112288008Y-120727084D01*
G37*
G36*
X117811091Y-125117589D02*
X116538299Y-123844797D01*
X117528249Y-122854847D01*
X118801041Y-124127639D01*
X117811091Y-125117589D01*
X117811091Y-125117589D01*
G37*
G36*
X115477639Y-127451041D02*
X114204847Y-126178249D01*
X115194797Y-125188299D01*
X116467589Y-126461091D01*
X115477639Y-127451041D01*
X115477639Y-127451041D01*
G37*
G36*
X118871751Y-130845153D02*
X117598959Y-129572361D01*
X118588909Y-128582411D01*
X119861701Y-129855203D01*
X118871751Y-130845153D01*
X118871751Y-130845153D01*
G37*
G36*
X121205203Y-128511701D02*
X119932411Y-127238909D01*
X120922361Y-126248959D01*
X122195153Y-127521751D01*
X121205203Y-128511701D01*
X121205203Y-128511701D01*
G37*
G36*
X118659620Y-127097487D02*
X117952513Y-126390380D01*
X118306066Y-126036827D01*
X119013173Y-126743934D01*
X118659620Y-127097487D01*
X118659620Y-127097487D01*
G37*
G36*
X118093934Y-127663173D02*
X117386827Y-126956066D01*
X117740380Y-126602513D01*
X118447487Y-127309620D01*
X118093934Y-127663173D01*
X118093934Y-127663173D01*
G37*
G36*
X124229171Y-130777377D02*
X122731653Y-129778657D01*
X123508435Y-128613921D01*
X125005953Y-129612641D01*
X124229171Y-130777377D01*
X124229171Y-130777377D01*
G37*
G36*
X122398185Y-133522826D02*
X120900667Y-132524106D01*
X121677449Y-131359370D01*
X123174967Y-132358090D01*
X122398185Y-133522826D01*
X122398185Y-133522826D01*
G37*
G36*
X126391565Y-136186079D02*
X124894047Y-135187359D01*
X125670829Y-134022623D01*
X127168347Y-135021343D01*
X126391565Y-136186079D01*
X126391565Y-136186079D01*
G37*
G36*
X128222551Y-133440630D02*
X126725033Y-132441910D01*
X127501815Y-131277174D01*
X128999333Y-132275894D01*
X128222551Y-133440630D01*
X128222551Y-133440630D01*
G37*
G36*
X125449204Y-132552629D02*
X124617250Y-131997784D01*
X124894672Y-131581807D01*
X125726626Y-132136652D01*
X125449204Y-132552629D01*
X125449204Y-132552629D01*
G37*
G36*
X125005328Y-133218193D02*
X124173374Y-132663348D01*
X124450796Y-132247371D01*
X125282750Y-132802216D01*
X125005328Y-133218193D01*
X125005328Y-133218193D01*
G37*
G36*
X131777730Y-135148290D02*
X130114747Y-134459460D01*
X130650504Y-133166028D01*
X132313487Y-133854858D01*
X131777730Y-135148290D01*
X131777730Y-135148290D01*
G37*
G36*
X130514874Y-138197092D02*
X128851891Y-137508262D01*
X129387648Y-136214830D01*
X131050631Y-136903660D01*
X130514874Y-138197092D01*
X130514874Y-138197092D01*
G37*
G36*
X134949496Y-140033972D02*
X133286513Y-139345142D01*
X133822270Y-138051710D01*
X135485253Y-138740540D01*
X134949496Y-140033972D01*
X134949496Y-140033972D01*
G37*
G36*
X136212352Y-136985170D02*
X134549369Y-136296340D01*
X135085126Y-135002908D01*
X136748109Y-135691738D01*
X136212352Y-136985170D01*
X136212352Y-136985170D01*
G37*
G36*
X133319342Y-136652760D02*
X132395462Y-136270076D01*
X132586804Y-135808136D01*
X133510684Y-136190820D01*
X133319342Y-136652760D01*
X133319342Y-136652760D01*
G37*
G36*
X133013196Y-137391864D02*
X132089316Y-137009180D01*
X132280658Y-136547240D01*
X133204538Y-136929924D01*
X133013196Y-137391864D01*
X133013196Y-137391864D01*
G37*
G36*
X139863090Y-137926742D02*
X138097370Y-137577120D01*
X138369298Y-136203782D01*
X140135018Y-136553404D01*
X139863090Y-137926742D01*
X139863090Y-137926742D01*
G37*
G36*
X139222117Y-141163894D02*
X137456397Y-140814272D01*
X137728325Y-139440934D01*
X139494045Y-139790556D01*
X139222117Y-141163894D01*
X139222117Y-141163894D01*
G37*
G36*
X143930702Y-142096218D02*
X142164982Y-141746596D01*
X142436910Y-140373258D01*
X144202630Y-140722880D01*
X143930702Y-142096218D01*
X143930702Y-142096218D01*
G37*
G36*
X144571675Y-138859066D02*
X142805955Y-138509444D01*
X143077883Y-137136106D01*
X144843603Y-137485728D01*
X144571675Y-138859066D01*
X144571675Y-138859066D01*
G37*
G36*
X141669613Y-139099974D02*
X140688658Y-138905740D01*
X140785775Y-138415262D01*
X141766730Y-138609496D01*
X141669613Y-139099974D01*
X141669613Y-139099974D01*
G37*
G36*
X141514225Y-139884738D02*
X140533270Y-139690504D01*
X140630387Y-139200026D01*
X141611342Y-139394260D01*
X141514225Y-139884738D01*
X141514225Y-139884738D01*
G37*
D16*
X147600000Y-138350000D03*
X147600000Y-141650000D03*
X152400000Y-141650000D03*
X152400000Y-138350000D03*
D17*
X150000000Y-139600000D03*
X150000000Y-140400000D03*
D10*
G36*
X157039613Y-138471021D02*
X155276378Y-138832961D01*
X154994869Y-137461555D01*
X156758104Y-137099615D01*
X157039613Y-138471021D01*
X157039613Y-138471021D01*
G37*
G36*
X157703170Y-141703619D02*
X155939935Y-142065559D01*
X155658426Y-140694153D01*
X157421661Y-140332213D01*
X157703170Y-141703619D01*
X157703170Y-141703619D01*
G37*
G36*
X162405131Y-140738445D02*
X160641896Y-141100385D01*
X160360387Y-139728979D01*
X162123622Y-139367039D01*
X162405131Y-140738445D01*
X162405131Y-140738445D01*
G37*
G36*
X161741574Y-137505847D02*
X159978339Y-137867787D01*
X159696830Y-136496381D01*
X161460065Y-136134441D01*
X161741574Y-137505847D01*
X161741574Y-137505847D01*
G37*
G36*
X159159626Y-138852525D02*
X158180051Y-139053603D01*
X158079512Y-138563815D01*
X159059087Y-138362737D01*
X159159626Y-138852525D01*
X159159626Y-138852525D01*
G37*
G36*
X159320488Y-139636185D02*
X158340913Y-139837263D01*
X158240374Y-139347475D01*
X159219949Y-139146397D01*
X159320488Y-139636185D01*
X159320488Y-139636185D01*
G37*
G36*
X165449066Y-136305503D02*
X163789712Y-137003031D01*
X163247190Y-135712423D01*
X164906544Y-135014895D01*
X165449066Y-136305503D01*
X165449066Y-136305503D01*
G37*
G36*
X166727867Y-139347652D02*
X165068513Y-140045180D01*
X164525991Y-138754572D01*
X166185345Y-138057044D01*
X166727867Y-139347652D01*
X166727867Y-139347652D01*
G37*
G36*
X171152810Y-137487577D02*
X169493456Y-138185105D01*
X168950934Y-136894497D01*
X170610288Y-136196969D01*
X171152810Y-137487577D01*
X171152810Y-137487577D01*
G37*
G36*
X169874009Y-134445428D02*
X168214655Y-135142956D01*
X167672133Y-133852348D01*
X169331487Y-133154820D01*
X169874009Y-134445428D01*
X169874009Y-134445428D01*
G37*
G36*
X167602804Y-136267963D02*
X166680941Y-136655479D01*
X166487184Y-136194547D01*
X167409047Y-135807031D01*
X167602804Y-136267963D01*
X167602804Y-136267963D01*
G37*
G36*
X167912816Y-137005453D02*
X166990953Y-137392969D01*
X166797196Y-136932037D01*
X167719059Y-136544521D01*
X167912816Y-137005453D01*
X167912816Y-137005453D01*
G37*
G36*
X173125211Y-132551204D02*
X171632943Y-133557751D01*
X170850073Y-132397098D01*
X172342341Y-131390551D01*
X173125211Y-132551204D01*
X173125211Y-132551204D01*
G37*
G36*
X174970547Y-135287028D02*
X173478279Y-136293575D01*
X172695409Y-135132922D01*
X174187677Y-134126375D01*
X174970547Y-135287028D01*
X174970547Y-135287028D01*
G37*
G36*
X178949927Y-132602902D02*
X177457659Y-133609449D01*
X176674789Y-132448796D01*
X178167057Y-131442249D01*
X178949927Y-132602902D01*
X178949927Y-132602902D01*
G37*
G36*
X177104591Y-129867078D02*
X175612323Y-130873625D01*
X174829453Y-129712972D01*
X176321721Y-128706425D01*
X177104591Y-129867078D01*
X177104591Y-129867078D01*
G37*
G36*
X175230640Y-132096048D02*
X174401602Y-132655241D01*
X174122006Y-132240722D01*
X174951044Y-131681529D01*
X175230640Y-132096048D01*
X175230640Y-132096048D01*
G37*
G36*
X175677994Y-132759278D02*
X174848956Y-133318471D01*
X174569360Y-132903952D01*
X175398398Y-132344759D01*
X175677994Y-132759278D01*
X175677994Y-132759278D01*
G37*
G36*
X180068269Y-127191932D02*
X178797700Y-128466944D01*
X177806025Y-127478724D01*
X179076594Y-126203712D01*
X180068269Y-127191932D01*
X180068269Y-127191932D01*
G37*
G36*
X182405791Y-129521308D02*
X181135222Y-130796320D01*
X180143547Y-129808100D01*
X181414116Y-128533088D01*
X182405791Y-129521308D01*
X182405791Y-129521308D01*
G37*
G36*
X185793975Y-126121276D02*
X184523406Y-127396288D01*
X183531731Y-126408068D01*
X184802300Y-125133056D01*
X185793975Y-126121276D01*
X185793975Y-126121276D01*
G37*
G36*
X183456453Y-123791900D02*
X182185884Y-125066912D01*
X181194209Y-124078692D01*
X182464778Y-122803680D01*
X183456453Y-123791900D01*
X183456453Y-123791900D01*
G37*
G36*
X182046685Y-126339949D02*
X181340813Y-127048289D01*
X180986643Y-126695353D01*
X181692515Y-125987013D01*
X182046685Y-126339949D01*
X182046685Y-126339949D01*
G37*
G36*
X182613357Y-126904647D02*
X181907485Y-127612987D01*
X181553315Y-127260051D01*
X182259187Y-126551711D01*
X182613357Y-126904647D01*
X182613357Y-126904647D01*
G37*
G36*
X185777377Y-120720829D02*
X184778657Y-122218347D01*
X183613921Y-121441565D01*
X184612641Y-119944047D01*
X185777377Y-120720829D01*
X185777377Y-120720829D01*
G37*
G36*
X188522826Y-122551815D02*
X187524106Y-124049333D01*
X186359370Y-123272551D01*
X187358090Y-121775033D01*
X188522826Y-122551815D01*
X188522826Y-122551815D01*
G37*
G36*
X191186079Y-118558435D02*
X190187359Y-120055953D01*
X189022623Y-119279171D01*
X190021343Y-117781653D01*
X191186079Y-118558435D01*
X191186079Y-118558435D01*
G37*
G36*
X188440630Y-116727449D02*
X187441910Y-118224967D01*
X186277174Y-117448185D01*
X187275894Y-115950667D01*
X188440630Y-116727449D01*
X188440630Y-116727449D01*
G37*
G36*
X187552629Y-119500796D02*
X186997784Y-120332750D01*
X186581807Y-120055328D01*
X187136652Y-119223374D01*
X187552629Y-119500796D01*
X187552629Y-119500796D01*
G37*
G36*
X188218193Y-119944672D02*
X187663348Y-120776626D01*
X187247371Y-120499204D01*
X187802216Y-119667250D01*
X188218193Y-119944672D01*
X188218193Y-119944672D01*
G37*
G36*
X190146507Y-113219735D02*
X189454775Y-114881513D01*
X188162281Y-114343499D01*
X188854013Y-112681721D01*
X190146507Y-113219735D01*
X190146507Y-113219735D01*
G37*
G36*
X193193101Y-114487910D02*
X192501369Y-116149688D01*
X191208875Y-115611674D01*
X191900607Y-113949896D01*
X193193101Y-114487910D01*
X193193101Y-114487910D01*
G37*
G36*
X195037719Y-110056501D02*
X194345987Y-111718279D01*
X193053493Y-111180265D01*
X193745225Y-109518487D01*
X195037719Y-110056501D01*
X195037719Y-110056501D01*
G37*
G36*
X191991125Y-108788326D02*
X191299393Y-110450104D01*
X190006899Y-109912090D01*
X190698631Y-108250312D01*
X191991125Y-108788326D01*
X191991125Y-108788326D01*
G37*
G36*
X191653666Y-111680751D02*
X191269371Y-112603961D01*
X190807766Y-112411813D01*
X191192061Y-111488603D01*
X191653666Y-111680751D01*
X191653666Y-111680751D01*
G37*
G36*
X192392234Y-111988187D02*
X192007939Y-112911397D01*
X191546334Y-112719249D01*
X191930629Y-111796039D01*
X192392234Y-111988187D01*
X192392234Y-111988187D01*
G37*
G36*
X192874497Y-105184773D02*
X192521794Y-106949879D01*
X191148933Y-106675555D01*
X191501636Y-104910449D01*
X192874497Y-105184773D01*
X192874497Y-105184773D01*
G37*
G36*
X196110525Y-105831395D02*
X195757822Y-107596501D01*
X194384961Y-107322177D01*
X194737664Y-105557071D01*
X196110525Y-105831395D01*
X196110525Y-105831395D01*
G37*
G36*
X197051067Y-101124445D02*
X196698364Y-102889551D01*
X195325503Y-102615227D01*
X195678206Y-100850121D01*
X197051067Y-101124445D01*
X197051067Y-101124445D01*
G37*
G36*
X193815039Y-100477823D02*
X193462336Y-102242929D01*
X192089475Y-101968605D01*
X192442178Y-100203499D01*
X193815039Y-100477823D01*
X193815039Y-100477823D01*
G37*
G36*
X194050881Y-103380301D02*
X193854935Y-104360916D01*
X193364627Y-104262943D01*
X193560573Y-103282328D01*
X194050881Y-103380301D01*
X194050881Y-103380301D01*
G37*
G36*
X194835373Y-103537057D02*
X194639427Y-104517672D01*
X194149119Y-104419699D01*
X194345065Y-103439084D01*
X194835373Y-103537057D01*
X194835373Y-103537057D01*
G37*
D14*
X193350000Y-97400000D03*
X196650000Y-97400000D03*
X196650000Y-92600000D03*
X193350000Y-92600000D03*
D15*
X194600000Y-95000000D03*
X195400000Y-95000000D03*
D10*
G36*
X193459444Y-87855955D02*
X193809066Y-89621675D01*
X192435728Y-89893603D01*
X192086106Y-88127883D01*
X193459444Y-87855955D01*
X193459444Y-87855955D01*
G37*
G36*
X196696596Y-87214982D02*
X197046218Y-88980702D01*
X195672880Y-89252630D01*
X195323258Y-87486910D01*
X196696596Y-87214982D01*
X196696596Y-87214982D01*
G37*
G36*
X195764272Y-82506397D02*
X196113894Y-84272117D01*
X194740556Y-84544045D01*
X194390934Y-82778325D01*
X195764272Y-82506397D01*
X195764272Y-82506397D01*
G37*
G36*
X192527120Y-83147370D02*
X192876742Y-84913090D01*
X191503404Y-85185018D01*
X191153782Y-83419298D01*
X192527120Y-83147370D01*
X192527120Y-83147370D01*
G37*
G36*
X193855740Y-85738658D02*
X194049974Y-86719613D01*
X193559496Y-86816730D01*
X193365262Y-85835775D01*
X193855740Y-85738658D01*
X193855740Y-85738658D01*
G37*
G36*
X194640504Y-85583270D02*
X194834738Y-86564225D01*
X194344260Y-86661342D01*
X194150026Y-85680387D01*
X194640504Y-85583270D01*
X194640504Y-85583270D01*
G37*
G36*
X191299393Y-79549896D02*
X191991125Y-81211674D01*
X190698631Y-81749688D01*
X190006899Y-80087910D01*
X191299393Y-79549896D01*
X191299393Y-79549896D01*
G37*
G36*
X194345987Y-78281721D02*
X195037719Y-79943499D01*
X193745225Y-80481513D01*
X193053493Y-78819735D01*
X194345987Y-78281721D01*
X194345987Y-78281721D01*
G37*
G36*
X192501369Y-73850312D02*
X193193101Y-75512090D01*
X191900607Y-76050104D01*
X191208875Y-74388326D01*
X192501369Y-73850312D01*
X192501369Y-73850312D01*
G37*
G36*
X189454775Y-75118487D02*
X190146507Y-76780265D01*
X188854013Y-77318279D01*
X188162281Y-75656501D01*
X189454775Y-75118487D01*
X189454775Y-75118487D01*
G37*
G36*
X191269371Y-77396039D02*
X191653666Y-78319249D01*
X191192061Y-78511397D01*
X190807766Y-77588187D01*
X191269371Y-77396039D01*
X191269371Y-77396039D01*
G37*
G36*
X192007939Y-77088603D02*
X192392234Y-78011813D01*
X191930629Y-78203961D01*
X191546334Y-77280751D01*
X192007939Y-77088603D01*
X192007939Y-77088603D01*
G37*
G36*
X187445008Y-71774957D02*
X188446340Y-73270729D01*
X187282962Y-74049543D01*
X186281630Y-72553771D01*
X187445008Y-71774957D01*
X187445008Y-71774957D01*
G37*
G36*
X190187257Y-69939182D02*
X191188589Y-71434954D01*
X190025211Y-72213768D01*
X189023879Y-70717996D01*
X190187257Y-69939182D01*
X190187257Y-69939182D01*
G37*
G36*
X187517038Y-65950457D02*
X188518370Y-67446229D01*
X187354992Y-68225043D01*
X186353660Y-66729271D01*
X187517038Y-65950457D01*
X187517038Y-65950457D01*
G37*
G36*
X184774789Y-67786232D02*
X185776121Y-69282004D01*
X184612743Y-70060818D01*
X183611411Y-68565046D01*
X184774789Y-67786232D01*
X184774789Y-67786232D01*
G37*
G36*
X186997204Y-69667952D02*
X187553500Y-70498936D01*
X187138008Y-70777084D01*
X186581712Y-69946100D01*
X186997204Y-69667952D01*
X186997204Y-69667952D01*
G37*
G36*
X187661992Y-69222916D02*
X188218288Y-70053900D01*
X187802796Y-70332048D01*
X187246500Y-69501064D01*
X187661992Y-69222916D01*
X187661992Y-69222916D01*
G37*
G36*
X182188909Y-64932411D02*
X183461701Y-66205203D01*
X182471751Y-67195153D01*
X181198959Y-65922361D01*
X182188909Y-64932411D01*
X182188909Y-64932411D01*
G37*
G36*
X184522361Y-62598959D02*
X185795153Y-63871751D01*
X184805203Y-64861701D01*
X183532411Y-63588909D01*
X184522361Y-62598959D01*
X184522361Y-62598959D01*
G37*
G36*
X181128249Y-59204847D02*
X182401041Y-60477639D01*
X181411091Y-61467589D01*
X180138299Y-60194797D01*
X181128249Y-59204847D01*
X181128249Y-59204847D01*
G37*
G36*
X178794797Y-61538299D02*
X180067589Y-62811091D01*
X179077639Y-63801041D01*
X177804847Y-62528249D01*
X178794797Y-61538299D01*
X178794797Y-61538299D01*
G37*
G36*
X181340380Y-62952513D02*
X182047487Y-63659620D01*
X181693934Y-64013173D01*
X180986827Y-63306066D01*
X181340380Y-62952513D01*
X181340380Y-62952513D01*
G37*
G36*
X181906066Y-62386827D02*
X182613173Y-63093934D01*
X182259620Y-63447487D01*
X181552513Y-62740380D01*
X181906066Y-62386827D01*
X181906066Y-62386827D01*
G37*
G36*
X175717996Y-59223879D02*
X177213768Y-60225211D01*
X176434954Y-61388589D01*
X174939182Y-60387257D01*
X175717996Y-59223879D01*
X175717996Y-59223879D01*
G37*
G36*
X177553771Y-56481630D02*
X179049543Y-57482962D01*
X178270729Y-58646340D01*
X176774957Y-57645008D01*
X177553771Y-56481630D01*
X177553771Y-56481630D01*
G37*
G36*
X173565046Y-53811411D02*
X175060818Y-54812743D01*
X174282004Y-55976121D01*
X172786232Y-54974789D01*
X173565046Y-53811411D01*
X173565046Y-53811411D01*
G37*
G36*
X171729271Y-56553660D02*
X173225043Y-57554992D01*
X172446229Y-58718370D01*
X170950457Y-57717038D01*
X171729271Y-56553660D01*
X171729271Y-56553660D01*
G37*
G36*
X174501064Y-57446500D02*
X175332048Y-58002796D01*
X175053900Y-58418288D01*
X174222916Y-57861992D01*
X174501064Y-57446500D01*
X174501064Y-57446500D01*
G37*
G36*
X174946100Y-56781712D02*
X175777084Y-57338008D01*
X175498936Y-57753500D01*
X174667952Y-57197204D01*
X174946100Y-56781712D01*
X174946100Y-56781712D01*
G37*
G36*
X168222270Y-54851710D02*
X169885253Y-55540540D01*
X169349496Y-56833972D01*
X167686513Y-56145142D01*
X168222270Y-54851710D01*
X168222270Y-54851710D01*
G37*
G36*
X169485126Y-51802908D02*
X171148109Y-52491738D01*
X170612352Y-53785170D01*
X168949369Y-53096340D01*
X169485126Y-51802908D01*
X169485126Y-51802908D01*
G37*
G36*
X165050504Y-49966028D02*
X166713487Y-50654858D01*
X166177730Y-51948290D01*
X164514747Y-51259460D01*
X165050504Y-49966028D01*
X165050504Y-49966028D01*
G37*
G36*
X163787648Y-53014830D02*
X165450631Y-53703660D01*
X164914874Y-54997092D01*
X163251891Y-54308262D01*
X163787648Y-53014830D01*
X163787648Y-53014830D01*
G37*
G36*
X166680658Y-53347240D02*
X167604538Y-53729924D01*
X167413196Y-54191864D01*
X166489316Y-53809180D01*
X166680658Y-53347240D01*
X166680658Y-53347240D01*
G37*
G36*
X166986804Y-52608136D02*
X167910684Y-52990820D01*
X167719342Y-53452760D01*
X166795462Y-53070076D01*
X166986804Y-52608136D01*
X166986804Y-52608136D01*
G37*
G36*
X160084773Y-52125503D02*
X161849879Y-52478206D01*
X161575555Y-53851067D01*
X159810449Y-53498364D01*
X160084773Y-52125503D01*
X160084773Y-52125503D01*
G37*
G36*
X160731395Y-48889475D02*
X162496501Y-49242178D01*
X162222177Y-50615039D01*
X160457071Y-50262336D01*
X160731395Y-48889475D01*
X160731395Y-48889475D01*
G37*
G36*
X156024445Y-47948933D02*
X157789551Y-48301636D01*
X157515227Y-49674497D01*
X155750121Y-49321794D01*
X156024445Y-47948933D01*
X156024445Y-47948933D01*
G37*
G36*
X155377823Y-51184961D02*
X157142929Y-51537664D01*
X156868605Y-52910525D01*
X155103499Y-52557822D01*
X155377823Y-51184961D01*
X155377823Y-51184961D01*
G37*
G36*
X158280301Y-50949119D02*
X159260916Y-51145065D01*
X159162943Y-51635373D01*
X158182328Y-51439427D01*
X158280301Y-50949119D01*
X158280301Y-50949119D01*
G37*
G36*
X158437057Y-50164627D02*
X159417672Y-50360573D01*
X159319699Y-50850881D01*
X158339084Y-50654935D01*
X158437057Y-50164627D01*
X158437057Y-50164627D01*
G37*
D16*
X152400000Y-51650000D03*
X152400000Y-48350000D03*
X147600000Y-48350000D03*
X147600000Y-51650000D03*
D17*
X150000000Y-50400000D03*
X150000000Y-49600000D03*
M02*
