M48
METRIC,TZ
T1C0.305
T2C1.016
T3C2.500
%
G90
G05
T1
X102600Y-099650
X102700Y-090500
X104400Y-081100
X104600Y-108800
X105000Y-097500
X105400Y-088500
X106300Y-106100
X107500Y-080100
X108000Y-072500
X108100Y-117500
X109400Y-114500
X110000Y-097650
X110050Y-092350
X110200Y-089850
X110250Y-100200
X111100Y-072100
X111250Y-084650
X111300Y-105400
X112000Y-107900
X112050Y-082150
X113100Y-125100
X113200Y-064900
X113900Y-122000
X114050Y-077250
X114100Y-112800
X115250Y-114950
X115300Y-075050
X116500Y-064900
X118200Y-070600
X118200Y-119400
X119800Y-121450
X119800Y-131800
X119850Y-068600
X119900Y-058000
X119900Y-128600
X123000Y-059000
X123550Y-064800
X123600Y-125200
X125500Y-063350
X125550Y-126700
X127100Y-133800
X127400Y-053000
X127600Y-136800
X129850Y-060300
X129950Y-129750
X130500Y-054400
X132200Y-130950
X132250Y-059100
X135100Y-137600
X135500Y-063400
X136200Y-049400
X136200Y-140500
X137150Y-056950
X137150Y-133000
X138900Y-051400
X139040Y-123730
X139550Y-056250
X139550Y-133700
X140040Y-062396
X143600Y-139800
X144750Y-134700
X144800Y-055150
X145300Y-047500
X145300Y-142200
X146180Y-055800
X147300Y-055000
X147350Y-135000
X147600Y-049970
X147800Y-059530
X152500Y-140200
X152650Y-055000
X152650Y-135000
X154600Y-047700
X154700Y-142400
X155200Y-055300
X155200Y-134750
X156300Y-050500
X160400Y-056300
X160400Y-133650
X160910Y-121770
X161100Y-138700
X162800Y-056950
X162850Y-133000
X163800Y-049600
X163800Y-140600
X164300Y-052500
X167750Y-059050
X167750Y-130850
X169500Y-135800
X169850Y-129800
X170100Y-060250
X172300Y-053200
X172400Y-137100
X172600Y-056100
X174250Y-126700
X174500Y-063250
X176400Y-064850
X176450Y-125200
X177000Y-131200
X179900Y-061700
X180100Y-058400
X180100Y-131800
X180150Y-121350
X180200Y-068550
X181750Y-070550
X181850Y-119400
X183600Y-125000
X184700Y-074950
X184750Y-115000
X185900Y-077250
X185950Y-112750
X186000Y-068200
X186700Y-125000
X186800Y-064900
X187950Y-107850
X188000Y-082150
X188650Y-105450
X188700Y-117900
X188750Y-084600
X189700Y-100250
X189800Y-089800
X190000Y-092350
X190000Y-097650
X190500Y-075700
X191900Y-117400
X192000Y-072600
X192500Y-109900
X193500Y-083900
X194500Y-101500
X194900Y-092700
X195400Y-081300
X195600Y-108900
X197200Y-090400
X197300Y-099700
T2
X144940Y-130740
X155100Y-130740
T3
X147480Y-130740
X152560Y-130740
T0
M30
