G04 #@! TF.FileFunction,Legend,Bot*
%FSLAX46Y46*%
G04 Gerber Fmt 4.6, Leading zero omitted, Abs format (unit mm)*
G04 Created by KiCad (PCBNEW (2015-02-11 BZR 5414)-product) date Thu 12 Feb 2015 02:52:31 PM CET*
%MOMM*%
G01*
G04 APERTURE LIST*
%ADD10C,0.100000*%
%ADD11C,0.200000*%
%ADD12C,0.250000*%
%ADD13C,0.203200*%
%ADD14C,0.187500*%
%ADD15O,3.500000X5.500000*%
%ADD16R,1.400000X1.000000*%
%ADD17R,1.250000X0.650000*%
%ADD18R,1.800000X1.800000*%
%ADD19R,3.800000X1.400000*%
%ADD20R,1.498600X1.297940*%
%ADD21R,1.297940X1.498600*%
%ADD22R,1.400000X1.800000*%
%ADD23R,0.500000X1.000000*%
%ADD24R,1.800000X1.400000*%
%ADD25R,1.000000X0.500000*%
%ADD26R,1.099820X0.998220*%
%ADD27R,1.650000X1.650000*%
%ADD28C,1.650000*%
G04 APERTURE END LIST*
D10*
D11*
X155980476Y-128352381D02*
X156456667Y-128352381D01*
X156504286Y-128828571D01*
X156456667Y-128780952D01*
X156361429Y-128733333D01*
X156123333Y-128733333D01*
X156028095Y-128780952D01*
X155980476Y-128828571D01*
X155932857Y-128923810D01*
X155932857Y-129161905D01*
X155980476Y-129257143D01*
X156028095Y-129304762D01*
X156123333Y-129352381D01*
X156361429Y-129352381D01*
X156456667Y-129304762D01*
X156504286Y-129257143D01*
X155647143Y-128352381D02*
X155313810Y-129352381D01*
X154980476Y-128352381D01*
X153939523Y-125771905D02*
X153444285Y-125771905D01*
X153710952Y-126076667D01*
X153596666Y-126076667D01*
X153520476Y-126114762D01*
X153482380Y-126152857D01*
X153444285Y-126229048D01*
X153444285Y-126419524D01*
X153482380Y-126495714D01*
X153520476Y-126533810D01*
X153596666Y-126571905D01*
X153825238Y-126571905D01*
X153901428Y-126533810D01*
X153939523Y-126495714D01*
X153139523Y-126343333D02*
X152758571Y-126343333D01*
X153215714Y-126571905D02*
X152949047Y-125771905D01*
X152682380Y-126571905D01*
X143858572Y-130487143D02*
X145001429Y-130487143D01*
X155178572Y-130457143D02*
X156321429Y-130457143D01*
X155750000Y-131028571D02*
X155750000Y-129885714D01*
X152309523Y-72328571D02*
X152166666Y-72376190D01*
X152119047Y-72423810D01*
X152071428Y-72519048D01*
X152071428Y-72661905D01*
X152119047Y-72757143D01*
X152166666Y-72804762D01*
X152261904Y-72852381D01*
X152642857Y-72852381D01*
X152642857Y-71852381D01*
X152309523Y-71852381D01*
X152214285Y-71900000D01*
X152166666Y-71947619D01*
X152119047Y-72042857D01*
X152119047Y-72138095D01*
X152166666Y-72233333D01*
X152214285Y-72280952D01*
X152309523Y-72328571D01*
X152642857Y-72328571D01*
X151452381Y-71852381D02*
X151261904Y-71852381D01*
X151166666Y-71900000D01*
X151071428Y-71995238D01*
X151023809Y-72185714D01*
X151023809Y-72519048D01*
X151071428Y-72709524D01*
X151166666Y-72804762D01*
X151261904Y-72852381D01*
X151452381Y-72852381D01*
X151547619Y-72804762D01*
X151642857Y-72709524D01*
X151690476Y-72519048D01*
X151690476Y-72185714D01*
X151642857Y-71995238D01*
X151547619Y-71900000D01*
X151452381Y-71852381D01*
X150738095Y-71852381D02*
X150166666Y-71852381D01*
X150452381Y-72852381D02*
X150452381Y-71852381D01*
X149976190Y-71852381D02*
X149404761Y-71852381D01*
X149690476Y-72852381D02*
X149690476Y-71852381D01*
X148880952Y-71852381D02*
X148690475Y-71852381D01*
X148595237Y-71900000D01*
X148499999Y-71995238D01*
X148452380Y-72185714D01*
X148452380Y-72519048D01*
X148499999Y-72709524D01*
X148595237Y-72804762D01*
X148690475Y-72852381D01*
X148880952Y-72852381D01*
X148976190Y-72804762D01*
X149071428Y-72709524D01*
X149119047Y-72519048D01*
X149119047Y-72185714D01*
X149071428Y-71995238D01*
X148976190Y-71900000D01*
X148880952Y-71852381D01*
X148023809Y-72852381D02*
X148023809Y-71852381D01*
X147690475Y-72566667D01*
X147357142Y-71852381D01*
X147357142Y-72852381D01*
D12*
X175000000Y-95000000D02*
G75*
G03X175000000Y-95000000I-25000000J0D01*
G01*
D11*
X149550000Y-128140000D02*
X150950000Y-127740000D01*
X149550000Y-132820000D02*
X150950000Y-133220000D01*
X154450000Y-127740000D02*
X150950000Y-127740000D01*
X154450000Y-133220000D02*
X150950000Y-133220000D01*
X145550000Y-128140000D02*
X149550000Y-128140000D01*
X145550000Y-132820000D02*
X149550000Y-132820000D01*
X154450000Y-127280000D02*
X150950000Y-127280000D01*
X150950000Y-127280000D02*
X149550000Y-127680000D01*
X154450000Y-133680000D02*
X150950000Y-133680000D01*
X150950000Y-133680000D02*
X149550000Y-133280000D01*
X154450000Y-133680000D02*
X154450000Y-127280000D01*
X145550000Y-133280000D02*
X145550000Y-127680000D01*
X145550000Y-127680000D02*
X149550000Y-127680000D01*
X145550000Y-133280000D02*
X149550000Y-133280000D01*
X153588800Y-121771400D02*
X153588800Y-122228600D01*
X153588800Y-122228600D02*
X153007140Y-122228600D01*
X153007140Y-121771400D02*
X153007140Y-122228600D01*
X153588800Y-121771400D02*
X153007140Y-121771400D01*
X155592860Y-122711200D02*
X155592860Y-123168400D01*
X155592860Y-123168400D02*
X155011200Y-123168400D01*
X155011200Y-122711200D02*
X155011200Y-123168400D01*
X155592860Y-122711200D02*
X155011200Y-122711200D01*
X155592860Y-120831600D02*
X155592860Y-121288800D01*
X155592860Y-121288800D02*
X155011200Y-121288800D01*
X155011200Y-120831600D02*
X155011200Y-121288800D01*
X155592860Y-120831600D02*
X155011200Y-120831600D01*
X154599720Y-121502160D02*
X154599720Y-122497840D01*
X154599720Y-122497840D02*
X154000280Y-122497840D01*
X154000280Y-121502160D02*
X154000280Y-122497840D01*
X154599720Y-121502160D02*
X154000280Y-121502160D01*
X153642140Y-123419860D02*
X154957860Y-123419860D01*
X154957860Y-123419860D02*
X154957860Y-120580140D01*
X154957860Y-120580140D02*
X153642140Y-120580140D01*
X153642140Y-120580140D02*
X153642140Y-123419860D01*
X146201200Y-122228600D02*
X146201200Y-121771400D01*
X146201200Y-121771400D02*
X146782860Y-121771400D01*
X146782860Y-122228600D02*
X146782860Y-121771400D01*
X146201200Y-122228600D02*
X146782860Y-122228600D01*
X144197140Y-121288800D02*
X144197140Y-120831600D01*
X144197140Y-120831600D02*
X144778800Y-120831600D01*
X144778800Y-121288800D02*
X144778800Y-120831600D01*
X144197140Y-121288800D02*
X144778800Y-121288800D01*
X144197140Y-123168400D02*
X144197140Y-122711200D01*
X144197140Y-122711200D02*
X144778800Y-122711200D01*
X144778800Y-123168400D02*
X144778800Y-122711200D01*
X144197140Y-123168400D02*
X144778800Y-123168400D01*
X145190280Y-122497840D02*
X145190280Y-121502160D01*
X145190280Y-121502160D02*
X145789720Y-121502160D01*
X145789720Y-122497840D02*
X145789720Y-121502160D01*
X145190280Y-122497840D02*
X145789720Y-122497840D01*
X146147860Y-120580140D02*
X144832140Y-120580140D01*
X144832140Y-120580140D02*
X144832140Y-123419860D01*
X144832140Y-123419860D02*
X146147860Y-123419860D01*
X146147860Y-123419860D02*
X146147860Y-120580140D01*
X150150000Y-66100000D02*
X154550000Y-66100000D01*
X154550000Y-66100000D02*
X154550000Y-62300000D01*
X154550000Y-62300000D02*
X150150000Y-62300000D01*
X150150000Y-62300000D02*
X150150000Y-66100000D01*
X151638800Y-63971400D02*
X151638800Y-64428600D01*
X151638800Y-64428600D02*
X151057140Y-64428600D01*
X151057140Y-63971400D02*
X151057140Y-64428600D01*
X151638800Y-63971400D02*
X151057140Y-63971400D01*
X153642860Y-64911200D02*
X153642860Y-65368400D01*
X153642860Y-65368400D02*
X153061200Y-65368400D01*
X153061200Y-64911200D02*
X153061200Y-65368400D01*
X153642860Y-64911200D02*
X153061200Y-64911200D01*
X153642860Y-63031600D02*
X153642860Y-63488800D01*
X153642860Y-63488800D02*
X153061200Y-63488800D01*
X153061200Y-63031600D02*
X153061200Y-63488800D01*
X153642860Y-63031600D02*
X153061200Y-63031600D01*
X152649720Y-63702160D02*
X152649720Y-64697840D01*
X152649720Y-64697840D02*
X152050280Y-64697840D01*
X152050280Y-63702160D02*
X152050280Y-64697840D01*
X152649720Y-63702160D02*
X152050280Y-63702160D01*
X151692140Y-65619860D02*
X153007860Y-65619860D01*
X153007860Y-65619860D02*
X153007860Y-62780140D01*
X153007860Y-62780140D02*
X151692140Y-62780140D01*
X151692140Y-62780140D02*
X151692140Y-65619860D01*
X149850000Y-62300000D02*
X145450000Y-62300000D01*
X145450000Y-62300000D02*
X145450000Y-66100000D01*
X145450000Y-66100000D02*
X149850000Y-66100000D01*
X149850000Y-66100000D02*
X149850000Y-62300000D01*
X148361200Y-64428600D02*
X148361200Y-63971400D01*
X148361200Y-63971400D02*
X148942860Y-63971400D01*
X148942860Y-64428600D02*
X148942860Y-63971400D01*
X148361200Y-64428600D02*
X148942860Y-64428600D01*
X146357140Y-63488800D02*
X146357140Y-63031600D01*
X146357140Y-63031600D02*
X146938800Y-63031600D01*
X146938800Y-63488800D02*
X146938800Y-63031600D01*
X146357140Y-63488800D02*
X146938800Y-63488800D01*
X146357140Y-65368400D02*
X146357140Y-64911200D01*
X146357140Y-64911200D02*
X146938800Y-64911200D01*
X146938800Y-65368400D02*
X146938800Y-64911200D01*
X146357140Y-65368400D02*
X146938800Y-65368400D01*
X147350280Y-64697840D02*
X147350280Y-63702160D01*
X147350280Y-63702160D02*
X147949720Y-63702160D01*
X147949720Y-64697840D02*
X147949720Y-63702160D01*
X147350280Y-64697840D02*
X147949720Y-64697840D01*
X148307860Y-62780140D02*
X146992140Y-62780140D01*
X146992140Y-62780140D02*
X146992140Y-65619860D01*
X146992140Y-65619860D02*
X148307860Y-65619860D01*
X148307860Y-65619860D02*
X148307860Y-62780140D01*
X150500000Y-67050000D02*
G75*
G03X150500000Y-67050000I-100000J0D01*
G01*
X149192280Y-66580140D02*
X149192280Y-69419860D01*
X150807720Y-66580140D02*
X150807720Y-69419860D01*
D10*
X151498600Y-66801120D02*
X151498600Y-67301500D01*
X151498600Y-67301500D02*
X150848360Y-67301500D01*
X151498600Y-66801120D02*
X150848360Y-66801120D01*
X151498600Y-67751080D02*
X151498600Y-68248920D01*
X151498600Y-68248920D02*
X150848360Y-68248920D01*
X151498600Y-67751080D02*
X150848360Y-67751080D01*
X151498600Y-68698500D02*
X151498600Y-69198880D01*
X151498600Y-69198880D02*
X150848360Y-69198880D01*
X151498600Y-68698500D02*
X150848360Y-68698500D01*
X149151640Y-69198880D02*
X148501400Y-69198880D01*
X148501400Y-68698500D02*
X148501400Y-69198880D01*
X149151640Y-68698500D02*
X148501400Y-68698500D01*
X149151640Y-67301500D02*
X148501400Y-67301500D01*
X148501400Y-66801120D02*
X148501400Y-67301500D01*
X149151640Y-66801120D02*
X148501400Y-66801120D01*
D11*
X149192280Y-69419860D02*
X150807720Y-69419860D01*
X150807720Y-66580140D02*
X149192280Y-66580140D01*
X151640000Y-122200000D02*
X151640000Y-125200000D01*
X150740000Y-123200000D02*
X150740000Y-124200000D01*
X149140000Y-123200000D02*
X149140000Y-124200000D01*
X148240000Y-122200000D02*
X148240000Y-125200000D01*
X147640000Y-120300000D02*
X147640000Y-127100000D01*
X147640000Y-127100000D02*
X152240000Y-127100000D01*
X152240000Y-127100000D02*
X152240000Y-120300000D01*
X152240000Y-120300000D02*
X147640000Y-120300000D01*
X140023230Y-55013216D02*
X143945689Y-54229432D01*
X140023230Y-55013216D02*
X140454311Y-57170568D01*
X140454311Y-57170568D02*
X144376770Y-56386784D01*
X144376770Y-56386784D02*
X143945689Y-54229432D01*
X132431289Y-57749099D02*
X136126807Y-56218366D01*
X132431289Y-57749099D02*
X133273193Y-59781634D01*
X133273193Y-59781634D02*
X136968711Y-58250901D01*
X136968711Y-58250901D02*
X136126807Y-56218366D01*
X125426106Y-61998508D02*
X128750044Y-59773326D01*
X125426106Y-61998508D02*
X126649956Y-63826674D01*
X126649956Y-63826674D02*
X129973894Y-61601492D01*
X129973894Y-61601492D02*
X128750044Y-59773326D01*
X119507969Y-67336396D02*
X122336396Y-64507969D01*
X119507969Y-67336396D02*
X121063604Y-68892031D01*
X121063604Y-68892031D02*
X123892031Y-66063604D01*
X123892031Y-66063604D02*
X122336396Y-64507969D01*
X114725162Y-73853579D02*
X116944539Y-70525763D01*
X114725162Y-73853579D02*
X116555461Y-75074237D01*
X116555461Y-75074237D02*
X118774838Y-71746421D01*
X118774838Y-71746421D02*
X116944539Y-70525763D01*
X111268366Y-81126807D02*
X112799099Y-77431289D01*
X111268366Y-81126807D02*
X113300901Y-81968711D01*
X113300901Y-81968711D02*
X114831634Y-78273193D01*
X114831634Y-78273193D02*
X112799099Y-77431289D01*
X109282481Y-88998253D02*
X110059418Y-85074432D01*
X109282481Y-88998253D02*
X111440582Y-89425568D01*
X111440582Y-89425568D02*
X112217519Y-85501747D01*
X112217519Y-85501747D02*
X110059418Y-85074432D01*
X108900000Y-97000000D02*
X108900000Y-93000000D01*
X108900000Y-97000000D02*
X111100000Y-97000000D01*
X111100000Y-97000000D02*
X111100000Y-93000000D01*
X111100000Y-93000000D02*
X108900000Y-93000000D01*
X110063216Y-104976770D02*
X109279432Y-101054311D01*
X110063216Y-104976770D02*
X112220568Y-104545689D01*
X112220568Y-104545689D02*
X111436784Y-100623230D01*
X111436784Y-100623230D02*
X109279432Y-101054311D01*
X112799099Y-112618711D02*
X111268366Y-108923193D01*
X112799099Y-112618711D02*
X114831634Y-111776807D01*
X114831634Y-111776807D02*
X113300901Y-108081289D01*
X113300901Y-108081289D02*
X111268366Y-108923193D01*
X116898508Y-119473894D02*
X114673326Y-116149956D01*
X116898508Y-119473894D02*
X118726674Y-118250044D01*
X118726674Y-118250044D02*
X116501492Y-114926106D01*
X116501492Y-114926106D02*
X114673326Y-116149956D01*
X122336396Y-125492031D02*
X119507969Y-122663604D01*
X122336396Y-125492031D02*
X123892031Y-123936396D01*
X123892031Y-123936396D02*
X121063604Y-121107969D01*
X121063604Y-121107969D02*
X119507969Y-122663604D01*
X128803579Y-130274838D02*
X125475763Y-128055461D01*
X128803579Y-130274838D02*
X130024237Y-128444539D01*
X130024237Y-128444539D02*
X126696421Y-126225162D01*
X126696421Y-126225162D02*
X125475763Y-128055461D01*
X136126807Y-133731634D02*
X132431289Y-132200901D01*
X136126807Y-133731634D02*
X136968711Y-131699099D01*
X136968711Y-131699099D02*
X133273193Y-130168366D01*
X133273193Y-130168366D02*
X132431289Y-132200901D01*
X143898253Y-135667519D02*
X139974432Y-134890582D01*
X143898253Y-135667519D02*
X144325568Y-133509418D01*
X144325568Y-133509418D02*
X140401747Y-132732481D01*
X140401747Y-132732481D02*
X139974432Y-134890582D01*
X159971922Y-134901964D02*
X156044088Y-135658345D01*
X159971922Y-134901964D02*
X159555912Y-132741655D01*
X159555912Y-132741655D02*
X155628078Y-133498036D01*
X155628078Y-133498036D02*
X156044088Y-135658345D01*
X152000000Y-136100000D02*
X148000000Y-136100000D01*
X152000000Y-136100000D02*
X152000000Y-133900000D01*
X152000000Y-133900000D02*
X148000000Y-133900000D01*
X148000000Y-133900000D02*
X148000000Y-136100000D01*
X167569993Y-132139018D02*
X163882541Y-133689081D01*
X167569993Y-132139018D02*
X166717459Y-130110919D01*
X166717459Y-130110919D02*
X163030007Y-131660982D01*
X163030007Y-131660982D02*
X163882541Y-133689081D01*
X174373187Y-128093556D02*
X171057037Y-130330327D01*
X174373187Y-128093556D02*
X173142963Y-126269673D01*
X173142963Y-126269673D02*
X169826813Y-128506444D01*
X169826813Y-128506444D02*
X171057037Y-130330327D01*
X180492031Y-122663604D02*
X177663604Y-125492031D01*
X180492031Y-122663604D02*
X178936396Y-121107969D01*
X178936396Y-121107969D02*
X176107969Y-123936396D01*
X176107969Y-123936396D02*
X177663604Y-125492031D01*
X185326674Y-116149956D02*
X183101492Y-119473894D01*
X185326674Y-116149956D02*
X183498508Y-114926106D01*
X183498508Y-114926106D02*
X181273326Y-118250044D01*
X181273326Y-118250044D02*
X183101492Y-119473894D01*
X188731634Y-108873193D02*
X187200901Y-112568711D01*
X188731634Y-108873193D02*
X186699099Y-108031289D01*
X186699099Y-108031289D02*
X185168366Y-111726807D01*
X185168366Y-111726807D02*
X187200901Y-112568711D01*
X190670568Y-101104311D02*
X189886784Y-105026770D01*
X190670568Y-101104311D02*
X188513216Y-100673230D01*
X188513216Y-100673230D02*
X187729432Y-104595689D01*
X187729432Y-104595689D02*
X189886784Y-105026770D01*
X191100000Y-93000000D02*
X191100000Y-97000000D01*
X191100000Y-93000000D02*
X188900000Y-93000000D01*
X188900000Y-93000000D02*
X188900000Y-97000000D01*
X188900000Y-97000000D02*
X191100000Y-97000000D01*
X189940582Y-85024432D02*
X190717519Y-88948253D01*
X189940582Y-85024432D02*
X187782481Y-85451747D01*
X187782481Y-85451747D02*
X188559418Y-89375568D01*
X188559418Y-89375568D02*
X190717519Y-88948253D01*
X187200901Y-77431289D02*
X188731634Y-81126807D01*
X187200901Y-77431289D02*
X185168366Y-78273193D01*
X185168366Y-78273193D02*
X186699099Y-81968711D01*
X186699099Y-81968711D02*
X188731634Y-81126807D01*
X183051492Y-70476106D02*
X185276674Y-73800044D01*
X183051492Y-70476106D02*
X181223326Y-71699956D01*
X181223326Y-71699956D02*
X183448508Y-75023894D01*
X183448508Y-75023894D02*
X185276674Y-73800044D01*
X177663604Y-64507969D02*
X180492031Y-67336396D01*
X177663604Y-64507969D02*
X176107969Y-66063604D01*
X176107969Y-66063604D02*
X178936396Y-68892031D01*
X178936396Y-68892031D02*
X180492031Y-67336396D01*
X171232310Y-59782566D02*
X174575540Y-61978658D01*
X171232310Y-59782566D02*
X170024460Y-61621342D01*
X170024460Y-61621342D02*
X173367690Y-63817434D01*
X173367690Y-63817434D02*
X174575540Y-61978658D01*
X163873193Y-56218366D02*
X167568711Y-57749099D01*
X163873193Y-56218366D02*
X163031289Y-58250901D01*
X163031289Y-58250901D02*
X166726807Y-59781634D01*
X166726807Y-59781634D02*
X167568711Y-57749099D01*
X156054311Y-54329432D02*
X159976770Y-55113216D01*
X156054311Y-54329432D02*
X155623230Y-56486784D01*
X155623230Y-56486784D02*
X159545689Y-57270568D01*
X159545689Y-57270568D02*
X159976770Y-55113216D01*
X148000000Y-53900000D02*
X152000000Y-53900000D01*
X148000000Y-53900000D02*
X148000000Y-56100000D01*
X148000000Y-56100000D02*
X152000000Y-56100000D01*
X152000000Y-56100000D02*
X152000000Y-53900000D01*
X142476561Y-51684669D02*
X142084669Y-49723439D01*
X142084669Y-49723439D02*
X140123439Y-50115331D01*
X140123439Y-50115331D02*
X140417358Y-51586253D01*
X140417358Y-51586253D02*
X141005639Y-51978588D01*
X141005639Y-51978588D02*
X142476561Y-51684669D01*
D13*
X142770480Y-53155591D02*
X140809251Y-53547483D01*
X138946436Y-51880173D02*
X138750490Y-50899558D01*
X141790749Y-48252517D02*
X139829520Y-48644409D01*
X143849510Y-50900442D02*
X143653564Y-49919827D01*
D11*
X134106563Y-53941196D02*
X133341196Y-52093437D01*
X133341196Y-52093437D02*
X131493437Y-52858804D01*
X131493437Y-52858804D02*
X132067462Y-54244623D01*
X132067462Y-54244623D02*
X132720744Y-54515221D01*
X132720744Y-54515221D02*
X134106563Y-53941196D01*
D13*
X134680588Y-55327015D02*
X132832829Y-56092382D01*
X130681643Y-54818648D02*
X130298959Y-53894769D01*
X132767171Y-50707618D02*
X130919412Y-51472985D01*
X135301041Y-52905231D02*
X134918357Y-51981352D01*
D11*
X126387280Y-57874689D02*
X125274689Y-56212720D01*
X125274689Y-56212720D02*
X123612720Y-57325311D01*
X123612720Y-57325311D02*
X124447163Y-58571788D01*
X124447163Y-58571788D02*
X125140803Y-58709132D01*
X125140803Y-58709132D02*
X126387280Y-57874689D01*
D13*
X127221724Y-59121166D02*
X125559755Y-60233757D01*
X123200687Y-59406231D02*
X122644391Y-58575247D01*
X124440245Y-54966243D02*
X122778276Y-56078834D01*
X127355609Y-56624753D02*
X126799313Y-55793769D01*
D11*
X119564214Y-63200000D02*
X118150000Y-61785786D01*
X118150000Y-61785786D02*
X116735786Y-63200000D01*
X116735786Y-63200000D02*
X117796447Y-64260660D01*
X117796447Y-64260660D02*
X118503553Y-64260660D01*
X118503553Y-64260660D02*
X119564214Y-63200000D01*
D13*
X120624874Y-64260660D02*
X119210660Y-65674874D01*
X116735786Y-65321320D02*
X116028680Y-64614214D01*
X117089340Y-60725126D02*
X115675126Y-62139340D01*
X120271320Y-61785786D02*
X119564214Y-61078680D01*
D11*
X113936799Y-69772890D02*
X112272890Y-68663201D01*
X112272890Y-68663201D02*
X111163201Y-70327110D01*
X111163201Y-70327110D02*
X112411133Y-71159376D01*
X112411133Y-71159376D02*
X113104532Y-71020821D01*
X113104532Y-71020821D02*
X113936799Y-69772890D01*
D13*
X115184730Y-70605157D02*
X114075041Y-72269065D01*
X111578866Y-72407308D02*
X110746912Y-71852463D01*
X111024959Y-67830935D02*
X109915270Y-69494843D01*
X114353088Y-68247537D02*
X113521134Y-67692692D01*
D11*
X109706563Y-77258804D02*
X107858804Y-76493437D01*
X107858804Y-76493437D02*
X107093437Y-78341196D01*
X107093437Y-78341196D02*
X108479256Y-78915221D01*
X108479256Y-78915221D02*
X109132538Y-78644623D01*
X109132538Y-78644623D02*
X109706563Y-77258804D01*
D13*
X111092382Y-77832829D02*
X110327015Y-79680588D01*
X107905231Y-80301041D02*
X106981352Y-79918357D01*
X106472985Y-75919412D02*
X105707618Y-77767171D01*
X109818648Y-75681643D02*
X108894769Y-75298959D01*
D11*
X107025190Y-85463279D02*
X105063279Y-85074810D01*
X105063279Y-85074810D02*
X104674810Y-87036721D01*
X104674810Y-87036721D02*
X106146243Y-87328072D01*
X106146243Y-87328072D02*
X106733838Y-86934712D01*
X106733838Y-86934712D02*
X107025190Y-85463279D01*
D13*
X108496622Y-85754631D02*
X108108154Y-87716541D01*
X105854892Y-88799505D02*
X104873937Y-88605271D01*
X103591846Y-84783459D02*
X103203378Y-86745369D01*
X106826063Y-83894729D02*
X105845108Y-83700495D01*
D11*
X106000000Y-94000000D02*
X104000000Y-94000000D01*
X104000000Y-94000000D02*
X104000000Y-96000000D01*
X104000000Y-96000000D02*
X105500000Y-96000000D01*
X105500000Y-96000000D02*
X106000000Y-95500000D01*
X106000000Y-95500000D02*
X106000000Y-94000000D01*
D13*
X107500000Y-94000000D02*
X107500000Y-96000000D01*
X105500000Y-97500000D02*
X104500000Y-97500000D01*
X102500000Y-94000000D02*
X102500000Y-96000000D01*
X105500000Y-92500000D02*
X104500000Y-92500000D01*
D11*
X106634669Y-102573439D02*
X104673439Y-102965331D01*
X104673439Y-102965331D02*
X105065331Y-104926561D01*
X105065331Y-104926561D02*
X106536253Y-104632642D01*
X106536253Y-104632642D02*
X106928588Y-104044361D01*
X106928588Y-104044361D02*
X106634669Y-102573439D01*
D13*
X108105591Y-102279520D02*
X108497483Y-104240749D01*
X106830173Y-106103564D02*
X105849558Y-106299510D01*
X103202517Y-103259251D02*
X103594409Y-105220480D01*
X105850442Y-101200490D02*
X104869827Y-101396436D01*
D11*
X108991196Y-110993437D02*
X107143437Y-111758804D01*
X107143437Y-111758804D02*
X107908804Y-113606563D01*
X107908804Y-113606563D02*
X109294623Y-113032538D01*
X109294623Y-113032538D02*
X109565221Y-112379256D01*
X109565221Y-112379256D02*
X108991196Y-110993437D01*
D13*
X110377015Y-110419412D02*
X111142382Y-112267171D01*
X109868648Y-114418357D02*
X108944769Y-114801041D01*
X105757618Y-112332829D02*
X106522985Y-114180588D01*
X107955231Y-109798959D02*
X107031352Y-110181643D01*
D11*
X112824689Y-118562720D02*
X111162720Y-119675311D01*
X111162720Y-119675311D02*
X112275311Y-121337280D01*
X112275311Y-121337280D02*
X113521788Y-120502837D01*
X113521788Y-120502837D02*
X113659132Y-119809197D01*
X113659132Y-119809197D02*
X112824689Y-118562720D01*
D13*
X114071166Y-117728276D02*
X115183757Y-119390245D01*
X114356231Y-121749313D02*
X113525247Y-122305609D01*
X109916243Y-120509755D02*
X111028834Y-122171724D01*
X111574753Y-117594391D02*
X110743769Y-118150687D01*
D11*
X118200000Y-125435786D02*
X116785786Y-126850000D01*
X116785786Y-126850000D02*
X118200000Y-128264214D01*
X118200000Y-128264214D02*
X119260660Y-127203553D01*
X119260660Y-127203553D02*
X119260660Y-126496447D01*
X119260660Y-126496447D02*
X118200000Y-125435786D01*
D13*
X119260660Y-124375126D02*
X120674874Y-125789340D01*
X120321320Y-128264214D02*
X119614214Y-128971320D01*
X115725126Y-127910660D02*
X117139340Y-129324874D01*
X116785786Y-124728680D02*
X116078680Y-125435786D01*
D11*
X124672890Y-131013201D02*
X123563201Y-132677110D01*
X123563201Y-132677110D02*
X125227110Y-133786799D01*
X125227110Y-133786799D02*
X126059376Y-132538867D01*
X126059376Y-132538867D02*
X125920821Y-131845468D01*
X125920821Y-131845468D02*
X124672890Y-131013201D01*
D13*
X125505157Y-129765270D02*
X127169065Y-130874959D01*
X127307308Y-133371134D02*
X126752463Y-134203088D01*
X122730935Y-133925041D02*
X124394843Y-135034730D01*
X123147537Y-130596912D02*
X122592692Y-131428866D01*
D11*
X132258804Y-135293437D02*
X131493437Y-137141196D01*
X131493437Y-137141196D02*
X133341196Y-137906563D01*
X133341196Y-137906563D02*
X133915221Y-136520744D01*
X133915221Y-136520744D02*
X133644623Y-135867462D01*
X133644623Y-135867462D02*
X132258804Y-135293437D01*
D13*
X132832829Y-133907618D02*
X134680588Y-134672985D01*
X135301041Y-137094769D02*
X134918357Y-138018648D01*
X130919412Y-138527015D02*
X132767171Y-139292382D01*
X130681643Y-135181352D02*
X130298959Y-136105231D01*
D11*
X140363279Y-137974810D02*
X139974810Y-139936721D01*
X139974810Y-139936721D02*
X141936721Y-140325190D01*
X141936721Y-140325190D02*
X142228072Y-138853757D01*
X142228072Y-138853757D02*
X141834712Y-138266162D01*
X141834712Y-138266162D02*
X140363279Y-137974810D01*
D13*
X140654631Y-136503378D02*
X142616541Y-136891846D01*
X143699505Y-139145108D02*
X143505271Y-140126063D01*
X139683459Y-141408154D02*
X141645369Y-141796622D01*
X138794729Y-138173937D02*
X138600495Y-139154892D01*
D11*
X149000000Y-139000000D02*
X149000000Y-141000000D01*
X149000000Y-141000000D02*
X151000000Y-141000000D01*
X151000000Y-141000000D02*
X151000000Y-139500000D01*
X151000000Y-139500000D02*
X150500000Y-139000000D01*
X150500000Y-139000000D02*
X149000000Y-139000000D01*
D13*
X149000000Y-137500000D02*
X151000000Y-137500000D01*
X152500000Y-139500000D02*
X152500000Y-140500000D01*
X149000000Y-142500000D02*
X151000000Y-142500000D01*
X147500000Y-139500000D02*
X147500000Y-140500000D01*
D11*
X157519347Y-138321503D02*
X157921503Y-140280653D01*
X157921503Y-140280653D02*
X159880653Y-139878497D01*
X159880653Y-139878497D02*
X159579036Y-138409134D01*
X159579036Y-138409134D02*
X158988710Y-138019886D01*
X158988710Y-138019886D02*
X157519347Y-138321503D01*
D13*
X157217730Y-136852140D02*
X159176880Y-136449984D01*
X161048399Y-138107518D02*
X161249477Y-139087093D01*
X158223120Y-141750016D02*
X160182270Y-141347860D01*
X156150523Y-139112907D02*
X156351601Y-140092482D01*
D11*
X165890621Y-136065652D02*
X166665652Y-137909379D01*
X166665652Y-137909379D02*
X168509379Y-137134348D01*
X168509379Y-137134348D02*
X167928105Y-135751553D01*
X167928105Y-135751553D02*
X167273416Y-135484379D01*
X167273416Y-135484379D02*
X165890621Y-136065652D01*
D13*
X165309348Y-134682858D02*
X167153074Y-133907827D01*
X169310900Y-135170279D02*
X169698416Y-136092143D01*
X167246926Y-139292173D02*
X169090652Y-138517142D01*
X164701584Y-137107857D02*
X165089100Y-138029721D01*
D11*
X173511770Y-132230155D02*
X174630155Y-133888230D01*
X174630155Y-133888230D02*
X176288230Y-132769845D01*
X176288230Y-132769845D02*
X175449441Y-131526288D01*
X175449441Y-131526288D02*
X174755326Y-131391366D01*
X174755326Y-131391366D02*
X173511770Y-132230155D01*
D13*
X172672980Y-130986599D02*
X174331055Y-129868213D01*
X176692997Y-130687499D02*
X177252190Y-131516537D01*
X175468945Y-135131787D02*
X177127020Y-134013401D01*
X172547810Y-133483463D02*
X173107003Y-134312501D01*
D11*
X180385789Y-126802468D02*
X181802468Y-128214211D01*
X181802468Y-128214211D02*
X183214211Y-126797532D01*
X183214211Y-126797532D02*
X182151702Y-125738724D01*
X182151702Y-125738724D02*
X181444596Y-125739959D01*
X181444596Y-125739959D02*
X180385789Y-126802468D01*
D13*
X179323279Y-125743661D02*
X180735022Y-124326981D01*
X183210509Y-124676215D02*
X183918849Y-125382086D01*
X182864978Y-129273019D02*
X184276721Y-127856339D01*
X179681151Y-128217914D02*
X180389491Y-128923785D01*
D11*
X186013201Y-120277110D02*
X187677110Y-121386799D01*
X187677110Y-121386799D02*
X188786799Y-119722890D01*
X188786799Y-119722890D02*
X187538867Y-118890624D01*
X187538867Y-118890624D02*
X186845468Y-119029179D01*
X186845468Y-119029179D02*
X186013201Y-120277110D01*
D13*
X184765270Y-119444843D02*
X185874959Y-117780935D01*
X188371134Y-117642692D02*
X189203088Y-118197537D01*
X188925041Y-122219065D02*
X190034730Y-120555157D01*
X185596912Y-121802463D02*
X186428866Y-122357308D01*
D11*
X190293437Y-112741196D02*
X192141196Y-113506563D01*
X192141196Y-113506563D02*
X192906563Y-111658804D01*
X192906563Y-111658804D02*
X191520744Y-111084779D01*
X191520744Y-111084779D02*
X190867462Y-111355377D01*
X190867462Y-111355377D02*
X190293437Y-112741196D01*
D13*
X188907618Y-112167171D02*
X189672985Y-110319412D01*
X192094769Y-109698959D02*
X193018648Y-110081643D01*
X193527015Y-114080588D02*
X194292382Y-112232829D01*
X190181352Y-114318357D02*
X191105231Y-114701041D01*
D11*
X192923439Y-104684669D02*
X194884669Y-105076561D01*
X194884669Y-105076561D02*
X195276561Y-103115331D01*
X195276561Y-103115331D02*
X193805639Y-102821412D01*
X193805639Y-102821412D02*
X193217358Y-103213747D01*
X193217358Y-103213747D02*
X192923439Y-104684669D01*
D13*
X191452517Y-104390749D02*
X191844409Y-102429520D01*
X194099558Y-101350490D02*
X195080173Y-101546436D01*
X196355591Y-105370480D02*
X196747483Y-103409251D01*
X193119827Y-106253564D02*
X194100442Y-106449510D01*
D11*
X194000000Y-96000000D02*
X196000000Y-96000000D01*
X196000000Y-96000000D02*
X196000000Y-94000000D01*
X196000000Y-94000000D02*
X194500000Y-94000000D01*
X194500000Y-94000000D02*
X194000000Y-94500000D01*
X194000000Y-94500000D02*
X194000000Y-96000000D01*
D13*
X192500000Y-96000000D02*
X192500000Y-94000000D01*
X194500000Y-92500000D02*
X195500000Y-92500000D01*
X197500000Y-96000000D02*
X197500000Y-94000000D01*
X194500000Y-97500000D02*
X195500000Y-97500000D01*
D11*
X193313279Y-87375190D02*
X195275190Y-86986721D01*
X195275190Y-86986721D02*
X194886721Y-85024810D01*
X194886721Y-85024810D02*
X193415288Y-85316162D01*
X193415288Y-85316162D02*
X193021928Y-85903757D01*
X193021928Y-85903757D02*
X193313279Y-87375190D01*
D13*
X191841846Y-87666541D02*
X191453378Y-85704631D01*
X193123937Y-83844729D02*
X194104892Y-83650495D01*
X196746622Y-86695369D02*
X196358154Y-84733459D01*
X194095108Y-88749505D02*
X195076063Y-88555271D01*
D11*
X191056524Y-79105616D02*
X192905616Y-78343476D01*
X192905616Y-78343476D02*
X192143476Y-76494384D01*
X192143476Y-76494384D02*
X190756657Y-77065989D01*
X190756657Y-77065989D02*
X190484919Y-77718797D01*
X190484919Y-77718797D02*
X191056524Y-79105616D01*
D13*
X189669705Y-79677222D02*
X188907565Y-77828130D01*
X190185051Y-75679170D02*
X191109597Y-75298100D01*
X194292435Y-77771870D02*
X193530295Y-75922778D01*
X192090403Y-80301900D02*
X193014949Y-79920830D01*
D11*
X187125311Y-71387280D02*
X188787280Y-70274689D01*
X188787280Y-70274689D02*
X187674689Y-68612720D01*
X187674689Y-68612720D02*
X186428212Y-69447163D01*
X186428212Y-69447163D02*
X186290868Y-70140803D01*
X186290868Y-70140803D02*
X187125311Y-71387280D01*
D13*
X185878834Y-72221724D02*
X184766243Y-70559755D01*
X185593769Y-68200687D02*
X186424753Y-67644391D01*
X190033757Y-69440245D02*
X188921166Y-67778276D01*
X188375247Y-72355609D02*
X189206231Y-71799313D01*
D11*
X181800000Y-64614214D02*
X183214214Y-63200000D01*
X183214214Y-63200000D02*
X181800000Y-61785786D01*
X181800000Y-61785786D02*
X180739340Y-62846447D01*
X180739340Y-62846447D02*
X180739340Y-63553553D01*
X180739340Y-63553553D02*
X181800000Y-64614214D01*
D13*
X180739340Y-65674874D02*
X179325126Y-64260660D01*
X179678680Y-61785786D02*
X180385786Y-61078680D01*
X184274874Y-62139340D02*
X182860660Y-60725126D01*
X183214214Y-65321320D02*
X183921320Y-64614214D01*
D11*
X175274689Y-58987280D02*
X176387280Y-57325311D01*
X176387280Y-57325311D02*
X174725311Y-56212720D01*
X174725311Y-56212720D02*
X173890868Y-57459197D01*
X173890868Y-57459197D02*
X174028212Y-58152837D01*
X174028212Y-58152837D02*
X175274689Y-58987280D01*
D13*
X174440245Y-60233757D02*
X172778276Y-59121166D01*
X172644391Y-56624753D02*
X173200687Y-55793769D01*
X177221724Y-56078834D02*
X175559755Y-54966243D01*
X176799313Y-59406231D02*
X177355609Y-58575247D01*
D11*
X167741196Y-54706563D02*
X168506563Y-52858804D01*
X168506563Y-52858804D02*
X166658804Y-52093437D01*
X166658804Y-52093437D02*
X166084779Y-53479256D01*
X166084779Y-53479256D02*
X166355377Y-54132538D01*
X166355377Y-54132538D02*
X167741196Y-54706563D01*
D13*
X167167171Y-56092382D02*
X165319412Y-55327015D01*
X164698959Y-52905231D02*
X165081643Y-51981352D01*
X169080588Y-51472985D02*
X167232829Y-50707618D01*
X169318357Y-54818648D02*
X169701041Y-53894769D01*
D11*
X159584669Y-52076561D02*
X159976561Y-50115331D01*
X159976561Y-50115331D02*
X158015331Y-49723439D01*
X158015331Y-49723439D02*
X157721412Y-51194361D01*
X157721412Y-51194361D02*
X158113747Y-51782642D01*
X158113747Y-51782642D02*
X159584669Y-52076561D01*
D13*
X159290749Y-53547483D02*
X157329520Y-53155591D01*
X156250490Y-50900442D02*
X156446436Y-49919827D01*
X160270480Y-48644409D02*
X158309251Y-48252517D01*
X161153564Y-51880173D02*
X161349510Y-50899558D01*
D11*
X151000000Y-51000000D02*
X151000000Y-49000000D01*
X151000000Y-49000000D02*
X149000000Y-49000000D01*
X149000000Y-49000000D02*
X149000000Y-50500000D01*
X149000000Y-50500000D02*
X149500000Y-51000000D01*
X149500000Y-51000000D02*
X151000000Y-51000000D01*
D13*
X151000000Y-52500000D02*
X149000000Y-52500000D01*
X147500000Y-50500000D02*
X147500000Y-49500000D01*
X151000000Y-47500000D02*
X149000000Y-47500000D01*
X152500000Y-50500000D02*
X152500000Y-49500000D01*
D11*
X145450000Y-66100000D02*
X145450000Y-62700000D01*
X145450000Y-62700000D02*
X143650000Y-62700000D01*
X143650000Y-62700000D02*
X143650000Y-66100000D01*
X143650000Y-66100000D02*
X145450000Y-66100000D01*
X144118200Y-63968200D02*
X144118200Y-63561800D01*
X144118200Y-63561800D02*
X144981800Y-63561800D01*
X144981800Y-63968200D02*
X144981800Y-63561800D01*
X144118200Y-63968200D02*
X144981800Y-63968200D01*
X144118200Y-65238200D02*
X144118200Y-64831800D01*
X144118200Y-64831800D02*
X144981800Y-64831800D01*
X144981800Y-65238200D02*
X144981800Y-64831800D01*
X144118200Y-65238200D02*
X144981800Y-65238200D01*
X144194400Y-64831800D02*
X144194400Y-63968200D01*
X144905600Y-63968200D02*
X144905600Y-64831800D01*
X154550000Y-62700000D02*
X154550000Y-66100000D01*
X154550000Y-66100000D02*
X156350000Y-66100000D01*
X156350000Y-66100000D02*
X156350000Y-62700000D01*
X156350000Y-62700000D02*
X154550000Y-62700000D01*
X155881800Y-64831800D02*
X155881800Y-65238200D01*
X155881800Y-65238200D02*
X155018200Y-65238200D01*
X155018200Y-64831800D02*
X155018200Y-65238200D01*
X155881800Y-64831800D02*
X155018200Y-64831800D01*
X155881800Y-63561800D02*
X155881800Y-63968200D01*
X155881800Y-63968200D02*
X155018200Y-63968200D01*
X155018200Y-63561800D02*
X155018200Y-63968200D01*
X155881800Y-63561800D02*
X155018200Y-63561800D01*
X155805600Y-63968200D02*
X155805600Y-64831800D01*
X155094400Y-64831800D02*
X155094400Y-63968200D01*
X135106918Y-63389046D02*
X136320290Y-62797245D01*
X136320290Y-62797245D02*
X136649068Y-63471341D01*
X138567275Y-61701317D02*
X139780647Y-61109516D01*
X138896053Y-62375413D02*
X138567275Y-61701317D01*
X142025027Y-67079881D02*
X139570149Y-62046634D01*
X139570149Y-62046634D02*
X135974973Y-63800119D01*
X135974973Y-63800119D02*
X138429851Y-68833366D01*
X138429851Y-68833366D02*
X142025027Y-67079881D01*
X139780647Y-61109516D02*
X142893082Y-67490954D01*
X142893082Y-67490954D02*
X138219353Y-69770484D01*
X138219353Y-69770484D02*
X135106918Y-63389046D01*
X160429353Y-61109516D02*
X161642725Y-61701317D01*
X161642725Y-61701317D02*
X161313947Y-62375413D01*
X163889710Y-62797245D02*
X165103082Y-63389046D01*
X163560932Y-63471341D02*
X163889710Y-62797245D01*
X161780149Y-68833366D02*
X164235027Y-63800119D01*
X164235027Y-63800119D02*
X160639851Y-62046634D01*
X160639851Y-62046634D02*
X158184973Y-67079881D01*
X158184973Y-67079881D02*
X161780149Y-68833366D01*
X165103082Y-63389046D02*
X161990647Y-69770484D01*
X161990647Y-69770484D02*
X157316918Y-67490954D01*
X157316918Y-67490954D02*
X160429353Y-61109516D01*
X147800000Y-69100000D02*
X143800000Y-69100000D01*
X147800000Y-69100000D02*
X147800000Y-66900000D01*
X147800000Y-66900000D02*
X143800000Y-66900000D01*
X143800000Y-66900000D02*
X143800000Y-69100000D01*
X155750000Y-68000000D02*
X155200000Y-68000000D01*
X154500000Y-68000000D02*
X153850000Y-68000000D01*
X154650000Y-68000000D02*
X155200000Y-67450000D01*
X155200000Y-67450000D02*
X155200000Y-68550000D01*
X155200000Y-68550000D02*
X154650000Y-68000000D01*
X154500000Y-67450000D02*
X154500000Y-68550000D01*
X153350000Y-67400000D02*
X152900000Y-67400000D01*
X152900000Y-67400000D02*
X152900000Y-68600000D01*
X152900000Y-68600000D02*
X153350000Y-68600000D01*
X156250000Y-67400000D02*
X156700000Y-67400000D01*
X156700000Y-67400000D02*
X156700000Y-68600000D01*
X156700000Y-68600000D02*
X156250000Y-68600000D01*
X156250000Y-67050000D02*
X153350000Y-67050000D01*
X153350000Y-67050000D02*
X153350000Y-68950000D01*
X153350000Y-68950000D02*
X156250000Y-68950000D01*
X156250000Y-68950000D02*
X156250000Y-67050000D01*
X154945238Y-125277619D02*
X155040476Y-125230000D01*
X155135714Y-125134762D01*
X155278571Y-124991905D01*
X155373810Y-124944286D01*
X155469048Y-124944286D01*
X155421429Y-125182381D02*
X155516667Y-125134762D01*
X155611905Y-125039524D01*
X155659524Y-124849048D01*
X155659524Y-124515714D01*
X155611905Y-124325238D01*
X155516667Y-124230000D01*
X155421429Y-124182381D01*
X155230952Y-124182381D01*
X155135714Y-124230000D01*
X155040476Y-124325238D01*
X154992857Y-124515714D01*
X154992857Y-124849048D01*
X155040476Y-125039524D01*
X155135714Y-125134762D01*
X155230952Y-125182381D01*
X155421429Y-125182381D01*
X154135714Y-124515714D02*
X154135714Y-125182381D01*
X154373810Y-124134762D02*
X154611905Y-124849048D01*
X153992857Y-124849048D01*
X145455238Y-125297619D02*
X145550476Y-125250000D01*
X145645714Y-125154762D01*
X145788571Y-125011905D01*
X145883810Y-124964286D01*
X145979048Y-124964286D01*
X145931429Y-125202381D02*
X146026667Y-125154762D01*
X146121905Y-125059524D01*
X146169524Y-124869048D01*
X146169524Y-124535714D01*
X146121905Y-124345238D01*
X146026667Y-124250000D01*
X145931429Y-124202381D01*
X145740952Y-124202381D01*
X145645714Y-124250000D01*
X145550476Y-124345238D01*
X145502857Y-124535714D01*
X145502857Y-124869048D01*
X145550476Y-125059524D01*
X145645714Y-125154762D01*
X145740952Y-125202381D01*
X145931429Y-125202381D01*
X145169524Y-124202381D02*
X144550476Y-124202381D01*
X144883810Y-124583333D01*
X144740952Y-124583333D01*
X144645714Y-124630952D01*
X144598095Y-124678571D01*
X144550476Y-124773810D01*
X144550476Y-125011905D01*
X144598095Y-125107143D01*
X144645714Y-125154762D01*
X144740952Y-125202381D01*
X145026667Y-125202381D01*
X145121905Y-125154762D01*
X145169524Y-125107143D01*
X152695238Y-61947619D02*
X152790476Y-61900000D01*
X152885714Y-61804762D01*
X153028571Y-61661905D01*
X153123810Y-61614286D01*
X153219048Y-61614286D01*
X153171429Y-61852381D02*
X153266667Y-61804762D01*
X153361905Y-61709524D01*
X153409524Y-61519048D01*
X153409524Y-61185714D01*
X153361905Y-60995238D01*
X153266667Y-60900000D01*
X153171429Y-60852381D01*
X152980952Y-60852381D01*
X152885714Y-60900000D01*
X152790476Y-60995238D01*
X152742857Y-61185714D01*
X152742857Y-61519048D01*
X152790476Y-61709524D01*
X152885714Y-61804762D01*
X152980952Y-61852381D01*
X153171429Y-61852381D01*
X152361905Y-60947619D02*
X152314286Y-60900000D01*
X152219048Y-60852381D01*
X151980952Y-60852381D01*
X151885714Y-60900000D01*
X151838095Y-60947619D01*
X151790476Y-61042857D01*
X151790476Y-61138095D01*
X151838095Y-61280952D01*
X152409524Y-61852381D01*
X151790476Y-61852381D01*
X147495238Y-61947619D02*
X147590476Y-61900000D01*
X147685714Y-61804762D01*
X147828571Y-61661905D01*
X147923810Y-61614286D01*
X148019048Y-61614286D01*
X147971429Y-61852381D02*
X148066667Y-61804762D01*
X148161905Y-61709524D01*
X148209524Y-61519048D01*
X148209524Y-61185714D01*
X148161905Y-60995238D01*
X148066667Y-60900000D01*
X147971429Y-60852381D01*
X147780952Y-60852381D01*
X147685714Y-60900000D01*
X147590476Y-60995238D01*
X147542857Y-61185714D01*
X147542857Y-61519048D01*
X147590476Y-61709524D01*
X147685714Y-61804762D01*
X147780952Y-61852381D01*
X147971429Y-61852381D01*
X146590476Y-61852381D02*
X147161905Y-61852381D01*
X146876191Y-61852381D02*
X146876191Y-60852381D01*
X146971429Y-60995238D01*
X147066667Y-61090476D01*
X147161905Y-61138095D01*
X149452381Y-67438095D02*
X150261905Y-67438095D01*
X150357143Y-67485714D01*
X150404762Y-67533333D01*
X150452381Y-67628571D01*
X150452381Y-67819048D01*
X150404762Y-67914286D01*
X150357143Y-67961905D01*
X150261905Y-68009524D01*
X149452381Y-68009524D01*
X150452381Y-69009524D02*
X150452381Y-68438095D01*
X150452381Y-68723809D02*
X149452381Y-68723809D01*
X149595238Y-68628571D01*
X149690476Y-68533333D01*
X149738095Y-68438095D01*
X146896666Y-126252857D02*
X147163333Y-126252857D01*
X147163333Y-126671905D02*
X147163333Y-125871905D01*
X146782380Y-125871905D01*
X146058571Y-126671905D02*
X146515714Y-126671905D01*
X146287143Y-126671905D02*
X146287143Y-125871905D01*
X146363333Y-125986190D01*
X146439524Y-126062381D01*
X146515714Y-126100476D01*
X144619047Y-61852381D02*
X144952381Y-61376190D01*
X145190476Y-61852381D02*
X145190476Y-60852381D01*
X144809523Y-60852381D01*
X144714285Y-60900000D01*
X144666666Y-60947619D01*
X144619047Y-61042857D01*
X144619047Y-61185714D01*
X144666666Y-61280952D01*
X144714285Y-61328571D01*
X144809523Y-61376190D01*
X145190476Y-61376190D01*
X144190476Y-61185714D02*
X144190476Y-62185714D01*
X144190476Y-61233333D02*
X144095238Y-61185714D01*
X143904761Y-61185714D01*
X143809523Y-61233333D01*
X143761904Y-61280952D01*
X143714285Y-61376190D01*
X143714285Y-61661905D01*
X143761904Y-61757143D01*
X143809523Y-61804762D01*
X143904761Y-61852381D01*
X144095238Y-61852381D01*
X144190476Y-61804762D01*
X142761904Y-61852381D02*
X143333333Y-61852381D01*
X143047619Y-61852381D02*
X143047619Y-60852381D01*
X143142857Y-60995238D01*
X143238095Y-61090476D01*
X143333333Y-61138095D01*
X156419047Y-61852381D02*
X156752381Y-61376190D01*
X156990476Y-61852381D02*
X156990476Y-60852381D01*
X156609523Y-60852381D01*
X156514285Y-60900000D01*
X156466666Y-60947619D01*
X156419047Y-61042857D01*
X156419047Y-61185714D01*
X156466666Y-61280952D01*
X156514285Y-61328571D01*
X156609523Y-61376190D01*
X156990476Y-61376190D01*
X155990476Y-61185714D02*
X155990476Y-62185714D01*
X155990476Y-61233333D02*
X155895238Y-61185714D01*
X155704761Y-61185714D01*
X155609523Y-61233333D01*
X155561904Y-61280952D01*
X155514285Y-61376190D01*
X155514285Y-61661905D01*
X155561904Y-61757143D01*
X155609523Y-61804762D01*
X155704761Y-61852381D01*
X155895238Y-61852381D01*
X155990476Y-61804762D01*
X155133333Y-60947619D02*
X155085714Y-60900000D01*
X154990476Y-60852381D01*
X154752380Y-60852381D01*
X154657142Y-60900000D01*
X154609523Y-60947619D01*
X154561904Y-61042857D01*
X154561904Y-61138095D01*
X154609523Y-61280952D01*
X155180952Y-61852381D01*
X154561904Y-61852381D01*
D14*
X139942910Y-67006635D02*
X139817661Y-66749837D01*
X139446545Y-67129522D02*
X140024341Y-66847712D01*
X140072884Y-66784300D01*
X140073672Y-66704444D01*
X140042360Y-66640245D01*
X139165523Y-66471870D02*
X139164735Y-66551726D01*
X139227359Y-66680125D01*
X139290772Y-66728669D01*
X139370627Y-66729456D01*
X139627425Y-66604208D01*
X139675969Y-66540796D01*
X139676756Y-66460940D01*
X139614132Y-66332541D01*
X139550720Y-66283997D01*
X139470864Y-66283210D01*
X139406665Y-66314522D01*
X139499026Y-66666832D01*
X138976862Y-66166529D02*
X139426259Y-65947344D01*
X139362060Y-65978656D02*
X139378503Y-65930899D01*
X139379290Y-65851044D01*
X139332322Y-65754745D01*
X139268910Y-65706201D01*
X139189054Y-65705414D01*
X138835957Y-65877631D01*
X139189054Y-65705414D02*
X139237598Y-65642002D01*
X139238385Y-65562146D01*
X139191417Y-65465846D01*
X139128005Y-65417303D01*
X139048149Y-65416515D01*
X138695051Y-65588732D01*
X138397585Y-64978837D02*
X138750683Y-64806620D01*
X138830539Y-64807407D01*
X138893951Y-64855951D01*
X138956575Y-64984350D01*
X138955788Y-65064206D01*
X138429686Y-64963180D02*
X138428898Y-65043037D01*
X138507178Y-65203535D01*
X138570591Y-65252079D01*
X138650446Y-65252866D01*
X138714646Y-65221554D01*
X138763189Y-65158142D01*
X138763977Y-65078286D01*
X138685697Y-64917787D01*
X138686484Y-64837932D01*
X138194056Y-64561540D02*
X138257469Y-64610083D01*
X138337324Y-64610871D01*
X138915120Y-64329061D01*
X137975659Y-64032287D02*
X137974871Y-64112143D01*
X138037495Y-64240542D01*
X138100908Y-64289086D01*
X138180763Y-64289873D01*
X138437561Y-64164624D01*
X138486105Y-64101212D01*
X138486892Y-64021357D01*
X138424268Y-63892958D01*
X138360856Y-63844414D01*
X138281000Y-63843626D01*
X138216801Y-63874938D01*
X138309162Y-64227249D01*
X161864012Y-63732460D02*
X161738763Y-63989258D01*
X162266441Y-64047944D02*
X161688645Y-63766134D01*
X161608789Y-63766922D01*
X161545377Y-63815465D01*
X161514065Y-63879665D01*
X161921219Y-64674284D02*
X161984631Y-64625740D01*
X162047256Y-64497341D01*
X162046468Y-64417485D01*
X161997925Y-64354073D01*
X161741127Y-64228824D01*
X161661271Y-64229612D01*
X161597859Y-64278155D01*
X161535234Y-64406555D01*
X161536021Y-64486410D01*
X161584565Y-64549822D01*
X161648764Y-64581134D01*
X161869526Y-64291449D01*
X161796758Y-65010937D02*
X161347361Y-64791752D01*
X161411560Y-64823064D02*
X161363804Y-64839508D01*
X161300393Y-64888051D01*
X161253424Y-64984351D01*
X161254211Y-65064207D01*
X161302755Y-65127618D01*
X161655853Y-65299836D01*
X161302755Y-65127618D02*
X161222900Y-65128406D01*
X161159488Y-65176950D01*
X161112519Y-65273249D01*
X161113307Y-65353104D01*
X161161850Y-65416517D01*
X161514948Y-65588734D01*
X161217482Y-66198630D02*
X160864384Y-66026412D01*
X160815840Y-65963001D01*
X160815053Y-65883145D01*
X160877678Y-65754746D01*
X160941090Y-65706202D01*
X161185381Y-66182973D02*
X161248794Y-66134430D01*
X161327075Y-65973931D01*
X161326287Y-65894075D01*
X161277744Y-65830663D01*
X161213544Y-65799351D01*
X161133689Y-65800138D01*
X161070276Y-65848682D01*
X160991995Y-66009180D01*
X160928583Y-66057724D01*
X161013953Y-66615926D02*
X161013164Y-66536071D01*
X160964622Y-66472658D01*
X160386826Y-66190848D01*
X160731354Y-67113867D02*
X160794767Y-67065323D01*
X160857392Y-66936924D01*
X160856603Y-66857068D01*
X160808060Y-66793656D01*
X160551262Y-66668408D01*
X160471406Y-66669195D01*
X160407994Y-66717739D01*
X160345370Y-66846138D01*
X160346157Y-66925994D01*
X160394701Y-66989406D01*
X160458900Y-67020718D01*
X160679661Y-66731032D01*
D11*
X142766666Y-69457143D02*
X142814285Y-69504762D01*
X142957142Y-69552381D01*
X143052380Y-69552381D01*
X143195238Y-69504762D01*
X143290476Y-69409524D01*
X143338095Y-69314286D01*
X143385714Y-69123810D01*
X143385714Y-68980952D01*
X143338095Y-68790476D01*
X143290476Y-68695238D01*
X143195238Y-68600000D01*
X143052380Y-68552381D01*
X142957142Y-68552381D01*
X142814285Y-68600000D01*
X142766666Y-68647619D01*
X142433333Y-68552381D02*
X141814285Y-68552381D01*
X142147619Y-68933333D01*
X142004761Y-68933333D01*
X141909523Y-68980952D01*
X141861904Y-69028571D01*
X141814285Y-69123810D01*
X141814285Y-69361905D01*
X141861904Y-69457143D01*
X141909523Y-69504762D01*
X142004761Y-69552381D01*
X142290476Y-69552381D01*
X142385714Y-69504762D01*
X142433333Y-69457143D01*
%LPC*%
D15*
X151650000Y-130480000D03*
X147900000Y-129930000D03*
D16*
X155400000Y-121050000D03*
X155400000Y-122950000D03*
X153200000Y-122000000D03*
X144390000Y-122950000D03*
X144390000Y-121050000D03*
X146590000Y-122000000D03*
X153450000Y-63250000D03*
X153450000Y-65150000D03*
X151250000Y-64200000D03*
X146550000Y-65150000D03*
X146550000Y-63250000D03*
X148750000Y-64200000D03*
D17*
X151300000Y-67050000D03*
X151300000Y-68000000D03*
X151300000Y-68950000D03*
X148700000Y-68950000D03*
X148700000Y-67050000D03*
D18*
X149940000Y-122200000D03*
X149940000Y-125200000D03*
D19*
X149940000Y-121400000D03*
X149940000Y-126000000D03*
D10*
G36*
X143621112Y-54651921D02*
X143914757Y-56121470D01*
X142641978Y-56375797D01*
X142348333Y-54906248D01*
X143621112Y-54651921D01*
X143621112Y-54651921D01*
G37*
G36*
X141758022Y-55024203D02*
X142051667Y-56493752D01*
X140778888Y-56748079D01*
X140485243Y-55278530D01*
X141758022Y-55024203D01*
X141758022Y-55024203D01*
G37*
G36*
X135890474Y-56695853D02*
X136463964Y-58080379D01*
X135264824Y-58577079D01*
X134691334Y-57192553D01*
X135890474Y-56695853D01*
X135890474Y-56695853D01*
G37*
G36*
X134135176Y-57422921D02*
X134708666Y-58807447D01*
X133509526Y-59304147D01*
X132936036Y-57919621D01*
X134135176Y-57422921D01*
X134135176Y-57422921D01*
G37*
G36*
X128611854Y-60287865D02*
X129445518Y-61533178D01*
X128366950Y-62255217D01*
X127533286Y-61009904D01*
X128611854Y-60287865D01*
X128611854Y-60287865D01*
G37*
G36*
X127033050Y-61344783D02*
X127866714Y-62590096D01*
X126788146Y-63312135D01*
X125954482Y-62066822D01*
X127033050Y-61344783D01*
X127033050Y-61344783D01*
G37*
G36*
X122300779Y-65039551D02*
X123360449Y-66099221D01*
X122442667Y-67017003D01*
X121382997Y-65957333D01*
X122300779Y-65039551D01*
X122300779Y-65039551D01*
G37*
G36*
X120957333Y-66382997D02*
X122017003Y-67442667D01*
X121099221Y-68360449D01*
X120039551Y-67300779D01*
X120957333Y-66382997D01*
X120957333Y-66382997D01*
G37*
G36*
X117013774Y-71054019D02*
X118260541Y-71885509D01*
X117540386Y-72965335D01*
X116293619Y-72133845D01*
X117013774Y-71054019D01*
X117013774Y-71054019D01*
G37*
G36*
X115959614Y-72634665D02*
X117206381Y-73466155D01*
X116486226Y-74545981D01*
X115239459Y-73714491D01*
X115959614Y-72634665D01*
X115959614Y-72634665D01*
G37*
G36*
X112969621Y-77936036D02*
X114354147Y-78509526D01*
X113857447Y-79708666D01*
X112472921Y-79135176D01*
X112969621Y-77936036D01*
X112969621Y-77936036D01*
G37*
G36*
X112242553Y-79691334D02*
X113627079Y-80264824D01*
X113130379Y-81463964D01*
X111745853Y-80890474D01*
X112242553Y-79691334D01*
X112242553Y-79691334D01*
G37*
G36*
X110325538Y-85535982D02*
X111795597Y-85827061D01*
X111543492Y-87100282D01*
X110073433Y-86809203D01*
X110325538Y-85535982D01*
X110325538Y-85535982D01*
G37*
G36*
X109956508Y-87399718D02*
X111426567Y-87690797D01*
X111174462Y-88964018D01*
X109704403Y-88672939D01*
X109956508Y-87399718D01*
X109956508Y-87399718D01*
G37*
D20*
X110000000Y-94050040D03*
X110000000Y-95949960D03*
D10*
G36*
X109701921Y-101378888D02*
X111171470Y-101085243D01*
X111425797Y-102358022D01*
X109956248Y-102651667D01*
X109701921Y-101378888D01*
X109701921Y-101378888D01*
G37*
G36*
X110074203Y-103241978D02*
X111543752Y-102948333D01*
X111798079Y-104221112D01*
X110328530Y-104514757D01*
X110074203Y-103241978D01*
X110074203Y-103241978D01*
G37*
G36*
X111745853Y-109159526D02*
X113130379Y-108586036D01*
X113627079Y-109785176D01*
X112242553Y-110358666D01*
X111745853Y-109159526D01*
X111745853Y-109159526D01*
G37*
G36*
X112472921Y-110914824D02*
X113857447Y-110341334D01*
X114354147Y-111540474D01*
X112969621Y-112113964D01*
X112472921Y-110914824D01*
X112472921Y-110914824D01*
G37*
G36*
X115187865Y-116288146D02*
X116433178Y-115454482D01*
X117155217Y-116533050D01*
X115909904Y-117366714D01*
X115187865Y-116288146D01*
X115187865Y-116288146D01*
G37*
G36*
X116244783Y-117866950D02*
X117490096Y-117033286D01*
X118212135Y-118111854D01*
X116966822Y-118945518D01*
X116244783Y-117866950D01*
X116244783Y-117866950D01*
G37*
G36*
X120039551Y-122699221D02*
X121099221Y-121639551D01*
X122017003Y-122557333D01*
X120957333Y-123617003D01*
X120039551Y-122699221D01*
X120039551Y-122699221D01*
G37*
G36*
X121382997Y-124042667D02*
X122442667Y-122982997D01*
X123360449Y-123900779D01*
X122300779Y-124960449D01*
X121382997Y-124042667D01*
X121382997Y-124042667D01*
G37*
G36*
X126004019Y-127986226D02*
X126835509Y-126739459D01*
X127915335Y-127459614D01*
X127083845Y-128706381D01*
X126004019Y-127986226D01*
X126004019Y-127986226D01*
G37*
G36*
X127584665Y-129040386D02*
X128416155Y-127793619D01*
X129495981Y-128513774D01*
X128664491Y-129760541D01*
X127584665Y-129040386D01*
X127584665Y-129040386D01*
G37*
G36*
X132936036Y-132030379D02*
X133509526Y-130645853D01*
X134708666Y-131142553D01*
X134135176Y-132527079D01*
X132936036Y-132030379D01*
X132936036Y-132030379D01*
G37*
G36*
X134691334Y-132757447D02*
X135264824Y-131372921D01*
X136463964Y-131869621D01*
X135890474Y-133254147D01*
X134691334Y-132757447D01*
X134691334Y-132757447D01*
G37*
G36*
X140435982Y-134624462D02*
X140727061Y-133154403D01*
X142000282Y-133406508D01*
X141709203Y-134876567D01*
X140435982Y-134624462D01*
X140435982Y-134624462D01*
G37*
G36*
X142299718Y-134993492D02*
X142590797Y-133523433D01*
X143864018Y-133775538D01*
X143572939Y-135245597D01*
X142299718Y-134993492D01*
X142299718Y-134993492D01*
G37*
G36*
X156371606Y-135238132D02*
X156088228Y-133766569D01*
X157362752Y-133521134D01*
X157646130Y-134992697D01*
X156371606Y-135238132D01*
X156371606Y-135238132D01*
G37*
G36*
X158237248Y-134878866D02*
X157953870Y-133407303D01*
X159228394Y-133161868D01*
X159511772Y-134633431D01*
X158237248Y-134878866D01*
X158237248Y-134878866D01*
G37*
D21*
X149050040Y-135000000D03*
X150949960Y-135000000D03*
D10*
G36*
X164116371Y-133210362D02*
X163535640Y-131828858D01*
X164732163Y-131325886D01*
X165312894Y-132707390D01*
X164116371Y-133210362D01*
X164116371Y-133210362D01*
G37*
G36*
X165867837Y-132474114D02*
X165287106Y-131092610D01*
X166483629Y-130589638D01*
X167064360Y-131971142D01*
X165867837Y-132474114D01*
X165867837Y-132474114D01*
G37*
G36*
X171193430Y-129815308D02*
X170355423Y-128572913D01*
X171431464Y-127847114D01*
X172269471Y-129089509D01*
X171193430Y-129815308D01*
X171193430Y-129815308D01*
G37*
G36*
X172768536Y-128752886D02*
X171930529Y-127510491D01*
X173006570Y-126784692D01*
X173844577Y-128027087D01*
X172768536Y-128752886D01*
X172768536Y-128752886D01*
G37*
G36*
X177699221Y-124960449D02*
X176639551Y-123900779D01*
X177557333Y-122982997D01*
X178617003Y-124042667D01*
X177699221Y-124960449D01*
X177699221Y-124960449D01*
G37*
G36*
X179042667Y-123617003D02*
X177982997Y-122557333D01*
X178900779Y-121639551D01*
X179960449Y-122699221D01*
X179042667Y-123617003D01*
X179042667Y-123617003D01*
G37*
G36*
X183033178Y-118945518D02*
X181787865Y-118111854D01*
X182509904Y-117033286D01*
X183755217Y-117866950D01*
X183033178Y-118945518D01*
X183033178Y-118945518D01*
G37*
G36*
X184090096Y-117366714D02*
X182844783Y-116533050D01*
X183566822Y-115454482D01*
X184812135Y-116288146D01*
X184090096Y-117366714D01*
X184090096Y-117366714D01*
G37*
G36*
X187030379Y-112063964D02*
X185645853Y-111490474D01*
X186142553Y-110291334D01*
X187527079Y-110864824D01*
X187030379Y-112063964D01*
X187030379Y-112063964D01*
G37*
G36*
X187757447Y-110308666D02*
X186372921Y-109735176D01*
X186869621Y-108536036D01*
X188254147Y-109109526D01*
X187757447Y-110308666D01*
X187757447Y-110308666D01*
G37*
G36*
X189621470Y-104564757D02*
X188151921Y-104271112D01*
X188406248Y-102998333D01*
X189875797Y-103291978D01*
X189621470Y-104564757D01*
X189621470Y-104564757D01*
G37*
G36*
X189993752Y-102701667D02*
X188524203Y-102408022D01*
X188778530Y-101135243D01*
X190248079Y-101428888D01*
X189993752Y-102701667D01*
X189993752Y-102701667D01*
G37*
D20*
X190000000Y-95949960D03*
X190000000Y-94050040D03*
D10*
G36*
X190295597Y-88622939D02*
X188825538Y-88914018D01*
X188573433Y-87640797D01*
X190043492Y-87349718D01*
X190295597Y-88622939D01*
X190295597Y-88622939D01*
G37*
G36*
X189926567Y-86759203D02*
X188456508Y-87050282D01*
X188204403Y-85777061D01*
X189674462Y-85485982D01*
X189926567Y-86759203D01*
X189926567Y-86759203D01*
G37*
G36*
X188254147Y-80890474D02*
X186869621Y-81463964D01*
X186372921Y-80264824D01*
X187757447Y-79691334D01*
X188254147Y-80890474D01*
X188254147Y-80890474D01*
G37*
G36*
X187527079Y-79135176D02*
X186142553Y-79708666D01*
X185645853Y-78509526D01*
X187030379Y-77936036D01*
X187527079Y-79135176D01*
X187527079Y-79135176D01*
G37*
G36*
X184762135Y-73661854D02*
X183516822Y-74495518D01*
X182794783Y-73416950D01*
X184040096Y-72583286D01*
X184762135Y-73661854D01*
X184762135Y-73661854D01*
G37*
G36*
X183705217Y-72083050D02*
X182459904Y-72916714D01*
X181737865Y-71838146D01*
X182983178Y-71004482D01*
X183705217Y-72083050D01*
X183705217Y-72083050D01*
G37*
G36*
X179960449Y-67300779D02*
X178900779Y-68360449D01*
X177982997Y-67442667D01*
X179042667Y-66382997D01*
X179960449Y-67300779D01*
X179960449Y-67300779D01*
G37*
G36*
X178617003Y-65957333D02*
X177557333Y-67017003D01*
X176639551Y-66099221D01*
X177699221Y-65039551D01*
X178617003Y-65957333D01*
X178617003Y-65957333D01*
G37*
G36*
X174047781Y-62051579D02*
X173225015Y-63304120D01*
X172140187Y-62591521D01*
X172962953Y-61338980D01*
X174047781Y-62051579D01*
X174047781Y-62051579D01*
G37*
G36*
X172459813Y-61008479D02*
X171637047Y-62261020D01*
X170552219Y-61548421D01*
X171374985Y-60295880D01*
X172459813Y-61008479D01*
X172459813Y-61008479D01*
G37*
G36*
X167063964Y-57919621D02*
X166490474Y-59304147D01*
X165291334Y-58807447D01*
X165864824Y-57422921D01*
X167063964Y-57919621D01*
X167063964Y-57919621D01*
G37*
G36*
X165308666Y-57192553D02*
X164735176Y-58577079D01*
X163536036Y-58080379D01*
X164109526Y-56695853D01*
X165308666Y-57192553D01*
X165308666Y-57192553D01*
G37*
G36*
X159514757Y-55378530D02*
X159221112Y-56848079D01*
X157948333Y-56593752D01*
X158241978Y-55124203D01*
X159514757Y-55378530D01*
X159514757Y-55378530D01*
G37*
G36*
X157651667Y-55006248D02*
X157358022Y-56475797D01*
X156085243Y-56221470D01*
X156378888Y-54751921D01*
X157651667Y-55006248D01*
X157651667Y-55006248D01*
G37*
D21*
X150949960Y-55000000D03*
X149050040Y-55000000D03*
D10*
G36*
X144349879Y-49321794D02*
X142584773Y-49674497D01*
X142310449Y-48301636D01*
X144075555Y-47948933D01*
X144349879Y-49321794D01*
X144349879Y-49321794D01*
G37*
G36*
X144996501Y-52557822D02*
X143231395Y-52910525D01*
X142957071Y-51537664D01*
X144722177Y-51184961D01*
X144996501Y-52557822D01*
X144996501Y-52557822D01*
G37*
G36*
X140289551Y-53498364D02*
X138524445Y-53851067D01*
X138250121Y-52478206D01*
X140015227Y-52125503D01*
X140289551Y-53498364D01*
X140289551Y-53498364D01*
G37*
G36*
X139642929Y-50262336D02*
X137877823Y-50615039D01*
X137603499Y-49242178D01*
X139368605Y-48889475D01*
X139642929Y-50262336D01*
X139642929Y-50262336D01*
G37*
G36*
X141760916Y-50654935D02*
X140780301Y-50850881D01*
X140682328Y-50360573D01*
X141662943Y-50164627D01*
X141760916Y-50654935D01*
X141760916Y-50654935D01*
G37*
G36*
X141917672Y-51439427D02*
X140937057Y-51635373D01*
X140839084Y-51145065D01*
X141819699Y-50949119D01*
X141917672Y-51439427D01*
X141917672Y-51439427D01*
G37*
G36*
X135485253Y-51259460D02*
X133822270Y-51948290D01*
X133286513Y-50654858D01*
X134949496Y-49966028D01*
X135485253Y-51259460D01*
X135485253Y-51259460D01*
G37*
G36*
X136748109Y-54308262D02*
X135085126Y-54997092D01*
X134549369Y-53703660D01*
X136212352Y-53014830D01*
X136748109Y-54308262D01*
X136748109Y-54308262D01*
G37*
G36*
X132313487Y-56145142D02*
X130650504Y-56833972D01*
X130114747Y-55540540D01*
X131777730Y-54851710D01*
X132313487Y-56145142D01*
X132313487Y-56145142D01*
G37*
G36*
X131050631Y-53096340D02*
X129387648Y-53785170D01*
X128851891Y-52491738D01*
X130514874Y-51802908D01*
X131050631Y-53096340D01*
X131050631Y-53096340D01*
G37*
G36*
X133204538Y-53070076D02*
X132280658Y-53452760D01*
X132089316Y-52990820D01*
X133013196Y-52608136D01*
X133204538Y-53070076D01*
X133204538Y-53070076D01*
G37*
G36*
X133510684Y-53809180D02*
X132586804Y-54191864D01*
X132395462Y-53729924D01*
X133319342Y-53347240D01*
X133510684Y-53809180D01*
X133510684Y-53809180D01*
G37*
G36*
X127213768Y-54974789D02*
X125717996Y-55976121D01*
X124939182Y-54812743D01*
X126434954Y-53811411D01*
X127213768Y-54974789D01*
X127213768Y-54974789D01*
G37*
G36*
X129049543Y-57717038D02*
X127553771Y-58718370D01*
X126774957Y-57554992D01*
X128270729Y-56553660D01*
X129049543Y-57717038D01*
X129049543Y-57717038D01*
G37*
G36*
X125060818Y-60387257D02*
X123565046Y-61388589D01*
X122786232Y-60225211D01*
X124282004Y-59223879D01*
X125060818Y-60387257D01*
X125060818Y-60387257D01*
G37*
G36*
X123225043Y-57645008D02*
X121729271Y-58646340D01*
X120950457Y-57482962D01*
X122446229Y-56481630D01*
X123225043Y-57645008D01*
X123225043Y-57645008D01*
G37*
G36*
X125332048Y-57197204D02*
X124501064Y-57753500D01*
X124222916Y-57338008D01*
X125053900Y-56781712D01*
X125332048Y-57197204D01*
X125332048Y-57197204D01*
G37*
G36*
X125777084Y-57861992D02*
X124946100Y-58418288D01*
X124667952Y-58002796D01*
X125498936Y-57446500D01*
X125777084Y-57861992D01*
X125777084Y-57861992D01*
G37*
G36*
X119811701Y-60194797D02*
X118538909Y-61467589D01*
X117548959Y-60477639D01*
X118821751Y-59204847D01*
X119811701Y-60194797D01*
X119811701Y-60194797D01*
G37*
G36*
X122145153Y-62528249D02*
X120872361Y-63801041D01*
X119882411Y-62811091D01*
X121155203Y-61538299D01*
X122145153Y-62528249D01*
X122145153Y-62528249D01*
G37*
G36*
X118751041Y-65922361D02*
X117478249Y-67195153D01*
X116488299Y-66205203D01*
X117761091Y-64932411D01*
X118751041Y-65922361D01*
X118751041Y-65922361D01*
G37*
G36*
X116417589Y-63588909D02*
X115144797Y-64861701D01*
X114154847Y-63871751D01*
X115427639Y-62598959D01*
X116417589Y-63588909D01*
X116417589Y-63588909D01*
G37*
G36*
X118397487Y-62740380D02*
X117690380Y-63447487D01*
X117336827Y-63093934D01*
X118043934Y-62386827D01*
X118397487Y-62740380D01*
X118397487Y-62740380D01*
G37*
G36*
X118963173Y-63306066D02*
X118256066Y-64013173D01*
X117902513Y-63659620D01*
X118609620Y-62952513D01*
X118963173Y-63306066D01*
X118963173Y-63306066D01*
G37*
G36*
X113590630Y-66777449D02*
X112591910Y-68274967D01*
X111427174Y-67498185D01*
X112425894Y-66000667D01*
X113590630Y-66777449D01*
X113590630Y-66777449D01*
G37*
G36*
X116336079Y-68608435D02*
X115337359Y-70105953D01*
X114172623Y-69329171D01*
X115171343Y-67831653D01*
X116336079Y-68608435D01*
X116336079Y-68608435D01*
G37*
G36*
X113672826Y-72601815D02*
X112674106Y-74099333D01*
X111509370Y-73322551D01*
X112508090Y-71825033D01*
X113672826Y-72601815D01*
X113672826Y-72601815D01*
G37*
G36*
X110927377Y-70770829D02*
X109928657Y-72268347D01*
X108763921Y-71491565D01*
X109762641Y-69994047D01*
X110927377Y-70770829D01*
X110927377Y-70770829D01*
G37*
G36*
X112702629Y-69550796D02*
X112147784Y-70382750D01*
X111731807Y-70105328D01*
X112286652Y-69273374D01*
X112702629Y-69550796D01*
X112702629Y-69550796D01*
G37*
G36*
X113368193Y-69994672D02*
X112813348Y-70826626D01*
X112397371Y-70549204D01*
X112952216Y-69717250D01*
X113368193Y-69994672D01*
X113368193Y-69994672D01*
G37*
G36*
X108785170Y-74387648D02*
X108096340Y-76050631D01*
X106802908Y-75514874D01*
X107491738Y-73851891D01*
X108785170Y-74387648D01*
X108785170Y-74387648D01*
G37*
G36*
X111833972Y-75650504D02*
X111145142Y-77313487D01*
X109851710Y-76777730D01*
X110540540Y-75114747D01*
X111833972Y-75650504D01*
X111833972Y-75650504D01*
G37*
G36*
X109997092Y-80085126D02*
X109308262Y-81748109D01*
X108014830Y-81212352D01*
X108703660Y-79549369D01*
X109997092Y-80085126D01*
X109997092Y-80085126D01*
G37*
G36*
X106948290Y-78822270D02*
X106259460Y-80485253D01*
X104966028Y-79949496D01*
X105654858Y-78286513D01*
X106948290Y-78822270D01*
X106948290Y-78822270D01*
G37*
G36*
X108452760Y-77280658D02*
X108070076Y-78204538D01*
X107608136Y-78013196D01*
X107990820Y-77089316D01*
X108452760Y-77280658D01*
X108452760Y-77280658D01*
G37*
G36*
X109191864Y-77586804D02*
X108809180Y-78510684D01*
X108347240Y-78319342D01*
X108729924Y-77395462D01*
X109191864Y-77586804D01*
X109191864Y-77586804D01*
G37*
G36*
X105559066Y-82828325D02*
X105209444Y-84594045D01*
X103836106Y-84322117D01*
X104185728Y-82556397D01*
X105559066Y-82828325D01*
X105559066Y-82828325D01*
G37*
G36*
X108796218Y-83469298D02*
X108446596Y-85235018D01*
X107073258Y-84963090D01*
X107422880Y-83197370D01*
X108796218Y-83469298D01*
X108796218Y-83469298D01*
G37*
G36*
X107863894Y-88177883D02*
X107514272Y-89943603D01*
X106140934Y-89671675D01*
X106490556Y-87905955D01*
X107863894Y-88177883D01*
X107863894Y-88177883D01*
G37*
G36*
X104626742Y-87536910D02*
X104277120Y-89302630D01*
X102903782Y-89030702D01*
X103253404Y-87264982D01*
X104626742Y-87536910D01*
X104626742Y-87536910D01*
G37*
G36*
X105799974Y-85730387D02*
X105605740Y-86711342D01*
X105115262Y-86614225D01*
X105309496Y-85633270D01*
X105799974Y-85730387D01*
X105799974Y-85730387D01*
G37*
G36*
X106584738Y-85885775D02*
X106390504Y-86866730D01*
X105900026Y-86769613D01*
X106094260Y-85788658D01*
X106584738Y-85885775D01*
X106584738Y-85885775D01*
G37*
D22*
X103350000Y-92600000D03*
X106650000Y-92600000D03*
X106650000Y-97400000D03*
X103350000Y-97400000D03*
D23*
X104600000Y-95000000D03*
X105400000Y-95000000D03*
D10*
G36*
X104271794Y-100700121D02*
X104624497Y-102465227D01*
X103251636Y-102739551D01*
X102898933Y-100974445D01*
X104271794Y-100700121D01*
X104271794Y-100700121D01*
G37*
G36*
X107507822Y-100053499D02*
X107860525Y-101818605D01*
X106487664Y-102092929D01*
X106134961Y-100327823D01*
X107507822Y-100053499D01*
X107507822Y-100053499D01*
G37*
G36*
X108448364Y-104760449D02*
X108801067Y-106525555D01*
X107428206Y-106799879D01*
X107075503Y-105034773D01*
X108448364Y-104760449D01*
X108448364Y-104760449D01*
G37*
G36*
X105212336Y-105407071D02*
X105565039Y-107172177D01*
X104192178Y-107446501D01*
X103839475Y-105681395D01*
X105212336Y-105407071D01*
X105212336Y-105407071D01*
G37*
G36*
X105604935Y-103289084D02*
X105800881Y-104269699D01*
X105310573Y-104367672D01*
X105114627Y-103387057D01*
X105604935Y-103289084D01*
X105604935Y-103289084D01*
G37*
G36*
X106389427Y-103132328D02*
X106585373Y-104112943D01*
X106095065Y-104210916D01*
X105899119Y-103230301D01*
X106389427Y-103132328D01*
X106389427Y-103132328D01*
G37*
G36*
X106309460Y-109614747D02*
X106998290Y-111277730D01*
X105704858Y-111813487D01*
X105016028Y-110150504D01*
X106309460Y-109614747D01*
X106309460Y-109614747D01*
G37*
G36*
X109358262Y-108351891D02*
X110047092Y-110014874D01*
X108753660Y-110550631D01*
X108064830Y-108887648D01*
X109358262Y-108351891D01*
X109358262Y-108351891D01*
G37*
G36*
X111195142Y-112786513D02*
X111883972Y-114449496D01*
X110590540Y-114985253D01*
X109901710Y-113322270D01*
X111195142Y-112786513D01*
X111195142Y-112786513D01*
G37*
G36*
X108146340Y-114049369D02*
X108835170Y-115712352D01*
X107541738Y-116248109D01*
X106852908Y-114585126D01*
X108146340Y-114049369D01*
X108146340Y-114049369D01*
G37*
G36*
X108120076Y-111895462D02*
X108502760Y-112819342D01*
X108040820Y-113010684D01*
X107658136Y-112086804D01*
X108120076Y-111895462D01*
X108120076Y-111895462D01*
G37*
G36*
X108859180Y-111589316D02*
X109241864Y-112513196D01*
X108779924Y-112704538D01*
X108397240Y-111780658D01*
X108859180Y-111589316D01*
X108859180Y-111589316D01*
G37*
G36*
X109924789Y-117736232D02*
X110926121Y-119232004D01*
X109762743Y-120010818D01*
X108761411Y-118515046D01*
X109924789Y-117736232D01*
X109924789Y-117736232D01*
G37*
G36*
X112667038Y-115900457D02*
X113668370Y-117396229D01*
X112504992Y-118175043D01*
X111503660Y-116679271D01*
X112667038Y-115900457D01*
X112667038Y-115900457D01*
G37*
G36*
X115337257Y-119889182D02*
X116338589Y-121384954D01*
X115175211Y-122163768D01*
X114173879Y-120667996D01*
X115337257Y-119889182D01*
X115337257Y-119889182D01*
G37*
G36*
X112595008Y-121724957D02*
X113596340Y-123220729D01*
X112432962Y-123999543D01*
X111431630Y-122503771D01*
X112595008Y-121724957D01*
X112595008Y-121724957D01*
G37*
G36*
X112147204Y-119617952D02*
X112703500Y-120448936D01*
X112288008Y-120727084D01*
X111731712Y-119896100D01*
X112147204Y-119617952D01*
X112147204Y-119617952D01*
G37*
G36*
X112811992Y-119172916D02*
X113368288Y-120003900D01*
X112952796Y-120282048D01*
X112396500Y-119451064D01*
X112811992Y-119172916D01*
X112811992Y-119172916D01*
G37*
G36*
X115194797Y-125188299D02*
X116467589Y-126461091D01*
X115477639Y-127451041D01*
X114204847Y-126178249D01*
X115194797Y-125188299D01*
X115194797Y-125188299D01*
G37*
G36*
X117528249Y-122854847D02*
X118801041Y-124127639D01*
X117811091Y-125117589D01*
X116538299Y-123844797D01*
X117528249Y-122854847D01*
X117528249Y-122854847D01*
G37*
G36*
X120922361Y-126248959D02*
X122195153Y-127521751D01*
X121205203Y-128511701D01*
X119932411Y-127238909D01*
X120922361Y-126248959D01*
X120922361Y-126248959D01*
G37*
G36*
X118588909Y-128582411D02*
X119861701Y-129855203D01*
X118871751Y-130845153D01*
X117598959Y-129572361D01*
X118588909Y-128582411D01*
X118588909Y-128582411D01*
G37*
G36*
X117740380Y-126602513D02*
X118447487Y-127309620D01*
X118093934Y-127663173D01*
X117386827Y-126956066D01*
X117740380Y-126602513D01*
X117740380Y-126602513D01*
G37*
G36*
X118306066Y-126036827D02*
X119013173Y-126743934D01*
X118659620Y-127097487D01*
X117952513Y-126390380D01*
X118306066Y-126036827D01*
X118306066Y-126036827D01*
G37*
G36*
X121677449Y-131359370D02*
X123174967Y-132358090D01*
X122398185Y-133522826D01*
X120900667Y-132524106D01*
X121677449Y-131359370D01*
X121677449Y-131359370D01*
G37*
G36*
X123508435Y-128613921D02*
X125005953Y-129612641D01*
X124229171Y-130777377D01*
X122731653Y-129778657D01*
X123508435Y-128613921D01*
X123508435Y-128613921D01*
G37*
G36*
X127501815Y-131277174D02*
X128999333Y-132275894D01*
X128222551Y-133440630D01*
X126725033Y-132441910D01*
X127501815Y-131277174D01*
X127501815Y-131277174D01*
G37*
G36*
X125670829Y-134022623D02*
X127168347Y-135021343D01*
X126391565Y-136186079D01*
X124894047Y-135187359D01*
X125670829Y-134022623D01*
X125670829Y-134022623D01*
G37*
G36*
X124450796Y-132247371D02*
X125282750Y-132802216D01*
X125005328Y-133218193D01*
X124173374Y-132663348D01*
X124450796Y-132247371D01*
X124450796Y-132247371D01*
G37*
G36*
X124894672Y-131581807D02*
X125726626Y-132136652D01*
X125449204Y-132552629D01*
X124617250Y-131997784D01*
X124894672Y-131581807D01*
X124894672Y-131581807D01*
G37*
G36*
X129387648Y-136214830D02*
X131050631Y-136903660D01*
X130514874Y-138197092D01*
X128851891Y-137508262D01*
X129387648Y-136214830D01*
X129387648Y-136214830D01*
G37*
G36*
X130650504Y-133166028D02*
X132313487Y-133854858D01*
X131777730Y-135148290D01*
X130114747Y-134459460D01*
X130650504Y-133166028D01*
X130650504Y-133166028D01*
G37*
G36*
X135085126Y-135002908D02*
X136748109Y-135691738D01*
X136212352Y-136985170D01*
X134549369Y-136296340D01*
X135085126Y-135002908D01*
X135085126Y-135002908D01*
G37*
G36*
X133822270Y-138051710D02*
X135485253Y-138740540D01*
X134949496Y-140033972D01*
X133286513Y-139345142D01*
X133822270Y-138051710D01*
X133822270Y-138051710D01*
G37*
G36*
X132280658Y-136547240D02*
X133204538Y-136929924D01*
X133013196Y-137391864D01*
X132089316Y-137009180D01*
X132280658Y-136547240D01*
X132280658Y-136547240D01*
G37*
G36*
X132586804Y-135808136D02*
X133510684Y-136190820D01*
X133319342Y-136652760D01*
X132395462Y-136270076D01*
X132586804Y-135808136D01*
X132586804Y-135808136D01*
G37*
G36*
X137728325Y-139440934D02*
X139494045Y-139790556D01*
X139222117Y-141163894D01*
X137456397Y-140814272D01*
X137728325Y-139440934D01*
X137728325Y-139440934D01*
G37*
G36*
X138369298Y-136203782D02*
X140135018Y-136553404D01*
X139863090Y-137926742D01*
X138097370Y-137577120D01*
X138369298Y-136203782D01*
X138369298Y-136203782D01*
G37*
G36*
X143077883Y-137136106D02*
X144843603Y-137485728D01*
X144571675Y-138859066D01*
X142805955Y-138509444D01*
X143077883Y-137136106D01*
X143077883Y-137136106D01*
G37*
G36*
X142436910Y-140373258D02*
X144202630Y-140722880D01*
X143930702Y-142096218D01*
X142164982Y-141746596D01*
X142436910Y-140373258D01*
X142436910Y-140373258D01*
G37*
G36*
X140630387Y-139200026D02*
X141611342Y-139394260D01*
X141514225Y-139884738D01*
X140533270Y-139690504D01*
X140630387Y-139200026D01*
X140630387Y-139200026D01*
G37*
G36*
X140785775Y-138415262D02*
X141766730Y-138609496D01*
X141669613Y-139099974D01*
X140688658Y-138905740D01*
X140785775Y-138415262D01*
X140785775Y-138415262D01*
G37*
D24*
X147600000Y-141650000D03*
X147600000Y-138350000D03*
X152400000Y-138350000D03*
X152400000Y-141650000D03*
D25*
X150000000Y-140400000D03*
X150000000Y-139600000D03*
D10*
G36*
X155658426Y-140694153D02*
X157421661Y-140332213D01*
X157703170Y-141703619D01*
X155939935Y-142065559D01*
X155658426Y-140694153D01*
X155658426Y-140694153D01*
G37*
G36*
X154994869Y-137461555D02*
X156758104Y-137099615D01*
X157039613Y-138471021D01*
X155276378Y-138832961D01*
X154994869Y-137461555D01*
X154994869Y-137461555D01*
G37*
G36*
X159696830Y-136496381D02*
X161460065Y-136134441D01*
X161741574Y-137505847D01*
X159978339Y-137867787D01*
X159696830Y-136496381D01*
X159696830Y-136496381D01*
G37*
G36*
X160360387Y-139728979D02*
X162123622Y-139367039D01*
X162405131Y-140738445D01*
X160641896Y-141100385D01*
X160360387Y-139728979D01*
X160360387Y-139728979D01*
G37*
G36*
X158240374Y-139347475D02*
X159219949Y-139146397D01*
X159320488Y-139636185D01*
X158340913Y-139837263D01*
X158240374Y-139347475D01*
X158240374Y-139347475D01*
G37*
G36*
X158079512Y-138563815D02*
X159059087Y-138362737D01*
X159159626Y-138852525D01*
X158180051Y-139053603D01*
X158079512Y-138563815D01*
X158079512Y-138563815D01*
G37*
G36*
X164525991Y-138754572D02*
X166185345Y-138057044D01*
X166727867Y-139347652D01*
X165068513Y-140045180D01*
X164525991Y-138754572D01*
X164525991Y-138754572D01*
G37*
G36*
X163247190Y-135712423D02*
X164906544Y-135014895D01*
X165449066Y-136305503D01*
X163789712Y-137003031D01*
X163247190Y-135712423D01*
X163247190Y-135712423D01*
G37*
G36*
X167672133Y-133852348D02*
X169331487Y-133154820D01*
X169874009Y-134445428D01*
X168214655Y-135142956D01*
X167672133Y-133852348D01*
X167672133Y-133852348D01*
G37*
G36*
X168950934Y-136894497D02*
X170610288Y-136196969D01*
X171152810Y-137487577D01*
X169493456Y-138185105D01*
X168950934Y-136894497D01*
X168950934Y-136894497D01*
G37*
G36*
X166797196Y-136932037D02*
X167719059Y-136544521D01*
X167912816Y-137005453D01*
X166990953Y-137392969D01*
X166797196Y-136932037D01*
X166797196Y-136932037D01*
G37*
G36*
X166487184Y-136194547D02*
X167409047Y-135807031D01*
X167602804Y-136267963D01*
X166680941Y-136655479D01*
X166487184Y-136194547D01*
X166487184Y-136194547D01*
G37*
G36*
X172695409Y-135132922D02*
X174187677Y-134126375D01*
X174970547Y-135287028D01*
X173478279Y-136293575D01*
X172695409Y-135132922D01*
X172695409Y-135132922D01*
G37*
G36*
X170850073Y-132397098D02*
X172342341Y-131390551D01*
X173125211Y-132551204D01*
X171632943Y-133557751D01*
X170850073Y-132397098D01*
X170850073Y-132397098D01*
G37*
G36*
X174829453Y-129712972D02*
X176321721Y-128706425D01*
X177104591Y-129867078D01*
X175612323Y-130873625D01*
X174829453Y-129712972D01*
X174829453Y-129712972D01*
G37*
G36*
X176674789Y-132448796D02*
X178167057Y-131442249D01*
X178949927Y-132602902D01*
X177457659Y-133609449D01*
X176674789Y-132448796D01*
X176674789Y-132448796D01*
G37*
G36*
X174569360Y-132903952D02*
X175398398Y-132344759D01*
X175677994Y-132759278D01*
X174848956Y-133318471D01*
X174569360Y-132903952D01*
X174569360Y-132903952D01*
G37*
G36*
X174122006Y-132240722D02*
X174951044Y-131681529D01*
X175230640Y-132096048D01*
X174401602Y-132655241D01*
X174122006Y-132240722D01*
X174122006Y-132240722D01*
G37*
G36*
X180143547Y-129808100D02*
X181414116Y-128533088D01*
X182405791Y-129521308D01*
X181135222Y-130796320D01*
X180143547Y-129808100D01*
X180143547Y-129808100D01*
G37*
G36*
X177806025Y-127478724D02*
X179076594Y-126203712D01*
X180068269Y-127191932D01*
X178797700Y-128466944D01*
X177806025Y-127478724D01*
X177806025Y-127478724D01*
G37*
G36*
X181194209Y-124078692D02*
X182464778Y-122803680D01*
X183456453Y-123791900D01*
X182185884Y-125066912D01*
X181194209Y-124078692D01*
X181194209Y-124078692D01*
G37*
G36*
X183531731Y-126408068D02*
X184802300Y-125133056D01*
X185793975Y-126121276D01*
X184523406Y-127396288D01*
X183531731Y-126408068D01*
X183531731Y-126408068D01*
G37*
G36*
X181553315Y-127260051D02*
X182259187Y-126551711D01*
X182613357Y-126904647D01*
X181907485Y-127612987D01*
X181553315Y-127260051D01*
X181553315Y-127260051D01*
G37*
G36*
X180986643Y-126695353D02*
X181692515Y-125987013D01*
X182046685Y-126339949D01*
X181340813Y-127048289D01*
X180986643Y-126695353D01*
X180986643Y-126695353D01*
G37*
G36*
X186359370Y-123272551D02*
X187358090Y-121775033D01*
X188522826Y-122551815D01*
X187524106Y-124049333D01*
X186359370Y-123272551D01*
X186359370Y-123272551D01*
G37*
G36*
X183613921Y-121441565D02*
X184612641Y-119944047D01*
X185777377Y-120720829D01*
X184778657Y-122218347D01*
X183613921Y-121441565D01*
X183613921Y-121441565D01*
G37*
G36*
X186277174Y-117448185D02*
X187275894Y-115950667D01*
X188440630Y-116727449D01*
X187441910Y-118224967D01*
X186277174Y-117448185D01*
X186277174Y-117448185D01*
G37*
G36*
X189022623Y-119279171D02*
X190021343Y-117781653D01*
X191186079Y-118558435D01*
X190187359Y-120055953D01*
X189022623Y-119279171D01*
X189022623Y-119279171D01*
G37*
G36*
X187247371Y-120499204D02*
X187802216Y-119667250D01*
X188218193Y-119944672D01*
X187663348Y-120776626D01*
X187247371Y-120499204D01*
X187247371Y-120499204D01*
G37*
G36*
X186581807Y-120055328D02*
X187136652Y-119223374D01*
X187552629Y-119500796D01*
X186997784Y-120332750D01*
X186581807Y-120055328D01*
X186581807Y-120055328D01*
G37*
G36*
X191214830Y-115612352D02*
X191903660Y-113949369D01*
X193197092Y-114485126D01*
X192508262Y-116148109D01*
X191214830Y-115612352D01*
X191214830Y-115612352D01*
G37*
G36*
X188166028Y-114349496D02*
X188854858Y-112686513D01*
X190148290Y-113222270D01*
X189459460Y-114885253D01*
X188166028Y-114349496D01*
X188166028Y-114349496D01*
G37*
G36*
X190002908Y-109914874D02*
X190691738Y-108251891D01*
X191985170Y-108787648D01*
X191296340Y-110450631D01*
X190002908Y-109914874D01*
X190002908Y-109914874D01*
G37*
G36*
X193051710Y-111177730D02*
X193740540Y-109514747D01*
X195033972Y-110050504D01*
X194345142Y-111713487D01*
X193051710Y-111177730D01*
X193051710Y-111177730D01*
G37*
G36*
X191547240Y-112719342D02*
X191929924Y-111795462D01*
X192391864Y-111986804D01*
X192009180Y-112910684D01*
X191547240Y-112719342D01*
X191547240Y-112719342D01*
G37*
G36*
X190808136Y-112413196D02*
X191190820Y-111489316D01*
X191652760Y-111680658D01*
X191270076Y-112604538D01*
X190808136Y-112413196D01*
X190808136Y-112413196D01*
G37*
G36*
X194384961Y-107322177D02*
X194737664Y-105557071D01*
X196110525Y-105831395D01*
X195757822Y-107596501D01*
X194384961Y-107322177D01*
X194384961Y-107322177D01*
G37*
G36*
X191148933Y-106675555D02*
X191501636Y-104910449D01*
X192874497Y-105184773D01*
X192521794Y-106949879D01*
X191148933Y-106675555D01*
X191148933Y-106675555D01*
G37*
G36*
X192089475Y-101968605D02*
X192442178Y-100203499D01*
X193815039Y-100477823D01*
X193462336Y-102242929D01*
X192089475Y-101968605D01*
X192089475Y-101968605D01*
G37*
G36*
X195325503Y-102615227D02*
X195678206Y-100850121D01*
X197051067Y-101124445D01*
X196698364Y-102889551D01*
X195325503Y-102615227D01*
X195325503Y-102615227D01*
G37*
G36*
X194149119Y-104419699D02*
X194345065Y-103439084D01*
X194835373Y-103537057D01*
X194639427Y-104517672D01*
X194149119Y-104419699D01*
X194149119Y-104419699D01*
G37*
G36*
X193364627Y-104262943D02*
X193560573Y-103282328D01*
X194050881Y-103380301D01*
X193854935Y-104360916D01*
X193364627Y-104262943D01*
X193364627Y-104262943D01*
G37*
D22*
X196650000Y-97400000D03*
X193350000Y-97400000D03*
X193350000Y-92600000D03*
X196650000Y-92600000D03*
D23*
X195400000Y-95000000D03*
X194600000Y-95000000D03*
D10*
G36*
X195672880Y-89252630D02*
X195323258Y-87486910D01*
X196696596Y-87214982D01*
X197046218Y-88980702D01*
X195672880Y-89252630D01*
X195672880Y-89252630D01*
G37*
G36*
X192435728Y-89893603D02*
X192086106Y-88127883D01*
X193459444Y-87855955D01*
X193809066Y-89621675D01*
X192435728Y-89893603D01*
X192435728Y-89893603D01*
G37*
G36*
X191503404Y-85185018D02*
X191153782Y-83419298D01*
X192527120Y-83147370D01*
X192876742Y-84913090D01*
X191503404Y-85185018D01*
X191503404Y-85185018D01*
G37*
G36*
X194740556Y-84544045D02*
X194390934Y-82778325D01*
X195764272Y-82506397D01*
X196113894Y-84272117D01*
X194740556Y-84544045D01*
X194740556Y-84544045D01*
G37*
G36*
X194344260Y-86661342D02*
X194150026Y-85680387D01*
X194640504Y-85583270D01*
X194834738Y-86564225D01*
X194344260Y-86661342D01*
X194344260Y-86661342D01*
G37*
G36*
X193559496Y-86816730D02*
X193365262Y-85835775D01*
X193855740Y-85738658D01*
X194049974Y-86719613D01*
X193559496Y-86816730D01*
X193559496Y-86816730D01*
G37*
G36*
X193735851Y-80488985D02*
X193049924Y-78824802D01*
X194344289Y-78291303D01*
X195030216Y-79955486D01*
X193735851Y-80488985D01*
X193735851Y-80488985D01*
G37*
G36*
X190684849Y-81746518D02*
X189998922Y-80082335D01*
X191293287Y-79548836D01*
X191979214Y-81213019D01*
X190684849Y-81746518D01*
X190684849Y-81746518D01*
G37*
G36*
X188855711Y-77308697D02*
X188169784Y-75644514D01*
X189464149Y-75111015D01*
X190150076Y-76775198D01*
X188855711Y-77308697D01*
X188855711Y-77308697D01*
G37*
G36*
X191906713Y-76051164D02*
X191220786Y-74386981D01*
X192515151Y-73853482D01*
X193201078Y-75517665D01*
X191906713Y-76051164D01*
X191906713Y-76051164D01*
G37*
G36*
X191929217Y-78205113D02*
X191548146Y-77280567D01*
X192010419Y-77090031D01*
X192391490Y-78014577D01*
X191929217Y-78205113D01*
X191929217Y-78205113D01*
G37*
G36*
X191189581Y-78509969D02*
X190808510Y-77585423D01*
X191270783Y-77394887D01*
X191651854Y-78319433D01*
X191189581Y-78509969D01*
X191189581Y-78509969D01*
G37*
G36*
X190025211Y-72213768D02*
X189023879Y-70717996D01*
X190187257Y-69939182D01*
X191188589Y-71434954D01*
X190025211Y-72213768D01*
X190025211Y-72213768D01*
G37*
G36*
X187282962Y-74049543D02*
X186281630Y-72553771D01*
X187445008Y-71774957D01*
X188446340Y-73270729D01*
X187282962Y-74049543D01*
X187282962Y-74049543D01*
G37*
G36*
X184612743Y-70060818D02*
X183611411Y-68565046D01*
X184774789Y-67786232D01*
X185776121Y-69282004D01*
X184612743Y-70060818D01*
X184612743Y-70060818D01*
G37*
G36*
X187354992Y-68225043D02*
X186353660Y-66729271D01*
X187517038Y-65950457D01*
X188518370Y-67446229D01*
X187354992Y-68225043D01*
X187354992Y-68225043D01*
G37*
G36*
X187802796Y-70332048D02*
X187246500Y-69501064D01*
X187661992Y-69222916D01*
X188218288Y-70053900D01*
X187802796Y-70332048D01*
X187802796Y-70332048D01*
G37*
G36*
X187138008Y-70777084D02*
X186581712Y-69946100D01*
X186997204Y-69667952D01*
X187553500Y-70498936D01*
X187138008Y-70777084D01*
X187138008Y-70777084D01*
G37*
G36*
X184805203Y-64861701D02*
X183532411Y-63588909D01*
X184522361Y-62598959D01*
X185795153Y-63871751D01*
X184805203Y-64861701D01*
X184805203Y-64861701D01*
G37*
G36*
X182471751Y-67195153D02*
X181198959Y-65922361D01*
X182188909Y-64932411D01*
X183461701Y-66205203D01*
X182471751Y-67195153D01*
X182471751Y-67195153D01*
G37*
G36*
X179077639Y-63801041D02*
X177804847Y-62528249D01*
X178794797Y-61538299D01*
X180067589Y-62811091D01*
X179077639Y-63801041D01*
X179077639Y-63801041D01*
G37*
G36*
X181411091Y-61467589D02*
X180138299Y-60194797D01*
X181128249Y-59204847D01*
X182401041Y-60477639D01*
X181411091Y-61467589D01*
X181411091Y-61467589D01*
G37*
G36*
X182259620Y-63447487D02*
X181552513Y-62740380D01*
X181906066Y-62386827D01*
X182613173Y-63093934D01*
X182259620Y-63447487D01*
X182259620Y-63447487D01*
G37*
G36*
X181693934Y-64013173D02*
X180986827Y-63306066D01*
X181340380Y-62952513D01*
X182047487Y-63659620D01*
X181693934Y-64013173D01*
X181693934Y-64013173D01*
G37*
G36*
X178270729Y-58646340D02*
X176774957Y-57645008D01*
X177553771Y-56481630D01*
X179049543Y-57482962D01*
X178270729Y-58646340D01*
X178270729Y-58646340D01*
G37*
G36*
X176434954Y-61388589D02*
X174939182Y-60387257D01*
X175717996Y-59223879D01*
X177213768Y-60225211D01*
X176434954Y-61388589D01*
X176434954Y-61388589D01*
G37*
G36*
X172446229Y-58718370D02*
X170950457Y-57717038D01*
X171729271Y-56553660D01*
X173225043Y-57554992D01*
X172446229Y-58718370D01*
X172446229Y-58718370D01*
G37*
G36*
X174282004Y-55976121D02*
X172786232Y-54974789D01*
X173565046Y-53811411D01*
X175060818Y-54812743D01*
X174282004Y-55976121D01*
X174282004Y-55976121D01*
G37*
G36*
X175498936Y-57753500D02*
X174667952Y-57197204D01*
X174946100Y-56781712D01*
X175777084Y-57338008D01*
X175498936Y-57753500D01*
X175498936Y-57753500D01*
G37*
G36*
X175053900Y-58418288D02*
X174222916Y-57861992D01*
X174501064Y-57446500D01*
X175332048Y-58002796D01*
X175053900Y-58418288D01*
X175053900Y-58418288D01*
G37*
G36*
X170612352Y-53785170D02*
X168949369Y-53096340D01*
X169485126Y-51802908D01*
X171148109Y-52491738D01*
X170612352Y-53785170D01*
X170612352Y-53785170D01*
G37*
G36*
X169349496Y-56833972D02*
X167686513Y-56145142D01*
X168222270Y-54851710D01*
X169885253Y-55540540D01*
X169349496Y-56833972D01*
X169349496Y-56833972D01*
G37*
G36*
X164914874Y-54997092D02*
X163251891Y-54308262D01*
X163787648Y-53014830D01*
X165450631Y-53703660D01*
X164914874Y-54997092D01*
X164914874Y-54997092D01*
G37*
G36*
X166177730Y-51948290D02*
X164514747Y-51259460D01*
X165050504Y-49966028D01*
X166713487Y-50654858D01*
X166177730Y-51948290D01*
X166177730Y-51948290D01*
G37*
G36*
X167719342Y-53452760D02*
X166795462Y-53070076D01*
X166986804Y-52608136D01*
X167910684Y-52990820D01*
X167719342Y-53452760D01*
X167719342Y-53452760D01*
G37*
G36*
X167413196Y-54191864D02*
X166489316Y-53809180D01*
X166680658Y-53347240D01*
X167604538Y-53729924D01*
X167413196Y-54191864D01*
X167413196Y-54191864D01*
G37*
G36*
X162222177Y-50615039D02*
X160457071Y-50262336D01*
X160731395Y-48889475D01*
X162496501Y-49242178D01*
X162222177Y-50615039D01*
X162222177Y-50615039D01*
G37*
G36*
X161575555Y-53851067D02*
X159810449Y-53498364D01*
X160084773Y-52125503D01*
X161849879Y-52478206D01*
X161575555Y-53851067D01*
X161575555Y-53851067D01*
G37*
G36*
X156868605Y-52910525D02*
X155103499Y-52557822D01*
X155377823Y-51184961D01*
X157142929Y-51537664D01*
X156868605Y-52910525D01*
X156868605Y-52910525D01*
G37*
G36*
X157515227Y-49674497D02*
X155750121Y-49321794D01*
X156024445Y-47948933D01*
X157789551Y-48301636D01*
X157515227Y-49674497D01*
X157515227Y-49674497D01*
G37*
G36*
X159319699Y-50850881D02*
X158339084Y-50654935D01*
X158437057Y-50164627D01*
X159417672Y-50360573D01*
X159319699Y-50850881D01*
X159319699Y-50850881D01*
G37*
G36*
X159162943Y-51635373D02*
X158182328Y-51439427D01*
X158280301Y-50949119D01*
X159260916Y-51145065D01*
X159162943Y-51635373D01*
X159162943Y-51635373D01*
G37*
D24*
X152400000Y-48350000D03*
X152400000Y-51650000D03*
X147600000Y-51650000D03*
X147600000Y-48350000D03*
D25*
X150000000Y-49600000D03*
X150000000Y-50400000D03*
D26*
X144550000Y-65248360D03*
X144550000Y-63551640D03*
X155450000Y-63551640D03*
X155450000Y-65248360D03*
D10*
G36*
X142423082Y-63903963D02*
X139726700Y-65219077D01*
X139463678Y-64679801D01*
X142160060Y-63364687D01*
X142423082Y-63903963D01*
X142423082Y-63903963D01*
G37*
G36*
X142028548Y-63095048D02*
X139332166Y-64410162D01*
X139069144Y-63870886D01*
X141765526Y-62555772D01*
X142028548Y-63095048D01*
X142028548Y-63095048D01*
G37*
G36*
X140176097Y-64999892D02*
X139726700Y-65219077D01*
X139069143Y-63870886D01*
X139518540Y-63651701D01*
X140176097Y-64999892D01*
X140176097Y-64999892D01*
G37*
G36*
X137821778Y-64735165D02*
X137372381Y-64954350D01*
X136714824Y-63606159D01*
X137164221Y-63386974D01*
X137821778Y-64735165D01*
X137821778Y-64735165D01*
G37*
G36*
X138935240Y-67018102D02*
X138485843Y-67237287D01*
X137828286Y-65889096D01*
X138277683Y-65669911D01*
X138935240Y-67018102D01*
X138935240Y-67018102D01*
G37*
G36*
X141289560Y-67282828D02*
X140840163Y-67502013D01*
X140182606Y-66153822D01*
X140632003Y-65934637D01*
X141289560Y-67282828D01*
X141289560Y-67282828D01*
G37*
G36*
X137821777Y-64735165D02*
X135125395Y-66050279D01*
X134862373Y-65511003D01*
X137558755Y-64195889D01*
X137821777Y-64735165D01*
X137821777Y-64735165D01*
G37*
G36*
X137427243Y-63926250D02*
X134730861Y-65241364D01*
X134467839Y-64702088D01*
X137164221Y-63386974D01*
X137427243Y-63926250D01*
X137427243Y-63926250D01*
G37*
G36*
X143536545Y-66186900D02*
X140840163Y-67502014D01*
X140577141Y-66962738D01*
X143273523Y-65647624D01*
X143536545Y-66186900D01*
X143536545Y-66186900D01*
G37*
G36*
X143142010Y-65377985D02*
X140445628Y-66693099D01*
X140182606Y-66153823D01*
X142878988Y-64838709D01*
X143142010Y-65377985D01*
X143142010Y-65377985D01*
G37*
G36*
X138935240Y-67018102D02*
X136238858Y-68333216D01*
X135975836Y-67793940D01*
X138672218Y-66478826D01*
X138935240Y-67018102D01*
X138935240Y-67018102D01*
G37*
G36*
X138540706Y-66209187D02*
X135844324Y-67524301D01*
X135581302Y-66985025D01*
X138277684Y-65669911D01*
X138540706Y-66209187D01*
X138540706Y-66209187D01*
G37*
G36*
X140405289Y-64888107D02*
X139731194Y-65216885D01*
X139468171Y-64677609D01*
X140142266Y-64348831D01*
X140405289Y-64888107D01*
X140405289Y-64888107D01*
G37*
G36*
X140010755Y-64079192D02*
X139336660Y-64407970D01*
X139073637Y-63868694D01*
X139747732Y-63539916D01*
X140010755Y-64079192D01*
X140010755Y-64079192D01*
G37*
G36*
X137422750Y-63928442D02*
X136748655Y-64257220D01*
X136485632Y-63717944D01*
X137159727Y-63389166D01*
X137422750Y-63928442D01*
X137422750Y-63928442D01*
G37*
G36*
X137817284Y-64737357D02*
X137143189Y-65066135D01*
X136880166Y-64526859D01*
X137554261Y-64198081D01*
X137817284Y-64737357D01*
X137817284Y-64737357D01*
G37*
G36*
X141124218Y-66362129D02*
X140450123Y-66690907D01*
X140187100Y-66151631D01*
X140861195Y-65822853D01*
X141124218Y-66362129D01*
X141124218Y-66362129D01*
G37*
G36*
X141518752Y-67171044D02*
X140844657Y-67499822D01*
X140581634Y-66960546D01*
X141255729Y-66631768D01*
X141518752Y-67171044D01*
X141518752Y-67171044D01*
G37*
G36*
X138536212Y-66211379D02*
X137862117Y-66540157D01*
X137599094Y-66000881D01*
X138273189Y-65672103D01*
X138536212Y-66211379D01*
X138536212Y-66211379D01*
G37*
G36*
X138930746Y-67020294D02*
X138256651Y-67349072D01*
X137993628Y-66809796D01*
X138667723Y-66481018D01*
X138930746Y-67020294D01*
X138930746Y-67020294D01*
G37*
G36*
X143536544Y-66186901D02*
X140840162Y-67502014D01*
X140182606Y-66153823D01*
X142878988Y-64838710D01*
X143536544Y-66186901D01*
X143536544Y-66186901D01*
G37*
G36*
X142423082Y-63903964D02*
X139726700Y-65219077D01*
X139069144Y-63870886D01*
X141765526Y-62555773D01*
X142423082Y-63903964D01*
X142423082Y-63903964D01*
G37*
G36*
X138935240Y-67018102D02*
X136238858Y-68333215D01*
X135581302Y-66985024D01*
X138277684Y-65669911D01*
X138935240Y-67018102D01*
X138935240Y-67018102D01*
G37*
G36*
X137821777Y-64735165D02*
X135125395Y-66050278D01*
X134467839Y-64702087D01*
X137164221Y-63386974D01*
X137821777Y-64735165D01*
X137821777Y-64735165D01*
G37*
G36*
X164527873Y-67191747D02*
X161831491Y-65876633D01*
X162094513Y-65337357D01*
X164790895Y-66652471D01*
X164527873Y-67191747D01*
X164527873Y-67191747D01*
G37*
G36*
X164922407Y-66382833D02*
X162226025Y-65067719D01*
X162489047Y-64528443D01*
X165185429Y-65843557D01*
X164922407Y-66382833D01*
X164922407Y-66382833D01*
G37*
G36*
X162280888Y-66095819D02*
X161831491Y-65876634D01*
X162489048Y-64528443D01*
X162938445Y-64747628D01*
X162280888Y-66095819D01*
X162280888Y-66095819D01*
G37*
G36*
X161040031Y-64077608D02*
X160590634Y-63858423D01*
X161248191Y-62510232D01*
X161697588Y-62729417D01*
X161040031Y-64077608D01*
X161040031Y-64077608D01*
G37*
G36*
X159926568Y-66360545D02*
X159477171Y-66141360D01*
X160134728Y-64793169D01*
X160584125Y-65012354D01*
X159926568Y-66360545D01*
X159926568Y-66360545D01*
G37*
G36*
X161167425Y-68378756D02*
X160718028Y-68159571D01*
X161375585Y-66811380D01*
X161824982Y-67030565D01*
X161167425Y-68378756D01*
X161167425Y-68378756D01*
G37*
G36*
X161040032Y-64077609D02*
X158343650Y-62762495D01*
X158606672Y-62223219D01*
X161303054Y-63538333D01*
X161040032Y-64077609D01*
X161040032Y-64077609D01*
G37*
G36*
X161434566Y-63268694D02*
X158738184Y-61953580D01*
X159001206Y-61414304D01*
X161697588Y-62729418D01*
X161434566Y-63268694D01*
X161434566Y-63268694D01*
G37*
G36*
X163414411Y-69474684D02*
X160718029Y-68159570D01*
X160981051Y-67620294D01*
X163677433Y-68935408D01*
X163414411Y-69474684D01*
X163414411Y-69474684D01*
G37*
G36*
X163808945Y-68665769D02*
X161112563Y-67350655D01*
X161375585Y-66811379D01*
X164071967Y-68126493D01*
X163808945Y-68665769D01*
X163808945Y-68665769D01*
G37*
G36*
X159926569Y-66360545D02*
X157230187Y-65045431D01*
X157493209Y-64506155D01*
X160189591Y-65821269D01*
X159926569Y-66360545D01*
X159926569Y-66360545D01*
G37*
G36*
X160321103Y-65551631D02*
X157624721Y-64236517D01*
X157887743Y-63697241D01*
X160584125Y-65012355D01*
X160321103Y-65551631D01*
X160321103Y-65551631D01*
G37*
G36*
X162510080Y-66207603D02*
X161835985Y-65878825D01*
X162099008Y-65339549D01*
X162773103Y-65668327D01*
X162510080Y-66207603D01*
X162510080Y-66207603D01*
G37*
G36*
X162904614Y-65398689D02*
X162230519Y-65069911D01*
X162493542Y-64530635D01*
X163167637Y-64859413D01*
X162904614Y-65398689D01*
X162904614Y-65398689D01*
G37*
G36*
X161430071Y-63266502D02*
X160755976Y-62937724D01*
X161018999Y-62398448D01*
X161693094Y-62727226D01*
X161430071Y-63266502D01*
X161430071Y-63266502D01*
G37*
G36*
X161035537Y-64075416D02*
X160361442Y-63746638D01*
X160624465Y-63207362D01*
X161298560Y-63536140D01*
X161035537Y-64075416D01*
X161035537Y-64075416D01*
G37*
G36*
X161791151Y-67681626D02*
X161117056Y-67352848D01*
X161380079Y-66813572D01*
X162054174Y-67142350D01*
X161791151Y-67681626D01*
X161791151Y-67681626D01*
G37*
G36*
X161396617Y-68490540D02*
X160722522Y-68161762D01*
X160985545Y-67622486D01*
X161659640Y-67951264D01*
X161396617Y-68490540D01*
X161396617Y-68490540D01*
G37*
G36*
X160316608Y-65549438D02*
X159642513Y-65220660D01*
X159905536Y-64681384D01*
X160579631Y-65010162D01*
X160316608Y-65549438D01*
X160316608Y-65549438D01*
G37*
G36*
X159922074Y-66358353D02*
X159247979Y-66029575D01*
X159511002Y-65490299D01*
X160185097Y-65819077D01*
X159922074Y-66358353D01*
X159922074Y-66358353D01*
G37*
G36*
X163414411Y-69474684D02*
X160718029Y-68159571D01*
X161375585Y-66811380D01*
X164071967Y-68126493D01*
X163414411Y-69474684D01*
X163414411Y-69474684D01*
G37*
G36*
X164527873Y-67191747D02*
X161831491Y-65876634D01*
X162489047Y-64528443D01*
X165185429Y-65843556D01*
X164527873Y-67191747D01*
X164527873Y-67191747D01*
G37*
G36*
X159926569Y-66360545D02*
X157230187Y-65045432D01*
X157887743Y-63697241D01*
X160584125Y-65012354D01*
X159926569Y-66360545D01*
X159926569Y-66360545D01*
G37*
G36*
X161040032Y-64077608D02*
X158343650Y-62762495D01*
X159001206Y-61414304D01*
X161697588Y-62729417D01*
X161040032Y-64077608D01*
X161040032Y-64077608D01*
G37*
D21*
X144850040Y-68000000D03*
X146749960Y-68000000D03*
D27*
X143650000Y-59330000D03*
D28*
X146190000Y-59330000D03*
X148730000Y-59330000D03*
X151270000Y-59330000D03*
X153810000Y-59330000D03*
X156350000Y-59330000D03*
D18*
X156500000Y-68000000D03*
X153100000Y-68000000D03*
M02*
