%FSLAX46Y46*%
G04 Gerber Fmt 4.6, Leading zero omitted, Abs format (unit mm)*
G04 Created by KiCad (PCBNEW (2014-08-24 BZR 5093)-product) date Sun 24 Aug 2014 06:18:59 PM CEST*
%MOMM*%
G01*
G04 APERTURE LIST*
%ADD10C,0.100000*%
%ADD11R,1.400000X1.000000*%
%ADD12R,1.000000X1.000000*%
%ADD13R,0.400000X1.000000*%
%ADD14C,2.000000*%
%ADD15R,1.800000X1.800000*%
%ADD16R,1.400000X3.800000*%
%ADD17R,1.498600X1.297940*%
%ADD18R,1.297940X1.498600*%
%ADD19R,1.400000X1.800000*%
%ADD20R,0.500000X1.000000*%
%ADD21R,1.800000X1.400000*%
%ADD22R,1.000000X0.500000*%
%ADD23R,1.099820X0.998220*%
%ADD24R,0.998220X1.099820*%
G04 APERTURE END LIST*
D10*
D11*
X153670000Y-124250000D03*
X153670000Y-126150000D03*
X151470000Y-125200000D03*
X146430000Y-126150000D03*
X146430000Y-124250000D03*
X148630000Y-125200000D03*
X146550000Y-65150000D03*
X146550000Y-63250000D03*
X148750000Y-64200000D03*
D12*
X148000000Y-63250000D03*
D13*
X148280000Y-63700000D03*
D11*
X153450000Y-63250000D03*
X153450000Y-65150000D03*
X151250000Y-64200000D03*
D12*
X152000000Y-65150000D03*
D13*
X151740000Y-64700000D03*
D14*
X146210000Y-130130000D03*
X148750000Y-130130000D03*
X151290000Y-130130000D03*
X153830000Y-130130000D03*
D15*
X143100000Y-124700000D03*
X140100000Y-124700000D03*
D16*
X143900000Y-124700000D03*
X139300000Y-124700000D03*
D15*
X156900000Y-124700000D03*
X159900000Y-124700000D03*
D16*
X156100000Y-124700000D03*
X160700000Y-124700000D03*
D10*
G36*
X143621112Y-54651921D02*
X143914757Y-56121470D01*
X142641978Y-56375797D01*
X142348333Y-54906248D01*
X143621112Y-54651921D01*
X143621112Y-54651921D01*
G37*
G36*
X141758022Y-55024203D02*
X142051667Y-56493752D01*
X140778888Y-56748079D01*
X140485243Y-55278530D01*
X141758022Y-55024203D01*
X141758022Y-55024203D01*
G37*
G36*
X135890474Y-56695853D02*
X136463964Y-58080379D01*
X135264824Y-58577079D01*
X134691334Y-57192553D01*
X135890474Y-56695853D01*
X135890474Y-56695853D01*
G37*
G36*
X134135176Y-57422921D02*
X134708666Y-58807447D01*
X133509526Y-59304147D01*
X132936036Y-57919621D01*
X134135176Y-57422921D01*
X134135176Y-57422921D01*
G37*
G36*
X128611854Y-60287865D02*
X129445518Y-61533178D01*
X128366950Y-62255217D01*
X127533286Y-61009904D01*
X128611854Y-60287865D01*
X128611854Y-60287865D01*
G37*
G36*
X127033050Y-61344783D02*
X127866714Y-62590096D01*
X126788146Y-63312135D01*
X125954482Y-62066822D01*
X127033050Y-61344783D01*
X127033050Y-61344783D01*
G37*
G36*
X122300779Y-65039551D02*
X123360449Y-66099221D01*
X122442667Y-67017003D01*
X121382997Y-65957333D01*
X122300779Y-65039551D01*
X122300779Y-65039551D01*
G37*
G36*
X120957333Y-66382997D02*
X122017003Y-67442667D01*
X121099221Y-68360449D01*
X120039551Y-67300779D01*
X120957333Y-66382997D01*
X120957333Y-66382997D01*
G37*
G36*
X117013774Y-71054019D02*
X118260541Y-71885509D01*
X117540386Y-72965335D01*
X116293619Y-72133845D01*
X117013774Y-71054019D01*
X117013774Y-71054019D01*
G37*
G36*
X115959614Y-72634665D02*
X117206381Y-73466155D01*
X116486226Y-74545981D01*
X115239459Y-73714491D01*
X115959614Y-72634665D01*
X115959614Y-72634665D01*
G37*
G36*
X112969621Y-77936036D02*
X114354147Y-78509526D01*
X113857447Y-79708666D01*
X112472921Y-79135176D01*
X112969621Y-77936036D01*
X112969621Y-77936036D01*
G37*
G36*
X112242553Y-79691334D02*
X113627079Y-80264824D01*
X113130379Y-81463964D01*
X111745853Y-80890474D01*
X112242553Y-79691334D01*
X112242553Y-79691334D01*
G37*
G36*
X110325538Y-85535982D02*
X111795597Y-85827061D01*
X111543492Y-87100282D01*
X110073433Y-86809203D01*
X110325538Y-85535982D01*
X110325538Y-85535982D01*
G37*
G36*
X109956508Y-87399718D02*
X111426567Y-87690797D01*
X111174462Y-88964018D01*
X109704403Y-88672939D01*
X109956508Y-87399718D01*
X109956508Y-87399718D01*
G37*
D17*
X110000000Y-94050040D03*
X110000000Y-95949960D03*
D10*
G36*
X109701921Y-101378888D02*
X111171470Y-101085243D01*
X111425797Y-102358022D01*
X109956248Y-102651667D01*
X109701921Y-101378888D01*
X109701921Y-101378888D01*
G37*
G36*
X110074203Y-103241978D02*
X111543752Y-102948333D01*
X111798079Y-104221112D01*
X110328530Y-104514757D01*
X110074203Y-103241978D01*
X110074203Y-103241978D01*
G37*
G36*
X111745853Y-109159526D02*
X113130379Y-108586036D01*
X113627079Y-109785176D01*
X112242553Y-110358666D01*
X111745853Y-109159526D01*
X111745853Y-109159526D01*
G37*
G36*
X112472921Y-110914824D02*
X113857447Y-110341334D01*
X114354147Y-111540474D01*
X112969621Y-112113964D01*
X112472921Y-110914824D01*
X112472921Y-110914824D01*
G37*
G36*
X115187865Y-116288146D02*
X116433178Y-115454482D01*
X117155217Y-116533050D01*
X115909904Y-117366714D01*
X115187865Y-116288146D01*
X115187865Y-116288146D01*
G37*
G36*
X116244783Y-117866950D02*
X117490096Y-117033286D01*
X118212135Y-118111854D01*
X116966822Y-118945518D01*
X116244783Y-117866950D01*
X116244783Y-117866950D01*
G37*
G36*
X120039551Y-122699221D02*
X121099221Y-121639551D01*
X122017003Y-122557333D01*
X120957333Y-123617003D01*
X120039551Y-122699221D01*
X120039551Y-122699221D01*
G37*
G36*
X121382997Y-124042667D02*
X122442667Y-122982997D01*
X123360449Y-123900779D01*
X122300779Y-124960449D01*
X121382997Y-124042667D01*
X121382997Y-124042667D01*
G37*
G36*
X126004019Y-127986226D02*
X126835509Y-126739459D01*
X127915335Y-127459614D01*
X127083845Y-128706381D01*
X126004019Y-127986226D01*
X126004019Y-127986226D01*
G37*
G36*
X127584665Y-129040386D02*
X128416155Y-127793619D01*
X129495981Y-128513774D01*
X128664491Y-129760541D01*
X127584665Y-129040386D01*
X127584665Y-129040386D01*
G37*
G36*
X132936036Y-132030379D02*
X133509526Y-130645853D01*
X134708666Y-131142553D01*
X134135176Y-132527079D01*
X132936036Y-132030379D01*
X132936036Y-132030379D01*
G37*
G36*
X134691334Y-132757447D02*
X135264824Y-131372921D01*
X136463964Y-131869621D01*
X135890474Y-133254147D01*
X134691334Y-132757447D01*
X134691334Y-132757447D01*
G37*
G36*
X140435982Y-134624462D02*
X140727061Y-133154403D01*
X142000282Y-133406508D01*
X141709203Y-134876567D01*
X140435982Y-134624462D01*
X140435982Y-134624462D01*
G37*
G36*
X142299718Y-134993492D02*
X142590797Y-133523433D01*
X143864018Y-133775538D01*
X143572939Y-135245597D01*
X142299718Y-134993492D01*
X142299718Y-134993492D01*
G37*
G36*
X156371606Y-135238132D02*
X156088228Y-133766569D01*
X157362752Y-133521134D01*
X157646130Y-134992697D01*
X156371606Y-135238132D01*
X156371606Y-135238132D01*
G37*
G36*
X158237248Y-134878866D02*
X157953870Y-133407303D01*
X159228394Y-133161868D01*
X159511772Y-134633431D01*
X158237248Y-134878866D01*
X158237248Y-134878866D01*
G37*
D18*
X149050040Y-135000000D03*
X150949960Y-135000000D03*
D10*
G36*
X164116371Y-133210362D02*
X163535640Y-131828858D01*
X164732163Y-131325886D01*
X165312894Y-132707390D01*
X164116371Y-133210362D01*
X164116371Y-133210362D01*
G37*
G36*
X165867837Y-132474114D02*
X165287106Y-131092610D01*
X166483629Y-130589638D01*
X167064360Y-131971142D01*
X165867837Y-132474114D01*
X165867837Y-132474114D01*
G37*
G36*
X171193430Y-129815308D02*
X170355423Y-128572913D01*
X171431464Y-127847114D01*
X172269471Y-129089509D01*
X171193430Y-129815308D01*
X171193430Y-129815308D01*
G37*
G36*
X172768536Y-128752886D02*
X171930529Y-127510491D01*
X173006570Y-126784692D01*
X173844577Y-128027087D01*
X172768536Y-128752886D01*
X172768536Y-128752886D01*
G37*
G36*
X177699221Y-124960449D02*
X176639551Y-123900779D01*
X177557333Y-122982997D01*
X178617003Y-124042667D01*
X177699221Y-124960449D01*
X177699221Y-124960449D01*
G37*
G36*
X179042667Y-123617003D02*
X177982997Y-122557333D01*
X178900779Y-121639551D01*
X179960449Y-122699221D01*
X179042667Y-123617003D01*
X179042667Y-123617003D01*
G37*
G36*
X183033178Y-118945518D02*
X181787865Y-118111854D01*
X182509904Y-117033286D01*
X183755217Y-117866950D01*
X183033178Y-118945518D01*
X183033178Y-118945518D01*
G37*
G36*
X184090096Y-117366714D02*
X182844783Y-116533050D01*
X183566822Y-115454482D01*
X184812135Y-116288146D01*
X184090096Y-117366714D01*
X184090096Y-117366714D01*
G37*
G36*
X187030379Y-112063964D02*
X185645853Y-111490474D01*
X186142553Y-110291334D01*
X187527079Y-110864824D01*
X187030379Y-112063964D01*
X187030379Y-112063964D01*
G37*
G36*
X187757447Y-110308666D02*
X186372921Y-109735176D01*
X186869621Y-108536036D01*
X188254147Y-109109526D01*
X187757447Y-110308666D01*
X187757447Y-110308666D01*
G37*
G36*
X189621470Y-104564757D02*
X188151921Y-104271112D01*
X188406248Y-102998333D01*
X189875797Y-103291978D01*
X189621470Y-104564757D01*
X189621470Y-104564757D01*
G37*
G36*
X189993752Y-102701667D02*
X188524203Y-102408022D01*
X188778530Y-101135243D01*
X190248079Y-101428888D01*
X189993752Y-102701667D01*
X189993752Y-102701667D01*
G37*
D17*
X190000000Y-95949960D03*
X190000000Y-94050040D03*
D10*
G36*
X190295597Y-88622939D02*
X188825538Y-88914018D01*
X188573433Y-87640797D01*
X190043492Y-87349718D01*
X190295597Y-88622939D01*
X190295597Y-88622939D01*
G37*
G36*
X189926567Y-86759203D02*
X188456508Y-87050282D01*
X188204403Y-85777061D01*
X189674462Y-85485982D01*
X189926567Y-86759203D01*
X189926567Y-86759203D01*
G37*
G36*
X188254147Y-80890474D02*
X186869621Y-81463964D01*
X186372921Y-80264824D01*
X187757447Y-79691334D01*
X188254147Y-80890474D01*
X188254147Y-80890474D01*
G37*
G36*
X187527079Y-79135176D02*
X186142553Y-79708666D01*
X185645853Y-78509526D01*
X187030379Y-77936036D01*
X187527079Y-79135176D01*
X187527079Y-79135176D01*
G37*
G36*
X184762135Y-73661854D02*
X183516822Y-74495518D01*
X182794783Y-73416950D01*
X184040096Y-72583286D01*
X184762135Y-73661854D01*
X184762135Y-73661854D01*
G37*
G36*
X183705217Y-72083050D02*
X182459904Y-72916714D01*
X181737865Y-71838146D01*
X182983178Y-71004482D01*
X183705217Y-72083050D01*
X183705217Y-72083050D01*
G37*
G36*
X179960449Y-67300779D02*
X178900779Y-68360449D01*
X177982997Y-67442667D01*
X179042667Y-66382997D01*
X179960449Y-67300779D01*
X179960449Y-67300779D01*
G37*
G36*
X178617003Y-65957333D02*
X177557333Y-67017003D01*
X176639551Y-66099221D01*
X177699221Y-65039551D01*
X178617003Y-65957333D01*
X178617003Y-65957333D01*
G37*
G36*
X174047781Y-62051579D02*
X173225015Y-63304120D01*
X172140187Y-62591521D01*
X172962953Y-61338980D01*
X174047781Y-62051579D01*
X174047781Y-62051579D01*
G37*
G36*
X172459813Y-61008479D02*
X171637047Y-62261020D01*
X170552219Y-61548421D01*
X171374985Y-60295880D01*
X172459813Y-61008479D01*
X172459813Y-61008479D01*
G37*
G36*
X167063964Y-57919621D02*
X166490474Y-59304147D01*
X165291334Y-58807447D01*
X165864824Y-57422921D01*
X167063964Y-57919621D01*
X167063964Y-57919621D01*
G37*
G36*
X165308666Y-57192553D02*
X164735176Y-58577079D01*
X163536036Y-58080379D01*
X164109526Y-56695853D01*
X165308666Y-57192553D01*
X165308666Y-57192553D01*
G37*
G36*
X159514757Y-55378530D02*
X159221112Y-56848079D01*
X157948333Y-56593752D01*
X158241978Y-55124203D01*
X159514757Y-55378530D01*
X159514757Y-55378530D01*
G37*
G36*
X157651667Y-55006248D02*
X157358022Y-56475797D01*
X156085243Y-56221470D01*
X156378888Y-54751921D01*
X157651667Y-55006248D01*
X157651667Y-55006248D01*
G37*
D18*
X150949960Y-55000000D03*
X149050040Y-55000000D03*
D15*
X151700000Y-67500000D03*
X148300000Y-67500000D03*
D10*
G36*
X144349879Y-49321794D02*
X142584773Y-49674497D01*
X142310449Y-48301636D01*
X144075555Y-47948933D01*
X144349879Y-49321794D01*
X144349879Y-49321794D01*
G37*
G36*
X144996501Y-52557822D02*
X143231395Y-52910525D01*
X142957071Y-51537664D01*
X144722177Y-51184961D01*
X144996501Y-52557822D01*
X144996501Y-52557822D01*
G37*
G36*
X140289551Y-53498364D02*
X138524445Y-53851067D01*
X138250121Y-52478206D01*
X140015227Y-52125503D01*
X140289551Y-53498364D01*
X140289551Y-53498364D01*
G37*
G36*
X139642929Y-50262336D02*
X137877823Y-50615039D01*
X137603499Y-49242178D01*
X139368605Y-48889475D01*
X139642929Y-50262336D01*
X139642929Y-50262336D01*
G37*
G36*
X141760916Y-50654935D02*
X140780301Y-50850881D01*
X140682328Y-50360573D01*
X141662943Y-50164627D01*
X141760916Y-50654935D01*
X141760916Y-50654935D01*
G37*
G36*
X141917672Y-51439427D02*
X140937057Y-51635373D01*
X140839084Y-51145065D01*
X141819699Y-50949119D01*
X141917672Y-51439427D01*
X141917672Y-51439427D01*
G37*
G36*
X135485253Y-51259460D02*
X133822270Y-51948290D01*
X133286513Y-50654858D01*
X134949496Y-49966028D01*
X135485253Y-51259460D01*
X135485253Y-51259460D01*
G37*
G36*
X136748109Y-54308262D02*
X135085126Y-54997092D01*
X134549369Y-53703660D01*
X136212352Y-53014830D01*
X136748109Y-54308262D01*
X136748109Y-54308262D01*
G37*
G36*
X132313487Y-56145142D02*
X130650504Y-56833972D01*
X130114747Y-55540540D01*
X131777730Y-54851710D01*
X132313487Y-56145142D01*
X132313487Y-56145142D01*
G37*
G36*
X131050631Y-53096340D02*
X129387648Y-53785170D01*
X128851891Y-52491738D01*
X130514874Y-51802908D01*
X131050631Y-53096340D01*
X131050631Y-53096340D01*
G37*
G36*
X133204538Y-53070076D02*
X132280658Y-53452760D01*
X132089316Y-52990820D01*
X133013196Y-52608136D01*
X133204538Y-53070076D01*
X133204538Y-53070076D01*
G37*
G36*
X133510684Y-53809180D02*
X132586804Y-54191864D01*
X132395462Y-53729924D01*
X133319342Y-53347240D01*
X133510684Y-53809180D01*
X133510684Y-53809180D01*
G37*
G36*
X127213768Y-54974789D02*
X125717996Y-55976121D01*
X124939182Y-54812743D01*
X126434954Y-53811411D01*
X127213768Y-54974789D01*
X127213768Y-54974789D01*
G37*
G36*
X129049543Y-57717038D02*
X127553771Y-58718370D01*
X126774957Y-57554992D01*
X128270729Y-56553660D01*
X129049543Y-57717038D01*
X129049543Y-57717038D01*
G37*
G36*
X125060818Y-60387257D02*
X123565046Y-61388589D01*
X122786232Y-60225211D01*
X124282004Y-59223879D01*
X125060818Y-60387257D01*
X125060818Y-60387257D01*
G37*
G36*
X123225043Y-57645008D02*
X121729271Y-58646340D01*
X120950457Y-57482962D01*
X122446229Y-56481630D01*
X123225043Y-57645008D01*
X123225043Y-57645008D01*
G37*
G36*
X125332048Y-57197204D02*
X124501064Y-57753500D01*
X124222916Y-57338008D01*
X125053900Y-56781712D01*
X125332048Y-57197204D01*
X125332048Y-57197204D01*
G37*
G36*
X125777084Y-57861992D02*
X124946100Y-58418288D01*
X124667952Y-58002796D01*
X125498936Y-57446500D01*
X125777084Y-57861992D01*
X125777084Y-57861992D01*
G37*
G36*
X119811701Y-60194797D02*
X118538909Y-61467589D01*
X117548959Y-60477639D01*
X118821751Y-59204847D01*
X119811701Y-60194797D01*
X119811701Y-60194797D01*
G37*
G36*
X122145153Y-62528249D02*
X120872361Y-63801041D01*
X119882411Y-62811091D01*
X121155203Y-61538299D01*
X122145153Y-62528249D01*
X122145153Y-62528249D01*
G37*
G36*
X118751041Y-65922361D02*
X117478249Y-67195153D01*
X116488299Y-66205203D01*
X117761091Y-64932411D01*
X118751041Y-65922361D01*
X118751041Y-65922361D01*
G37*
G36*
X116417589Y-63588909D02*
X115144797Y-64861701D01*
X114154847Y-63871751D01*
X115427639Y-62598959D01*
X116417589Y-63588909D01*
X116417589Y-63588909D01*
G37*
G36*
X118397487Y-62740380D02*
X117690380Y-63447487D01*
X117336827Y-63093934D01*
X118043934Y-62386827D01*
X118397487Y-62740380D01*
X118397487Y-62740380D01*
G37*
G36*
X118963173Y-63306066D02*
X118256066Y-64013173D01*
X117902513Y-63659620D01*
X118609620Y-62952513D01*
X118963173Y-63306066D01*
X118963173Y-63306066D01*
G37*
G36*
X113590630Y-66777449D02*
X112591910Y-68274967D01*
X111427174Y-67498185D01*
X112425894Y-66000667D01*
X113590630Y-66777449D01*
X113590630Y-66777449D01*
G37*
G36*
X116336079Y-68608435D02*
X115337359Y-70105953D01*
X114172623Y-69329171D01*
X115171343Y-67831653D01*
X116336079Y-68608435D01*
X116336079Y-68608435D01*
G37*
G36*
X113672826Y-72601815D02*
X112674106Y-74099333D01*
X111509370Y-73322551D01*
X112508090Y-71825033D01*
X113672826Y-72601815D01*
X113672826Y-72601815D01*
G37*
G36*
X110927377Y-70770829D02*
X109928657Y-72268347D01*
X108763921Y-71491565D01*
X109762641Y-69994047D01*
X110927377Y-70770829D01*
X110927377Y-70770829D01*
G37*
G36*
X112702629Y-69550796D02*
X112147784Y-70382750D01*
X111731807Y-70105328D01*
X112286652Y-69273374D01*
X112702629Y-69550796D01*
X112702629Y-69550796D01*
G37*
G36*
X113368193Y-69994672D02*
X112813348Y-70826626D01*
X112397371Y-70549204D01*
X112952216Y-69717250D01*
X113368193Y-69994672D01*
X113368193Y-69994672D01*
G37*
G36*
X108785170Y-74387648D02*
X108096340Y-76050631D01*
X106802908Y-75514874D01*
X107491738Y-73851891D01*
X108785170Y-74387648D01*
X108785170Y-74387648D01*
G37*
G36*
X111833972Y-75650504D02*
X111145142Y-77313487D01*
X109851710Y-76777730D01*
X110540540Y-75114747D01*
X111833972Y-75650504D01*
X111833972Y-75650504D01*
G37*
G36*
X109997092Y-80085126D02*
X109308262Y-81748109D01*
X108014830Y-81212352D01*
X108703660Y-79549369D01*
X109997092Y-80085126D01*
X109997092Y-80085126D01*
G37*
G36*
X106948290Y-78822270D02*
X106259460Y-80485253D01*
X104966028Y-79949496D01*
X105654858Y-78286513D01*
X106948290Y-78822270D01*
X106948290Y-78822270D01*
G37*
G36*
X108452760Y-77280658D02*
X108070076Y-78204538D01*
X107608136Y-78013196D01*
X107990820Y-77089316D01*
X108452760Y-77280658D01*
X108452760Y-77280658D01*
G37*
G36*
X109191864Y-77586804D02*
X108809180Y-78510684D01*
X108347240Y-78319342D01*
X108729924Y-77395462D01*
X109191864Y-77586804D01*
X109191864Y-77586804D01*
G37*
G36*
X105559066Y-82828325D02*
X105209444Y-84594045D01*
X103836106Y-84322117D01*
X104185728Y-82556397D01*
X105559066Y-82828325D01*
X105559066Y-82828325D01*
G37*
G36*
X108796218Y-83469298D02*
X108446596Y-85235018D01*
X107073258Y-84963090D01*
X107422880Y-83197370D01*
X108796218Y-83469298D01*
X108796218Y-83469298D01*
G37*
G36*
X107863894Y-88177883D02*
X107514272Y-89943603D01*
X106140934Y-89671675D01*
X106490556Y-87905955D01*
X107863894Y-88177883D01*
X107863894Y-88177883D01*
G37*
G36*
X104626742Y-87536910D02*
X104277120Y-89302630D01*
X102903782Y-89030702D01*
X103253404Y-87264982D01*
X104626742Y-87536910D01*
X104626742Y-87536910D01*
G37*
G36*
X105799974Y-85730387D02*
X105605740Y-86711342D01*
X105115262Y-86614225D01*
X105309496Y-85633270D01*
X105799974Y-85730387D01*
X105799974Y-85730387D01*
G37*
G36*
X106584738Y-85885775D02*
X106390504Y-86866730D01*
X105900026Y-86769613D01*
X106094260Y-85788658D01*
X106584738Y-85885775D01*
X106584738Y-85885775D01*
G37*
D19*
X103350000Y-92600000D03*
X106650000Y-92600000D03*
X106650000Y-97400000D03*
X103350000Y-97400000D03*
D20*
X104600000Y-95000000D03*
X105400000Y-95000000D03*
D10*
G36*
X104271794Y-100700121D02*
X104624497Y-102465227D01*
X103251636Y-102739551D01*
X102898933Y-100974445D01*
X104271794Y-100700121D01*
X104271794Y-100700121D01*
G37*
G36*
X107507822Y-100053499D02*
X107860525Y-101818605D01*
X106487664Y-102092929D01*
X106134961Y-100327823D01*
X107507822Y-100053499D01*
X107507822Y-100053499D01*
G37*
G36*
X108448364Y-104760449D02*
X108801067Y-106525555D01*
X107428206Y-106799879D01*
X107075503Y-105034773D01*
X108448364Y-104760449D01*
X108448364Y-104760449D01*
G37*
G36*
X105212336Y-105407071D02*
X105565039Y-107172177D01*
X104192178Y-107446501D01*
X103839475Y-105681395D01*
X105212336Y-105407071D01*
X105212336Y-105407071D01*
G37*
G36*
X105604935Y-103289084D02*
X105800881Y-104269699D01*
X105310573Y-104367672D01*
X105114627Y-103387057D01*
X105604935Y-103289084D01*
X105604935Y-103289084D01*
G37*
G36*
X106389427Y-103132328D02*
X106585373Y-104112943D01*
X106095065Y-104210916D01*
X105899119Y-103230301D01*
X106389427Y-103132328D01*
X106389427Y-103132328D01*
G37*
G36*
X106309460Y-109614747D02*
X106998290Y-111277730D01*
X105704858Y-111813487D01*
X105016028Y-110150504D01*
X106309460Y-109614747D01*
X106309460Y-109614747D01*
G37*
G36*
X109358262Y-108351891D02*
X110047092Y-110014874D01*
X108753660Y-110550631D01*
X108064830Y-108887648D01*
X109358262Y-108351891D01*
X109358262Y-108351891D01*
G37*
G36*
X111195142Y-112786513D02*
X111883972Y-114449496D01*
X110590540Y-114985253D01*
X109901710Y-113322270D01*
X111195142Y-112786513D01*
X111195142Y-112786513D01*
G37*
G36*
X108146340Y-114049369D02*
X108835170Y-115712352D01*
X107541738Y-116248109D01*
X106852908Y-114585126D01*
X108146340Y-114049369D01*
X108146340Y-114049369D01*
G37*
G36*
X108120076Y-111895462D02*
X108502760Y-112819342D01*
X108040820Y-113010684D01*
X107658136Y-112086804D01*
X108120076Y-111895462D01*
X108120076Y-111895462D01*
G37*
G36*
X108859180Y-111589316D02*
X109241864Y-112513196D01*
X108779924Y-112704538D01*
X108397240Y-111780658D01*
X108859180Y-111589316D01*
X108859180Y-111589316D01*
G37*
G36*
X109924789Y-117736232D02*
X110926121Y-119232004D01*
X109762743Y-120010818D01*
X108761411Y-118515046D01*
X109924789Y-117736232D01*
X109924789Y-117736232D01*
G37*
G36*
X112667038Y-115900457D02*
X113668370Y-117396229D01*
X112504992Y-118175043D01*
X111503660Y-116679271D01*
X112667038Y-115900457D01*
X112667038Y-115900457D01*
G37*
G36*
X115337257Y-119889182D02*
X116338589Y-121384954D01*
X115175211Y-122163768D01*
X114173879Y-120667996D01*
X115337257Y-119889182D01*
X115337257Y-119889182D01*
G37*
G36*
X112595008Y-121724957D02*
X113596340Y-123220729D01*
X112432962Y-123999543D01*
X111431630Y-122503771D01*
X112595008Y-121724957D01*
X112595008Y-121724957D01*
G37*
G36*
X112147204Y-119617952D02*
X112703500Y-120448936D01*
X112288008Y-120727084D01*
X111731712Y-119896100D01*
X112147204Y-119617952D01*
X112147204Y-119617952D01*
G37*
G36*
X112811992Y-119172916D02*
X113368288Y-120003900D01*
X112952796Y-120282048D01*
X112396500Y-119451064D01*
X112811992Y-119172916D01*
X112811992Y-119172916D01*
G37*
G36*
X115194797Y-125188299D02*
X116467589Y-126461091D01*
X115477639Y-127451041D01*
X114204847Y-126178249D01*
X115194797Y-125188299D01*
X115194797Y-125188299D01*
G37*
G36*
X117528249Y-122854847D02*
X118801041Y-124127639D01*
X117811091Y-125117589D01*
X116538299Y-123844797D01*
X117528249Y-122854847D01*
X117528249Y-122854847D01*
G37*
G36*
X120922361Y-126248959D02*
X122195153Y-127521751D01*
X121205203Y-128511701D01*
X119932411Y-127238909D01*
X120922361Y-126248959D01*
X120922361Y-126248959D01*
G37*
G36*
X118588909Y-128582411D02*
X119861701Y-129855203D01*
X118871751Y-130845153D01*
X117598959Y-129572361D01*
X118588909Y-128582411D01*
X118588909Y-128582411D01*
G37*
G36*
X117740380Y-126602513D02*
X118447487Y-127309620D01*
X118093934Y-127663173D01*
X117386827Y-126956066D01*
X117740380Y-126602513D01*
X117740380Y-126602513D01*
G37*
G36*
X118306066Y-126036827D02*
X119013173Y-126743934D01*
X118659620Y-127097487D01*
X117952513Y-126390380D01*
X118306066Y-126036827D01*
X118306066Y-126036827D01*
G37*
G36*
X121677449Y-131359370D02*
X123174967Y-132358090D01*
X122398185Y-133522826D01*
X120900667Y-132524106D01*
X121677449Y-131359370D01*
X121677449Y-131359370D01*
G37*
G36*
X123508435Y-128613921D02*
X125005953Y-129612641D01*
X124229171Y-130777377D01*
X122731653Y-129778657D01*
X123508435Y-128613921D01*
X123508435Y-128613921D01*
G37*
G36*
X127501815Y-131277174D02*
X128999333Y-132275894D01*
X128222551Y-133440630D01*
X126725033Y-132441910D01*
X127501815Y-131277174D01*
X127501815Y-131277174D01*
G37*
G36*
X125670829Y-134022623D02*
X127168347Y-135021343D01*
X126391565Y-136186079D01*
X124894047Y-135187359D01*
X125670829Y-134022623D01*
X125670829Y-134022623D01*
G37*
G36*
X124450796Y-132247371D02*
X125282750Y-132802216D01*
X125005328Y-133218193D01*
X124173374Y-132663348D01*
X124450796Y-132247371D01*
X124450796Y-132247371D01*
G37*
G36*
X124894672Y-131581807D02*
X125726626Y-132136652D01*
X125449204Y-132552629D01*
X124617250Y-131997784D01*
X124894672Y-131581807D01*
X124894672Y-131581807D01*
G37*
G36*
X129387648Y-136214830D02*
X131050631Y-136903660D01*
X130514874Y-138197092D01*
X128851891Y-137508262D01*
X129387648Y-136214830D01*
X129387648Y-136214830D01*
G37*
G36*
X130650504Y-133166028D02*
X132313487Y-133854858D01*
X131777730Y-135148290D01*
X130114747Y-134459460D01*
X130650504Y-133166028D01*
X130650504Y-133166028D01*
G37*
G36*
X135085126Y-135002908D02*
X136748109Y-135691738D01*
X136212352Y-136985170D01*
X134549369Y-136296340D01*
X135085126Y-135002908D01*
X135085126Y-135002908D01*
G37*
G36*
X133822270Y-138051710D02*
X135485253Y-138740540D01*
X134949496Y-140033972D01*
X133286513Y-139345142D01*
X133822270Y-138051710D01*
X133822270Y-138051710D01*
G37*
G36*
X132280658Y-136547240D02*
X133204538Y-136929924D01*
X133013196Y-137391864D01*
X132089316Y-137009180D01*
X132280658Y-136547240D01*
X132280658Y-136547240D01*
G37*
G36*
X132586804Y-135808136D02*
X133510684Y-136190820D01*
X133319342Y-136652760D01*
X132395462Y-136270076D01*
X132586804Y-135808136D01*
X132586804Y-135808136D01*
G37*
G36*
X137728325Y-139440934D02*
X139494045Y-139790556D01*
X139222117Y-141163894D01*
X137456397Y-140814272D01*
X137728325Y-139440934D01*
X137728325Y-139440934D01*
G37*
G36*
X138369298Y-136203782D02*
X140135018Y-136553404D01*
X139863090Y-137926742D01*
X138097370Y-137577120D01*
X138369298Y-136203782D01*
X138369298Y-136203782D01*
G37*
G36*
X143077883Y-137136106D02*
X144843603Y-137485728D01*
X144571675Y-138859066D01*
X142805955Y-138509444D01*
X143077883Y-137136106D01*
X143077883Y-137136106D01*
G37*
G36*
X142436910Y-140373258D02*
X144202630Y-140722880D01*
X143930702Y-142096218D01*
X142164982Y-141746596D01*
X142436910Y-140373258D01*
X142436910Y-140373258D01*
G37*
G36*
X140630387Y-139200026D02*
X141611342Y-139394260D01*
X141514225Y-139884738D01*
X140533270Y-139690504D01*
X140630387Y-139200026D01*
X140630387Y-139200026D01*
G37*
G36*
X140785775Y-138415262D02*
X141766730Y-138609496D01*
X141669613Y-139099974D01*
X140688658Y-138905740D01*
X140785775Y-138415262D01*
X140785775Y-138415262D01*
G37*
D21*
X147600000Y-141650000D03*
X147600000Y-138350000D03*
X152400000Y-138350000D03*
X152400000Y-141650000D03*
D22*
X150000000Y-140400000D03*
X150000000Y-139600000D03*
D10*
G36*
X155658426Y-140694153D02*
X157421661Y-140332213D01*
X157703170Y-141703619D01*
X155939935Y-142065559D01*
X155658426Y-140694153D01*
X155658426Y-140694153D01*
G37*
G36*
X154994869Y-137461555D02*
X156758104Y-137099615D01*
X157039613Y-138471021D01*
X155276378Y-138832961D01*
X154994869Y-137461555D01*
X154994869Y-137461555D01*
G37*
G36*
X159696830Y-136496381D02*
X161460065Y-136134441D01*
X161741574Y-137505847D01*
X159978339Y-137867787D01*
X159696830Y-136496381D01*
X159696830Y-136496381D01*
G37*
G36*
X160360387Y-139728979D02*
X162123622Y-139367039D01*
X162405131Y-140738445D01*
X160641896Y-141100385D01*
X160360387Y-139728979D01*
X160360387Y-139728979D01*
G37*
G36*
X158240374Y-139347475D02*
X159219949Y-139146397D01*
X159320488Y-139636185D01*
X158340913Y-139837263D01*
X158240374Y-139347475D01*
X158240374Y-139347475D01*
G37*
G36*
X158079512Y-138563815D02*
X159059087Y-138362737D01*
X159159626Y-138852525D01*
X158180051Y-139053603D01*
X158079512Y-138563815D01*
X158079512Y-138563815D01*
G37*
G36*
X164525991Y-138754572D02*
X166185345Y-138057044D01*
X166727867Y-139347652D01*
X165068513Y-140045180D01*
X164525991Y-138754572D01*
X164525991Y-138754572D01*
G37*
G36*
X163247190Y-135712423D02*
X164906544Y-135014895D01*
X165449066Y-136305503D01*
X163789712Y-137003031D01*
X163247190Y-135712423D01*
X163247190Y-135712423D01*
G37*
G36*
X167672133Y-133852348D02*
X169331487Y-133154820D01*
X169874009Y-134445428D01*
X168214655Y-135142956D01*
X167672133Y-133852348D01*
X167672133Y-133852348D01*
G37*
G36*
X168950934Y-136894497D02*
X170610288Y-136196969D01*
X171152810Y-137487577D01*
X169493456Y-138185105D01*
X168950934Y-136894497D01*
X168950934Y-136894497D01*
G37*
G36*
X166797196Y-136932037D02*
X167719059Y-136544521D01*
X167912816Y-137005453D01*
X166990953Y-137392969D01*
X166797196Y-136932037D01*
X166797196Y-136932037D01*
G37*
G36*
X166487184Y-136194547D02*
X167409047Y-135807031D01*
X167602804Y-136267963D01*
X166680941Y-136655479D01*
X166487184Y-136194547D01*
X166487184Y-136194547D01*
G37*
G36*
X172695409Y-135132922D02*
X174187677Y-134126375D01*
X174970547Y-135287028D01*
X173478279Y-136293575D01*
X172695409Y-135132922D01*
X172695409Y-135132922D01*
G37*
G36*
X170850073Y-132397098D02*
X172342341Y-131390551D01*
X173125211Y-132551204D01*
X171632943Y-133557751D01*
X170850073Y-132397098D01*
X170850073Y-132397098D01*
G37*
G36*
X174829453Y-129712972D02*
X176321721Y-128706425D01*
X177104591Y-129867078D01*
X175612323Y-130873625D01*
X174829453Y-129712972D01*
X174829453Y-129712972D01*
G37*
G36*
X176674789Y-132448796D02*
X178167057Y-131442249D01*
X178949927Y-132602902D01*
X177457659Y-133609449D01*
X176674789Y-132448796D01*
X176674789Y-132448796D01*
G37*
G36*
X174569360Y-132903952D02*
X175398398Y-132344759D01*
X175677994Y-132759278D01*
X174848956Y-133318471D01*
X174569360Y-132903952D01*
X174569360Y-132903952D01*
G37*
G36*
X174122006Y-132240722D02*
X174951044Y-131681529D01*
X175230640Y-132096048D01*
X174401602Y-132655241D01*
X174122006Y-132240722D01*
X174122006Y-132240722D01*
G37*
G36*
X180143547Y-129808100D02*
X181414116Y-128533088D01*
X182405791Y-129521308D01*
X181135222Y-130796320D01*
X180143547Y-129808100D01*
X180143547Y-129808100D01*
G37*
G36*
X177806025Y-127478724D02*
X179076594Y-126203712D01*
X180068269Y-127191932D01*
X178797700Y-128466944D01*
X177806025Y-127478724D01*
X177806025Y-127478724D01*
G37*
G36*
X181194209Y-124078692D02*
X182464778Y-122803680D01*
X183456453Y-123791900D01*
X182185884Y-125066912D01*
X181194209Y-124078692D01*
X181194209Y-124078692D01*
G37*
G36*
X183531731Y-126408068D02*
X184802300Y-125133056D01*
X185793975Y-126121276D01*
X184523406Y-127396288D01*
X183531731Y-126408068D01*
X183531731Y-126408068D01*
G37*
G36*
X181553315Y-127260051D02*
X182259187Y-126551711D01*
X182613357Y-126904647D01*
X181907485Y-127612987D01*
X181553315Y-127260051D01*
X181553315Y-127260051D01*
G37*
G36*
X180986643Y-126695353D02*
X181692515Y-125987013D01*
X182046685Y-126339949D01*
X181340813Y-127048289D01*
X180986643Y-126695353D01*
X180986643Y-126695353D01*
G37*
G36*
X186359370Y-123272551D02*
X187358090Y-121775033D01*
X188522826Y-122551815D01*
X187524106Y-124049333D01*
X186359370Y-123272551D01*
X186359370Y-123272551D01*
G37*
G36*
X183613921Y-121441565D02*
X184612641Y-119944047D01*
X185777377Y-120720829D01*
X184778657Y-122218347D01*
X183613921Y-121441565D01*
X183613921Y-121441565D01*
G37*
G36*
X186277174Y-117448185D02*
X187275894Y-115950667D01*
X188440630Y-116727449D01*
X187441910Y-118224967D01*
X186277174Y-117448185D01*
X186277174Y-117448185D01*
G37*
G36*
X189022623Y-119279171D02*
X190021343Y-117781653D01*
X191186079Y-118558435D01*
X190187359Y-120055953D01*
X189022623Y-119279171D01*
X189022623Y-119279171D01*
G37*
G36*
X187247371Y-120499204D02*
X187802216Y-119667250D01*
X188218193Y-119944672D01*
X187663348Y-120776626D01*
X187247371Y-120499204D01*
X187247371Y-120499204D01*
G37*
G36*
X186581807Y-120055328D02*
X187136652Y-119223374D01*
X187552629Y-119500796D01*
X186997784Y-120332750D01*
X186581807Y-120055328D01*
X186581807Y-120055328D01*
G37*
G36*
X191214830Y-115612352D02*
X191903660Y-113949369D01*
X193197092Y-114485126D01*
X192508262Y-116148109D01*
X191214830Y-115612352D01*
X191214830Y-115612352D01*
G37*
G36*
X188166028Y-114349496D02*
X188854858Y-112686513D01*
X190148290Y-113222270D01*
X189459460Y-114885253D01*
X188166028Y-114349496D01*
X188166028Y-114349496D01*
G37*
G36*
X190002908Y-109914874D02*
X190691738Y-108251891D01*
X191985170Y-108787648D01*
X191296340Y-110450631D01*
X190002908Y-109914874D01*
X190002908Y-109914874D01*
G37*
G36*
X193051710Y-111177730D02*
X193740540Y-109514747D01*
X195033972Y-110050504D01*
X194345142Y-111713487D01*
X193051710Y-111177730D01*
X193051710Y-111177730D01*
G37*
G36*
X191547240Y-112719342D02*
X191929924Y-111795462D01*
X192391864Y-111986804D01*
X192009180Y-112910684D01*
X191547240Y-112719342D01*
X191547240Y-112719342D01*
G37*
G36*
X190808136Y-112413196D02*
X191190820Y-111489316D01*
X191652760Y-111680658D01*
X191270076Y-112604538D01*
X190808136Y-112413196D01*
X190808136Y-112413196D01*
G37*
G36*
X194384961Y-107322177D02*
X194737664Y-105557071D01*
X196110525Y-105831395D01*
X195757822Y-107596501D01*
X194384961Y-107322177D01*
X194384961Y-107322177D01*
G37*
G36*
X191148933Y-106675555D02*
X191501636Y-104910449D01*
X192874497Y-105184773D01*
X192521794Y-106949879D01*
X191148933Y-106675555D01*
X191148933Y-106675555D01*
G37*
G36*
X192089475Y-101968605D02*
X192442178Y-100203499D01*
X193815039Y-100477823D01*
X193462336Y-102242929D01*
X192089475Y-101968605D01*
X192089475Y-101968605D01*
G37*
G36*
X195325503Y-102615227D02*
X195678206Y-100850121D01*
X197051067Y-101124445D01*
X196698364Y-102889551D01*
X195325503Y-102615227D01*
X195325503Y-102615227D01*
G37*
G36*
X194149119Y-104419699D02*
X194345065Y-103439084D01*
X194835373Y-103537057D01*
X194639427Y-104517672D01*
X194149119Y-104419699D01*
X194149119Y-104419699D01*
G37*
G36*
X193364627Y-104262943D02*
X193560573Y-103282328D01*
X194050881Y-103380301D01*
X193854935Y-104360916D01*
X193364627Y-104262943D01*
X193364627Y-104262943D01*
G37*
D19*
X196650000Y-97400000D03*
X193350000Y-97400000D03*
X193350000Y-92600000D03*
X196650000Y-92600000D03*
D20*
X195400000Y-95000000D03*
X194600000Y-95000000D03*
D10*
G36*
X195672880Y-89252630D02*
X195323258Y-87486910D01*
X196696596Y-87214982D01*
X197046218Y-88980702D01*
X195672880Y-89252630D01*
X195672880Y-89252630D01*
G37*
G36*
X192435728Y-89893603D02*
X192086106Y-88127883D01*
X193459444Y-87855955D01*
X193809066Y-89621675D01*
X192435728Y-89893603D01*
X192435728Y-89893603D01*
G37*
G36*
X191503404Y-85185018D02*
X191153782Y-83419298D01*
X192527120Y-83147370D01*
X192876742Y-84913090D01*
X191503404Y-85185018D01*
X191503404Y-85185018D01*
G37*
G36*
X194740556Y-84544045D02*
X194390934Y-82778325D01*
X195764272Y-82506397D01*
X196113894Y-84272117D01*
X194740556Y-84544045D01*
X194740556Y-84544045D01*
G37*
G36*
X194344260Y-86661342D02*
X194150026Y-85680387D01*
X194640504Y-85583270D01*
X194834738Y-86564225D01*
X194344260Y-86661342D01*
X194344260Y-86661342D01*
G37*
G36*
X193559496Y-86816730D02*
X193365262Y-85835775D01*
X193855740Y-85738658D01*
X194049974Y-86719613D01*
X193559496Y-86816730D01*
X193559496Y-86816730D01*
G37*
G36*
X193735851Y-80488985D02*
X193049924Y-78824802D01*
X194344289Y-78291303D01*
X195030216Y-79955486D01*
X193735851Y-80488985D01*
X193735851Y-80488985D01*
G37*
G36*
X190684849Y-81746518D02*
X189998922Y-80082335D01*
X191293287Y-79548836D01*
X191979214Y-81213019D01*
X190684849Y-81746518D01*
X190684849Y-81746518D01*
G37*
G36*
X188855711Y-77308697D02*
X188169784Y-75644514D01*
X189464149Y-75111015D01*
X190150076Y-76775198D01*
X188855711Y-77308697D01*
X188855711Y-77308697D01*
G37*
G36*
X191906713Y-76051164D02*
X191220786Y-74386981D01*
X192515151Y-73853482D01*
X193201078Y-75517665D01*
X191906713Y-76051164D01*
X191906713Y-76051164D01*
G37*
G36*
X191929217Y-78205113D02*
X191548146Y-77280567D01*
X192010419Y-77090031D01*
X192391490Y-78014577D01*
X191929217Y-78205113D01*
X191929217Y-78205113D01*
G37*
G36*
X191189581Y-78509969D02*
X190808510Y-77585423D01*
X191270783Y-77394887D01*
X191651854Y-78319433D01*
X191189581Y-78509969D01*
X191189581Y-78509969D01*
G37*
G36*
X190025211Y-72213768D02*
X189023879Y-70717996D01*
X190187257Y-69939182D01*
X191188589Y-71434954D01*
X190025211Y-72213768D01*
X190025211Y-72213768D01*
G37*
G36*
X187282962Y-74049543D02*
X186281630Y-72553771D01*
X187445008Y-71774957D01*
X188446340Y-73270729D01*
X187282962Y-74049543D01*
X187282962Y-74049543D01*
G37*
G36*
X184612743Y-70060818D02*
X183611411Y-68565046D01*
X184774789Y-67786232D01*
X185776121Y-69282004D01*
X184612743Y-70060818D01*
X184612743Y-70060818D01*
G37*
G36*
X187354992Y-68225043D02*
X186353660Y-66729271D01*
X187517038Y-65950457D01*
X188518370Y-67446229D01*
X187354992Y-68225043D01*
X187354992Y-68225043D01*
G37*
G36*
X187802796Y-70332048D02*
X187246500Y-69501064D01*
X187661992Y-69222916D01*
X188218288Y-70053900D01*
X187802796Y-70332048D01*
X187802796Y-70332048D01*
G37*
G36*
X187138008Y-70777084D02*
X186581712Y-69946100D01*
X186997204Y-69667952D01*
X187553500Y-70498936D01*
X187138008Y-70777084D01*
X187138008Y-70777084D01*
G37*
G36*
X184805203Y-64861701D02*
X183532411Y-63588909D01*
X184522361Y-62598959D01*
X185795153Y-63871751D01*
X184805203Y-64861701D01*
X184805203Y-64861701D01*
G37*
G36*
X182471751Y-67195153D02*
X181198959Y-65922361D01*
X182188909Y-64932411D01*
X183461701Y-66205203D01*
X182471751Y-67195153D01*
X182471751Y-67195153D01*
G37*
G36*
X179077639Y-63801041D02*
X177804847Y-62528249D01*
X178794797Y-61538299D01*
X180067589Y-62811091D01*
X179077639Y-63801041D01*
X179077639Y-63801041D01*
G37*
G36*
X181411091Y-61467589D02*
X180138299Y-60194797D01*
X181128249Y-59204847D01*
X182401041Y-60477639D01*
X181411091Y-61467589D01*
X181411091Y-61467589D01*
G37*
G36*
X182259620Y-63447487D02*
X181552513Y-62740380D01*
X181906066Y-62386827D01*
X182613173Y-63093934D01*
X182259620Y-63447487D01*
X182259620Y-63447487D01*
G37*
G36*
X181693934Y-64013173D02*
X180986827Y-63306066D01*
X181340380Y-62952513D01*
X182047487Y-63659620D01*
X181693934Y-64013173D01*
X181693934Y-64013173D01*
G37*
G36*
X178270729Y-58646340D02*
X176774957Y-57645008D01*
X177553771Y-56481630D01*
X179049543Y-57482962D01*
X178270729Y-58646340D01*
X178270729Y-58646340D01*
G37*
G36*
X176434954Y-61388589D02*
X174939182Y-60387257D01*
X175717996Y-59223879D01*
X177213768Y-60225211D01*
X176434954Y-61388589D01*
X176434954Y-61388589D01*
G37*
G36*
X172446229Y-58718370D02*
X170950457Y-57717038D01*
X171729271Y-56553660D01*
X173225043Y-57554992D01*
X172446229Y-58718370D01*
X172446229Y-58718370D01*
G37*
G36*
X174282004Y-55976121D02*
X172786232Y-54974789D01*
X173565046Y-53811411D01*
X175060818Y-54812743D01*
X174282004Y-55976121D01*
X174282004Y-55976121D01*
G37*
G36*
X175498936Y-57753500D02*
X174667952Y-57197204D01*
X174946100Y-56781712D01*
X175777084Y-57338008D01*
X175498936Y-57753500D01*
X175498936Y-57753500D01*
G37*
G36*
X175053900Y-58418288D02*
X174222916Y-57861992D01*
X174501064Y-57446500D01*
X175332048Y-58002796D01*
X175053900Y-58418288D01*
X175053900Y-58418288D01*
G37*
G36*
X170612352Y-53785170D02*
X168949369Y-53096340D01*
X169485126Y-51802908D01*
X171148109Y-52491738D01*
X170612352Y-53785170D01*
X170612352Y-53785170D01*
G37*
G36*
X169349496Y-56833972D02*
X167686513Y-56145142D01*
X168222270Y-54851710D01*
X169885253Y-55540540D01*
X169349496Y-56833972D01*
X169349496Y-56833972D01*
G37*
G36*
X164914874Y-54997092D02*
X163251891Y-54308262D01*
X163787648Y-53014830D01*
X165450631Y-53703660D01*
X164914874Y-54997092D01*
X164914874Y-54997092D01*
G37*
G36*
X166177730Y-51948290D02*
X164514747Y-51259460D01*
X165050504Y-49966028D01*
X166713487Y-50654858D01*
X166177730Y-51948290D01*
X166177730Y-51948290D01*
G37*
G36*
X167719342Y-53452760D02*
X166795462Y-53070076D01*
X166986804Y-52608136D01*
X167910684Y-52990820D01*
X167719342Y-53452760D01*
X167719342Y-53452760D01*
G37*
G36*
X167413196Y-54191864D02*
X166489316Y-53809180D01*
X166680658Y-53347240D01*
X167604538Y-53729924D01*
X167413196Y-54191864D01*
X167413196Y-54191864D01*
G37*
G36*
X162222177Y-50615039D02*
X160457071Y-50262336D01*
X160731395Y-48889475D01*
X162496501Y-49242178D01*
X162222177Y-50615039D01*
X162222177Y-50615039D01*
G37*
G36*
X161575555Y-53851067D02*
X159810449Y-53498364D01*
X160084773Y-52125503D01*
X161849879Y-52478206D01*
X161575555Y-53851067D01*
X161575555Y-53851067D01*
G37*
G36*
X156868605Y-52910525D02*
X155103499Y-52557822D01*
X155377823Y-51184961D01*
X157142929Y-51537664D01*
X156868605Y-52910525D01*
X156868605Y-52910525D01*
G37*
G36*
X157515227Y-49674497D02*
X155750121Y-49321794D01*
X156024445Y-47948933D01*
X157789551Y-48301636D01*
X157515227Y-49674497D01*
X157515227Y-49674497D01*
G37*
G36*
X159319699Y-50850881D02*
X158339084Y-50654935D01*
X158437057Y-50164627D01*
X159417672Y-50360573D01*
X159319699Y-50850881D01*
X159319699Y-50850881D01*
G37*
G36*
X159162943Y-51635373D02*
X158182328Y-51439427D01*
X158280301Y-50949119D01*
X159260916Y-51145065D01*
X159162943Y-51635373D01*
X159162943Y-51635373D01*
G37*
D21*
X152400000Y-48350000D03*
X152400000Y-51650000D03*
X147600000Y-51650000D03*
X147600000Y-48350000D03*
D22*
X150000000Y-49600000D03*
X150000000Y-50400000D03*
D23*
X144550000Y-65248360D03*
X144550000Y-63551640D03*
X155450000Y-63551640D03*
X155450000Y-65248360D03*
D10*
G36*
X135576918Y-66976037D02*
X138273300Y-65660923D01*
X138536322Y-66200199D01*
X135839940Y-67515313D01*
X135576918Y-66976037D01*
X135576918Y-66976037D01*
G37*
G36*
X135971452Y-67784952D02*
X138667834Y-66469838D01*
X138930856Y-67009114D01*
X136234474Y-68324228D01*
X135971452Y-67784952D01*
X135971452Y-67784952D01*
G37*
G36*
X137823903Y-65880108D02*
X138273300Y-65660923D01*
X138930857Y-67009114D01*
X138481460Y-67228299D01*
X137823903Y-65880108D01*
X137823903Y-65880108D01*
G37*
G36*
X140178222Y-66144835D02*
X140627619Y-65925650D01*
X141285176Y-67273841D01*
X140835779Y-67493026D01*
X140178222Y-66144835D01*
X140178222Y-66144835D01*
G37*
G36*
X139064760Y-63861898D02*
X139514157Y-63642713D01*
X140171714Y-64990904D01*
X139722317Y-65210089D01*
X139064760Y-63861898D01*
X139064760Y-63861898D01*
G37*
G36*
X136710440Y-63597172D02*
X137159837Y-63377987D01*
X137817394Y-64726178D01*
X137367997Y-64945363D01*
X136710440Y-63597172D01*
X136710440Y-63597172D01*
G37*
G36*
X140178223Y-66144835D02*
X142874605Y-64829721D01*
X143137627Y-65368997D01*
X140441245Y-66684111D01*
X140178223Y-66144835D01*
X140178223Y-66144835D01*
G37*
G36*
X140572757Y-66953750D02*
X143269139Y-65638636D01*
X143532161Y-66177912D01*
X140835779Y-67493026D01*
X140572757Y-66953750D01*
X140572757Y-66953750D01*
G37*
G36*
X134463455Y-64693100D02*
X137159837Y-63377986D01*
X137422859Y-63917262D01*
X134726477Y-65232376D01*
X134463455Y-64693100D01*
X134463455Y-64693100D01*
G37*
G36*
X134857990Y-65502015D02*
X137554372Y-64186901D01*
X137817394Y-64726177D01*
X135121012Y-66041291D01*
X134857990Y-65502015D01*
X134857990Y-65502015D01*
G37*
G36*
X139064760Y-63861898D02*
X141761142Y-62546784D01*
X142024164Y-63086060D01*
X139327782Y-64401174D01*
X139064760Y-63861898D01*
X139064760Y-63861898D01*
G37*
G36*
X139459294Y-64670813D02*
X142155676Y-63355699D01*
X142418698Y-63894975D01*
X139722316Y-65210089D01*
X139459294Y-64670813D01*
X139459294Y-64670813D01*
G37*
G36*
X137594711Y-65991893D02*
X138268806Y-65663115D01*
X138531829Y-66202391D01*
X137857734Y-66531169D01*
X137594711Y-65991893D01*
X137594711Y-65991893D01*
G37*
G36*
X137989245Y-66800808D02*
X138663340Y-66472030D01*
X138926363Y-67011306D01*
X138252268Y-67340084D01*
X137989245Y-66800808D01*
X137989245Y-66800808D01*
G37*
G36*
X140577250Y-66951558D02*
X141251345Y-66622780D01*
X141514368Y-67162056D01*
X140840273Y-67490834D01*
X140577250Y-66951558D01*
X140577250Y-66951558D01*
G37*
G36*
X140182716Y-66142643D02*
X140856811Y-65813865D01*
X141119834Y-66353141D01*
X140445739Y-66681919D01*
X140182716Y-66142643D01*
X140182716Y-66142643D01*
G37*
G36*
X136875782Y-64517871D02*
X137549877Y-64189093D01*
X137812900Y-64728369D01*
X137138805Y-65057147D01*
X136875782Y-64517871D01*
X136875782Y-64517871D01*
G37*
G36*
X136481248Y-63708956D02*
X137155343Y-63380178D01*
X137418366Y-63919454D01*
X136744271Y-64248232D01*
X136481248Y-63708956D01*
X136481248Y-63708956D01*
G37*
G36*
X139463788Y-64668621D02*
X140137883Y-64339843D01*
X140400906Y-64879119D01*
X139726811Y-65207897D01*
X139463788Y-64668621D01*
X139463788Y-64668621D01*
G37*
G36*
X139069254Y-63859706D02*
X139743349Y-63530928D01*
X140006372Y-64070204D01*
X139332277Y-64398982D01*
X139069254Y-63859706D01*
X139069254Y-63859706D01*
G37*
G36*
X134463456Y-64693099D02*
X137159838Y-63377986D01*
X137817394Y-64726177D01*
X135121012Y-66041290D01*
X134463456Y-64693099D01*
X134463456Y-64693099D01*
G37*
G36*
X135576918Y-66976036D02*
X138273300Y-65660923D01*
X138930856Y-67009114D01*
X136234474Y-68324227D01*
X135576918Y-66976036D01*
X135576918Y-66976036D01*
G37*
G36*
X139064760Y-63861898D02*
X141761142Y-62546785D01*
X142418698Y-63894976D01*
X139722316Y-65210089D01*
X139064760Y-63861898D01*
X139064760Y-63861898D01*
G37*
G36*
X140178223Y-66144835D02*
X142874605Y-64829722D01*
X143532161Y-66177913D01*
X140835779Y-67493026D01*
X140178223Y-66144835D01*
X140178223Y-66144835D01*
G37*
G36*
X157892127Y-63688253D02*
X160588509Y-65003367D01*
X160325487Y-65542643D01*
X157629105Y-64227529D01*
X157892127Y-63688253D01*
X157892127Y-63688253D01*
G37*
G36*
X157497593Y-64497167D02*
X160193975Y-65812281D01*
X159930953Y-66351557D01*
X157234571Y-65036443D01*
X157497593Y-64497167D01*
X157497593Y-64497167D01*
G37*
G36*
X160139112Y-64784181D02*
X160588509Y-65003366D01*
X159930952Y-66351557D01*
X159481555Y-66132372D01*
X160139112Y-64784181D01*
X160139112Y-64784181D01*
G37*
G36*
X161379969Y-66802392D02*
X161829366Y-67021577D01*
X161171809Y-68369768D01*
X160722412Y-68150583D01*
X161379969Y-66802392D01*
X161379969Y-66802392D01*
G37*
G36*
X162493432Y-64519455D02*
X162942829Y-64738640D01*
X162285272Y-66086831D01*
X161835875Y-65867646D01*
X162493432Y-64519455D01*
X162493432Y-64519455D01*
G37*
G36*
X161252575Y-62501244D02*
X161701972Y-62720429D01*
X161044415Y-64068620D01*
X160595018Y-63849435D01*
X161252575Y-62501244D01*
X161252575Y-62501244D01*
G37*
G36*
X161379968Y-66802391D02*
X164076350Y-68117505D01*
X163813328Y-68656781D01*
X161116946Y-67341667D01*
X161379968Y-66802391D01*
X161379968Y-66802391D01*
G37*
G36*
X160985434Y-67611306D02*
X163681816Y-68926420D01*
X163418794Y-69465696D01*
X160722412Y-68150582D01*
X160985434Y-67611306D01*
X160985434Y-67611306D01*
G37*
G36*
X159005589Y-61405316D02*
X161701971Y-62720430D01*
X161438949Y-63259706D01*
X158742567Y-61944592D01*
X159005589Y-61405316D01*
X159005589Y-61405316D01*
G37*
G36*
X158611055Y-62214231D02*
X161307437Y-63529345D01*
X161044415Y-64068621D01*
X158348033Y-62753507D01*
X158611055Y-62214231D01*
X158611055Y-62214231D01*
G37*
G36*
X162493431Y-64519455D02*
X165189813Y-65834569D01*
X164926791Y-66373845D01*
X162230409Y-65058731D01*
X162493431Y-64519455D01*
X162493431Y-64519455D01*
G37*
G36*
X162098897Y-65328369D02*
X164795279Y-66643483D01*
X164532257Y-67182759D01*
X161835875Y-65867645D01*
X162098897Y-65328369D01*
X162098897Y-65328369D01*
G37*
G36*
X159909920Y-64672397D02*
X160584015Y-65001175D01*
X160320992Y-65540451D01*
X159646897Y-65211673D01*
X159909920Y-64672397D01*
X159909920Y-64672397D01*
G37*
G36*
X159515386Y-65481311D02*
X160189481Y-65810089D01*
X159926458Y-66349365D01*
X159252363Y-66020587D01*
X159515386Y-65481311D01*
X159515386Y-65481311D01*
G37*
G36*
X160989929Y-67613498D02*
X161664024Y-67942276D01*
X161401001Y-68481552D01*
X160726906Y-68152774D01*
X160989929Y-67613498D01*
X160989929Y-67613498D01*
G37*
G36*
X161384463Y-66804584D02*
X162058558Y-67133362D01*
X161795535Y-67672638D01*
X161121440Y-67343860D01*
X161384463Y-66804584D01*
X161384463Y-66804584D01*
G37*
G36*
X160628849Y-63198374D02*
X161302944Y-63527152D01*
X161039921Y-64066428D01*
X160365826Y-63737650D01*
X160628849Y-63198374D01*
X160628849Y-63198374D01*
G37*
G36*
X161023383Y-62389460D02*
X161697478Y-62718238D01*
X161434455Y-63257514D01*
X160760360Y-62928736D01*
X161023383Y-62389460D01*
X161023383Y-62389460D01*
G37*
G36*
X162103392Y-65330562D02*
X162777487Y-65659340D01*
X162514464Y-66198616D01*
X161840369Y-65869838D01*
X162103392Y-65330562D01*
X162103392Y-65330562D01*
G37*
G36*
X162497926Y-64521647D02*
X163172021Y-64850425D01*
X162908998Y-65389701D01*
X162234903Y-65060923D01*
X162497926Y-64521647D01*
X162497926Y-64521647D01*
G37*
G36*
X159005589Y-61405316D02*
X161701971Y-62720429D01*
X161044415Y-64068620D01*
X158348033Y-62753507D01*
X159005589Y-61405316D01*
X159005589Y-61405316D01*
G37*
G36*
X157892127Y-63688253D02*
X160588509Y-65003366D01*
X159930953Y-66351557D01*
X157234571Y-65036444D01*
X157892127Y-63688253D01*
X157892127Y-63688253D01*
G37*
G36*
X162493431Y-64519455D02*
X165189813Y-65834568D01*
X164532257Y-67182759D01*
X161835875Y-65867646D01*
X162493431Y-64519455D01*
X162493431Y-64519455D01*
G37*
G36*
X161379968Y-66802392D02*
X164076350Y-68117505D01*
X163418794Y-69465696D01*
X160722412Y-68150583D01*
X161379968Y-66802392D01*
X161379968Y-66802392D01*
G37*
D24*
X152788360Y-122100000D03*
X151091640Y-122100000D03*
X147281640Y-122110000D03*
X148978360Y-122110000D03*
M02*
