M48
INCH,TZ
T1C0.012
T2C0.040
T3C0.047
T4C0.118
%
G90
G05
T1
X4.0394Y-3.9232
X4.0433Y-3.563
X4.1102Y-3.1929
X4.1181Y-4.2835
X4.1339Y-3.8386
X4.1496Y-3.4843
X4.185Y-4.1772
X4.2323Y-3.1535
X4.252Y-2.8543
X4.2559Y-4.626
X4.3071Y-4.5079
X4.3307Y-3.8445
X4.3327Y-3.6358
X4.3386Y-3.5374
X4.3406Y-3.9449
X4.374Y-2.8386
X4.3799Y-3.3327
X4.3819Y-4.1496
X4.4094Y-4.248
X4.4114Y-3.2343
X4.4528Y-4.9252
X4.4567Y-2.5551
X4.4843Y-4.8031
X4.4902Y-3.0413
X4.4921Y-4.4409
X4.5374Y-4.5256
X4.5394Y-2.9547
X4.5866Y-2.5551
X4.6535Y-2.7795
X4.6535Y-4.7008
X4.7165Y-4.7815
X4.7165Y-5.189
X4.7185Y-2.7008
X4.7205Y-2.2835
X4.7205Y-5.063
X4.8425Y-2.3228
X4.8642Y-2.5512
X4.8661Y-4.9291
X4.9409Y-2.4941
X4.9429Y-4.9882
X5.0039Y-5.2677
X5.0157Y-2.0866
X5.0236Y-5.3858
X5.1122Y-2.374
X5.1161Y-5.1083
X5.1378Y-2.1417
X5.2047Y-5.1555
X5.2067Y-2.3268
X5.3189Y-5.4173
X5.3425Y-2.5118
X5.3622Y-1.9449
X5.3622Y-5.5315
X5.3996Y-2.2421
X5.3996Y-5.2362
X5.4685Y-2.0236
X5.4803Y-2.3346
X5.4941Y-2.2146
X5.4941Y-5.2638
X5.6429Y-4.8402
X5.6535Y-5.5039
X5.6811Y-2.6024
X5.6988Y-5.3031
X5.7008Y-2.1713
X5.7205Y-1.8701
X5.7205Y-5.5984
X5.7551Y-2.1969
X5.7756Y-2.6339
X5.7992Y-2.1654
X5.8012Y-5.315
X5.811Y-1.9673
X5.8362Y-2.4051
X5.8399Y-2.4369
X5.9185Y-2.4047
X6.0039Y-5.5197
X6.0098Y-2.1654
X6.0098Y-5.315
X6.0866Y-1.878
X6.0906Y-5.6063
X6.1102Y-2.1772
X6.1102Y-5.3051
X6.1535Y-1.9882
X6.1594Y-4.7654
X6.315Y-2.2165
X6.315Y-5.2618
X6.3425Y-5.4606
X6.4094Y-2.2421
X6.4114Y-5.2362
X6.4488Y-1.9528
X6.4488Y-5.5354
X6.4685Y-2.0669
X6.6043Y-2.3248
X6.6043Y-5.1516
X6.6732Y-5.3465
X6.687Y-5.1102
X6.6969Y-2.372
X6.7835Y-2.0945
X6.7874Y-5.3976
X6.7953Y-2.2087
X6.8602Y-4.9882
X6.8701Y-2.4902
X6.9449Y-2.5531
X6.9469Y-4.9291
X6.9685Y-5.1654
X7.0827Y-2.4291
X7.0906Y-2.2992
X7.0906Y-5.189
X7.0925Y-4.7776
X7.0945Y-2.6988
X7.1555Y-2.7776
X7.1594Y-4.7008
X7.2283Y-4.9213
X7.2717Y-2.9508
X7.2736Y-4.5276
X7.3189Y-3.0413
X7.3209Y-4.439
X7.3228Y-2.685
X7.3504Y-4.9213
X7.3543Y-2.5551
X7.3996Y-4.2461
X7.4016Y-3.2343
X7.4272Y-4.1516
X7.4291Y-4.6417
X7.4311Y-3.3307
X7.4685Y-3.9469
X7.4724Y-3.5354
X7.4803Y-3.6358
X7.4803Y-3.8445
X7.5Y-2.9803
X7.5551Y-4.622
X7.5591Y-2.8583
X7.5787Y-4.3268
X7.6181Y-3.3031
X7.6575Y-3.9961
X7.6732Y-3.6496
X7.6929Y-3.2008
X7.7008Y-4.2874
X7.7638Y-3.5591
X7.7677Y-3.9252
T2
X5.6555Y-2.3358
X5.7555Y-2.3358
X5.8555Y-2.3358
X5.9555Y-2.3358
X6.0555Y-2.3358
X6.1555Y-2.3358
T3
X5.7055Y-5.124
X6.1055Y-5.124
T4
X5.8228Y-5.1154
X5.9705Y-5.137
T0
M30
