G04 #@! TF.FileFunction,Legend,Bot*
%FSLAX46Y46*%
G04 Gerber Fmt 4.6, Leading zero omitted, Abs format (unit mm)*
G04 Created by KiCad (PCBNEW (2015-03-12 BZR 5508)-product) date Thu 12 Mar 2015 10:16:38 PM CET*
%MOMM*%
G01*
G04 APERTURE LIST*
%ADD10C,0.100000*%
%ADD11C,0.250000*%
%ADD12C,0.150000*%
%ADD13C,0.200000*%
%ADD14R,2.082800X3.708400*%
%ADD15R,2.082800X1.066800*%
%ADD16R,1.300000X1.300000*%
%ADD17R,1.348740X1.549400*%
%ADD18R,1.700800X1.700800*%
%ADD19C,1.700800*%
%ADD20R,1.701800X1.701800*%
%ADD21C,1.701800*%
G04 APERTURE END LIST*
D10*
D11*
X166566667Y-101359524D02*
X166566667Y-101835715D01*
X166852381Y-101264286D02*
X165852381Y-101597619D01*
X166852381Y-101930953D01*
X166852381Y-102264286D02*
X165852381Y-102264286D01*
X166566667Y-102597620D01*
X165852381Y-102930953D01*
X166852381Y-102930953D01*
X166804762Y-103359524D02*
X166852381Y-103502381D01*
X166852381Y-103740477D01*
X166804762Y-103835715D01*
X166757143Y-103883334D01*
X166661905Y-103930953D01*
X166566667Y-103930953D01*
X166471429Y-103883334D01*
X166423810Y-103835715D01*
X166376190Y-103740477D01*
X166328571Y-103550000D01*
X166280952Y-103454762D01*
X166233333Y-103407143D01*
X166138095Y-103359524D01*
X166042857Y-103359524D01*
X165947619Y-103407143D01*
X165900000Y-103454762D01*
X165852381Y-103550000D01*
X165852381Y-103788096D01*
X165900000Y-103930953D01*
X166852381Y-104883334D02*
X166852381Y-104311905D01*
X166852381Y-104597619D02*
X165852381Y-104597619D01*
X165995238Y-104502381D01*
X166090476Y-104407143D01*
X166138095Y-104311905D01*
X166852381Y-105835715D02*
X166852381Y-105264286D01*
X166852381Y-105550000D02*
X165852381Y-105550000D01*
X165995238Y-105454762D01*
X166090476Y-105359524D01*
X166138095Y-105264286D01*
X166852381Y-106788096D02*
X166852381Y-106216667D01*
X166852381Y-106502381D02*
X165852381Y-106502381D01*
X165995238Y-106407143D01*
X166090476Y-106311905D01*
X166138095Y-106216667D01*
X165852381Y-107121429D02*
X165852381Y-107788096D01*
X166852381Y-107359524D01*
X155422381Y-110201429D02*
X155422381Y-110820477D01*
X155803333Y-110487143D01*
X155803333Y-110630001D01*
X155850952Y-110725239D01*
X155898571Y-110772858D01*
X155993810Y-110820477D01*
X156231905Y-110820477D01*
X156327143Y-110772858D01*
X156374762Y-110725239D01*
X156422381Y-110630001D01*
X156422381Y-110344286D01*
X156374762Y-110249048D01*
X156327143Y-110201429D01*
X156327143Y-111249048D02*
X156374762Y-111296667D01*
X156422381Y-111249048D01*
X156374762Y-111201429D01*
X156327143Y-111249048D01*
X156422381Y-111249048D01*
X155422381Y-111630000D02*
X155422381Y-112249048D01*
X155803333Y-111915714D01*
X155803333Y-112058572D01*
X155850952Y-112153810D01*
X155898571Y-112201429D01*
X155993810Y-112249048D01*
X156231905Y-112249048D01*
X156327143Y-112201429D01*
X156374762Y-112153810D01*
X156422381Y-112058572D01*
X156422381Y-111772857D01*
X156374762Y-111677619D01*
X156327143Y-111630000D01*
X155422381Y-112534762D02*
X156422381Y-112868095D01*
X155422381Y-113201429D01*
X156374762Y-114249048D02*
X156422381Y-114391905D01*
X156422381Y-114630001D01*
X156374762Y-114725239D01*
X156327143Y-114772858D01*
X156231905Y-114820477D01*
X156136667Y-114820477D01*
X156041429Y-114772858D01*
X155993810Y-114725239D01*
X155946190Y-114630001D01*
X155898571Y-114439524D01*
X155850952Y-114344286D01*
X155803333Y-114296667D01*
X155708095Y-114249048D01*
X155612857Y-114249048D01*
X155517619Y-114296667D01*
X155470000Y-114344286D01*
X155422381Y-114439524D01*
X155422381Y-114677620D01*
X155470000Y-114820477D01*
X156422381Y-115249048D02*
X155422381Y-115249048D01*
X155470000Y-116249048D02*
X155422381Y-116153810D01*
X155422381Y-116010953D01*
X155470000Y-115868095D01*
X155565238Y-115772857D01*
X155660476Y-115725238D01*
X155850952Y-115677619D01*
X155993810Y-115677619D01*
X156184286Y-115725238D01*
X156279524Y-115772857D01*
X156374762Y-115868095D01*
X156422381Y-116010953D01*
X156422381Y-116106191D01*
X156374762Y-116249048D01*
X156327143Y-116296667D01*
X155993810Y-116296667D01*
X155993810Y-116106191D01*
X156327143Y-116725238D02*
X156374762Y-116772857D01*
X156422381Y-116725238D01*
X156374762Y-116677619D01*
X156327143Y-116725238D01*
X156422381Y-116725238D01*
X156327143Y-117963333D02*
X156374762Y-118010952D01*
X156422381Y-117963333D01*
X156374762Y-117915714D01*
X156327143Y-117963333D01*
X156422381Y-117963333D01*
X156041429Y-117963333D02*
X155470000Y-117915714D01*
X155422381Y-117963333D01*
X155470000Y-118010952D01*
X156041429Y-117963333D01*
X155422381Y-117963333D01*
X170219762Y-110799810D02*
X171505476Y-109942667D01*
X171172143Y-111704572D02*
X171219762Y-111656953D01*
X171267381Y-111514096D01*
X171267381Y-111418858D01*
X171219762Y-111276000D01*
X171124524Y-111180762D01*
X171029286Y-111133143D01*
X170838810Y-111085524D01*
X170695952Y-111085524D01*
X170505476Y-111133143D01*
X170410238Y-111180762D01*
X170315000Y-111276000D01*
X170267381Y-111418858D01*
X170267381Y-111514096D01*
X170315000Y-111656953D01*
X170362619Y-111704572D01*
X171267381Y-112133143D02*
X170267381Y-112133143D01*
X170743571Y-112133143D02*
X170743571Y-112704572D01*
X171267381Y-112704572D02*
X170267381Y-112704572D01*
X171362619Y-112942667D02*
X171362619Y-113704572D01*
X171267381Y-113942667D02*
X170267381Y-113942667D01*
X170267381Y-114323620D01*
X170315000Y-114418858D01*
X170362619Y-114466477D01*
X170457857Y-114514096D01*
X170600714Y-114514096D01*
X170695952Y-114466477D01*
X170743571Y-114418858D01*
X170791190Y-114323620D01*
X170791190Y-113942667D01*
X171267381Y-114942667D02*
X170267381Y-114942667D01*
X170267381Y-115180762D01*
X170315000Y-115323620D01*
X170410238Y-115418858D01*
X170505476Y-115466477D01*
X170695952Y-115514096D01*
X170838810Y-115514096D01*
X171029286Y-115466477D01*
X171124524Y-115418858D01*
X171219762Y-115323620D01*
X171267381Y-115180762D01*
X171267381Y-114942667D01*
X168727381Y-114387334D02*
X168251190Y-114054000D01*
X168727381Y-113815905D02*
X167727381Y-113815905D01*
X167727381Y-114196858D01*
X167775000Y-114292096D01*
X167822619Y-114339715D01*
X167917857Y-114387334D01*
X168060714Y-114387334D01*
X168155952Y-114339715D01*
X168203571Y-114292096D01*
X168251190Y-114196858D01*
X168251190Y-113815905D01*
X167727381Y-114720667D02*
X168727381Y-115387334D01*
X167727381Y-115387334D02*
X168727381Y-114720667D01*
X165314381Y-113792095D02*
X165314381Y-114363524D01*
X166314381Y-114077809D02*
X165314381Y-114077809D01*
X165314381Y-114601619D02*
X166314381Y-115268286D01*
X165314381Y-115268286D02*
X166314381Y-114601619D01*
X163266429Y-114173048D02*
X163266429Y-114934953D01*
X160107381Y-114236524D02*
X160107381Y-113760333D01*
X160583571Y-113712714D01*
X160535952Y-113760333D01*
X160488333Y-113855571D01*
X160488333Y-114093667D01*
X160535952Y-114188905D01*
X160583571Y-114236524D01*
X160678810Y-114284143D01*
X160916905Y-114284143D01*
X161012143Y-114236524D01*
X161059762Y-114188905D01*
X161107381Y-114093667D01*
X161107381Y-113855571D01*
X161059762Y-113760333D01*
X161012143Y-113712714D01*
X160107381Y-114569857D02*
X161107381Y-114903190D01*
X160107381Y-115236524D01*
X157574762Y-112451429D02*
X158860476Y-111594286D01*
X158622381Y-113356191D02*
X158146190Y-113022857D01*
X158622381Y-112784762D02*
X157622381Y-112784762D01*
X157622381Y-113165715D01*
X157670000Y-113260953D01*
X157717619Y-113308572D01*
X157812857Y-113356191D01*
X157955714Y-113356191D01*
X158050952Y-113308572D01*
X158098571Y-113260953D01*
X158146190Y-113165715D01*
X158146190Y-112784762D01*
X158574762Y-113737143D02*
X158622381Y-113880000D01*
X158622381Y-114118096D01*
X158574762Y-114213334D01*
X158527143Y-114260953D01*
X158431905Y-114308572D01*
X158336667Y-114308572D01*
X158241429Y-114260953D01*
X158193810Y-114213334D01*
X158146190Y-114118096D01*
X158098571Y-113927619D01*
X158050952Y-113832381D01*
X158003333Y-113784762D01*
X157908095Y-113737143D01*
X157812857Y-113737143D01*
X157717619Y-113784762D01*
X157670000Y-113832381D01*
X157622381Y-113927619D01*
X157622381Y-114165715D01*
X157670000Y-114308572D01*
X157622381Y-114594286D02*
X157622381Y-115165715D01*
X158622381Y-114880000D02*
X157622381Y-114880000D01*
D12*
X164976000Y-108056000D02*
X161928000Y-108056000D01*
X161928000Y-108056000D02*
X161928000Y-100944000D01*
X161928000Y-100944000D02*
X164976000Y-100944000D01*
X168024000Y-108056000D02*
X168786000Y-108056000D01*
X168786000Y-108056000D02*
X171072000Y-106532000D01*
X171072000Y-106532000D02*
X171072000Y-102468000D01*
X171072000Y-102468000D02*
X168786000Y-100944000D01*
X168786000Y-100944000D02*
X168024000Y-100944000D01*
D13*
X157250040Y-105350000D02*
X161250040Y-105350000D01*
X157250040Y-105350000D02*
X157250040Y-107550000D01*
X157250040Y-107550000D02*
X161250040Y-107550000D01*
X161250040Y-107550000D02*
X161250040Y-105350000D01*
X157250000Y-102200000D02*
X161250000Y-102200000D01*
X157250000Y-102200000D02*
X157250000Y-104400000D01*
X157250000Y-104400000D02*
X161250000Y-104400000D01*
X161250000Y-104400000D02*
X161250000Y-102200000D01*
X156557143Y-106183334D02*
X156604762Y-106135715D01*
X156652381Y-105992858D01*
X156652381Y-105897620D01*
X156604762Y-105754762D01*
X156509524Y-105659524D01*
X156414286Y-105611905D01*
X156223810Y-105564286D01*
X156080952Y-105564286D01*
X155890476Y-105611905D01*
X155795238Y-105659524D01*
X155700000Y-105754762D01*
X155652381Y-105897620D01*
X155652381Y-105992858D01*
X155700000Y-106135715D01*
X155747619Y-106183334D01*
X155747619Y-106564286D02*
X155700000Y-106611905D01*
X155652381Y-106707143D01*
X155652381Y-106945239D01*
X155700000Y-107040477D01*
X155747619Y-107088096D01*
X155842857Y-107135715D01*
X155938095Y-107135715D01*
X156080952Y-107088096D01*
X156652381Y-106516667D01*
X156652381Y-107135715D01*
X156607103Y-103083334D02*
X156654722Y-103035715D01*
X156702341Y-102892858D01*
X156702341Y-102797620D01*
X156654722Y-102654762D01*
X156559484Y-102559524D01*
X156464246Y-102511905D01*
X156273770Y-102464286D01*
X156130912Y-102464286D01*
X155940436Y-102511905D01*
X155845198Y-102559524D01*
X155749960Y-102654762D01*
X155702341Y-102797620D01*
X155702341Y-102892858D01*
X155749960Y-103035715D01*
X155797579Y-103083334D01*
X156702341Y-104035715D02*
X156702341Y-103464286D01*
X156702341Y-103750000D02*
X155702341Y-103750000D01*
X155845198Y-103654762D01*
X155940436Y-103559524D01*
X155988055Y-103464286D01*
%LPC*%
D14*
X169802000Y-104500000D03*
D15*
X163198000Y-104500000D03*
X163198000Y-102214000D03*
X163198000Y-106786000D03*
D16*
X163200000Y-104000000D03*
X163200000Y-102700000D03*
D17*
X160200000Y-106450000D03*
X158300080Y-106450000D03*
X160199960Y-103300000D03*
X158300040Y-103300000D03*
D18*
X158150000Y-117000000D03*
D19*
X160690000Y-117000000D03*
X163230000Y-117000000D03*
X165770000Y-117000000D03*
X168310000Y-117000000D03*
X170850000Y-117000000D03*
D20*
X168310000Y-109730000D03*
D21*
X168310000Y-112270000D03*
X165770000Y-109730000D03*
X165770000Y-112270000D03*
X163230000Y-109730000D03*
X163230000Y-112270000D03*
X160690000Y-109730000D03*
X160690000Y-112270000D03*
M02*
