G04 #@! TF.FileFunction,Legend,Bot*
%FSLAX46Y46*%
G04 Gerber Fmt 4.6, Leading zero omitted, Abs format (unit mm)*
G04 Created by KiCad (PCBNEW (2015-03-11 BZR 5507)-product) date Thu 12 Mar 2015 03:29:40 PM CET*
%MOMM*%
G01*
G04 APERTURE LIST*
%ADD10C,0.100000*%
%ADD11C,0.250000*%
%ADD12C,0.200000*%
%ADD13C,0.150000*%
%ADD14R,1.348740X1.549400*%
%ADD15R,2.082800X3.708400*%
%ADD16R,2.082800X1.066800*%
%ADD17R,1.700800X1.700800*%
%ADD18C,1.700800*%
%ADD19R,1.701800X1.701800*%
%ADD20C,1.701800*%
G04 APERTURE END LIST*
D10*
D11*
X156397619Y-118078571D02*
X156397619Y-117459523D01*
X156016667Y-117792857D01*
X156016667Y-117649999D01*
X155969048Y-117554761D01*
X155921429Y-117507142D01*
X155826190Y-117459523D01*
X155588095Y-117459523D01*
X155492857Y-117507142D01*
X155445238Y-117554761D01*
X155397619Y-117649999D01*
X155397619Y-117935714D01*
X155445238Y-118030952D01*
X155492857Y-118078571D01*
X155492857Y-117030952D02*
X155445238Y-116983333D01*
X155397619Y-117030952D01*
X155445238Y-117078571D01*
X155492857Y-117030952D01*
X155397619Y-117030952D01*
X156397619Y-116650000D02*
X156397619Y-116030952D01*
X156016667Y-116364286D01*
X156016667Y-116221428D01*
X155969048Y-116126190D01*
X155921429Y-116078571D01*
X155826190Y-116030952D01*
X155588095Y-116030952D01*
X155492857Y-116078571D01*
X155445238Y-116126190D01*
X155397619Y-116221428D01*
X155397619Y-116507143D01*
X155445238Y-116602381D01*
X155492857Y-116650000D01*
X156397619Y-115745238D02*
X155397619Y-115411905D01*
X156397619Y-115078571D01*
X155445238Y-114030952D02*
X155397619Y-113888095D01*
X155397619Y-113649999D01*
X155445238Y-113554761D01*
X155492857Y-113507142D01*
X155588095Y-113459523D01*
X155683333Y-113459523D01*
X155778571Y-113507142D01*
X155826190Y-113554761D01*
X155873810Y-113649999D01*
X155921429Y-113840476D01*
X155969048Y-113935714D01*
X156016667Y-113983333D01*
X156111905Y-114030952D01*
X156207143Y-114030952D01*
X156302381Y-113983333D01*
X156350000Y-113935714D01*
X156397619Y-113840476D01*
X156397619Y-113602380D01*
X156350000Y-113459523D01*
X155397619Y-113030952D02*
X156397619Y-113030952D01*
X156350000Y-112030952D02*
X156397619Y-112126190D01*
X156397619Y-112269047D01*
X156350000Y-112411905D01*
X156254762Y-112507143D01*
X156159524Y-112554762D01*
X155969048Y-112602381D01*
X155826190Y-112602381D01*
X155635714Y-112554762D01*
X155540476Y-112507143D01*
X155445238Y-112411905D01*
X155397619Y-112269047D01*
X155397619Y-112173809D01*
X155445238Y-112030952D01*
X155492857Y-111983333D01*
X155826190Y-111983333D01*
X155826190Y-112173809D01*
X155492857Y-111554762D02*
X155445238Y-111507143D01*
X155397619Y-111554762D01*
X155445238Y-111602381D01*
X155492857Y-111554762D01*
X155397619Y-111554762D01*
X155492857Y-110316667D02*
X155445238Y-110269048D01*
X155397619Y-110316667D01*
X155445238Y-110364286D01*
X155492857Y-110316667D01*
X155397619Y-110316667D01*
X155778571Y-110316667D02*
X156350000Y-110364286D01*
X156397619Y-110316667D01*
X156350000Y-110269048D01*
X155778571Y-110316667D01*
X156397619Y-110316667D01*
X170219762Y-110799810D02*
X171505476Y-109942667D01*
X171172143Y-111704572D02*
X171219762Y-111656953D01*
X171267381Y-111514096D01*
X171267381Y-111418858D01*
X171219762Y-111276000D01*
X171124524Y-111180762D01*
X171029286Y-111133143D01*
X170838810Y-111085524D01*
X170695952Y-111085524D01*
X170505476Y-111133143D01*
X170410238Y-111180762D01*
X170315000Y-111276000D01*
X170267381Y-111418858D01*
X170267381Y-111514096D01*
X170315000Y-111656953D01*
X170362619Y-111704572D01*
X171267381Y-112133143D02*
X170267381Y-112133143D01*
X170743571Y-112133143D02*
X170743571Y-112704572D01*
X171267381Y-112704572D02*
X170267381Y-112704572D01*
X171362619Y-112942667D02*
X171362619Y-113704572D01*
X171267381Y-113942667D02*
X170267381Y-113942667D01*
X170267381Y-114323620D01*
X170315000Y-114418858D01*
X170362619Y-114466477D01*
X170457857Y-114514096D01*
X170600714Y-114514096D01*
X170695952Y-114466477D01*
X170743571Y-114418858D01*
X170791190Y-114323620D01*
X170791190Y-113942667D01*
X171267381Y-114942667D02*
X170267381Y-114942667D01*
X170267381Y-115180762D01*
X170315000Y-115323620D01*
X170410238Y-115418858D01*
X170505476Y-115466477D01*
X170695952Y-115514096D01*
X170838810Y-115514096D01*
X171029286Y-115466477D01*
X171124524Y-115418858D01*
X171219762Y-115323620D01*
X171267381Y-115180762D01*
X171267381Y-114942667D01*
X168108334Y-114101619D02*
X167775000Y-114577810D01*
X167536905Y-114101619D02*
X167536905Y-115101619D01*
X167917858Y-115101619D01*
X168013096Y-115054000D01*
X168060715Y-115006381D01*
X168108334Y-114911143D01*
X168108334Y-114768286D01*
X168060715Y-114673048D01*
X168013096Y-114625429D01*
X167917858Y-114577810D01*
X167536905Y-114577810D01*
X168441667Y-115101619D02*
X169108334Y-114101619D01*
X169108334Y-115101619D02*
X168441667Y-114101619D01*
X165100095Y-115101619D02*
X165671524Y-115101619D01*
X165385809Y-114101619D02*
X165385809Y-115101619D01*
X165909619Y-115101619D02*
X166576286Y-114101619D01*
X166576286Y-115101619D02*
X165909619Y-114101619D01*
X163575952Y-114625429D02*
X162814047Y-114625429D01*
X160464524Y-114974619D02*
X159988333Y-114974619D01*
X159940714Y-114498429D01*
X159988333Y-114546048D01*
X160083571Y-114593667D01*
X160321667Y-114593667D01*
X160416905Y-114546048D01*
X160464524Y-114498429D01*
X160512143Y-114403190D01*
X160512143Y-114165095D01*
X160464524Y-114069857D01*
X160416905Y-114022238D01*
X160321667Y-113974619D01*
X160083571Y-113974619D01*
X159988333Y-114022238D01*
X159940714Y-114069857D01*
X160797857Y-114974619D02*
X161131190Y-113974619D01*
X161464524Y-114974619D01*
X157519762Y-112228429D02*
X158805476Y-111371286D01*
X158567381Y-113133191D02*
X158091190Y-112799857D01*
X158567381Y-112561762D02*
X157567381Y-112561762D01*
X157567381Y-112942715D01*
X157615000Y-113037953D01*
X157662619Y-113085572D01*
X157757857Y-113133191D01*
X157900714Y-113133191D01*
X157995952Y-113085572D01*
X158043571Y-113037953D01*
X158091190Y-112942715D01*
X158091190Y-112561762D01*
X158519762Y-113514143D02*
X158567381Y-113657000D01*
X158567381Y-113895096D01*
X158519762Y-113990334D01*
X158472143Y-114037953D01*
X158376905Y-114085572D01*
X158281667Y-114085572D01*
X158186429Y-114037953D01*
X158138810Y-113990334D01*
X158091190Y-113895096D01*
X158043571Y-113704619D01*
X157995952Y-113609381D01*
X157948333Y-113561762D01*
X157853095Y-113514143D01*
X157757857Y-113514143D01*
X157662619Y-113561762D01*
X157615000Y-113609381D01*
X157567381Y-113704619D01*
X157567381Y-113942715D01*
X157615000Y-114085572D01*
X157567381Y-114371286D02*
X157567381Y-114942715D01*
X158567381Y-114657000D02*
X157567381Y-114657000D01*
D12*
X157250040Y-105350000D02*
X161250040Y-105350000D01*
X157250040Y-105350000D02*
X157250040Y-107550000D01*
X157250040Y-107550000D02*
X161250040Y-107550000D01*
X161250040Y-107550000D02*
X161250040Y-105350000D01*
X157250000Y-102200000D02*
X161250000Y-102200000D01*
X157250000Y-102200000D02*
X157250000Y-104400000D01*
X157250000Y-104400000D02*
X161250000Y-104400000D01*
X161250000Y-104400000D02*
X161250000Y-102200000D01*
D13*
X164976000Y-108056000D02*
X161928000Y-108056000D01*
X161928000Y-108056000D02*
X161928000Y-100944000D01*
X161928000Y-100944000D02*
X164976000Y-100944000D01*
X168024000Y-108056000D02*
X168786000Y-108056000D01*
X168786000Y-108056000D02*
X171072000Y-106532000D01*
X171072000Y-106532000D02*
X171072000Y-102468000D01*
X171072000Y-102468000D02*
X168786000Y-100944000D01*
X168786000Y-100944000D02*
X168024000Y-100944000D01*
D12*
X156557143Y-106183334D02*
X156604762Y-106135715D01*
X156652381Y-105992858D01*
X156652381Y-105897620D01*
X156604762Y-105754762D01*
X156509524Y-105659524D01*
X156414286Y-105611905D01*
X156223810Y-105564286D01*
X156080952Y-105564286D01*
X155890476Y-105611905D01*
X155795238Y-105659524D01*
X155700000Y-105754762D01*
X155652381Y-105897620D01*
X155652381Y-105992858D01*
X155700000Y-106135715D01*
X155747619Y-106183334D01*
X155747619Y-106564286D02*
X155700000Y-106611905D01*
X155652381Y-106707143D01*
X155652381Y-106945239D01*
X155700000Y-107040477D01*
X155747619Y-107088096D01*
X155842857Y-107135715D01*
X155938095Y-107135715D01*
X156080952Y-107088096D01*
X156652381Y-106516667D01*
X156652381Y-107135715D01*
X156607103Y-103083334D02*
X156654722Y-103035715D01*
X156702341Y-102892858D01*
X156702341Y-102797620D01*
X156654722Y-102654762D01*
X156559484Y-102559524D01*
X156464246Y-102511905D01*
X156273770Y-102464286D01*
X156130912Y-102464286D01*
X155940436Y-102511905D01*
X155845198Y-102559524D01*
X155749960Y-102654762D01*
X155702341Y-102797620D01*
X155702341Y-102892858D01*
X155749960Y-103035715D01*
X155797579Y-103083334D01*
X156702341Y-104035715D02*
X156702341Y-103464286D01*
X156702341Y-103750000D02*
X155702341Y-103750000D01*
X155845198Y-103654762D01*
X155940436Y-103559524D01*
X155988055Y-103464286D01*
%LPC*%
D14*
X160200000Y-106450000D03*
X158300080Y-106450000D03*
X160199960Y-103300000D03*
X158300040Y-103300000D03*
D15*
X169802000Y-104500000D03*
D16*
X163198000Y-104500000D03*
X163198000Y-102214000D03*
X163198000Y-106786000D03*
D17*
X158150000Y-117000000D03*
D18*
X160690000Y-117000000D03*
X163230000Y-117000000D03*
X165770000Y-117000000D03*
X168310000Y-117000000D03*
X170850000Y-117000000D03*
D19*
X168310000Y-109730000D03*
D20*
X168310000Y-112270000D03*
X165770000Y-109730000D03*
X165770000Y-112270000D03*
X163230000Y-109730000D03*
X163230000Y-112270000D03*
X160690000Y-109730000D03*
X160690000Y-112270000D03*
M02*
