G04 #@! TF.FileFunction,Copper,L1,Top,Signal*
%FSLAX46Y46*%
G04 Gerber Fmt 4.6, Leading zero omitted, Abs format (unit mm)*
G04 Created by KiCad (PCBNEW (2015-03-12 BZR 5508)-product) date Thu 12 Mar 2015 10:16:38 PM CET*
%MOMM*%
G01*
G04 APERTURE LIST*
%ADD10C,0.100000*%
%ADD11R,1.650000X1.650000*%
%ADD12C,1.650000*%
%ADD13R,1.651000X1.651000*%
%ADD14C,1.651000*%
%ADD15R,1.099820X0.998220*%
%ADD16C,0.889000*%
%ADD17C,0.406400*%
%ADD18C,0.254000*%
G04 APERTURE END LIST*
D10*
D11*
X158150000Y-117000000D03*
D12*
X160690000Y-117000000D03*
X163230000Y-117000000D03*
X165770000Y-117000000D03*
X168310000Y-117000000D03*
X170850000Y-117000000D03*
D13*
X168310000Y-109730000D03*
D14*
X168310000Y-112270000D03*
X165770000Y-109730000D03*
X165770000Y-112270000D03*
X163230000Y-109730000D03*
X163230000Y-112270000D03*
X160690000Y-109730000D03*
X160690000Y-112270000D03*
D15*
X161861500Y-102151640D03*
X161861500Y-103848360D03*
X165608000Y-102151640D03*
X165608000Y-103848360D03*
X169291000Y-102151640D03*
X169291000Y-103848360D03*
X158242000Y-102151640D03*
X158242000Y-103848360D03*
D16*
X164410457Y-103339196D03*
D17*
X157285690Y-102151640D02*
X158242000Y-102151640D01*
X156800000Y-102637330D02*
X157285690Y-102151640D01*
X156800000Y-107800000D02*
X156800000Y-102637330D01*
X159864501Y-108904501D02*
X157904501Y-108904501D01*
X157904501Y-108904501D02*
X156800000Y-107800000D01*
X160690000Y-109730000D02*
X159864501Y-108904501D01*
X165608000Y-102151640D02*
X164411011Y-102151640D01*
X164411011Y-102151640D02*
X164068751Y-102151640D01*
X164410457Y-102152194D02*
X164411011Y-102151640D01*
X164410457Y-103339196D02*
X164410457Y-102152194D01*
X165608000Y-102151640D02*
X169291000Y-102151640D01*
X161861500Y-102151640D02*
X163570098Y-102151640D01*
X163570098Y-102151640D02*
X164068751Y-102151640D01*
D18*
X165420000Y-117000000D02*
X165770000Y-117000000D01*
X164944501Y-113095499D02*
X165770000Y-112270000D01*
X163440000Y-114600000D02*
X164944501Y-113095499D01*
X159471000Y-114600000D02*
X163440000Y-114600000D01*
X158150000Y-115921000D02*
X159471000Y-114600000D01*
X158150000Y-117000000D02*
X158150000Y-115921000D01*
X169291000Y-104601470D02*
X169291000Y-103848360D01*
X167050000Y-106842470D02*
X169291000Y-104601470D01*
X167050000Y-110990000D02*
X167050000Y-106842470D01*
X165770000Y-112270000D02*
X167050000Y-110990000D01*
X158242000Y-104601470D02*
X158242000Y-103848360D01*
X162000000Y-108359470D02*
X158242000Y-104601470D01*
X162000000Y-111040000D02*
X162000000Y-108359470D01*
X163230000Y-112270000D02*
X162000000Y-111040000D01*
X168310000Y-117000000D02*
X170200000Y-115110000D01*
X170200000Y-115110000D02*
X170200000Y-110540500D01*
X170200000Y-110540500D02*
X169389500Y-109730000D01*
X169389500Y-109730000D02*
X168310000Y-109730000D01*
X165770000Y-104010360D02*
X165608000Y-103848360D01*
X165770000Y-109730000D02*
X165770000Y-104010360D01*
X161912300Y-103848360D02*
X161861500Y-103848360D01*
X163230000Y-105166060D02*
X161912300Y-103848360D01*
X163230000Y-109730000D02*
X163230000Y-105166060D01*
M02*
