G04 #@! TF.FileFunction,Copper,L2,Bot,Signal*
%FSLAX46Y46*%
G04 Gerber Fmt 4.6, Leading zero omitted, Abs format (unit mm)*
G04 Created by KiCad (PCBNEW (2015-03-12 BZR 5508)-product) date Fri 13 Mar 2015 01:03:58 PM CET*
%MOMM*%
G01*
G04 APERTURE LIST*
%ADD10C,0.100000*%
%ADD11R,1.651000X1.651000*%
%ADD12C,1.651000*%
%ADD13C,1.000000*%
%ADD14R,2.032000X3.657600*%
%ADD15R,2.032000X1.016000*%
%ADD16R,1.000000X1.000000*%
%ADD17R,1.297940X1.498600*%
%ADD18R,1.650000X1.650000*%
%ADD19C,1.650000*%
%ADD20C,0.889000*%
%ADD21C,0.406400*%
%ADD22C,0.254000*%
G04 APERTURE END LIST*
D10*
D11*
X168310000Y-109730000D03*
D12*
X168310000Y-112270000D03*
X165770000Y-109730000D03*
X165770000Y-112270000D03*
X163230000Y-109730000D03*
X163230000Y-112270000D03*
X160690000Y-109730000D03*
X160690000Y-112270000D03*
D13*
X164500000Y-111000000D03*
X159420000Y-111000000D03*
D14*
X169802000Y-104500000D03*
D15*
X163198000Y-104500000D03*
X163198000Y-102214000D03*
X163198000Y-106786000D03*
D16*
X163200000Y-104000000D03*
X163200000Y-102700000D03*
D17*
X160200000Y-106450000D03*
X158300080Y-106450000D03*
X160199960Y-103300000D03*
X158300040Y-103300000D03*
D18*
X158150000Y-117000000D03*
D19*
X160690000Y-117000000D03*
X163230000Y-117000000D03*
X165770000Y-117000000D03*
X168310000Y-117000000D03*
X170850000Y-117000000D03*
D20*
X164410457Y-103339196D03*
D21*
X163198000Y-102214000D02*
X163198000Y-102698000D01*
X163198000Y-102698000D02*
X163200000Y-102700000D01*
X163200000Y-102216000D02*
X163198000Y-102214000D01*
X158687434Y-114997434D02*
X160197434Y-114997434D01*
X157189777Y-108389777D02*
X157189777Y-113499777D01*
X160197434Y-114997434D02*
X160690000Y-115490000D01*
X157189777Y-113499777D02*
X158687434Y-114997434D01*
X156500000Y-107700000D02*
X157189777Y-108389777D01*
X160690000Y-115490000D02*
X160690000Y-117000000D01*
X160199960Y-102144300D02*
X159855660Y-101800000D01*
X160199960Y-103300000D02*
X160199960Y-102144300D01*
X157004227Y-101800000D02*
X156500000Y-102304227D01*
X159855660Y-101800000D02*
X157004227Y-101800000D01*
X156500000Y-102304227D02*
X156500000Y-107700000D01*
X160269660Y-102214000D02*
X163198000Y-102214000D01*
X160199960Y-102144300D02*
X160269660Y-102214000D01*
X160670000Y-109750000D02*
X160690000Y-109730000D01*
X158300080Y-107605700D02*
X158300080Y-106450000D01*
X158500000Y-107805620D02*
X158300080Y-107605700D01*
X159100000Y-114100000D02*
X158500000Y-113500000D01*
X161496726Y-114100000D02*
X159100000Y-114100000D01*
X163230000Y-115833274D02*
X161496726Y-114100000D01*
X163230000Y-117000000D02*
X163230000Y-115833274D01*
X158533568Y-109730000D02*
X158500000Y-109696432D01*
X160690000Y-109730000D02*
X158533568Y-109730000D01*
X158500000Y-109696432D02*
X158500000Y-107805620D01*
X158500000Y-113500000D02*
X158500000Y-109696432D01*
X161775600Y-106786000D02*
X163198000Y-106786000D01*
X161515499Y-107046101D02*
X161775600Y-106786000D01*
X161515499Y-108904501D02*
X161515499Y-107046101D01*
X160690000Y-109730000D02*
X161515499Y-108904501D01*
X158300040Y-106449960D02*
X158300080Y-106450000D01*
X158300040Y-103300000D02*
X158300040Y-106449960D01*
X159420000Y-111000000D02*
X160690000Y-109730000D01*
X164620400Y-104500000D02*
X164610000Y-104489600D01*
X164610000Y-104489600D02*
X164610000Y-103538739D01*
X164610000Y-103538739D02*
X164410457Y-103339196D01*
X163198000Y-104500000D02*
X163198000Y-104002000D01*
X163198000Y-104002000D02*
X163200000Y-104000000D01*
X163198000Y-104500000D02*
X163249653Y-104500000D01*
X163200000Y-104498000D02*
X163198000Y-104500000D01*
X169730000Y-112270000D02*
X168310000Y-112270000D01*
X170300000Y-111700000D02*
X169730000Y-112270000D01*
X160200000Y-105294300D02*
X160494300Y-105000000D01*
X160200000Y-106450000D02*
X160200000Y-105294300D01*
X160494300Y-105000000D02*
X160850000Y-105000000D01*
X160850000Y-105000000D02*
X161350000Y-104500000D01*
X161350000Y-104500000D02*
X163198000Y-104500000D01*
X164620400Y-104500000D02*
X168020400Y-107900000D01*
X163198000Y-104500000D02*
X164620400Y-104500000D01*
X169381740Y-107900000D02*
X170300000Y-108818260D01*
X168020400Y-107900000D02*
X169381740Y-107900000D01*
X170300000Y-108818260D02*
X170300000Y-111700000D01*
D22*
X160690000Y-112270000D02*
X165420000Y-117000000D01*
X165420000Y-117000000D02*
X165770000Y-117000000D01*
X168550000Y-114700000D02*
X170025001Y-116175001D01*
X165660000Y-114700000D02*
X168550000Y-114700000D01*
X170025001Y-116175001D02*
X170850000Y-117000000D01*
X163230000Y-112270000D02*
X165660000Y-114700000D01*
X164500000Y-111000000D02*
X165770000Y-109730000D01*
M02*
