G04 #@! TF.FileFunction,Copper,L2,Bot,Signal*
%FSLAX46Y46*%
G04 Gerber Fmt 4.6, Leading zero omitted, Abs format (unit mm)*
G04 Created by KiCad (PCBNEW (2015-03-18 BZR 5525)-product) date Thu 19 Mar 2015 08:00:53 PM CET*
%MOMM*%
G01*
G04 APERTURE LIST*
%ADD10C,0.100000*%
%ADD11C,0.160000*%
%ADD12R,1.651000X1.651000*%
%ADD13C,1.651000*%
%ADD14C,1.000000*%
%ADD15R,2.032000X3.657600*%
%ADD16R,2.032000X1.016000*%
%ADD17R,1.000000X1.000000*%
%ADD18R,1.297940X1.498600*%
%ADD19R,1.650000X1.650000*%
%ADD20C,1.650000*%
%ADD21C,0.889000*%
%ADD22C,0.406400*%
%ADD23C,0.254000*%
%ADD24C,0.200000*%
G04 APERTURE END LIST*
D10*
D11*
X155628571Y-107722619D02*
X156428571Y-107722619D01*
X155666667Y-107722619D02*
X155628571Y-107798810D01*
X155628571Y-107951191D01*
X155666667Y-108027381D01*
X155704762Y-108065476D01*
X155780952Y-108103572D01*
X156009524Y-108103572D01*
X156085714Y-108065476D01*
X156123810Y-108027381D01*
X156161905Y-107951191D01*
X156161905Y-107798810D01*
X156123810Y-107722619D01*
X156085714Y-108446429D02*
X156123810Y-108484524D01*
X156161905Y-108446429D01*
X156123810Y-108408334D01*
X156085714Y-108446429D01*
X156161905Y-108446429D01*
X156161905Y-109132143D02*
X155552381Y-109132143D01*
X155704762Y-108979762D02*
X155552381Y-109132143D01*
X155704762Y-109284524D01*
X155552381Y-110122619D02*
X156161905Y-110122619D01*
X156009524Y-110275000D02*
X156161905Y-110122619D01*
X156009524Y-109970238D01*
X156161905Y-111265476D02*
X155780952Y-110998809D01*
X156161905Y-110808333D02*
X155361905Y-110808333D01*
X155361905Y-111113095D01*
X155400000Y-111189286D01*
X155438095Y-111227381D01*
X155514286Y-111265476D01*
X155628571Y-111265476D01*
X155704762Y-111227381D01*
X155742857Y-111189286D01*
X155780952Y-111113095D01*
X155780952Y-110808333D01*
D12*
X168310000Y-109730000D03*
D13*
X168310000Y-112270000D03*
X165770000Y-109730000D03*
X165770000Y-112270000D03*
X163230000Y-109730000D03*
X163230000Y-112270000D03*
X160690000Y-109730000D03*
X160690000Y-112270000D03*
D14*
X170850000Y-109095000D03*
X170850000Y-111635000D03*
D15*
X169802000Y-104500000D03*
D16*
X163198000Y-104500000D03*
X163198000Y-102214000D03*
X163198000Y-106786000D03*
D17*
X163200000Y-104000000D03*
X163200000Y-102700000D03*
D18*
X160200000Y-106450000D03*
X158300080Y-106450000D03*
X160199960Y-103300000D03*
X158300040Y-103300000D03*
D19*
X158150000Y-117000000D03*
D20*
X160690000Y-117000000D03*
X163230000Y-117000000D03*
X165770000Y-117000000D03*
X168310000Y-117000000D03*
X170850000Y-117000000D03*
D21*
X167025000Y-113525000D03*
X164410457Y-103339196D03*
D22*
X160199960Y-102144300D02*
X159855660Y-101800000D01*
X160690000Y-115490000D02*
X160690000Y-117000000D01*
X159855660Y-101800000D02*
X157004227Y-101800000D01*
X157189777Y-113499777D02*
X158687434Y-114997434D01*
X157004227Y-101800000D02*
X156500000Y-102304227D01*
X156500000Y-102304227D02*
X156500000Y-106925000D01*
X156500000Y-106925000D02*
X157189777Y-107614777D01*
X157189777Y-107614777D02*
X157189777Y-113499777D01*
X158687434Y-114997434D02*
X160197434Y-114997434D01*
X160197434Y-114997434D02*
X160690000Y-115490000D01*
X163198000Y-102214000D02*
X163198000Y-102698000D01*
X163198000Y-102698000D02*
X163200000Y-102700000D01*
X163200000Y-102216000D02*
X163198000Y-102214000D01*
X160199960Y-103300000D02*
X160199960Y-102144300D01*
X160269660Y-102214000D02*
X163198000Y-102214000D01*
X160199960Y-102144300D02*
X160269660Y-102214000D01*
D23*
X167025000Y-113525000D02*
X167025000Y-111625000D01*
X167025000Y-111625000D02*
X167650000Y-111000000D01*
X167650000Y-111000000D02*
X170215000Y-111000000D01*
X170215000Y-111000000D02*
X170850000Y-111635000D01*
D22*
X160670000Y-109750000D02*
X160690000Y-109730000D01*
X158300080Y-107605700D02*
X158300080Y-106450000D01*
X158500000Y-107805620D02*
X158300080Y-107605700D01*
X159100000Y-114100000D02*
X158500000Y-113500000D01*
X161496726Y-114100000D02*
X159100000Y-114100000D01*
X163230000Y-115833274D02*
X161496726Y-114100000D01*
X163230000Y-117000000D02*
X163230000Y-115833274D01*
X158533568Y-109730000D02*
X158500000Y-109696432D01*
X160690000Y-109730000D02*
X158533568Y-109730000D01*
X158500000Y-109696432D02*
X158500000Y-107805620D01*
X158500000Y-113500000D02*
X158500000Y-109696432D01*
X161775600Y-106786000D02*
X163198000Y-106786000D01*
X161515499Y-107046101D02*
X161775600Y-106786000D01*
X161515499Y-108904501D02*
X161515499Y-107046101D01*
X160690000Y-109730000D02*
X161515499Y-108904501D01*
X158300040Y-106449960D02*
X158300080Y-106450000D01*
X158300040Y-103300000D02*
X158300040Y-106449960D01*
X164620400Y-104500000D02*
X169802000Y-104500000D01*
X164620400Y-104500000D02*
X164610000Y-104489600D01*
X164610000Y-104489600D02*
X164610000Y-103538739D01*
X164610000Y-103538739D02*
X164410457Y-103339196D01*
X163198000Y-104500000D02*
X163198000Y-104002000D01*
X163198000Y-104002000D02*
X163200000Y-104000000D01*
X163198000Y-104500000D02*
X163249653Y-104500000D01*
X163200000Y-104498000D02*
X163198000Y-104500000D01*
X160200000Y-105294300D02*
X160494300Y-105000000D01*
X160200000Y-106450000D02*
X160200000Y-105294300D01*
X160494300Y-105000000D02*
X160850000Y-105000000D01*
X160850000Y-105000000D02*
X161350000Y-104500000D01*
X161350000Y-104500000D02*
X163198000Y-104500000D01*
X163198000Y-104500000D02*
X164620400Y-104500000D01*
X171425000Y-113475000D02*
X169515000Y-113475000D01*
X171875000Y-113025000D02*
X171425000Y-113475000D01*
X171875000Y-105050000D02*
X171875000Y-113025000D01*
X169515000Y-113475000D02*
X168310000Y-112270000D01*
X171325000Y-104500000D02*
X171875000Y-105050000D01*
X169802000Y-104500000D02*
X171325000Y-104500000D01*
D23*
X170800000Y-116950000D02*
X170850000Y-117000000D01*
X170800000Y-115700000D02*
X170800000Y-116950000D01*
X170050000Y-114950000D02*
X170800000Y-115700000D01*
X165910000Y-114950000D02*
X170050000Y-114950000D01*
X163230000Y-112270000D02*
X165910000Y-114950000D01*
X160690000Y-112270000D02*
X165420000Y-117000000D01*
X165420000Y-117000000D02*
X165770000Y-117000000D01*
X165770000Y-109730000D02*
X167050000Y-108450000D01*
X167050000Y-108450000D02*
X170205000Y-108450000D01*
X170205000Y-108450000D02*
X170850000Y-109095000D01*
D24*
G36*
X171975000Y-107925000D02*
X171118000Y-107925000D01*
X171118000Y-106388474D01*
X171118000Y-104729000D01*
X171118000Y-104271000D01*
X171118000Y-102611526D01*
X171072328Y-102501263D01*
X170987936Y-102416872D01*
X170877673Y-102371200D01*
X170758326Y-102371200D01*
X170031000Y-102371200D01*
X169956000Y-102446200D01*
X169956000Y-104346000D01*
X171043000Y-104346000D01*
X171118000Y-104271000D01*
X171118000Y-104729000D01*
X171043000Y-104654000D01*
X169956000Y-104654000D01*
X169956000Y-106553800D01*
X170031000Y-106628800D01*
X170758326Y-106628800D01*
X170877673Y-106628800D01*
X170987936Y-106583128D01*
X171072328Y-106498737D01*
X171118000Y-106388474D01*
X171118000Y-107925000D01*
X169648000Y-107925000D01*
X169648000Y-106553800D01*
X169648000Y-104654000D01*
X169648000Y-104346000D01*
X169648000Y-102446200D01*
X169573000Y-102371200D01*
X168845674Y-102371200D01*
X168726327Y-102371200D01*
X168616064Y-102416872D01*
X168531672Y-102501263D01*
X168486000Y-102611526D01*
X168486000Y-104271000D01*
X168561000Y-104346000D01*
X169648000Y-104346000D01*
X169648000Y-104654000D01*
X168561000Y-104654000D01*
X168486000Y-104729000D01*
X168486000Y-106388474D01*
X168531672Y-106498737D01*
X168616064Y-106583128D01*
X168726327Y-106628800D01*
X168845674Y-106628800D01*
X169573000Y-106628800D01*
X169648000Y-106553800D01*
X169648000Y-107925000D01*
X165225000Y-107925000D01*
X165225000Y-101200000D01*
X171975000Y-101200000D01*
X171975000Y-107925000D01*
X171975000Y-107925000D01*
G37*
X171975000Y-107925000D02*
X171118000Y-107925000D01*
X171118000Y-106388474D01*
X171118000Y-104729000D01*
X171118000Y-104271000D01*
X171118000Y-102611526D01*
X171072328Y-102501263D01*
X170987936Y-102416872D01*
X170877673Y-102371200D01*
X170758326Y-102371200D01*
X170031000Y-102371200D01*
X169956000Y-102446200D01*
X169956000Y-104346000D01*
X171043000Y-104346000D01*
X171118000Y-104271000D01*
X171118000Y-104729000D01*
X171043000Y-104654000D01*
X169956000Y-104654000D01*
X169956000Y-106553800D01*
X170031000Y-106628800D01*
X170758326Y-106628800D01*
X170877673Y-106628800D01*
X170987936Y-106583128D01*
X171072328Y-106498737D01*
X171118000Y-106388474D01*
X171118000Y-107925000D01*
X169648000Y-107925000D01*
X169648000Y-106553800D01*
X169648000Y-104654000D01*
X169648000Y-104346000D01*
X169648000Y-102446200D01*
X169573000Y-102371200D01*
X168845674Y-102371200D01*
X168726327Y-102371200D01*
X168616064Y-102416872D01*
X168531672Y-102501263D01*
X168486000Y-102611526D01*
X168486000Y-104271000D01*
X168561000Y-104346000D01*
X169648000Y-104346000D01*
X169648000Y-104654000D01*
X168561000Y-104654000D01*
X168486000Y-104729000D01*
X168486000Y-106388474D01*
X168531672Y-106498737D01*
X168616064Y-106583128D01*
X168726327Y-106628800D01*
X168845674Y-106628800D01*
X169573000Y-106628800D01*
X169648000Y-106553800D01*
X169648000Y-107925000D01*
X165225000Y-107925000D01*
X165225000Y-101200000D01*
X171975000Y-101200000D01*
X171975000Y-107925000D01*
M02*
