G04 #@! TF.FileFunction,Copper,L1,Top,Signal*
%FSLAX46Y46*%
G04 Gerber Fmt 4.6, Leading zero omitted, Abs format (unit mm)*
G04 Created by KiCad (PCBNEW (2015-03-12 BZR 5508)-product) date Fri 13 Mar 2015 10:54:59 PM CET*
%MOMM*%
G01*
G04 APERTURE LIST*
%ADD10C,0.100000*%
%ADD11C,0.160000*%
%ADD12R,1.099820X0.998220*%
%ADD13R,1.651000X1.651000*%
%ADD14C,1.651000*%
%ADD15C,1.000000*%
%ADD16R,1.650000X1.650000*%
%ADD17C,1.650000*%
%ADD18C,0.889000*%
%ADD19C,0.406400*%
%ADD20C,0.254000*%
G04 APERTURE END LIST*
D10*
D11*
X155610714Y-107290476D02*
X156136905Y-107290476D01*
X156198810Y-107321428D01*
X156229762Y-107352380D01*
X156260714Y-107414285D01*
X156260714Y-107507142D01*
X156229762Y-107569047D01*
X156013095Y-107290476D02*
X156044048Y-107352380D01*
X156044048Y-107476190D01*
X156013095Y-107538095D01*
X155982143Y-107569047D01*
X155920238Y-107599999D01*
X155734524Y-107599999D01*
X155672619Y-107569047D01*
X155641667Y-107538095D01*
X155610714Y-107476190D01*
X155610714Y-107352380D01*
X155641667Y-107290476D01*
X156044048Y-106888095D02*
X156013095Y-106950000D01*
X155982143Y-106980952D01*
X155920238Y-107011904D01*
X155734524Y-107011904D01*
X155672619Y-106980952D01*
X155641667Y-106950000D01*
X155610714Y-106888095D01*
X155610714Y-106795238D01*
X155641667Y-106733333D01*
X155672619Y-106702381D01*
X155734524Y-106671428D01*
X155920238Y-106671428D01*
X155982143Y-106702381D01*
X156013095Y-106733333D01*
X156044048Y-106795238D01*
X156044048Y-106888095D01*
X156044048Y-106300000D02*
X156013095Y-106361905D01*
X155982143Y-106392857D01*
X155920238Y-106423809D01*
X155734524Y-106423809D01*
X155672619Y-106392857D01*
X155641667Y-106361905D01*
X155610714Y-106300000D01*
X155610714Y-106207143D01*
X155641667Y-106145238D01*
X155672619Y-106114286D01*
X155734524Y-106083333D01*
X155920238Y-106083333D01*
X155982143Y-106114286D01*
X156013095Y-106145238D01*
X156044048Y-106207143D01*
X156044048Y-106300000D01*
X155982143Y-105804762D02*
X156013095Y-105773810D01*
X156044048Y-105804762D01*
X156013095Y-105835714D01*
X155982143Y-105804762D01*
X156044048Y-105804762D01*
X155610714Y-105216667D02*
X156136905Y-105216667D01*
X156198810Y-105247619D01*
X156229762Y-105278571D01*
X156260714Y-105340476D01*
X156260714Y-105433333D01*
X156229762Y-105495238D01*
X156013095Y-105216667D02*
X156044048Y-105278571D01*
X156044048Y-105402381D01*
X156013095Y-105464286D01*
X155982143Y-105495238D01*
X155920238Y-105526190D01*
X155734524Y-105526190D01*
X155672619Y-105495238D01*
X155641667Y-105464286D01*
X155610714Y-105402381D01*
X155610714Y-105278571D01*
X155641667Y-105216667D01*
X156044048Y-104814286D02*
X156013095Y-104876191D01*
X155951190Y-104907143D01*
X155394048Y-104907143D01*
X155363095Y-104102381D02*
X156198810Y-104659524D01*
X155858333Y-103916667D02*
X155858333Y-103607144D01*
X156044048Y-103978572D02*
X155394048Y-103761906D01*
X156044048Y-103545239D01*
X156044048Y-103390477D02*
X155610714Y-103050001D01*
X155610714Y-103390477D02*
X156044048Y-103050001D01*
X155610714Y-102895239D02*
X155610714Y-102647620D01*
X155394048Y-102802382D02*
X155951190Y-102802382D01*
X156013095Y-102771430D01*
X156044048Y-102709525D01*
X156044048Y-102647620D01*
X156044048Y-102430953D02*
X155394048Y-102430953D01*
X156044048Y-102059525D02*
X155672619Y-102338096D01*
X155394048Y-102059525D02*
X155765476Y-102430953D01*
X156044048Y-101780953D02*
X155610714Y-101780953D01*
X155734524Y-101780953D02*
X155672619Y-101750001D01*
X155641667Y-101719048D01*
X155610714Y-101657144D01*
X155610714Y-101595239D01*
X156013095Y-101130953D02*
X156044048Y-101192858D01*
X156044048Y-101316667D01*
X156013095Y-101378572D01*
X155951190Y-101409524D01*
X155703571Y-101409524D01*
X155641667Y-101378572D01*
X155610714Y-101316667D01*
X155610714Y-101192858D01*
X155641667Y-101130953D01*
X155703571Y-101100001D01*
X155765476Y-101100001D01*
X155827381Y-101409524D01*
D12*
X158242000Y-102151640D03*
X158242000Y-103848360D03*
X161861500Y-102151640D03*
X161861500Y-103848360D03*
X165608000Y-102151640D03*
X165608000Y-103848360D03*
X169291000Y-102151640D03*
X169291000Y-103848360D03*
D13*
X168310000Y-109730000D03*
D14*
X168310000Y-112270000D03*
X165770000Y-109730000D03*
X165770000Y-112270000D03*
X163230000Y-109730000D03*
X163230000Y-112270000D03*
X160690000Y-109730000D03*
X160690000Y-112270000D03*
D15*
X164500000Y-111000000D03*
X159420000Y-111000000D03*
D16*
X158150000Y-117000000D03*
D17*
X160690000Y-117000000D03*
X163230000Y-117000000D03*
X165770000Y-117000000D03*
X168310000Y-117000000D03*
X170850000Y-117000000D03*
D18*
X164410457Y-103339196D03*
D19*
X160690000Y-109730000D02*
X159864501Y-108904501D01*
X157904501Y-108904501D02*
X156800000Y-107800000D01*
X159864501Y-108904501D02*
X157904501Y-108904501D01*
X156800000Y-107800000D02*
X156800000Y-102637330D01*
X156800000Y-102637330D02*
X157285690Y-102151640D01*
X157285690Y-102151640D02*
X158242000Y-102151640D01*
X163570098Y-102151640D02*
X164068751Y-102151640D01*
X161861500Y-102151640D02*
X163570098Y-102151640D01*
X165608000Y-102151640D02*
X169291000Y-102151640D01*
X164410457Y-103339196D02*
X164410457Y-102152194D01*
X164410457Y-102152194D02*
X164411011Y-102151640D01*
X164411011Y-102151640D02*
X164068751Y-102151640D01*
X165608000Y-102151640D02*
X164411011Y-102151640D01*
D20*
X169389500Y-109730000D02*
X168310000Y-109730000D01*
X170200000Y-110540500D02*
X169389500Y-109730000D01*
X170200000Y-115110000D02*
X170200000Y-110540500D01*
X168310000Y-117000000D02*
X170200000Y-115110000D01*
X165770000Y-112270000D02*
X167050000Y-110990000D01*
X167050000Y-110990000D02*
X167050000Y-106842470D01*
X167050000Y-106842470D02*
X169291000Y-104601470D01*
X169291000Y-104601470D02*
X169291000Y-103848360D01*
X158150000Y-117000000D02*
X158150000Y-115921000D01*
X158150000Y-115921000D02*
X159471000Y-114600000D01*
X159471000Y-114600000D02*
X163440000Y-114600000D01*
X163440000Y-114600000D02*
X164944501Y-113095499D01*
X164944501Y-113095499D02*
X165770000Y-112270000D01*
X163230000Y-112270000D02*
X162000000Y-111040000D01*
X162000000Y-111040000D02*
X162000000Y-108359470D01*
X162000000Y-108359470D02*
X158242000Y-104601470D01*
X158242000Y-104601470D02*
X158242000Y-103848360D01*
X165420000Y-117000000D02*
X165770000Y-117000000D01*
X165770000Y-109730000D02*
X165770000Y-104010360D01*
X165770000Y-104010360D02*
X165608000Y-103848360D01*
X163230000Y-109730000D02*
X163230000Y-105166060D01*
X163230000Y-105166060D02*
X161912300Y-103848360D01*
X161912300Y-103848360D02*
X161861500Y-103848360D01*
M02*
