G04 #@! TF.FileFunction,Copper,L2,Bot,Signal*
%FSLAX46Y46*%
G04 Gerber Fmt 4.6, Leading zero omitted, Abs format (unit mm)*
G04 Created by KiCad (PCBNEW (2015-03-14 BZR 5513)-product) date Sun 15 Mar 2015 10:21:32 AM CET*
%MOMM*%
G01*
G04 APERTURE LIST*
%ADD10C,0.100000*%
%ADD11C,0.160000*%
%ADD12R,2.032000X3.657600*%
%ADD13R,2.032000X1.016000*%
%ADD14R,1.000000X1.000000*%
%ADD15R,1.651000X1.651000*%
%ADD16C,1.651000*%
%ADD17C,1.000000*%
%ADD18R,1.297940X1.498600*%
%ADD19R,1.650000X1.650000*%
%ADD20C,1.650000*%
%ADD21C,0.889000*%
%ADD22C,0.406400*%
%ADD23C,0.254000*%
%ADD24C,0.200000*%
G04 APERTURE END LIST*
D10*
D11*
X171128571Y-108307142D02*
X171928571Y-108307142D01*
X171166667Y-108307142D02*
X171128571Y-108383333D01*
X171128571Y-108535714D01*
X171166667Y-108611904D01*
X171204762Y-108649999D01*
X171280952Y-108688095D01*
X171509524Y-108688095D01*
X171585714Y-108649999D01*
X171623810Y-108611904D01*
X171661905Y-108535714D01*
X171661905Y-108383333D01*
X171623810Y-108307142D01*
X171128571Y-109373809D02*
X171661905Y-109373809D01*
X171128571Y-109030952D02*
X171547619Y-109030952D01*
X171623810Y-109069047D01*
X171661905Y-109145238D01*
X171661905Y-109259524D01*
X171623810Y-109335714D01*
X171585714Y-109373809D01*
X171661905Y-109869048D02*
X171623810Y-109792857D01*
X171547619Y-109754762D01*
X170861905Y-109754762D01*
X171661905Y-110288096D02*
X171623810Y-110211905D01*
X171547619Y-110173810D01*
X170861905Y-110173810D01*
X171661905Y-110897620D02*
X171052381Y-110897620D01*
X171204762Y-110745239D02*
X171052381Y-110897620D01*
X171204762Y-111050001D01*
X171052381Y-111888096D02*
X171661905Y-111888096D01*
X171509524Y-112040477D02*
X171661905Y-111888096D01*
X171509524Y-111735715D01*
X171661905Y-113030953D02*
X171280952Y-112764286D01*
X171661905Y-112573810D02*
X170861905Y-112573810D01*
X170861905Y-112878572D01*
X170900000Y-112954763D01*
X170938095Y-112992858D01*
X171014286Y-113030953D01*
X171128571Y-113030953D01*
X171204762Y-112992858D01*
X171242857Y-112954763D01*
X171280952Y-112878572D01*
X171280952Y-112573810D01*
D12*
X169802000Y-104500000D03*
D13*
X163198000Y-104500000D03*
X163198000Y-102214000D03*
X163198000Y-106786000D03*
D14*
X163200000Y-104000000D03*
X163200000Y-102700000D03*
D15*
X168310000Y-109730000D03*
D16*
X168310000Y-112270000D03*
X165770000Y-109730000D03*
X165770000Y-112270000D03*
X163230000Y-109730000D03*
X163230000Y-112270000D03*
X160690000Y-109730000D03*
X160690000Y-112270000D03*
D17*
X164500000Y-111000000D03*
X159420000Y-111000000D03*
D18*
X160200000Y-106450000D03*
X158300080Y-106450000D03*
X160199960Y-103300000D03*
X158300040Y-103300000D03*
D19*
X158150000Y-117000000D03*
D20*
X160690000Y-117000000D03*
X163230000Y-117000000D03*
X165770000Y-117000000D03*
X168310000Y-117000000D03*
X170850000Y-117000000D03*
D21*
X164410457Y-103339196D03*
D22*
X163198000Y-102214000D02*
X163198000Y-102698000D01*
X163198000Y-102698000D02*
X163200000Y-102700000D01*
X163200000Y-102216000D02*
X163198000Y-102214000D01*
X158687434Y-114997434D02*
X160197434Y-114997434D01*
X157189777Y-108389777D02*
X157189777Y-113499777D01*
X160197434Y-114997434D02*
X160690000Y-115490000D01*
X157189777Y-113499777D02*
X158687434Y-114997434D01*
X156500000Y-107700000D02*
X157189777Y-108389777D01*
X160690000Y-115490000D02*
X160690000Y-117000000D01*
X160199960Y-102144300D02*
X159855660Y-101800000D01*
X160199960Y-103300000D02*
X160199960Y-102144300D01*
X157004227Y-101800000D02*
X156500000Y-102304227D01*
X159855660Y-101800000D02*
X157004227Y-101800000D01*
X156500000Y-102304227D02*
X156500000Y-107700000D01*
X160269660Y-102214000D02*
X163198000Y-102214000D01*
X160199960Y-102144300D02*
X160269660Y-102214000D01*
X160670000Y-109750000D02*
X160690000Y-109730000D01*
X158300080Y-107605700D02*
X158300080Y-106450000D01*
X158500000Y-107805620D02*
X158300080Y-107605700D01*
X159100000Y-114100000D02*
X158500000Y-113500000D01*
X161496726Y-114100000D02*
X159100000Y-114100000D01*
X163230000Y-115833274D02*
X161496726Y-114100000D01*
X163230000Y-117000000D02*
X163230000Y-115833274D01*
X158533568Y-109730000D02*
X158500000Y-109696432D01*
X160690000Y-109730000D02*
X158533568Y-109730000D01*
X158500000Y-109696432D02*
X158500000Y-107805620D01*
X158500000Y-113500000D02*
X158500000Y-109696432D01*
X161775600Y-106786000D02*
X163198000Y-106786000D01*
X161515499Y-107046101D02*
X161775600Y-106786000D01*
X161515499Y-108904501D02*
X161515499Y-107046101D01*
X160690000Y-109730000D02*
X161515499Y-108904501D01*
X158300040Y-106449960D02*
X158300080Y-106450000D01*
X158300040Y-103300000D02*
X158300040Y-106449960D01*
X159420000Y-111000000D02*
X160690000Y-109730000D01*
X164620400Y-104500000D02*
X169802000Y-104500000D01*
X170300000Y-107350000D02*
X169802000Y-106852000D01*
X169802000Y-106852000D02*
X169802000Y-104500000D01*
X170300000Y-107350000D02*
X170300000Y-111700000D01*
X170300000Y-111700000D02*
X169730000Y-112270000D01*
X169730000Y-112270000D02*
X168310000Y-112270000D01*
X164620400Y-104500000D02*
X164610000Y-104489600D01*
X164610000Y-104489600D02*
X164610000Y-103538739D01*
X164610000Y-103538739D02*
X164410457Y-103339196D01*
X163198000Y-104500000D02*
X163198000Y-104002000D01*
X163198000Y-104002000D02*
X163200000Y-104000000D01*
X163198000Y-104500000D02*
X163249653Y-104500000D01*
X163200000Y-104498000D02*
X163198000Y-104500000D01*
X160200000Y-105294300D02*
X160494300Y-105000000D01*
X160200000Y-106450000D02*
X160200000Y-105294300D01*
X160494300Y-105000000D02*
X160850000Y-105000000D01*
X160850000Y-105000000D02*
X161350000Y-104500000D01*
X161350000Y-104500000D02*
X163198000Y-104500000D01*
X163198000Y-104500000D02*
X164620400Y-104500000D01*
D23*
X170800000Y-116950000D02*
X170850000Y-117000000D01*
X170800000Y-115700000D02*
X170800000Y-116950000D01*
X170050000Y-114950000D02*
X170800000Y-115700000D01*
X165910000Y-114950000D02*
X170050000Y-114950000D01*
X163230000Y-112270000D02*
X165910000Y-114950000D01*
X160690000Y-112270000D02*
X165420000Y-117000000D01*
X165420000Y-117000000D02*
X165770000Y-117000000D01*
X164500000Y-111000000D02*
X165770000Y-109730000D01*
D24*
G36*
X171975000Y-107736666D02*
X171118000Y-107736666D01*
X171118000Y-106388474D01*
X171118000Y-104729000D01*
X171118000Y-104271000D01*
X171118000Y-102611526D01*
X171072328Y-102501263D01*
X170987936Y-102416872D01*
X170877673Y-102371200D01*
X170758326Y-102371200D01*
X170031000Y-102371200D01*
X169956000Y-102446200D01*
X169956000Y-104346000D01*
X171043000Y-104346000D01*
X171118000Y-104271000D01*
X171118000Y-104729000D01*
X171043000Y-104654000D01*
X169956000Y-104654000D01*
X169956000Y-106553800D01*
X170031000Y-106628800D01*
X170758326Y-106628800D01*
X170877673Y-106628800D01*
X170987936Y-106583128D01*
X171072328Y-106498737D01*
X171118000Y-106388474D01*
X171118000Y-107736666D01*
X170200000Y-107736666D01*
X170200000Y-107925000D01*
X169648000Y-107925000D01*
X169648000Y-106553800D01*
X169648000Y-104654000D01*
X169648000Y-104346000D01*
X169648000Y-102446200D01*
X169573000Y-102371200D01*
X168845674Y-102371200D01*
X168726327Y-102371200D01*
X168616064Y-102416872D01*
X168531672Y-102501263D01*
X168486000Y-102611526D01*
X168486000Y-104271000D01*
X168561000Y-104346000D01*
X169648000Y-104346000D01*
X169648000Y-104654000D01*
X168561000Y-104654000D01*
X168486000Y-104729000D01*
X168486000Y-106388474D01*
X168531672Y-106498737D01*
X168616064Y-106583128D01*
X168726327Y-106628800D01*
X168845674Y-106628800D01*
X169573000Y-106628800D01*
X169648000Y-106553800D01*
X169648000Y-107925000D01*
X165225000Y-107925000D01*
X165225000Y-101200000D01*
X171975000Y-101200000D01*
X171975000Y-107736666D01*
X171975000Y-107736666D01*
G37*
X171975000Y-107736666D02*
X171118000Y-107736666D01*
X171118000Y-106388474D01*
X171118000Y-104729000D01*
X171118000Y-104271000D01*
X171118000Y-102611526D01*
X171072328Y-102501263D01*
X170987936Y-102416872D01*
X170877673Y-102371200D01*
X170758326Y-102371200D01*
X170031000Y-102371200D01*
X169956000Y-102446200D01*
X169956000Y-104346000D01*
X171043000Y-104346000D01*
X171118000Y-104271000D01*
X171118000Y-104729000D01*
X171043000Y-104654000D01*
X169956000Y-104654000D01*
X169956000Y-106553800D01*
X170031000Y-106628800D01*
X170758326Y-106628800D01*
X170877673Y-106628800D01*
X170987936Y-106583128D01*
X171072328Y-106498737D01*
X171118000Y-106388474D01*
X171118000Y-107736666D01*
X170200000Y-107736666D01*
X170200000Y-107925000D01*
X169648000Y-107925000D01*
X169648000Y-106553800D01*
X169648000Y-104654000D01*
X169648000Y-104346000D01*
X169648000Y-102446200D01*
X169573000Y-102371200D01*
X168845674Y-102371200D01*
X168726327Y-102371200D01*
X168616064Y-102416872D01*
X168531672Y-102501263D01*
X168486000Y-102611526D01*
X168486000Y-104271000D01*
X168561000Y-104346000D01*
X169648000Y-104346000D01*
X169648000Y-104654000D01*
X168561000Y-104654000D01*
X168486000Y-104729000D01*
X168486000Y-106388474D01*
X168531672Y-106498737D01*
X168616064Y-106583128D01*
X168726327Y-106628800D01*
X168845674Y-106628800D01*
X169573000Y-106628800D01*
X169648000Y-106553800D01*
X169648000Y-107925000D01*
X165225000Y-107925000D01*
X165225000Y-101200000D01*
X171975000Y-101200000D01*
X171975000Y-107736666D01*
M02*
