G04 #@! TF.FileFunction,Legend,Bot*
%FSLAX46Y46*%
G04 Gerber Fmt 4.6, Leading zero omitted, Abs format (unit mm)*
G04 Created by KiCad (PCBNEW (2015-03-12 BZR 5508)-product) date Fri 13 Mar 2015 06:21:04 PM CET*
%MOMM*%
G01*
G04 APERTURE LIST*
%ADD10C,0.100000*%
%ADD11C,0.200000*%
%ADD12C,0.150000*%
%ADD13R,1.701800X1.701800*%
%ADD14C,1.701800*%
%ADD15C,1.050800*%
%ADD16R,2.082800X3.708400*%
%ADD17R,2.082800X1.066800*%
%ADD18R,1.300000X1.300000*%
%ADD19R,1.348740X1.549400*%
%ADD20R,1.700800X1.700800*%
%ADD21C,1.700800*%
G04 APERTURE END LIST*
D10*
D11*
X157168571Y-108861429D02*
X157168571Y-108528095D01*
X157692381Y-108528095D02*
X156692381Y-108528095D01*
X156692381Y-109004286D01*
X156692381Y-109290000D02*
X157692381Y-109528095D01*
X156978095Y-109718572D01*
X157692381Y-109909048D01*
X156692381Y-110147143D01*
X158292381Y-108504286D02*
X159101905Y-108504286D01*
X159197143Y-108551905D01*
X159244762Y-108599524D01*
X159292381Y-108694762D01*
X159292381Y-108885239D01*
X159244762Y-108980477D01*
X159197143Y-109028096D01*
X159101905Y-109075715D01*
X158292381Y-109075715D01*
X159292381Y-109551905D02*
X158292381Y-109551905D01*
X158292381Y-109932858D01*
X158340000Y-110028096D01*
X158387619Y-110075715D01*
X158482857Y-110123334D01*
X158625714Y-110123334D01*
X158720952Y-110075715D01*
X158768571Y-110028096D01*
X158816190Y-109932858D01*
X158816190Y-109551905D01*
X166566667Y-101359524D02*
X166566667Y-101835715D01*
X166852381Y-101264286D02*
X165852381Y-101597619D01*
X166852381Y-101930953D01*
X166852381Y-102264286D02*
X165852381Y-102264286D01*
X166566667Y-102597620D01*
X165852381Y-102930953D01*
X166852381Y-102930953D01*
X166804762Y-103359524D02*
X166852381Y-103502381D01*
X166852381Y-103740477D01*
X166804762Y-103835715D01*
X166757143Y-103883334D01*
X166661905Y-103930953D01*
X166566667Y-103930953D01*
X166471429Y-103883334D01*
X166423810Y-103835715D01*
X166376190Y-103740477D01*
X166328571Y-103550000D01*
X166280952Y-103454762D01*
X166233333Y-103407143D01*
X166138095Y-103359524D01*
X166042857Y-103359524D01*
X165947619Y-103407143D01*
X165900000Y-103454762D01*
X165852381Y-103550000D01*
X165852381Y-103788096D01*
X165900000Y-103930953D01*
X166852381Y-104883334D02*
X166852381Y-104311905D01*
X166852381Y-104597619D02*
X165852381Y-104597619D01*
X165995238Y-104502381D01*
X166090476Y-104407143D01*
X166138095Y-104311905D01*
X166852381Y-105835715D02*
X166852381Y-105264286D01*
X166852381Y-105550000D02*
X165852381Y-105550000D01*
X165995238Y-105454762D01*
X166090476Y-105359524D01*
X166138095Y-105264286D01*
X166852381Y-106788096D02*
X166852381Y-106216667D01*
X166852381Y-106502381D02*
X165852381Y-106502381D01*
X165995238Y-106407143D01*
X166090476Y-106311905D01*
X166138095Y-106216667D01*
X165852381Y-107121429D02*
X165852381Y-107788096D01*
X166852381Y-107359524D01*
X155392381Y-111948572D02*
X155392381Y-112567620D01*
X155773333Y-112234286D01*
X155773333Y-112377144D01*
X155820952Y-112472382D01*
X155868571Y-112520001D01*
X155963810Y-112567620D01*
X156201905Y-112567620D01*
X156297143Y-112520001D01*
X156344762Y-112472382D01*
X156392381Y-112377144D01*
X156392381Y-112091429D01*
X156344762Y-111996191D01*
X156297143Y-111948572D01*
X156297143Y-112996191D02*
X156344762Y-113043810D01*
X156392381Y-112996191D01*
X156344762Y-112948572D01*
X156297143Y-112996191D01*
X156392381Y-112996191D01*
X155392381Y-113377143D02*
X155392381Y-113996191D01*
X155773333Y-113662857D01*
X155773333Y-113805715D01*
X155820952Y-113900953D01*
X155868571Y-113948572D01*
X155963810Y-113996191D01*
X156201905Y-113996191D01*
X156297143Y-113948572D01*
X156344762Y-113900953D01*
X156392381Y-113805715D01*
X156392381Y-113520000D01*
X156344762Y-113424762D01*
X156297143Y-113377143D01*
X155392381Y-114281905D02*
X156392381Y-114615238D01*
X155392381Y-114948572D01*
X156344762Y-115996191D02*
X156392381Y-116139048D01*
X156392381Y-116377144D01*
X156344762Y-116472382D01*
X156297143Y-116520001D01*
X156201905Y-116567620D01*
X156106667Y-116567620D01*
X156011429Y-116520001D01*
X155963810Y-116472382D01*
X155916190Y-116377144D01*
X155868571Y-116186667D01*
X155820952Y-116091429D01*
X155773333Y-116043810D01*
X155678095Y-115996191D01*
X155582857Y-115996191D01*
X155487619Y-116043810D01*
X155440000Y-116091429D01*
X155392381Y-116186667D01*
X155392381Y-116424763D01*
X155440000Y-116567620D01*
X156392381Y-116996191D02*
X155392381Y-116996191D01*
X155440000Y-117996191D02*
X155392381Y-117900953D01*
X155392381Y-117758096D01*
X155440000Y-117615238D01*
X155535238Y-117520000D01*
X155630476Y-117472381D01*
X155820952Y-117424762D01*
X155963810Y-117424762D01*
X156154286Y-117472381D01*
X156249524Y-117520000D01*
X156344762Y-117615238D01*
X156392381Y-117758096D01*
X156392381Y-117853334D01*
X156344762Y-117996191D01*
X156297143Y-118043810D01*
X155963810Y-118043810D01*
X155963810Y-117853334D01*
X171297143Y-110915715D02*
X171344762Y-110868096D01*
X171392381Y-110725239D01*
X171392381Y-110630001D01*
X171344762Y-110487143D01*
X171249524Y-110391905D01*
X171154286Y-110344286D01*
X170963810Y-110296667D01*
X170820952Y-110296667D01*
X170630476Y-110344286D01*
X170535238Y-110391905D01*
X170440000Y-110487143D01*
X170392381Y-110630001D01*
X170392381Y-110725239D01*
X170440000Y-110868096D01*
X170487619Y-110915715D01*
X171392381Y-111344286D02*
X170392381Y-111344286D01*
X170868571Y-111344286D02*
X170868571Y-111915715D01*
X171392381Y-111915715D02*
X170392381Y-111915715D01*
X171487619Y-112153810D02*
X171487619Y-112915715D01*
X171392381Y-113153810D02*
X170392381Y-113153810D01*
X170392381Y-113534763D01*
X170440000Y-113630001D01*
X170487619Y-113677620D01*
X170582857Y-113725239D01*
X170725714Y-113725239D01*
X170820952Y-113677620D01*
X170868571Y-113630001D01*
X170916190Y-113534763D01*
X170916190Y-113153810D01*
X171392381Y-114153810D02*
X170392381Y-114153810D01*
X170392381Y-114391905D01*
X170440000Y-114534763D01*
X170535238Y-114630001D01*
X170630476Y-114677620D01*
X170820952Y-114725239D01*
X170963810Y-114725239D01*
X171154286Y-114677620D01*
X171249524Y-114630001D01*
X171344762Y-114534763D01*
X171392381Y-114391905D01*
X171392381Y-114153810D01*
X170220000Y-110106191D02*
X170220000Y-114915715D01*
X170630476Y-115534763D02*
X171392381Y-115534763D01*
X171201905Y-115725239D02*
X171392381Y-115534763D01*
X171201905Y-115344286D01*
X168752381Y-114703334D02*
X168276190Y-114370000D01*
X168752381Y-114131905D02*
X167752381Y-114131905D01*
X167752381Y-114512858D01*
X167800000Y-114608096D01*
X167847619Y-114655715D01*
X167942857Y-114703334D01*
X168085714Y-114703334D01*
X168180952Y-114655715D01*
X168228571Y-114608096D01*
X168276190Y-114512858D01*
X168276190Y-114131905D01*
X167752381Y-115036667D02*
X168752381Y-115703334D01*
X167752381Y-115703334D02*
X168752381Y-115036667D01*
X165232381Y-114228095D02*
X165232381Y-114799524D01*
X166232381Y-114513809D02*
X165232381Y-114513809D01*
X165232381Y-115037619D02*
X166232381Y-115704286D01*
X165232381Y-115704286D02*
X166232381Y-115037619D01*
X163221429Y-114929048D02*
X163221429Y-115690953D01*
X160112381Y-114699524D02*
X160112381Y-114223333D01*
X160588571Y-114175714D01*
X160540952Y-114223333D01*
X160493333Y-114318571D01*
X160493333Y-114556667D01*
X160540952Y-114651905D01*
X160588571Y-114699524D01*
X160683810Y-114747143D01*
X160921905Y-114747143D01*
X161017143Y-114699524D01*
X161064762Y-114651905D01*
X161112381Y-114556667D01*
X161112381Y-114318571D01*
X161064762Y-114223333D01*
X161017143Y-114175714D01*
X160112381Y-115032857D02*
X161112381Y-115366190D01*
X160112381Y-115699524D01*
X158612381Y-113013334D02*
X158136190Y-112680000D01*
X158612381Y-112441905D02*
X157612381Y-112441905D01*
X157612381Y-112822858D01*
X157660000Y-112918096D01*
X157707619Y-112965715D01*
X157802857Y-113013334D01*
X157945714Y-113013334D01*
X158040952Y-112965715D01*
X158088571Y-112918096D01*
X158136190Y-112822858D01*
X158136190Y-112441905D01*
X158564762Y-113394286D02*
X158612381Y-113537143D01*
X158612381Y-113775239D01*
X158564762Y-113870477D01*
X158517143Y-113918096D01*
X158421905Y-113965715D01*
X158326667Y-113965715D01*
X158231429Y-113918096D01*
X158183810Y-113870477D01*
X158136190Y-113775239D01*
X158088571Y-113584762D01*
X158040952Y-113489524D01*
X157993333Y-113441905D01*
X157898095Y-113394286D01*
X157802857Y-113394286D01*
X157707619Y-113441905D01*
X157660000Y-113489524D01*
X157612381Y-113584762D01*
X157612381Y-113822858D01*
X157660000Y-113965715D01*
X157612381Y-114251429D02*
X157612381Y-114822858D01*
X158612381Y-114537143D02*
X157612381Y-114537143D01*
X157440000Y-112203810D02*
X157440000Y-114918096D01*
X158612381Y-115537144D02*
X157850476Y-115537144D01*
X158040952Y-115346667D02*
X157850476Y-115537144D01*
X158040952Y-115727620D01*
X160309000Y-111000000D02*
X163611000Y-111000000D01*
X160182000Y-111000000D02*
G75*
G03X160182000Y-111000000I-762000J0D01*
G01*
X165262000Y-111000000D02*
G75*
G03X165262000Y-111000000I-762000J0D01*
G01*
D12*
X164976000Y-108056000D02*
X161928000Y-108056000D01*
X161928000Y-108056000D02*
X161928000Y-100944000D01*
X161928000Y-100944000D02*
X164976000Y-100944000D01*
X168024000Y-108056000D02*
X168786000Y-108056000D01*
X168786000Y-108056000D02*
X171072000Y-106532000D01*
X171072000Y-106532000D02*
X171072000Y-102468000D01*
X171072000Y-102468000D02*
X168786000Y-100944000D01*
X168786000Y-100944000D02*
X168024000Y-100944000D01*
D11*
X157250040Y-105350000D02*
X161250040Y-105350000D01*
X157250040Y-105350000D02*
X157250040Y-107550000D01*
X157250040Y-107550000D02*
X161250040Y-107550000D01*
X161250040Y-107550000D02*
X161250040Y-105350000D01*
X157250000Y-102200000D02*
X161250000Y-102200000D01*
X157250000Y-102200000D02*
X157250000Y-104400000D01*
X157250000Y-104400000D02*
X161250000Y-104400000D01*
X161250000Y-104400000D02*
X161250000Y-102200000D01*
X156557143Y-106183334D02*
X156604762Y-106135715D01*
X156652381Y-105992858D01*
X156652381Y-105897620D01*
X156604762Y-105754762D01*
X156509524Y-105659524D01*
X156414286Y-105611905D01*
X156223810Y-105564286D01*
X156080952Y-105564286D01*
X155890476Y-105611905D01*
X155795238Y-105659524D01*
X155700000Y-105754762D01*
X155652381Y-105897620D01*
X155652381Y-105992858D01*
X155700000Y-106135715D01*
X155747619Y-106183334D01*
X155747619Y-106564286D02*
X155700000Y-106611905D01*
X155652381Y-106707143D01*
X155652381Y-106945239D01*
X155700000Y-107040477D01*
X155747619Y-107088096D01*
X155842857Y-107135715D01*
X155938095Y-107135715D01*
X156080952Y-107088096D01*
X156652381Y-106516667D01*
X156652381Y-107135715D01*
X156607103Y-103083334D02*
X156654722Y-103035715D01*
X156702341Y-102892858D01*
X156702341Y-102797620D01*
X156654722Y-102654762D01*
X156559484Y-102559524D01*
X156464246Y-102511905D01*
X156273770Y-102464286D01*
X156130912Y-102464286D01*
X155940436Y-102511905D01*
X155845198Y-102559524D01*
X155749960Y-102654762D01*
X155702341Y-102797620D01*
X155702341Y-102892858D01*
X155749960Y-103035715D01*
X155797579Y-103083334D01*
X156702341Y-104035715D02*
X156702341Y-103464286D01*
X156702341Y-103750000D02*
X155702341Y-103750000D01*
X155845198Y-103654762D01*
X155940436Y-103559524D01*
X155988055Y-103464286D01*
%LPC*%
D13*
X168310000Y-109730000D03*
D14*
X168310000Y-112270000D03*
X165770000Y-109730000D03*
X165770000Y-112270000D03*
X163230000Y-109730000D03*
X163230000Y-112270000D03*
X160690000Y-109730000D03*
X160690000Y-112270000D03*
D15*
X164500000Y-111000000D03*
X159420000Y-111000000D03*
D16*
X169802000Y-104500000D03*
D17*
X163198000Y-104500000D03*
X163198000Y-102214000D03*
X163198000Y-106786000D03*
D18*
X163200000Y-104000000D03*
X163200000Y-102700000D03*
D19*
X160200000Y-106450000D03*
X158300080Y-106450000D03*
X160199960Y-103300000D03*
X158300040Y-103300000D03*
D20*
X158150000Y-117000000D03*
D21*
X160690000Y-117000000D03*
X163230000Y-117000000D03*
X165770000Y-117000000D03*
X168310000Y-117000000D03*
X170850000Y-117000000D03*
M02*
