G04 #@! TF.FileFunction,Legend,Bot*
%FSLAX46Y46*%
G04 Gerber Fmt 4.6, Leading zero omitted, Abs format (unit mm)*
G04 Created by KiCad (PCBNEW (2015-03-11 BZR 5507)-product) date Thu 12 Mar 2015 01:37:59 PM CET*
%MOMM*%
G01*
G04 APERTURE LIST*
%ADD10C,0.100000*%
%ADD11C,0.200000*%
%ADD12C,0.150000*%
G04 APERTURE END LIST*
D10*
D11*
X157050040Y-103900000D02*
X161050040Y-103900000D01*
X157050040Y-103900000D02*
X157050040Y-106100000D01*
X157050040Y-106100000D02*
X161050040Y-106100000D01*
X161050040Y-106100000D02*
X161050040Y-103900000D01*
X157050040Y-100900000D02*
X161050040Y-100900000D01*
X157050040Y-100900000D02*
X157050040Y-103100000D01*
X157050040Y-103100000D02*
X161050040Y-103100000D01*
X161050040Y-103100000D02*
X161050040Y-100900000D01*
D12*
X164476000Y-107056000D02*
X161428000Y-107056000D01*
X161428000Y-107056000D02*
X161428000Y-99944000D01*
X161428000Y-99944000D02*
X164476000Y-99944000D01*
X167524000Y-107056000D02*
X168286000Y-107056000D01*
X168286000Y-107056000D02*
X170572000Y-105532000D01*
X170572000Y-105532000D02*
X170572000Y-101468000D01*
X170572000Y-101468000D02*
X168286000Y-99944000D01*
X168286000Y-99944000D02*
X167524000Y-99944000D01*
D11*
X159216706Y-107357143D02*
X159264325Y-107404762D01*
X159407182Y-107452381D01*
X159502420Y-107452381D01*
X159645278Y-107404762D01*
X159740516Y-107309524D01*
X159788135Y-107214286D01*
X159835754Y-107023810D01*
X159835754Y-106880952D01*
X159788135Y-106690476D01*
X159740516Y-106595238D01*
X159645278Y-106500000D01*
X159502420Y-106452381D01*
X159407182Y-106452381D01*
X159264325Y-106500000D01*
X159216706Y-106547619D01*
X158835754Y-106547619D02*
X158788135Y-106500000D01*
X158692897Y-106452381D01*
X158454801Y-106452381D01*
X158359563Y-106500000D01*
X158311944Y-106547619D01*
X158264325Y-106642857D01*
X158264325Y-106738095D01*
X158311944Y-106880952D01*
X158883373Y-107452381D01*
X158264325Y-107452381D01*
X159216706Y-100357143D02*
X159264325Y-100404762D01*
X159407182Y-100452381D01*
X159502420Y-100452381D01*
X159645278Y-100404762D01*
X159740516Y-100309524D01*
X159788135Y-100214286D01*
X159835754Y-100023810D01*
X159835754Y-99880952D01*
X159788135Y-99690476D01*
X159740516Y-99595238D01*
X159645278Y-99500000D01*
X159502420Y-99452381D01*
X159407182Y-99452381D01*
X159264325Y-99500000D01*
X159216706Y-99547619D01*
X158264325Y-100452381D02*
X158835754Y-100452381D01*
X158550040Y-100452381D02*
X158550040Y-99452381D01*
X158645278Y-99595238D01*
X158740516Y-99690476D01*
X158835754Y-99738095D01*
D12*
X170952381Y-102738095D02*
X171761905Y-102738095D01*
X171857143Y-102785714D01*
X171904762Y-102833333D01*
X171952381Y-102928571D01*
X171952381Y-103119048D01*
X171904762Y-103214286D01*
X171857143Y-103261905D01*
X171761905Y-103309524D01*
X170952381Y-103309524D01*
X171952381Y-104309524D02*
X171952381Y-103738095D01*
X171952381Y-104023809D02*
X170952381Y-104023809D01*
X171095238Y-103928571D01*
X171190476Y-103833333D01*
X171238095Y-103738095D01*
X170700000Y-99066667D02*
X170223809Y-99066667D01*
X170795238Y-99352381D02*
X170461905Y-98352381D01*
X170128571Y-99352381D01*
X169795238Y-99352381D02*
X169795238Y-98352381D01*
X169461904Y-99066667D01*
X169128571Y-98352381D01*
X169128571Y-99352381D01*
X168700000Y-99304762D02*
X168557143Y-99352381D01*
X168319047Y-99352381D01*
X168223809Y-99304762D01*
X168176190Y-99257143D01*
X168128571Y-99161905D01*
X168128571Y-99066667D01*
X168176190Y-98971429D01*
X168223809Y-98923810D01*
X168319047Y-98876190D01*
X168509524Y-98828571D01*
X168604762Y-98780952D01*
X168652381Y-98733333D01*
X168700000Y-98638095D01*
X168700000Y-98542857D01*
X168652381Y-98447619D01*
X168604762Y-98400000D01*
X168509524Y-98352381D01*
X168271428Y-98352381D01*
X168128571Y-98400000D01*
X167176190Y-99352381D02*
X167747619Y-99352381D01*
X167461905Y-99352381D02*
X167461905Y-98352381D01*
X167557143Y-98495238D01*
X167652381Y-98590476D01*
X167747619Y-98638095D01*
X166223809Y-99352381D02*
X166795238Y-99352381D01*
X166509524Y-99352381D02*
X166509524Y-98352381D01*
X166604762Y-98495238D01*
X166700000Y-98590476D01*
X166795238Y-98638095D01*
X165271428Y-99352381D02*
X165842857Y-99352381D01*
X165557143Y-99352381D02*
X165557143Y-98352381D01*
X165652381Y-98495238D01*
X165747619Y-98590476D01*
X165842857Y-98638095D01*
X164938095Y-98352381D02*
X164271428Y-98352381D01*
X164700000Y-99352381D01*
X163890476Y-98971429D02*
X163128571Y-98971429D01*
X162747619Y-98352381D02*
X162128571Y-98352381D01*
X162461905Y-98733333D01*
X162319047Y-98733333D01*
X162223809Y-98780952D01*
X162176190Y-98828571D01*
X162128571Y-98923810D01*
X162128571Y-99161905D01*
X162176190Y-99257143D01*
X162223809Y-99304762D01*
X162319047Y-99352381D01*
X162604762Y-99352381D01*
X162700000Y-99304762D01*
X162747619Y-99257143D01*
X161700000Y-99257143D02*
X161652381Y-99304762D01*
X161700000Y-99352381D01*
X161747619Y-99304762D01*
X161700000Y-99257143D01*
X161700000Y-99352381D01*
X161319048Y-98352381D02*
X160700000Y-98352381D01*
X161033334Y-98733333D01*
X160890476Y-98733333D01*
X160795238Y-98780952D01*
X160747619Y-98828571D01*
X160700000Y-98923810D01*
X160700000Y-99161905D01*
X160747619Y-99257143D01*
X160795238Y-99304762D01*
X160890476Y-99352381D01*
X161176191Y-99352381D01*
X161271429Y-99304762D01*
X161319048Y-99257143D01*
M02*
