G04 #@! TF.FileFunction,Legend,Bot*
%FSLAX46Y46*%
G04 Gerber Fmt 4.6, Leading zero omitted, Abs format (unit mm)*
G04 Created by KiCad (PCBNEW (2015-03-18 BZR 5525)-product) date Thu 19 Mar 2015 08:00:53 PM CET*
%MOMM*%
G01*
G04 APERTURE LIST*
%ADD10C,0.100000*%
%ADD11C,0.200000*%
%ADD12C,0.150000*%
%ADD13R,1.701800X1.701800*%
%ADD14C,1.701800*%
%ADD15C,1.050800*%
%ADD16R,2.082800X3.708400*%
%ADD17R,2.082800X1.066800*%
%ADD18R,1.050800X1.050800*%
%ADD19R,1.150800X1.250800*%
%ADD20R,1.348740X1.549400*%
%ADD21R,1.700800X1.700800*%
%ADD22C,1.700800*%
G04 APERTURE END LIST*
D10*
D11*
X156500000Y-111050000D02*
X159625000Y-111050000D01*
X156500000Y-109075000D02*
X156500000Y-111050000D01*
X169275000Y-111050000D02*
X159625000Y-111050000D01*
X169950000Y-110350000D02*
X169275000Y-111050000D01*
X170850000Y-110350000D02*
X169950000Y-110350000D01*
X165046667Y-103411905D02*
X165046667Y-103888096D01*
X165289524Y-103316667D02*
X164439524Y-103650000D01*
X165289524Y-103983334D01*
X164439524Y-104316667D02*
X165127619Y-104316667D01*
X165208571Y-104364286D01*
X165249048Y-104411905D01*
X165289524Y-104507143D01*
X165289524Y-104697620D01*
X165249048Y-104792858D01*
X165208571Y-104840477D01*
X165127619Y-104888096D01*
X164439524Y-104888096D01*
X164439524Y-105269048D02*
X165289524Y-105935715D01*
X164439524Y-105935715D02*
X165289524Y-105269048D01*
X165829524Y-101364286D02*
X165829524Y-101983334D01*
X166153333Y-101650000D01*
X166153333Y-101792858D01*
X166193810Y-101888096D01*
X166234286Y-101935715D01*
X166315238Y-101983334D01*
X166517619Y-101983334D01*
X166598571Y-101935715D01*
X166639048Y-101888096D01*
X166679524Y-101792858D01*
X166679524Y-101507143D01*
X166639048Y-101411905D01*
X166598571Y-101364286D01*
X166598571Y-102411905D02*
X166639048Y-102459524D01*
X166679524Y-102411905D01*
X166639048Y-102364286D01*
X166598571Y-102411905D01*
X166679524Y-102411905D01*
X165829524Y-102792857D02*
X165829524Y-103411905D01*
X166153333Y-103078571D01*
X166153333Y-103221429D01*
X166193810Y-103316667D01*
X166234286Y-103364286D01*
X166315238Y-103411905D01*
X166517619Y-103411905D01*
X166598571Y-103364286D01*
X166639048Y-103316667D01*
X166679524Y-103221429D01*
X166679524Y-102935714D01*
X166639048Y-102840476D01*
X166598571Y-102792857D01*
X165829524Y-103697619D02*
X166679524Y-104030952D01*
X165829524Y-104364286D01*
X166679524Y-105459524D02*
X166112857Y-105459524D01*
X166274762Y-105459524D02*
X166193810Y-105507143D01*
X166153333Y-105554762D01*
X166112857Y-105650000D01*
X166112857Y-105745239D01*
X166639048Y-106459525D02*
X166679524Y-106364287D01*
X166679524Y-106173810D01*
X166639048Y-106078572D01*
X166558095Y-106030953D01*
X166234286Y-106030953D01*
X166153333Y-106078572D01*
X166112857Y-106173810D01*
X166112857Y-106364287D01*
X166153333Y-106459525D01*
X166234286Y-106507144D01*
X166315238Y-106507144D01*
X166396190Y-106030953D01*
X166112857Y-107364287D02*
X166800952Y-107364287D01*
X166881905Y-107316668D01*
X166922381Y-107269049D01*
X166962857Y-107173810D01*
X166962857Y-107030953D01*
X166922381Y-106935715D01*
X166639048Y-107364287D02*
X166679524Y-107269049D01*
X166679524Y-107078572D01*
X166639048Y-106983334D01*
X166598571Y-106935715D01*
X166517619Y-106888096D01*
X166274762Y-106888096D01*
X166193810Y-106935715D01*
X166153333Y-106983334D01*
X166112857Y-107078572D01*
X166112857Y-107269049D01*
X166153333Y-107364287D01*
X166598571Y-107840477D02*
X166639048Y-107888096D01*
X166679524Y-107840477D01*
X166639048Y-107792858D01*
X166598571Y-107840477D01*
X166679524Y-107840477D01*
X157428571Y-109396429D02*
X157428571Y-109063095D01*
X157952381Y-109063095D02*
X156952381Y-109063095D01*
X156952381Y-109539286D01*
X156952381Y-109825000D02*
X157952381Y-110063095D01*
X157238095Y-110253572D01*
X157952381Y-110444048D01*
X156952381Y-110682143D01*
X158552381Y-109039286D02*
X159361905Y-109039286D01*
X159457143Y-109086905D01*
X159504762Y-109134524D01*
X159552381Y-109229762D01*
X159552381Y-109420239D01*
X159504762Y-109515477D01*
X159457143Y-109563096D01*
X159361905Y-109610715D01*
X158552381Y-109610715D01*
X159552381Y-110086905D02*
X158552381Y-110086905D01*
X158552381Y-110467858D01*
X158600000Y-110563096D01*
X158647619Y-110610715D01*
X158742857Y-110658334D01*
X158885714Y-110658334D01*
X158980952Y-110610715D01*
X159028571Y-110563096D01*
X159076190Y-110467858D01*
X159076190Y-110086905D01*
X168116667Y-101359524D02*
X168116667Y-101835715D01*
X168402381Y-101264286D02*
X167402381Y-101597619D01*
X168402381Y-101930953D01*
X168402381Y-102264286D02*
X167402381Y-102264286D01*
X168116667Y-102597620D01*
X167402381Y-102930953D01*
X168402381Y-102930953D01*
X168354762Y-103359524D02*
X168402381Y-103502381D01*
X168402381Y-103740477D01*
X168354762Y-103835715D01*
X168307143Y-103883334D01*
X168211905Y-103930953D01*
X168116667Y-103930953D01*
X168021429Y-103883334D01*
X167973810Y-103835715D01*
X167926190Y-103740477D01*
X167878571Y-103550000D01*
X167830952Y-103454762D01*
X167783333Y-103407143D01*
X167688095Y-103359524D01*
X167592857Y-103359524D01*
X167497619Y-103407143D01*
X167450000Y-103454762D01*
X167402381Y-103550000D01*
X167402381Y-103788096D01*
X167450000Y-103930953D01*
X168402381Y-104883334D02*
X168402381Y-104311905D01*
X168402381Y-104597619D02*
X167402381Y-104597619D01*
X167545238Y-104502381D01*
X167640476Y-104407143D01*
X167688095Y-104311905D01*
X168402381Y-105835715D02*
X168402381Y-105264286D01*
X168402381Y-105550000D02*
X167402381Y-105550000D01*
X167545238Y-105454762D01*
X167640476Y-105359524D01*
X167688095Y-105264286D01*
X168402381Y-106788096D02*
X168402381Y-106216667D01*
X168402381Y-106502381D02*
X167402381Y-106502381D01*
X167545238Y-106407143D01*
X167640476Y-106311905D01*
X167688095Y-106216667D01*
X167402381Y-107121429D02*
X167402381Y-107788096D01*
X168402381Y-107359524D01*
X155392381Y-111948572D02*
X155392381Y-112567620D01*
X155773333Y-112234286D01*
X155773333Y-112377144D01*
X155820952Y-112472382D01*
X155868571Y-112520001D01*
X155963810Y-112567620D01*
X156201905Y-112567620D01*
X156297143Y-112520001D01*
X156344762Y-112472382D01*
X156392381Y-112377144D01*
X156392381Y-112091429D01*
X156344762Y-111996191D01*
X156297143Y-111948572D01*
X156297143Y-112996191D02*
X156344762Y-113043810D01*
X156392381Y-112996191D01*
X156344762Y-112948572D01*
X156297143Y-112996191D01*
X156392381Y-112996191D01*
X155392381Y-113377143D02*
X155392381Y-113996191D01*
X155773333Y-113662857D01*
X155773333Y-113805715D01*
X155820952Y-113900953D01*
X155868571Y-113948572D01*
X155963810Y-113996191D01*
X156201905Y-113996191D01*
X156297143Y-113948572D01*
X156344762Y-113900953D01*
X156392381Y-113805715D01*
X156392381Y-113520000D01*
X156344762Y-113424762D01*
X156297143Y-113377143D01*
X155392381Y-114281905D02*
X156392381Y-114615238D01*
X155392381Y-114948572D01*
X156344762Y-115996191D02*
X156392381Y-116139048D01*
X156392381Y-116377144D01*
X156344762Y-116472382D01*
X156297143Y-116520001D01*
X156201905Y-116567620D01*
X156106667Y-116567620D01*
X156011429Y-116520001D01*
X155963810Y-116472382D01*
X155916190Y-116377144D01*
X155868571Y-116186667D01*
X155820952Y-116091429D01*
X155773333Y-116043810D01*
X155678095Y-115996191D01*
X155582857Y-115996191D01*
X155487619Y-116043810D01*
X155440000Y-116091429D01*
X155392381Y-116186667D01*
X155392381Y-116424763D01*
X155440000Y-116567620D01*
X156392381Y-116996191D02*
X155392381Y-116996191D01*
X155440000Y-117996191D02*
X155392381Y-117900953D01*
X155392381Y-117758096D01*
X155440000Y-117615238D01*
X155535238Y-117520000D01*
X155630476Y-117472381D01*
X155820952Y-117424762D01*
X155963810Y-117424762D01*
X156154286Y-117472381D01*
X156249524Y-117520000D01*
X156344762Y-117615238D01*
X156392381Y-117758096D01*
X156392381Y-117853334D01*
X156344762Y-117996191D01*
X156297143Y-118043810D01*
X155963810Y-118043810D01*
X155963810Y-117853334D01*
X170803571Y-113167857D02*
X170803571Y-113501191D01*
X171327381Y-113644048D02*
X171327381Y-113167857D01*
X170327381Y-113167857D01*
X170327381Y-113644048D01*
X171327381Y-114072619D02*
X170327381Y-114072619D01*
X171327381Y-114644048D01*
X170327381Y-114644048D01*
X170565476Y-115501191D02*
X171327381Y-115501191D01*
X171136905Y-115691667D02*
X171327381Y-115501191D01*
X171136905Y-115310714D01*
X168752381Y-114703334D02*
X168276190Y-114370000D01*
X168752381Y-114131905D02*
X167752381Y-114131905D01*
X167752381Y-114512858D01*
X167800000Y-114608096D01*
X167847619Y-114655715D01*
X167942857Y-114703334D01*
X168085714Y-114703334D01*
X168180952Y-114655715D01*
X168228571Y-114608096D01*
X168276190Y-114512858D01*
X168276190Y-114131905D01*
X167752381Y-115036667D02*
X168752381Y-115703334D01*
X167752381Y-115703334D02*
X168752381Y-115036667D01*
X165232381Y-114228095D02*
X165232381Y-114799524D01*
X166232381Y-114513809D02*
X165232381Y-114513809D01*
X165232381Y-115037619D02*
X166232381Y-115704286D01*
X165232381Y-115704286D02*
X166232381Y-115037619D01*
X163221429Y-114929048D02*
X163221429Y-115690953D01*
X160112381Y-114699524D02*
X160112381Y-114223333D01*
X160588571Y-114175714D01*
X160540952Y-114223333D01*
X160493333Y-114318571D01*
X160493333Y-114556667D01*
X160540952Y-114651905D01*
X160588571Y-114699524D01*
X160683810Y-114747143D01*
X160921905Y-114747143D01*
X161017143Y-114699524D01*
X161064762Y-114651905D01*
X161112381Y-114556667D01*
X161112381Y-114318571D01*
X161064762Y-114223333D01*
X161017143Y-114175714D01*
X160112381Y-115032857D02*
X161112381Y-115366190D01*
X160112381Y-115699524D01*
X158612381Y-113013334D02*
X158136190Y-112680000D01*
X158612381Y-112441905D02*
X157612381Y-112441905D01*
X157612381Y-112822858D01*
X157660000Y-112918096D01*
X157707619Y-112965715D01*
X157802857Y-113013334D01*
X157945714Y-113013334D01*
X158040952Y-112965715D01*
X158088571Y-112918096D01*
X158136190Y-112822858D01*
X158136190Y-112441905D01*
X158564762Y-113394286D02*
X158612381Y-113537143D01*
X158612381Y-113775239D01*
X158564762Y-113870477D01*
X158517143Y-113918096D01*
X158421905Y-113965715D01*
X158326667Y-113965715D01*
X158231429Y-113918096D01*
X158183810Y-113870477D01*
X158136190Y-113775239D01*
X158088571Y-113584762D01*
X158040952Y-113489524D01*
X157993333Y-113441905D01*
X157898095Y-113394286D01*
X157802857Y-113394286D01*
X157707619Y-113441905D01*
X157660000Y-113489524D01*
X157612381Y-113584762D01*
X157612381Y-113822858D01*
X157660000Y-113965715D01*
X157612381Y-114251429D02*
X157612381Y-114822858D01*
X158612381Y-114537143D02*
X157612381Y-114537143D01*
X157440000Y-112203810D02*
X157440000Y-114918096D01*
X158612381Y-115537144D02*
X157850476Y-115537144D01*
X158040952Y-115346667D02*
X157850476Y-115537144D01*
X158040952Y-115727620D01*
X170850000Y-109984000D02*
X170850000Y-110746000D01*
X171612000Y-111635000D02*
G75*
G03X171612000Y-111635000I-762000J0D01*
G01*
X171612000Y-109095000D02*
G75*
G03X171612000Y-109095000I-762000J0D01*
G01*
D12*
X164976000Y-108056000D02*
X161928000Y-108056000D01*
X161928000Y-108056000D02*
X161928000Y-100944000D01*
X161928000Y-100944000D02*
X164976000Y-100944000D01*
X168024000Y-108056000D02*
X168786000Y-108056000D01*
X168786000Y-108056000D02*
X171072000Y-106532000D01*
X171072000Y-106532000D02*
X171072000Y-102468000D01*
X171072000Y-102468000D02*
X168786000Y-100944000D01*
X168786000Y-100944000D02*
X168024000Y-100944000D01*
D11*
X157250040Y-105350000D02*
X161250040Y-105350000D01*
X157250040Y-105350000D02*
X157250040Y-107550000D01*
X157250040Y-107550000D02*
X161250040Y-107550000D01*
X161250040Y-107550000D02*
X161250040Y-105350000D01*
X157250000Y-102200000D02*
X161250000Y-102200000D01*
X157250000Y-102200000D02*
X157250000Y-104400000D01*
X157250000Y-104400000D02*
X161250000Y-104400000D01*
X161250000Y-104400000D02*
X161250000Y-102200000D01*
X156557143Y-106183334D02*
X156604762Y-106135715D01*
X156652381Y-105992858D01*
X156652381Y-105897620D01*
X156604762Y-105754762D01*
X156509524Y-105659524D01*
X156414286Y-105611905D01*
X156223810Y-105564286D01*
X156080952Y-105564286D01*
X155890476Y-105611905D01*
X155795238Y-105659524D01*
X155700000Y-105754762D01*
X155652381Y-105897620D01*
X155652381Y-105992858D01*
X155700000Y-106135715D01*
X155747619Y-106183334D01*
X155747619Y-106564286D02*
X155700000Y-106611905D01*
X155652381Y-106707143D01*
X155652381Y-106945239D01*
X155700000Y-107040477D01*
X155747619Y-107088096D01*
X155842857Y-107135715D01*
X155938095Y-107135715D01*
X156080952Y-107088096D01*
X156652381Y-106516667D01*
X156652381Y-107135715D01*
X156607103Y-103083334D02*
X156654722Y-103035715D01*
X156702341Y-102892858D01*
X156702341Y-102797620D01*
X156654722Y-102654762D01*
X156559484Y-102559524D01*
X156464246Y-102511905D01*
X156273770Y-102464286D01*
X156130912Y-102464286D01*
X155940436Y-102511905D01*
X155845198Y-102559524D01*
X155749960Y-102654762D01*
X155702341Y-102797620D01*
X155702341Y-102892858D01*
X155749960Y-103035715D01*
X155797579Y-103083334D01*
X156702341Y-104035715D02*
X156702341Y-103464286D01*
X156702341Y-103750000D02*
X155702341Y-103750000D01*
X155845198Y-103654762D01*
X155940436Y-103559524D01*
X155988055Y-103464286D01*
%LPC*%
D13*
X168310000Y-109730000D03*
D14*
X168310000Y-112270000D03*
X165770000Y-109730000D03*
X165770000Y-112270000D03*
X163230000Y-109730000D03*
X163230000Y-112270000D03*
X160690000Y-109730000D03*
X160690000Y-112270000D03*
D15*
X170850000Y-109095000D03*
X170850000Y-111635000D03*
D16*
X169802000Y-104500000D03*
D17*
X163198000Y-104500000D03*
X163198000Y-102214000D03*
X163198000Y-106786000D03*
D18*
X163200000Y-104000000D03*
X163200000Y-102700000D03*
D19*
X163198000Y-103357000D03*
D20*
X160200000Y-106450000D03*
X158300080Y-106450000D03*
X160199960Y-103300000D03*
X158300040Y-103300000D03*
D21*
X158150000Y-117000000D03*
D22*
X160690000Y-117000000D03*
X163230000Y-117000000D03*
X165770000Y-117000000D03*
X168310000Y-117000000D03*
X170850000Y-117000000D03*
M02*
