%FSLAX46Y46*%
G04 Gerber Fmt 4.6, Leading zero omitted, Abs format (unit mm)*
G04 Created by KiCad (PCBNEW (2014-08-24 BZR 5093)-product) date Sun 24 Aug 2014 06:07:00 PM CEST*
%MOMM*%
G01*
G04 APERTURE LIST*
%ADD10C,0.100000*%
%ADD11C,0.200000*%
%ADD12C,0.250000*%
%ADD13C,0.187500*%
%ADD14C,0.002540*%
%ADD15C,1.400000*%
%ADD16R,1.100000X1.000000*%
%ADD17R,0.254000X0.762000*%
%ADD18R,0.762000X0.254000*%
%ADD19R,2.000000X1.250000*%
%ADD20R,1.650000X1.650000*%
%ADD21C,1.650000*%
%ADD22R,1.498600X1.297940*%
%ADD23R,2.000000X0.600000*%
%ADD24R,0.998220X1.099820*%
G04 APERTURE END LIST*
D10*
D11*
X160530476Y-90292381D02*
X161101905Y-90292381D01*
X160816191Y-90292381D02*
X160816191Y-89292381D01*
X160911429Y-89435238D01*
X161006667Y-89530476D01*
X161101905Y-89578095D01*
X160197143Y-89292381D02*
X159578095Y-89292381D01*
X159911429Y-89673333D01*
X159768571Y-89673333D01*
X159673333Y-89720952D01*
X159625714Y-89768571D01*
X159578095Y-89863810D01*
X159578095Y-90101905D01*
X159625714Y-90197143D01*
X159673333Y-90244762D01*
X159768571Y-90292381D01*
X160054286Y-90292381D01*
X160149524Y-90244762D01*
X160197143Y-90197143D01*
X148860000Y-94670000D02*
X148510000Y-94320000D01*
X148860000Y-95170000D02*
X148860000Y-94670000D01*
X148860000Y-95170000D02*
X149120000Y-94960000D01*
X148860000Y-95170000D02*
X148600000Y-94960000D01*
X148510000Y-94320000D02*
X148050000Y-94320000D01*
X147118571Y-93772381D02*
X147594762Y-93772381D01*
X147642381Y-94248571D01*
X147594762Y-94200952D01*
X147499524Y-94153333D01*
X147261428Y-94153333D01*
X147166190Y-94200952D01*
X147118571Y-94248571D01*
X147070952Y-94343810D01*
X147070952Y-94581905D01*
X147118571Y-94677143D01*
X147166190Y-94724762D01*
X147261428Y-94772381D01*
X147499524Y-94772381D01*
X147594762Y-94724762D01*
X147642381Y-94677143D01*
X146785238Y-93772381D02*
X146451905Y-94772381D01*
X146118571Y-93772381D01*
X145785238Y-94677143D02*
X145737619Y-94724762D01*
X145785238Y-94772381D01*
X145832857Y-94724762D01*
X145785238Y-94677143D01*
X145785238Y-94772381D01*
X145785238Y-94391429D02*
X145832857Y-93820000D01*
X145785238Y-93772381D01*
X145737619Y-93820000D01*
X145785238Y-94391429D01*
X145785238Y-93772381D01*
D12*
X160744951Y-99452173D02*
X161433243Y-98469191D01*
X160613945Y-98941890D01*
X160777921Y-98010329D01*
X160089629Y-98993312D01*
X139584616Y-98628936D02*
X139256955Y-98858367D01*
X139477062Y-99471589D02*
X139945149Y-99143831D01*
X139256857Y-98160849D01*
X138788770Y-98488607D01*
D13*
X144371428Y-94025000D02*
X144442857Y-93989286D01*
X144550000Y-93989286D01*
X144657143Y-94025000D01*
X144728571Y-94096429D01*
X144764286Y-94167857D01*
X144800000Y-94310714D01*
X144800000Y-94417857D01*
X144764286Y-94560714D01*
X144728571Y-94632143D01*
X144657143Y-94703571D01*
X144550000Y-94739286D01*
X144478571Y-94739286D01*
X144371428Y-94703571D01*
X144335714Y-94667857D01*
X144335714Y-94417857D01*
X144478571Y-94417857D01*
X144014286Y-94739286D02*
X144014286Y-93989286D01*
X143585714Y-94739286D01*
X143585714Y-93989286D01*
X143228572Y-94739286D02*
X143228572Y-93989286D01*
X143050000Y-93989286D01*
X142942857Y-94025000D01*
X142871429Y-94096429D01*
X142835714Y-94167857D01*
X142800000Y-94310714D01*
X142800000Y-94417857D01*
X142835714Y-94560714D01*
X142871429Y-94632143D01*
X142942857Y-94703571D01*
X143050000Y-94739286D01*
X143228572Y-94739286D01*
D11*
X157290000Y-89690000D02*
X158930000Y-89690000D01*
X158930000Y-93010000D02*
X158930000Y-89690000D01*
X157290000Y-93010000D02*
X158930000Y-93010000D01*
X157290000Y-89690000D02*
X157290000Y-93010000D01*
D10*
X158559780Y-90998560D02*
X158559780Y-91698560D01*
X157659780Y-91698560D02*
X157659780Y-90998560D01*
X157809780Y-92198560D02*
X157659780Y-92198560D01*
X157659780Y-92198560D02*
X157659780Y-91698560D01*
X157659780Y-91698560D02*
X158559780Y-91698560D01*
X158559780Y-91698560D02*
X158559780Y-92198560D01*
X158559780Y-92198560D02*
X158409780Y-92198560D01*
X158559780Y-90498560D02*
X158384780Y-90498560D01*
X157659780Y-90498560D02*
X157834780Y-90498560D01*
X158559780Y-90498560D02*
X158559780Y-90998560D01*
X158559780Y-90998560D02*
X157659780Y-90998560D01*
X157659780Y-90998560D02*
X157659780Y-90498560D01*
X157985320Y-91323560D02*
X158234240Y-91323560D01*
X158234240Y-91323560D02*
X158234240Y-91572480D01*
X157985320Y-91572480D02*
X158234240Y-91572480D01*
X157985320Y-91323560D02*
X157985320Y-91572480D01*
X157810060Y-92196520D02*
G75*
G02X158409500Y-92196520I299720J0D01*
G74*
G01*
X158384100Y-90500600D02*
G75*
G02X157835460Y-90500600I-274320J0D01*
G74*
G01*
D11*
X149424500Y-94488000D02*
X153615500Y-94488000D01*
X153615500Y-94488000D02*
X154568000Y-94488000D01*
X154568000Y-94488000D02*
X154568000Y-88392000D01*
X154568000Y-88392000D02*
X148472000Y-88392000D01*
X148472000Y-88392000D02*
X148472000Y-93535500D01*
X148472000Y-93535500D02*
X149424500Y-94488000D01*
X142510000Y-95370000D02*
X142510000Y-97910000D01*
X142510000Y-97910000D02*
X157750000Y-97910000D01*
X157750000Y-97910000D02*
X157750000Y-95370000D01*
X157750000Y-95370000D02*
X142510000Y-95370000D01*
X145050000Y-95370000D02*
X145050000Y-97910000D01*
X155090000Y-93490000D02*
X155090000Y-89490000D01*
X155090000Y-93490000D02*
X157290000Y-93490000D01*
X157290000Y-93490000D02*
X157290000Y-89490000D01*
X157290000Y-89490000D02*
X155090000Y-89490000D01*
X144850000Y-88530000D02*
X144850000Y-91730000D01*
X146150000Y-91730000D02*
X146150000Y-88530000D01*
X146150000Y-88529800D02*
X144850000Y-88529800D01*
X146150000Y-91730200D02*
X144850000Y-91730200D01*
X137560503Y-97752297D02*
X135094124Y-94229943D01*
X135094124Y-94229943D02*
X132964329Y-95721241D01*
X132964329Y-95721241D02*
X135430708Y-99243595D01*
X135430708Y-99243595D02*
X137560503Y-97752297D01*
X136540514Y-97428842D02*
X135049215Y-95299047D01*
X135049215Y-95299047D02*
X133984318Y-96044696D01*
X133984318Y-96044696D02*
X135475617Y-98174491D01*
X135475617Y-98174491D02*
X136540514Y-97428842D01*
X133787432Y-94107240D02*
X133213856Y-93288088D01*
X133213856Y-93288088D02*
X132722365Y-93632234D01*
X132722365Y-93632234D02*
X133295941Y-94451386D01*
X137228891Y-99022152D02*
X137802467Y-99841304D01*
X137802467Y-99841304D02*
X137310976Y-100185450D01*
X137310976Y-100185450D02*
X136737400Y-99366298D01*
X135057118Y-93218196D02*
X132026255Y-95340429D01*
X132026255Y-95340429D02*
X135467714Y-100255342D01*
X135467714Y-100255342D02*
X138498577Y-98133109D01*
X138498577Y-98133109D02*
X135057118Y-93218196D01*
X164815134Y-99135052D02*
X167281513Y-95612698D01*
X167281513Y-95612698D02*
X165151718Y-94121400D01*
X165151718Y-94121400D02*
X162685339Y-97643754D01*
X162685339Y-97643754D02*
X164815134Y-99135052D01*
X164770225Y-98065948D02*
X166261524Y-95936153D01*
X166261524Y-95936153D02*
X165196627Y-95190504D01*
X165196627Y-95190504D02*
X163705328Y-97320299D01*
X163705328Y-97320299D02*
X164770225Y-98065948D01*
X166949901Y-94342843D02*
X167523477Y-93523691D01*
X167523477Y-93523691D02*
X167031986Y-93179545D01*
X167031986Y-93179545D02*
X166458410Y-93998697D01*
X163508442Y-99257755D02*
X162934866Y-100076907D01*
X162934866Y-100076907D02*
X162443375Y-99732761D01*
X162443375Y-99732761D02*
X163016951Y-98913609D01*
X168219587Y-95231886D02*
X165188724Y-93109653D01*
X165188724Y-93109653D02*
X161747265Y-98024566D01*
X161747265Y-98024566D02*
X164778128Y-100146799D01*
X164778128Y-100146799D02*
X168219587Y-95231886D01*
X158490000Y-93490000D02*
X155090000Y-93490000D01*
X155090000Y-93490000D02*
X155090000Y-95290000D01*
X155090000Y-95290000D02*
X158490000Y-95290000D01*
X158490000Y-95290000D02*
X158490000Y-93490000D01*
X156358200Y-94821800D02*
X155951800Y-94821800D01*
X155951800Y-94821800D02*
X155951800Y-93958200D01*
X156358200Y-93958200D02*
X155951800Y-93958200D01*
X156358200Y-94821800D02*
X156358200Y-93958200D01*
X157628200Y-94821800D02*
X157221800Y-94821800D01*
X157221800Y-94821800D02*
X157221800Y-93958200D01*
X157628200Y-93958200D02*
X157221800Y-93958200D01*
X157628200Y-94821800D02*
X157628200Y-93958200D01*
X157221800Y-94745600D02*
X156358200Y-94745600D01*
X156358200Y-94034400D02*
X157221800Y-94034400D01*
D14*
G36*
X142216420Y-91730640D02*
X142254520Y-91725560D01*
X142287540Y-91715400D01*
X142302780Y-91707780D01*
X142335800Y-91684920D01*
X142361200Y-91656980D01*
X142378980Y-91626500D01*
X142391680Y-91590940D01*
X142399300Y-91555380D01*
X142396760Y-91517280D01*
X142389140Y-91481720D01*
X142371360Y-91446160D01*
X142361200Y-91430920D01*
X142345960Y-91413140D01*
X142328180Y-91397900D01*
X142312940Y-91385200D01*
X142307860Y-91382660D01*
X142274840Y-91367420D01*
X142241820Y-91359800D01*
X142203720Y-91357260D01*
X142191020Y-91357260D01*
X142170700Y-91359800D01*
X142152920Y-91364880D01*
X142132600Y-91375040D01*
X142109740Y-91385200D01*
X142079260Y-91410600D01*
X142056400Y-91441080D01*
X142036080Y-91474100D01*
X142031000Y-91489340D01*
X142025920Y-91509660D01*
X142023380Y-91522360D01*
X142023380Y-91524900D01*
X142023380Y-91524900D01*
X142023380Y-91517280D01*
X142023380Y-91517280D01*
X142015760Y-91491880D01*
X142008140Y-91469020D01*
X141995440Y-91446160D01*
X141975120Y-91418220D01*
X141947180Y-91392820D01*
X141914160Y-91372500D01*
X141876060Y-91359800D01*
X141837960Y-91357260D01*
X141827800Y-91357260D01*
X141797320Y-91359800D01*
X141769380Y-91367420D01*
X141764300Y-91369960D01*
X141731280Y-91387740D01*
X141703340Y-91410600D01*
X141680480Y-91441080D01*
X141662700Y-91471560D01*
X141652540Y-91504580D01*
X141652540Y-91507120D01*
X141650000Y-91514740D01*
X141650000Y-91519820D01*
X141650000Y-91519820D01*
X141650000Y-91514740D01*
X141647460Y-91504580D01*
X141647460Y-91502040D01*
X141634760Y-91469020D01*
X141616980Y-91436000D01*
X141594120Y-91408060D01*
X141571260Y-91390280D01*
X141538240Y-91372500D01*
X141502680Y-91359800D01*
X141462040Y-91357260D01*
X141434100Y-91359800D01*
X141398540Y-91367420D01*
X141362980Y-91385200D01*
X141332500Y-91408060D01*
X141309640Y-91438540D01*
X141304560Y-91443620D01*
X141296940Y-91456320D01*
X141291860Y-91469020D01*
X141289320Y-91476640D01*
X141281700Y-91494420D01*
X141279160Y-91509660D01*
X141276620Y-91522360D01*
X141276620Y-91524900D01*
X141276620Y-91524900D01*
X141274080Y-91517280D01*
X141271540Y-91496960D01*
X141261380Y-91471560D01*
X141251220Y-91448700D01*
X141228360Y-91418220D01*
X141197880Y-91392820D01*
X141164860Y-91372500D01*
X141129300Y-91359800D01*
X141091200Y-91357260D01*
X141055640Y-91359800D01*
X141017540Y-91369960D01*
X140984520Y-91387740D01*
X140954040Y-91413140D01*
X140938800Y-91430920D01*
X140926100Y-91451240D01*
X140913400Y-91474100D01*
X140908320Y-91494420D01*
X140900700Y-91532520D01*
X140903240Y-91568080D01*
X140910860Y-91603640D01*
X140926100Y-91636660D01*
X140946420Y-91664600D01*
X140971820Y-91690000D01*
X141002300Y-91710320D01*
X141035320Y-91723020D01*
X141073420Y-91730640D01*
X141078500Y-91730640D01*
X141116600Y-91730640D01*
X141152160Y-91720480D01*
X141185180Y-91705240D01*
X141197880Y-91695080D01*
X141223280Y-91674760D01*
X141246140Y-91646820D01*
X141261380Y-91618880D01*
X141263920Y-91608720D01*
X141269000Y-91593480D01*
X141274080Y-91575700D01*
X141276620Y-91563000D01*
X141276620Y-91555380D01*
X141276620Y-91563000D01*
X141276620Y-91570620D01*
X141281700Y-91585860D01*
X141286780Y-91606180D01*
X141291860Y-91621420D01*
X141302020Y-91639200D01*
X141324880Y-91669680D01*
X141352820Y-91695080D01*
X141385840Y-91715400D01*
X141423940Y-91728100D01*
X141429020Y-91728100D01*
X141454420Y-91730640D01*
X141482360Y-91730640D01*
X141507760Y-91725560D01*
X141533160Y-91717940D01*
X141566180Y-91700160D01*
X141599200Y-91674760D01*
X141599200Y-91672220D01*
X141622060Y-91646820D01*
X141637300Y-91613800D01*
X141647460Y-91583320D01*
X141647460Y-91580780D01*
X141650000Y-91573160D01*
X141650000Y-91568080D01*
X141650000Y-91570620D01*
X141652540Y-91578240D01*
X141652540Y-91580780D01*
X141657620Y-91601100D01*
X141665240Y-91621420D01*
X141677940Y-91641740D01*
X141693180Y-91664600D01*
X141721120Y-91692540D01*
X141754140Y-91712860D01*
X141792240Y-91725560D01*
X141797320Y-91728100D01*
X141822720Y-91730640D01*
X141850660Y-91730640D01*
X141876060Y-91728100D01*
X141896380Y-91720480D01*
X141931940Y-91705240D01*
X141962420Y-91682380D01*
X141987820Y-91654440D01*
X142008140Y-91621420D01*
X142010680Y-91611260D01*
X142018300Y-91593480D01*
X142020840Y-91575700D01*
X142023380Y-91563000D01*
X142023380Y-91563000D01*
X142023380Y-91563000D01*
X142025920Y-91570620D01*
X142025920Y-91570620D01*
X142031000Y-91593480D01*
X142041160Y-91618880D01*
X142051320Y-91641740D01*
X142056400Y-91649360D01*
X142079260Y-91677300D01*
X142109740Y-91700160D01*
X142142760Y-91717940D01*
X142178320Y-91728100D01*
X142216420Y-91730640D01*
X142216420Y-91730640D01*
G37*
X142216420Y-91730640D02*
X142254520Y-91725560D01*
X142287540Y-91715400D01*
X142302780Y-91707780D01*
X142335800Y-91684920D01*
X142361200Y-91656980D01*
X142378980Y-91626500D01*
X142391680Y-91590940D01*
X142399300Y-91555380D01*
X142396760Y-91517280D01*
X142389140Y-91481720D01*
X142371360Y-91446160D01*
X142361200Y-91430920D01*
X142345960Y-91413140D01*
X142328180Y-91397900D01*
X142312940Y-91385200D01*
X142307860Y-91382660D01*
X142274840Y-91367420D01*
X142241820Y-91359800D01*
X142203720Y-91357260D01*
X142191020Y-91357260D01*
X142170700Y-91359800D01*
X142152920Y-91364880D01*
X142132600Y-91375040D01*
X142109740Y-91385200D01*
X142079260Y-91410600D01*
X142056400Y-91441080D01*
X142036080Y-91474100D01*
X142031000Y-91489340D01*
X142025920Y-91509660D01*
X142023380Y-91522360D01*
X142023380Y-91524900D01*
X142023380Y-91524900D01*
X142023380Y-91517280D01*
X142023380Y-91517280D01*
X142015760Y-91491880D01*
X142008140Y-91469020D01*
X141995440Y-91446160D01*
X141975120Y-91418220D01*
X141947180Y-91392820D01*
X141914160Y-91372500D01*
X141876060Y-91359800D01*
X141837960Y-91357260D01*
X141827800Y-91357260D01*
X141797320Y-91359800D01*
X141769380Y-91367420D01*
X141764300Y-91369960D01*
X141731280Y-91387740D01*
X141703340Y-91410600D01*
X141680480Y-91441080D01*
X141662700Y-91471560D01*
X141652540Y-91504580D01*
X141652540Y-91507120D01*
X141650000Y-91514740D01*
X141650000Y-91519820D01*
X141650000Y-91519820D01*
X141650000Y-91514740D01*
X141647460Y-91504580D01*
X141647460Y-91502040D01*
X141634760Y-91469020D01*
X141616980Y-91436000D01*
X141594120Y-91408060D01*
X141571260Y-91390280D01*
X141538240Y-91372500D01*
X141502680Y-91359800D01*
X141462040Y-91357260D01*
X141434100Y-91359800D01*
X141398540Y-91367420D01*
X141362980Y-91385200D01*
X141332500Y-91408060D01*
X141309640Y-91438540D01*
X141304560Y-91443620D01*
X141296940Y-91456320D01*
X141291860Y-91469020D01*
X141289320Y-91476640D01*
X141281700Y-91494420D01*
X141279160Y-91509660D01*
X141276620Y-91522360D01*
X141276620Y-91524900D01*
X141276620Y-91524900D01*
X141274080Y-91517280D01*
X141271540Y-91496960D01*
X141261380Y-91471560D01*
X141251220Y-91448700D01*
X141228360Y-91418220D01*
X141197880Y-91392820D01*
X141164860Y-91372500D01*
X141129300Y-91359800D01*
X141091200Y-91357260D01*
X141055640Y-91359800D01*
X141017540Y-91369960D01*
X140984520Y-91387740D01*
X140954040Y-91413140D01*
X140938800Y-91430920D01*
X140926100Y-91451240D01*
X140913400Y-91474100D01*
X140908320Y-91494420D01*
X140900700Y-91532520D01*
X140903240Y-91568080D01*
X140910860Y-91603640D01*
X140926100Y-91636660D01*
X140946420Y-91664600D01*
X140971820Y-91690000D01*
X141002300Y-91710320D01*
X141035320Y-91723020D01*
X141073420Y-91730640D01*
X141078500Y-91730640D01*
X141116600Y-91730640D01*
X141152160Y-91720480D01*
X141185180Y-91705240D01*
X141197880Y-91695080D01*
X141223280Y-91674760D01*
X141246140Y-91646820D01*
X141261380Y-91618880D01*
X141263920Y-91608720D01*
X141269000Y-91593480D01*
X141274080Y-91575700D01*
X141276620Y-91563000D01*
X141276620Y-91555380D01*
X141276620Y-91563000D01*
X141276620Y-91570620D01*
X141281700Y-91585860D01*
X141286780Y-91606180D01*
X141291860Y-91621420D01*
X141302020Y-91639200D01*
X141324880Y-91669680D01*
X141352820Y-91695080D01*
X141385840Y-91715400D01*
X141423940Y-91728100D01*
X141429020Y-91728100D01*
X141454420Y-91730640D01*
X141482360Y-91730640D01*
X141507760Y-91725560D01*
X141533160Y-91717940D01*
X141566180Y-91700160D01*
X141599200Y-91674760D01*
X141599200Y-91672220D01*
X141622060Y-91646820D01*
X141637300Y-91613800D01*
X141647460Y-91583320D01*
X141647460Y-91580780D01*
X141650000Y-91573160D01*
X141650000Y-91568080D01*
X141650000Y-91570620D01*
X141652540Y-91578240D01*
X141652540Y-91580780D01*
X141657620Y-91601100D01*
X141665240Y-91621420D01*
X141677940Y-91641740D01*
X141693180Y-91664600D01*
X141721120Y-91692540D01*
X141754140Y-91712860D01*
X141792240Y-91725560D01*
X141797320Y-91728100D01*
X141822720Y-91730640D01*
X141850660Y-91730640D01*
X141876060Y-91728100D01*
X141896380Y-91720480D01*
X141931940Y-91705240D01*
X141962420Y-91682380D01*
X141987820Y-91654440D01*
X142008140Y-91621420D01*
X142010680Y-91611260D01*
X142018300Y-91593480D01*
X142020840Y-91575700D01*
X142023380Y-91563000D01*
X142023380Y-91563000D01*
X142023380Y-91563000D01*
X142025920Y-91570620D01*
X142025920Y-91570620D01*
X142031000Y-91593480D01*
X142041160Y-91618880D01*
X142051320Y-91641740D01*
X142056400Y-91649360D01*
X142079260Y-91677300D01*
X142109740Y-91700160D01*
X142142760Y-91717940D01*
X142178320Y-91728100D01*
X142216420Y-91730640D01*
G36*
X140702580Y-91357260D02*
X140725440Y-91354720D01*
X140745760Y-91354720D01*
X140771160Y-91347100D01*
X140806720Y-91331860D01*
X140837200Y-91309000D01*
X140862600Y-91281060D01*
X140882920Y-91248040D01*
X140895620Y-91212480D01*
X140900700Y-91174380D01*
X140898160Y-91136280D01*
X140888000Y-91100720D01*
X140872760Y-91067700D01*
X140847360Y-91037220D01*
X140816880Y-91011820D01*
X140809260Y-91006740D01*
X140771160Y-90991500D01*
X140735600Y-90981340D01*
X140694960Y-90981340D01*
X140656860Y-90988960D01*
X140626380Y-91001660D01*
X140593360Y-91024520D01*
X140567960Y-91052460D01*
X140545100Y-91085480D01*
X140532400Y-91123580D01*
X140527320Y-91141360D01*
X140527320Y-91166760D01*
X140527320Y-91189620D01*
X140529860Y-91209940D01*
X140532400Y-91217560D01*
X140547640Y-91255660D01*
X140567960Y-91288680D01*
X140598440Y-91316620D01*
X140631460Y-91336940D01*
X140646700Y-91344560D01*
X140669560Y-91352180D01*
X140689880Y-91354720D01*
X140702580Y-91357260D01*
X140702580Y-91357260D01*
G37*
X140702580Y-91357260D02*
X140725440Y-91354720D01*
X140745760Y-91354720D01*
X140771160Y-91347100D01*
X140806720Y-91331860D01*
X140837200Y-91309000D01*
X140862600Y-91281060D01*
X140882920Y-91248040D01*
X140895620Y-91212480D01*
X140900700Y-91174380D01*
X140898160Y-91136280D01*
X140888000Y-91100720D01*
X140872760Y-91067700D01*
X140847360Y-91037220D01*
X140816880Y-91011820D01*
X140809260Y-91006740D01*
X140771160Y-90991500D01*
X140735600Y-90981340D01*
X140694960Y-90981340D01*
X140656860Y-90988960D01*
X140626380Y-91001660D01*
X140593360Y-91024520D01*
X140567960Y-91052460D01*
X140545100Y-91085480D01*
X140532400Y-91123580D01*
X140527320Y-91141360D01*
X140527320Y-91166760D01*
X140527320Y-91189620D01*
X140529860Y-91209940D01*
X140532400Y-91217560D01*
X140547640Y-91255660D01*
X140567960Y-91288680D01*
X140598440Y-91316620D01*
X140631460Y-91336940D01*
X140646700Y-91344560D01*
X140669560Y-91352180D01*
X140689880Y-91354720D01*
X140702580Y-91357260D01*
G36*
X142589800Y-91357260D02*
X142627900Y-91352180D01*
X142666000Y-91339480D01*
X142701560Y-91316620D01*
X142709180Y-91311540D01*
X142734580Y-91283600D01*
X142754900Y-91250580D01*
X142767600Y-91215020D01*
X142772680Y-91194700D01*
X142772680Y-91171840D01*
X142772680Y-91146440D01*
X142770140Y-91128660D01*
X142767600Y-91118500D01*
X142752360Y-91080400D01*
X142732040Y-91049920D01*
X142704100Y-91021980D01*
X142671080Y-91001660D01*
X142635520Y-90988960D01*
X142597420Y-90981340D01*
X142582180Y-90981340D01*
X142544080Y-90986420D01*
X142508520Y-90996580D01*
X142478040Y-91016900D01*
X142450100Y-91039760D01*
X142427240Y-91070240D01*
X142412000Y-91103260D01*
X142401840Y-91138820D01*
X142399300Y-91176920D01*
X142401840Y-91199780D01*
X142406920Y-91220100D01*
X142414540Y-91242960D01*
X142429780Y-91270900D01*
X142452640Y-91301380D01*
X142483120Y-91324240D01*
X142516140Y-91342020D01*
X142551700Y-91352180D01*
X142589800Y-91357260D01*
X142589800Y-91357260D01*
G37*
X142589800Y-91357260D02*
X142627900Y-91352180D01*
X142666000Y-91339480D01*
X142701560Y-91316620D01*
X142709180Y-91311540D01*
X142734580Y-91283600D01*
X142754900Y-91250580D01*
X142767600Y-91215020D01*
X142772680Y-91194700D01*
X142772680Y-91171840D01*
X142772680Y-91146440D01*
X142770140Y-91128660D01*
X142767600Y-91118500D01*
X142752360Y-91080400D01*
X142732040Y-91049920D01*
X142704100Y-91021980D01*
X142671080Y-91001660D01*
X142635520Y-90988960D01*
X142597420Y-90981340D01*
X142582180Y-90981340D01*
X142544080Y-90986420D01*
X142508520Y-90996580D01*
X142478040Y-91016900D01*
X142450100Y-91039760D01*
X142427240Y-91070240D01*
X142412000Y-91103260D01*
X142401840Y-91138820D01*
X142399300Y-91176920D01*
X142401840Y-91199780D01*
X142406920Y-91220100D01*
X142414540Y-91242960D01*
X142429780Y-91270900D01*
X142452640Y-91301380D01*
X142483120Y-91324240D01*
X142516140Y-91342020D01*
X142551700Y-91352180D01*
X142589800Y-91357260D01*
G36*
X140329200Y-90981340D02*
X140354600Y-90981340D01*
X140377460Y-90976260D01*
X140405400Y-90968640D01*
X140438420Y-90950860D01*
X140471440Y-90925460D01*
X140491760Y-90902600D01*
X140509540Y-90869580D01*
X140522240Y-90834020D01*
X140524780Y-90818780D01*
X140524780Y-90795920D01*
X140524780Y-90773060D01*
X140522240Y-90755280D01*
X140519700Y-90742580D01*
X140504460Y-90707020D01*
X140484140Y-90674000D01*
X140456200Y-90646060D01*
X140420640Y-90625740D01*
X140407940Y-90620660D01*
X140385080Y-90610500D01*
X140359680Y-90607960D01*
X140331740Y-90607960D01*
X140313960Y-90607960D01*
X140293640Y-90610500D01*
X140275860Y-90615580D01*
X140255540Y-90625740D01*
X140242840Y-90633360D01*
X140212360Y-90656220D01*
X140186960Y-90684160D01*
X140166640Y-90719720D01*
X140153940Y-90757820D01*
X140153940Y-90765440D01*
X140151400Y-90788300D01*
X140151400Y-90811160D01*
X140153940Y-90831480D01*
X140156480Y-90844180D01*
X140171720Y-90879740D01*
X140194580Y-90912760D01*
X140219980Y-90940700D01*
X140255540Y-90961020D01*
X140291100Y-90976260D01*
X140303800Y-90978800D01*
X140329200Y-90981340D01*
X140329200Y-90981340D01*
G37*
X140329200Y-90981340D02*
X140354600Y-90981340D01*
X140377460Y-90976260D01*
X140405400Y-90968640D01*
X140438420Y-90950860D01*
X140471440Y-90925460D01*
X140491760Y-90902600D01*
X140509540Y-90869580D01*
X140522240Y-90834020D01*
X140524780Y-90818780D01*
X140524780Y-90795920D01*
X140524780Y-90773060D01*
X140522240Y-90755280D01*
X140519700Y-90742580D01*
X140504460Y-90707020D01*
X140484140Y-90674000D01*
X140456200Y-90646060D01*
X140420640Y-90625740D01*
X140407940Y-90620660D01*
X140385080Y-90610500D01*
X140359680Y-90607960D01*
X140331740Y-90607960D01*
X140313960Y-90607960D01*
X140293640Y-90610500D01*
X140275860Y-90615580D01*
X140255540Y-90625740D01*
X140242840Y-90633360D01*
X140212360Y-90656220D01*
X140186960Y-90684160D01*
X140166640Y-90719720D01*
X140153940Y-90757820D01*
X140153940Y-90765440D01*
X140151400Y-90788300D01*
X140151400Y-90811160D01*
X140153940Y-90831480D01*
X140156480Y-90844180D01*
X140171720Y-90879740D01*
X140194580Y-90912760D01*
X140219980Y-90940700D01*
X140255540Y-90961020D01*
X140291100Y-90976260D01*
X140303800Y-90978800D01*
X140329200Y-90981340D01*
G36*
X141832880Y-90981340D02*
X141868440Y-90978800D01*
X141904000Y-90968640D01*
X141926860Y-90958480D01*
X141957340Y-90935620D01*
X141985280Y-90907680D01*
X142005600Y-90874660D01*
X142018300Y-90839100D01*
X142020840Y-90831480D01*
X142023380Y-90801000D01*
X142023380Y-90773060D01*
X142015760Y-90740040D01*
X142000520Y-90701940D01*
X141977660Y-90671460D01*
X141949720Y-90646060D01*
X141916700Y-90625740D01*
X141878600Y-90610500D01*
X141855740Y-90605420D01*
X141868440Y-90602880D01*
X141870980Y-90602880D01*
X141896380Y-90595260D01*
X141924320Y-90582560D01*
X141952260Y-90567320D01*
X141954800Y-90562240D01*
X141982740Y-90536840D01*
X142003060Y-90503820D01*
X142015760Y-90468260D01*
X142023380Y-90432700D01*
X142023380Y-90397140D01*
X142013220Y-90361580D01*
X141997980Y-90326020D01*
X141997980Y-90323480D01*
X141972580Y-90293000D01*
X141944640Y-90267600D01*
X141914160Y-90249820D01*
X141878600Y-90239660D01*
X141843040Y-90234580D01*
X141807480Y-90237120D01*
X141771920Y-90244740D01*
X141738900Y-90262520D01*
X141705880Y-90285380D01*
X141690640Y-90303160D01*
X141672860Y-90331100D01*
X141657620Y-90359040D01*
X141652540Y-90386980D01*
X141650000Y-90394600D01*
X141650000Y-90397140D01*
X141650000Y-90394600D01*
X141647460Y-90386980D01*
X141642380Y-90361580D01*
X141629680Y-90336180D01*
X141614440Y-90310780D01*
X141604280Y-90298080D01*
X141576340Y-90272680D01*
X141543320Y-90252360D01*
X141507760Y-90239660D01*
X141469660Y-90234580D01*
X141431560Y-90237120D01*
X141408700Y-90242200D01*
X141373140Y-90257440D01*
X141342660Y-90277760D01*
X141314720Y-90305700D01*
X141294400Y-90338720D01*
X141281700Y-90376820D01*
X141279160Y-90394600D01*
X141276620Y-90432700D01*
X141284240Y-90468260D01*
X141296940Y-90503820D01*
X141317260Y-90536840D01*
X141345200Y-90562240D01*
X141378220Y-90585100D01*
X141393460Y-90592720D01*
X141411240Y-90597800D01*
X141426480Y-90602880D01*
X141439180Y-90605420D01*
X141439180Y-90605420D01*
X141439180Y-90605420D01*
X141431560Y-90607960D01*
X141413780Y-90613040D01*
X141388380Y-90623200D01*
X141365520Y-90633360D01*
X141355360Y-90640980D01*
X141329960Y-90663840D01*
X141307100Y-90689240D01*
X141291860Y-90717180D01*
X141281700Y-90750200D01*
X141276620Y-90783220D01*
X141276620Y-90816240D01*
X141279160Y-90821320D01*
X141289320Y-90861960D01*
X141307100Y-90894980D01*
X141332500Y-90925460D01*
X141352820Y-90945780D01*
X141385840Y-90966100D01*
X141423940Y-90976260D01*
X141436640Y-90978800D01*
X141456960Y-90981340D01*
X141479820Y-90978800D01*
X141500140Y-90978800D01*
X141515380Y-90973720D01*
X141528080Y-90971180D01*
X141563640Y-90953400D01*
X141594120Y-90928000D01*
X141619520Y-90897520D01*
X141629680Y-90882280D01*
X141639840Y-90856880D01*
X141647460Y-90831480D01*
X141647460Y-90831480D01*
X141650000Y-90821320D01*
X141650000Y-90818780D01*
X141650000Y-90818780D01*
X141650000Y-90767980D01*
X141650000Y-90767980D01*
X141650000Y-90765440D01*
X141647460Y-90755280D01*
X141647460Y-90752740D01*
X141634760Y-90719720D01*
X141616980Y-90686700D01*
X141594120Y-90658760D01*
X141566180Y-90635900D01*
X141533160Y-90620660D01*
X141530620Y-90618120D01*
X141515380Y-90613040D01*
X141500140Y-90610500D01*
X141482360Y-90605420D01*
X141497600Y-90602880D01*
X141520460Y-90597800D01*
X141553480Y-90582560D01*
X141583960Y-90562240D01*
X141611900Y-90534300D01*
X141632220Y-90503820D01*
X141637300Y-90488580D01*
X141644920Y-90468260D01*
X141647460Y-90453020D01*
X141650000Y-90445400D01*
X141650000Y-90442860D01*
X141650000Y-90445400D01*
X141652540Y-90453020D01*
X141655080Y-90465720D01*
X141660160Y-90486040D01*
X141667780Y-90503820D01*
X141680480Y-90524140D01*
X141705880Y-90552080D01*
X141733820Y-90574940D01*
X141766840Y-90592720D01*
X141802400Y-90602880D01*
X141817640Y-90605420D01*
X141802400Y-90610500D01*
X141799860Y-90610500D01*
X141782080Y-90613040D01*
X141766840Y-90620660D01*
X141764300Y-90620660D01*
X141731280Y-90638440D01*
X141703340Y-90661300D01*
X141680480Y-90689240D01*
X141662700Y-90722260D01*
X141652540Y-90755280D01*
X141652540Y-90755280D01*
X141650000Y-90765440D01*
X141650000Y-90767980D01*
X141650000Y-90818780D01*
X141650000Y-90818780D01*
X141650000Y-90823860D01*
X141652540Y-90831480D01*
X141660160Y-90856880D01*
X141675400Y-90889900D01*
X141698260Y-90920380D01*
X141726200Y-90945780D01*
X141759220Y-90963560D01*
X141759220Y-90963560D01*
X141794780Y-90976260D01*
X141832880Y-90981340D01*
X141832880Y-90981340D01*
G37*
X141832880Y-90981340D02*
X141868440Y-90978800D01*
X141904000Y-90968640D01*
X141926860Y-90958480D01*
X141957340Y-90935620D01*
X141985280Y-90907680D01*
X142005600Y-90874660D01*
X142018300Y-90839100D01*
X142020840Y-90831480D01*
X142023380Y-90801000D01*
X142023380Y-90773060D01*
X142015760Y-90740040D01*
X142000520Y-90701940D01*
X141977660Y-90671460D01*
X141949720Y-90646060D01*
X141916700Y-90625740D01*
X141878600Y-90610500D01*
X141855740Y-90605420D01*
X141868440Y-90602880D01*
X141870980Y-90602880D01*
X141896380Y-90595260D01*
X141924320Y-90582560D01*
X141952260Y-90567320D01*
X141954800Y-90562240D01*
X141982740Y-90536840D01*
X142003060Y-90503820D01*
X142015760Y-90468260D01*
X142023380Y-90432700D01*
X142023380Y-90397140D01*
X142013220Y-90361580D01*
X141997980Y-90326020D01*
X141997980Y-90323480D01*
X141972580Y-90293000D01*
X141944640Y-90267600D01*
X141914160Y-90249820D01*
X141878600Y-90239660D01*
X141843040Y-90234580D01*
X141807480Y-90237120D01*
X141771920Y-90244740D01*
X141738900Y-90262520D01*
X141705880Y-90285380D01*
X141690640Y-90303160D01*
X141672860Y-90331100D01*
X141657620Y-90359040D01*
X141652540Y-90386980D01*
X141650000Y-90394600D01*
X141650000Y-90397140D01*
X141650000Y-90394600D01*
X141647460Y-90386980D01*
X141642380Y-90361580D01*
X141629680Y-90336180D01*
X141614440Y-90310780D01*
X141604280Y-90298080D01*
X141576340Y-90272680D01*
X141543320Y-90252360D01*
X141507760Y-90239660D01*
X141469660Y-90234580D01*
X141431560Y-90237120D01*
X141408700Y-90242200D01*
X141373140Y-90257440D01*
X141342660Y-90277760D01*
X141314720Y-90305700D01*
X141294400Y-90338720D01*
X141281700Y-90376820D01*
X141279160Y-90394600D01*
X141276620Y-90432700D01*
X141284240Y-90468260D01*
X141296940Y-90503820D01*
X141317260Y-90536840D01*
X141345200Y-90562240D01*
X141378220Y-90585100D01*
X141393460Y-90592720D01*
X141411240Y-90597800D01*
X141426480Y-90602880D01*
X141439180Y-90605420D01*
X141439180Y-90605420D01*
X141439180Y-90605420D01*
X141431560Y-90607960D01*
X141413780Y-90613040D01*
X141388380Y-90623200D01*
X141365520Y-90633360D01*
X141355360Y-90640980D01*
X141329960Y-90663840D01*
X141307100Y-90689240D01*
X141291860Y-90717180D01*
X141281700Y-90750200D01*
X141276620Y-90783220D01*
X141276620Y-90816240D01*
X141279160Y-90821320D01*
X141289320Y-90861960D01*
X141307100Y-90894980D01*
X141332500Y-90925460D01*
X141352820Y-90945780D01*
X141385840Y-90966100D01*
X141423940Y-90976260D01*
X141436640Y-90978800D01*
X141456960Y-90981340D01*
X141479820Y-90978800D01*
X141500140Y-90978800D01*
X141515380Y-90973720D01*
X141528080Y-90971180D01*
X141563640Y-90953400D01*
X141594120Y-90928000D01*
X141619520Y-90897520D01*
X141629680Y-90882280D01*
X141639840Y-90856880D01*
X141647460Y-90831480D01*
X141647460Y-90831480D01*
X141650000Y-90821320D01*
X141650000Y-90818780D01*
X141650000Y-90818780D01*
X141650000Y-90767980D01*
X141650000Y-90767980D01*
X141650000Y-90765440D01*
X141647460Y-90755280D01*
X141647460Y-90752740D01*
X141634760Y-90719720D01*
X141616980Y-90686700D01*
X141594120Y-90658760D01*
X141566180Y-90635900D01*
X141533160Y-90620660D01*
X141530620Y-90618120D01*
X141515380Y-90613040D01*
X141500140Y-90610500D01*
X141482360Y-90605420D01*
X141497600Y-90602880D01*
X141520460Y-90597800D01*
X141553480Y-90582560D01*
X141583960Y-90562240D01*
X141611900Y-90534300D01*
X141632220Y-90503820D01*
X141637300Y-90488580D01*
X141644920Y-90468260D01*
X141647460Y-90453020D01*
X141650000Y-90445400D01*
X141650000Y-90442860D01*
X141650000Y-90445400D01*
X141652540Y-90453020D01*
X141655080Y-90465720D01*
X141660160Y-90486040D01*
X141667780Y-90503820D01*
X141680480Y-90524140D01*
X141705880Y-90552080D01*
X141733820Y-90574940D01*
X141766840Y-90592720D01*
X141802400Y-90602880D01*
X141817640Y-90605420D01*
X141802400Y-90610500D01*
X141799860Y-90610500D01*
X141782080Y-90613040D01*
X141766840Y-90620660D01*
X141764300Y-90620660D01*
X141731280Y-90638440D01*
X141703340Y-90661300D01*
X141680480Y-90689240D01*
X141662700Y-90722260D01*
X141652540Y-90755280D01*
X141652540Y-90755280D01*
X141650000Y-90765440D01*
X141650000Y-90767980D01*
X141650000Y-90818780D01*
X141650000Y-90818780D01*
X141650000Y-90823860D01*
X141652540Y-90831480D01*
X141660160Y-90856880D01*
X141675400Y-90889900D01*
X141698260Y-90920380D01*
X141726200Y-90945780D01*
X141759220Y-90963560D01*
X141759220Y-90963560D01*
X141794780Y-90976260D01*
X141832880Y-90981340D01*
G36*
X142947940Y-90981340D02*
X142978420Y-90981340D01*
X143006360Y-90976260D01*
X143024140Y-90971180D01*
X143059700Y-90953400D01*
X143090180Y-90930540D01*
X143115580Y-90902600D01*
X143133360Y-90869580D01*
X143143520Y-90834020D01*
X143148600Y-90793380D01*
X143148600Y-90778140D01*
X143140980Y-90740040D01*
X143125740Y-90704480D01*
X143102880Y-90668920D01*
X143095260Y-90663840D01*
X143069860Y-90640980D01*
X143039380Y-90623200D01*
X143006360Y-90610500D01*
X143003820Y-90610500D01*
X142975880Y-90607960D01*
X142945400Y-90607960D01*
X142917460Y-90610500D01*
X142907300Y-90613040D01*
X142871740Y-90628280D01*
X142841260Y-90651140D01*
X142815860Y-90676540D01*
X142795540Y-90707020D01*
X142780300Y-90740040D01*
X142775220Y-90778140D01*
X142775220Y-90816240D01*
X142782840Y-90854340D01*
X142795540Y-90882280D01*
X142818400Y-90912760D01*
X142846340Y-90940700D01*
X142876820Y-90961020D01*
X142914920Y-90976260D01*
X142917460Y-90976260D01*
X142947940Y-90981340D01*
X142947940Y-90981340D01*
G37*
X142947940Y-90981340D02*
X142978420Y-90981340D01*
X143006360Y-90976260D01*
X143024140Y-90971180D01*
X143059700Y-90953400D01*
X143090180Y-90930540D01*
X143115580Y-90902600D01*
X143133360Y-90869580D01*
X143143520Y-90834020D01*
X143148600Y-90793380D01*
X143148600Y-90778140D01*
X143140980Y-90740040D01*
X143125740Y-90704480D01*
X143102880Y-90668920D01*
X143095260Y-90663840D01*
X143069860Y-90640980D01*
X143039380Y-90623200D01*
X143006360Y-90610500D01*
X143003820Y-90610500D01*
X142975880Y-90607960D01*
X142945400Y-90607960D01*
X142917460Y-90610500D01*
X142907300Y-90613040D01*
X142871740Y-90628280D01*
X142841260Y-90651140D01*
X142815860Y-90676540D01*
X142795540Y-90707020D01*
X142780300Y-90740040D01*
X142775220Y-90778140D01*
X142775220Y-90816240D01*
X142782840Y-90854340D01*
X142795540Y-90882280D01*
X142818400Y-90912760D01*
X142846340Y-90940700D01*
X142876820Y-90961020D01*
X142914920Y-90976260D01*
X142917460Y-90976260D01*
X142947940Y-90981340D01*
G36*
X141093740Y-89858660D02*
X141131840Y-89853580D01*
X141167400Y-89840880D01*
X141185180Y-89833260D01*
X141200420Y-89820560D01*
X141218200Y-89805320D01*
X141238520Y-89785000D01*
X141258840Y-89751980D01*
X141271540Y-89716420D01*
X141274080Y-89706260D01*
X141276620Y-89680860D01*
X141276620Y-89655460D01*
X141271540Y-89632600D01*
X141261380Y-89599580D01*
X141246140Y-89566560D01*
X141223280Y-89538620D01*
X141218200Y-89536080D01*
X141200420Y-89520840D01*
X141180100Y-89508140D01*
X141162320Y-89497980D01*
X141154700Y-89495440D01*
X141139460Y-89490360D01*
X141124220Y-89487820D01*
X141114060Y-89485280D01*
X141106440Y-89485280D01*
X141114060Y-89482740D01*
X141124220Y-89480200D01*
X141134380Y-89477660D01*
X141149620Y-89475120D01*
X141177560Y-89459880D01*
X141205500Y-89444640D01*
X141225820Y-89424320D01*
X141230900Y-89419240D01*
X141253760Y-89386220D01*
X141269000Y-89350660D01*
X141276620Y-89315100D01*
X141276620Y-89277000D01*
X141274080Y-89266840D01*
X141263920Y-89228740D01*
X141246140Y-89195720D01*
X141220740Y-89162700D01*
X141197880Y-89144920D01*
X141164860Y-89124600D01*
X141129300Y-89111900D01*
X141121680Y-89111900D01*
X141096280Y-89109360D01*
X141070880Y-89109360D01*
X141045480Y-89114440D01*
X141025160Y-89119520D01*
X140989600Y-89137300D01*
X140959120Y-89160160D01*
X140936260Y-89188100D01*
X140915940Y-89221120D01*
X140905780Y-89256680D01*
X140903240Y-89261760D01*
X140900700Y-89269380D01*
X140900700Y-89274460D01*
X140898160Y-89269380D01*
X140898160Y-89261760D01*
X140895620Y-89246520D01*
X140888000Y-89228740D01*
X140882920Y-89213500D01*
X140875300Y-89203340D01*
X140852440Y-89170320D01*
X140824500Y-89144920D01*
X140791480Y-89124600D01*
X140755920Y-89114440D01*
X140715280Y-89109360D01*
X140684800Y-89111900D01*
X140649240Y-89119520D01*
X140616220Y-89137300D01*
X140595900Y-89150000D01*
X140567960Y-89177940D01*
X140547640Y-89208420D01*
X140532400Y-89243980D01*
X140527320Y-89279540D01*
X140527320Y-89317640D01*
X140534940Y-89353200D01*
X140550180Y-89388760D01*
X140573040Y-89419240D01*
X140600980Y-89447180D01*
X140636540Y-89467500D01*
X140674640Y-89480200D01*
X140694960Y-89485280D01*
X140682260Y-89485280D01*
X140674640Y-89487820D01*
X140644160Y-89495440D01*
X140616220Y-89510680D01*
X140588280Y-89531000D01*
X140565420Y-89553860D01*
X140552720Y-89574180D01*
X140540020Y-89599580D01*
X140532400Y-89624980D01*
X140527320Y-89645300D01*
X140527320Y-89668160D01*
X140527320Y-89693560D01*
X140529860Y-89711340D01*
X140537480Y-89734200D01*
X140555260Y-89769760D01*
X140578120Y-89800240D01*
X140608600Y-89825640D01*
X140641620Y-89845960D01*
X140682260Y-89856120D01*
X140692420Y-89858660D01*
X140715280Y-89858660D01*
X140738140Y-89856120D01*
X140761000Y-89853580D01*
X140776240Y-89848500D01*
X140811800Y-89830720D01*
X140842280Y-89807860D01*
X140867680Y-89779920D01*
X140885460Y-89746900D01*
X140898160Y-89708800D01*
X140898160Y-89706260D01*
X140900700Y-89696100D01*
X140900700Y-89698640D01*
X140900700Y-89645300D01*
X140900700Y-89645300D01*
X140898160Y-89637680D01*
X140898160Y-89635140D01*
X140890540Y-89609740D01*
X140880380Y-89584340D01*
X140865140Y-89558940D01*
X140852440Y-89546240D01*
X140824500Y-89518300D01*
X140788940Y-89500520D01*
X140750840Y-89487820D01*
X140733060Y-89482740D01*
X140745760Y-89480200D01*
X140758460Y-89477660D01*
X140768620Y-89475120D01*
X140776240Y-89472580D01*
X140811800Y-89457340D01*
X140842280Y-89431940D01*
X140867680Y-89404000D01*
X140885460Y-89370980D01*
X140898160Y-89335420D01*
X140898160Y-89327800D01*
X140900700Y-89322720D01*
X140903240Y-89325260D01*
X140905780Y-89335420D01*
X140905780Y-89337960D01*
X140910860Y-89358280D01*
X140921020Y-89378600D01*
X140931180Y-89398920D01*
X140941340Y-89411620D01*
X140959120Y-89429400D01*
X140976900Y-89447180D01*
X140994680Y-89459880D01*
X140997220Y-89459880D01*
X141025160Y-89472580D01*
X141055640Y-89480200D01*
X141068340Y-89482740D01*
X141053100Y-89487820D01*
X141020080Y-89495440D01*
X140987060Y-89513220D01*
X140956580Y-89536080D01*
X140933720Y-89564020D01*
X140928640Y-89574180D01*
X140918480Y-89591960D01*
X140910860Y-89612280D01*
X140905780Y-89630060D01*
X140903240Y-89642760D01*
X140903240Y-89642760D01*
X140900700Y-89645300D01*
X140900700Y-89698640D01*
X140903240Y-89698640D01*
X140903240Y-89706260D01*
X140905780Y-89716420D01*
X140910860Y-89729120D01*
X140918480Y-89746900D01*
X140936260Y-89779920D01*
X140961660Y-89807860D01*
X140989600Y-89830720D01*
X141022620Y-89845960D01*
X141058180Y-89856120D01*
X141093740Y-89858660D01*
X141093740Y-89858660D01*
G37*
X141093740Y-89858660D02*
X141131840Y-89853580D01*
X141167400Y-89840880D01*
X141185180Y-89833260D01*
X141200420Y-89820560D01*
X141218200Y-89805320D01*
X141238520Y-89785000D01*
X141258840Y-89751980D01*
X141271540Y-89716420D01*
X141274080Y-89706260D01*
X141276620Y-89680860D01*
X141276620Y-89655460D01*
X141271540Y-89632600D01*
X141261380Y-89599580D01*
X141246140Y-89566560D01*
X141223280Y-89538620D01*
X141218200Y-89536080D01*
X141200420Y-89520840D01*
X141180100Y-89508140D01*
X141162320Y-89497980D01*
X141154700Y-89495440D01*
X141139460Y-89490360D01*
X141124220Y-89487820D01*
X141114060Y-89485280D01*
X141106440Y-89485280D01*
X141114060Y-89482740D01*
X141124220Y-89480200D01*
X141134380Y-89477660D01*
X141149620Y-89475120D01*
X141177560Y-89459880D01*
X141205500Y-89444640D01*
X141225820Y-89424320D01*
X141230900Y-89419240D01*
X141253760Y-89386220D01*
X141269000Y-89350660D01*
X141276620Y-89315100D01*
X141276620Y-89277000D01*
X141274080Y-89266840D01*
X141263920Y-89228740D01*
X141246140Y-89195720D01*
X141220740Y-89162700D01*
X141197880Y-89144920D01*
X141164860Y-89124600D01*
X141129300Y-89111900D01*
X141121680Y-89111900D01*
X141096280Y-89109360D01*
X141070880Y-89109360D01*
X141045480Y-89114440D01*
X141025160Y-89119520D01*
X140989600Y-89137300D01*
X140959120Y-89160160D01*
X140936260Y-89188100D01*
X140915940Y-89221120D01*
X140905780Y-89256680D01*
X140903240Y-89261760D01*
X140900700Y-89269380D01*
X140900700Y-89274460D01*
X140898160Y-89269380D01*
X140898160Y-89261760D01*
X140895620Y-89246520D01*
X140888000Y-89228740D01*
X140882920Y-89213500D01*
X140875300Y-89203340D01*
X140852440Y-89170320D01*
X140824500Y-89144920D01*
X140791480Y-89124600D01*
X140755920Y-89114440D01*
X140715280Y-89109360D01*
X140684800Y-89111900D01*
X140649240Y-89119520D01*
X140616220Y-89137300D01*
X140595900Y-89150000D01*
X140567960Y-89177940D01*
X140547640Y-89208420D01*
X140532400Y-89243980D01*
X140527320Y-89279540D01*
X140527320Y-89317640D01*
X140534940Y-89353200D01*
X140550180Y-89388760D01*
X140573040Y-89419240D01*
X140600980Y-89447180D01*
X140636540Y-89467500D01*
X140674640Y-89480200D01*
X140694960Y-89485280D01*
X140682260Y-89485280D01*
X140674640Y-89487820D01*
X140644160Y-89495440D01*
X140616220Y-89510680D01*
X140588280Y-89531000D01*
X140565420Y-89553860D01*
X140552720Y-89574180D01*
X140540020Y-89599580D01*
X140532400Y-89624980D01*
X140527320Y-89645300D01*
X140527320Y-89668160D01*
X140527320Y-89693560D01*
X140529860Y-89711340D01*
X140537480Y-89734200D01*
X140555260Y-89769760D01*
X140578120Y-89800240D01*
X140608600Y-89825640D01*
X140641620Y-89845960D01*
X140682260Y-89856120D01*
X140692420Y-89858660D01*
X140715280Y-89858660D01*
X140738140Y-89856120D01*
X140761000Y-89853580D01*
X140776240Y-89848500D01*
X140811800Y-89830720D01*
X140842280Y-89807860D01*
X140867680Y-89779920D01*
X140885460Y-89746900D01*
X140898160Y-89708800D01*
X140898160Y-89706260D01*
X140900700Y-89696100D01*
X140900700Y-89698640D01*
X140900700Y-89645300D01*
X140900700Y-89645300D01*
X140898160Y-89637680D01*
X140898160Y-89635140D01*
X140890540Y-89609740D01*
X140880380Y-89584340D01*
X140865140Y-89558940D01*
X140852440Y-89546240D01*
X140824500Y-89518300D01*
X140788940Y-89500520D01*
X140750840Y-89487820D01*
X140733060Y-89482740D01*
X140745760Y-89480200D01*
X140758460Y-89477660D01*
X140768620Y-89475120D01*
X140776240Y-89472580D01*
X140811800Y-89457340D01*
X140842280Y-89431940D01*
X140867680Y-89404000D01*
X140885460Y-89370980D01*
X140898160Y-89335420D01*
X140898160Y-89327800D01*
X140900700Y-89322720D01*
X140903240Y-89325260D01*
X140905780Y-89335420D01*
X140905780Y-89337960D01*
X140910860Y-89358280D01*
X140921020Y-89378600D01*
X140931180Y-89398920D01*
X140941340Y-89411620D01*
X140959120Y-89429400D01*
X140976900Y-89447180D01*
X140994680Y-89459880D01*
X140997220Y-89459880D01*
X141025160Y-89472580D01*
X141055640Y-89480200D01*
X141068340Y-89482740D01*
X141053100Y-89487820D01*
X141020080Y-89495440D01*
X140987060Y-89513220D01*
X140956580Y-89536080D01*
X140933720Y-89564020D01*
X140928640Y-89574180D01*
X140918480Y-89591960D01*
X140910860Y-89612280D01*
X140905780Y-89630060D01*
X140903240Y-89642760D01*
X140903240Y-89642760D01*
X140900700Y-89645300D01*
X140900700Y-89698640D01*
X140903240Y-89698640D01*
X140903240Y-89706260D01*
X140905780Y-89716420D01*
X140910860Y-89729120D01*
X140918480Y-89746900D01*
X140936260Y-89779920D01*
X140961660Y-89807860D01*
X140989600Y-89830720D01*
X141022620Y-89845960D01*
X141058180Y-89856120D01*
X141093740Y-89858660D01*
G36*
X142221500Y-89858660D02*
X142257060Y-89853580D01*
X142292620Y-89840880D01*
X142325640Y-89820560D01*
X142351040Y-89795160D01*
X142373900Y-89764680D01*
X142389140Y-89729120D01*
X142394220Y-89716420D01*
X142396760Y-89706260D01*
X142396760Y-89703720D01*
X142399300Y-89696100D01*
X142399300Y-89696100D01*
X142399300Y-89645300D01*
X142396760Y-89640220D01*
X142394220Y-89627520D01*
X142386600Y-89604660D01*
X142371360Y-89571640D01*
X142348500Y-89541160D01*
X142318020Y-89518300D01*
X142285000Y-89497980D01*
X142249440Y-89487820D01*
X142231660Y-89482740D01*
X142244360Y-89480200D01*
X142244360Y-89480200D01*
X142274840Y-89472580D01*
X142305320Y-89459880D01*
X142315480Y-89452260D01*
X142335800Y-89434480D01*
X142353580Y-89416700D01*
X142368820Y-89398920D01*
X142376440Y-89383680D01*
X142389140Y-89358280D01*
X142394220Y-89337960D01*
X142396760Y-89327800D01*
X142399300Y-89322720D01*
X142399300Y-89325260D01*
X142401840Y-89335420D01*
X142409460Y-89360820D01*
X142427240Y-89396380D01*
X142452640Y-89426860D01*
X142480580Y-89449720D01*
X142513600Y-89470040D01*
X142554240Y-89480200D01*
X142566940Y-89482740D01*
X142549160Y-89487820D01*
X142531380Y-89492900D01*
X142495820Y-89508140D01*
X142462800Y-89531000D01*
X142437400Y-89558940D01*
X142427240Y-89569100D01*
X142419620Y-89586880D01*
X142409460Y-89607200D01*
X142404380Y-89619900D01*
X142401840Y-89635140D01*
X142401840Y-89635140D01*
X142399300Y-89642760D01*
X142399300Y-89645300D01*
X142399300Y-89696100D01*
X142399300Y-89698640D01*
X142401840Y-89708800D01*
X142404380Y-89721500D01*
X142417080Y-89749440D01*
X142429780Y-89774840D01*
X142442480Y-89790080D01*
X142470420Y-89818020D01*
X142503440Y-89838340D01*
X142541540Y-89853580D01*
X142556780Y-89856120D01*
X142582180Y-89858660D01*
X142610120Y-89856120D01*
X142632980Y-89853580D01*
X142635520Y-89853580D01*
X142673620Y-89838340D01*
X142706640Y-89815480D01*
X142732040Y-89787540D01*
X142754900Y-89754520D01*
X142767600Y-89716420D01*
X142772680Y-89701180D01*
X142772680Y-89673240D01*
X142772680Y-89647840D01*
X142767600Y-89624980D01*
X142762520Y-89604660D01*
X142749820Y-89579260D01*
X142734580Y-89553860D01*
X142716800Y-89536080D01*
X142693940Y-89518300D01*
X142668540Y-89503060D01*
X142660920Y-89497980D01*
X142643140Y-89492900D01*
X142625360Y-89487820D01*
X142612660Y-89485280D01*
X142610120Y-89485280D01*
X142615200Y-89482740D01*
X142625360Y-89480200D01*
X142648220Y-89472580D01*
X142671080Y-89462420D01*
X142691400Y-89452260D01*
X142696480Y-89447180D01*
X142721880Y-89426860D01*
X142742200Y-89398920D01*
X142757440Y-89370980D01*
X142765060Y-89358280D01*
X142772680Y-89320180D01*
X142772680Y-89282080D01*
X142767600Y-89243980D01*
X142765060Y-89236360D01*
X142747280Y-89200800D01*
X142724420Y-89170320D01*
X142696480Y-89144920D01*
X142663460Y-89124600D01*
X142625360Y-89111900D01*
X142620280Y-89111900D01*
X142594880Y-89109360D01*
X142566940Y-89109360D01*
X142544080Y-89114440D01*
X142536460Y-89114440D01*
X142500900Y-89129680D01*
X142467880Y-89150000D01*
X142439940Y-89180480D01*
X142417080Y-89213500D01*
X142412000Y-89223660D01*
X142406920Y-89241440D01*
X142401840Y-89256680D01*
X142401840Y-89269380D01*
X142401840Y-89271920D01*
X142399300Y-89271920D01*
X142396760Y-89266840D01*
X142394220Y-89256680D01*
X142389140Y-89231280D01*
X142371360Y-89198260D01*
X142348500Y-89170320D01*
X142320560Y-89144920D01*
X142287540Y-89124600D01*
X142287540Y-89124600D01*
X142254520Y-89114440D01*
X142216420Y-89109360D01*
X142178320Y-89111900D01*
X142142760Y-89122060D01*
X142122440Y-89132220D01*
X142089420Y-89152540D01*
X142064020Y-89180480D01*
X142043700Y-89213500D01*
X142028460Y-89251600D01*
X142028460Y-89259220D01*
X142023380Y-89289700D01*
X142025920Y-89317640D01*
X142033540Y-89353200D01*
X142048780Y-89388760D01*
X142071640Y-89419240D01*
X142099580Y-89447180D01*
X142132600Y-89467500D01*
X142170700Y-89480200D01*
X142178320Y-89482740D01*
X142185940Y-89485280D01*
X142185940Y-89485280D01*
X142175780Y-89485280D01*
X142152920Y-89492900D01*
X142130060Y-89503060D01*
X142107200Y-89515760D01*
X142086880Y-89531000D01*
X142061480Y-89558940D01*
X142041160Y-89594500D01*
X142038620Y-89599580D01*
X142025920Y-89635140D01*
X142023380Y-89673240D01*
X142028460Y-89713880D01*
X142041160Y-89749440D01*
X142048780Y-89767220D01*
X142061480Y-89782460D01*
X142076720Y-89800240D01*
X142076720Y-89802780D01*
X142107200Y-89828180D01*
X142142760Y-89845960D01*
X142178320Y-89856120D01*
X142183400Y-89856120D01*
X142221500Y-89858660D01*
X142221500Y-89858660D01*
G37*
X142221500Y-89858660D02*
X142257060Y-89853580D01*
X142292620Y-89840880D01*
X142325640Y-89820560D01*
X142351040Y-89795160D01*
X142373900Y-89764680D01*
X142389140Y-89729120D01*
X142394220Y-89716420D01*
X142396760Y-89706260D01*
X142396760Y-89703720D01*
X142399300Y-89696100D01*
X142399300Y-89696100D01*
X142399300Y-89645300D01*
X142396760Y-89640220D01*
X142394220Y-89627520D01*
X142386600Y-89604660D01*
X142371360Y-89571640D01*
X142348500Y-89541160D01*
X142318020Y-89518300D01*
X142285000Y-89497980D01*
X142249440Y-89487820D01*
X142231660Y-89482740D01*
X142244360Y-89480200D01*
X142244360Y-89480200D01*
X142274840Y-89472580D01*
X142305320Y-89459880D01*
X142315480Y-89452260D01*
X142335800Y-89434480D01*
X142353580Y-89416700D01*
X142368820Y-89398920D01*
X142376440Y-89383680D01*
X142389140Y-89358280D01*
X142394220Y-89337960D01*
X142396760Y-89327800D01*
X142399300Y-89322720D01*
X142399300Y-89325260D01*
X142401840Y-89335420D01*
X142409460Y-89360820D01*
X142427240Y-89396380D01*
X142452640Y-89426860D01*
X142480580Y-89449720D01*
X142513600Y-89470040D01*
X142554240Y-89480200D01*
X142566940Y-89482740D01*
X142549160Y-89487820D01*
X142531380Y-89492900D01*
X142495820Y-89508140D01*
X142462800Y-89531000D01*
X142437400Y-89558940D01*
X142427240Y-89569100D01*
X142419620Y-89586880D01*
X142409460Y-89607200D01*
X142404380Y-89619900D01*
X142401840Y-89635140D01*
X142401840Y-89635140D01*
X142399300Y-89642760D01*
X142399300Y-89645300D01*
X142399300Y-89696100D01*
X142399300Y-89698640D01*
X142401840Y-89708800D01*
X142404380Y-89721500D01*
X142417080Y-89749440D01*
X142429780Y-89774840D01*
X142442480Y-89790080D01*
X142470420Y-89818020D01*
X142503440Y-89838340D01*
X142541540Y-89853580D01*
X142556780Y-89856120D01*
X142582180Y-89858660D01*
X142610120Y-89856120D01*
X142632980Y-89853580D01*
X142635520Y-89853580D01*
X142673620Y-89838340D01*
X142706640Y-89815480D01*
X142732040Y-89787540D01*
X142754900Y-89754520D01*
X142767600Y-89716420D01*
X142772680Y-89701180D01*
X142772680Y-89673240D01*
X142772680Y-89647840D01*
X142767600Y-89624980D01*
X142762520Y-89604660D01*
X142749820Y-89579260D01*
X142734580Y-89553860D01*
X142716800Y-89536080D01*
X142693940Y-89518300D01*
X142668540Y-89503060D01*
X142660920Y-89497980D01*
X142643140Y-89492900D01*
X142625360Y-89487820D01*
X142612660Y-89485280D01*
X142610120Y-89485280D01*
X142615200Y-89482740D01*
X142625360Y-89480200D01*
X142648220Y-89472580D01*
X142671080Y-89462420D01*
X142691400Y-89452260D01*
X142696480Y-89447180D01*
X142721880Y-89426860D01*
X142742200Y-89398920D01*
X142757440Y-89370980D01*
X142765060Y-89358280D01*
X142772680Y-89320180D01*
X142772680Y-89282080D01*
X142767600Y-89243980D01*
X142765060Y-89236360D01*
X142747280Y-89200800D01*
X142724420Y-89170320D01*
X142696480Y-89144920D01*
X142663460Y-89124600D01*
X142625360Y-89111900D01*
X142620280Y-89111900D01*
X142594880Y-89109360D01*
X142566940Y-89109360D01*
X142544080Y-89114440D01*
X142536460Y-89114440D01*
X142500900Y-89129680D01*
X142467880Y-89150000D01*
X142439940Y-89180480D01*
X142417080Y-89213500D01*
X142412000Y-89223660D01*
X142406920Y-89241440D01*
X142401840Y-89256680D01*
X142401840Y-89269380D01*
X142401840Y-89271920D01*
X142399300Y-89271920D01*
X142396760Y-89266840D01*
X142394220Y-89256680D01*
X142389140Y-89231280D01*
X142371360Y-89198260D01*
X142348500Y-89170320D01*
X142320560Y-89144920D01*
X142287540Y-89124600D01*
X142287540Y-89124600D01*
X142254520Y-89114440D01*
X142216420Y-89109360D01*
X142178320Y-89111900D01*
X142142760Y-89122060D01*
X142122440Y-89132220D01*
X142089420Y-89152540D01*
X142064020Y-89180480D01*
X142043700Y-89213500D01*
X142028460Y-89251600D01*
X142028460Y-89259220D01*
X142023380Y-89289700D01*
X142025920Y-89317640D01*
X142033540Y-89353200D01*
X142048780Y-89388760D01*
X142071640Y-89419240D01*
X142099580Y-89447180D01*
X142132600Y-89467500D01*
X142170700Y-89480200D01*
X142178320Y-89482740D01*
X142185940Y-89485280D01*
X142185940Y-89485280D01*
X142175780Y-89485280D01*
X142152920Y-89492900D01*
X142130060Y-89503060D01*
X142107200Y-89515760D01*
X142086880Y-89531000D01*
X142061480Y-89558940D01*
X142041160Y-89594500D01*
X142038620Y-89599580D01*
X142025920Y-89635140D01*
X142023380Y-89673240D01*
X142028460Y-89713880D01*
X142041160Y-89749440D01*
X142048780Y-89767220D01*
X142061480Y-89782460D01*
X142076720Y-89800240D01*
X142076720Y-89802780D01*
X142107200Y-89828180D01*
X142142760Y-89845960D01*
X142178320Y-89856120D01*
X142183400Y-89856120D01*
X142221500Y-89858660D01*
D11*
X145786190Y-92808571D02*
X146119524Y-92808571D01*
X146119524Y-93332381D02*
X146119524Y-92332381D01*
X145643333Y-92332381D01*
X145405238Y-92332381D02*
X144833809Y-92332381D01*
X145119524Y-93332381D02*
X145119524Y-92332381D01*
X144500476Y-93332381D02*
X144500476Y-92332381D01*
X144262381Y-92332381D01*
X144119523Y-92380000D01*
X144024285Y-92475238D01*
X143976666Y-92570476D01*
X143929047Y-92760952D01*
X143929047Y-92903810D01*
X143976666Y-93094286D01*
X144024285Y-93189524D01*
X144119523Y-93284762D01*
X144262381Y-93332381D01*
X144500476Y-93332381D01*
X143500476Y-93332381D02*
X143500476Y-92332381D01*
%LPC*%
D15*
X140976565Y-94855471D03*
X138136897Y-94827466D03*
X139863103Y-92572534D03*
X137023435Y-92544529D03*
D16*
X158110000Y-90450000D03*
X158110000Y-92250000D03*
D15*
X161516371Y-95968934D03*
X159790166Y-93714003D03*
X162629834Y-93685997D03*
X160903629Y-91431066D03*
D17*
X150270320Y-93939360D03*
X150770700Y-93939360D03*
X151271080Y-93939360D03*
X149769940Y-93939360D03*
D18*
X149020640Y-93190060D03*
X149020640Y-92689680D03*
X149020640Y-92189300D03*
X149020640Y-91688920D03*
X149020640Y-91191080D03*
X149020640Y-90690700D03*
X149020640Y-90190320D03*
X149020640Y-89689940D03*
D17*
X153270060Y-88940640D03*
X149769940Y-88940640D03*
X150270320Y-88940640D03*
X150770700Y-88940640D03*
X151271080Y-88940640D03*
X151768920Y-88940640D03*
X152269300Y-88940640D03*
X152769680Y-88940640D03*
D18*
X154019360Y-89689940D03*
X154019360Y-90190320D03*
X154019360Y-90690700D03*
X154019360Y-91191080D03*
X154019360Y-91688920D03*
X154019360Y-92189300D03*
X154019360Y-92689680D03*
X154019360Y-93190060D03*
D17*
X153270060Y-93939360D03*
X152769680Y-93939360D03*
X152269300Y-93939360D03*
X151768920Y-93939360D03*
D19*
X151520000Y-91440000D03*
D20*
X143780000Y-96640000D03*
D21*
X146320000Y-96640000D03*
X148860000Y-96640000D03*
X151400000Y-96640000D03*
X153940000Y-96640000D03*
X156480000Y-96640000D03*
D22*
X156190000Y-90540040D03*
X156190000Y-92439960D03*
D23*
X145500000Y-91080000D03*
X145500000Y-90130000D03*
X145500000Y-89180000D03*
D10*
G36*
X138543910Y-100115644D02*
X137315182Y-100976008D01*
X136454818Y-99747280D01*
X137683546Y-98886916D01*
X138543910Y-100115644D01*
X138543910Y-100115644D01*
G37*
G36*
X134070014Y-93726258D02*
X132841286Y-94586622D01*
X131980922Y-93357894D01*
X133209650Y-92497530D01*
X134070014Y-93726258D01*
X134070014Y-93726258D01*
G37*
G36*
X162930660Y-100867465D02*
X161701932Y-100007101D01*
X162562296Y-98778373D01*
X163791024Y-99638737D01*
X162930660Y-100867465D01*
X162930660Y-100867465D01*
G37*
G36*
X167404556Y-94478079D02*
X166175828Y-93617715D01*
X167036192Y-92388987D01*
X168264920Y-93249351D01*
X167404556Y-94478079D01*
X167404556Y-94478079D01*
G37*
D24*
X157638360Y-94390000D03*
X155941640Y-94390000D03*
M02*
