G04 #@! TF.FileFunction,Copper,L2,Bot,Signal*
%FSLAX46Y46*%
G04 Gerber Fmt 4.6, Leading zero omitted, Abs format (unit mm)*
G04 Created by KiCad (PCBNEW (2015-03-18 BZR 5525)-product) date Thu 19 Mar 2015 10:43:18 PM CET*
%MOMM*%
G01*
G04 APERTURE LIST*
%ADD10C,0.100000*%
%ADD11R,1.650000X1.650000*%
%ADD12C,1.650000*%
%ADD13C,0.762000*%
%ADD14R,0.762000X0.762000*%
%ADD15C,1.400000*%
%ADD16R,1.100000X1.000000*%
%ADD17R,1.498600X1.297940*%
%ADD18R,0.998220X1.099820*%
%ADD19C,0.609600*%
%ADD20C,0.254000*%
%ADD21C,0.203200*%
%ADD22C,0.177800*%
G04 APERTURE END LIST*
D10*
D11*
X143780000Y-96640000D03*
D12*
X146320000Y-96640000D03*
X148860000Y-96640000D03*
X151400000Y-96640000D03*
X153940000Y-96640000D03*
X156480000Y-96640000D03*
D13*
X142992751Y-89788042D03*
X142992751Y-91058042D03*
D14*
X144262751Y-89788042D03*
D13*
X144262751Y-91058042D03*
X141722751Y-89788042D03*
X141722751Y-91058042D03*
D15*
X137023435Y-92544529D03*
X139863103Y-92572534D03*
X138136897Y-94827466D03*
X140976565Y-94855471D03*
D16*
X158110000Y-90450000D03*
X158110000Y-92250000D03*
D15*
X160903629Y-91431066D03*
X162629834Y-93685997D03*
X159790166Y-93714003D03*
X161516371Y-95968934D03*
D17*
X156190000Y-90540040D03*
X156190000Y-92439960D03*
D10*
G36*
X138543910Y-100115644D02*
X137315182Y-100976008D01*
X136454818Y-99747280D01*
X137683546Y-98886916D01*
X138543910Y-100115644D01*
X138543910Y-100115644D01*
G37*
G36*
X134070014Y-93726258D02*
X132841286Y-94586622D01*
X131980922Y-93357894D01*
X133209650Y-92497530D01*
X134070014Y-93726258D01*
X134070014Y-93726258D01*
G37*
G36*
X162930660Y-100867465D02*
X161701932Y-100007101D01*
X162562296Y-98778373D01*
X163791024Y-99638737D01*
X162930660Y-100867465D01*
X162930660Y-100867465D01*
G37*
G36*
X167404556Y-94478079D02*
X166175828Y-93617715D01*
X167036192Y-92388987D01*
X168264920Y-93249351D01*
X167404556Y-94478079D01*
X167404556Y-94478079D01*
G37*
D18*
X157638360Y-94390000D03*
X155941640Y-94390000D03*
D10*
G36*
X149529017Y-94751045D02*
X149352240Y-94574268D01*
X149847215Y-94079293D01*
X150023992Y-94256070D01*
X149529017Y-94751045D01*
X149529017Y-94751045D01*
G37*
G36*
X149175463Y-94397492D02*
X148998686Y-94220715D01*
X149493661Y-93725740D01*
X149670438Y-93902517D01*
X149175463Y-94397492D01*
X149175463Y-94397492D01*
G37*
G36*
X148821910Y-94043938D02*
X148645133Y-93867161D01*
X149140108Y-93372186D01*
X149316885Y-93548963D01*
X148821910Y-94043938D01*
X148821910Y-94043938D01*
G37*
G36*
X148468356Y-93690385D02*
X148291579Y-93513608D01*
X148786554Y-93018633D01*
X148963331Y-93195410D01*
X148468356Y-93690385D01*
X148468356Y-93690385D01*
G37*
G36*
X148114803Y-93336832D02*
X147938026Y-93160055D01*
X148433001Y-92665080D01*
X148609778Y-92841857D01*
X148114803Y-93336832D01*
X148114803Y-93336832D01*
G37*
G36*
X147761250Y-92983278D02*
X147584473Y-92806501D01*
X148079448Y-92311526D01*
X148256225Y-92488303D01*
X147761250Y-92983278D01*
X147761250Y-92983278D01*
G37*
G36*
X147407696Y-92629725D02*
X147230919Y-92452948D01*
X147725894Y-91957973D01*
X147902671Y-92134750D01*
X147407696Y-92629725D01*
X147407696Y-92629725D01*
G37*
G36*
X147054143Y-92276171D02*
X146877366Y-92099394D01*
X147372341Y-91604419D01*
X147549118Y-91781196D01*
X147054143Y-92276171D01*
X147054143Y-92276171D01*
G37*
G36*
X146877366Y-90861958D02*
X147054143Y-90685181D01*
X147549118Y-91180156D01*
X147372341Y-91356933D01*
X146877366Y-90861958D01*
X146877366Y-90861958D01*
G37*
G36*
X147230919Y-90508404D02*
X147407696Y-90331627D01*
X147902671Y-90826602D01*
X147725894Y-91003379D01*
X147230919Y-90508404D01*
X147230919Y-90508404D01*
G37*
G36*
X147584473Y-90154851D02*
X147761250Y-89978074D01*
X148256225Y-90473049D01*
X148079448Y-90649826D01*
X147584473Y-90154851D01*
X147584473Y-90154851D01*
G37*
G36*
X147938026Y-89801297D02*
X148114803Y-89624520D01*
X148609778Y-90119495D01*
X148433001Y-90296272D01*
X147938026Y-89801297D01*
X147938026Y-89801297D01*
G37*
G36*
X148291579Y-89447744D02*
X148468356Y-89270967D01*
X148963331Y-89765942D01*
X148786554Y-89942719D01*
X148291579Y-89447744D01*
X148291579Y-89447744D01*
G37*
G36*
X148645133Y-89094191D02*
X148821910Y-88917414D01*
X149316885Y-89412389D01*
X149140108Y-89589166D01*
X148645133Y-89094191D01*
X148645133Y-89094191D01*
G37*
G36*
X148998686Y-88740637D02*
X149175463Y-88563860D01*
X149670438Y-89058835D01*
X149493661Y-89235612D01*
X148998686Y-88740637D01*
X148998686Y-88740637D01*
G37*
G36*
X149352240Y-88387084D02*
X149529017Y-88210307D01*
X150023992Y-88705282D01*
X149847215Y-88882059D01*
X149352240Y-88387084D01*
X149352240Y-88387084D01*
G37*
G36*
X150448255Y-88882059D02*
X150271478Y-88705282D01*
X150766453Y-88210307D01*
X150943230Y-88387084D01*
X150448255Y-88882059D01*
X150448255Y-88882059D01*
G37*
G36*
X150801809Y-89235612D02*
X150625032Y-89058835D01*
X151120007Y-88563860D01*
X151296784Y-88740637D01*
X150801809Y-89235612D01*
X150801809Y-89235612D01*
G37*
G36*
X151155362Y-89589166D02*
X150978585Y-89412389D01*
X151473560Y-88917414D01*
X151650337Y-89094191D01*
X151155362Y-89589166D01*
X151155362Y-89589166D01*
G37*
G36*
X151508916Y-89942719D02*
X151332139Y-89765942D01*
X151827114Y-89270967D01*
X152003891Y-89447744D01*
X151508916Y-89942719D01*
X151508916Y-89942719D01*
G37*
G36*
X151862469Y-90296272D02*
X151685692Y-90119495D01*
X152180667Y-89624520D01*
X152357444Y-89801297D01*
X151862469Y-90296272D01*
X151862469Y-90296272D01*
G37*
G36*
X152216022Y-90649826D02*
X152039245Y-90473049D01*
X152534220Y-89978074D01*
X152710997Y-90154851D01*
X152216022Y-90649826D01*
X152216022Y-90649826D01*
G37*
G36*
X152569576Y-91003379D02*
X152392799Y-90826602D01*
X152887774Y-90331627D01*
X153064551Y-90508404D01*
X152569576Y-91003379D01*
X152569576Y-91003379D01*
G37*
G36*
X152923129Y-91356933D02*
X152746352Y-91180156D01*
X153241327Y-90685181D01*
X153418104Y-90861958D01*
X152923129Y-91356933D01*
X152923129Y-91356933D01*
G37*
G36*
X152746352Y-91781196D02*
X152923129Y-91604419D01*
X153418104Y-92099394D01*
X153241327Y-92276171D01*
X152746352Y-91781196D01*
X152746352Y-91781196D01*
G37*
G36*
X152392799Y-92134750D02*
X152569576Y-91957973D01*
X153064551Y-92452948D01*
X152887774Y-92629725D01*
X152392799Y-92134750D01*
X152392799Y-92134750D01*
G37*
G36*
X152039245Y-92488303D02*
X152216022Y-92311526D01*
X152710997Y-92806501D01*
X152534220Y-92983278D01*
X152039245Y-92488303D01*
X152039245Y-92488303D01*
G37*
G36*
X151685692Y-92841857D02*
X151862469Y-92665080D01*
X152357444Y-93160055D01*
X152180667Y-93336832D01*
X151685692Y-92841857D01*
X151685692Y-92841857D01*
G37*
G36*
X151332139Y-93195410D02*
X151508916Y-93018633D01*
X152003891Y-93513608D01*
X151827114Y-93690385D01*
X151332139Y-93195410D01*
X151332139Y-93195410D01*
G37*
G36*
X150978585Y-93548963D02*
X151155362Y-93372186D01*
X151650337Y-93867161D01*
X151473560Y-94043938D01*
X150978585Y-93548963D01*
X150978585Y-93548963D01*
G37*
G36*
X150625032Y-93902517D02*
X150801809Y-93725740D01*
X151296784Y-94220715D01*
X151120007Y-94397492D01*
X150625032Y-93902517D01*
X150625032Y-93902517D01*
G37*
G36*
X150271478Y-94256070D02*
X150448255Y-94079293D01*
X150943230Y-94574268D01*
X150766453Y-94751045D01*
X150271478Y-94256070D01*
X150271478Y-94256070D01*
G37*
G36*
X150147735Y-91480676D02*
X148927976Y-90260917D01*
X150147735Y-89041158D01*
X151367494Y-90260917D01*
X150147735Y-91480676D01*
X150147735Y-91480676D01*
G37*
G36*
X151367494Y-92700435D02*
X150147735Y-91480676D01*
X151367494Y-90260917D01*
X152587253Y-91480676D01*
X151367494Y-92700435D01*
X151367494Y-92700435D01*
G37*
G36*
X148927976Y-92700435D02*
X147708217Y-91480676D01*
X148927976Y-90260917D01*
X150147735Y-91480676D01*
X148927976Y-92700435D01*
X148927976Y-92700435D01*
G37*
G36*
X150147735Y-93920194D02*
X148927976Y-92700435D01*
X150147735Y-91480676D01*
X151367494Y-92700435D01*
X150147735Y-93920194D01*
X150147735Y-93920194D01*
G37*
D19*
X145970000Y-91600000D03*
X146370000Y-92790000D03*
X136250000Y-93650000D03*
X154800000Y-93600000D03*
X154040000Y-90980000D03*
X148050000Y-94170000D03*
X139490000Y-90815020D03*
X138500000Y-92014220D03*
X146328891Y-93601772D03*
X156700000Y-89535910D03*
X152600000Y-88709620D03*
X146870000Y-94470000D03*
X151679944Y-91463829D03*
X151362883Y-95307505D03*
X153110000Y-93240000D03*
X153670000Y-95230000D03*
X145430000Y-94470000D03*
X143600000Y-93060000D03*
X141190000Y-93190260D03*
X139790000Y-95540000D03*
X150130000Y-95100000D03*
X155702104Y-95557504D03*
X153058702Y-94051192D03*
X138410000Y-98490000D03*
X142395020Y-92580555D03*
D20*
X145990000Y-91620000D02*
X145970000Y-91600000D01*
X146896114Y-91620000D02*
X145990000Y-91620000D01*
X147212987Y-91936873D02*
X146896114Y-91620000D01*
X146801052Y-92790000D02*
X146370000Y-92790000D01*
X147067504Y-92790000D02*
X146801052Y-92790000D01*
X147566809Y-92290695D02*
X147067504Y-92790000D01*
D21*
X142992751Y-89407249D02*
X143659492Y-88740508D01*
X149745185Y-87687181D02*
X150607524Y-88549520D01*
X148107553Y-87687181D02*
X149745185Y-87687181D01*
X147054226Y-88740508D02*
X148107553Y-87687181D01*
X143659492Y-88740508D02*
X147054226Y-88740508D01*
X142992751Y-89407249D02*
X142992751Y-89788042D01*
X151057044Y-88100000D02*
X150607524Y-88549520D01*
X157090465Y-88727265D02*
X153527265Y-88727265D01*
X152900000Y-88100000D02*
X151057044Y-88100000D01*
X158110000Y-89746800D02*
X157090465Y-88727265D01*
X153527265Y-88727265D02*
X152900000Y-88100000D01*
X158110000Y-90450000D02*
X158110000Y-89746800D01*
D20*
X136250000Y-94081052D02*
X136250000Y-93650000D01*
X136250000Y-98682098D02*
X136250000Y-94081052D01*
X137499364Y-99931462D02*
X136250000Y-98682098D01*
D21*
X148980782Y-88550000D02*
X149330532Y-88899750D01*
X148550000Y-88550000D02*
X148980782Y-88550000D01*
X147506410Y-89593590D02*
X148550000Y-88550000D01*
X145896410Y-89593590D02*
X147506410Y-89593590D01*
X145337889Y-90152111D02*
X145896410Y-89593590D01*
X145337889Y-90168941D02*
X145337889Y-90152111D01*
D22*
X145321059Y-90168941D02*
X145337889Y-90168941D01*
X145054259Y-90435741D02*
X145321059Y-90168941D01*
X143615052Y-90435741D02*
X145054259Y-90435741D01*
X142992751Y-91058042D02*
X143615052Y-90435741D01*
D21*
X145510603Y-89124390D02*
X144846951Y-89788042D01*
X149232016Y-88093590D02*
X148306410Y-88093590D01*
X147275610Y-89124390D02*
X145510603Y-89124390D01*
X149684354Y-88545928D02*
X149232016Y-88093590D01*
X148306410Y-88093590D02*
X147275610Y-89124390D01*
X144846951Y-89788042D02*
X144262751Y-89788042D01*
X154800000Y-93600000D02*
X154800000Y-95547456D01*
X154800000Y-95547456D02*
X155200000Y-95947456D01*
X160813970Y-97890411D02*
X162746478Y-99822919D01*
X155200000Y-95947456D02*
X155200000Y-97610000D01*
X155200000Y-97610000D02*
X155480411Y-97890411D01*
X155480411Y-97890411D02*
X160813970Y-97890411D01*
D20*
X151668990Y-93353957D02*
X151544531Y-93229498D01*
D21*
X152449101Y-94343801D02*
X152766093Y-94660793D01*
X151668990Y-93353957D02*
X152449101Y-94134068D01*
X152766093Y-94660793D02*
X153351311Y-94660793D01*
X152449101Y-94134068D02*
X152449101Y-94343801D01*
X153351311Y-94660793D02*
X154040000Y-93972104D01*
X154040000Y-93972104D02*
X154040000Y-91411052D01*
X154040000Y-91411052D02*
X154040000Y-90980000D01*
D20*
X148110000Y-94110000D02*
X148110000Y-93866845D01*
X148050000Y-94170000D02*
X148110000Y-94110000D01*
X148110000Y-93866845D02*
X148626480Y-93350365D01*
D21*
X139490000Y-91024220D02*
X139490000Y-90815020D01*
X138500000Y-92014220D02*
X139490000Y-91024220D01*
D20*
X146963376Y-93601772D02*
X146759943Y-93601772D01*
X147920631Y-92644517D02*
X146963376Y-93601772D01*
X146759943Y-93601772D02*
X146328891Y-93601772D01*
X156190000Y-89800839D02*
X156190000Y-90540040D01*
X156190000Y-89614858D02*
X156190000Y-89800839D01*
X156268948Y-89535910D02*
X156190000Y-89614858D01*
X156700000Y-89535910D02*
X156268948Y-89535910D01*
D21*
X151264688Y-88600000D02*
X151900000Y-88600000D01*
X150963142Y-88901546D02*
X151264688Y-88600000D01*
X151900000Y-88600000D02*
X152296218Y-88996218D01*
X152582816Y-88709620D02*
X152600000Y-88709620D01*
X152296218Y-88996218D02*
X152582816Y-88709620D01*
X152468190Y-89168190D02*
X155557351Y-89168190D01*
X155557351Y-89168190D02*
X156190000Y-89800839D01*
X152296218Y-88996218D02*
X152468190Y-89168190D01*
D20*
X141722751Y-91058042D02*
X141760000Y-91095291D01*
X141760000Y-92880000D02*
X143780000Y-94900000D01*
X141760000Y-91095291D02*
X141760000Y-92880000D01*
X143780000Y-94900000D02*
X143780000Y-96640000D01*
X148273902Y-93000956D02*
X148927976Y-92346882D01*
X148927976Y-92346882D02*
X148927976Y-91480676D01*
X148981009Y-93708062D02*
X149988636Y-92700435D01*
X149988636Y-92700435D02*
X150147735Y-92700435D01*
X148927976Y-91480676D02*
X150147735Y-92700435D01*
X150147735Y-90260917D02*
X148927976Y-91480676D01*
X151367494Y-91480676D02*
X150147735Y-90260917D01*
X151679944Y-91463829D02*
X151384341Y-91463829D01*
X151384341Y-91463829D02*
X151367494Y-91480676D01*
X152021568Y-89960396D02*
X151367494Y-90614470D01*
X151367494Y-90614470D02*
X151367494Y-91480676D01*
X146870000Y-94470000D02*
X146870000Y-94404858D01*
X146870000Y-94404858D02*
X148273902Y-93000956D01*
X137023435Y-92544529D02*
X137023435Y-91476565D01*
X137023435Y-91476565D02*
X138320000Y-90180000D01*
X140844709Y-90180000D02*
X141722751Y-91058042D01*
X138320000Y-90180000D02*
X140844709Y-90180000D01*
X155941640Y-94390000D02*
X155941640Y-94440800D01*
X137023435Y-92544529D02*
X134023015Y-92544529D01*
X156190000Y-92439960D02*
X156190000Y-94141640D01*
X156190000Y-94141640D02*
X155941640Y-94390000D01*
X134023015Y-92544529D02*
X133025468Y-93542076D01*
D21*
X166468037Y-92681196D02*
X167220374Y-93433533D01*
X163200000Y-92200000D02*
X163681196Y-92681196D01*
X162100000Y-92200000D02*
X163200000Y-92200000D01*
X161600000Y-92700000D02*
X162100000Y-92200000D01*
X160158642Y-92700000D02*
X161600000Y-92700000D01*
X158818642Y-91360000D02*
X160158642Y-92700000D01*
X163681196Y-92681196D02*
X166468037Y-92681196D01*
X157370290Y-91360000D02*
X158818642Y-91360000D01*
X156290330Y-92439960D02*
X157370290Y-91360000D01*
X156190000Y-92439960D02*
X156290330Y-92439960D01*
D20*
X154675001Y-91025291D02*
X156089670Y-92439960D01*
X156089670Y-92439960D02*
X156190000Y-92439960D01*
X152022812Y-89961217D02*
X152384029Y-89600000D01*
X153659802Y-89600000D02*
X154675001Y-90615199D01*
X152384029Y-89600000D02*
X153659802Y-89600000D01*
X154675001Y-90615199D02*
X154675001Y-91025291D01*
D21*
X149827391Y-95709601D02*
X149627989Y-95510199D01*
X147449801Y-95510199D02*
X147144999Y-95815001D01*
X150412609Y-95709601D02*
X149827391Y-95709601D01*
X150814705Y-95307505D02*
X150412609Y-95709601D01*
X149627989Y-95510199D02*
X147449801Y-95510199D01*
X147144999Y-95815001D02*
X146320000Y-96640000D01*
X151362883Y-95307505D02*
X150814705Y-95307505D01*
X153450000Y-92307982D02*
X153450000Y-92900000D01*
X153450000Y-92900000D02*
X153110000Y-93240000D01*
X153082483Y-91940465D02*
X153450000Y-92307982D01*
X152001831Y-94401831D02*
X152001831Y-94394443D01*
X151317780Y-93707780D02*
X151315168Y-93707780D01*
X152001831Y-94391831D02*
X151317780Y-93707780D01*
X152001831Y-94394443D02*
X152001831Y-94391831D01*
X152001831Y-94394443D02*
X152001831Y-94471281D01*
X152760550Y-95230000D02*
X153238948Y-95230000D01*
X152001831Y-94471281D02*
X152760550Y-95230000D01*
X153238948Y-95230000D02*
X153670000Y-95230000D01*
X151131811Y-94186061D02*
X152760751Y-95815001D01*
X151085805Y-94186061D02*
X151131811Y-94186061D01*
X152760751Y-95815001D02*
X153115001Y-95815001D01*
X150961346Y-94061602D02*
X151085805Y-94186061D01*
X153115001Y-95815001D02*
X153940000Y-96640000D01*
X146137790Y-90530000D02*
X145360399Y-91307391D01*
X145360399Y-93969347D02*
X145430000Y-94038948D01*
X146722100Y-90530000D02*
X146137790Y-90530000D01*
X147211191Y-91019091D02*
X146722100Y-90530000D01*
X145360399Y-91307391D02*
X145360399Y-93969347D01*
X145430000Y-94038948D02*
X145430000Y-94470000D01*
X143600000Y-93732210D02*
X143600000Y-93491052D01*
X150130000Y-95100000D02*
X145912210Y-95100000D01*
X145912210Y-95100000D02*
X145732609Y-95279601D01*
X145732609Y-95279601D02*
X145147391Y-95279601D01*
X143600000Y-93491052D02*
X143600000Y-93060000D01*
X145147391Y-95279601D02*
X143600000Y-93732210D01*
X139790000Y-95540000D02*
X139790000Y-94590260D01*
X139790000Y-94590260D02*
X141190000Y-93190260D01*
X159843939Y-95481943D02*
X156208717Y-95481943D01*
X162629834Y-93685997D02*
X161639885Y-93685997D01*
X161639885Y-93685997D02*
X159843939Y-95481943D01*
X156208717Y-95481943D02*
X156133156Y-95557504D01*
X156133156Y-95557504D02*
X155702104Y-95557504D01*
X152022812Y-93000135D02*
X152147271Y-93124594D01*
X152147271Y-93124594D02*
X152147271Y-93139761D01*
X152753903Y-93746393D02*
X153058702Y-94051192D01*
X152147271Y-93139761D02*
X152753903Y-93746393D01*
X139170000Y-97730000D02*
X138410000Y-98490000D01*
X139170000Y-95470000D02*
X139170000Y-97730000D01*
X144953989Y-91139051D02*
X144953989Y-91359051D01*
X142699819Y-92275756D02*
X142395020Y-92580555D01*
X144552641Y-91760399D02*
X143215176Y-91760399D01*
X147565013Y-90665269D02*
X146899744Y-90000000D01*
X146899744Y-90000000D02*
X146093040Y-90000000D01*
X143215176Y-91760399D02*
X142699819Y-92275756D01*
X144953989Y-91359051D02*
X144552641Y-91760399D01*
X146093040Y-90000000D02*
X144953989Y-91139051D01*
X139863103Y-92572534D02*
X139170000Y-93265637D01*
X139170000Y-93265637D02*
X139170000Y-95470000D01*
D20*
X139835098Y-92544529D02*
X139863103Y-92572534D01*
X158110000Y-92250000D02*
X158110000Y-93004000D01*
X158110000Y-93004000D02*
X157638360Y-93475640D01*
X157638360Y-93475640D02*
X157638360Y-94390000D01*
M02*
