M48
METRIC,TZ
T1C0.305
T2C0.356
T3C0.800
T4C1.016
%
G90
G05
T1
X142.658Y-93.052
X143.08Y-88.78
X146.27Y-94.82
X147.251Y-91.089
X147.53Y-92.84
X148.697Y-94.16
X148.806Y-88.927
X149.93Y-90.26
X152.639Y-95.521
X153.01Y-89.81
X153.964Y-94.
X154.01Y-89.12
X154.86Y-94.02
X155.16Y-95.57
X156.45Y-95.259
X161.33Y-93.53
X162.329Y-91.177
X164.06Y-93.27
T2
X150.885Y-90.18
X150.885Y-92.72
X152.155Y-90.18
X152.155Y-92.72
T3
X137.023Y-92.545
X138.137Y-94.827
X139.863Y-92.573
X140.977Y-94.855
X159.79Y-93.714
X160.904Y-91.431
X161.516Y-95.969
X162.63Y-93.686
T4
X143.78Y-96.64
X146.32Y-96.64
X148.86Y-96.64
X151.4Y-96.64
X153.94Y-96.64
X156.48Y-96.64
T0
M30
