M48
INCH,TZ
T1C0.012
T2C0.015
T3C0.031
T4C0.040
%
G90
G05
T1
X053642Y-036870
X054528Y-036142
X054921Y-035604
X056424Y-036841
X057165Y-036654
X057482Y-036097
X057541Y-036807
X057652Y-036452
X058147Y-037080
X059134Y-037437
X059592Y-037523
X059717Y-036009
X060079Y-034925
X060259Y-037028
X060280Y-036709
X060500Y-037492
X060630Y-036063
X060945Y-036850
X061300Y-037621
X061693Y-035250
T2
X055796Y-035350
X055796Y-035850
X056296Y-035350
X056296Y-035850
X056796Y-035350
X056796Y-035850
T3
X053946Y-036435
X054385Y-037334
X055064Y-036446
X055503Y-037345
X062910Y-036895
X063348Y-035996
X063589Y-037783
X064027Y-036884
T4
X056606Y-038047
X057606Y-038047
X058606Y-038047
X059606Y-038047
X060606Y-038047
X061606Y-038047
T0
M30
