G04 #@! TF.FileFunction,Legend,Bot*
%FSLAX46Y46*%
G04 Gerber Fmt 4.6, Leading zero omitted, Abs format (unit mm)*
G04 Created by KiCad (PCBNEW (2015-03-18 BZR 5525)-product) date Thu 19 Mar 2015 11:31:38 PM CET*
%MOMM*%
G01*
G04 APERTURE LIST*
%ADD10C,0.100000*%
%ADD11C,0.200000*%
%ADD12C,0.250000*%
%ADD13C,0.150000*%
%ADD14R,1.700000X1.700000*%
%ADD15C,1.700000*%
%ADD16C,1.450000*%
%ADD17R,1.150000X1.050000*%
%ADD18R,1.548600X1.347940*%
%ADD19R,1.048220X1.149820*%
G04 APERTURE END LIST*
D10*
D11*
X144551904Y-93610000D02*
X144647142Y-93562381D01*
X144789999Y-93562381D01*
X144932857Y-93610000D01*
X145028095Y-93705238D01*
X145075714Y-93800476D01*
X145123333Y-93990952D01*
X145123333Y-94133810D01*
X145075714Y-94324286D01*
X145028095Y-94419524D01*
X144932857Y-94514762D01*
X144789999Y-94562381D01*
X144694761Y-94562381D01*
X144551904Y-94514762D01*
X144504285Y-94467143D01*
X144504285Y-94133810D01*
X144694761Y-94133810D01*
X144075714Y-94562381D02*
X144075714Y-93562381D01*
X143504285Y-94562381D01*
X143504285Y-93562381D01*
X143028095Y-94562381D02*
X143028095Y-93562381D01*
X142790000Y-93562381D01*
X142647142Y-93610000D01*
X142551904Y-93705238D01*
X142504285Y-93800476D01*
X142456666Y-93990952D01*
X142456666Y-94133810D01*
X142504285Y-94324286D01*
X142551904Y-94419524D01*
X142647142Y-94514762D01*
X142790000Y-94562381D01*
X143028095Y-94562381D01*
X160530476Y-90292381D02*
X161101905Y-90292381D01*
X160816191Y-90292381D02*
X160816191Y-89292381D01*
X160911429Y-89435238D01*
X161006667Y-89530476D01*
X161101905Y-89578095D01*
X160197143Y-89292381D02*
X159578095Y-89292381D01*
X159911429Y-89673333D01*
X159768571Y-89673333D01*
X159673333Y-89720952D01*
X159625714Y-89768571D01*
X159578095Y-89863810D01*
X159578095Y-90101905D01*
X159625714Y-90197143D01*
X159673333Y-90244762D01*
X159768571Y-90292381D01*
X160054286Y-90292381D01*
X160149524Y-90244762D01*
X160197143Y-90197143D01*
X148860000Y-94670000D02*
X148510000Y-94320000D01*
X148860000Y-95170000D02*
X148860000Y-94670000D01*
X148860000Y-95170000D02*
X149120000Y-94960000D01*
X148860000Y-95170000D02*
X148600000Y-94960000D01*
X148510000Y-94320000D02*
X148050000Y-94320000D01*
X147690000Y-93772381D02*
X147070952Y-93772381D01*
X147404286Y-94153333D01*
X147261428Y-94153333D01*
X147166190Y-94200952D01*
X147118571Y-94248571D01*
X147070952Y-94343810D01*
X147070952Y-94581905D01*
X147118571Y-94677143D01*
X147166190Y-94724762D01*
X147261428Y-94772381D01*
X147547143Y-94772381D01*
X147642381Y-94724762D01*
X147690000Y-94677143D01*
X146785238Y-93772381D02*
X146451905Y-94772381D01*
X146118571Y-93772381D01*
X145785238Y-94677143D02*
X145737619Y-94724762D01*
X145785238Y-94772381D01*
X145832857Y-94724762D01*
X145785238Y-94677143D01*
X145785238Y-94772381D01*
X145785238Y-94391429D02*
X145832857Y-93820000D01*
X145785238Y-93772381D01*
X145737619Y-93820000D01*
X145785238Y-94391429D01*
X145785238Y-93772381D01*
D12*
X160744951Y-99452173D02*
X161433243Y-98469191D01*
X160613945Y-98941890D01*
X160777921Y-98010329D01*
X160089629Y-98993312D01*
X139584616Y-98628936D02*
X139256955Y-98858367D01*
X139477062Y-99471589D02*
X139945149Y-99143831D01*
X139256857Y-98160849D01*
X138788770Y-98488607D01*
D11*
X142129000Y-94989000D02*
X145050000Y-94989000D01*
X142129000Y-98291000D02*
X142129000Y-94989000D01*
X145050000Y-98291000D02*
X142129000Y-98291000D01*
X142510000Y-95370000D02*
X142510000Y-97910000D01*
X142510000Y-97910000D02*
X157750000Y-97910000D01*
X157750000Y-97910000D02*
X157750000Y-95370000D01*
X157750000Y-95370000D02*
X142510000Y-95370000D01*
X145050000Y-95370000D02*
X145050000Y-97910000D01*
X157290000Y-89690000D02*
X158930000Y-89690000D01*
X158930000Y-93010000D02*
X158930000Y-89690000D01*
X157290000Y-93010000D02*
X158930000Y-93010000D01*
X157290000Y-89690000D02*
X157290000Y-93010000D01*
D10*
X158559780Y-90998560D02*
X158559780Y-91698560D01*
X157659780Y-91698560D02*
X157659780Y-90998560D01*
X157809780Y-92198560D02*
X157659780Y-92198560D01*
X157659780Y-92198560D02*
X157659780Y-91698560D01*
X157659780Y-91698560D02*
X158559780Y-91698560D01*
X158559780Y-91698560D02*
X158559780Y-92198560D01*
X158559780Y-92198560D02*
X158409780Y-92198560D01*
X158559780Y-90498560D02*
X158384780Y-90498560D01*
X157659780Y-90498560D02*
X157834780Y-90498560D01*
X158559780Y-90498560D02*
X158559780Y-90998560D01*
X158559780Y-90998560D02*
X157659780Y-90998560D01*
X157659780Y-90998560D02*
X157659780Y-90498560D01*
X157985320Y-91323560D02*
X158234240Y-91323560D01*
X158234240Y-91323560D02*
X158234240Y-91572480D01*
X157985320Y-91572480D02*
X158234240Y-91572480D01*
X157985320Y-91323560D02*
X157985320Y-91572480D01*
X157810060Y-92196520D02*
G75*
G02X158409500Y-92196520I299720J0D01*
G01*
X158384100Y-90500600D02*
G75*
G02X157835460Y-90500600I-274320J0D01*
G01*
D11*
X155090000Y-93490000D02*
X155090000Y-89490000D01*
X155090000Y-93490000D02*
X157290000Y-93490000D01*
X157290000Y-93490000D02*
X157290000Y-89490000D01*
X157290000Y-89490000D02*
X155090000Y-89490000D01*
X137560503Y-97752297D02*
X135094124Y-94229943D01*
X135094124Y-94229943D02*
X132964329Y-95721241D01*
X132964329Y-95721241D02*
X135430708Y-99243595D01*
X135430708Y-99243595D02*
X137560503Y-97752297D01*
X136540514Y-97428842D02*
X135049215Y-95299047D01*
X135049215Y-95299047D02*
X133984318Y-96044696D01*
X133984318Y-96044696D02*
X135475617Y-98174491D01*
X135475617Y-98174491D02*
X136540514Y-97428842D01*
X133787432Y-94107240D02*
X133213856Y-93288088D01*
X133213856Y-93288088D02*
X132722365Y-93632234D01*
X132722365Y-93632234D02*
X133295941Y-94451386D01*
X137228891Y-99022152D02*
X137802467Y-99841304D01*
X137802467Y-99841304D02*
X137310976Y-100185450D01*
X137310976Y-100185450D02*
X136737400Y-99366298D01*
X135057118Y-93218196D02*
X132026255Y-95340429D01*
X132026255Y-95340429D02*
X135467714Y-100255342D01*
X135467714Y-100255342D02*
X138498577Y-98133109D01*
X138498577Y-98133109D02*
X135057118Y-93218196D01*
X164815134Y-99135052D02*
X167281513Y-95612698D01*
X167281513Y-95612698D02*
X165151718Y-94121400D01*
X165151718Y-94121400D02*
X162685339Y-97643754D01*
X162685339Y-97643754D02*
X164815134Y-99135052D01*
X164770225Y-98065948D02*
X166261524Y-95936153D01*
X166261524Y-95936153D02*
X165196627Y-95190504D01*
X165196627Y-95190504D02*
X163705328Y-97320299D01*
X163705328Y-97320299D02*
X164770225Y-98065948D01*
X166949901Y-94342843D02*
X167523477Y-93523691D01*
X167523477Y-93523691D02*
X167031986Y-93179545D01*
X167031986Y-93179545D02*
X166458410Y-93998697D01*
X163508442Y-99257755D02*
X162934866Y-100076907D01*
X162934866Y-100076907D02*
X162443375Y-99732761D01*
X162443375Y-99732761D02*
X163016951Y-98913609D01*
X168219587Y-95231886D02*
X165188724Y-93109653D01*
X165188724Y-93109653D02*
X161747265Y-98024566D01*
X161747265Y-98024566D02*
X164778128Y-100146799D01*
X164778128Y-100146799D02*
X168219587Y-95231886D01*
X158490000Y-93490000D02*
X155090000Y-93490000D01*
X155090000Y-93490000D02*
X155090000Y-95290000D01*
X155090000Y-95290000D02*
X158490000Y-95290000D01*
X158490000Y-95290000D02*
X158490000Y-93490000D01*
X156358200Y-94821800D02*
X155951800Y-94821800D01*
X155951800Y-94821800D02*
X155951800Y-93958200D01*
X156358200Y-93958200D02*
X155951800Y-93958200D01*
X156358200Y-94821800D02*
X156358200Y-93958200D01*
X157628200Y-94821800D02*
X157221800Y-94821800D01*
X157221800Y-94821800D02*
X157221800Y-93958200D01*
X157628200Y-93958200D02*
X157221800Y-93958200D01*
X157628200Y-94821800D02*
X157628200Y-93958200D01*
X157221800Y-94745600D02*
X156358200Y-94745600D01*
X156358200Y-94034400D02*
X157221800Y-94034400D01*
D13*
X153860046Y-91480676D02*
X153488815Y-91109445D01*
X146435424Y-91480676D02*
X146806655Y-91851907D01*
X150147735Y-87768365D02*
X150518966Y-88139596D01*
X150147735Y-95192987D02*
X150518966Y-94821756D01*
X146435424Y-91480676D02*
X146806655Y-91109445D01*
X150147735Y-87768365D02*
X149776504Y-88139596D01*
X153860046Y-91480676D02*
X153488815Y-91851907D01*
D11*
X141200190Y-96568571D02*
X141533524Y-96568571D01*
X141533524Y-97092381D02*
X141533524Y-96092381D01*
X141057333Y-96092381D01*
X140819238Y-96092381D02*
X140247809Y-96092381D01*
X140533524Y-97092381D02*
X140533524Y-96092381D01*
X139914476Y-97092381D02*
X139914476Y-96092381D01*
X139676381Y-96092381D01*
X139533523Y-96140000D01*
X139438285Y-96235238D01*
X139390666Y-96330476D01*
X139343047Y-96520952D01*
X139343047Y-96663810D01*
X139390666Y-96854286D01*
X139438285Y-96949524D01*
X139533523Y-97044762D01*
X139676381Y-97092381D01*
X139914476Y-97092381D01*
X138914476Y-97092381D02*
X138914476Y-96092381D01*
%LPC*%
D14*
X143780000Y-96640000D03*
D15*
X146320000Y-96640000D03*
X148860000Y-96640000D03*
X151400000Y-96640000D03*
X153940000Y-96640000D03*
X156480000Y-96640000D03*
D16*
X137023435Y-92544529D03*
X139863103Y-92572534D03*
X138136897Y-94827466D03*
X140976565Y-94855471D03*
D17*
X158110000Y-90450000D03*
X158110000Y-92250000D03*
D16*
X160903629Y-91431066D03*
X162629834Y-93685997D03*
X159790166Y-93714003D03*
X161516371Y-95968934D03*
D18*
X156190000Y-90540040D03*
X156190000Y-92439960D03*
D10*
G36*
X138578729Y-100121783D02*
X137309043Y-101010827D01*
X136419999Y-99741141D01*
X137689685Y-98852097D01*
X138578729Y-100121783D01*
X138578729Y-100121783D01*
G37*
G36*
X134104833Y-93732397D02*
X132835147Y-94621441D01*
X131946103Y-93351755D01*
X133215789Y-92462711D01*
X134104833Y-93732397D01*
X134104833Y-93732397D01*
G37*
G36*
X162936799Y-100902284D02*
X161667113Y-100013240D01*
X162556157Y-98743554D01*
X163825843Y-99632598D01*
X162936799Y-100902284D01*
X162936799Y-100902284D01*
G37*
G36*
X167410695Y-94512898D02*
X166141009Y-93623854D01*
X167030053Y-92354168D01*
X168299739Y-93243212D01*
X167410695Y-94512898D01*
X167410695Y-94512898D01*
G37*
D19*
X157638360Y-94390000D03*
X155941640Y-94390000D03*
D10*
G36*
X149529017Y-94786400D02*
X149316885Y-94574268D01*
X149847215Y-94043938D01*
X150059347Y-94256070D01*
X149529017Y-94786400D01*
X149529017Y-94786400D01*
G37*
G36*
X149175463Y-94432847D02*
X148963331Y-94220715D01*
X149493661Y-93690385D01*
X149705793Y-93902517D01*
X149175463Y-94432847D01*
X149175463Y-94432847D01*
G37*
G36*
X148821910Y-94079293D02*
X148609778Y-93867161D01*
X149140108Y-93336831D01*
X149352240Y-93548963D01*
X148821910Y-94079293D01*
X148821910Y-94079293D01*
G37*
G36*
X148468356Y-93725740D02*
X148256224Y-93513608D01*
X148786554Y-92983278D01*
X148998686Y-93195410D01*
X148468356Y-93725740D01*
X148468356Y-93725740D01*
G37*
G36*
X148114803Y-93372187D02*
X147902671Y-93160055D01*
X148433001Y-92629725D01*
X148645133Y-92841857D01*
X148114803Y-93372187D01*
X148114803Y-93372187D01*
G37*
G36*
X147761250Y-93018633D02*
X147549118Y-92806501D01*
X148079448Y-92276171D01*
X148291580Y-92488303D01*
X147761250Y-93018633D01*
X147761250Y-93018633D01*
G37*
G36*
X147407696Y-92665080D02*
X147195564Y-92452948D01*
X147725894Y-91922618D01*
X147938026Y-92134750D01*
X147407696Y-92665080D01*
X147407696Y-92665080D01*
G37*
G36*
X147054143Y-92311526D02*
X146842011Y-92099394D01*
X147372341Y-91569064D01*
X147584473Y-91781196D01*
X147054143Y-92311526D01*
X147054143Y-92311526D01*
G37*
G36*
X146842011Y-90861958D02*
X147054143Y-90649826D01*
X147584473Y-91180156D01*
X147372341Y-91392288D01*
X146842011Y-90861958D01*
X146842011Y-90861958D01*
G37*
G36*
X147195564Y-90508404D02*
X147407696Y-90296272D01*
X147938026Y-90826602D01*
X147725894Y-91038734D01*
X147195564Y-90508404D01*
X147195564Y-90508404D01*
G37*
G36*
X147549118Y-90154851D02*
X147761250Y-89942719D01*
X148291580Y-90473049D01*
X148079448Y-90685181D01*
X147549118Y-90154851D01*
X147549118Y-90154851D01*
G37*
G36*
X147902671Y-89801297D02*
X148114803Y-89589165D01*
X148645133Y-90119495D01*
X148433001Y-90331627D01*
X147902671Y-89801297D01*
X147902671Y-89801297D01*
G37*
G36*
X148256224Y-89447744D02*
X148468356Y-89235612D01*
X148998686Y-89765942D01*
X148786554Y-89978074D01*
X148256224Y-89447744D01*
X148256224Y-89447744D01*
G37*
G36*
X148609778Y-89094191D02*
X148821910Y-88882059D01*
X149352240Y-89412389D01*
X149140108Y-89624521D01*
X148609778Y-89094191D01*
X148609778Y-89094191D01*
G37*
G36*
X148963331Y-88740637D02*
X149175463Y-88528505D01*
X149705793Y-89058835D01*
X149493661Y-89270967D01*
X148963331Y-88740637D01*
X148963331Y-88740637D01*
G37*
G36*
X149316885Y-88387084D02*
X149529017Y-88174952D01*
X150059347Y-88705282D01*
X149847215Y-88917414D01*
X149316885Y-88387084D01*
X149316885Y-88387084D01*
G37*
G36*
X150448255Y-88917414D02*
X150236123Y-88705282D01*
X150766453Y-88174952D01*
X150978585Y-88387084D01*
X150448255Y-88917414D01*
X150448255Y-88917414D01*
G37*
G36*
X150801809Y-89270967D02*
X150589677Y-89058835D01*
X151120007Y-88528505D01*
X151332139Y-88740637D01*
X150801809Y-89270967D01*
X150801809Y-89270967D01*
G37*
G36*
X151155362Y-89624521D02*
X150943230Y-89412389D01*
X151473560Y-88882059D01*
X151685692Y-89094191D01*
X151155362Y-89624521D01*
X151155362Y-89624521D01*
G37*
G36*
X151508916Y-89978074D02*
X151296784Y-89765942D01*
X151827114Y-89235612D01*
X152039246Y-89447744D01*
X151508916Y-89978074D01*
X151508916Y-89978074D01*
G37*
G36*
X151862469Y-90331627D02*
X151650337Y-90119495D01*
X152180667Y-89589165D01*
X152392799Y-89801297D01*
X151862469Y-90331627D01*
X151862469Y-90331627D01*
G37*
G36*
X152216022Y-90685181D02*
X152003890Y-90473049D01*
X152534220Y-89942719D01*
X152746352Y-90154851D01*
X152216022Y-90685181D01*
X152216022Y-90685181D01*
G37*
G36*
X152569576Y-91038734D02*
X152357444Y-90826602D01*
X152887774Y-90296272D01*
X153099906Y-90508404D01*
X152569576Y-91038734D01*
X152569576Y-91038734D01*
G37*
G36*
X152923129Y-91392288D02*
X152710997Y-91180156D01*
X153241327Y-90649826D01*
X153453459Y-90861958D01*
X152923129Y-91392288D01*
X152923129Y-91392288D01*
G37*
G36*
X152710997Y-91781196D02*
X152923129Y-91569064D01*
X153453459Y-92099394D01*
X153241327Y-92311526D01*
X152710997Y-91781196D01*
X152710997Y-91781196D01*
G37*
G36*
X152357444Y-92134750D02*
X152569576Y-91922618D01*
X153099906Y-92452948D01*
X152887774Y-92665080D01*
X152357444Y-92134750D01*
X152357444Y-92134750D01*
G37*
G36*
X152003890Y-92488303D02*
X152216022Y-92276171D01*
X152746352Y-92806501D01*
X152534220Y-93018633D01*
X152003890Y-92488303D01*
X152003890Y-92488303D01*
G37*
G36*
X151650337Y-92841857D02*
X151862469Y-92629725D01*
X152392799Y-93160055D01*
X152180667Y-93372187D01*
X151650337Y-92841857D01*
X151650337Y-92841857D01*
G37*
G36*
X151296784Y-93195410D02*
X151508916Y-92983278D01*
X152039246Y-93513608D01*
X151827114Y-93725740D01*
X151296784Y-93195410D01*
X151296784Y-93195410D01*
G37*
G36*
X150943230Y-93548963D02*
X151155362Y-93336831D01*
X151685692Y-93867161D01*
X151473560Y-94079293D01*
X150943230Y-93548963D01*
X150943230Y-93548963D01*
G37*
G36*
X150589677Y-93902517D02*
X150801809Y-93690385D01*
X151332139Y-94220715D01*
X151120007Y-94432847D01*
X150589677Y-93902517D01*
X150589677Y-93902517D01*
G37*
G36*
X150236123Y-94256070D02*
X150448255Y-94043938D01*
X150978585Y-94574268D01*
X150766453Y-94786400D01*
X150236123Y-94256070D01*
X150236123Y-94256070D01*
G37*
G36*
X150147735Y-91516032D02*
X148892620Y-90260917D01*
X150147735Y-89005802D01*
X151402850Y-90260917D01*
X150147735Y-91516032D01*
X150147735Y-91516032D01*
G37*
G36*
X151367494Y-92735791D02*
X150112379Y-91480676D01*
X151367494Y-90225561D01*
X152622609Y-91480676D01*
X151367494Y-92735791D01*
X151367494Y-92735791D01*
G37*
G36*
X148927976Y-92735791D02*
X147672861Y-91480676D01*
X148927976Y-90225561D01*
X150183091Y-91480676D01*
X148927976Y-92735791D01*
X148927976Y-92735791D01*
G37*
G36*
X150147735Y-93955550D02*
X148892620Y-92700435D01*
X150147735Y-91445320D01*
X151402850Y-92700435D01*
X150147735Y-93955550D01*
X150147735Y-93955550D01*
G37*
M02*
