%FSLAX46Y46*%
G04 Gerber Fmt 4.6, Leading zero omitted, Abs format (unit mm)*
G04 Created by KiCad (PCBNEW (2014-08-24 BZR 5093)-product) date Sun 24 Aug 2014 06:07:00 PM CEST*
%MOMM*%
G01*
G04 APERTURE LIST*
%ADD10C,0.100000*%
%ADD11C,1.400000*%
%ADD12C,0.711200*%
%ADD13R,1.100000X1.000000*%
%ADD14R,0.254000X0.762000*%
%ADD15R,0.762000X0.254000*%
%ADD16R,2.000000X1.250000*%
%ADD17R,1.650000X1.650000*%
%ADD18C,1.650000*%
%ADD19R,1.498600X1.297940*%
%ADD20R,2.000000X0.600000*%
%ADD21R,0.998220X1.099820*%
%ADD22C,0.609600*%
%ADD23C,0.254000*%
G04 APERTURE END LIST*
D10*
D11*
X140976565Y-94855471D03*
X138136897Y-94827466D03*
X139863103Y-92572534D03*
X137023435Y-92544529D03*
D12*
X150885000Y-90180000D03*
X152155000Y-90180000D03*
X150885000Y-92720000D03*
X152155000Y-92720000D03*
D13*
X158110000Y-90450000D03*
X158110000Y-92250000D03*
D11*
X161516371Y-95968934D03*
X159790166Y-93714003D03*
X162629834Y-93685997D03*
X160903629Y-91431066D03*
D14*
X150270320Y-93939360D03*
X150770700Y-93939360D03*
X151271080Y-93939360D03*
X149769940Y-93939360D03*
D15*
X149020640Y-93190060D03*
X149020640Y-92689680D03*
X149020640Y-92189300D03*
X149020640Y-91688920D03*
X149020640Y-91191080D03*
X149020640Y-90690700D03*
X149020640Y-90190320D03*
X149020640Y-89689940D03*
D14*
X153270060Y-88940640D03*
X149769940Y-88940640D03*
X150270320Y-88940640D03*
X150770700Y-88940640D03*
X151271080Y-88940640D03*
X151768920Y-88940640D03*
X152269300Y-88940640D03*
X152769680Y-88940640D03*
D15*
X154019360Y-89689940D03*
X154019360Y-90190320D03*
X154019360Y-90690700D03*
X154019360Y-91191080D03*
X154019360Y-91688920D03*
X154019360Y-92189300D03*
X154019360Y-92689680D03*
X154019360Y-93190060D03*
D14*
X153270060Y-93939360D03*
X152769680Y-93939360D03*
X152269300Y-93939360D03*
X151768920Y-93939360D03*
D16*
X151520000Y-91440000D03*
D17*
X143780000Y-96640000D03*
D18*
X146320000Y-96640000D03*
X148860000Y-96640000D03*
X151400000Y-96640000D03*
X153940000Y-96640000D03*
X156480000Y-96640000D03*
D19*
X156190000Y-90540040D03*
X156190000Y-92439960D03*
D20*
X145500000Y-91080000D03*
X145500000Y-90130000D03*
X145500000Y-89180000D03*
D10*
G36*
X138543910Y-100115644D02*
X137315182Y-100976008D01*
X136454818Y-99747280D01*
X137683546Y-98886916D01*
X138543910Y-100115644D01*
X138543910Y-100115644D01*
G37*
G36*
X134070014Y-93726258D02*
X132841286Y-94586622D01*
X131980922Y-93357894D01*
X133209650Y-92497530D01*
X134070014Y-93726258D01*
X134070014Y-93726258D01*
G37*
G36*
X162930660Y-100867465D02*
X161701932Y-100007101D01*
X162562296Y-98778373D01*
X163791024Y-99638737D01*
X162930660Y-100867465D01*
X162930660Y-100867465D01*
G37*
G36*
X167404556Y-94478079D02*
X166175828Y-93617715D01*
X167036192Y-92388987D01*
X168264920Y-93249351D01*
X167404556Y-94478079D01*
X167404556Y-94478079D01*
G37*
D21*
X157638360Y-94390000D03*
X155941640Y-94390000D03*
D22*
X154010000Y-89120000D03*
X148696680Y-94160340D03*
X136423896Y-98541879D03*
X153010000Y-89810000D03*
X148806263Y-88926972D03*
X154860000Y-94020000D03*
X146270000Y-94820000D03*
X147530000Y-92840000D03*
X147250690Y-91089310D03*
X149930000Y-90260000D03*
X156450021Y-95259493D03*
X166432230Y-94754700D03*
X155160000Y-95570000D03*
X152639481Y-95520519D03*
X153963990Y-94000084D03*
D23*
X145500000Y-89180000D02*
X147070000Y-89180000D01*
X147579940Y-89689940D02*
X149020640Y-89689940D01*
X147070000Y-89180000D02*
X147579940Y-89689940D01*
X145500000Y-91080000D02*
X146320000Y-91080000D01*
X146320000Y-91080000D02*
X147209680Y-90190320D01*
X147209680Y-90190320D02*
X149020640Y-90190320D01*
X145500000Y-91080000D02*
X146220000Y-91120000D01*
X145500000Y-91080000D02*
X146365382Y-91080000D01*
X154441052Y-89120000D02*
X154010000Y-89120000D01*
X158060000Y-90450000D02*
X156730000Y-89120000D01*
X156730000Y-89120000D02*
X154441052Y-89120000D01*
X154019360Y-89129360D02*
X154010000Y-89120000D01*
X154019360Y-89689940D02*
X154019360Y-89129360D01*
X158110000Y-90450000D02*
X158060000Y-90450000D01*
X158340000Y-90450000D02*
X158400000Y-90450000D01*
X140976565Y-94732895D02*
X140976565Y-94855471D01*
X149246340Y-94710000D02*
X149001479Y-94465139D01*
X150270320Y-93939360D02*
X150270320Y-94574360D01*
X150270320Y-94574360D02*
X150134680Y-94710000D01*
X150134680Y-94710000D02*
X149246340Y-94710000D01*
X149001479Y-94465139D02*
X148696680Y-94160340D01*
X150770700Y-96010700D02*
X151400000Y-96640000D01*
X150770700Y-93939360D02*
X150770700Y-96010700D01*
X136423896Y-98541879D02*
X137499364Y-99931462D01*
X152769680Y-88940640D02*
X152769680Y-89575640D01*
X152769680Y-89575640D02*
X153004040Y-89810000D01*
X153004040Y-89810000D02*
X153010000Y-89810000D01*
X162746478Y-99822919D02*
X164934900Y-96846390D01*
X164934900Y-96846390D02*
X164331735Y-91843670D01*
X164331735Y-91843670D02*
X164331735Y-91843671D01*
X164331735Y-91843671D02*
X164331735Y-91843670D01*
X162328860Y-90818860D02*
X164331735Y-91843670D01*
X153270060Y-88060060D02*
X153320000Y-88110000D01*
X159470000Y-89270000D02*
X160140000Y-89940000D01*
X160140000Y-89940000D02*
X161450000Y-89940000D01*
X161450000Y-89940000D02*
X162328860Y-90818860D01*
X154394799Y-88575201D02*
X157595201Y-88575201D01*
X158290000Y-89270000D02*
X157595201Y-88575201D01*
X158290000Y-89270000D02*
X159470000Y-89270000D01*
X153929598Y-88110000D02*
X154394799Y-88575201D01*
X153320000Y-88110000D02*
X153929598Y-88110000D01*
X153170000Y-87960000D02*
X153270060Y-88060060D01*
X149111062Y-88622173D02*
X148806263Y-88926972D01*
X149773235Y-87960000D02*
X149111062Y-88622173D01*
X153170000Y-87960000D02*
X149773235Y-87960000D01*
X153270060Y-88060060D02*
X153270060Y-88940640D01*
X150885000Y-92720000D02*
X151271080Y-93106080D01*
X151271080Y-93106080D02*
X151271080Y-93939360D01*
X151271080Y-93939360D02*
X151271080Y-94574360D01*
X151271080Y-94574360D02*
X151406720Y-94710000D01*
X151406720Y-94710000D02*
X154170000Y-94710000D01*
X154170000Y-94710000D02*
X154555201Y-94324799D01*
X154555201Y-94324799D02*
X154860000Y-94020000D01*
X147530000Y-94820000D02*
X146270000Y-94820000D01*
X154019360Y-90190320D02*
X153539680Y-90190320D01*
X153280000Y-90450000D02*
X152425000Y-90450000D01*
X153539680Y-90190320D02*
X153280000Y-90450000D01*
X152425000Y-90450000D02*
X152155000Y-90180000D01*
X154836660Y-90190000D02*
X154836340Y-90190320D01*
X154836340Y-90190320D02*
X154019360Y-90190320D01*
X156190000Y-90540040D02*
X155186700Y-90540040D01*
X155186700Y-90540040D02*
X154836660Y-90190000D01*
X149020640Y-91688920D02*
X148385640Y-91688920D01*
X147530000Y-92544560D02*
X147530000Y-92840000D01*
X149020640Y-90690700D02*
X147649300Y-90690700D01*
X148385640Y-91688920D02*
X147530000Y-92544560D01*
X148920119Y-91688920D02*
X149020640Y-91688920D01*
X147649300Y-90690700D02*
X147250690Y-91089310D01*
X147530000Y-95310000D02*
X148860000Y-96640000D01*
X147530000Y-94820000D02*
X147530000Y-95310000D01*
X147530000Y-92840000D02*
X147530000Y-94820000D01*
X149499300Y-90690700D02*
X149930000Y-90260000D01*
X149020640Y-90690700D02*
X149499300Y-90690700D01*
X155941640Y-95193910D02*
X156007223Y-95259493D01*
X156018969Y-95259493D02*
X156450021Y-95259493D01*
X155941640Y-94390000D02*
X155941640Y-95193910D01*
X156007223Y-95259493D02*
X156018969Y-95259493D01*
X166432230Y-94754700D02*
X167220374Y-93433533D01*
X143425199Y-92538839D02*
X143425199Y-96285199D01*
X143425199Y-96285199D02*
X143780000Y-96640000D01*
X143425199Y-92279307D02*
X143425199Y-92538839D01*
X143425199Y-92123841D02*
X143425199Y-92279307D01*
X143425199Y-92538839D02*
X143458894Y-92572534D01*
X143718426Y-92572534D02*
X146697466Y-92572534D01*
X143458894Y-92572534D02*
X143718426Y-92572534D01*
X146775199Y-92494801D02*
X148078920Y-91191080D01*
X148078920Y-91191080D02*
X149020640Y-91191080D01*
X146697466Y-92572534D02*
X146775199Y-92494801D01*
X139863103Y-92572534D02*
X143458894Y-92572534D01*
X137023435Y-92544529D02*
X135252460Y-92100400D01*
X135252460Y-92100400D02*
X133025468Y-93542076D01*
X156190000Y-92439960D02*
X156190000Y-94141640D01*
X143425199Y-90460000D02*
X143755199Y-90130000D01*
X143755199Y-90130000D02*
X145500000Y-90130000D01*
X143425199Y-92123841D02*
X143425199Y-90460000D01*
X156190000Y-94141640D02*
X155941640Y-94390000D01*
X143425199Y-92000000D02*
X143425199Y-92123841D01*
X152155000Y-92720000D02*
X152155000Y-92075000D01*
X152155000Y-92075000D02*
X151520000Y-91440000D01*
X152916998Y-91191080D02*
X153414838Y-91688920D01*
X149020640Y-91191080D02*
X152916998Y-91191080D01*
X153414838Y-91688920D02*
X154019360Y-91688920D01*
X154748920Y-91688920D02*
X154019360Y-91688920D01*
X155000000Y-91940000D02*
X154748920Y-91688920D01*
X155000000Y-92405660D02*
X155000000Y-91940000D01*
X156190000Y-92439960D02*
X155034300Y-92439960D01*
X155034300Y-92439960D02*
X155000000Y-92405660D01*
X151271080Y-91191080D02*
X151520000Y-91440000D01*
X149020640Y-91191080D02*
X151271080Y-91191080D01*
X149655640Y-91191080D02*
X149020640Y-91191080D01*
X149020640Y-92189300D02*
X149655640Y-92189300D01*
X149655640Y-92189300D02*
X149731841Y-92113099D01*
X149731841Y-92113099D02*
X149731841Y-91267281D01*
X149731841Y-91267281D02*
X149655640Y-91191080D01*
X143670000Y-96750000D02*
X143780000Y-96640000D01*
X157638360Y-94390000D02*
X157700000Y-94328360D01*
X158110000Y-93030000D02*
X157638360Y-93501640D01*
X157638360Y-93501640D02*
X157638360Y-94390000D01*
X158110000Y-92250000D02*
X158110000Y-93030000D01*
X152639481Y-95520519D02*
X152860000Y-95300000D01*
X152860000Y-95300000D02*
X154890000Y-95300000D01*
X154890000Y-95300000D02*
X155160000Y-95570000D01*
X153903266Y-93939360D02*
X153963990Y-94000084D01*
X153270060Y-93939360D02*
X153903266Y-93939360D01*
M02*
