%FSLAX46Y46*%
G04 Gerber Fmt 4.6, Leading zero omitted, Abs format (unit mm)*
G04 Created by KiCad (PCBNEW (2014-09-01 BZR 5110)-product) date Thu 04 Sep 2014 12:06:47 AM CEST*
%MOMM*%
G01*
G04 APERTURE LIST*
%ADD10C,0.100000*%
%ADD11C,1.400000*%
%ADD12R,1.100000X1.000000*%
%ADD13R,1.650000X1.650000*%
%ADD14C,1.650000*%
%ADD15R,1.498600X1.297940*%
%ADD16R,0.998220X1.099820*%
G04 APERTURE END LIST*
D10*
G36*
X149564018Y-94711773D02*
X149388005Y-94535760D01*
X149811874Y-94111891D01*
X149987887Y-94287904D01*
X149564018Y-94711773D01*
X149564018Y-94711773D01*
G37*
G36*
X149210196Y-94357951D02*
X149034183Y-94181938D01*
X149458052Y-93758069D01*
X149634065Y-93934082D01*
X149210196Y-94357951D01*
X149210196Y-94357951D01*
G37*
G36*
X148856374Y-94004128D02*
X148680361Y-93828115D01*
X149104230Y-93404246D01*
X149280243Y-93580259D01*
X148856374Y-94004128D01*
X148856374Y-94004128D01*
G37*
G36*
X148502552Y-93650306D02*
X148326539Y-93474293D01*
X148750408Y-93050424D01*
X148926421Y-93226437D01*
X148502552Y-93650306D01*
X148502552Y-93650306D01*
G37*
G36*
X148150526Y-93298280D02*
X147974513Y-93122267D01*
X148398382Y-92698398D01*
X148574395Y-92874411D01*
X148150526Y-93298280D01*
X148150526Y-93298280D01*
G37*
G36*
X147796703Y-92944458D02*
X147620690Y-92768445D01*
X148044559Y-92344576D01*
X148220572Y-92520589D01*
X147796703Y-92944458D01*
X147796703Y-92944458D01*
G37*
G36*
X147442881Y-92590636D02*
X147266868Y-92414623D01*
X147690737Y-91990754D01*
X147866750Y-92166767D01*
X147442881Y-92590636D01*
X147442881Y-92590636D01*
G37*
G36*
X147089059Y-92236814D02*
X146913046Y-92060801D01*
X147336915Y-91636932D01*
X147512928Y-91812945D01*
X147089059Y-92236814D01*
X147089059Y-92236814D01*
G37*
G36*
X148748612Y-89905540D02*
X148324743Y-89481671D01*
X148500756Y-89305658D01*
X148924625Y-89729527D01*
X148748612Y-89905540D01*
X148748612Y-89905540D01*
G37*
G36*
X149100638Y-89553513D02*
X148676769Y-89129644D01*
X148852782Y-88953631D01*
X149276651Y-89377500D01*
X149100638Y-89553513D01*
X149100638Y-89553513D01*
G37*
G36*
X149454460Y-89199691D02*
X149030591Y-88775822D01*
X149206604Y-88599809D01*
X149630473Y-89023678D01*
X149454460Y-89199691D01*
X149454460Y-89199691D01*
G37*
G36*
X149808282Y-88845869D02*
X149384413Y-88422000D01*
X149560426Y-88245987D01*
X149984295Y-88669856D01*
X149808282Y-88845869D01*
X149808282Y-88845869D01*
G37*
G36*
X150147735Y-93813747D02*
X147814664Y-91480676D01*
X150147735Y-89147605D01*
X152480806Y-91480676D01*
X150147735Y-93813747D01*
X150147735Y-93813747D01*
G37*
G36*
X147335119Y-91319032D02*
X146911250Y-90895163D01*
X147087263Y-90719150D01*
X147511132Y-91143019D01*
X147335119Y-91319032D01*
X147335119Y-91319032D01*
G37*
G36*
X147688941Y-90965210D02*
X147265072Y-90541341D01*
X147441085Y-90365328D01*
X147864954Y-90789197D01*
X147688941Y-90965210D01*
X147688941Y-90965210D01*
G37*
G36*
X148042763Y-90611388D02*
X147618894Y-90187519D01*
X147794907Y-90011506D01*
X148218776Y-90435375D01*
X148042763Y-90611388D01*
X148042763Y-90611388D01*
G37*
G36*
X148394789Y-90259362D02*
X147970920Y-89835493D01*
X148146933Y-89659480D01*
X148570802Y-90083349D01*
X148394789Y-90259362D01*
X148394789Y-90259362D01*
G37*
G36*
X150483596Y-88849461D02*
X150307583Y-88673448D01*
X150731452Y-88249579D01*
X150907465Y-88425592D01*
X150483596Y-88849461D01*
X150483596Y-88849461D01*
G37*
G36*
X150839214Y-89201487D02*
X150663201Y-89025474D01*
X151087070Y-88601605D01*
X151263083Y-88777618D01*
X150839214Y-89201487D01*
X150839214Y-89201487D01*
G37*
G36*
X151191240Y-89553513D02*
X151015227Y-89377500D01*
X151439096Y-88953631D01*
X151615109Y-89129644D01*
X151191240Y-89553513D01*
X151191240Y-89553513D01*
G37*
G36*
X151545062Y-89907336D02*
X151369049Y-89731323D01*
X151792918Y-89307454D01*
X151968931Y-89483467D01*
X151545062Y-89907336D01*
X151545062Y-89907336D01*
G37*
G36*
X151898884Y-90261158D02*
X151722871Y-90085145D01*
X152146740Y-89661276D01*
X152322753Y-89837289D01*
X151898884Y-90261158D01*
X151898884Y-90261158D01*
G37*
G36*
X152252707Y-90614980D02*
X152076694Y-90438967D01*
X152500563Y-90015098D01*
X152676576Y-90191111D01*
X152252707Y-90614980D01*
X152252707Y-90614980D01*
G37*
G36*
X152606529Y-90968802D02*
X152430516Y-90792789D01*
X152854385Y-90368920D01*
X153030398Y-90544933D01*
X152606529Y-90968802D01*
X152606529Y-90968802D01*
G37*
G36*
X152960351Y-91322624D02*
X152784338Y-91146611D01*
X153208207Y-90722742D01*
X153384220Y-90898755D01*
X152960351Y-91322624D01*
X152960351Y-91322624D01*
G37*
G36*
X153206411Y-92240406D02*
X152782542Y-91816537D01*
X152958555Y-91640524D01*
X153382424Y-92064393D01*
X153206411Y-92240406D01*
X153206411Y-92240406D01*
G37*
G36*
X152852589Y-92594228D02*
X152428720Y-92170359D01*
X152604733Y-91994346D01*
X153028602Y-92418215D01*
X152852589Y-92594228D01*
X152852589Y-92594228D01*
G37*
G36*
X152498767Y-92948050D02*
X152074898Y-92524181D01*
X152250911Y-92348168D01*
X152674780Y-92772037D01*
X152498767Y-92948050D01*
X152498767Y-92948050D01*
G37*
G36*
X152146740Y-93300076D02*
X151722871Y-92876207D01*
X151898884Y-92700194D01*
X152322753Y-93124063D01*
X152146740Y-93300076D01*
X152146740Y-93300076D01*
G37*
G36*
X151792918Y-93653898D02*
X151369049Y-93230029D01*
X151545062Y-93054016D01*
X151968931Y-93477885D01*
X151792918Y-93653898D01*
X151792918Y-93653898D01*
G37*
G36*
X151439096Y-94007721D02*
X151015227Y-93583852D01*
X151191240Y-93407839D01*
X151615109Y-93831708D01*
X151439096Y-94007721D01*
X151439096Y-94007721D01*
G37*
G36*
X151085274Y-94361543D02*
X150661405Y-93937674D01*
X150837418Y-93761661D01*
X151261287Y-94185530D01*
X151085274Y-94361543D01*
X151085274Y-94361543D01*
G37*
G36*
X150731452Y-94715365D02*
X150307583Y-94291496D01*
X150483596Y-94115483D01*
X150907465Y-94539352D01*
X150731452Y-94715365D01*
X150731452Y-94715365D01*
G37*
D11*
X140976565Y-94855471D03*
X138136897Y-94827466D03*
X139863103Y-92572534D03*
X137023435Y-92544529D03*
D12*
X158110000Y-90450000D03*
X158110000Y-92250000D03*
D11*
X161516371Y-95968934D03*
X159790166Y-93714003D03*
X162629834Y-93685997D03*
X160903629Y-91431066D03*
D13*
X143780000Y-96640000D03*
D14*
X146320000Y-96640000D03*
X148860000Y-96640000D03*
X151400000Y-96640000D03*
X153940000Y-96640000D03*
X156480000Y-96640000D03*
D15*
X156190000Y-90540040D03*
X156190000Y-92439960D03*
D10*
G36*
X138543910Y-100115644D02*
X137315182Y-100976008D01*
X136454818Y-99747280D01*
X137683546Y-98886916D01*
X138543910Y-100115644D01*
X138543910Y-100115644D01*
G37*
G36*
X134070014Y-93726258D02*
X132841286Y-94586622D01*
X131980922Y-93357894D01*
X133209650Y-92497530D01*
X134070014Y-93726258D01*
X134070014Y-93726258D01*
G37*
G36*
X162930660Y-100867465D02*
X161701932Y-100007101D01*
X162562296Y-98778373D01*
X163791024Y-99638737D01*
X162930660Y-100867465D01*
X162930660Y-100867465D01*
G37*
G36*
X167404556Y-94478079D02*
X166175828Y-93617715D01*
X167036192Y-92388987D01*
X168264920Y-93249351D01*
X167404556Y-94478079D01*
X167404556Y-94478079D01*
G37*
D16*
X157638360Y-94390000D03*
X155941640Y-94390000D03*
M02*
