%FSLAX34Y34*%
G04 Gerber Fmt 3.4, Leading zero omitted, Abs format*
G04 (created by PCBNEW (2014-06-29 BZR 4957)-product) date Sat 23 Aug 2014 09:09:45 PM CEST*
%MOIN*%
G01*
G70*
G90*
G04 APERTURE LIST*
%ADD10C,0.003937*%
%ADD11C,0.007874*%
%ADD12C,0.009843*%
%ADD13C,0.007382*%
%ADD14C,0.000100*%
%ADD15R,0.043307X0.039370*%
%ADD16C,0.055118*%
%ADD17R,0.010000X0.030000*%
%ADD18R,0.030000X0.010000*%
%ADD19R,0.078740X0.049213*%
%ADD20R,0.064961X0.064961*%
%ADD21C,0.064961*%
%ADD22R,0.059000X0.051100*%
%ADD23R,0.078740X0.023622*%
%ADD24R,0.039300X0.043300*%
G04 APERTURE END LIST*
G54D10*
G54D11*
X63200Y-35548D02*
X63425Y-35548D01*
X63313Y-35548D02*
X63313Y-35154D01*
X63350Y-35210D01*
X63388Y-35248D01*
X63425Y-35266D01*
X63069Y-35154D02*
X62826Y-35154D01*
X62957Y-35304D01*
X62901Y-35304D01*
X62863Y-35323D01*
X62844Y-35341D01*
X62826Y-35379D01*
X62826Y-35473D01*
X62844Y-35510D01*
X62863Y-35529D01*
X62901Y-35548D01*
X63013Y-35548D01*
X63050Y-35529D01*
X63069Y-35510D01*
X58606Y-37271D02*
X58468Y-37133D01*
X58606Y-37468D02*
X58606Y-37271D01*
X58606Y-37468D02*
X58708Y-37385D01*
X58606Y-37468D02*
X58503Y-37385D01*
X58468Y-37133D02*
X58287Y-37133D01*
X57920Y-36918D02*
X58108Y-36918D01*
X58126Y-37105D01*
X58108Y-37086D01*
X58070Y-37068D01*
X57976Y-37068D01*
X57939Y-37086D01*
X57920Y-37105D01*
X57901Y-37143D01*
X57901Y-37236D01*
X57920Y-37274D01*
X57939Y-37293D01*
X57976Y-37311D01*
X58070Y-37311D01*
X58108Y-37293D01*
X58126Y-37274D01*
X57789Y-36918D02*
X57658Y-37311D01*
X57526Y-36918D01*
X57395Y-37274D02*
X57377Y-37293D01*
X57395Y-37311D01*
X57414Y-37293D01*
X57395Y-37274D01*
X57395Y-37311D01*
X57395Y-37161D02*
X57414Y-36937D01*
X57395Y-36918D01*
X57377Y-36937D01*
X57395Y-37161D01*
X57395Y-36918D01*
G54D12*
X62646Y-39080D02*
X62853Y-38655D01*
X62563Y-38889D01*
X62570Y-38517D01*
X62363Y-38941D01*
X55706Y-38704D02*
X55564Y-38773D01*
X55612Y-39025D02*
X55814Y-38927D01*
X55607Y-38502D01*
X55405Y-38601D01*
G54D13*
X56839Y-37017D02*
X56867Y-37003D01*
X56909Y-37003D01*
X56951Y-37017D01*
X56979Y-37045D01*
X56993Y-37073D01*
X57007Y-37130D01*
X57007Y-37172D01*
X56993Y-37228D01*
X56979Y-37256D01*
X56951Y-37284D01*
X56909Y-37298D01*
X56881Y-37298D01*
X56839Y-37284D01*
X56825Y-37270D01*
X56825Y-37172D01*
X56881Y-37172D01*
X56698Y-37298D02*
X56698Y-37003D01*
X56529Y-37298D01*
X56529Y-37003D01*
X56389Y-37298D02*
X56389Y-37003D01*
X56318Y-37003D01*
X56276Y-37017D01*
X56248Y-37045D01*
X56234Y-37073D01*
X56220Y-37130D01*
X56220Y-37172D01*
X56234Y-37228D01*
X56248Y-37256D01*
X56276Y-37284D01*
X56318Y-37298D01*
X56389Y-37298D01*
G54D11*
X61925Y-35311D02*
X62570Y-35311D01*
X62570Y-36618D02*
X62570Y-35311D01*
X61925Y-36618D02*
X62570Y-36618D01*
X61925Y-35311D02*
X61925Y-36618D01*
G54D10*
X62425Y-35826D02*
X62425Y-36101D01*
X62070Y-36101D02*
X62070Y-35826D01*
X62129Y-36298D02*
X62070Y-36298D01*
X62070Y-36298D02*
X62070Y-36101D01*
X62070Y-36101D02*
X62425Y-36101D01*
X62425Y-36101D02*
X62425Y-36298D01*
X62425Y-36298D02*
X62366Y-36298D01*
X62425Y-35629D02*
X62356Y-35629D01*
X62070Y-35629D02*
X62139Y-35629D01*
X62425Y-35629D02*
X62425Y-35826D01*
X62425Y-35826D02*
X62070Y-35826D01*
X62070Y-35826D02*
X62070Y-35629D01*
X62198Y-35954D02*
X62296Y-35954D01*
X62296Y-35954D02*
X62296Y-36052D01*
X62198Y-36052D02*
X62296Y-36052D01*
X62198Y-35954D02*
X62198Y-36052D01*
X62129Y-36297D02*
G75*
G02X62365Y-36297I118J0D01*
G74*
G01*
X62355Y-35630D02*
G75*
G02X62139Y-35630I-108J0D01*
G74*
G01*
G54D11*
X58828Y-37200D02*
X60478Y-37200D01*
X60478Y-37200D02*
X60853Y-37200D01*
X60853Y-37200D02*
X60853Y-34800D01*
X60853Y-34800D02*
X58453Y-34800D01*
X58453Y-34800D02*
X58453Y-36825D01*
X58453Y-36825D02*
X58828Y-37200D01*
X56106Y-37547D02*
X56106Y-38547D01*
X56106Y-38547D02*
X62106Y-38547D01*
X62106Y-38547D02*
X62106Y-37547D01*
X62106Y-37547D02*
X56106Y-37547D01*
X57106Y-37547D02*
X57106Y-38547D01*
X61059Y-36807D02*
X61059Y-35232D01*
X61059Y-36807D02*
X61925Y-36807D01*
X61925Y-36807D02*
X61925Y-35232D01*
X61925Y-35232D02*
X61059Y-35232D01*
X57027Y-34854D02*
X57027Y-36114D01*
X57539Y-36114D02*
X57539Y-34854D01*
X57539Y-34854D02*
X57027Y-34854D01*
X57539Y-36114D02*
X57027Y-36114D01*
X55051Y-38075D02*
X54309Y-36554D01*
X54309Y-36554D02*
X53389Y-37002D01*
X53389Y-37002D02*
X54131Y-38524D01*
X54131Y-38524D02*
X55051Y-38075D01*
X54674Y-37887D02*
X54226Y-36967D01*
X54226Y-36967D02*
X53766Y-37191D01*
X53766Y-37191D02*
X54214Y-38111D01*
X54214Y-38111D02*
X54674Y-37887D01*
X53808Y-36426D02*
X53636Y-36072D01*
X53636Y-36072D02*
X53423Y-36175D01*
X53423Y-36175D02*
X53596Y-36529D01*
X54844Y-38549D02*
X55016Y-38903D01*
X55016Y-38903D02*
X54804Y-39006D01*
X54804Y-39006D02*
X54632Y-38652D01*
X54357Y-36158D02*
X53048Y-36797D01*
X53048Y-36797D02*
X54083Y-38920D01*
X54083Y-38920D02*
X55392Y-38281D01*
X55392Y-38281D02*
X54357Y-36158D01*
X64104Y-38524D02*
X64846Y-37002D01*
X64846Y-37002D02*
X63926Y-36554D01*
X63926Y-36554D02*
X63184Y-38075D01*
X63184Y-38075D02*
X64104Y-38524D01*
X64021Y-38111D02*
X64470Y-37191D01*
X64470Y-37191D02*
X64010Y-36967D01*
X64010Y-36967D02*
X63561Y-37887D01*
X63561Y-37887D02*
X64021Y-38111D01*
X64639Y-36529D02*
X64812Y-36175D01*
X64812Y-36175D02*
X64599Y-36072D01*
X64599Y-36072D02*
X64427Y-36426D01*
X63604Y-38652D02*
X63431Y-39006D01*
X63431Y-39006D02*
X63219Y-38903D01*
X63219Y-38903D02*
X63391Y-38549D01*
X65188Y-36797D02*
X63878Y-36158D01*
X63878Y-36158D02*
X62843Y-38281D01*
X62843Y-38281D02*
X64152Y-38920D01*
X64152Y-38920D02*
X65188Y-36797D01*
X62397Y-36807D02*
X61059Y-36807D01*
X61059Y-36807D02*
X61059Y-37515D01*
X61059Y-37515D02*
X62397Y-37515D01*
X62397Y-37515D02*
X62397Y-36807D01*
X61558Y-37331D02*
X61398Y-37331D01*
X61398Y-37331D02*
X61398Y-36991D01*
X61558Y-36991D02*
X61398Y-36991D01*
X61558Y-37331D02*
X61558Y-36991D01*
X62058Y-37331D02*
X61898Y-37331D01*
X61898Y-37331D02*
X61898Y-36991D01*
X62058Y-36991D02*
X61898Y-36991D01*
X62058Y-37331D02*
X62058Y-36991D01*
X61898Y-37301D02*
X61558Y-37301D01*
X61558Y-37021D02*
X61898Y-37021D01*
G54D14*
G36*
X55990Y-36114D02*
X56005Y-36112D01*
X56018Y-36108D01*
X56024Y-36105D01*
X56037Y-36096D01*
X56047Y-36085D01*
X56054Y-36073D01*
X56059Y-36059D01*
X56062Y-36045D01*
X56061Y-36030D01*
X56058Y-36016D01*
X56051Y-36002D01*
X56047Y-35996D01*
X56041Y-35989D01*
X56034Y-35983D01*
X56028Y-35978D01*
X56026Y-35977D01*
X56013Y-35971D01*
X56000Y-35968D01*
X55985Y-35967D01*
X55980Y-35967D01*
X55972Y-35968D01*
X55965Y-35970D01*
X55957Y-35974D01*
X55948Y-35978D01*
X55936Y-35988D01*
X55927Y-36000D01*
X55919Y-36013D01*
X55917Y-36019D01*
X55915Y-36027D01*
X55914Y-36032D01*
X55914Y-36033D01*
X55914Y-36033D01*
X55914Y-36030D01*
X55914Y-36030D01*
X55911Y-36020D01*
X55908Y-36011D01*
X55903Y-36002D01*
X55895Y-35991D01*
X55884Y-35981D01*
X55871Y-35973D01*
X55856Y-35968D01*
X55841Y-35967D01*
X55837Y-35967D01*
X55825Y-35968D01*
X55814Y-35971D01*
X55812Y-35972D01*
X55799Y-35979D01*
X55788Y-35988D01*
X55779Y-36000D01*
X55772Y-36012D01*
X55768Y-36025D01*
X55768Y-36026D01*
X55767Y-36029D01*
X55767Y-36031D01*
X55767Y-36031D01*
X55767Y-36029D01*
X55766Y-36025D01*
X55766Y-36024D01*
X55761Y-36011D01*
X55754Y-35998D01*
X55745Y-35987D01*
X55736Y-35980D01*
X55723Y-35973D01*
X55709Y-35968D01*
X55693Y-35967D01*
X55682Y-35968D01*
X55668Y-35971D01*
X55654Y-35978D01*
X55642Y-35987D01*
X55633Y-35999D01*
X55631Y-36001D01*
X55628Y-36006D01*
X55626Y-36011D01*
X55625Y-36014D01*
X55622Y-36021D01*
X55621Y-36027D01*
X55620Y-36032D01*
X55620Y-36033D01*
X55620Y-36033D01*
X55619Y-36030D01*
X55618Y-36022D01*
X55614Y-36012D01*
X55610Y-36003D01*
X55601Y-35991D01*
X55589Y-35981D01*
X55576Y-35973D01*
X55562Y-35968D01*
X55547Y-35967D01*
X55533Y-35968D01*
X55518Y-35972D01*
X55505Y-35979D01*
X55493Y-35989D01*
X55487Y-35996D01*
X55482Y-36004D01*
X55477Y-36013D01*
X55475Y-36021D01*
X55472Y-36036D01*
X55473Y-36050D01*
X55476Y-36064D01*
X55482Y-36077D01*
X55490Y-36088D01*
X55500Y-36098D01*
X55512Y-36106D01*
X55525Y-36111D01*
X55540Y-36114D01*
X55542Y-36114D01*
X55557Y-36114D01*
X55571Y-36110D01*
X55584Y-36104D01*
X55589Y-36100D01*
X55599Y-36092D01*
X55608Y-36081D01*
X55614Y-36070D01*
X55615Y-36066D01*
X55617Y-36060D01*
X55619Y-36053D01*
X55620Y-36048D01*
X55620Y-36045D01*
X55620Y-36048D01*
X55620Y-36051D01*
X55622Y-36057D01*
X55624Y-36065D01*
X55626Y-36071D01*
X55630Y-36078D01*
X55639Y-36090D01*
X55650Y-36100D01*
X55663Y-36108D01*
X55678Y-36113D01*
X55680Y-36113D01*
X55690Y-36114D01*
X55701Y-36114D01*
X55711Y-36112D01*
X55721Y-36109D01*
X55734Y-36102D01*
X55747Y-36092D01*
X55747Y-36091D01*
X55756Y-36081D01*
X55762Y-36068D01*
X55766Y-36056D01*
X55766Y-36055D01*
X55767Y-36052D01*
X55767Y-36050D01*
X55767Y-36051D01*
X55768Y-36054D01*
X55768Y-36055D01*
X55770Y-36063D01*
X55773Y-36071D01*
X55778Y-36079D01*
X55784Y-36088D01*
X55795Y-36099D01*
X55808Y-36107D01*
X55823Y-36112D01*
X55825Y-36113D01*
X55835Y-36114D01*
X55846Y-36114D01*
X55856Y-36113D01*
X55864Y-36110D01*
X55878Y-36104D01*
X55890Y-36095D01*
X55900Y-36084D01*
X55908Y-36071D01*
X55909Y-36067D01*
X55912Y-36060D01*
X55913Y-36053D01*
X55914Y-36048D01*
X55914Y-36048D01*
X55914Y-36048D01*
X55915Y-36051D01*
X55915Y-36051D01*
X55917Y-36060D01*
X55921Y-36070D01*
X55925Y-36079D01*
X55927Y-36082D01*
X55936Y-36093D01*
X55948Y-36102D01*
X55961Y-36109D01*
X55975Y-36113D01*
X55990Y-36114D01*
X55990Y-36114D01*
G37*
X55990Y-36114D02*
X56005Y-36112D01*
X56018Y-36108D01*
X56024Y-36105D01*
X56037Y-36096D01*
X56047Y-36085D01*
X56054Y-36073D01*
X56059Y-36059D01*
X56062Y-36045D01*
X56061Y-36030D01*
X56058Y-36016D01*
X56051Y-36002D01*
X56047Y-35996D01*
X56041Y-35989D01*
X56034Y-35983D01*
X56028Y-35978D01*
X56026Y-35977D01*
X56013Y-35971D01*
X56000Y-35968D01*
X55985Y-35967D01*
X55980Y-35967D01*
X55972Y-35968D01*
X55965Y-35970D01*
X55957Y-35974D01*
X55948Y-35978D01*
X55936Y-35988D01*
X55927Y-36000D01*
X55919Y-36013D01*
X55917Y-36019D01*
X55915Y-36027D01*
X55914Y-36032D01*
X55914Y-36033D01*
X55914Y-36033D01*
X55914Y-36030D01*
X55914Y-36030D01*
X55911Y-36020D01*
X55908Y-36011D01*
X55903Y-36002D01*
X55895Y-35991D01*
X55884Y-35981D01*
X55871Y-35973D01*
X55856Y-35968D01*
X55841Y-35967D01*
X55837Y-35967D01*
X55825Y-35968D01*
X55814Y-35971D01*
X55812Y-35972D01*
X55799Y-35979D01*
X55788Y-35988D01*
X55779Y-36000D01*
X55772Y-36012D01*
X55768Y-36025D01*
X55768Y-36026D01*
X55767Y-36029D01*
X55767Y-36031D01*
X55767Y-36031D01*
X55767Y-36029D01*
X55766Y-36025D01*
X55766Y-36024D01*
X55761Y-36011D01*
X55754Y-35998D01*
X55745Y-35987D01*
X55736Y-35980D01*
X55723Y-35973D01*
X55709Y-35968D01*
X55693Y-35967D01*
X55682Y-35968D01*
X55668Y-35971D01*
X55654Y-35978D01*
X55642Y-35987D01*
X55633Y-35999D01*
X55631Y-36001D01*
X55628Y-36006D01*
X55626Y-36011D01*
X55625Y-36014D01*
X55622Y-36021D01*
X55621Y-36027D01*
X55620Y-36032D01*
X55620Y-36033D01*
X55620Y-36033D01*
X55619Y-36030D01*
X55618Y-36022D01*
X55614Y-36012D01*
X55610Y-36003D01*
X55601Y-35991D01*
X55589Y-35981D01*
X55576Y-35973D01*
X55562Y-35968D01*
X55547Y-35967D01*
X55533Y-35968D01*
X55518Y-35972D01*
X55505Y-35979D01*
X55493Y-35989D01*
X55487Y-35996D01*
X55482Y-36004D01*
X55477Y-36013D01*
X55475Y-36021D01*
X55472Y-36036D01*
X55473Y-36050D01*
X55476Y-36064D01*
X55482Y-36077D01*
X55490Y-36088D01*
X55500Y-36098D01*
X55512Y-36106D01*
X55525Y-36111D01*
X55540Y-36114D01*
X55542Y-36114D01*
X55557Y-36114D01*
X55571Y-36110D01*
X55584Y-36104D01*
X55589Y-36100D01*
X55599Y-36092D01*
X55608Y-36081D01*
X55614Y-36070D01*
X55615Y-36066D01*
X55617Y-36060D01*
X55619Y-36053D01*
X55620Y-36048D01*
X55620Y-36045D01*
X55620Y-36048D01*
X55620Y-36051D01*
X55622Y-36057D01*
X55624Y-36065D01*
X55626Y-36071D01*
X55630Y-36078D01*
X55639Y-36090D01*
X55650Y-36100D01*
X55663Y-36108D01*
X55678Y-36113D01*
X55680Y-36113D01*
X55690Y-36114D01*
X55701Y-36114D01*
X55711Y-36112D01*
X55721Y-36109D01*
X55734Y-36102D01*
X55747Y-36092D01*
X55747Y-36091D01*
X55756Y-36081D01*
X55762Y-36068D01*
X55766Y-36056D01*
X55766Y-36055D01*
X55767Y-36052D01*
X55767Y-36050D01*
X55767Y-36051D01*
X55768Y-36054D01*
X55768Y-36055D01*
X55770Y-36063D01*
X55773Y-36071D01*
X55778Y-36079D01*
X55784Y-36088D01*
X55795Y-36099D01*
X55808Y-36107D01*
X55823Y-36112D01*
X55825Y-36113D01*
X55835Y-36114D01*
X55846Y-36114D01*
X55856Y-36113D01*
X55864Y-36110D01*
X55878Y-36104D01*
X55890Y-36095D01*
X55900Y-36084D01*
X55908Y-36071D01*
X55909Y-36067D01*
X55912Y-36060D01*
X55913Y-36053D01*
X55914Y-36048D01*
X55914Y-36048D01*
X55914Y-36048D01*
X55915Y-36051D01*
X55915Y-36051D01*
X55917Y-36060D01*
X55921Y-36070D01*
X55925Y-36079D01*
X55927Y-36082D01*
X55936Y-36093D01*
X55948Y-36102D01*
X55961Y-36109D01*
X55975Y-36113D01*
X55990Y-36114D01*
G36*
X55394Y-35967D02*
X55403Y-35966D01*
X55411Y-35966D01*
X55421Y-35963D01*
X55435Y-35957D01*
X55447Y-35948D01*
X55457Y-35937D01*
X55465Y-35924D01*
X55470Y-35910D01*
X55472Y-35895D01*
X55471Y-35880D01*
X55467Y-35866D01*
X55461Y-35853D01*
X55451Y-35841D01*
X55439Y-35831D01*
X55436Y-35829D01*
X55421Y-35823D01*
X55407Y-35819D01*
X55391Y-35819D01*
X55376Y-35822D01*
X55364Y-35827D01*
X55351Y-35836D01*
X55341Y-35847D01*
X55332Y-35860D01*
X55327Y-35875D01*
X55325Y-35882D01*
X55325Y-35892D01*
X55325Y-35901D01*
X55326Y-35909D01*
X55327Y-35912D01*
X55333Y-35927D01*
X55341Y-35940D01*
X55353Y-35951D01*
X55366Y-35959D01*
X55372Y-35962D01*
X55381Y-35965D01*
X55389Y-35966D01*
X55394Y-35967D01*
X55394Y-35967D01*
G37*
X55394Y-35967D02*
X55403Y-35966D01*
X55411Y-35966D01*
X55421Y-35963D01*
X55435Y-35957D01*
X55447Y-35948D01*
X55457Y-35937D01*
X55465Y-35924D01*
X55470Y-35910D01*
X55472Y-35895D01*
X55471Y-35880D01*
X55467Y-35866D01*
X55461Y-35853D01*
X55451Y-35841D01*
X55439Y-35831D01*
X55436Y-35829D01*
X55421Y-35823D01*
X55407Y-35819D01*
X55391Y-35819D01*
X55376Y-35822D01*
X55364Y-35827D01*
X55351Y-35836D01*
X55341Y-35847D01*
X55332Y-35860D01*
X55327Y-35875D01*
X55325Y-35882D01*
X55325Y-35892D01*
X55325Y-35901D01*
X55326Y-35909D01*
X55327Y-35912D01*
X55333Y-35927D01*
X55341Y-35940D01*
X55353Y-35951D01*
X55366Y-35959D01*
X55372Y-35962D01*
X55381Y-35965D01*
X55389Y-35966D01*
X55394Y-35967D01*
G36*
X56137Y-35967D02*
X56152Y-35965D01*
X56167Y-35960D01*
X56181Y-35951D01*
X56184Y-35949D01*
X56194Y-35938D01*
X56202Y-35925D01*
X56207Y-35911D01*
X56209Y-35903D01*
X56209Y-35894D01*
X56209Y-35884D01*
X56208Y-35877D01*
X56207Y-35873D01*
X56201Y-35858D01*
X56193Y-35846D01*
X56182Y-35835D01*
X56169Y-35827D01*
X56155Y-35822D01*
X56140Y-35819D01*
X56134Y-35819D01*
X56119Y-35821D01*
X56105Y-35825D01*
X56093Y-35833D01*
X56082Y-35842D01*
X56073Y-35854D01*
X56067Y-35867D01*
X56063Y-35881D01*
X56062Y-35896D01*
X56063Y-35905D01*
X56065Y-35913D01*
X56068Y-35922D01*
X56074Y-35933D01*
X56083Y-35945D01*
X56095Y-35954D01*
X56108Y-35961D01*
X56122Y-35965D01*
X56137Y-35967D01*
X56137Y-35967D01*
G37*
X56137Y-35967D02*
X56152Y-35965D01*
X56167Y-35960D01*
X56181Y-35951D01*
X56184Y-35949D01*
X56194Y-35938D01*
X56202Y-35925D01*
X56207Y-35911D01*
X56209Y-35903D01*
X56209Y-35894D01*
X56209Y-35884D01*
X56208Y-35877D01*
X56207Y-35873D01*
X56201Y-35858D01*
X56193Y-35846D01*
X56182Y-35835D01*
X56169Y-35827D01*
X56155Y-35822D01*
X56140Y-35819D01*
X56134Y-35819D01*
X56119Y-35821D01*
X56105Y-35825D01*
X56093Y-35833D01*
X56082Y-35842D01*
X56073Y-35854D01*
X56067Y-35867D01*
X56063Y-35881D01*
X56062Y-35896D01*
X56063Y-35905D01*
X56065Y-35913D01*
X56068Y-35922D01*
X56074Y-35933D01*
X56083Y-35945D01*
X56095Y-35954D01*
X56108Y-35961D01*
X56122Y-35965D01*
X56137Y-35967D01*
G36*
X55247Y-35819D02*
X55257Y-35819D01*
X55266Y-35817D01*
X55277Y-35814D01*
X55290Y-35807D01*
X55303Y-35797D01*
X55311Y-35788D01*
X55318Y-35775D01*
X55323Y-35761D01*
X55324Y-35755D01*
X55324Y-35746D01*
X55324Y-35737D01*
X55323Y-35730D01*
X55322Y-35725D01*
X55316Y-35711D01*
X55308Y-35698D01*
X55297Y-35687D01*
X55283Y-35679D01*
X55278Y-35677D01*
X55269Y-35673D01*
X55259Y-35672D01*
X55248Y-35672D01*
X55241Y-35672D01*
X55233Y-35673D01*
X55226Y-35675D01*
X55218Y-35679D01*
X55213Y-35682D01*
X55201Y-35691D01*
X55191Y-35702D01*
X55183Y-35716D01*
X55178Y-35731D01*
X55178Y-35734D01*
X55177Y-35743D01*
X55177Y-35752D01*
X55178Y-35760D01*
X55179Y-35765D01*
X55185Y-35779D01*
X55194Y-35792D01*
X55204Y-35803D01*
X55218Y-35811D01*
X55232Y-35817D01*
X55237Y-35818D01*
X55247Y-35819D01*
X55247Y-35819D01*
G37*
X55247Y-35819D02*
X55257Y-35819D01*
X55266Y-35817D01*
X55277Y-35814D01*
X55290Y-35807D01*
X55303Y-35797D01*
X55311Y-35788D01*
X55318Y-35775D01*
X55323Y-35761D01*
X55324Y-35755D01*
X55324Y-35746D01*
X55324Y-35737D01*
X55323Y-35730D01*
X55322Y-35725D01*
X55316Y-35711D01*
X55308Y-35698D01*
X55297Y-35687D01*
X55283Y-35679D01*
X55278Y-35677D01*
X55269Y-35673D01*
X55259Y-35672D01*
X55248Y-35672D01*
X55241Y-35672D01*
X55233Y-35673D01*
X55226Y-35675D01*
X55218Y-35679D01*
X55213Y-35682D01*
X55201Y-35691D01*
X55191Y-35702D01*
X55183Y-35716D01*
X55178Y-35731D01*
X55178Y-35734D01*
X55177Y-35743D01*
X55177Y-35752D01*
X55178Y-35760D01*
X55179Y-35765D01*
X55185Y-35779D01*
X55194Y-35792D01*
X55204Y-35803D01*
X55218Y-35811D01*
X55232Y-35817D01*
X55237Y-35818D01*
X55247Y-35819D01*
G36*
X55839Y-35819D02*
X55853Y-35818D01*
X55867Y-35814D01*
X55876Y-35810D01*
X55888Y-35801D01*
X55899Y-35790D01*
X55907Y-35777D01*
X55912Y-35763D01*
X55913Y-35760D01*
X55914Y-35748D01*
X55914Y-35737D01*
X55911Y-35724D01*
X55905Y-35709D01*
X55896Y-35697D01*
X55885Y-35687D01*
X55872Y-35679D01*
X55857Y-35673D01*
X55848Y-35671D01*
X55853Y-35670D01*
X55854Y-35670D01*
X55864Y-35667D01*
X55875Y-35662D01*
X55886Y-35656D01*
X55887Y-35654D01*
X55898Y-35644D01*
X55906Y-35631D01*
X55911Y-35617D01*
X55914Y-35603D01*
X55914Y-35589D01*
X55910Y-35575D01*
X55904Y-35561D01*
X55904Y-35560D01*
X55894Y-35548D01*
X55883Y-35538D01*
X55871Y-35531D01*
X55857Y-35527D01*
X55843Y-35525D01*
X55829Y-35526D01*
X55815Y-35529D01*
X55802Y-35536D01*
X55789Y-35545D01*
X55783Y-35552D01*
X55776Y-35563D01*
X55770Y-35574D01*
X55768Y-35585D01*
X55767Y-35588D01*
X55767Y-35589D01*
X55767Y-35588D01*
X55766Y-35585D01*
X55764Y-35575D01*
X55759Y-35565D01*
X55753Y-35555D01*
X55749Y-35550D01*
X55738Y-35540D01*
X55725Y-35532D01*
X55711Y-35527D01*
X55696Y-35525D01*
X55681Y-35526D01*
X55672Y-35528D01*
X55658Y-35534D01*
X55646Y-35542D01*
X55635Y-35553D01*
X55627Y-35566D01*
X55622Y-35581D01*
X55621Y-35588D01*
X55620Y-35603D01*
X55623Y-35617D01*
X55628Y-35631D01*
X55636Y-35644D01*
X55647Y-35654D01*
X55660Y-35663D01*
X55666Y-35666D01*
X55673Y-35668D01*
X55679Y-35670D01*
X55684Y-35671D01*
X55684Y-35671D01*
X55684Y-35671D01*
X55681Y-35672D01*
X55674Y-35674D01*
X55664Y-35678D01*
X55655Y-35682D01*
X55651Y-35685D01*
X55641Y-35694D01*
X55632Y-35704D01*
X55626Y-35715D01*
X55622Y-35728D01*
X55620Y-35741D01*
X55620Y-35754D01*
X55621Y-35756D01*
X55625Y-35772D01*
X55632Y-35785D01*
X55642Y-35797D01*
X55650Y-35805D01*
X55663Y-35813D01*
X55678Y-35817D01*
X55683Y-35818D01*
X55691Y-35819D01*
X55700Y-35818D01*
X55708Y-35818D01*
X55714Y-35816D01*
X55719Y-35815D01*
X55733Y-35808D01*
X55745Y-35798D01*
X55755Y-35786D01*
X55759Y-35780D01*
X55763Y-35770D01*
X55766Y-35760D01*
X55766Y-35760D01*
X55767Y-35756D01*
X55767Y-35755D01*
X55767Y-35755D01*
X55767Y-35735D01*
X55767Y-35735D01*
X55767Y-35734D01*
X55766Y-35730D01*
X55766Y-35729D01*
X55761Y-35716D01*
X55754Y-35703D01*
X55745Y-35692D01*
X55734Y-35683D01*
X55721Y-35677D01*
X55720Y-35676D01*
X55714Y-35674D01*
X55708Y-35673D01*
X55701Y-35671D01*
X55707Y-35670D01*
X55716Y-35668D01*
X55729Y-35662D01*
X55741Y-35654D01*
X55752Y-35643D01*
X55760Y-35631D01*
X55762Y-35625D01*
X55765Y-35617D01*
X55766Y-35611D01*
X55767Y-35608D01*
X55767Y-35607D01*
X55767Y-35608D01*
X55768Y-35611D01*
X55769Y-35616D01*
X55771Y-35624D01*
X55774Y-35631D01*
X55779Y-35639D01*
X55789Y-35650D01*
X55800Y-35659D01*
X55813Y-35666D01*
X55827Y-35670D01*
X55833Y-35671D01*
X55827Y-35673D01*
X55826Y-35673D01*
X55819Y-35674D01*
X55813Y-35677D01*
X55812Y-35677D01*
X55799Y-35684D01*
X55788Y-35693D01*
X55779Y-35704D01*
X55772Y-35717D01*
X55768Y-35730D01*
X55768Y-35730D01*
X55767Y-35734D01*
X55767Y-35735D01*
X55767Y-35755D01*
X55767Y-35755D01*
X55767Y-35757D01*
X55768Y-35760D01*
X55771Y-35770D01*
X55777Y-35783D01*
X55786Y-35795D01*
X55797Y-35805D01*
X55810Y-35812D01*
X55810Y-35812D01*
X55824Y-35817D01*
X55839Y-35819D01*
X55839Y-35819D01*
G37*
X55839Y-35819D02*
X55853Y-35818D01*
X55867Y-35814D01*
X55876Y-35810D01*
X55888Y-35801D01*
X55899Y-35790D01*
X55907Y-35777D01*
X55912Y-35763D01*
X55913Y-35760D01*
X55914Y-35748D01*
X55914Y-35737D01*
X55911Y-35724D01*
X55905Y-35709D01*
X55896Y-35697D01*
X55885Y-35687D01*
X55872Y-35679D01*
X55857Y-35673D01*
X55848Y-35671D01*
X55853Y-35670D01*
X55854Y-35670D01*
X55864Y-35667D01*
X55875Y-35662D01*
X55886Y-35656D01*
X55887Y-35654D01*
X55898Y-35644D01*
X55906Y-35631D01*
X55911Y-35617D01*
X55914Y-35603D01*
X55914Y-35589D01*
X55910Y-35575D01*
X55904Y-35561D01*
X55904Y-35560D01*
X55894Y-35548D01*
X55883Y-35538D01*
X55871Y-35531D01*
X55857Y-35527D01*
X55843Y-35525D01*
X55829Y-35526D01*
X55815Y-35529D01*
X55802Y-35536D01*
X55789Y-35545D01*
X55783Y-35552D01*
X55776Y-35563D01*
X55770Y-35574D01*
X55768Y-35585D01*
X55767Y-35588D01*
X55767Y-35589D01*
X55767Y-35588D01*
X55766Y-35585D01*
X55764Y-35575D01*
X55759Y-35565D01*
X55753Y-35555D01*
X55749Y-35550D01*
X55738Y-35540D01*
X55725Y-35532D01*
X55711Y-35527D01*
X55696Y-35525D01*
X55681Y-35526D01*
X55672Y-35528D01*
X55658Y-35534D01*
X55646Y-35542D01*
X55635Y-35553D01*
X55627Y-35566D01*
X55622Y-35581D01*
X55621Y-35588D01*
X55620Y-35603D01*
X55623Y-35617D01*
X55628Y-35631D01*
X55636Y-35644D01*
X55647Y-35654D01*
X55660Y-35663D01*
X55666Y-35666D01*
X55673Y-35668D01*
X55679Y-35670D01*
X55684Y-35671D01*
X55684Y-35671D01*
X55684Y-35671D01*
X55681Y-35672D01*
X55674Y-35674D01*
X55664Y-35678D01*
X55655Y-35682D01*
X55651Y-35685D01*
X55641Y-35694D01*
X55632Y-35704D01*
X55626Y-35715D01*
X55622Y-35728D01*
X55620Y-35741D01*
X55620Y-35754D01*
X55621Y-35756D01*
X55625Y-35772D01*
X55632Y-35785D01*
X55642Y-35797D01*
X55650Y-35805D01*
X55663Y-35813D01*
X55678Y-35817D01*
X55683Y-35818D01*
X55691Y-35819D01*
X55700Y-35818D01*
X55708Y-35818D01*
X55714Y-35816D01*
X55719Y-35815D01*
X55733Y-35808D01*
X55745Y-35798D01*
X55755Y-35786D01*
X55759Y-35780D01*
X55763Y-35770D01*
X55766Y-35760D01*
X55766Y-35760D01*
X55767Y-35756D01*
X55767Y-35755D01*
X55767Y-35755D01*
X55767Y-35735D01*
X55767Y-35735D01*
X55767Y-35734D01*
X55766Y-35730D01*
X55766Y-35729D01*
X55761Y-35716D01*
X55754Y-35703D01*
X55745Y-35692D01*
X55734Y-35683D01*
X55721Y-35677D01*
X55720Y-35676D01*
X55714Y-35674D01*
X55708Y-35673D01*
X55701Y-35671D01*
X55707Y-35670D01*
X55716Y-35668D01*
X55729Y-35662D01*
X55741Y-35654D01*
X55752Y-35643D01*
X55760Y-35631D01*
X55762Y-35625D01*
X55765Y-35617D01*
X55766Y-35611D01*
X55767Y-35608D01*
X55767Y-35607D01*
X55767Y-35608D01*
X55768Y-35611D01*
X55769Y-35616D01*
X55771Y-35624D01*
X55774Y-35631D01*
X55779Y-35639D01*
X55789Y-35650D01*
X55800Y-35659D01*
X55813Y-35666D01*
X55827Y-35670D01*
X55833Y-35671D01*
X55827Y-35673D01*
X55826Y-35673D01*
X55819Y-35674D01*
X55813Y-35677D01*
X55812Y-35677D01*
X55799Y-35684D01*
X55788Y-35693D01*
X55779Y-35704D01*
X55772Y-35717D01*
X55768Y-35730D01*
X55768Y-35730D01*
X55767Y-35734D01*
X55767Y-35735D01*
X55767Y-35755D01*
X55767Y-35755D01*
X55767Y-35757D01*
X55768Y-35760D01*
X55771Y-35770D01*
X55777Y-35783D01*
X55786Y-35795D01*
X55797Y-35805D01*
X55810Y-35812D01*
X55810Y-35812D01*
X55824Y-35817D01*
X55839Y-35819D01*
G36*
X56278Y-35819D02*
X56290Y-35819D01*
X56301Y-35817D01*
X56308Y-35815D01*
X56322Y-35808D01*
X56334Y-35799D01*
X56344Y-35788D01*
X56351Y-35775D01*
X56355Y-35761D01*
X56357Y-35745D01*
X56357Y-35739D01*
X56354Y-35724D01*
X56348Y-35710D01*
X56339Y-35696D01*
X56336Y-35694D01*
X56326Y-35685D01*
X56314Y-35678D01*
X56301Y-35673D01*
X56300Y-35673D01*
X56289Y-35672D01*
X56277Y-35672D01*
X56266Y-35673D01*
X56262Y-35674D01*
X56248Y-35680D01*
X56236Y-35689D01*
X56226Y-35699D01*
X56218Y-35711D01*
X56212Y-35724D01*
X56210Y-35739D01*
X56210Y-35754D01*
X56213Y-35769D01*
X56218Y-35780D01*
X56227Y-35792D01*
X56238Y-35803D01*
X56250Y-35811D01*
X56265Y-35817D01*
X56266Y-35817D01*
X56278Y-35819D01*
X56278Y-35819D01*
G37*
X56278Y-35819D02*
X56290Y-35819D01*
X56301Y-35817D01*
X56308Y-35815D01*
X56322Y-35808D01*
X56334Y-35799D01*
X56344Y-35788D01*
X56351Y-35775D01*
X56355Y-35761D01*
X56357Y-35745D01*
X56357Y-35739D01*
X56354Y-35724D01*
X56348Y-35710D01*
X56339Y-35696D01*
X56336Y-35694D01*
X56326Y-35685D01*
X56314Y-35678D01*
X56301Y-35673D01*
X56300Y-35673D01*
X56289Y-35672D01*
X56277Y-35672D01*
X56266Y-35673D01*
X56262Y-35674D01*
X56248Y-35680D01*
X56236Y-35689D01*
X56226Y-35699D01*
X56218Y-35711D01*
X56212Y-35724D01*
X56210Y-35739D01*
X56210Y-35754D01*
X56213Y-35769D01*
X56218Y-35780D01*
X56227Y-35792D01*
X56238Y-35803D01*
X56250Y-35811D01*
X56265Y-35817D01*
X56266Y-35817D01*
X56278Y-35819D01*
G36*
X55548Y-35377D02*
X55563Y-35375D01*
X55577Y-35370D01*
X55584Y-35367D01*
X55590Y-35362D01*
X55597Y-35356D01*
X55605Y-35348D01*
X55613Y-35335D01*
X55618Y-35321D01*
X55619Y-35317D01*
X55620Y-35307D01*
X55620Y-35297D01*
X55618Y-35288D01*
X55614Y-35275D01*
X55608Y-35262D01*
X55599Y-35251D01*
X55597Y-35250D01*
X55590Y-35244D01*
X55582Y-35239D01*
X55575Y-35235D01*
X55572Y-35234D01*
X55566Y-35232D01*
X55560Y-35231D01*
X55556Y-35230D01*
X55553Y-35230D01*
X55556Y-35229D01*
X55560Y-35228D01*
X55564Y-35227D01*
X55570Y-35226D01*
X55581Y-35220D01*
X55592Y-35214D01*
X55600Y-35206D01*
X55602Y-35204D01*
X55611Y-35191D01*
X55617Y-35177D01*
X55620Y-35163D01*
X55620Y-35148D01*
X55619Y-35144D01*
X55615Y-35129D01*
X55608Y-35116D01*
X55598Y-35103D01*
X55589Y-35096D01*
X55576Y-35088D01*
X55562Y-35083D01*
X55559Y-35083D01*
X55549Y-35082D01*
X55539Y-35082D01*
X55529Y-35084D01*
X55521Y-35086D01*
X55507Y-35093D01*
X55495Y-35102D01*
X55486Y-35113D01*
X55478Y-35126D01*
X55474Y-35140D01*
X55473Y-35142D01*
X55472Y-35145D01*
X55472Y-35147D01*
X55471Y-35145D01*
X55471Y-35142D01*
X55470Y-35136D01*
X55467Y-35129D01*
X55465Y-35123D01*
X55462Y-35119D01*
X55453Y-35106D01*
X55442Y-35096D01*
X55429Y-35088D01*
X55415Y-35084D01*
X55399Y-35082D01*
X55387Y-35083D01*
X55373Y-35086D01*
X55360Y-35093D01*
X55352Y-35098D01*
X55341Y-35109D01*
X55333Y-35121D01*
X55327Y-35135D01*
X55325Y-35149D01*
X55325Y-35164D01*
X55328Y-35178D01*
X55334Y-35192D01*
X55343Y-35204D01*
X55354Y-35215D01*
X55368Y-35223D01*
X55383Y-35228D01*
X55391Y-35230D01*
X55386Y-35230D01*
X55383Y-35231D01*
X55371Y-35234D01*
X55360Y-35240D01*
X55349Y-35248D01*
X55340Y-35257D01*
X55335Y-35265D01*
X55330Y-35275D01*
X55327Y-35285D01*
X55325Y-35293D01*
X55325Y-35302D01*
X55325Y-35312D01*
X55326Y-35319D01*
X55329Y-35328D01*
X55336Y-35342D01*
X55345Y-35354D01*
X55357Y-35364D01*
X55370Y-35372D01*
X55386Y-35376D01*
X55390Y-35377D01*
X55399Y-35377D01*
X55408Y-35376D01*
X55417Y-35375D01*
X55423Y-35373D01*
X55437Y-35366D01*
X55449Y-35357D01*
X55459Y-35346D01*
X55466Y-35333D01*
X55471Y-35318D01*
X55471Y-35317D01*
X55472Y-35313D01*
X55472Y-35314D01*
X55472Y-35293D01*
X55472Y-35293D01*
X55471Y-35290D01*
X55471Y-35289D01*
X55468Y-35279D01*
X55464Y-35269D01*
X55458Y-35259D01*
X55453Y-35254D01*
X55442Y-35243D01*
X55428Y-35236D01*
X55413Y-35231D01*
X55406Y-35229D01*
X55411Y-35228D01*
X55416Y-35227D01*
X55420Y-35226D01*
X55423Y-35225D01*
X55437Y-35219D01*
X55449Y-35209D01*
X55459Y-35198D01*
X55466Y-35185D01*
X55471Y-35171D01*
X55471Y-35168D01*
X55472Y-35166D01*
X55473Y-35167D01*
X55474Y-35171D01*
X55474Y-35172D01*
X55476Y-35180D01*
X55480Y-35188D01*
X55484Y-35196D01*
X55488Y-35201D01*
X55495Y-35208D01*
X55502Y-35215D01*
X55509Y-35220D01*
X55510Y-35220D01*
X55521Y-35225D01*
X55533Y-35228D01*
X55538Y-35229D01*
X55532Y-35231D01*
X55519Y-35234D01*
X55506Y-35241D01*
X55494Y-35250D01*
X55485Y-35261D01*
X55483Y-35265D01*
X55479Y-35272D01*
X55476Y-35280D01*
X55474Y-35287D01*
X55473Y-35292D01*
X55473Y-35292D01*
X55472Y-35293D01*
X55472Y-35314D01*
X55473Y-35314D01*
X55473Y-35317D01*
X55474Y-35321D01*
X55476Y-35326D01*
X55479Y-35333D01*
X55486Y-35346D01*
X55496Y-35357D01*
X55507Y-35366D01*
X55520Y-35372D01*
X55534Y-35376D01*
X55548Y-35377D01*
X55548Y-35377D01*
G37*
X55548Y-35377D02*
X55563Y-35375D01*
X55577Y-35370D01*
X55584Y-35367D01*
X55590Y-35362D01*
X55597Y-35356D01*
X55605Y-35348D01*
X55613Y-35335D01*
X55618Y-35321D01*
X55619Y-35317D01*
X55620Y-35307D01*
X55620Y-35297D01*
X55618Y-35288D01*
X55614Y-35275D01*
X55608Y-35262D01*
X55599Y-35251D01*
X55597Y-35250D01*
X55590Y-35244D01*
X55582Y-35239D01*
X55575Y-35235D01*
X55572Y-35234D01*
X55566Y-35232D01*
X55560Y-35231D01*
X55556Y-35230D01*
X55553Y-35230D01*
X55556Y-35229D01*
X55560Y-35228D01*
X55564Y-35227D01*
X55570Y-35226D01*
X55581Y-35220D01*
X55592Y-35214D01*
X55600Y-35206D01*
X55602Y-35204D01*
X55611Y-35191D01*
X55617Y-35177D01*
X55620Y-35163D01*
X55620Y-35148D01*
X55619Y-35144D01*
X55615Y-35129D01*
X55608Y-35116D01*
X55598Y-35103D01*
X55589Y-35096D01*
X55576Y-35088D01*
X55562Y-35083D01*
X55559Y-35083D01*
X55549Y-35082D01*
X55539Y-35082D01*
X55529Y-35084D01*
X55521Y-35086D01*
X55507Y-35093D01*
X55495Y-35102D01*
X55486Y-35113D01*
X55478Y-35126D01*
X55474Y-35140D01*
X55473Y-35142D01*
X55472Y-35145D01*
X55472Y-35147D01*
X55471Y-35145D01*
X55471Y-35142D01*
X55470Y-35136D01*
X55467Y-35129D01*
X55465Y-35123D01*
X55462Y-35119D01*
X55453Y-35106D01*
X55442Y-35096D01*
X55429Y-35088D01*
X55415Y-35084D01*
X55399Y-35082D01*
X55387Y-35083D01*
X55373Y-35086D01*
X55360Y-35093D01*
X55352Y-35098D01*
X55341Y-35109D01*
X55333Y-35121D01*
X55327Y-35135D01*
X55325Y-35149D01*
X55325Y-35164D01*
X55328Y-35178D01*
X55334Y-35192D01*
X55343Y-35204D01*
X55354Y-35215D01*
X55368Y-35223D01*
X55383Y-35228D01*
X55391Y-35230D01*
X55386Y-35230D01*
X55383Y-35231D01*
X55371Y-35234D01*
X55360Y-35240D01*
X55349Y-35248D01*
X55340Y-35257D01*
X55335Y-35265D01*
X55330Y-35275D01*
X55327Y-35285D01*
X55325Y-35293D01*
X55325Y-35302D01*
X55325Y-35312D01*
X55326Y-35319D01*
X55329Y-35328D01*
X55336Y-35342D01*
X55345Y-35354D01*
X55357Y-35364D01*
X55370Y-35372D01*
X55386Y-35376D01*
X55390Y-35377D01*
X55399Y-35377D01*
X55408Y-35376D01*
X55417Y-35375D01*
X55423Y-35373D01*
X55437Y-35366D01*
X55449Y-35357D01*
X55459Y-35346D01*
X55466Y-35333D01*
X55471Y-35318D01*
X55471Y-35317D01*
X55472Y-35313D01*
X55472Y-35314D01*
X55472Y-35293D01*
X55472Y-35293D01*
X55471Y-35290D01*
X55471Y-35289D01*
X55468Y-35279D01*
X55464Y-35269D01*
X55458Y-35259D01*
X55453Y-35254D01*
X55442Y-35243D01*
X55428Y-35236D01*
X55413Y-35231D01*
X55406Y-35229D01*
X55411Y-35228D01*
X55416Y-35227D01*
X55420Y-35226D01*
X55423Y-35225D01*
X55437Y-35219D01*
X55449Y-35209D01*
X55459Y-35198D01*
X55466Y-35185D01*
X55471Y-35171D01*
X55471Y-35168D01*
X55472Y-35166D01*
X55473Y-35167D01*
X55474Y-35171D01*
X55474Y-35172D01*
X55476Y-35180D01*
X55480Y-35188D01*
X55484Y-35196D01*
X55488Y-35201D01*
X55495Y-35208D01*
X55502Y-35215D01*
X55509Y-35220D01*
X55510Y-35220D01*
X55521Y-35225D01*
X55533Y-35228D01*
X55538Y-35229D01*
X55532Y-35231D01*
X55519Y-35234D01*
X55506Y-35241D01*
X55494Y-35250D01*
X55485Y-35261D01*
X55483Y-35265D01*
X55479Y-35272D01*
X55476Y-35280D01*
X55474Y-35287D01*
X55473Y-35292D01*
X55473Y-35292D01*
X55472Y-35293D01*
X55472Y-35314D01*
X55473Y-35314D01*
X55473Y-35317D01*
X55474Y-35321D01*
X55476Y-35326D01*
X55479Y-35333D01*
X55486Y-35346D01*
X55496Y-35357D01*
X55507Y-35366D01*
X55520Y-35372D01*
X55534Y-35376D01*
X55548Y-35377D01*
G36*
X55992Y-35377D02*
X56006Y-35375D01*
X56020Y-35370D01*
X56033Y-35362D01*
X56043Y-35352D01*
X56052Y-35340D01*
X56058Y-35326D01*
X56060Y-35321D01*
X56061Y-35317D01*
X56061Y-35316D01*
X56062Y-35313D01*
X56062Y-35313D01*
X56062Y-35293D01*
X56061Y-35291D01*
X56060Y-35286D01*
X56057Y-35277D01*
X56051Y-35264D01*
X56042Y-35252D01*
X56030Y-35243D01*
X56017Y-35235D01*
X56003Y-35231D01*
X55996Y-35229D01*
X56001Y-35228D01*
X56001Y-35228D01*
X56013Y-35225D01*
X56025Y-35220D01*
X56029Y-35217D01*
X56037Y-35210D01*
X56044Y-35203D01*
X56050Y-35196D01*
X56053Y-35190D01*
X56058Y-35180D01*
X56060Y-35172D01*
X56061Y-35168D01*
X56062Y-35166D01*
X56062Y-35167D01*
X56063Y-35171D01*
X56066Y-35181D01*
X56073Y-35195D01*
X56083Y-35207D01*
X56094Y-35216D01*
X56107Y-35224D01*
X56123Y-35228D01*
X56128Y-35229D01*
X56121Y-35231D01*
X56114Y-35233D01*
X56100Y-35239D01*
X56087Y-35248D01*
X56077Y-35259D01*
X56073Y-35263D01*
X56070Y-35270D01*
X56066Y-35278D01*
X56064Y-35283D01*
X56063Y-35289D01*
X56063Y-35289D01*
X56062Y-35292D01*
X56062Y-35293D01*
X56062Y-35313D01*
X56062Y-35314D01*
X56063Y-35318D01*
X56064Y-35323D01*
X56069Y-35334D01*
X56074Y-35344D01*
X56079Y-35350D01*
X56090Y-35361D01*
X56103Y-35369D01*
X56118Y-35375D01*
X56124Y-35376D01*
X56134Y-35377D01*
X56145Y-35376D01*
X56154Y-35375D01*
X56155Y-35375D01*
X56170Y-35369D01*
X56183Y-35360D01*
X56193Y-35349D01*
X56202Y-35336D01*
X56207Y-35321D01*
X56209Y-35315D01*
X56209Y-35304D01*
X56209Y-35294D01*
X56207Y-35285D01*
X56205Y-35277D01*
X56200Y-35267D01*
X56194Y-35257D01*
X56187Y-35250D01*
X56178Y-35243D01*
X56168Y-35237D01*
X56165Y-35235D01*
X56158Y-35233D01*
X56151Y-35231D01*
X56146Y-35230D01*
X56145Y-35230D01*
X56147Y-35229D01*
X56151Y-35228D01*
X56160Y-35225D01*
X56169Y-35221D01*
X56177Y-35217D01*
X56179Y-35215D01*
X56189Y-35207D01*
X56197Y-35196D01*
X56203Y-35185D01*
X56206Y-35180D01*
X56209Y-35165D01*
X56209Y-35150D01*
X56207Y-35135D01*
X56206Y-35132D01*
X56199Y-35118D01*
X56190Y-35106D01*
X56179Y-35096D01*
X56166Y-35088D01*
X56151Y-35083D01*
X56149Y-35083D01*
X56139Y-35082D01*
X56128Y-35082D01*
X56119Y-35084D01*
X56116Y-35084D01*
X56102Y-35090D01*
X56089Y-35098D01*
X56078Y-35110D01*
X56069Y-35123D01*
X56067Y-35127D01*
X56065Y-35134D01*
X56063Y-35140D01*
X56063Y-35145D01*
X56063Y-35146D01*
X56062Y-35146D01*
X56061Y-35144D01*
X56060Y-35140D01*
X56058Y-35130D01*
X56051Y-35117D01*
X56042Y-35106D01*
X56031Y-35096D01*
X56018Y-35088D01*
X56018Y-35088D01*
X56005Y-35084D01*
X55990Y-35082D01*
X55975Y-35083D01*
X55961Y-35087D01*
X55953Y-35091D01*
X55940Y-35099D01*
X55930Y-35110D01*
X55922Y-35123D01*
X55916Y-35138D01*
X55916Y-35141D01*
X55914Y-35153D01*
X55915Y-35164D01*
X55918Y-35178D01*
X55924Y-35192D01*
X55933Y-35204D01*
X55944Y-35215D01*
X55957Y-35223D01*
X55972Y-35228D01*
X55975Y-35229D01*
X55978Y-35230D01*
X55978Y-35230D01*
X55974Y-35230D01*
X55965Y-35233D01*
X55956Y-35237D01*
X55947Y-35242D01*
X55939Y-35248D01*
X55929Y-35259D01*
X55921Y-35273D01*
X55920Y-35275D01*
X55915Y-35289D01*
X55914Y-35304D01*
X55916Y-35320D01*
X55921Y-35334D01*
X55924Y-35341D01*
X55929Y-35347D01*
X55935Y-35354D01*
X55935Y-35355D01*
X55947Y-35365D01*
X55961Y-35372D01*
X55975Y-35376D01*
X55977Y-35376D01*
X55992Y-35377D01*
X55992Y-35377D01*
G37*
X55992Y-35377D02*
X56006Y-35375D01*
X56020Y-35370D01*
X56033Y-35362D01*
X56043Y-35352D01*
X56052Y-35340D01*
X56058Y-35326D01*
X56060Y-35321D01*
X56061Y-35317D01*
X56061Y-35316D01*
X56062Y-35313D01*
X56062Y-35313D01*
X56062Y-35293D01*
X56061Y-35291D01*
X56060Y-35286D01*
X56057Y-35277D01*
X56051Y-35264D01*
X56042Y-35252D01*
X56030Y-35243D01*
X56017Y-35235D01*
X56003Y-35231D01*
X55996Y-35229D01*
X56001Y-35228D01*
X56001Y-35228D01*
X56013Y-35225D01*
X56025Y-35220D01*
X56029Y-35217D01*
X56037Y-35210D01*
X56044Y-35203D01*
X56050Y-35196D01*
X56053Y-35190D01*
X56058Y-35180D01*
X56060Y-35172D01*
X56061Y-35168D01*
X56062Y-35166D01*
X56062Y-35167D01*
X56063Y-35171D01*
X56066Y-35181D01*
X56073Y-35195D01*
X56083Y-35207D01*
X56094Y-35216D01*
X56107Y-35224D01*
X56123Y-35228D01*
X56128Y-35229D01*
X56121Y-35231D01*
X56114Y-35233D01*
X56100Y-35239D01*
X56087Y-35248D01*
X56077Y-35259D01*
X56073Y-35263D01*
X56070Y-35270D01*
X56066Y-35278D01*
X56064Y-35283D01*
X56063Y-35289D01*
X56063Y-35289D01*
X56062Y-35292D01*
X56062Y-35293D01*
X56062Y-35313D01*
X56062Y-35314D01*
X56063Y-35318D01*
X56064Y-35323D01*
X56069Y-35334D01*
X56074Y-35344D01*
X56079Y-35350D01*
X56090Y-35361D01*
X56103Y-35369D01*
X56118Y-35375D01*
X56124Y-35376D01*
X56134Y-35377D01*
X56145Y-35376D01*
X56154Y-35375D01*
X56155Y-35375D01*
X56170Y-35369D01*
X56183Y-35360D01*
X56193Y-35349D01*
X56202Y-35336D01*
X56207Y-35321D01*
X56209Y-35315D01*
X56209Y-35304D01*
X56209Y-35294D01*
X56207Y-35285D01*
X56205Y-35277D01*
X56200Y-35267D01*
X56194Y-35257D01*
X56187Y-35250D01*
X56178Y-35243D01*
X56168Y-35237D01*
X56165Y-35235D01*
X56158Y-35233D01*
X56151Y-35231D01*
X56146Y-35230D01*
X56145Y-35230D01*
X56147Y-35229D01*
X56151Y-35228D01*
X56160Y-35225D01*
X56169Y-35221D01*
X56177Y-35217D01*
X56179Y-35215D01*
X56189Y-35207D01*
X56197Y-35196D01*
X56203Y-35185D01*
X56206Y-35180D01*
X56209Y-35165D01*
X56209Y-35150D01*
X56207Y-35135D01*
X56206Y-35132D01*
X56199Y-35118D01*
X56190Y-35106D01*
X56179Y-35096D01*
X56166Y-35088D01*
X56151Y-35083D01*
X56149Y-35083D01*
X56139Y-35082D01*
X56128Y-35082D01*
X56119Y-35084D01*
X56116Y-35084D01*
X56102Y-35090D01*
X56089Y-35098D01*
X56078Y-35110D01*
X56069Y-35123D01*
X56067Y-35127D01*
X56065Y-35134D01*
X56063Y-35140D01*
X56063Y-35145D01*
X56063Y-35146D01*
X56062Y-35146D01*
X56061Y-35144D01*
X56060Y-35140D01*
X56058Y-35130D01*
X56051Y-35117D01*
X56042Y-35106D01*
X56031Y-35096D01*
X56018Y-35088D01*
X56018Y-35088D01*
X56005Y-35084D01*
X55990Y-35082D01*
X55975Y-35083D01*
X55961Y-35087D01*
X55953Y-35091D01*
X55940Y-35099D01*
X55930Y-35110D01*
X55922Y-35123D01*
X55916Y-35138D01*
X55916Y-35141D01*
X55914Y-35153D01*
X55915Y-35164D01*
X55918Y-35178D01*
X55924Y-35192D01*
X55933Y-35204D01*
X55944Y-35215D01*
X55957Y-35223D01*
X55972Y-35228D01*
X55975Y-35229D01*
X55978Y-35230D01*
X55978Y-35230D01*
X55974Y-35230D01*
X55965Y-35233D01*
X55956Y-35237D01*
X55947Y-35242D01*
X55939Y-35248D01*
X55929Y-35259D01*
X55921Y-35273D01*
X55920Y-35275D01*
X55915Y-35289D01*
X55914Y-35304D01*
X55916Y-35320D01*
X55921Y-35334D01*
X55924Y-35341D01*
X55929Y-35347D01*
X55935Y-35354D01*
X55935Y-35355D01*
X55947Y-35365D01*
X55961Y-35372D01*
X55975Y-35376D01*
X55977Y-35376D01*
X55992Y-35377D01*
G54D11*
X57396Y-36538D02*
X57527Y-36538D01*
X57527Y-36745D02*
X57527Y-36351D01*
X57339Y-36351D01*
X57246Y-36351D02*
X57021Y-36351D01*
X57133Y-36745D02*
X57133Y-36351D01*
X56889Y-36745D02*
X56889Y-36351D01*
X56796Y-36351D01*
X56739Y-36370D01*
X56702Y-36407D01*
X56683Y-36445D01*
X56664Y-36520D01*
X56664Y-36576D01*
X56683Y-36651D01*
X56702Y-36688D01*
X56739Y-36726D01*
X56796Y-36745D01*
X56889Y-36745D01*
X56496Y-36745D02*
X56496Y-36351D01*
%LPC*%
G54D15*
X62248Y-35610D03*
X62248Y-36318D03*
G54D16*
X63589Y-37783D03*
X62909Y-36895D03*
X64027Y-36884D03*
X63347Y-35996D03*
X55502Y-37344D03*
X54384Y-37333D03*
X55064Y-36445D03*
X53946Y-36434D03*
G54D17*
X59161Y-36984D03*
X59358Y-36984D03*
X59555Y-36984D03*
X58964Y-36984D03*
G54D18*
X58669Y-36689D03*
X58669Y-36492D03*
X58669Y-36295D03*
X58669Y-36098D03*
X58669Y-35902D03*
X58669Y-35705D03*
X58669Y-35508D03*
X58669Y-35311D03*
G54D17*
X60342Y-35016D03*
X58964Y-35016D03*
X59161Y-35016D03*
X59358Y-35016D03*
X59555Y-35016D03*
X59751Y-35016D03*
X59948Y-35016D03*
X60145Y-35016D03*
G54D18*
X60637Y-35311D03*
X60637Y-35508D03*
X60637Y-35705D03*
X60637Y-35902D03*
X60637Y-36098D03*
X60637Y-36295D03*
X60637Y-36492D03*
X60637Y-36689D03*
G54D17*
X60342Y-36984D03*
X60145Y-36984D03*
X59948Y-36984D03*
X59751Y-36984D03*
G54D19*
X59653Y-36000D03*
G54D20*
X56606Y-38047D03*
G54D21*
X57606Y-38047D03*
X58606Y-38047D03*
X59606Y-38047D03*
X60606Y-38047D03*
X61606Y-38047D03*
G54D22*
X61492Y-35645D03*
X61492Y-36393D03*
G54D23*
X57283Y-35858D03*
X57283Y-35484D03*
X57283Y-35110D03*
G54D10*
G36*
X55288Y-39055D02*
X54757Y-39314D01*
X54498Y-38783D01*
X55029Y-38524D01*
X55288Y-39055D01*
X55288Y-39055D01*
G37*
G36*
X53942Y-36295D02*
X53411Y-36554D01*
X53152Y-36023D01*
X53683Y-35764D01*
X53942Y-36295D01*
X53942Y-36295D01*
G37*
G36*
X63478Y-39314D02*
X62947Y-39055D01*
X63206Y-38524D01*
X63737Y-38783D01*
X63478Y-39314D01*
X63478Y-39314D01*
G37*
G36*
X64824Y-36554D02*
X64294Y-36295D01*
X64552Y-35764D01*
X65083Y-36023D01*
X64824Y-36554D01*
X64824Y-36554D01*
G37*
G54D24*
X62062Y-37161D03*
X61394Y-37161D03*
M02*
