G04 #@! TF.FileFunction,Soldermask,Top*
%FSLAX46Y46*%
G04 Gerber Fmt 4.6, Leading zero omitted, Abs format (unit mm)*
G04 Created by KiCad (PCBNEW (2015-02-16 BZR 5425)-product) date Mon 16 Feb 2015 09:14:59 PM CET*
%MOMM*%
G01*
G04 APERTURE LIST*
%ADD10C,0.100000*%
%ADD11R,1.000760X0.650240*%
%ADD12C,0.762000*%
%ADD13R,0.762000X0.762000*%
%ADD14C,1.400000*%
%ADD15R,1.650000X1.650000*%
%ADD16C,1.650000*%
%ADD17R,2.000000X0.600000*%
%ADD18R,1.498600X1.297940*%
%ADD19R,1.099820X0.998220*%
G04 APERTURE END LIST*
D10*
D11*
X142319760Y-92560000D03*
X143620240Y-92560000D03*
D12*
X142992751Y-89788042D03*
X142992751Y-91058042D03*
D13*
X144262751Y-89788042D03*
D12*
X144262751Y-91058042D03*
X141722751Y-89788042D03*
X141722751Y-91058042D03*
D14*
X137023435Y-92544529D03*
X139863103Y-92572534D03*
X138136897Y-94827466D03*
X140976565Y-94855471D03*
X160903629Y-91431066D03*
X162629834Y-93685997D03*
X159790166Y-93714003D03*
X161516371Y-95968934D03*
D15*
X143780000Y-96640000D03*
D16*
X146320000Y-96640000D03*
X148860000Y-96640000D03*
X151400000Y-96640000D03*
X153940000Y-96640000D03*
X156480000Y-96640000D03*
D17*
X150100000Y-92450000D03*
X150100000Y-91500000D03*
X150100000Y-90550000D03*
D18*
X155270000Y-92239960D03*
X155270000Y-90340040D03*
D19*
X157270000Y-92508360D03*
X157270000Y-90811640D03*
D10*
G36*
X143306000Y-93014000D02*
X142444000Y-93014000D01*
X142444000Y-92152000D01*
X143306000Y-92152000D01*
X143306000Y-93014000D01*
X143306000Y-93014000D01*
G37*
X143306000Y-93014000D02*
X142444000Y-93014000D01*
X142444000Y-92152000D01*
X143306000Y-92152000D01*
X143306000Y-93014000D01*
M02*
