M48
INCH,TZ
T1C0.012
T2C0.015
T3C0.031
T4C0.040
T5C0.047
%
G90
G05
T1
X5.3642Y-3.687
X5.4492Y-3.8776
X5.4528Y-3.6226
X5.4917Y-3.5754
X5.5035Y-3.7614
X5.5587Y-3.6689
X5.6061Y-3.6449
X5.6535Y-3.6638
X5.7256Y-3.7193
X5.7469Y-3.6063
X5.761Y-3.6851
X5.7626Y-3.6531
X5.7823Y-3.7193
X5.8287Y-3.7075
X5.9106Y-3.7441
X5.9592Y-3.7523
X5.9717Y-3.6009
X6.0079Y-3.4925
X6.0259Y-3.7028
X6.028Y-3.6709
X6.05Y-3.7492
X6.0646Y-3.5819
X6.0945Y-3.685
X6.13Y-3.7621
X6.1693Y-3.525
T2
X5.5796Y-3.535
X5.5796Y-3.585
X5.6296Y-3.535
X5.6296Y-3.585
X5.6796Y-3.535
X5.6796Y-3.585
T3
X5.3946Y-3.6435
X5.4385Y-3.7334
X5.5064Y-3.6446
X5.5503Y-3.7345
X6.291Y-3.6895
X6.3348Y-3.5996
X6.3589Y-3.7783
X6.4027Y-3.6884
T4
X5.6606Y-3.8047
X5.7606Y-3.8047
X5.8606Y-3.8047
X5.9606Y-3.8047
X6.0606Y-3.8047
X6.1606Y-3.8047
T5
X5.2811Y-3.7772
T0
M30
