G04 #@! TF.FileFunction,Soldermask,Bot*
%FSLAX46Y46*%
G04 Gerber Fmt 4.6, Leading zero omitted, Abs format (unit mm)*
G04 Created by KiCad (PCBNEW (2015-02-11 BZR 5414)-product) date Thu 12 Feb 2015 02:53:01 PM CET*
%MOMM*%
G01*
G04 APERTURE LIST*
%ADD10C,0.100000*%
%ADD11C,1.400000*%
%ADD12R,1.100000X1.000000*%
%ADD13R,1.650000X1.650000*%
%ADD14C,1.650000*%
%ADD15R,1.498600X1.297940*%
%ADD16R,0.998220X1.099820*%
G04 APERTURE END LIST*
D10*
G36*
X149564018Y-94782483D02*
X149317295Y-94535760D01*
X149811874Y-94041181D01*
X150058597Y-94287904D01*
X149564018Y-94782483D01*
X149564018Y-94782483D01*
G37*
G36*
X149210196Y-94428661D02*
X148963473Y-94181938D01*
X149458052Y-93687359D01*
X149704775Y-93934082D01*
X149210196Y-94428661D01*
X149210196Y-94428661D01*
G37*
G36*
X148856374Y-94074838D02*
X148609651Y-93828115D01*
X149104230Y-93333536D01*
X149350953Y-93580259D01*
X148856374Y-94074838D01*
X148856374Y-94074838D01*
G37*
G36*
X148502552Y-93721016D02*
X148255829Y-93474293D01*
X148750408Y-92979714D01*
X148997131Y-93226437D01*
X148502552Y-93721016D01*
X148502552Y-93721016D01*
G37*
G36*
X148150526Y-93368990D02*
X147903803Y-93122267D01*
X148398382Y-92627688D01*
X148645105Y-92874411D01*
X148150526Y-93368990D01*
X148150526Y-93368990D01*
G37*
G36*
X147796703Y-93015168D02*
X147549980Y-92768445D01*
X148044559Y-92273866D01*
X148291282Y-92520589D01*
X147796703Y-93015168D01*
X147796703Y-93015168D01*
G37*
G36*
X147442881Y-92661346D02*
X147196158Y-92414623D01*
X147690737Y-91920044D01*
X147937460Y-92166767D01*
X147442881Y-92661346D01*
X147442881Y-92661346D01*
G37*
G36*
X147089059Y-92307524D02*
X146842336Y-92060801D01*
X147336915Y-91566222D01*
X147583638Y-91812945D01*
X147089059Y-92307524D01*
X147089059Y-92307524D01*
G37*
G36*
X148748612Y-89976250D02*
X148254033Y-89481671D01*
X148500756Y-89234948D01*
X148995335Y-89729527D01*
X148748612Y-89976250D01*
X148748612Y-89976250D01*
G37*
G36*
X149100638Y-89624223D02*
X148606059Y-89129644D01*
X148852782Y-88882921D01*
X149347361Y-89377500D01*
X149100638Y-89624223D01*
X149100638Y-89624223D01*
G37*
G36*
X149454460Y-89270401D02*
X148959881Y-88775822D01*
X149206604Y-88529099D01*
X149701183Y-89023678D01*
X149454460Y-89270401D01*
X149454460Y-89270401D01*
G37*
G36*
X149808282Y-88916579D02*
X149313703Y-88422000D01*
X149560426Y-88175277D01*
X150055005Y-88669856D01*
X149808282Y-88916579D01*
X149808282Y-88916579D01*
G37*
G36*
X150147735Y-93884457D02*
X147743954Y-91480676D01*
X150147735Y-89076895D01*
X152551516Y-91480676D01*
X150147735Y-93884457D01*
X150147735Y-93884457D01*
G37*
G36*
X147335119Y-91389742D02*
X146840540Y-90895163D01*
X147087263Y-90648440D01*
X147581842Y-91143019D01*
X147335119Y-91389742D01*
X147335119Y-91389742D01*
G37*
G36*
X147688941Y-91035920D02*
X147194362Y-90541341D01*
X147441085Y-90294618D01*
X147935664Y-90789197D01*
X147688941Y-91035920D01*
X147688941Y-91035920D01*
G37*
G36*
X148042763Y-90682098D02*
X147548184Y-90187519D01*
X147794907Y-89940796D01*
X148289486Y-90435375D01*
X148042763Y-90682098D01*
X148042763Y-90682098D01*
G37*
G36*
X148394789Y-90330072D02*
X147900210Y-89835493D01*
X148146933Y-89588770D01*
X148641512Y-90083349D01*
X148394789Y-90330072D01*
X148394789Y-90330072D01*
G37*
G36*
X150483596Y-88920171D02*
X150236873Y-88673448D01*
X150731452Y-88178869D01*
X150978175Y-88425592D01*
X150483596Y-88920171D01*
X150483596Y-88920171D01*
G37*
G36*
X150839214Y-89272197D02*
X150592491Y-89025474D01*
X151087070Y-88530895D01*
X151333793Y-88777618D01*
X150839214Y-89272197D01*
X150839214Y-89272197D01*
G37*
G36*
X151191240Y-89624223D02*
X150944517Y-89377500D01*
X151439096Y-88882921D01*
X151685819Y-89129644D01*
X151191240Y-89624223D01*
X151191240Y-89624223D01*
G37*
G36*
X151545062Y-89978046D02*
X151298339Y-89731323D01*
X151792918Y-89236744D01*
X152039641Y-89483467D01*
X151545062Y-89978046D01*
X151545062Y-89978046D01*
G37*
G36*
X151898884Y-90331868D02*
X151652161Y-90085145D01*
X152146740Y-89590566D01*
X152393463Y-89837289D01*
X151898884Y-90331868D01*
X151898884Y-90331868D01*
G37*
G36*
X152252707Y-90685690D02*
X152005984Y-90438967D01*
X152500563Y-89944388D01*
X152747286Y-90191111D01*
X152252707Y-90685690D01*
X152252707Y-90685690D01*
G37*
G36*
X152606529Y-91039512D02*
X152359806Y-90792789D01*
X152854385Y-90298210D01*
X153101108Y-90544933D01*
X152606529Y-91039512D01*
X152606529Y-91039512D01*
G37*
G36*
X152960351Y-91393334D02*
X152713628Y-91146611D01*
X153208207Y-90652032D01*
X153454930Y-90898755D01*
X152960351Y-91393334D01*
X152960351Y-91393334D01*
G37*
G36*
X153206411Y-92311116D02*
X152711832Y-91816537D01*
X152958555Y-91569814D01*
X153453134Y-92064393D01*
X153206411Y-92311116D01*
X153206411Y-92311116D01*
G37*
G36*
X152852589Y-92664938D02*
X152358010Y-92170359D01*
X152604733Y-91923636D01*
X153099312Y-92418215D01*
X152852589Y-92664938D01*
X152852589Y-92664938D01*
G37*
G36*
X152498767Y-93018760D02*
X152004188Y-92524181D01*
X152250911Y-92277458D01*
X152745490Y-92772037D01*
X152498767Y-93018760D01*
X152498767Y-93018760D01*
G37*
G36*
X152146740Y-93370786D02*
X151652161Y-92876207D01*
X151898884Y-92629484D01*
X152393463Y-93124063D01*
X152146740Y-93370786D01*
X152146740Y-93370786D01*
G37*
G36*
X151792918Y-93724608D02*
X151298339Y-93230029D01*
X151545062Y-92983306D01*
X152039641Y-93477885D01*
X151792918Y-93724608D01*
X151792918Y-93724608D01*
G37*
G36*
X151439096Y-94078431D02*
X150944517Y-93583852D01*
X151191240Y-93337129D01*
X151685819Y-93831708D01*
X151439096Y-94078431D01*
X151439096Y-94078431D01*
G37*
G36*
X151085274Y-94432253D02*
X150590695Y-93937674D01*
X150837418Y-93690951D01*
X151331997Y-94185530D01*
X151085274Y-94432253D01*
X151085274Y-94432253D01*
G37*
G36*
X150731452Y-94786075D02*
X150236873Y-94291496D01*
X150483596Y-94044773D01*
X150978175Y-94539352D01*
X150731452Y-94786075D01*
X150731452Y-94786075D01*
G37*
D11*
X137023435Y-92544529D03*
X139863103Y-92572534D03*
X138136897Y-94827466D03*
X140976565Y-94855471D03*
D12*
X158110000Y-90450000D03*
X158110000Y-92250000D03*
D11*
X160903629Y-91431066D03*
X162629834Y-93685997D03*
X159790166Y-93714003D03*
X161516371Y-95968934D03*
D13*
X143780000Y-96640000D03*
D14*
X146320000Y-96640000D03*
X148860000Y-96640000D03*
X151400000Y-96640000D03*
X153940000Y-96640000D03*
X156480000Y-96640000D03*
D15*
X156190000Y-90540040D03*
X156190000Y-92439960D03*
D10*
G36*
X138543910Y-100115644D02*
X137315182Y-100976008D01*
X136454818Y-99747280D01*
X137683546Y-98886916D01*
X138543910Y-100115644D01*
X138543910Y-100115644D01*
G37*
G36*
X134070014Y-93726258D02*
X132841286Y-94586622D01*
X131980922Y-93357894D01*
X133209650Y-92497530D01*
X134070014Y-93726258D01*
X134070014Y-93726258D01*
G37*
G36*
X162930660Y-100867465D02*
X161701932Y-100007101D01*
X162562296Y-98778373D01*
X163791024Y-99638737D01*
X162930660Y-100867465D01*
X162930660Y-100867465D01*
G37*
G36*
X167404556Y-94478079D02*
X166175828Y-93617715D01*
X167036192Y-92388987D01*
X168264920Y-93249351D01*
X167404556Y-94478079D01*
X167404556Y-94478079D01*
G37*
D16*
X157638360Y-94390000D03*
X155941640Y-94390000D03*
M02*
