G04 #@! TF.FileFunction,Legend,Top*
%FSLAX46Y46*%
G04 Gerber Fmt 4.6, Leading zero omitted, Abs format (unit mm)*
G04 Created by KiCad (PCBNEW (2015-02-18 BZR 5431)-product) date Sat 21 Feb 2015 10:23:12 PM CET*
%MOMM*%
G01*
G04 APERTURE LIST*
%ADD10C,0.100000*%
%ADD11C,0.200000*%
%ADD12C,0.002540*%
%ADD13C,0.187500*%
%ADD14R,1.650000X1.650000*%
%ADD15C,1.650000*%
%ADD16O,1.000000X1.200000*%
%ADD17C,0.762000*%
%ADD18R,0.762000X0.762000*%
%ADD19C,1.400000*%
%ADD20R,2.000000X0.600000*%
%ADD21R,1.498600X1.297940*%
%ADD22R,1.099820X0.998220*%
G04 APERTURE END LIST*
D10*
D11*
X136556067Y-101140184D02*
X135736914Y-101713760D01*
X136282935Y-100750111D02*
X135463783Y-101323688D01*
X135955177Y-100282024D02*
X135732909Y-100960848D01*
X135136025Y-100855601D02*
X135931870Y-100995930D01*
X135280279Y-100231405D02*
X135089086Y-99958353D01*
X135436227Y-99540887D02*
X135709359Y-99930959D01*
X134890207Y-100504536D01*
X134617075Y-100114463D01*
X134983678Y-99392708D02*
X134710547Y-99002635D01*
X135272348Y-99306843D02*
X134262004Y-99607369D01*
X134889963Y-98760742D01*
X134250067Y-97929896D02*
X134207135Y-97785561D01*
X134070568Y-97590524D01*
X133976935Y-97539823D01*
X133910614Y-97528129D01*
X133805287Y-97543748D01*
X133727272Y-97598374D01*
X133676571Y-97692008D01*
X133664877Y-97758328D01*
X133680495Y-97863656D01*
X133750741Y-98046999D01*
X133766360Y-98152326D01*
X133754666Y-98218647D01*
X133703965Y-98312280D01*
X133625951Y-98366906D01*
X133520623Y-98382525D01*
X133454303Y-98370831D01*
X133360669Y-98320130D01*
X133224103Y-98125093D01*
X133181171Y-97980759D01*
X133469679Y-96732365D02*
X133040599Y-97032810D01*
X132989897Y-97126443D01*
X133005516Y-97231771D01*
X133114770Y-97387801D01*
X133208403Y-97438502D01*
X133430671Y-96759678D02*
X133524305Y-96810379D01*
X133660871Y-97005416D01*
X133676490Y-97110744D01*
X133625789Y-97204377D01*
X133547775Y-97259003D01*
X133442447Y-97274622D01*
X133348814Y-97223921D01*
X133212247Y-97028884D01*
X133118614Y-96978183D01*
X133196547Y-96342293D02*
X132650446Y-96724677D01*
X132728460Y-96670051D02*
X132662140Y-96658357D01*
X132568506Y-96607656D01*
X132486566Y-96490633D01*
X132470947Y-96385306D01*
X132521648Y-96291672D01*
X132950729Y-95991227D01*
X132521648Y-96291672D02*
X132416321Y-96307291D01*
X132322687Y-96256590D01*
X132240748Y-96139568D01*
X132225129Y-96034241D01*
X132275830Y-95940607D01*
X132704910Y-95640162D01*
X131967617Y-95749496D02*
X131749112Y-95437439D01*
X131612627Y-95823667D02*
X132314757Y-95332030D01*
X132365459Y-95238396D01*
X132349840Y-95133069D01*
X132295213Y-95055054D01*
X132104021Y-94782003D02*
X131557919Y-95164388D01*
X131284869Y-95355580D02*
X131351189Y-95367274D01*
X131362883Y-95300953D01*
X131296563Y-95289259D01*
X131284869Y-95355580D01*
X131362883Y-95300953D01*
X131585071Y-94040866D02*
X130765919Y-94614442D01*
X131546063Y-94068179D02*
X131639697Y-94118880D01*
X131748950Y-94274910D01*
X131764569Y-94380237D01*
X131752875Y-94446557D01*
X131702174Y-94540191D01*
X131468130Y-94704070D01*
X131362802Y-94719689D01*
X131296482Y-94707995D01*
X131202848Y-94657294D01*
X131093595Y-94501264D01*
X131077976Y-94395937D01*
X162923183Y-100675309D02*
X162377081Y-100292925D01*
X162455096Y-100347551D02*
X162443402Y-100281231D01*
X162459021Y-100175903D01*
X162540961Y-100058881D01*
X162634594Y-100008180D01*
X162739922Y-100023799D01*
X163169002Y-100324244D01*
X162739922Y-100023799D02*
X162689220Y-99930165D01*
X162704839Y-99824838D01*
X162786779Y-99707816D01*
X162880412Y-99657115D01*
X162985740Y-99672734D01*
X163414820Y-99973179D01*
X163769891Y-99466085D02*
X163676257Y-99516787D01*
X163609937Y-99528481D01*
X163504609Y-99512862D01*
X163270565Y-99348982D01*
X163219864Y-99255349D01*
X163208170Y-99189028D01*
X163223789Y-99083701D01*
X163305729Y-98966679D01*
X163399362Y-98915977D01*
X163465683Y-98904283D01*
X163571010Y-98919902D01*
X163805054Y-99083782D01*
X163855756Y-99177415D01*
X163867450Y-99243735D01*
X163851831Y-99349063D01*
X163769891Y-99466085D01*
X164288841Y-98724948D02*
X164195207Y-98775649D01*
X164128887Y-98787343D01*
X164023559Y-98771724D01*
X163789515Y-98607845D01*
X163738814Y-98514211D01*
X163727120Y-98447891D01*
X163742739Y-98342563D01*
X163824679Y-98225541D01*
X163918313Y-98174840D01*
X163984633Y-98163146D01*
X164089961Y-98178765D01*
X164324005Y-98342644D01*
X164374706Y-98436277D01*
X164386400Y-98502598D01*
X164370781Y-98607925D01*
X164288841Y-98724948D01*
X164971670Y-97749766D02*
X164152518Y-97176190D01*
X164932663Y-97722453D02*
X164917044Y-97827781D01*
X164807791Y-97983810D01*
X164714158Y-98034511D01*
X164647837Y-98046205D01*
X164542510Y-98030586D01*
X164308466Y-97866707D01*
X164257764Y-97773074D01*
X164246070Y-97706753D01*
X164261689Y-97601426D01*
X164370942Y-97445396D01*
X164464576Y-97394695D01*
X164932744Y-97141189D02*
X165369755Y-96517073D01*
X166036883Y-96228484D02*
X165943250Y-96279186D01*
X165837922Y-96263567D01*
X165135792Y-95771930D01*
X166177375Y-95861800D02*
X166243695Y-95850106D01*
X166255389Y-95916426D01*
X166189069Y-95928120D01*
X166177375Y-95861800D01*
X166255389Y-95916426D01*
X167172343Y-94523859D02*
X167156724Y-94629187D01*
X167047470Y-94785216D01*
X166953837Y-94835918D01*
X166887517Y-94847612D01*
X166782189Y-94831993D01*
X166548145Y-94668113D01*
X166497444Y-94574480D01*
X166485750Y-94508159D01*
X166501369Y-94402832D01*
X166610622Y-94246802D01*
X166704255Y-94196101D01*
X166829127Y-93934745D02*
X167047632Y-93622687D01*
X166638016Y-93626531D02*
X167340146Y-94118168D01*
X167445474Y-94133787D01*
X167539107Y-94083086D01*
X167593734Y-94005072D01*
X167784926Y-93732020D02*
X167238825Y-93349636D01*
X167394853Y-93458888D02*
X167344152Y-93365255D01*
X167332458Y-93298935D01*
X167348077Y-93193607D01*
X167402704Y-93115592D01*
X168221937Y-93107904D02*
X168128304Y-93158606D01*
X168022976Y-93142986D01*
X167320846Y-92651349D01*
X164493544Y-99478669D02*
X165503888Y-99779195D01*
X164875929Y-98932567D01*
X165176373Y-98503488D02*
X165231000Y-98425472D01*
X165324633Y-98374771D01*
X165390954Y-98363077D01*
X165496281Y-98378696D01*
X165679623Y-98448942D01*
X165874660Y-98585508D01*
X166003376Y-98733768D01*
X166054077Y-98827401D01*
X166065771Y-98893721D01*
X166050152Y-98999049D01*
X165995525Y-99077064D01*
X165901892Y-99127765D01*
X165835571Y-99139459D01*
X165730244Y-99123840D01*
X165546902Y-99053595D01*
X165351865Y-98917029D01*
X165223149Y-98768769D01*
X165172448Y-98675136D01*
X165160754Y-98608815D01*
X165176373Y-98503488D01*
X166354522Y-98398322D02*
X166420842Y-98386628D01*
X166432536Y-98452948D01*
X166366216Y-98464642D01*
X166354522Y-98398322D01*
X166432536Y-98452948D01*
X166159647Y-97099227D02*
X165886515Y-97489300D01*
X166249274Y-97801438D01*
X166237580Y-97735118D01*
X166253199Y-97629790D01*
X166389765Y-97434754D01*
X166483399Y-97384052D01*
X166549719Y-97372358D01*
X166655048Y-97387978D01*
X166850084Y-97524544D01*
X166900785Y-97618177D01*
X166912479Y-97684497D01*
X166896860Y-97789825D01*
X166760294Y-97984862D01*
X166666660Y-98035563D01*
X166600340Y-98047257D01*
X167552376Y-96853651D02*
X167224617Y-97321738D01*
X167388496Y-97087695D02*
X166569344Y-96514119D01*
X166631740Y-96674073D01*
X166655128Y-96806713D01*
X166639509Y-96912041D01*
X167720179Y-96447960D02*
X167786500Y-96436266D01*
X167798194Y-96502586D01*
X167731874Y-96514280D01*
X167720179Y-96447960D01*
X167798194Y-96502586D01*
X168071325Y-96112514D02*
X167252173Y-95538938D01*
X167564231Y-95757443D02*
X167579850Y-95652116D01*
X167689103Y-95496086D01*
X167782736Y-95445385D01*
X167849057Y-95433691D01*
X167954384Y-95449310D01*
X168188428Y-95613189D01*
X168239130Y-95706822D01*
X168250824Y-95773143D01*
X168235205Y-95878470D01*
X168125952Y-96034500D01*
X168032318Y-96085201D01*
X145340533Y-89813527D02*
X145816724Y-89813527D01*
X145245295Y-90099241D02*
X145578628Y-89099241D01*
X145911962Y-90099241D01*
X146102438Y-89099241D02*
X146435771Y-90099241D01*
X146769105Y-89099241D01*
X147673867Y-90099241D02*
X147340533Y-89623050D01*
X147102438Y-90099241D02*
X147102438Y-89099241D01*
X147483391Y-89099241D01*
X147578629Y-89146860D01*
X147626248Y-89194479D01*
X147673867Y-89289717D01*
X147673867Y-89432574D01*
X147626248Y-89527812D01*
X147578629Y-89575431D01*
X147483391Y-89623050D01*
X147102438Y-89623050D01*
X145531010Y-91699241D02*
X145531010Y-90699241D01*
X145959581Y-91651622D02*
X146102438Y-91699241D01*
X146340534Y-91699241D01*
X146435772Y-91651622D01*
X146483391Y-91604003D01*
X146531010Y-91508765D01*
X146531010Y-91413527D01*
X146483391Y-91318289D01*
X146435772Y-91270670D01*
X146340534Y-91223050D01*
X146150057Y-91175431D01*
X146054819Y-91127812D01*
X146007200Y-91080193D01*
X145959581Y-90984955D01*
X145959581Y-90889717D01*
X146007200Y-90794479D01*
X146054819Y-90746860D01*
X146150057Y-90699241D01*
X146388153Y-90699241D01*
X146531010Y-90746860D01*
X146959581Y-91699241D02*
X146959581Y-90699241D01*
X147340534Y-90699241D01*
X147435772Y-90746860D01*
X147483391Y-90794479D01*
X147531010Y-90889717D01*
X147531010Y-91032574D01*
X147483391Y-91127812D01*
X147435772Y-91175431D01*
X147340534Y-91223050D01*
X146959581Y-91223050D01*
D10*
X137310039Y-90919419D02*
X137152226Y-90595853D01*
X136860642Y-91138604D02*
X136702829Y-90815038D01*
X137711189Y-91057546D02*
X137310039Y-90919419D01*
X137310039Y-90919419D02*
X136860642Y-91138604D01*
X136722515Y-91539754D02*
X136860642Y-91138604D01*
X137711189Y-91057546D02*
X137421864Y-90464341D01*
X138699862Y-90575337D02*
X138410537Y-89982133D01*
X136722515Y-91539754D02*
X136433190Y-90946550D01*
D11*
X138347416Y-97289336D02*
X135769794Y-92004427D01*
X135769794Y-92004427D02*
X139652584Y-90110664D01*
X139652584Y-90110664D02*
X142230206Y-95395573D01*
X142230206Y-95395573D02*
X138347416Y-97289336D01*
X139409704Y-97505541D02*
X139650808Y-97999878D01*
X139650808Y-97999878D02*
X141987673Y-96860113D01*
X141987673Y-96860113D02*
X141746568Y-96365776D01*
X136253432Y-91034224D02*
X136012327Y-90539887D01*
X136012327Y-90539887D02*
X138349192Y-89400122D01*
X138349192Y-89400122D02*
X138590296Y-89894459D01*
X138241272Y-98075424D02*
X135084999Y-91604106D01*
X135084999Y-91604106D02*
X139758728Y-89324576D01*
X139758728Y-89324576D02*
X142915001Y-95795894D01*
X142915001Y-95795894D02*
X138241272Y-98075424D01*
D10*
X162360684Y-90656396D02*
X162518498Y-90332830D01*
X161911287Y-90437210D02*
X162069101Y-90113645D01*
X162498811Y-91057546D02*
X162360684Y-90656396D01*
X162360684Y-90656396D02*
X161911287Y-90437210D01*
X161510138Y-90575337D02*
X161911287Y-90437210D01*
X162498811Y-91057546D02*
X162788136Y-90464341D01*
X163487485Y-91539754D02*
X163776810Y-90946550D01*
X161510138Y-90575337D02*
X161799463Y-89982133D01*
D11*
X157979794Y-95395573D02*
X160557416Y-90110664D01*
X160557416Y-90110664D02*
X164440206Y-92004427D01*
X164440206Y-92004427D02*
X161862584Y-97289336D01*
X161862584Y-97289336D02*
X157979794Y-95395573D01*
X158463432Y-96365776D02*
X158222327Y-96860113D01*
X158222327Y-96860113D02*
X160559192Y-97999878D01*
X160559192Y-97999878D02*
X160800296Y-97505541D01*
X161619704Y-89894459D02*
X161860808Y-89400122D01*
X161860808Y-89400122D02*
X164197673Y-90539887D01*
X164197673Y-90539887D02*
X163956568Y-91034224D01*
X157294999Y-95795894D02*
X160451272Y-89324576D01*
X160451272Y-89324576D02*
X165125001Y-91604106D01*
X165125001Y-91604106D02*
X161968728Y-98075424D01*
X161968728Y-98075424D02*
X157294999Y-95795894D01*
X150750000Y-89900000D02*
X150750000Y-93100000D01*
X149450000Y-93100000D02*
X149450000Y-89900000D01*
X149450000Y-89899800D02*
X150750000Y-89899800D01*
X149450000Y-93100200D02*
X150750000Y-93100200D01*
X154170000Y-89290000D02*
X154170000Y-93290000D01*
X154170000Y-89290000D02*
X156370000Y-89290000D01*
X156370000Y-89290000D02*
X156370000Y-93290000D01*
X156370000Y-93290000D02*
X154170000Y-93290000D01*
D12*
G36*
X152916420Y-95310640D02*
X152954520Y-95305560D01*
X152987540Y-95295400D01*
X153002780Y-95287780D01*
X153035800Y-95264920D01*
X153061200Y-95236980D01*
X153078980Y-95206500D01*
X153091680Y-95170940D01*
X153099300Y-95135380D01*
X153096760Y-95097280D01*
X153089140Y-95061720D01*
X153071360Y-95026160D01*
X153061200Y-95010920D01*
X153045960Y-94993140D01*
X153028180Y-94977900D01*
X153012940Y-94965200D01*
X153007860Y-94962660D01*
X152974840Y-94947420D01*
X152941820Y-94939800D01*
X152903720Y-94937260D01*
X152891020Y-94937260D01*
X152870700Y-94939800D01*
X152852920Y-94944880D01*
X152832600Y-94955040D01*
X152809740Y-94965200D01*
X152779260Y-94990600D01*
X152756400Y-95021080D01*
X152736080Y-95054100D01*
X152731000Y-95069340D01*
X152725920Y-95089660D01*
X152723380Y-95102360D01*
X152723380Y-95104900D01*
X152723380Y-95104900D01*
X152723380Y-95097280D01*
X152723380Y-95097280D01*
X152715760Y-95071880D01*
X152708140Y-95049020D01*
X152695440Y-95026160D01*
X152675120Y-94998220D01*
X152647180Y-94972820D01*
X152614160Y-94952500D01*
X152576060Y-94939800D01*
X152537960Y-94937260D01*
X152527800Y-94937260D01*
X152497320Y-94939800D01*
X152469380Y-94947420D01*
X152464300Y-94949960D01*
X152431280Y-94967740D01*
X152403340Y-94990600D01*
X152380480Y-95021080D01*
X152362700Y-95051560D01*
X152352540Y-95084580D01*
X152352540Y-95087120D01*
X152350000Y-95094740D01*
X152350000Y-95099820D01*
X152350000Y-95099820D01*
X152350000Y-95094740D01*
X152347460Y-95084580D01*
X152347460Y-95082040D01*
X152334760Y-95049020D01*
X152316980Y-95016000D01*
X152294120Y-94988060D01*
X152271260Y-94970280D01*
X152238240Y-94952500D01*
X152202680Y-94939800D01*
X152162040Y-94937260D01*
X152134100Y-94939800D01*
X152098540Y-94947420D01*
X152062980Y-94965200D01*
X152032500Y-94988060D01*
X152009640Y-95018540D01*
X152004560Y-95023620D01*
X151996940Y-95036320D01*
X151991860Y-95049020D01*
X151989320Y-95056640D01*
X151981700Y-95074420D01*
X151979160Y-95089660D01*
X151976620Y-95102360D01*
X151976620Y-95104900D01*
X151976620Y-95104900D01*
X151974080Y-95097280D01*
X151971540Y-95076960D01*
X151961380Y-95051560D01*
X151951220Y-95028700D01*
X151928360Y-94998220D01*
X151897880Y-94972820D01*
X151864860Y-94952500D01*
X151829300Y-94939800D01*
X151791200Y-94937260D01*
X151755640Y-94939800D01*
X151717540Y-94949960D01*
X151684520Y-94967740D01*
X151654040Y-94993140D01*
X151638800Y-95010920D01*
X151626100Y-95031240D01*
X151613400Y-95054100D01*
X151608320Y-95074420D01*
X151600700Y-95112520D01*
X151603240Y-95148080D01*
X151610860Y-95183640D01*
X151626100Y-95216660D01*
X151646420Y-95244600D01*
X151671820Y-95270000D01*
X151702300Y-95290320D01*
X151735320Y-95303020D01*
X151773420Y-95310640D01*
X151778500Y-95310640D01*
X151816600Y-95310640D01*
X151852160Y-95300480D01*
X151885180Y-95285240D01*
X151897880Y-95275080D01*
X151923280Y-95254760D01*
X151946140Y-95226820D01*
X151961380Y-95198880D01*
X151963920Y-95188720D01*
X151969000Y-95173480D01*
X151974080Y-95155700D01*
X151976620Y-95143000D01*
X151976620Y-95135380D01*
X151976620Y-95143000D01*
X151976620Y-95150620D01*
X151981700Y-95165860D01*
X151986780Y-95186180D01*
X151991860Y-95201420D01*
X152002020Y-95219200D01*
X152024880Y-95249680D01*
X152052820Y-95275080D01*
X152085840Y-95295400D01*
X152123940Y-95308100D01*
X152129020Y-95308100D01*
X152154420Y-95310640D01*
X152182360Y-95310640D01*
X152207760Y-95305560D01*
X152233160Y-95297940D01*
X152266180Y-95280160D01*
X152299200Y-95254760D01*
X152299200Y-95252220D01*
X152322060Y-95226820D01*
X152337300Y-95193800D01*
X152347460Y-95163320D01*
X152347460Y-95160780D01*
X152350000Y-95153160D01*
X152350000Y-95148080D01*
X152350000Y-95150620D01*
X152352540Y-95158240D01*
X152352540Y-95160780D01*
X152357620Y-95181100D01*
X152365240Y-95201420D01*
X152377940Y-95221740D01*
X152393180Y-95244600D01*
X152421120Y-95272540D01*
X152454140Y-95292860D01*
X152492240Y-95305560D01*
X152497320Y-95308100D01*
X152522720Y-95310640D01*
X152550660Y-95310640D01*
X152576060Y-95308100D01*
X152596380Y-95300480D01*
X152631940Y-95285240D01*
X152662420Y-95262380D01*
X152687820Y-95234440D01*
X152708140Y-95201420D01*
X152710680Y-95191260D01*
X152718300Y-95173480D01*
X152720840Y-95155700D01*
X152723380Y-95143000D01*
X152723380Y-95143000D01*
X152723380Y-95143000D01*
X152725920Y-95150620D01*
X152725920Y-95150620D01*
X152731000Y-95173480D01*
X152741160Y-95198880D01*
X152751320Y-95221740D01*
X152756400Y-95229360D01*
X152779260Y-95257300D01*
X152809740Y-95280160D01*
X152842760Y-95297940D01*
X152878320Y-95308100D01*
X152916420Y-95310640D01*
X152916420Y-95310640D01*
G37*
X152916420Y-95310640D02*
X152954520Y-95305560D01*
X152987540Y-95295400D01*
X153002780Y-95287780D01*
X153035800Y-95264920D01*
X153061200Y-95236980D01*
X153078980Y-95206500D01*
X153091680Y-95170940D01*
X153099300Y-95135380D01*
X153096760Y-95097280D01*
X153089140Y-95061720D01*
X153071360Y-95026160D01*
X153061200Y-95010920D01*
X153045960Y-94993140D01*
X153028180Y-94977900D01*
X153012940Y-94965200D01*
X153007860Y-94962660D01*
X152974840Y-94947420D01*
X152941820Y-94939800D01*
X152903720Y-94937260D01*
X152891020Y-94937260D01*
X152870700Y-94939800D01*
X152852920Y-94944880D01*
X152832600Y-94955040D01*
X152809740Y-94965200D01*
X152779260Y-94990600D01*
X152756400Y-95021080D01*
X152736080Y-95054100D01*
X152731000Y-95069340D01*
X152725920Y-95089660D01*
X152723380Y-95102360D01*
X152723380Y-95104900D01*
X152723380Y-95104900D01*
X152723380Y-95097280D01*
X152723380Y-95097280D01*
X152715760Y-95071880D01*
X152708140Y-95049020D01*
X152695440Y-95026160D01*
X152675120Y-94998220D01*
X152647180Y-94972820D01*
X152614160Y-94952500D01*
X152576060Y-94939800D01*
X152537960Y-94937260D01*
X152527800Y-94937260D01*
X152497320Y-94939800D01*
X152469380Y-94947420D01*
X152464300Y-94949960D01*
X152431280Y-94967740D01*
X152403340Y-94990600D01*
X152380480Y-95021080D01*
X152362700Y-95051560D01*
X152352540Y-95084580D01*
X152352540Y-95087120D01*
X152350000Y-95094740D01*
X152350000Y-95099820D01*
X152350000Y-95099820D01*
X152350000Y-95094740D01*
X152347460Y-95084580D01*
X152347460Y-95082040D01*
X152334760Y-95049020D01*
X152316980Y-95016000D01*
X152294120Y-94988060D01*
X152271260Y-94970280D01*
X152238240Y-94952500D01*
X152202680Y-94939800D01*
X152162040Y-94937260D01*
X152134100Y-94939800D01*
X152098540Y-94947420D01*
X152062980Y-94965200D01*
X152032500Y-94988060D01*
X152009640Y-95018540D01*
X152004560Y-95023620D01*
X151996940Y-95036320D01*
X151991860Y-95049020D01*
X151989320Y-95056640D01*
X151981700Y-95074420D01*
X151979160Y-95089660D01*
X151976620Y-95102360D01*
X151976620Y-95104900D01*
X151976620Y-95104900D01*
X151974080Y-95097280D01*
X151971540Y-95076960D01*
X151961380Y-95051560D01*
X151951220Y-95028700D01*
X151928360Y-94998220D01*
X151897880Y-94972820D01*
X151864860Y-94952500D01*
X151829300Y-94939800D01*
X151791200Y-94937260D01*
X151755640Y-94939800D01*
X151717540Y-94949960D01*
X151684520Y-94967740D01*
X151654040Y-94993140D01*
X151638800Y-95010920D01*
X151626100Y-95031240D01*
X151613400Y-95054100D01*
X151608320Y-95074420D01*
X151600700Y-95112520D01*
X151603240Y-95148080D01*
X151610860Y-95183640D01*
X151626100Y-95216660D01*
X151646420Y-95244600D01*
X151671820Y-95270000D01*
X151702300Y-95290320D01*
X151735320Y-95303020D01*
X151773420Y-95310640D01*
X151778500Y-95310640D01*
X151816600Y-95310640D01*
X151852160Y-95300480D01*
X151885180Y-95285240D01*
X151897880Y-95275080D01*
X151923280Y-95254760D01*
X151946140Y-95226820D01*
X151961380Y-95198880D01*
X151963920Y-95188720D01*
X151969000Y-95173480D01*
X151974080Y-95155700D01*
X151976620Y-95143000D01*
X151976620Y-95135380D01*
X151976620Y-95143000D01*
X151976620Y-95150620D01*
X151981700Y-95165860D01*
X151986780Y-95186180D01*
X151991860Y-95201420D01*
X152002020Y-95219200D01*
X152024880Y-95249680D01*
X152052820Y-95275080D01*
X152085840Y-95295400D01*
X152123940Y-95308100D01*
X152129020Y-95308100D01*
X152154420Y-95310640D01*
X152182360Y-95310640D01*
X152207760Y-95305560D01*
X152233160Y-95297940D01*
X152266180Y-95280160D01*
X152299200Y-95254760D01*
X152299200Y-95252220D01*
X152322060Y-95226820D01*
X152337300Y-95193800D01*
X152347460Y-95163320D01*
X152347460Y-95160780D01*
X152350000Y-95153160D01*
X152350000Y-95148080D01*
X152350000Y-95150620D01*
X152352540Y-95158240D01*
X152352540Y-95160780D01*
X152357620Y-95181100D01*
X152365240Y-95201420D01*
X152377940Y-95221740D01*
X152393180Y-95244600D01*
X152421120Y-95272540D01*
X152454140Y-95292860D01*
X152492240Y-95305560D01*
X152497320Y-95308100D01*
X152522720Y-95310640D01*
X152550660Y-95310640D01*
X152576060Y-95308100D01*
X152596380Y-95300480D01*
X152631940Y-95285240D01*
X152662420Y-95262380D01*
X152687820Y-95234440D01*
X152708140Y-95201420D01*
X152710680Y-95191260D01*
X152718300Y-95173480D01*
X152720840Y-95155700D01*
X152723380Y-95143000D01*
X152723380Y-95143000D01*
X152723380Y-95143000D01*
X152725920Y-95150620D01*
X152725920Y-95150620D01*
X152731000Y-95173480D01*
X152741160Y-95198880D01*
X152751320Y-95221740D01*
X152756400Y-95229360D01*
X152779260Y-95257300D01*
X152809740Y-95280160D01*
X152842760Y-95297940D01*
X152878320Y-95308100D01*
X152916420Y-95310640D01*
G36*
X151402580Y-94937260D02*
X151425440Y-94934720D01*
X151445760Y-94934720D01*
X151471160Y-94927100D01*
X151506720Y-94911860D01*
X151537200Y-94889000D01*
X151562600Y-94861060D01*
X151582920Y-94828040D01*
X151595620Y-94792480D01*
X151600700Y-94754380D01*
X151598160Y-94716280D01*
X151588000Y-94680720D01*
X151572760Y-94647700D01*
X151547360Y-94617220D01*
X151516880Y-94591820D01*
X151509260Y-94586740D01*
X151471160Y-94571500D01*
X151435600Y-94561340D01*
X151394960Y-94561340D01*
X151356860Y-94568960D01*
X151326380Y-94581660D01*
X151293360Y-94604520D01*
X151267960Y-94632460D01*
X151245100Y-94665480D01*
X151232400Y-94703580D01*
X151227320Y-94721360D01*
X151227320Y-94746760D01*
X151227320Y-94769620D01*
X151229860Y-94789940D01*
X151232400Y-94797560D01*
X151247640Y-94835660D01*
X151267960Y-94868680D01*
X151298440Y-94896620D01*
X151331460Y-94916940D01*
X151346700Y-94924560D01*
X151369560Y-94932180D01*
X151389880Y-94934720D01*
X151402580Y-94937260D01*
X151402580Y-94937260D01*
G37*
X151402580Y-94937260D02*
X151425440Y-94934720D01*
X151445760Y-94934720D01*
X151471160Y-94927100D01*
X151506720Y-94911860D01*
X151537200Y-94889000D01*
X151562600Y-94861060D01*
X151582920Y-94828040D01*
X151595620Y-94792480D01*
X151600700Y-94754380D01*
X151598160Y-94716280D01*
X151588000Y-94680720D01*
X151572760Y-94647700D01*
X151547360Y-94617220D01*
X151516880Y-94591820D01*
X151509260Y-94586740D01*
X151471160Y-94571500D01*
X151435600Y-94561340D01*
X151394960Y-94561340D01*
X151356860Y-94568960D01*
X151326380Y-94581660D01*
X151293360Y-94604520D01*
X151267960Y-94632460D01*
X151245100Y-94665480D01*
X151232400Y-94703580D01*
X151227320Y-94721360D01*
X151227320Y-94746760D01*
X151227320Y-94769620D01*
X151229860Y-94789940D01*
X151232400Y-94797560D01*
X151247640Y-94835660D01*
X151267960Y-94868680D01*
X151298440Y-94896620D01*
X151331460Y-94916940D01*
X151346700Y-94924560D01*
X151369560Y-94932180D01*
X151389880Y-94934720D01*
X151402580Y-94937260D01*
G36*
X153289800Y-94937260D02*
X153327900Y-94932180D01*
X153366000Y-94919480D01*
X153401560Y-94896620D01*
X153409180Y-94891540D01*
X153434580Y-94863600D01*
X153454900Y-94830580D01*
X153467600Y-94795020D01*
X153472680Y-94774700D01*
X153472680Y-94751840D01*
X153472680Y-94726440D01*
X153470140Y-94708660D01*
X153467600Y-94698500D01*
X153452360Y-94660400D01*
X153432040Y-94629920D01*
X153404100Y-94601980D01*
X153371080Y-94581660D01*
X153335520Y-94568960D01*
X153297420Y-94561340D01*
X153282180Y-94561340D01*
X153244080Y-94566420D01*
X153208520Y-94576580D01*
X153178040Y-94596900D01*
X153150100Y-94619760D01*
X153127240Y-94650240D01*
X153112000Y-94683260D01*
X153101840Y-94718820D01*
X153099300Y-94756920D01*
X153101840Y-94779780D01*
X153106920Y-94800100D01*
X153114540Y-94822960D01*
X153129780Y-94850900D01*
X153152640Y-94881380D01*
X153183120Y-94904240D01*
X153216140Y-94922020D01*
X153251700Y-94932180D01*
X153289800Y-94937260D01*
X153289800Y-94937260D01*
G37*
X153289800Y-94937260D02*
X153327900Y-94932180D01*
X153366000Y-94919480D01*
X153401560Y-94896620D01*
X153409180Y-94891540D01*
X153434580Y-94863600D01*
X153454900Y-94830580D01*
X153467600Y-94795020D01*
X153472680Y-94774700D01*
X153472680Y-94751840D01*
X153472680Y-94726440D01*
X153470140Y-94708660D01*
X153467600Y-94698500D01*
X153452360Y-94660400D01*
X153432040Y-94629920D01*
X153404100Y-94601980D01*
X153371080Y-94581660D01*
X153335520Y-94568960D01*
X153297420Y-94561340D01*
X153282180Y-94561340D01*
X153244080Y-94566420D01*
X153208520Y-94576580D01*
X153178040Y-94596900D01*
X153150100Y-94619760D01*
X153127240Y-94650240D01*
X153112000Y-94683260D01*
X153101840Y-94718820D01*
X153099300Y-94756920D01*
X153101840Y-94779780D01*
X153106920Y-94800100D01*
X153114540Y-94822960D01*
X153129780Y-94850900D01*
X153152640Y-94881380D01*
X153183120Y-94904240D01*
X153216140Y-94922020D01*
X153251700Y-94932180D01*
X153289800Y-94937260D01*
G36*
X151029200Y-94561340D02*
X151054600Y-94561340D01*
X151077460Y-94556260D01*
X151105400Y-94548640D01*
X151138420Y-94530860D01*
X151171440Y-94505460D01*
X151191760Y-94482600D01*
X151209540Y-94449580D01*
X151222240Y-94414020D01*
X151224780Y-94398780D01*
X151224780Y-94375920D01*
X151224780Y-94353060D01*
X151222240Y-94335280D01*
X151219700Y-94322580D01*
X151204460Y-94287020D01*
X151184140Y-94254000D01*
X151156200Y-94226060D01*
X151120640Y-94205740D01*
X151107940Y-94200660D01*
X151085080Y-94190500D01*
X151059680Y-94187960D01*
X151031740Y-94187960D01*
X151013960Y-94187960D01*
X150993640Y-94190500D01*
X150975860Y-94195580D01*
X150955540Y-94205740D01*
X150942840Y-94213360D01*
X150912360Y-94236220D01*
X150886960Y-94264160D01*
X150866640Y-94299720D01*
X150853940Y-94337820D01*
X150853940Y-94345440D01*
X150851400Y-94368300D01*
X150851400Y-94391160D01*
X150853940Y-94411480D01*
X150856480Y-94424180D01*
X150871720Y-94459740D01*
X150894580Y-94492760D01*
X150919980Y-94520700D01*
X150955540Y-94541020D01*
X150991100Y-94556260D01*
X151003800Y-94558800D01*
X151029200Y-94561340D01*
X151029200Y-94561340D01*
G37*
X151029200Y-94561340D02*
X151054600Y-94561340D01*
X151077460Y-94556260D01*
X151105400Y-94548640D01*
X151138420Y-94530860D01*
X151171440Y-94505460D01*
X151191760Y-94482600D01*
X151209540Y-94449580D01*
X151222240Y-94414020D01*
X151224780Y-94398780D01*
X151224780Y-94375920D01*
X151224780Y-94353060D01*
X151222240Y-94335280D01*
X151219700Y-94322580D01*
X151204460Y-94287020D01*
X151184140Y-94254000D01*
X151156200Y-94226060D01*
X151120640Y-94205740D01*
X151107940Y-94200660D01*
X151085080Y-94190500D01*
X151059680Y-94187960D01*
X151031740Y-94187960D01*
X151013960Y-94187960D01*
X150993640Y-94190500D01*
X150975860Y-94195580D01*
X150955540Y-94205740D01*
X150942840Y-94213360D01*
X150912360Y-94236220D01*
X150886960Y-94264160D01*
X150866640Y-94299720D01*
X150853940Y-94337820D01*
X150853940Y-94345440D01*
X150851400Y-94368300D01*
X150851400Y-94391160D01*
X150853940Y-94411480D01*
X150856480Y-94424180D01*
X150871720Y-94459740D01*
X150894580Y-94492760D01*
X150919980Y-94520700D01*
X150955540Y-94541020D01*
X150991100Y-94556260D01*
X151003800Y-94558800D01*
X151029200Y-94561340D01*
G36*
X152532880Y-94561340D02*
X152568440Y-94558800D01*
X152604000Y-94548640D01*
X152626860Y-94538480D01*
X152657340Y-94515620D01*
X152685280Y-94487680D01*
X152705600Y-94454660D01*
X152718300Y-94419100D01*
X152720840Y-94411480D01*
X152723380Y-94381000D01*
X152723380Y-94353060D01*
X152715760Y-94320040D01*
X152700520Y-94281940D01*
X152677660Y-94251460D01*
X152649720Y-94226060D01*
X152616700Y-94205740D01*
X152578600Y-94190500D01*
X152555740Y-94185420D01*
X152568440Y-94182880D01*
X152570980Y-94182880D01*
X152596380Y-94175260D01*
X152624320Y-94162560D01*
X152652260Y-94147320D01*
X152654800Y-94142240D01*
X152682740Y-94116840D01*
X152703060Y-94083820D01*
X152715760Y-94048260D01*
X152723380Y-94012700D01*
X152723380Y-93977140D01*
X152713220Y-93941580D01*
X152697980Y-93906020D01*
X152697980Y-93903480D01*
X152672580Y-93873000D01*
X152644640Y-93847600D01*
X152614160Y-93829820D01*
X152578600Y-93819660D01*
X152543040Y-93814580D01*
X152507480Y-93817120D01*
X152471920Y-93824740D01*
X152438900Y-93842520D01*
X152405880Y-93865380D01*
X152390640Y-93883160D01*
X152372860Y-93911100D01*
X152357620Y-93939040D01*
X152352540Y-93966980D01*
X152350000Y-93974600D01*
X152350000Y-93977140D01*
X152350000Y-93974600D01*
X152347460Y-93966980D01*
X152342380Y-93941580D01*
X152329680Y-93916180D01*
X152314440Y-93890780D01*
X152304280Y-93878080D01*
X152276340Y-93852680D01*
X152243320Y-93832360D01*
X152207760Y-93819660D01*
X152169660Y-93814580D01*
X152131560Y-93817120D01*
X152108700Y-93822200D01*
X152073140Y-93837440D01*
X152042660Y-93857760D01*
X152014720Y-93885700D01*
X151994400Y-93918720D01*
X151981700Y-93956820D01*
X151979160Y-93974600D01*
X151976620Y-94012700D01*
X151984240Y-94048260D01*
X151996940Y-94083820D01*
X152017260Y-94116840D01*
X152045200Y-94142240D01*
X152078220Y-94165100D01*
X152093460Y-94172720D01*
X152111240Y-94177800D01*
X152126480Y-94182880D01*
X152139180Y-94185420D01*
X152139180Y-94185420D01*
X152139180Y-94185420D01*
X152131560Y-94187960D01*
X152113780Y-94193040D01*
X152088380Y-94203200D01*
X152065520Y-94213360D01*
X152055360Y-94220980D01*
X152029960Y-94243840D01*
X152007100Y-94269240D01*
X151991860Y-94297180D01*
X151981700Y-94330200D01*
X151976620Y-94363220D01*
X151976620Y-94396240D01*
X151979160Y-94401320D01*
X151989320Y-94441960D01*
X152007100Y-94474980D01*
X152032500Y-94505460D01*
X152052820Y-94525780D01*
X152085840Y-94546100D01*
X152123940Y-94556260D01*
X152136640Y-94558800D01*
X152156960Y-94561340D01*
X152179820Y-94558800D01*
X152200140Y-94558800D01*
X152215380Y-94553720D01*
X152228080Y-94551180D01*
X152263640Y-94533400D01*
X152294120Y-94508000D01*
X152319520Y-94477520D01*
X152329680Y-94462280D01*
X152339840Y-94436880D01*
X152347460Y-94411480D01*
X152347460Y-94411480D01*
X152350000Y-94401320D01*
X152350000Y-94398780D01*
X152350000Y-94398780D01*
X152350000Y-94347980D01*
X152350000Y-94347980D01*
X152350000Y-94345440D01*
X152347460Y-94335280D01*
X152347460Y-94332740D01*
X152334760Y-94299720D01*
X152316980Y-94266700D01*
X152294120Y-94238760D01*
X152266180Y-94215900D01*
X152233160Y-94200660D01*
X152230620Y-94198120D01*
X152215380Y-94193040D01*
X152200140Y-94190500D01*
X152182360Y-94185420D01*
X152197600Y-94182880D01*
X152220460Y-94177800D01*
X152253480Y-94162560D01*
X152283960Y-94142240D01*
X152311900Y-94114300D01*
X152332220Y-94083820D01*
X152337300Y-94068580D01*
X152344920Y-94048260D01*
X152347460Y-94033020D01*
X152350000Y-94025400D01*
X152350000Y-94022860D01*
X152350000Y-94025400D01*
X152352540Y-94033020D01*
X152355080Y-94045720D01*
X152360160Y-94066040D01*
X152367780Y-94083820D01*
X152380480Y-94104140D01*
X152405880Y-94132080D01*
X152433820Y-94154940D01*
X152466840Y-94172720D01*
X152502400Y-94182880D01*
X152517640Y-94185420D01*
X152502400Y-94190500D01*
X152499860Y-94190500D01*
X152482080Y-94193040D01*
X152466840Y-94200660D01*
X152464300Y-94200660D01*
X152431280Y-94218440D01*
X152403340Y-94241300D01*
X152380480Y-94269240D01*
X152362700Y-94302260D01*
X152352540Y-94335280D01*
X152352540Y-94335280D01*
X152350000Y-94345440D01*
X152350000Y-94347980D01*
X152350000Y-94398780D01*
X152350000Y-94398780D01*
X152350000Y-94403860D01*
X152352540Y-94411480D01*
X152360160Y-94436880D01*
X152375400Y-94469900D01*
X152398260Y-94500380D01*
X152426200Y-94525780D01*
X152459220Y-94543560D01*
X152459220Y-94543560D01*
X152494780Y-94556260D01*
X152532880Y-94561340D01*
X152532880Y-94561340D01*
G37*
X152532880Y-94561340D02*
X152568440Y-94558800D01*
X152604000Y-94548640D01*
X152626860Y-94538480D01*
X152657340Y-94515620D01*
X152685280Y-94487680D01*
X152705600Y-94454660D01*
X152718300Y-94419100D01*
X152720840Y-94411480D01*
X152723380Y-94381000D01*
X152723380Y-94353060D01*
X152715760Y-94320040D01*
X152700520Y-94281940D01*
X152677660Y-94251460D01*
X152649720Y-94226060D01*
X152616700Y-94205740D01*
X152578600Y-94190500D01*
X152555740Y-94185420D01*
X152568440Y-94182880D01*
X152570980Y-94182880D01*
X152596380Y-94175260D01*
X152624320Y-94162560D01*
X152652260Y-94147320D01*
X152654800Y-94142240D01*
X152682740Y-94116840D01*
X152703060Y-94083820D01*
X152715760Y-94048260D01*
X152723380Y-94012700D01*
X152723380Y-93977140D01*
X152713220Y-93941580D01*
X152697980Y-93906020D01*
X152697980Y-93903480D01*
X152672580Y-93873000D01*
X152644640Y-93847600D01*
X152614160Y-93829820D01*
X152578600Y-93819660D01*
X152543040Y-93814580D01*
X152507480Y-93817120D01*
X152471920Y-93824740D01*
X152438900Y-93842520D01*
X152405880Y-93865380D01*
X152390640Y-93883160D01*
X152372860Y-93911100D01*
X152357620Y-93939040D01*
X152352540Y-93966980D01*
X152350000Y-93974600D01*
X152350000Y-93977140D01*
X152350000Y-93974600D01*
X152347460Y-93966980D01*
X152342380Y-93941580D01*
X152329680Y-93916180D01*
X152314440Y-93890780D01*
X152304280Y-93878080D01*
X152276340Y-93852680D01*
X152243320Y-93832360D01*
X152207760Y-93819660D01*
X152169660Y-93814580D01*
X152131560Y-93817120D01*
X152108700Y-93822200D01*
X152073140Y-93837440D01*
X152042660Y-93857760D01*
X152014720Y-93885700D01*
X151994400Y-93918720D01*
X151981700Y-93956820D01*
X151979160Y-93974600D01*
X151976620Y-94012700D01*
X151984240Y-94048260D01*
X151996940Y-94083820D01*
X152017260Y-94116840D01*
X152045200Y-94142240D01*
X152078220Y-94165100D01*
X152093460Y-94172720D01*
X152111240Y-94177800D01*
X152126480Y-94182880D01*
X152139180Y-94185420D01*
X152139180Y-94185420D01*
X152139180Y-94185420D01*
X152131560Y-94187960D01*
X152113780Y-94193040D01*
X152088380Y-94203200D01*
X152065520Y-94213360D01*
X152055360Y-94220980D01*
X152029960Y-94243840D01*
X152007100Y-94269240D01*
X151991860Y-94297180D01*
X151981700Y-94330200D01*
X151976620Y-94363220D01*
X151976620Y-94396240D01*
X151979160Y-94401320D01*
X151989320Y-94441960D01*
X152007100Y-94474980D01*
X152032500Y-94505460D01*
X152052820Y-94525780D01*
X152085840Y-94546100D01*
X152123940Y-94556260D01*
X152136640Y-94558800D01*
X152156960Y-94561340D01*
X152179820Y-94558800D01*
X152200140Y-94558800D01*
X152215380Y-94553720D01*
X152228080Y-94551180D01*
X152263640Y-94533400D01*
X152294120Y-94508000D01*
X152319520Y-94477520D01*
X152329680Y-94462280D01*
X152339840Y-94436880D01*
X152347460Y-94411480D01*
X152347460Y-94411480D01*
X152350000Y-94401320D01*
X152350000Y-94398780D01*
X152350000Y-94398780D01*
X152350000Y-94347980D01*
X152350000Y-94347980D01*
X152350000Y-94345440D01*
X152347460Y-94335280D01*
X152347460Y-94332740D01*
X152334760Y-94299720D01*
X152316980Y-94266700D01*
X152294120Y-94238760D01*
X152266180Y-94215900D01*
X152233160Y-94200660D01*
X152230620Y-94198120D01*
X152215380Y-94193040D01*
X152200140Y-94190500D01*
X152182360Y-94185420D01*
X152197600Y-94182880D01*
X152220460Y-94177800D01*
X152253480Y-94162560D01*
X152283960Y-94142240D01*
X152311900Y-94114300D01*
X152332220Y-94083820D01*
X152337300Y-94068580D01*
X152344920Y-94048260D01*
X152347460Y-94033020D01*
X152350000Y-94025400D01*
X152350000Y-94022860D01*
X152350000Y-94025400D01*
X152352540Y-94033020D01*
X152355080Y-94045720D01*
X152360160Y-94066040D01*
X152367780Y-94083820D01*
X152380480Y-94104140D01*
X152405880Y-94132080D01*
X152433820Y-94154940D01*
X152466840Y-94172720D01*
X152502400Y-94182880D01*
X152517640Y-94185420D01*
X152502400Y-94190500D01*
X152499860Y-94190500D01*
X152482080Y-94193040D01*
X152466840Y-94200660D01*
X152464300Y-94200660D01*
X152431280Y-94218440D01*
X152403340Y-94241300D01*
X152380480Y-94269240D01*
X152362700Y-94302260D01*
X152352540Y-94335280D01*
X152352540Y-94335280D01*
X152350000Y-94345440D01*
X152350000Y-94347980D01*
X152350000Y-94398780D01*
X152350000Y-94398780D01*
X152350000Y-94403860D01*
X152352540Y-94411480D01*
X152360160Y-94436880D01*
X152375400Y-94469900D01*
X152398260Y-94500380D01*
X152426200Y-94525780D01*
X152459220Y-94543560D01*
X152459220Y-94543560D01*
X152494780Y-94556260D01*
X152532880Y-94561340D01*
G36*
X153647940Y-94561340D02*
X153678420Y-94561340D01*
X153706360Y-94556260D01*
X153724140Y-94551180D01*
X153759700Y-94533400D01*
X153790180Y-94510540D01*
X153815580Y-94482600D01*
X153833360Y-94449580D01*
X153843520Y-94414020D01*
X153848600Y-94373380D01*
X153848600Y-94358140D01*
X153840980Y-94320040D01*
X153825740Y-94284480D01*
X153802880Y-94248920D01*
X153795260Y-94243840D01*
X153769860Y-94220980D01*
X153739380Y-94203200D01*
X153706360Y-94190500D01*
X153703820Y-94190500D01*
X153675880Y-94187960D01*
X153645400Y-94187960D01*
X153617460Y-94190500D01*
X153607300Y-94193040D01*
X153571740Y-94208280D01*
X153541260Y-94231140D01*
X153515860Y-94256540D01*
X153495540Y-94287020D01*
X153480300Y-94320040D01*
X153475220Y-94358140D01*
X153475220Y-94396240D01*
X153482840Y-94434340D01*
X153495540Y-94462280D01*
X153518400Y-94492760D01*
X153546340Y-94520700D01*
X153576820Y-94541020D01*
X153614920Y-94556260D01*
X153617460Y-94556260D01*
X153647940Y-94561340D01*
X153647940Y-94561340D01*
G37*
X153647940Y-94561340D02*
X153678420Y-94561340D01*
X153706360Y-94556260D01*
X153724140Y-94551180D01*
X153759700Y-94533400D01*
X153790180Y-94510540D01*
X153815580Y-94482600D01*
X153833360Y-94449580D01*
X153843520Y-94414020D01*
X153848600Y-94373380D01*
X153848600Y-94358140D01*
X153840980Y-94320040D01*
X153825740Y-94284480D01*
X153802880Y-94248920D01*
X153795260Y-94243840D01*
X153769860Y-94220980D01*
X153739380Y-94203200D01*
X153706360Y-94190500D01*
X153703820Y-94190500D01*
X153675880Y-94187960D01*
X153645400Y-94187960D01*
X153617460Y-94190500D01*
X153607300Y-94193040D01*
X153571740Y-94208280D01*
X153541260Y-94231140D01*
X153515860Y-94256540D01*
X153495540Y-94287020D01*
X153480300Y-94320040D01*
X153475220Y-94358140D01*
X153475220Y-94396240D01*
X153482840Y-94434340D01*
X153495540Y-94462280D01*
X153518400Y-94492760D01*
X153546340Y-94520700D01*
X153576820Y-94541020D01*
X153614920Y-94556260D01*
X153617460Y-94556260D01*
X153647940Y-94561340D01*
G36*
X151793740Y-93438660D02*
X151831840Y-93433580D01*
X151867400Y-93420880D01*
X151885180Y-93413260D01*
X151900420Y-93400560D01*
X151918200Y-93385320D01*
X151938520Y-93365000D01*
X151958840Y-93331980D01*
X151971540Y-93296420D01*
X151974080Y-93286260D01*
X151976620Y-93260860D01*
X151976620Y-93235460D01*
X151971540Y-93212600D01*
X151961380Y-93179580D01*
X151946140Y-93146560D01*
X151923280Y-93118620D01*
X151918200Y-93116080D01*
X151900420Y-93100840D01*
X151880100Y-93088140D01*
X151862320Y-93077980D01*
X151854700Y-93075440D01*
X151839460Y-93070360D01*
X151824220Y-93067820D01*
X151814060Y-93065280D01*
X151806440Y-93065280D01*
X151814060Y-93062740D01*
X151824220Y-93060200D01*
X151834380Y-93057660D01*
X151849620Y-93055120D01*
X151877560Y-93039880D01*
X151905500Y-93024640D01*
X151925820Y-93004320D01*
X151930900Y-92999240D01*
X151953760Y-92966220D01*
X151969000Y-92930660D01*
X151976620Y-92895100D01*
X151976620Y-92857000D01*
X151974080Y-92846840D01*
X151963920Y-92808740D01*
X151946140Y-92775720D01*
X151920740Y-92742700D01*
X151897880Y-92724920D01*
X151864860Y-92704600D01*
X151829300Y-92691900D01*
X151821680Y-92691900D01*
X151796280Y-92689360D01*
X151770880Y-92689360D01*
X151745480Y-92694440D01*
X151725160Y-92699520D01*
X151689600Y-92717300D01*
X151659120Y-92740160D01*
X151636260Y-92768100D01*
X151615940Y-92801120D01*
X151605780Y-92836680D01*
X151603240Y-92841760D01*
X151600700Y-92849380D01*
X151600700Y-92854460D01*
X151598160Y-92849380D01*
X151598160Y-92841760D01*
X151595620Y-92826520D01*
X151588000Y-92808740D01*
X151582920Y-92793500D01*
X151575300Y-92783340D01*
X151552440Y-92750320D01*
X151524500Y-92724920D01*
X151491480Y-92704600D01*
X151455920Y-92694440D01*
X151415280Y-92689360D01*
X151384800Y-92691900D01*
X151349240Y-92699520D01*
X151316220Y-92717300D01*
X151295900Y-92730000D01*
X151267960Y-92757940D01*
X151247640Y-92788420D01*
X151232400Y-92823980D01*
X151227320Y-92859540D01*
X151227320Y-92897640D01*
X151234940Y-92933200D01*
X151250180Y-92968760D01*
X151273040Y-92999240D01*
X151300980Y-93027180D01*
X151336540Y-93047500D01*
X151374640Y-93060200D01*
X151394960Y-93065280D01*
X151382260Y-93065280D01*
X151374640Y-93067820D01*
X151344160Y-93075440D01*
X151316220Y-93090680D01*
X151288280Y-93111000D01*
X151265420Y-93133860D01*
X151252720Y-93154180D01*
X151240020Y-93179580D01*
X151232400Y-93204980D01*
X151227320Y-93225300D01*
X151227320Y-93248160D01*
X151227320Y-93273560D01*
X151229860Y-93291340D01*
X151237480Y-93314200D01*
X151255260Y-93349760D01*
X151278120Y-93380240D01*
X151308600Y-93405640D01*
X151341620Y-93425960D01*
X151382260Y-93436120D01*
X151392420Y-93438660D01*
X151415280Y-93438660D01*
X151438140Y-93436120D01*
X151461000Y-93433580D01*
X151476240Y-93428500D01*
X151511800Y-93410720D01*
X151542280Y-93387860D01*
X151567680Y-93359920D01*
X151585460Y-93326900D01*
X151598160Y-93288800D01*
X151598160Y-93286260D01*
X151600700Y-93276100D01*
X151600700Y-93278640D01*
X151600700Y-93225300D01*
X151600700Y-93225300D01*
X151598160Y-93217680D01*
X151598160Y-93215140D01*
X151590540Y-93189740D01*
X151580380Y-93164340D01*
X151565140Y-93138940D01*
X151552440Y-93126240D01*
X151524500Y-93098300D01*
X151488940Y-93080520D01*
X151450840Y-93067820D01*
X151433060Y-93062740D01*
X151445760Y-93060200D01*
X151458460Y-93057660D01*
X151468620Y-93055120D01*
X151476240Y-93052580D01*
X151511800Y-93037340D01*
X151542280Y-93011940D01*
X151567680Y-92984000D01*
X151585460Y-92950980D01*
X151598160Y-92915420D01*
X151598160Y-92907800D01*
X151600700Y-92902720D01*
X151603240Y-92905260D01*
X151605780Y-92915420D01*
X151605780Y-92917960D01*
X151610860Y-92938280D01*
X151621020Y-92958600D01*
X151631180Y-92978920D01*
X151641340Y-92991620D01*
X151659120Y-93009400D01*
X151676900Y-93027180D01*
X151694680Y-93039880D01*
X151697220Y-93039880D01*
X151725160Y-93052580D01*
X151755640Y-93060200D01*
X151768340Y-93062740D01*
X151753100Y-93067820D01*
X151720080Y-93075440D01*
X151687060Y-93093220D01*
X151656580Y-93116080D01*
X151633720Y-93144020D01*
X151628640Y-93154180D01*
X151618480Y-93171960D01*
X151610860Y-93192280D01*
X151605780Y-93210060D01*
X151603240Y-93222760D01*
X151603240Y-93222760D01*
X151600700Y-93225300D01*
X151600700Y-93278640D01*
X151603240Y-93278640D01*
X151603240Y-93286260D01*
X151605780Y-93296420D01*
X151610860Y-93309120D01*
X151618480Y-93326900D01*
X151636260Y-93359920D01*
X151661660Y-93387860D01*
X151689600Y-93410720D01*
X151722620Y-93425960D01*
X151758180Y-93436120D01*
X151793740Y-93438660D01*
X151793740Y-93438660D01*
G37*
X151793740Y-93438660D02*
X151831840Y-93433580D01*
X151867400Y-93420880D01*
X151885180Y-93413260D01*
X151900420Y-93400560D01*
X151918200Y-93385320D01*
X151938520Y-93365000D01*
X151958840Y-93331980D01*
X151971540Y-93296420D01*
X151974080Y-93286260D01*
X151976620Y-93260860D01*
X151976620Y-93235460D01*
X151971540Y-93212600D01*
X151961380Y-93179580D01*
X151946140Y-93146560D01*
X151923280Y-93118620D01*
X151918200Y-93116080D01*
X151900420Y-93100840D01*
X151880100Y-93088140D01*
X151862320Y-93077980D01*
X151854700Y-93075440D01*
X151839460Y-93070360D01*
X151824220Y-93067820D01*
X151814060Y-93065280D01*
X151806440Y-93065280D01*
X151814060Y-93062740D01*
X151824220Y-93060200D01*
X151834380Y-93057660D01*
X151849620Y-93055120D01*
X151877560Y-93039880D01*
X151905500Y-93024640D01*
X151925820Y-93004320D01*
X151930900Y-92999240D01*
X151953760Y-92966220D01*
X151969000Y-92930660D01*
X151976620Y-92895100D01*
X151976620Y-92857000D01*
X151974080Y-92846840D01*
X151963920Y-92808740D01*
X151946140Y-92775720D01*
X151920740Y-92742700D01*
X151897880Y-92724920D01*
X151864860Y-92704600D01*
X151829300Y-92691900D01*
X151821680Y-92691900D01*
X151796280Y-92689360D01*
X151770880Y-92689360D01*
X151745480Y-92694440D01*
X151725160Y-92699520D01*
X151689600Y-92717300D01*
X151659120Y-92740160D01*
X151636260Y-92768100D01*
X151615940Y-92801120D01*
X151605780Y-92836680D01*
X151603240Y-92841760D01*
X151600700Y-92849380D01*
X151600700Y-92854460D01*
X151598160Y-92849380D01*
X151598160Y-92841760D01*
X151595620Y-92826520D01*
X151588000Y-92808740D01*
X151582920Y-92793500D01*
X151575300Y-92783340D01*
X151552440Y-92750320D01*
X151524500Y-92724920D01*
X151491480Y-92704600D01*
X151455920Y-92694440D01*
X151415280Y-92689360D01*
X151384800Y-92691900D01*
X151349240Y-92699520D01*
X151316220Y-92717300D01*
X151295900Y-92730000D01*
X151267960Y-92757940D01*
X151247640Y-92788420D01*
X151232400Y-92823980D01*
X151227320Y-92859540D01*
X151227320Y-92897640D01*
X151234940Y-92933200D01*
X151250180Y-92968760D01*
X151273040Y-92999240D01*
X151300980Y-93027180D01*
X151336540Y-93047500D01*
X151374640Y-93060200D01*
X151394960Y-93065280D01*
X151382260Y-93065280D01*
X151374640Y-93067820D01*
X151344160Y-93075440D01*
X151316220Y-93090680D01*
X151288280Y-93111000D01*
X151265420Y-93133860D01*
X151252720Y-93154180D01*
X151240020Y-93179580D01*
X151232400Y-93204980D01*
X151227320Y-93225300D01*
X151227320Y-93248160D01*
X151227320Y-93273560D01*
X151229860Y-93291340D01*
X151237480Y-93314200D01*
X151255260Y-93349760D01*
X151278120Y-93380240D01*
X151308600Y-93405640D01*
X151341620Y-93425960D01*
X151382260Y-93436120D01*
X151392420Y-93438660D01*
X151415280Y-93438660D01*
X151438140Y-93436120D01*
X151461000Y-93433580D01*
X151476240Y-93428500D01*
X151511800Y-93410720D01*
X151542280Y-93387860D01*
X151567680Y-93359920D01*
X151585460Y-93326900D01*
X151598160Y-93288800D01*
X151598160Y-93286260D01*
X151600700Y-93276100D01*
X151600700Y-93278640D01*
X151600700Y-93225300D01*
X151600700Y-93225300D01*
X151598160Y-93217680D01*
X151598160Y-93215140D01*
X151590540Y-93189740D01*
X151580380Y-93164340D01*
X151565140Y-93138940D01*
X151552440Y-93126240D01*
X151524500Y-93098300D01*
X151488940Y-93080520D01*
X151450840Y-93067820D01*
X151433060Y-93062740D01*
X151445760Y-93060200D01*
X151458460Y-93057660D01*
X151468620Y-93055120D01*
X151476240Y-93052580D01*
X151511800Y-93037340D01*
X151542280Y-93011940D01*
X151567680Y-92984000D01*
X151585460Y-92950980D01*
X151598160Y-92915420D01*
X151598160Y-92907800D01*
X151600700Y-92902720D01*
X151603240Y-92905260D01*
X151605780Y-92915420D01*
X151605780Y-92917960D01*
X151610860Y-92938280D01*
X151621020Y-92958600D01*
X151631180Y-92978920D01*
X151641340Y-92991620D01*
X151659120Y-93009400D01*
X151676900Y-93027180D01*
X151694680Y-93039880D01*
X151697220Y-93039880D01*
X151725160Y-93052580D01*
X151755640Y-93060200D01*
X151768340Y-93062740D01*
X151753100Y-93067820D01*
X151720080Y-93075440D01*
X151687060Y-93093220D01*
X151656580Y-93116080D01*
X151633720Y-93144020D01*
X151628640Y-93154180D01*
X151618480Y-93171960D01*
X151610860Y-93192280D01*
X151605780Y-93210060D01*
X151603240Y-93222760D01*
X151603240Y-93222760D01*
X151600700Y-93225300D01*
X151600700Y-93278640D01*
X151603240Y-93278640D01*
X151603240Y-93286260D01*
X151605780Y-93296420D01*
X151610860Y-93309120D01*
X151618480Y-93326900D01*
X151636260Y-93359920D01*
X151661660Y-93387860D01*
X151689600Y-93410720D01*
X151722620Y-93425960D01*
X151758180Y-93436120D01*
X151793740Y-93438660D01*
G36*
X152921500Y-93438660D02*
X152957060Y-93433580D01*
X152992620Y-93420880D01*
X153025640Y-93400560D01*
X153051040Y-93375160D01*
X153073900Y-93344680D01*
X153089140Y-93309120D01*
X153094220Y-93296420D01*
X153096760Y-93286260D01*
X153096760Y-93283720D01*
X153099300Y-93276100D01*
X153099300Y-93276100D01*
X153099300Y-93225300D01*
X153096760Y-93220220D01*
X153094220Y-93207520D01*
X153086600Y-93184660D01*
X153071360Y-93151640D01*
X153048500Y-93121160D01*
X153018020Y-93098300D01*
X152985000Y-93077980D01*
X152949440Y-93067820D01*
X152931660Y-93062740D01*
X152944360Y-93060200D01*
X152944360Y-93060200D01*
X152974840Y-93052580D01*
X153005320Y-93039880D01*
X153015480Y-93032260D01*
X153035800Y-93014480D01*
X153053580Y-92996700D01*
X153068820Y-92978920D01*
X153076440Y-92963680D01*
X153089140Y-92938280D01*
X153094220Y-92917960D01*
X153096760Y-92907800D01*
X153099300Y-92902720D01*
X153099300Y-92905260D01*
X153101840Y-92915420D01*
X153109460Y-92940820D01*
X153127240Y-92976380D01*
X153152640Y-93006860D01*
X153180580Y-93029720D01*
X153213600Y-93050040D01*
X153254240Y-93060200D01*
X153266940Y-93062740D01*
X153249160Y-93067820D01*
X153231380Y-93072900D01*
X153195820Y-93088140D01*
X153162800Y-93111000D01*
X153137400Y-93138940D01*
X153127240Y-93149100D01*
X153119620Y-93166880D01*
X153109460Y-93187200D01*
X153104380Y-93199900D01*
X153101840Y-93215140D01*
X153101840Y-93215140D01*
X153099300Y-93222760D01*
X153099300Y-93225300D01*
X153099300Y-93276100D01*
X153099300Y-93278640D01*
X153101840Y-93288800D01*
X153104380Y-93301500D01*
X153117080Y-93329440D01*
X153129780Y-93354840D01*
X153142480Y-93370080D01*
X153170420Y-93398020D01*
X153203440Y-93418340D01*
X153241540Y-93433580D01*
X153256780Y-93436120D01*
X153282180Y-93438660D01*
X153310120Y-93436120D01*
X153332980Y-93433580D01*
X153335520Y-93433580D01*
X153373620Y-93418340D01*
X153406640Y-93395480D01*
X153432040Y-93367540D01*
X153454900Y-93334520D01*
X153467600Y-93296420D01*
X153472680Y-93281180D01*
X153472680Y-93253240D01*
X153472680Y-93227840D01*
X153467600Y-93204980D01*
X153462520Y-93184660D01*
X153449820Y-93159260D01*
X153434580Y-93133860D01*
X153416800Y-93116080D01*
X153393940Y-93098300D01*
X153368540Y-93083060D01*
X153360920Y-93077980D01*
X153343140Y-93072900D01*
X153325360Y-93067820D01*
X153312660Y-93065280D01*
X153310120Y-93065280D01*
X153315200Y-93062740D01*
X153325360Y-93060200D01*
X153348220Y-93052580D01*
X153371080Y-93042420D01*
X153391400Y-93032260D01*
X153396480Y-93027180D01*
X153421880Y-93006860D01*
X153442200Y-92978920D01*
X153457440Y-92950980D01*
X153465060Y-92938280D01*
X153472680Y-92900180D01*
X153472680Y-92862080D01*
X153467600Y-92823980D01*
X153465060Y-92816360D01*
X153447280Y-92780800D01*
X153424420Y-92750320D01*
X153396480Y-92724920D01*
X153363460Y-92704600D01*
X153325360Y-92691900D01*
X153320280Y-92691900D01*
X153294880Y-92689360D01*
X153266940Y-92689360D01*
X153244080Y-92694440D01*
X153236460Y-92694440D01*
X153200900Y-92709680D01*
X153167880Y-92730000D01*
X153139940Y-92760480D01*
X153117080Y-92793500D01*
X153112000Y-92803660D01*
X153106920Y-92821440D01*
X153101840Y-92836680D01*
X153101840Y-92849380D01*
X153101840Y-92851920D01*
X153099300Y-92851920D01*
X153096760Y-92846840D01*
X153094220Y-92836680D01*
X153089140Y-92811280D01*
X153071360Y-92778260D01*
X153048500Y-92750320D01*
X153020560Y-92724920D01*
X152987540Y-92704600D01*
X152987540Y-92704600D01*
X152954520Y-92694440D01*
X152916420Y-92689360D01*
X152878320Y-92691900D01*
X152842760Y-92702060D01*
X152822440Y-92712220D01*
X152789420Y-92732540D01*
X152764020Y-92760480D01*
X152743700Y-92793500D01*
X152728460Y-92831600D01*
X152728460Y-92839220D01*
X152723380Y-92869700D01*
X152725920Y-92897640D01*
X152733540Y-92933200D01*
X152748780Y-92968760D01*
X152771640Y-92999240D01*
X152799580Y-93027180D01*
X152832600Y-93047500D01*
X152870700Y-93060200D01*
X152878320Y-93062740D01*
X152885940Y-93065280D01*
X152885940Y-93065280D01*
X152875780Y-93065280D01*
X152852920Y-93072900D01*
X152830060Y-93083060D01*
X152807200Y-93095760D01*
X152786880Y-93111000D01*
X152761480Y-93138940D01*
X152741160Y-93174500D01*
X152738620Y-93179580D01*
X152725920Y-93215140D01*
X152723380Y-93253240D01*
X152728460Y-93293880D01*
X152741160Y-93329440D01*
X152748780Y-93347220D01*
X152761480Y-93362460D01*
X152776720Y-93380240D01*
X152776720Y-93382780D01*
X152807200Y-93408180D01*
X152842760Y-93425960D01*
X152878320Y-93436120D01*
X152883400Y-93436120D01*
X152921500Y-93438660D01*
X152921500Y-93438660D01*
G37*
X152921500Y-93438660D02*
X152957060Y-93433580D01*
X152992620Y-93420880D01*
X153025640Y-93400560D01*
X153051040Y-93375160D01*
X153073900Y-93344680D01*
X153089140Y-93309120D01*
X153094220Y-93296420D01*
X153096760Y-93286260D01*
X153096760Y-93283720D01*
X153099300Y-93276100D01*
X153099300Y-93276100D01*
X153099300Y-93225300D01*
X153096760Y-93220220D01*
X153094220Y-93207520D01*
X153086600Y-93184660D01*
X153071360Y-93151640D01*
X153048500Y-93121160D01*
X153018020Y-93098300D01*
X152985000Y-93077980D01*
X152949440Y-93067820D01*
X152931660Y-93062740D01*
X152944360Y-93060200D01*
X152944360Y-93060200D01*
X152974840Y-93052580D01*
X153005320Y-93039880D01*
X153015480Y-93032260D01*
X153035800Y-93014480D01*
X153053580Y-92996700D01*
X153068820Y-92978920D01*
X153076440Y-92963680D01*
X153089140Y-92938280D01*
X153094220Y-92917960D01*
X153096760Y-92907800D01*
X153099300Y-92902720D01*
X153099300Y-92905260D01*
X153101840Y-92915420D01*
X153109460Y-92940820D01*
X153127240Y-92976380D01*
X153152640Y-93006860D01*
X153180580Y-93029720D01*
X153213600Y-93050040D01*
X153254240Y-93060200D01*
X153266940Y-93062740D01*
X153249160Y-93067820D01*
X153231380Y-93072900D01*
X153195820Y-93088140D01*
X153162800Y-93111000D01*
X153137400Y-93138940D01*
X153127240Y-93149100D01*
X153119620Y-93166880D01*
X153109460Y-93187200D01*
X153104380Y-93199900D01*
X153101840Y-93215140D01*
X153101840Y-93215140D01*
X153099300Y-93222760D01*
X153099300Y-93225300D01*
X153099300Y-93276100D01*
X153099300Y-93278640D01*
X153101840Y-93288800D01*
X153104380Y-93301500D01*
X153117080Y-93329440D01*
X153129780Y-93354840D01*
X153142480Y-93370080D01*
X153170420Y-93398020D01*
X153203440Y-93418340D01*
X153241540Y-93433580D01*
X153256780Y-93436120D01*
X153282180Y-93438660D01*
X153310120Y-93436120D01*
X153332980Y-93433580D01*
X153335520Y-93433580D01*
X153373620Y-93418340D01*
X153406640Y-93395480D01*
X153432040Y-93367540D01*
X153454900Y-93334520D01*
X153467600Y-93296420D01*
X153472680Y-93281180D01*
X153472680Y-93253240D01*
X153472680Y-93227840D01*
X153467600Y-93204980D01*
X153462520Y-93184660D01*
X153449820Y-93159260D01*
X153434580Y-93133860D01*
X153416800Y-93116080D01*
X153393940Y-93098300D01*
X153368540Y-93083060D01*
X153360920Y-93077980D01*
X153343140Y-93072900D01*
X153325360Y-93067820D01*
X153312660Y-93065280D01*
X153310120Y-93065280D01*
X153315200Y-93062740D01*
X153325360Y-93060200D01*
X153348220Y-93052580D01*
X153371080Y-93042420D01*
X153391400Y-93032260D01*
X153396480Y-93027180D01*
X153421880Y-93006860D01*
X153442200Y-92978920D01*
X153457440Y-92950980D01*
X153465060Y-92938280D01*
X153472680Y-92900180D01*
X153472680Y-92862080D01*
X153467600Y-92823980D01*
X153465060Y-92816360D01*
X153447280Y-92780800D01*
X153424420Y-92750320D01*
X153396480Y-92724920D01*
X153363460Y-92704600D01*
X153325360Y-92691900D01*
X153320280Y-92691900D01*
X153294880Y-92689360D01*
X153266940Y-92689360D01*
X153244080Y-92694440D01*
X153236460Y-92694440D01*
X153200900Y-92709680D01*
X153167880Y-92730000D01*
X153139940Y-92760480D01*
X153117080Y-92793500D01*
X153112000Y-92803660D01*
X153106920Y-92821440D01*
X153101840Y-92836680D01*
X153101840Y-92849380D01*
X153101840Y-92851920D01*
X153099300Y-92851920D01*
X153096760Y-92846840D01*
X153094220Y-92836680D01*
X153089140Y-92811280D01*
X153071360Y-92778260D01*
X153048500Y-92750320D01*
X153020560Y-92724920D01*
X152987540Y-92704600D01*
X152987540Y-92704600D01*
X152954520Y-92694440D01*
X152916420Y-92689360D01*
X152878320Y-92691900D01*
X152842760Y-92702060D01*
X152822440Y-92712220D01*
X152789420Y-92732540D01*
X152764020Y-92760480D01*
X152743700Y-92793500D01*
X152728460Y-92831600D01*
X152728460Y-92839220D01*
X152723380Y-92869700D01*
X152725920Y-92897640D01*
X152733540Y-92933200D01*
X152748780Y-92968760D01*
X152771640Y-92999240D01*
X152799580Y-93027180D01*
X152832600Y-93047500D01*
X152870700Y-93060200D01*
X152878320Y-93062740D01*
X152885940Y-93065280D01*
X152885940Y-93065280D01*
X152875780Y-93065280D01*
X152852920Y-93072900D01*
X152830060Y-93083060D01*
X152807200Y-93095760D01*
X152786880Y-93111000D01*
X152761480Y-93138940D01*
X152741160Y-93174500D01*
X152738620Y-93179580D01*
X152725920Y-93215140D01*
X152723380Y-93253240D01*
X152728460Y-93293880D01*
X152741160Y-93329440D01*
X152748780Y-93347220D01*
X152761480Y-93362460D01*
X152776720Y-93380240D01*
X152776720Y-93382780D01*
X152807200Y-93408180D01*
X152842760Y-93425960D01*
X152878320Y-93436120D01*
X152883400Y-93436120D01*
X152921500Y-93438660D01*
G36*
X146990680Y-95346200D02*
X147008460Y-95338580D01*
X147041480Y-95315720D01*
X147092280Y-95282700D01*
X147150700Y-95244600D01*
X147211660Y-95203960D01*
X147259920Y-95170940D01*
X147295480Y-95148080D01*
X147308180Y-95140460D01*
X147315800Y-95143000D01*
X147343740Y-95158240D01*
X147384380Y-95178560D01*
X147409780Y-95191260D01*
X147447880Y-95206500D01*
X147465660Y-95211580D01*
X147468200Y-95206500D01*
X147483440Y-95176020D01*
X147503760Y-95127760D01*
X147531700Y-95061720D01*
X147564720Y-94985520D01*
X147600280Y-94904240D01*
X147633300Y-94820420D01*
X147666320Y-94741680D01*
X147696800Y-94668020D01*
X147719660Y-94609600D01*
X147734900Y-94568960D01*
X147742520Y-94551180D01*
X147739980Y-94548640D01*
X147722200Y-94530860D01*
X147689180Y-94505460D01*
X147618060Y-94447040D01*
X147546940Y-94360680D01*
X147503760Y-94261620D01*
X147491060Y-94149860D01*
X147501220Y-94048260D01*
X147541860Y-93951740D01*
X147610440Y-93862840D01*
X147694260Y-93796800D01*
X147790780Y-93756160D01*
X147900000Y-93743460D01*
X148004140Y-93753620D01*
X148103200Y-93794260D01*
X148192100Y-93860300D01*
X148230200Y-93903480D01*
X148281000Y-93994920D01*
X148311480Y-94088900D01*
X148314020Y-94111760D01*
X148308940Y-94218440D01*
X148278460Y-94320040D01*
X148222580Y-94408940D01*
X148146380Y-94482600D01*
X148136220Y-94490220D01*
X148100660Y-94518160D01*
X148075260Y-94535940D01*
X148057480Y-94551180D01*
X148192100Y-94873760D01*
X148212420Y-94924560D01*
X148250520Y-95013460D01*
X148281000Y-95089660D01*
X148308940Y-95150620D01*
X148326720Y-95191260D01*
X148334340Y-95206500D01*
X148334340Y-95206500D01*
X148347040Y-95209040D01*
X148369900Y-95201420D01*
X148415620Y-95178560D01*
X148446100Y-95163320D01*
X148479120Y-95148080D01*
X148494360Y-95140460D01*
X148509600Y-95148080D01*
X148542620Y-95168400D01*
X148588340Y-95201420D01*
X148646760Y-95239520D01*
X148702640Y-95277620D01*
X148753440Y-95310640D01*
X148789000Y-95336040D01*
X148806780Y-95343660D01*
X148809320Y-95343660D01*
X148827100Y-95336040D01*
X148855040Y-95310640D01*
X148898220Y-95270000D01*
X148961720Y-95209040D01*
X148971880Y-95198880D01*
X149022680Y-95148080D01*
X149063320Y-95102360D01*
X149091260Y-95071880D01*
X149101420Y-95059180D01*
X149101420Y-95059180D01*
X149091260Y-95041400D01*
X149068400Y-95003300D01*
X149035380Y-94952500D01*
X148994740Y-94891540D01*
X148888060Y-94736600D01*
X148946480Y-94591820D01*
X148964260Y-94546100D01*
X148987120Y-94490220D01*
X149004900Y-94452120D01*
X149012520Y-94434340D01*
X149030300Y-94429260D01*
X149068400Y-94419100D01*
X149126820Y-94408940D01*
X149197940Y-94396240D01*
X149263980Y-94383540D01*
X149322400Y-94370840D01*
X149365580Y-94363220D01*
X149385900Y-94360680D01*
X149390980Y-94355600D01*
X149393520Y-94347980D01*
X149396060Y-94327660D01*
X149398600Y-94289560D01*
X149398600Y-94233680D01*
X149398600Y-94149860D01*
X149398600Y-94142240D01*
X149398600Y-94063500D01*
X149396060Y-94000000D01*
X149393520Y-93961900D01*
X149390980Y-93944120D01*
X149390980Y-93944120D01*
X149373200Y-93939040D01*
X149330020Y-93931420D01*
X149271600Y-93918720D01*
X149200480Y-93906020D01*
X149195400Y-93906020D01*
X149124280Y-93890780D01*
X149065860Y-93878080D01*
X149022680Y-93870460D01*
X149004900Y-93862840D01*
X149002360Y-93857760D01*
X148987120Y-93829820D01*
X148966800Y-93786640D01*
X148943940Y-93733300D01*
X148921080Y-93677420D01*
X148900760Y-93626620D01*
X148888060Y-93591060D01*
X148882980Y-93573280D01*
X148882980Y-93573280D01*
X148893140Y-93555500D01*
X148918540Y-93519940D01*
X148954100Y-93469140D01*
X148994740Y-93408180D01*
X148997280Y-93403100D01*
X149037920Y-93342140D01*
X149070940Y-93291340D01*
X149093800Y-93255780D01*
X149101420Y-93240540D01*
X149101420Y-93238000D01*
X149088720Y-93220220D01*
X149058240Y-93187200D01*
X149012520Y-93141480D01*
X148961720Y-93088140D01*
X148943940Y-93072900D01*
X148885520Y-93014480D01*
X148844880Y-92978920D01*
X148819480Y-92958600D01*
X148809320Y-92953520D01*
X148806780Y-92953520D01*
X148789000Y-92963680D01*
X148750900Y-92989080D01*
X148700100Y-93024640D01*
X148639140Y-93065280D01*
X148636600Y-93067820D01*
X148575640Y-93108460D01*
X148524840Y-93144020D01*
X148489280Y-93166880D01*
X148474040Y-93174500D01*
X148471500Y-93174500D01*
X148448640Y-93169420D01*
X148405460Y-93154180D01*
X148352120Y-93133860D01*
X148296240Y-93111000D01*
X148245440Y-93090680D01*
X148209880Y-93072900D01*
X148192100Y-93062740D01*
X148189560Y-93062740D01*
X148184480Y-93039880D01*
X148174320Y-92994160D01*
X148161620Y-92933200D01*
X148146380Y-92859540D01*
X148143840Y-92849380D01*
X148131140Y-92775720D01*
X148120980Y-92717300D01*
X148110820Y-92676660D01*
X148108280Y-92658880D01*
X148098120Y-92658880D01*
X148062560Y-92656340D01*
X148009220Y-92653800D01*
X147943180Y-92653800D01*
X147877140Y-92653800D01*
X147811100Y-92653800D01*
X147755220Y-92656340D01*
X147714580Y-92658880D01*
X147696800Y-92663960D01*
X147696800Y-92663960D01*
X147691720Y-92686820D01*
X147681560Y-92730000D01*
X147668860Y-92793500D01*
X147653620Y-92867160D01*
X147651080Y-92879860D01*
X147638380Y-92950980D01*
X147625680Y-93009400D01*
X147618060Y-93050040D01*
X147612980Y-93065280D01*
X147607900Y-93067820D01*
X147577420Y-93083060D01*
X147529160Y-93100840D01*
X147470740Y-93126240D01*
X147333580Y-93182120D01*
X147165940Y-93065280D01*
X147150700Y-93055120D01*
X147089740Y-93014480D01*
X147038940Y-92981460D01*
X147003380Y-92958600D01*
X146990680Y-92950980D01*
X146988140Y-92950980D01*
X146972900Y-92966220D01*
X146939880Y-92996700D01*
X146894160Y-93042420D01*
X146840820Y-93093220D01*
X146800180Y-93133860D01*
X146754460Y-93179580D01*
X146726520Y-93212600D01*
X146708740Y-93232920D01*
X146703660Y-93245620D01*
X146706200Y-93253240D01*
X146716360Y-93271020D01*
X146741760Y-93306580D01*
X146774780Y-93359920D01*
X146815420Y-93418340D01*
X146850980Y-93469140D01*
X146886540Y-93525020D01*
X146909400Y-93565660D01*
X146919560Y-93583440D01*
X146917020Y-93593600D01*
X146904320Y-93626620D01*
X146884000Y-93674880D01*
X146858600Y-93735840D01*
X146800180Y-93867920D01*
X146713820Y-93885700D01*
X146660480Y-93895860D01*
X146586820Y-93908560D01*
X146515700Y-93923800D01*
X146403940Y-93944120D01*
X146401400Y-94347980D01*
X146419180Y-94355600D01*
X146434420Y-94360680D01*
X146475060Y-94370840D01*
X146533480Y-94381000D01*
X146602060Y-94393700D01*
X146663020Y-94406400D01*
X146721440Y-94416560D01*
X146764620Y-94424180D01*
X146782400Y-94429260D01*
X146787480Y-94434340D01*
X146802720Y-94464820D01*
X146823040Y-94510540D01*
X146845900Y-94563880D01*
X146871300Y-94622300D01*
X146891620Y-94673100D01*
X146906860Y-94713740D01*
X146911940Y-94734060D01*
X146904320Y-94749300D01*
X146881460Y-94784860D01*
X146848440Y-94835660D01*
X146807800Y-94894080D01*
X146767160Y-94952500D01*
X146734140Y-95003300D01*
X146708740Y-95038860D01*
X146701120Y-95056640D01*
X146706200Y-95066800D01*
X146729060Y-95094740D01*
X146772240Y-95140460D01*
X146838280Y-95206500D01*
X146850980Y-95216660D01*
X146901780Y-95267460D01*
X146947500Y-95308100D01*
X146977980Y-95336040D01*
X146990680Y-95346200D01*
X146990680Y-95346200D01*
G37*
X146990680Y-95346200D02*
X147008460Y-95338580D01*
X147041480Y-95315720D01*
X147092280Y-95282700D01*
X147150700Y-95244600D01*
X147211660Y-95203960D01*
X147259920Y-95170940D01*
X147295480Y-95148080D01*
X147308180Y-95140460D01*
X147315800Y-95143000D01*
X147343740Y-95158240D01*
X147384380Y-95178560D01*
X147409780Y-95191260D01*
X147447880Y-95206500D01*
X147465660Y-95211580D01*
X147468200Y-95206500D01*
X147483440Y-95176020D01*
X147503760Y-95127760D01*
X147531700Y-95061720D01*
X147564720Y-94985520D01*
X147600280Y-94904240D01*
X147633300Y-94820420D01*
X147666320Y-94741680D01*
X147696800Y-94668020D01*
X147719660Y-94609600D01*
X147734900Y-94568960D01*
X147742520Y-94551180D01*
X147739980Y-94548640D01*
X147722200Y-94530860D01*
X147689180Y-94505460D01*
X147618060Y-94447040D01*
X147546940Y-94360680D01*
X147503760Y-94261620D01*
X147491060Y-94149860D01*
X147501220Y-94048260D01*
X147541860Y-93951740D01*
X147610440Y-93862840D01*
X147694260Y-93796800D01*
X147790780Y-93756160D01*
X147900000Y-93743460D01*
X148004140Y-93753620D01*
X148103200Y-93794260D01*
X148192100Y-93860300D01*
X148230200Y-93903480D01*
X148281000Y-93994920D01*
X148311480Y-94088900D01*
X148314020Y-94111760D01*
X148308940Y-94218440D01*
X148278460Y-94320040D01*
X148222580Y-94408940D01*
X148146380Y-94482600D01*
X148136220Y-94490220D01*
X148100660Y-94518160D01*
X148075260Y-94535940D01*
X148057480Y-94551180D01*
X148192100Y-94873760D01*
X148212420Y-94924560D01*
X148250520Y-95013460D01*
X148281000Y-95089660D01*
X148308940Y-95150620D01*
X148326720Y-95191260D01*
X148334340Y-95206500D01*
X148334340Y-95206500D01*
X148347040Y-95209040D01*
X148369900Y-95201420D01*
X148415620Y-95178560D01*
X148446100Y-95163320D01*
X148479120Y-95148080D01*
X148494360Y-95140460D01*
X148509600Y-95148080D01*
X148542620Y-95168400D01*
X148588340Y-95201420D01*
X148646760Y-95239520D01*
X148702640Y-95277620D01*
X148753440Y-95310640D01*
X148789000Y-95336040D01*
X148806780Y-95343660D01*
X148809320Y-95343660D01*
X148827100Y-95336040D01*
X148855040Y-95310640D01*
X148898220Y-95270000D01*
X148961720Y-95209040D01*
X148971880Y-95198880D01*
X149022680Y-95148080D01*
X149063320Y-95102360D01*
X149091260Y-95071880D01*
X149101420Y-95059180D01*
X149101420Y-95059180D01*
X149091260Y-95041400D01*
X149068400Y-95003300D01*
X149035380Y-94952500D01*
X148994740Y-94891540D01*
X148888060Y-94736600D01*
X148946480Y-94591820D01*
X148964260Y-94546100D01*
X148987120Y-94490220D01*
X149004900Y-94452120D01*
X149012520Y-94434340D01*
X149030300Y-94429260D01*
X149068400Y-94419100D01*
X149126820Y-94408940D01*
X149197940Y-94396240D01*
X149263980Y-94383540D01*
X149322400Y-94370840D01*
X149365580Y-94363220D01*
X149385900Y-94360680D01*
X149390980Y-94355600D01*
X149393520Y-94347980D01*
X149396060Y-94327660D01*
X149398600Y-94289560D01*
X149398600Y-94233680D01*
X149398600Y-94149860D01*
X149398600Y-94142240D01*
X149398600Y-94063500D01*
X149396060Y-94000000D01*
X149393520Y-93961900D01*
X149390980Y-93944120D01*
X149390980Y-93944120D01*
X149373200Y-93939040D01*
X149330020Y-93931420D01*
X149271600Y-93918720D01*
X149200480Y-93906020D01*
X149195400Y-93906020D01*
X149124280Y-93890780D01*
X149065860Y-93878080D01*
X149022680Y-93870460D01*
X149004900Y-93862840D01*
X149002360Y-93857760D01*
X148987120Y-93829820D01*
X148966800Y-93786640D01*
X148943940Y-93733300D01*
X148921080Y-93677420D01*
X148900760Y-93626620D01*
X148888060Y-93591060D01*
X148882980Y-93573280D01*
X148882980Y-93573280D01*
X148893140Y-93555500D01*
X148918540Y-93519940D01*
X148954100Y-93469140D01*
X148994740Y-93408180D01*
X148997280Y-93403100D01*
X149037920Y-93342140D01*
X149070940Y-93291340D01*
X149093800Y-93255780D01*
X149101420Y-93240540D01*
X149101420Y-93238000D01*
X149088720Y-93220220D01*
X149058240Y-93187200D01*
X149012520Y-93141480D01*
X148961720Y-93088140D01*
X148943940Y-93072900D01*
X148885520Y-93014480D01*
X148844880Y-92978920D01*
X148819480Y-92958600D01*
X148809320Y-92953520D01*
X148806780Y-92953520D01*
X148789000Y-92963680D01*
X148750900Y-92989080D01*
X148700100Y-93024640D01*
X148639140Y-93065280D01*
X148636600Y-93067820D01*
X148575640Y-93108460D01*
X148524840Y-93144020D01*
X148489280Y-93166880D01*
X148474040Y-93174500D01*
X148471500Y-93174500D01*
X148448640Y-93169420D01*
X148405460Y-93154180D01*
X148352120Y-93133860D01*
X148296240Y-93111000D01*
X148245440Y-93090680D01*
X148209880Y-93072900D01*
X148192100Y-93062740D01*
X148189560Y-93062740D01*
X148184480Y-93039880D01*
X148174320Y-92994160D01*
X148161620Y-92933200D01*
X148146380Y-92859540D01*
X148143840Y-92849380D01*
X148131140Y-92775720D01*
X148120980Y-92717300D01*
X148110820Y-92676660D01*
X148108280Y-92658880D01*
X148098120Y-92658880D01*
X148062560Y-92656340D01*
X148009220Y-92653800D01*
X147943180Y-92653800D01*
X147877140Y-92653800D01*
X147811100Y-92653800D01*
X147755220Y-92656340D01*
X147714580Y-92658880D01*
X147696800Y-92663960D01*
X147696800Y-92663960D01*
X147691720Y-92686820D01*
X147681560Y-92730000D01*
X147668860Y-92793500D01*
X147653620Y-92867160D01*
X147651080Y-92879860D01*
X147638380Y-92950980D01*
X147625680Y-93009400D01*
X147618060Y-93050040D01*
X147612980Y-93065280D01*
X147607900Y-93067820D01*
X147577420Y-93083060D01*
X147529160Y-93100840D01*
X147470740Y-93126240D01*
X147333580Y-93182120D01*
X147165940Y-93065280D01*
X147150700Y-93055120D01*
X147089740Y-93014480D01*
X147038940Y-92981460D01*
X147003380Y-92958600D01*
X146990680Y-92950980D01*
X146988140Y-92950980D01*
X146972900Y-92966220D01*
X146939880Y-92996700D01*
X146894160Y-93042420D01*
X146840820Y-93093220D01*
X146800180Y-93133860D01*
X146754460Y-93179580D01*
X146726520Y-93212600D01*
X146708740Y-93232920D01*
X146703660Y-93245620D01*
X146706200Y-93253240D01*
X146716360Y-93271020D01*
X146741760Y-93306580D01*
X146774780Y-93359920D01*
X146815420Y-93418340D01*
X146850980Y-93469140D01*
X146886540Y-93525020D01*
X146909400Y-93565660D01*
X146919560Y-93583440D01*
X146917020Y-93593600D01*
X146904320Y-93626620D01*
X146884000Y-93674880D01*
X146858600Y-93735840D01*
X146800180Y-93867920D01*
X146713820Y-93885700D01*
X146660480Y-93895860D01*
X146586820Y-93908560D01*
X146515700Y-93923800D01*
X146403940Y-93944120D01*
X146401400Y-94347980D01*
X146419180Y-94355600D01*
X146434420Y-94360680D01*
X146475060Y-94370840D01*
X146533480Y-94381000D01*
X146602060Y-94393700D01*
X146663020Y-94406400D01*
X146721440Y-94416560D01*
X146764620Y-94424180D01*
X146782400Y-94429260D01*
X146787480Y-94434340D01*
X146802720Y-94464820D01*
X146823040Y-94510540D01*
X146845900Y-94563880D01*
X146871300Y-94622300D01*
X146891620Y-94673100D01*
X146906860Y-94713740D01*
X146911940Y-94734060D01*
X146904320Y-94749300D01*
X146881460Y-94784860D01*
X146848440Y-94835660D01*
X146807800Y-94894080D01*
X146767160Y-94952500D01*
X146734140Y-95003300D01*
X146708740Y-95038860D01*
X146701120Y-95056640D01*
X146706200Y-95066800D01*
X146729060Y-95094740D01*
X146772240Y-95140460D01*
X146838280Y-95206500D01*
X146850980Y-95216660D01*
X146901780Y-95267460D01*
X146947500Y-95308100D01*
X146977980Y-95336040D01*
X146990680Y-95346200D01*
D11*
X156370000Y-93360000D02*
X156370000Y-89960000D01*
X156370000Y-89960000D02*
X158170000Y-89960000D01*
X158170000Y-89960000D02*
X158170000Y-93360000D01*
X158170000Y-93360000D02*
X156370000Y-93360000D01*
X157701800Y-91228200D02*
X157701800Y-90821800D01*
X157701800Y-90821800D02*
X156838200Y-90821800D01*
X156838200Y-91228200D02*
X156838200Y-90821800D01*
X157701800Y-91228200D02*
X156838200Y-91228200D01*
X157701800Y-92498200D02*
X157701800Y-92091800D01*
X157701800Y-92091800D02*
X156838200Y-92091800D01*
X156838200Y-92498200D02*
X156838200Y-92091800D01*
X157701800Y-92498200D02*
X156838200Y-92498200D01*
X157625600Y-92091800D02*
X157625600Y-91228200D01*
X156914400Y-91228200D02*
X156914400Y-92091800D01*
D13*
X138178400Y-92489441D02*
X138627797Y-92270255D01*
X138563598Y-92301567D02*
X138611354Y-92318011D01*
X138674766Y-92366555D01*
X138721734Y-92462854D01*
X138720947Y-92542710D01*
X138672403Y-92606122D01*
X138319305Y-92778339D01*
X138672403Y-92606122D02*
X138752259Y-92606909D01*
X138815671Y-92655453D01*
X138862639Y-92751752D01*
X138861852Y-92831608D01*
X138813308Y-92895020D01*
X138460211Y-93067238D01*
X138757677Y-93677133D02*
X139110774Y-93504916D01*
X139159318Y-93441504D01*
X139160105Y-93361648D01*
X139097481Y-93233249D01*
X139034069Y-93184705D01*
X138789777Y-93661477D02*
X138726364Y-93612933D01*
X138648084Y-93452435D01*
X138648872Y-93372578D01*
X138697415Y-93309167D01*
X138761615Y-93277854D01*
X138841470Y-93278642D01*
X138904883Y-93327185D01*
X138983163Y-93487684D01*
X139046575Y-93536228D01*
X138961206Y-94094430D02*
X138961994Y-94014574D01*
X139010537Y-93951162D01*
X139588333Y-93669352D01*
X139243804Y-94592370D02*
X139180391Y-94543827D01*
X139117767Y-94415428D01*
X139118555Y-94335571D01*
X139167098Y-94272160D01*
X139423896Y-94146911D01*
X139503752Y-94147698D01*
X139567164Y-94196242D01*
X139629788Y-94324641D01*
X139629001Y-94404497D01*
X139580457Y-94467909D01*
X139516258Y-94499221D01*
X139295497Y-94209535D01*
X160788297Y-95008026D02*
X160338900Y-94788840D01*
X160403099Y-94820152D02*
X160386656Y-94772396D01*
X160385868Y-94692541D01*
X160432836Y-94596241D01*
X160496248Y-94547697D01*
X160576104Y-94546910D01*
X160929202Y-94719127D01*
X160576104Y-94546910D02*
X160527560Y-94483498D01*
X160526773Y-94403642D01*
X160573742Y-94307343D01*
X160637153Y-94258800D01*
X160717010Y-94258012D01*
X161070107Y-94430229D01*
X161367573Y-93820333D02*
X161014476Y-93648116D01*
X160934620Y-93648903D01*
X160871208Y-93697447D01*
X160808583Y-93825846D01*
X160809370Y-93905702D01*
X161335473Y-93804677D02*
X161336261Y-93884533D01*
X161257980Y-94045032D01*
X161194567Y-94093575D01*
X161114712Y-94094363D01*
X161050512Y-94063050D01*
X161001969Y-93999639D01*
X161001181Y-93919783D01*
X161079462Y-93759284D01*
X161078675Y-93679428D01*
X161571102Y-93403037D02*
X161507690Y-93451579D01*
X161427834Y-93452368D01*
X160850038Y-93170558D01*
X161789500Y-92873783D02*
X161790288Y-92953640D01*
X161727663Y-93082039D01*
X161664251Y-93130582D01*
X161584396Y-93131370D01*
X161327597Y-93006121D01*
X161279053Y-92942709D01*
X161278266Y-92862853D01*
X161340891Y-92734454D01*
X161404303Y-92685910D01*
X161484159Y-92685123D01*
X161548358Y-92716435D01*
X161455996Y-93068745D01*
D11*
X155033334Y-94757143D02*
X154985715Y-94804762D01*
X154842858Y-94852381D01*
X154747620Y-94852381D01*
X154604762Y-94804762D01*
X154509524Y-94709524D01*
X154461905Y-94614286D01*
X154414286Y-94423810D01*
X154414286Y-94280952D01*
X154461905Y-94090476D01*
X154509524Y-93995238D01*
X154604762Y-93900000D01*
X154747620Y-93852381D01*
X154842858Y-93852381D01*
X154985715Y-93900000D01*
X155033334Y-93947619D01*
X155414286Y-93947619D02*
X155461905Y-93900000D01*
X155557143Y-93852381D01*
X155795239Y-93852381D01*
X155890477Y-93900000D01*
X155938096Y-93947619D01*
X155985715Y-94042857D01*
X155985715Y-94138095D01*
X155938096Y-94280952D01*
X155366667Y-94852381D01*
X155985715Y-94852381D01*
X157233334Y-89652381D02*
X156900000Y-89176190D01*
X156661905Y-89652381D02*
X156661905Y-88652381D01*
X157042858Y-88652381D01*
X157138096Y-88700000D01*
X157185715Y-88747619D01*
X157233334Y-88842857D01*
X157233334Y-88985714D01*
X157185715Y-89080952D01*
X157138096Y-89128571D01*
X157042858Y-89176190D01*
X156661905Y-89176190D01*
X157614286Y-88747619D02*
X157661905Y-88700000D01*
X157757143Y-88652381D01*
X157995239Y-88652381D01*
X158090477Y-88700000D01*
X158138096Y-88747619D01*
X158185715Y-88842857D01*
X158185715Y-88938095D01*
X158138096Y-89080952D01*
X157566667Y-89652381D01*
X158185715Y-89652381D01*
%LPC*%
D14*
X143780000Y-96640000D03*
D15*
X146320000Y-96640000D03*
X148860000Y-96640000D03*
X151400000Y-96640000D03*
X153940000Y-96640000D03*
X156480000Y-96640000D03*
D16*
X142265000Y-92800000D03*
X143535000Y-92800000D03*
D17*
X142992751Y-89788042D03*
X142992751Y-91058042D03*
D18*
X144262751Y-89788042D03*
D17*
X144262751Y-91058042D03*
X141722751Y-89788042D03*
X141722751Y-91058042D03*
D19*
X137023435Y-92544529D03*
X139863103Y-92572534D03*
X138136897Y-94827466D03*
X140976565Y-94855471D03*
X160903629Y-91431066D03*
X162629834Y-93685997D03*
X159790166Y-93714003D03*
X161516371Y-95968934D03*
D20*
X150100000Y-92450000D03*
X150100000Y-91500000D03*
X150100000Y-90550000D03*
D21*
X155270000Y-92239960D03*
X155270000Y-90340040D03*
D22*
X157270000Y-92508360D03*
X157270000Y-90811640D03*
M02*
