%FSLAX34Y34*%
G04 Gerber Fmt 3.4, Leading zero omitted, Abs format*
G04 (created by PCBNEW (2014-06-29 BZR 4957)-product) date Sat 23 Aug 2014 09:09:45 PM CEST*
%MOIN*%
G01*
G70*
G90*
G04 APERTURE LIST*
%ADD10C,0.003937*%
%ADD11C,0.033465*%
%ADD12R,0.033465X0.033465*%
%ADD13C,0.028000*%
%ADD14C,0.055118*%
%ADD15R,0.064961X0.064961*%
%ADD16C,0.064961*%
%ADD17R,0.059000X0.051100*%
%ADD18R,0.043300X0.039300*%
%ADD19C,0.024000*%
%ADD20C,0.010000*%
G04 APERTURE END LIST*
G54D10*
G54D11*
X59903Y-35503D03*
X59403Y-36003D03*
X59903Y-36003D03*
X59403Y-36503D03*
X59903Y-36503D03*
G54D12*
X59403Y-35503D03*
G54D13*
X59403Y-35503D03*
X59903Y-35503D03*
X59403Y-36503D03*
X59903Y-36503D03*
G54D14*
X63589Y-37783D03*
X62909Y-36895D03*
X64027Y-36884D03*
X63347Y-35996D03*
X55502Y-37344D03*
X54384Y-37333D03*
X55064Y-36445D03*
X53946Y-36434D03*
G54D15*
X56606Y-38047D03*
G54D16*
X57606Y-38047D03*
X58606Y-38047D03*
X59606Y-38047D03*
X60606Y-38047D03*
X61606Y-38047D03*
G54D17*
X61129Y-35566D03*
X61129Y-36314D03*
G54D18*
X61917Y-35752D03*
X61917Y-36420D03*
G54D19*
X60633Y-35086D03*
X56164Y-36634D03*
X58542Y-37071D03*
X60240Y-35358D03*
X56330Y-34952D03*
X63515Y-36822D03*
X63909Y-35896D03*
X58585Y-35010D03*
X60968Y-37015D03*
X57586Y-37330D03*
X58082Y-36551D03*
X57972Y-35861D03*
X59027Y-35535D03*
X61594Y-37503D03*
X64590Y-36720D03*
X61086Y-37625D03*
X60094Y-37606D03*
X60615Y-37007D03*
G54D20*
X60633Y-35346D02*
X60633Y-35086D01*
X59403Y-36003D02*
X59071Y-36336D01*
X60488Y-35492D02*
X60633Y-35346D01*
X59071Y-36336D02*
X59071Y-36660D01*
X60488Y-36401D02*
X60488Y-35492D01*
X60035Y-36854D02*
X60488Y-36401D01*
X59264Y-36854D02*
X60035Y-36854D01*
X59071Y-36660D02*
X59264Y-36854D01*
X56164Y-36634D02*
X56601Y-37071D01*
X58711Y-37071D02*
X58542Y-37071D01*
X58372Y-37071D02*
X58542Y-37071D01*
X60606Y-37749D02*
X59928Y-37071D01*
X60606Y-38047D02*
X60606Y-37749D01*
X59928Y-37071D02*
X58711Y-37071D01*
X56601Y-37071D02*
X58372Y-37071D01*
X59903Y-36003D02*
X60240Y-35667D01*
X60240Y-35667D02*
X60240Y-35358D01*
X57880Y-34952D02*
X58258Y-34574D01*
X58258Y-34574D02*
X59456Y-34574D01*
X59456Y-34574D02*
X60120Y-35238D01*
X60120Y-35238D02*
X60240Y-35358D01*
X56330Y-34952D02*
X57880Y-34952D01*
X63909Y-35896D02*
X63515Y-36822D01*
X59177Y-35010D02*
X58754Y-35010D01*
X59403Y-35503D02*
X59403Y-35236D01*
X59403Y-35236D02*
X59177Y-35010D01*
X58754Y-35010D02*
X58585Y-35010D01*
X59397Y-35498D02*
X59403Y-35503D01*
X61129Y-35566D02*
X60734Y-35566D01*
X60734Y-35566D02*
X60704Y-35596D01*
X60848Y-36870D02*
X60848Y-36895D01*
X60704Y-35596D02*
X60704Y-36727D01*
X60704Y-36727D02*
X60848Y-36870D01*
X60848Y-36895D02*
X60968Y-37015D01*
X61555Y-35597D02*
X61555Y-35706D01*
X61555Y-35706D02*
X61600Y-35752D01*
X61600Y-35752D02*
X61917Y-35752D01*
X61129Y-35566D02*
X61524Y-35566D01*
X61524Y-35566D02*
X61555Y-35597D01*
X61861Y-35696D02*
X61917Y-35752D01*
X54384Y-37333D02*
X55588Y-36778D01*
X56110Y-36963D02*
X56242Y-37331D01*
X55588Y-36778D02*
X56110Y-36963D01*
X57585Y-37331D02*
X57586Y-37330D01*
X56242Y-37331D02*
X57585Y-37331D01*
X58082Y-36551D02*
X58082Y-35971D01*
X58082Y-35971D02*
X57972Y-35861D01*
X59903Y-35336D02*
X59903Y-35503D01*
X59336Y-34770D02*
X59903Y-35336D01*
X58360Y-34770D02*
X58284Y-34846D01*
X58284Y-35187D02*
X58631Y-35535D01*
X59264Y-34770D02*
X58360Y-34770D01*
X58284Y-34846D02*
X58284Y-35187D01*
X58631Y-35535D02*
X58857Y-35535D01*
X58857Y-35535D02*
X59027Y-35535D01*
X59264Y-34770D02*
X59336Y-34770D01*
X64590Y-37633D02*
X63893Y-38330D01*
X61854Y-37503D02*
X61764Y-37503D01*
X61764Y-37503D02*
X61594Y-37503D01*
X62681Y-38330D02*
X61854Y-37503D01*
X64590Y-36720D02*
X64590Y-37633D01*
X63893Y-38330D02*
X62681Y-38330D01*
X53946Y-36434D02*
X55053Y-36434D01*
X55053Y-36434D02*
X55064Y-36445D01*
X57606Y-38047D02*
X58133Y-37519D01*
X58133Y-37519D02*
X59531Y-37519D01*
X59837Y-37519D02*
X59924Y-37606D01*
X59924Y-37606D02*
X60094Y-37606D01*
X59531Y-37519D02*
X59837Y-37519D01*
X61086Y-37625D02*
X60615Y-37155D01*
X60615Y-37155D02*
X60615Y-37007D01*
X61344Y-37011D02*
X61129Y-36796D01*
X61129Y-36796D02*
X61129Y-36314D01*
X61551Y-36341D02*
X61551Y-36370D01*
X61551Y-36370D02*
X61600Y-36420D01*
X61600Y-36420D02*
X61917Y-36420D01*
X61129Y-36314D02*
X61524Y-36314D01*
X61524Y-36314D02*
X61551Y-36341D01*
X61606Y-38047D02*
X61344Y-37785D01*
X61344Y-37785D02*
X61344Y-37011D01*
X61893Y-36444D02*
X61917Y-36420D01*
M02*
