%FSLAX46Y46*%
G04 Gerber Fmt 4.6, Leading zero omitted, Abs format (unit mm)*
G04 Created by KiCad (PCBNEW (2014-08-24 BZR 5093)-product) date Sun 24 Aug 2014 03:28:39 PM CEST*
%MOMM*%
G01*
G04 APERTURE LIST*
%ADD10C,0.100000*%
%ADD11C,0.200000*%
%ADD12C,0.002540*%
%ADD13C,0.187500*%
%ADD14C,1.400000*%
%ADD15C,0.850000*%
%ADD16R,0.850000X0.850000*%
%ADD17C,0.711200*%
%ADD18R,1.650000X1.650000*%
%ADD19C,1.650000*%
%ADD20R,1.498600X1.297940*%
%ADD21R,1.099820X0.998220*%
G04 APERTURE END LIST*
D10*
D11*
X165208904Y-99456904D02*
X165329850Y-99367195D01*
X165466417Y-99172158D01*
X165482036Y-99066831D01*
X165470342Y-99000510D01*
X165419640Y-98906877D01*
X165341626Y-98852251D01*
X165236298Y-98836632D01*
X165169978Y-98848326D01*
X165076344Y-98899026D01*
X164928083Y-99027743D01*
X164834450Y-99078444D01*
X164768130Y-99090138D01*
X164662802Y-99074519D01*
X164584788Y-99019893D01*
X164534086Y-98926259D01*
X164522392Y-98859939D01*
X164538011Y-98754612D01*
X164674578Y-98559575D01*
X164795524Y-98469866D01*
X166067306Y-98313999D02*
X165638226Y-98013554D01*
X165532899Y-97997935D01*
X165439265Y-98048636D01*
X165330012Y-98204666D01*
X165314393Y-98309993D01*
X166028299Y-98286686D02*
X166012680Y-98392014D01*
X165876114Y-98587050D01*
X165782480Y-98637752D01*
X165677153Y-98622133D01*
X165599138Y-98567506D01*
X165548437Y-98473873D01*
X165564056Y-98368545D01*
X165700622Y-98173508D01*
X165716241Y-98068181D01*
X166340437Y-97923927D02*
X165794336Y-97541543D01*
X165872350Y-97596169D02*
X165860656Y-97529849D01*
X165876275Y-97424521D01*
X165958215Y-97307499D01*
X166051849Y-97256797D01*
X166157176Y-97272416D01*
X166586256Y-97572861D01*
X166157176Y-97272416D02*
X166106475Y-97178783D01*
X166122094Y-97073455D01*
X166204033Y-96956434D01*
X166297667Y-96905733D01*
X166402994Y-96921352D01*
X166832074Y-97221797D01*
X166477165Y-96566362D02*
X166695670Y-96254304D01*
X166286054Y-96258148D02*
X166988184Y-96749785D01*
X167093512Y-96765404D01*
X167187145Y-96714703D01*
X167241772Y-96636689D01*
X167432964Y-96363637D02*
X166886862Y-95981253D01*
X166613812Y-95790061D02*
X166625506Y-95856381D01*
X166691826Y-95844687D01*
X166680132Y-95778367D01*
X166613812Y-95790061D01*
X166691826Y-95844687D01*
X167951914Y-95622500D02*
X167132762Y-95048923D01*
X167912907Y-95595187D02*
X167897288Y-95700514D01*
X167788035Y-95856544D01*
X167694401Y-95907245D01*
X167628081Y-95918939D01*
X167522753Y-95903320D01*
X167288709Y-95739441D01*
X167238008Y-95645807D01*
X167226314Y-95579487D01*
X167241933Y-95474159D01*
X167351186Y-95318130D01*
X167444820Y-95267428D01*
X135134950Y-98235015D02*
X134315798Y-98808591D01*
X134861819Y-97844943D02*
X134042667Y-98418519D01*
X134534061Y-97376855D02*
X134311792Y-98055679D01*
X133714909Y-97950432D02*
X134510754Y-98090761D01*
X133859163Y-97326236D02*
X133667970Y-97053184D01*
X134015111Y-96635718D02*
X134288243Y-97025791D01*
X133469091Y-97599367D01*
X133195959Y-97209294D01*
X133562562Y-96487539D02*
X133289430Y-96097466D01*
X133851232Y-96401674D02*
X132840888Y-96702201D01*
X133468847Y-95855573D01*
X146409524Y-93842381D02*
X146742857Y-94842381D01*
X147076191Y-93842381D01*
X147600000Y-93842381D02*
X147695239Y-93842381D01*
X147790477Y-93890000D01*
X147838096Y-93937619D01*
X147885715Y-94032857D01*
X147933334Y-94223333D01*
X147933334Y-94461429D01*
X147885715Y-94651905D01*
X147838096Y-94747143D01*
X147790477Y-94794762D01*
X147695239Y-94842381D01*
X147600000Y-94842381D01*
X147504762Y-94794762D01*
X147457143Y-94747143D01*
X147409524Y-94651905D01*
X147361905Y-94461429D01*
X147361905Y-94223333D01*
X147409524Y-94032857D01*
X147457143Y-93937619D01*
X147504762Y-93890000D01*
X147600000Y-93842381D01*
X148361905Y-94747143D02*
X148409524Y-94794762D01*
X148361905Y-94842381D01*
X148314286Y-94794762D01*
X148361905Y-94747143D01*
X148361905Y-94842381D01*
X148790476Y-93937619D02*
X148838095Y-93890000D01*
X148933333Y-93842381D01*
X149171429Y-93842381D01*
X149266667Y-93890000D01*
X149314286Y-93937619D01*
X149361905Y-94032857D01*
X149361905Y-94128095D01*
X149314286Y-94270952D01*
X148742857Y-94842381D01*
X149361905Y-94842381D01*
X149933333Y-94270952D02*
X149838095Y-94223333D01*
X149790476Y-94175714D01*
X149742857Y-94080476D01*
X149742857Y-94032857D01*
X149790476Y-93937619D01*
X149838095Y-93890000D01*
X149933333Y-93842381D01*
X150123810Y-93842381D01*
X150219048Y-93890000D01*
X150266667Y-93937619D01*
X150314286Y-94032857D01*
X150314286Y-94080476D01*
X150266667Y-94175714D01*
X150219048Y-94223333D01*
X150123810Y-94270952D01*
X149933333Y-94270952D01*
X149838095Y-94318571D01*
X149790476Y-94366190D01*
X149742857Y-94461429D01*
X149742857Y-94651905D01*
X149790476Y-94747143D01*
X149838095Y-94794762D01*
X149933333Y-94842381D01*
X150123810Y-94842381D01*
X150219048Y-94794762D01*
X150266667Y-94747143D01*
X150314286Y-94651905D01*
X150314286Y-94461429D01*
X150266667Y-94366190D01*
X150219048Y-94318571D01*
X150123810Y-94270952D01*
X150742857Y-94747143D02*
X150790476Y-94794762D01*
X150742857Y-94842381D01*
X150695238Y-94794762D01*
X150742857Y-94747143D01*
X150742857Y-94842381D01*
X151219047Y-94842381D02*
X151219047Y-93842381D01*
X151219047Y-94223333D02*
X151314285Y-94175714D01*
X151504762Y-94175714D01*
X151600000Y-94223333D01*
X151647619Y-94270952D01*
X151695238Y-94366190D01*
X151695238Y-94651905D01*
X151647619Y-94747143D01*
X151600000Y-94794762D01*
X151504762Y-94842381D01*
X151314285Y-94842381D01*
X151219047Y-94794762D01*
X142028094Y-89262381D02*
X142028094Y-88595714D01*
X142028094Y-88690952D02*
X142075713Y-88643333D01*
X142170951Y-88595714D01*
X142313809Y-88595714D01*
X142409047Y-88643333D01*
X142456666Y-88738571D01*
X142456666Y-89262381D01*
X142456666Y-88738571D02*
X142504285Y-88643333D01*
X142599523Y-88595714D01*
X142742380Y-88595714D01*
X142837618Y-88643333D01*
X142885237Y-88738571D01*
X142885237Y-89262381D01*
X143504284Y-89262381D02*
X143409046Y-89214762D01*
X143361427Y-89167143D01*
X143313808Y-89071905D01*
X143313808Y-88786190D01*
X143361427Y-88690952D01*
X143409046Y-88643333D01*
X143504284Y-88595714D01*
X143647142Y-88595714D01*
X143742380Y-88643333D01*
X143789999Y-88690952D01*
X143837618Y-88786190D01*
X143837618Y-89071905D01*
X143789999Y-89167143D01*
X143742380Y-89214762D01*
X143647142Y-89262381D01*
X143504284Y-89262381D01*
X144409046Y-89262381D02*
X144313808Y-89214762D01*
X144266189Y-89167143D01*
X144218570Y-89071905D01*
X144218570Y-88786190D01*
X144266189Y-88690952D01*
X144313808Y-88643333D01*
X144409046Y-88595714D01*
X144551904Y-88595714D01*
X144647142Y-88643333D01*
X144694761Y-88690952D01*
X144742380Y-88786190D01*
X144742380Y-89071905D01*
X144694761Y-89167143D01*
X144647142Y-89214762D01*
X144551904Y-89262381D01*
X144409046Y-89262381D01*
X145599523Y-89262381D02*
X145599523Y-88262381D01*
X145599523Y-89214762D02*
X145504285Y-89262381D01*
X145313808Y-89262381D01*
X145218570Y-89214762D01*
X145170951Y-89167143D01*
X145123332Y-89071905D01*
X145123332Y-88786190D01*
X145170951Y-88690952D01*
X145218570Y-88643333D01*
X145313808Y-88595714D01*
X145504285Y-88595714D01*
X145599523Y-88643333D01*
X146075713Y-88881429D02*
X146837618Y-88881429D01*
X147456665Y-89262381D02*
X147361427Y-89214762D01*
X147313808Y-89119524D01*
X147313808Y-88262381D01*
X147837618Y-89262381D02*
X147837618Y-88595714D01*
X147837618Y-88262381D02*
X147789999Y-88310000D01*
X147837618Y-88357619D01*
X147885237Y-88310000D01*
X147837618Y-88262381D01*
X147837618Y-88357619D01*
X148742380Y-88595714D02*
X148742380Y-89405238D01*
X148694761Y-89500476D01*
X148647142Y-89548095D01*
X148551903Y-89595714D01*
X148409046Y-89595714D01*
X148313808Y-89548095D01*
X148742380Y-89214762D02*
X148647142Y-89262381D01*
X148456665Y-89262381D01*
X148361427Y-89214762D01*
X148313808Y-89167143D01*
X148266189Y-89071905D01*
X148266189Y-88786190D01*
X148313808Y-88690952D01*
X148361427Y-88643333D01*
X148456665Y-88595714D01*
X148647142Y-88595714D01*
X148742380Y-88643333D01*
X149218570Y-89262381D02*
X149218570Y-88262381D01*
X149647142Y-89262381D02*
X149647142Y-88738571D01*
X149599523Y-88643333D01*
X149504285Y-88595714D01*
X149361427Y-88595714D01*
X149266189Y-88643333D01*
X149218570Y-88690952D01*
X149980475Y-88595714D02*
X150361427Y-88595714D01*
X150123332Y-88262381D02*
X150123332Y-89119524D01*
X150170951Y-89214762D01*
X150266189Y-89262381D01*
X150361427Y-89262381D01*
X151885238Y-89214762D02*
X151790000Y-89262381D01*
X151599523Y-89262381D01*
X151504285Y-89214762D01*
X151456666Y-89167143D01*
X151409047Y-89071905D01*
X151409047Y-88786190D01*
X151456666Y-88690952D01*
X151504285Y-88643333D01*
X151599523Y-88595714D01*
X151790000Y-88595714D01*
X151885238Y-88643333D01*
X152170952Y-88595714D02*
X152551904Y-88595714D01*
X152313809Y-88262381D02*
X152313809Y-89119524D01*
X152361428Y-89214762D01*
X152456666Y-89262381D01*
X152551904Y-89262381D01*
X152885238Y-89262381D02*
X152885238Y-88595714D01*
X152885238Y-88786190D02*
X152932857Y-88690952D01*
X152980476Y-88643333D01*
X153075714Y-88595714D01*
X153170953Y-88595714D01*
X153647143Y-89262381D02*
X153551905Y-89214762D01*
X153504286Y-89119524D01*
X153504286Y-88262381D01*
X147926667Y-92576667D02*
X147926667Y-92100476D01*
X148212381Y-92671905D02*
X147212381Y-92338572D01*
X148212381Y-92005238D01*
X147212381Y-91814762D02*
X148212381Y-91481429D01*
X147212381Y-91148095D01*
X148212381Y-90243333D02*
X147736190Y-90576667D01*
X148212381Y-90814762D02*
X147212381Y-90814762D01*
X147212381Y-90433809D01*
X147260000Y-90338571D01*
X147307619Y-90290952D01*
X147402857Y-90243333D01*
X147545714Y-90243333D01*
X147640952Y-90290952D01*
X147688571Y-90338571D01*
X147736190Y-90433809D01*
X147736190Y-90814762D01*
X149812381Y-92386190D02*
X148812381Y-92386190D01*
X149764762Y-91957619D02*
X149812381Y-91814762D01*
X149812381Y-91576666D01*
X149764762Y-91481428D01*
X149717143Y-91433809D01*
X149621905Y-91386190D01*
X149526667Y-91386190D01*
X149431429Y-91433809D01*
X149383810Y-91481428D01*
X149336190Y-91576666D01*
X149288571Y-91767143D01*
X149240952Y-91862381D01*
X149193333Y-91910000D01*
X149098095Y-91957619D01*
X149002857Y-91957619D01*
X148907619Y-91910000D01*
X148860000Y-91862381D01*
X148812381Y-91767143D01*
X148812381Y-91529047D01*
X148860000Y-91386190D01*
X149812381Y-90957619D02*
X148812381Y-90957619D01*
X148812381Y-90576666D01*
X148860000Y-90481428D01*
X148907619Y-90433809D01*
X149002857Y-90386190D01*
X149145714Y-90386190D01*
X149240952Y-90433809D01*
X149288571Y-90481428D01*
X149336190Y-90576666D01*
X149336190Y-90957619D01*
D10*
X140689961Y-96480581D02*
X140847774Y-96804147D01*
X141139358Y-96261396D02*
X141297171Y-96584962D01*
X140288811Y-96342454D02*
X140689961Y-96480581D01*
X140689961Y-96480581D02*
X141139358Y-96261396D01*
X141277485Y-95860246D02*
X141139358Y-96261396D01*
X140288811Y-96342454D02*
X140578136Y-96935659D01*
X139300138Y-96824663D02*
X139589463Y-97417867D01*
X141277485Y-95860246D02*
X141566810Y-96453450D01*
D11*
X139652584Y-90110664D02*
X142230206Y-95395573D01*
X142230206Y-95395573D02*
X138347416Y-97289336D01*
X138347416Y-97289336D02*
X135769794Y-92004427D01*
X135769794Y-92004427D02*
X139652584Y-90110664D01*
X138590296Y-89894459D02*
X138349192Y-89400122D01*
X138349192Y-89400122D02*
X136012327Y-90539887D01*
X136012327Y-90539887D02*
X136253432Y-91034224D01*
X141746568Y-96365776D02*
X141987673Y-96860113D01*
X141987673Y-96860113D02*
X139650808Y-97999878D01*
X139650808Y-97999878D02*
X139409704Y-97505541D01*
X139758728Y-89324576D02*
X142915001Y-95795894D01*
X142915001Y-95795894D02*
X138241272Y-98075424D01*
X138241272Y-98075424D02*
X135084999Y-91604106D01*
X135084999Y-91604106D02*
X139758728Y-89324576D01*
D10*
X160059316Y-96743604D02*
X159901502Y-97067170D01*
X160508713Y-96962790D02*
X160350899Y-97286355D01*
X159921189Y-96342454D02*
X160059316Y-96743604D01*
X160059316Y-96743604D02*
X160508713Y-96962790D01*
X160909862Y-96824663D02*
X160508713Y-96962790D01*
X159921189Y-96342454D02*
X159631864Y-96935659D01*
X158932515Y-95860246D02*
X158643190Y-96453450D01*
X160909862Y-96824663D02*
X160620537Y-97417867D01*
D11*
X164440206Y-92004427D02*
X161862584Y-97289336D01*
X161862584Y-97289336D02*
X157979794Y-95395573D01*
X157979794Y-95395573D02*
X160557416Y-90110664D01*
X160557416Y-90110664D02*
X164440206Y-92004427D01*
X163956568Y-91034224D02*
X164197673Y-90539887D01*
X164197673Y-90539887D02*
X161860808Y-89400122D01*
X161860808Y-89400122D02*
X161619704Y-89894459D01*
X160800296Y-97505541D02*
X160559192Y-97999878D01*
X160559192Y-97999878D02*
X158222327Y-96860113D01*
X158222327Y-96860113D02*
X158463432Y-96365776D01*
X165125001Y-91604106D02*
X161968728Y-98075424D01*
X161968728Y-98075424D02*
X157294999Y-95795894D01*
X157294999Y-95795894D02*
X160451272Y-89324576D01*
X160451272Y-89324576D02*
X165125001Y-91604106D01*
X156370000Y-93290000D02*
X156370000Y-89290000D01*
X156370000Y-93290000D02*
X154170000Y-93290000D01*
X154170000Y-93290000D02*
X154170000Y-89290000D01*
X154170000Y-89290000D02*
X156370000Y-89290000D01*
D12*
G36*
X143680680Y-93306200D02*
X143698460Y-93298580D01*
X143731480Y-93275720D01*
X143782280Y-93242700D01*
X143840700Y-93204600D01*
X143901660Y-93163960D01*
X143949920Y-93130940D01*
X143985480Y-93108080D01*
X143998180Y-93100460D01*
X144005800Y-93103000D01*
X144033740Y-93118240D01*
X144074380Y-93138560D01*
X144099780Y-93151260D01*
X144137880Y-93166500D01*
X144155660Y-93171580D01*
X144158200Y-93166500D01*
X144173440Y-93136020D01*
X144193760Y-93087760D01*
X144221700Y-93021720D01*
X144254720Y-92945520D01*
X144290280Y-92864240D01*
X144323300Y-92780420D01*
X144356320Y-92701680D01*
X144386800Y-92628020D01*
X144409660Y-92569600D01*
X144424900Y-92528960D01*
X144432520Y-92511180D01*
X144429980Y-92508640D01*
X144412200Y-92490860D01*
X144379180Y-92465460D01*
X144308060Y-92407040D01*
X144236940Y-92320680D01*
X144193760Y-92221620D01*
X144181060Y-92109860D01*
X144191220Y-92008260D01*
X144231860Y-91911740D01*
X144300440Y-91822840D01*
X144384260Y-91756800D01*
X144480780Y-91716160D01*
X144590000Y-91703460D01*
X144694140Y-91713620D01*
X144793200Y-91754260D01*
X144882100Y-91820300D01*
X144920200Y-91863480D01*
X144971000Y-91954920D01*
X145001480Y-92048900D01*
X145004020Y-92071760D01*
X144998940Y-92178440D01*
X144968460Y-92280040D01*
X144912580Y-92368940D01*
X144836380Y-92442600D01*
X144826220Y-92450220D01*
X144790660Y-92478160D01*
X144765260Y-92495940D01*
X144747480Y-92511180D01*
X144882100Y-92833760D01*
X144902420Y-92884560D01*
X144940520Y-92973460D01*
X144971000Y-93049660D01*
X144998940Y-93110620D01*
X145016720Y-93151260D01*
X145024340Y-93166500D01*
X145024340Y-93166500D01*
X145037040Y-93169040D01*
X145059900Y-93161420D01*
X145105620Y-93138560D01*
X145136100Y-93123320D01*
X145169120Y-93108080D01*
X145184360Y-93100460D01*
X145199600Y-93108080D01*
X145232620Y-93128400D01*
X145278340Y-93161420D01*
X145336760Y-93199520D01*
X145392640Y-93237620D01*
X145443440Y-93270640D01*
X145479000Y-93296040D01*
X145496780Y-93303660D01*
X145499320Y-93303660D01*
X145517100Y-93296040D01*
X145545040Y-93270640D01*
X145588220Y-93230000D01*
X145651720Y-93169040D01*
X145661880Y-93158880D01*
X145712680Y-93108080D01*
X145753320Y-93062360D01*
X145781260Y-93031880D01*
X145791420Y-93019180D01*
X145791420Y-93019180D01*
X145781260Y-93001400D01*
X145758400Y-92963300D01*
X145725380Y-92912500D01*
X145684740Y-92851540D01*
X145578060Y-92696600D01*
X145636480Y-92551820D01*
X145654260Y-92506100D01*
X145677120Y-92450220D01*
X145694900Y-92412120D01*
X145702520Y-92394340D01*
X145720300Y-92389260D01*
X145758400Y-92379100D01*
X145816820Y-92368940D01*
X145887940Y-92356240D01*
X145953980Y-92343540D01*
X146012400Y-92330840D01*
X146055580Y-92323220D01*
X146075900Y-92320680D01*
X146080980Y-92315600D01*
X146083520Y-92307980D01*
X146086060Y-92287660D01*
X146088600Y-92249560D01*
X146088600Y-92193680D01*
X146088600Y-92109860D01*
X146088600Y-92102240D01*
X146088600Y-92023500D01*
X146086060Y-91960000D01*
X146083520Y-91921900D01*
X146080980Y-91904120D01*
X146080980Y-91904120D01*
X146063200Y-91899040D01*
X146020020Y-91891420D01*
X145961600Y-91878720D01*
X145890480Y-91866020D01*
X145885400Y-91866020D01*
X145814280Y-91850780D01*
X145755860Y-91838080D01*
X145712680Y-91830460D01*
X145694900Y-91822840D01*
X145692360Y-91817760D01*
X145677120Y-91789820D01*
X145656800Y-91746640D01*
X145633940Y-91693300D01*
X145611080Y-91637420D01*
X145590760Y-91586620D01*
X145578060Y-91551060D01*
X145572980Y-91533280D01*
X145572980Y-91533280D01*
X145583140Y-91515500D01*
X145608540Y-91479940D01*
X145644100Y-91429140D01*
X145684740Y-91368180D01*
X145687280Y-91363100D01*
X145727920Y-91302140D01*
X145760940Y-91251340D01*
X145783800Y-91215780D01*
X145791420Y-91200540D01*
X145791420Y-91198000D01*
X145778720Y-91180220D01*
X145748240Y-91147200D01*
X145702520Y-91101480D01*
X145651720Y-91048140D01*
X145633940Y-91032900D01*
X145575520Y-90974480D01*
X145534880Y-90938920D01*
X145509480Y-90918600D01*
X145499320Y-90913520D01*
X145496780Y-90913520D01*
X145479000Y-90923680D01*
X145440900Y-90949080D01*
X145390100Y-90984640D01*
X145329140Y-91025280D01*
X145326600Y-91027820D01*
X145265640Y-91068460D01*
X145214840Y-91104020D01*
X145179280Y-91126880D01*
X145164040Y-91134500D01*
X145161500Y-91134500D01*
X145138640Y-91129420D01*
X145095460Y-91114180D01*
X145042120Y-91093860D01*
X144986240Y-91071000D01*
X144935440Y-91050680D01*
X144899880Y-91032900D01*
X144882100Y-91022740D01*
X144879560Y-91022740D01*
X144874480Y-90999880D01*
X144864320Y-90954160D01*
X144851620Y-90893200D01*
X144836380Y-90819540D01*
X144833840Y-90809380D01*
X144821140Y-90735720D01*
X144810980Y-90677300D01*
X144800820Y-90636660D01*
X144798280Y-90618880D01*
X144788120Y-90618880D01*
X144752560Y-90616340D01*
X144699220Y-90613800D01*
X144633180Y-90613800D01*
X144567140Y-90613800D01*
X144501100Y-90613800D01*
X144445220Y-90616340D01*
X144404580Y-90618880D01*
X144386800Y-90623960D01*
X144386800Y-90623960D01*
X144381720Y-90646820D01*
X144371560Y-90690000D01*
X144358860Y-90753500D01*
X144343620Y-90827160D01*
X144341080Y-90839860D01*
X144328380Y-90910980D01*
X144315680Y-90969400D01*
X144308060Y-91010040D01*
X144302980Y-91025280D01*
X144297900Y-91027820D01*
X144267420Y-91043060D01*
X144219160Y-91060840D01*
X144160740Y-91086240D01*
X144023580Y-91142120D01*
X143855940Y-91025280D01*
X143840700Y-91015120D01*
X143779740Y-90974480D01*
X143728940Y-90941460D01*
X143693380Y-90918600D01*
X143680680Y-90910980D01*
X143678140Y-90910980D01*
X143662900Y-90926220D01*
X143629880Y-90956700D01*
X143584160Y-91002420D01*
X143530820Y-91053220D01*
X143490180Y-91093860D01*
X143444460Y-91139580D01*
X143416520Y-91172600D01*
X143398740Y-91192920D01*
X143393660Y-91205620D01*
X143396200Y-91213240D01*
X143406360Y-91231020D01*
X143431760Y-91266580D01*
X143464780Y-91319920D01*
X143505420Y-91378340D01*
X143540980Y-91429140D01*
X143576540Y-91485020D01*
X143599400Y-91525660D01*
X143609560Y-91543440D01*
X143607020Y-91553600D01*
X143594320Y-91586620D01*
X143574000Y-91634880D01*
X143548600Y-91695840D01*
X143490180Y-91827920D01*
X143403820Y-91845700D01*
X143350480Y-91855860D01*
X143276820Y-91868560D01*
X143205700Y-91883800D01*
X143093940Y-91904120D01*
X143091400Y-92307980D01*
X143109180Y-92315600D01*
X143124420Y-92320680D01*
X143165060Y-92330840D01*
X143223480Y-92341000D01*
X143292060Y-92353700D01*
X143353020Y-92366400D01*
X143411440Y-92376560D01*
X143454620Y-92384180D01*
X143472400Y-92389260D01*
X143477480Y-92394340D01*
X143492720Y-92424820D01*
X143513040Y-92470540D01*
X143535900Y-92523880D01*
X143561300Y-92582300D01*
X143581620Y-92633100D01*
X143596860Y-92673740D01*
X143601940Y-92694060D01*
X143594320Y-92709300D01*
X143571460Y-92744860D01*
X143538440Y-92795660D01*
X143497800Y-92854080D01*
X143457160Y-92912500D01*
X143424140Y-92963300D01*
X143398740Y-92998860D01*
X143391120Y-93016640D01*
X143396200Y-93026800D01*
X143419060Y-93054740D01*
X143462240Y-93100460D01*
X143528280Y-93166500D01*
X143540980Y-93176660D01*
X143591780Y-93227460D01*
X143637500Y-93268100D01*
X143667980Y-93296040D01*
X143680680Y-93306200D01*
X143680680Y-93306200D01*
G37*
X143680680Y-93306200D02*
X143698460Y-93298580D01*
X143731480Y-93275720D01*
X143782280Y-93242700D01*
X143840700Y-93204600D01*
X143901660Y-93163960D01*
X143949920Y-93130940D01*
X143985480Y-93108080D01*
X143998180Y-93100460D01*
X144005800Y-93103000D01*
X144033740Y-93118240D01*
X144074380Y-93138560D01*
X144099780Y-93151260D01*
X144137880Y-93166500D01*
X144155660Y-93171580D01*
X144158200Y-93166500D01*
X144173440Y-93136020D01*
X144193760Y-93087760D01*
X144221700Y-93021720D01*
X144254720Y-92945520D01*
X144290280Y-92864240D01*
X144323300Y-92780420D01*
X144356320Y-92701680D01*
X144386800Y-92628020D01*
X144409660Y-92569600D01*
X144424900Y-92528960D01*
X144432520Y-92511180D01*
X144429980Y-92508640D01*
X144412200Y-92490860D01*
X144379180Y-92465460D01*
X144308060Y-92407040D01*
X144236940Y-92320680D01*
X144193760Y-92221620D01*
X144181060Y-92109860D01*
X144191220Y-92008260D01*
X144231860Y-91911740D01*
X144300440Y-91822840D01*
X144384260Y-91756800D01*
X144480780Y-91716160D01*
X144590000Y-91703460D01*
X144694140Y-91713620D01*
X144793200Y-91754260D01*
X144882100Y-91820300D01*
X144920200Y-91863480D01*
X144971000Y-91954920D01*
X145001480Y-92048900D01*
X145004020Y-92071760D01*
X144998940Y-92178440D01*
X144968460Y-92280040D01*
X144912580Y-92368940D01*
X144836380Y-92442600D01*
X144826220Y-92450220D01*
X144790660Y-92478160D01*
X144765260Y-92495940D01*
X144747480Y-92511180D01*
X144882100Y-92833760D01*
X144902420Y-92884560D01*
X144940520Y-92973460D01*
X144971000Y-93049660D01*
X144998940Y-93110620D01*
X145016720Y-93151260D01*
X145024340Y-93166500D01*
X145024340Y-93166500D01*
X145037040Y-93169040D01*
X145059900Y-93161420D01*
X145105620Y-93138560D01*
X145136100Y-93123320D01*
X145169120Y-93108080D01*
X145184360Y-93100460D01*
X145199600Y-93108080D01*
X145232620Y-93128400D01*
X145278340Y-93161420D01*
X145336760Y-93199520D01*
X145392640Y-93237620D01*
X145443440Y-93270640D01*
X145479000Y-93296040D01*
X145496780Y-93303660D01*
X145499320Y-93303660D01*
X145517100Y-93296040D01*
X145545040Y-93270640D01*
X145588220Y-93230000D01*
X145651720Y-93169040D01*
X145661880Y-93158880D01*
X145712680Y-93108080D01*
X145753320Y-93062360D01*
X145781260Y-93031880D01*
X145791420Y-93019180D01*
X145791420Y-93019180D01*
X145781260Y-93001400D01*
X145758400Y-92963300D01*
X145725380Y-92912500D01*
X145684740Y-92851540D01*
X145578060Y-92696600D01*
X145636480Y-92551820D01*
X145654260Y-92506100D01*
X145677120Y-92450220D01*
X145694900Y-92412120D01*
X145702520Y-92394340D01*
X145720300Y-92389260D01*
X145758400Y-92379100D01*
X145816820Y-92368940D01*
X145887940Y-92356240D01*
X145953980Y-92343540D01*
X146012400Y-92330840D01*
X146055580Y-92323220D01*
X146075900Y-92320680D01*
X146080980Y-92315600D01*
X146083520Y-92307980D01*
X146086060Y-92287660D01*
X146088600Y-92249560D01*
X146088600Y-92193680D01*
X146088600Y-92109860D01*
X146088600Y-92102240D01*
X146088600Y-92023500D01*
X146086060Y-91960000D01*
X146083520Y-91921900D01*
X146080980Y-91904120D01*
X146080980Y-91904120D01*
X146063200Y-91899040D01*
X146020020Y-91891420D01*
X145961600Y-91878720D01*
X145890480Y-91866020D01*
X145885400Y-91866020D01*
X145814280Y-91850780D01*
X145755860Y-91838080D01*
X145712680Y-91830460D01*
X145694900Y-91822840D01*
X145692360Y-91817760D01*
X145677120Y-91789820D01*
X145656800Y-91746640D01*
X145633940Y-91693300D01*
X145611080Y-91637420D01*
X145590760Y-91586620D01*
X145578060Y-91551060D01*
X145572980Y-91533280D01*
X145572980Y-91533280D01*
X145583140Y-91515500D01*
X145608540Y-91479940D01*
X145644100Y-91429140D01*
X145684740Y-91368180D01*
X145687280Y-91363100D01*
X145727920Y-91302140D01*
X145760940Y-91251340D01*
X145783800Y-91215780D01*
X145791420Y-91200540D01*
X145791420Y-91198000D01*
X145778720Y-91180220D01*
X145748240Y-91147200D01*
X145702520Y-91101480D01*
X145651720Y-91048140D01*
X145633940Y-91032900D01*
X145575520Y-90974480D01*
X145534880Y-90938920D01*
X145509480Y-90918600D01*
X145499320Y-90913520D01*
X145496780Y-90913520D01*
X145479000Y-90923680D01*
X145440900Y-90949080D01*
X145390100Y-90984640D01*
X145329140Y-91025280D01*
X145326600Y-91027820D01*
X145265640Y-91068460D01*
X145214840Y-91104020D01*
X145179280Y-91126880D01*
X145164040Y-91134500D01*
X145161500Y-91134500D01*
X145138640Y-91129420D01*
X145095460Y-91114180D01*
X145042120Y-91093860D01*
X144986240Y-91071000D01*
X144935440Y-91050680D01*
X144899880Y-91032900D01*
X144882100Y-91022740D01*
X144879560Y-91022740D01*
X144874480Y-90999880D01*
X144864320Y-90954160D01*
X144851620Y-90893200D01*
X144836380Y-90819540D01*
X144833840Y-90809380D01*
X144821140Y-90735720D01*
X144810980Y-90677300D01*
X144800820Y-90636660D01*
X144798280Y-90618880D01*
X144788120Y-90618880D01*
X144752560Y-90616340D01*
X144699220Y-90613800D01*
X144633180Y-90613800D01*
X144567140Y-90613800D01*
X144501100Y-90613800D01*
X144445220Y-90616340D01*
X144404580Y-90618880D01*
X144386800Y-90623960D01*
X144386800Y-90623960D01*
X144381720Y-90646820D01*
X144371560Y-90690000D01*
X144358860Y-90753500D01*
X144343620Y-90827160D01*
X144341080Y-90839860D01*
X144328380Y-90910980D01*
X144315680Y-90969400D01*
X144308060Y-91010040D01*
X144302980Y-91025280D01*
X144297900Y-91027820D01*
X144267420Y-91043060D01*
X144219160Y-91060840D01*
X144160740Y-91086240D01*
X144023580Y-91142120D01*
X143855940Y-91025280D01*
X143840700Y-91015120D01*
X143779740Y-90974480D01*
X143728940Y-90941460D01*
X143693380Y-90918600D01*
X143680680Y-90910980D01*
X143678140Y-90910980D01*
X143662900Y-90926220D01*
X143629880Y-90956700D01*
X143584160Y-91002420D01*
X143530820Y-91053220D01*
X143490180Y-91093860D01*
X143444460Y-91139580D01*
X143416520Y-91172600D01*
X143398740Y-91192920D01*
X143393660Y-91205620D01*
X143396200Y-91213240D01*
X143406360Y-91231020D01*
X143431760Y-91266580D01*
X143464780Y-91319920D01*
X143505420Y-91378340D01*
X143540980Y-91429140D01*
X143576540Y-91485020D01*
X143599400Y-91525660D01*
X143609560Y-91543440D01*
X143607020Y-91553600D01*
X143594320Y-91586620D01*
X143574000Y-91634880D01*
X143548600Y-91695840D01*
X143490180Y-91827920D01*
X143403820Y-91845700D01*
X143350480Y-91855860D01*
X143276820Y-91868560D01*
X143205700Y-91883800D01*
X143093940Y-91904120D01*
X143091400Y-92307980D01*
X143109180Y-92315600D01*
X143124420Y-92320680D01*
X143165060Y-92330840D01*
X143223480Y-92341000D01*
X143292060Y-92353700D01*
X143353020Y-92366400D01*
X143411440Y-92376560D01*
X143454620Y-92384180D01*
X143472400Y-92389260D01*
X143477480Y-92394340D01*
X143492720Y-92424820D01*
X143513040Y-92470540D01*
X143535900Y-92523880D01*
X143561300Y-92582300D01*
X143581620Y-92633100D01*
X143596860Y-92673740D01*
X143601940Y-92694060D01*
X143594320Y-92709300D01*
X143571460Y-92744860D01*
X143538440Y-92795660D01*
X143497800Y-92854080D01*
X143457160Y-92912500D01*
X143424140Y-92963300D01*
X143398740Y-92998860D01*
X143391120Y-93016640D01*
X143396200Y-93026800D01*
X143419060Y-93054740D01*
X143462240Y-93100460D01*
X143528280Y-93166500D01*
X143540980Y-93176660D01*
X143591780Y-93227460D01*
X143637500Y-93268100D01*
X143667980Y-93296040D01*
X143680680Y-93306200D01*
D11*
X158170000Y-89960000D02*
X158170000Y-93360000D01*
X158170000Y-93360000D02*
X156370000Y-93360000D01*
X156370000Y-93360000D02*
X156370000Y-89960000D01*
X156370000Y-89960000D02*
X158170000Y-89960000D01*
X156838200Y-92091800D02*
X156838200Y-92498200D01*
X156838200Y-92498200D02*
X157701800Y-92498200D01*
X157701800Y-92091800D02*
X157701800Y-92498200D01*
X156838200Y-92091800D02*
X157701800Y-92091800D01*
X156838200Y-90821800D02*
X156838200Y-91228200D01*
X156838200Y-91228200D02*
X157701800Y-91228200D01*
X157701800Y-90821800D02*
X157701800Y-91228200D01*
X156838200Y-90821800D02*
X157701800Y-90821800D01*
X156914400Y-91228200D02*
X156914400Y-92091800D01*
X157625600Y-92091800D02*
X157625600Y-91228200D01*
D13*
X138232328Y-92763139D02*
X138681725Y-92543953D01*
X138617526Y-92575265D02*
X138665282Y-92591709D01*
X138728694Y-92640253D01*
X138775662Y-92736552D01*
X138774875Y-92816408D01*
X138726331Y-92879820D01*
X138373233Y-93052037D01*
X138726331Y-92879820D02*
X138806187Y-92880607D01*
X138869599Y-92929151D01*
X138916567Y-93025450D01*
X138915780Y-93105306D01*
X138867236Y-93168718D01*
X138514139Y-93340936D01*
X138811605Y-93950831D02*
X139164702Y-93778614D01*
X139213246Y-93715202D01*
X139214033Y-93635346D01*
X139151409Y-93506947D01*
X139087997Y-93458403D01*
X138843705Y-93935175D02*
X138780292Y-93886631D01*
X138702012Y-93726133D01*
X138702800Y-93646276D01*
X138751343Y-93582865D01*
X138815543Y-93551552D01*
X138895398Y-93552340D01*
X138958811Y-93600883D01*
X139037091Y-93761382D01*
X139100503Y-93809926D01*
X139015134Y-94368128D02*
X139015922Y-94288272D01*
X139064465Y-94224860D01*
X139642261Y-93943050D01*
X139297732Y-94866068D02*
X139234319Y-94817525D01*
X139171695Y-94689126D01*
X139172483Y-94609269D01*
X139221026Y-94545858D01*
X139477824Y-94420609D01*
X139557680Y-94421396D01*
X139621092Y-94469940D01*
X139683716Y-94598339D01*
X139682929Y-94678195D01*
X139634385Y-94741607D01*
X139570186Y-94772919D01*
X139349425Y-94483233D01*
X160888298Y-94808026D02*
X160438901Y-94588840D01*
X160503100Y-94620152D02*
X160486657Y-94572396D01*
X160485869Y-94492541D01*
X160532837Y-94396241D01*
X160596249Y-94347697D01*
X160676105Y-94346910D01*
X161029203Y-94519127D01*
X160676105Y-94346910D02*
X160627561Y-94283498D01*
X160626774Y-94203642D01*
X160673743Y-94107343D01*
X160737154Y-94058800D01*
X160817011Y-94058012D01*
X161170108Y-94230229D01*
X161467574Y-93620333D02*
X161114477Y-93448116D01*
X161034621Y-93448903D01*
X160971209Y-93497447D01*
X160908584Y-93625846D01*
X160909371Y-93705702D01*
X161435474Y-93604677D02*
X161436262Y-93684533D01*
X161357981Y-93845032D01*
X161294568Y-93893575D01*
X161214713Y-93894363D01*
X161150513Y-93863050D01*
X161101970Y-93799639D01*
X161101182Y-93719783D01*
X161179463Y-93559284D01*
X161178676Y-93479428D01*
X161671103Y-93203037D02*
X161607691Y-93251579D01*
X161527835Y-93252368D01*
X160950039Y-92970558D01*
X161889501Y-92673783D02*
X161890289Y-92753640D01*
X161827664Y-92882039D01*
X161764252Y-92930582D01*
X161684397Y-92931370D01*
X161427598Y-92806121D01*
X161379054Y-92742709D01*
X161378267Y-92662853D01*
X161440892Y-92534454D01*
X161504304Y-92485910D01*
X161584160Y-92485123D01*
X161648359Y-92516435D01*
X161555997Y-92868745D01*
D11*
X155043334Y-88897143D02*
X154995715Y-88944762D01*
X154852858Y-88992381D01*
X154757620Y-88992381D01*
X154614762Y-88944762D01*
X154519524Y-88849524D01*
X154471905Y-88754286D01*
X154424286Y-88563810D01*
X154424286Y-88420952D01*
X154471905Y-88230476D01*
X154519524Y-88135238D01*
X154614762Y-88040000D01*
X154757620Y-87992381D01*
X154852858Y-87992381D01*
X154995715Y-88040000D01*
X155043334Y-88087619D01*
X155424286Y-88087619D02*
X155471905Y-88040000D01*
X155567143Y-87992381D01*
X155805239Y-87992381D01*
X155900477Y-88040000D01*
X155948096Y-88087619D01*
X155995715Y-88182857D01*
X155995715Y-88278095D01*
X155948096Y-88420952D01*
X155376667Y-88992381D01*
X155995715Y-88992381D01*
X157283334Y-89642381D02*
X156950000Y-89166190D01*
X156711905Y-89642381D02*
X156711905Y-88642381D01*
X157092858Y-88642381D01*
X157188096Y-88690000D01*
X157235715Y-88737619D01*
X157283334Y-88832857D01*
X157283334Y-88975714D01*
X157235715Y-89070952D01*
X157188096Y-89118571D01*
X157092858Y-89166190D01*
X156711905Y-89166190D01*
X157664286Y-88737619D02*
X157711905Y-88690000D01*
X157807143Y-88642381D01*
X158045239Y-88642381D01*
X158140477Y-88690000D01*
X158188096Y-88737619D01*
X158235715Y-88832857D01*
X158235715Y-88928095D01*
X158188096Y-89070952D01*
X157616667Y-89642381D01*
X158235715Y-89642381D01*
%LPC*%
D14*
X140976565Y-94855471D03*
X138136897Y-94827466D03*
X139863103Y-92572534D03*
X137023435Y-92544529D03*
D15*
X152155000Y-90180000D03*
X150885000Y-91450000D03*
X152155000Y-91450000D03*
X150885000Y-92720000D03*
X152155000Y-92720000D03*
D16*
X150885000Y-90180000D03*
D17*
X150885000Y-90180000D03*
X152155000Y-90180000D03*
X150885000Y-92720000D03*
X152155000Y-92720000D03*
D14*
X161516371Y-95968934D03*
X159790166Y-93714003D03*
X162629834Y-93685997D03*
X160903629Y-91431066D03*
D18*
X143780000Y-96640000D03*
D19*
X146320000Y-96640000D03*
X148860000Y-96640000D03*
X151400000Y-96640000D03*
X153940000Y-96640000D03*
X156480000Y-96640000D03*
D20*
X155270000Y-90340040D03*
X155270000Y-92239960D03*
D21*
X157270000Y-90811640D03*
X157270000Y-92508360D03*
M02*
