G04 #@! TF.FileFunction,Soldermask,Bot*
%FSLAX46Y46*%
G04 Gerber Fmt 4.6, Leading zero omitted, Abs format (unit mm)*
G04 Created by KiCad (PCBNEW (2015-03-12 BZR 5508)-product) date Fri 13 Mar 2015 11:06:32 PM CET*
%MOMM*%
G01*
G04 APERTURE LIST*
%ADD10C,0.100000*%
%ADD11R,1.700000X1.700000*%
%ADD12C,1.700000*%
%ADD13C,1.450000*%
%ADD14R,1.150000X1.050000*%
%ADD15R,1.548600X1.347940*%
%ADD16R,1.048220X1.149820*%
G04 APERTURE END LIST*
D10*
D11*
X143780000Y-96640000D03*
D12*
X146320000Y-96640000D03*
X148860000Y-96640000D03*
X151400000Y-96640000D03*
X153940000Y-96640000D03*
X156480000Y-96640000D03*
D13*
X137023435Y-92544529D03*
X139863103Y-92572534D03*
X138136897Y-94827466D03*
X140976565Y-94855471D03*
D14*
X158110000Y-90450000D03*
X158110000Y-92250000D03*
D13*
X160903629Y-91431066D03*
X162629834Y-93685997D03*
X159790166Y-93714003D03*
X161516371Y-95968934D03*
D15*
X156190000Y-90540040D03*
X156190000Y-92439960D03*
D10*
G36*
X138578729Y-100121783D02*
X137309043Y-101010827D01*
X136419999Y-99741141D01*
X137689685Y-98852097D01*
X138578729Y-100121783D01*
X138578729Y-100121783D01*
G37*
G36*
X134104833Y-93732397D02*
X132835147Y-94621441D01*
X131946103Y-93351755D01*
X133215789Y-92462711D01*
X134104833Y-93732397D01*
X134104833Y-93732397D01*
G37*
G36*
X162936799Y-100902284D02*
X161667113Y-100013240D01*
X162556157Y-98743554D01*
X163825843Y-99632598D01*
X162936799Y-100902284D01*
X162936799Y-100902284D01*
G37*
G36*
X167410695Y-94512898D02*
X166141009Y-93623854D01*
X167030053Y-92354168D01*
X168299739Y-93243212D01*
X167410695Y-94512898D01*
X167410695Y-94512898D01*
G37*
D16*
X157638360Y-94390000D03*
X155941640Y-94390000D03*
D10*
G36*
X149529017Y-94786400D02*
X149316885Y-94574268D01*
X149847215Y-94043938D01*
X150059347Y-94256070D01*
X149529017Y-94786400D01*
X149529017Y-94786400D01*
G37*
G36*
X149175463Y-94432847D02*
X148963331Y-94220715D01*
X149493661Y-93690385D01*
X149705793Y-93902517D01*
X149175463Y-94432847D01*
X149175463Y-94432847D01*
G37*
G36*
X148821910Y-94079293D02*
X148609778Y-93867161D01*
X149140108Y-93336831D01*
X149352240Y-93548963D01*
X148821910Y-94079293D01*
X148821910Y-94079293D01*
G37*
G36*
X148468356Y-93725740D02*
X148256224Y-93513608D01*
X148786554Y-92983278D01*
X148998686Y-93195410D01*
X148468356Y-93725740D01*
X148468356Y-93725740D01*
G37*
G36*
X148114803Y-93372187D02*
X147902671Y-93160055D01*
X148433001Y-92629725D01*
X148645133Y-92841857D01*
X148114803Y-93372187D01*
X148114803Y-93372187D01*
G37*
G36*
X147761250Y-93018633D02*
X147549118Y-92806501D01*
X148079448Y-92276171D01*
X148291580Y-92488303D01*
X147761250Y-93018633D01*
X147761250Y-93018633D01*
G37*
G36*
X147407696Y-92665080D02*
X147195564Y-92452948D01*
X147725894Y-91922618D01*
X147938026Y-92134750D01*
X147407696Y-92665080D01*
X147407696Y-92665080D01*
G37*
G36*
X147054143Y-92311526D02*
X146842011Y-92099394D01*
X147372341Y-91569064D01*
X147584473Y-91781196D01*
X147054143Y-92311526D01*
X147054143Y-92311526D01*
G37*
G36*
X146842011Y-90861958D02*
X147054143Y-90649826D01*
X147584473Y-91180156D01*
X147372341Y-91392288D01*
X146842011Y-90861958D01*
X146842011Y-90861958D01*
G37*
G36*
X147195564Y-90508404D02*
X147407696Y-90296272D01*
X147938026Y-90826602D01*
X147725894Y-91038734D01*
X147195564Y-90508404D01*
X147195564Y-90508404D01*
G37*
G36*
X147549118Y-90154851D02*
X147761250Y-89942719D01*
X148291580Y-90473049D01*
X148079448Y-90685181D01*
X147549118Y-90154851D01*
X147549118Y-90154851D01*
G37*
G36*
X147902671Y-89801297D02*
X148114803Y-89589165D01*
X148645133Y-90119495D01*
X148433001Y-90331627D01*
X147902671Y-89801297D01*
X147902671Y-89801297D01*
G37*
G36*
X148256224Y-89447744D02*
X148468356Y-89235612D01*
X148998686Y-89765942D01*
X148786554Y-89978074D01*
X148256224Y-89447744D01*
X148256224Y-89447744D01*
G37*
G36*
X148609778Y-89094191D02*
X148821910Y-88882059D01*
X149352240Y-89412389D01*
X149140108Y-89624521D01*
X148609778Y-89094191D01*
X148609778Y-89094191D01*
G37*
G36*
X148963331Y-88740637D02*
X149175463Y-88528505D01*
X149705793Y-89058835D01*
X149493661Y-89270967D01*
X148963331Y-88740637D01*
X148963331Y-88740637D01*
G37*
G36*
X149316885Y-88387084D02*
X149529017Y-88174952D01*
X150059347Y-88705282D01*
X149847215Y-88917414D01*
X149316885Y-88387084D01*
X149316885Y-88387084D01*
G37*
G36*
X150448255Y-88917414D02*
X150236123Y-88705282D01*
X150766453Y-88174952D01*
X150978585Y-88387084D01*
X150448255Y-88917414D01*
X150448255Y-88917414D01*
G37*
G36*
X150801809Y-89270967D02*
X150589677Y-89058835D01*
X151120007Y-88528505D01*
X151332139Y-88740637D01*
X150801809Y-89270967D01*
X150801809Y-89270967D01*
G37*
G36*
X151155362Y-89624521D02*
X150943230Y-89412389D01*
X151473560Y-88882059D01*
X151685692Y-89094191D01*
X151155362Y-89624521D01*
X151155362Y-89624521D01*
G37*
G36*
X151508916Y-89978074D02*
X151296784Y-89765942D01*
X151827114Y-89235612D01*
X152039246Y-89447744D01*
X151508916Y-89978074D01*
X151508916Y-89978074D01*
G37*
G36*
X151862469Y-90331627D02*
X151650337Y-90119495D01*
X152180667Y-89589165D01*
X152392799Y-89801297D01*
X151862469Y-90331627D01*
X151862469Y-90331627D01*
G37*
G36*
X152216022Y-90685181D02*
X152003890Y-90473049D01*
X152534220Y-89942719D01*
X152746352Y-90154851D01*
X152216022Y-90685181D01*
X152216022Y-90685181D01*
G37*
G36*
X152569576Y-91038734D02*
X152357444Y-90826602D01*
X152887774Y-90296272D01*
X153099906Y-90508404D01*
X152569576Y-91038734D01*
X152569576Y-91038734D01*
G37*
G36*
X152923129Y-91392288D02*
X152710997Y-91180156D01*
X153241327Y-90649826D01*
X153453459Y-90861958D01*
X152923129Y-91392288D01*
X152923129Y-91392288D01*
G37*
G36*
X152710997Y-91781196D02*
X152923129Y-91569064D01*
X153453459Y-92099394D01*
X153241327Y-92311526D01*
X152710997Y-91781196D01*
X152710997Y-91781196D01*
G37*
G36*
X152357444Y-92134750D02*
X152569576Y-91922618D01*
X153099906Y-92452948D01*
X152887774Y-92665080D01*
X152357444Y-92134750D01*
X152357444Y-92134750D01*
G37*
G36*
X152003890Y-92488303D02*
X152216022Y-92276171D01*
X152746352Y-92806501D01*
X152534220Y-93018633D01*
X152003890Y-92488303D01*
X152003890Y-92488303D01*
G37*
G36*
X151650337Y-92841857D02*
X151862469Y-92629725D01*
X152392799Y-93160055D01*
X152180667Y-93372187D01*
X151650337Y-92841857D01*
X151650337Y-92841857D01*
G37*
G36*
X151296784Y-93195410D02*
X151508916Y-92983278D01*
X152039246Y-93513608D01*
X151827114Y-93725740D01*
X151296784Y-93195410D01*
X151296784Y-93195410D01*
G37*
G36*
X150943230Y-93548963D02*
X151155362Y-93336831D01*
X151685692Y-93867161D01*
X151473560Y-94079293D01*
X150943230Y-93548963D01*
X150943230Y-93548963D01*
G37*
G36*
X150589677Y-93902517D02*
X150801809Y-93690385D01*
X151332139Y-94220715D01*
X151120007Y-94432847D01*
X150589677Y-93902517D01*
X150589677Y-93902517D01*
G37*
G36*
X150236123Y-94256070D02*
X150448255Y-94043938D01*
X150978585Y-94574268D01*
X150766453Y-94786400D01*
X150236123Y-94256070D01*
X150236123Y-94256070D01*
G37*
G36*
X150147735Y-91516032D02*
X148892620Y-90260917D01*
X150147735Y-89005802D01*
X151402850Y-90260917D01*
X150147735Y-91516032D01*
X150147735Y-91516032D01*
G37*
G36*
X151367494Y-92735791D02*
X150112379Y-91480676D01*
X151367494Y-90225561D01*
X152622609Y-91480676D01*
X151367494Y-92735791D01*
X151367494Y-92735791D01*
G37*
G36*
X148927976Y-92735791D02*
X147672861Y-91480676D01*
X148927976Y-90225561D01*
X150183091Y-91480676D01*
X148927976Y-92735791D01*
X148927976Y-92735791D01*
G37*
G36*
X150147735Y-93955550D02*
X148892620Y-92700435D01*
X150147735Y-91445320D01*
X151402850Y-92700435D01*
X150147735Y-93955550D01*
X150147735Y-93955550D01*
G37*
M02*
