G04 #@! TF.FileFunction,Copper,L1,Top,Signal*
%FSLAX46Y46*%
G04 Gerber Fmt 4.6, Leading zero omitted, Abs format (unit mm)*
G04 Created by KiCad (PCBNEW (2015-03-12 BZR 5508)-product) date Fri 13 Mar 2015 11:06:32 PM CET*
%MOMM*%
G01*
G04 APERTURE LIST*
%ADD10C,0.100000*%
%ADD11C,0.160000*%
%ADD12R,1.650000X1.650000*%
%ADD13C,1.650000*%
%ADD14C,0.762000*%
%ADD15R,0.762000X0.762000*%
%ADD16C,1.400000*%
%ADD17R,2.000000X0.600000*%
%ADD18R,1.498600X1.297940*%
%ADD19R,1.099820X0.998220*%
%ADD20C,0.609600*%
%ADD21C,0.203200*%
%ADD22C,0.254000*%
G04 APERTURE END LIST*
D10*
D11*
X146059524Y-87760714D02*
X146059524Y-88286905D01*
X146028572Y-88348810D01*
X145997620Y-88379762D01*
X145935715Y-88410714D01*
X145842858Y-88410714D01*
X145780953Y-88379762D01*
X146059524Y-88163095D02*
X145997620Y-88194048D01*
X145873810Y-88194048D01*
X145811905Y-88163095D01*
X145780953Y-88132143D01*
X145750001Y-88070238D01*
X145750001Y-87884524D01*
X145780953Y-87822619D01*
X145811905Y-87791667D01*
X145873810Y-87760714D01*
X145997620Y-87760714D01*
X146059524Y-87791667D01*
X146461905Y-88194048D02*
X146400000Y-88163095D01*
X146369048Y-88132143D01*
X146338096Y-88070238D01*
X146338096Y-87884524D01*
X146369048Y-87822619D01*
X146400000Y-87791667D01*
X146461905Y-87760714D01*
X146554762Y-87760714D01*
X146616667Y-87791667D01*
X146647619Y-87822619D01*
X146678572Y-87884524D01*
X146678572Y-88070238D01*
X146647619Y-88132143D01*
X146616667Y-88163095D01*
X146554762Y-88194048D01*
X146461905Y-88194048D01*
X147050000Y-88194048D02*
X146988095Y-88163095D01*
X146957143Y-88132143D01*
X146926191Y-88070238D01*
X146926191Y-87884524D01*
X146957143Y-87822619D01*
X146988095Y-87791667D01*
X147050000Y-87760714D01*
X147142857Y-87760714D01*
X147204762Y-87791667D01*
X147235714Y-87822619D01*
X147266667Y-87884524D01*
X147266667Y-88070238D01*
X147235714Y-88132143D01*
X147204762Y-88163095D01*
X147142857Y-88194048D01*
X147050000Y-88194048D01*
X147545238Y-88132143D02*
X147576190Y-88163095D01*
X147545238Y-88194048D01*
X147514286Y-88163095D01*
X147545238Y-88132143D01*
X147545238Y-88194048D01*
X148133333Y-87760714D02*
X148133333Y-88286905D01*
X148102381Y-88348810D01*
X148071429Y-88379762D01*
X148009524Y-88410714D01*
X147916667Y-88410714D01*
X147854762Y-88379762D01*
X148133333Y-88163095D02*
X148071429Y-88194048D01*
X147947619Y-88194048D01*
X147885714Y-88163095D01*
X147854762Y-88132143D01*
X147823810Y-88070238D01*
X147823810Y-87884524D01*
X147854762Y-87822619D01*
X147885714Y-87791667D01*
X147947619Y-87760714D01*
X148071429Y-87760714D01*
X148133333Y-87791667D01*
X148535714Y-88194048D02*
X148473809Y-88163095D01*
X148442857Y-88101190D01*
X148442857Y-87544048D01*
X149247619Y-87513095D02*
X148690476Y-88348810D01*
X149433333Y-88008333D02*
X149742856Y-88008333D01*
X149371428Y-88194048D02*
X149588094Y-87544048D01*
X149804761Y-88194048D01*
X149959523Y-88194048D02*
X150299999Y-87760714D01*
X149959523Y-87760714D02*
X150299999Y-88194048D01*
X150454761Y-87760714D02*
X150702380Y-87760714D01*
X150547618Y-87544048D02*
X150547618Y-88101190D01*
X150578570Y-88163095D01*
X150640475Y-88194048D01*
X150702380Y-88194048D01*
X150919047Y-88194048D02*
X150919047Y-87544048D01*
X151290475Y-88194048D02*
X151011904Y-87822619D01*
X151290475Y-87544048D02*
X150919047Y-87915476D01*
X151569047Y-88194048D02*
X151569047Y-87760714D01*
X151569047Y-87884524D02*
X151599999Y-87822619D01*
X151630952Y-87791667D01*
X151692856Y-87760714D01*
X151754761Y-87760714D01*
X152219047Y-88163095D02*
X152157142Y-88194048D01*
X152033333Y-88194048D01*
X151971428Y-88163095D01*
X151940476Y-88101190D01*
X151940476Y-87853571D01*
X151971428Y-87791667D01*
X152033333Y-87760714D01*
X152157142Y-87760714D01*
X152219047Y-87791667D01*
X152249999Y-87853571D01*
X152249999Y-87915476D01*
X151940476Y-87977381D01*
D12*
X143780000Y-96640000D03*
D13*
X146320000Y-96640000D03*
X148860000Y-96640000D03*
X151400000Y-96640000D03*
X153940000Y-96640000D03*
X156480000Y-96640000D03*
D14*
X142992751Y-89788042D03*
X142992751Y-91058042D03*
D15*
X144262751Y-89788042D03*
D14*
X144262751Y-91058042D03*
X141722751Y-89788042D03*
X141722751Y-91058042D03*
D16*
X137023435Y-92544529D03*
X139863103Y-92572534D03*
X138136897Y-94827466D03*
X140976565Y-94855471D03*
X160903629Y-91431066D03*
X162629834Y-93685997D03*
X159790166Y-93714003D03*
X161516371Y-95968934D03*
D17*
X150100000Y-92450000D03*
X150100000Y-91500000D03*
X150100000Y-90550000D03*
D18*
X155270000Y-92239960D03*
X155270000Y-90340040D03*
D19*
X157270000Y-92508360D03*
X157270000Y-90811640D03*
D10*
G36*
X132395053Y-96063128D02*
X130789039Y-93769502D01*
X131608191Y-93195926D01*
X133214205Y-95489552D01*
X132395053Y-96063128D01*
X132395053Y-96063128D01*
G37*
G36*
X134033357Y-94915975D02*
X132427343Y-92622349D01*
X133246495Y-92048773D01*
X134852509Y-94342399D01*
X134033357Y-94915975D01*
X134033357Y-94915975D01*
G37*
G36*
X135033505Y-99831227D02*
X133427491Y-97537601D01*
X134246643Y-96964025D01*
X135852657Y-99257651D01*
X135033505Y-99831227D01*
X135033505Y-99831227D01*
G37*
G36*
X136671809Y-98684074D02*
X135065795Y-96390448D01*
X135884947Y-95816872D01*
X137490961Y-98110498D01*
X136671809Y-98684074D01*
X136671809Y-98684074D01*
G37*
D20*
X145970000Y-91600000D03*
X146370000Y-92790000D03*
X136250000Y-93650000D03*
X154800000Y-93600000D03*
X154040000Y-90980000D03*
X152600000Y-88709620D03*
X156700000Y-89535910D03*
X146328891Y-93601772D03*
X138500000Y-92014220D03*
X139490000Y-90815020D03*
X148050000Y-94170000D03*
X151679944Y-91463829D03*
X146870000Y-94470000D03*
X153110000Y-93240000D03*
X151362883Y-95307505D03*
X153670000Y-95230000D03*
X145430000Y-94470000D03*
X150130000Y-95100000D03*
X139790000Y-95540000D03*
X141190000Y-93190260D03*
X143600000Y-93060000D03*
X153058702Y-94051192D03*
X155702104Y-95557504D03*
X142395020Y-92580555D03*
X138410000Y-98490000D03*
D21*
X147020000Y-90550000D02*
X146274799Y-91295201D01*
X150100000Y-90550000D02*
X147020000Y-90550000D01*
X146274799Y-91295201D02*
X145970000Y-91600000D01*
X150100000Y-92450000D02*
X146710000Y-92450000D01*
X146710000Y-92450000D02*
X146674799Y-92485201D01*
X146674799Y-92485201D02*
X146370000Y-92790000D01*
D22*
X142993122Y-89787671D02*
X142992751Y-89788042D01*
X142937482Y-91113311D02*
X142992751Y-91058042D01*
X135800000Y-93200000D02*
X136250000Y-93650000D01*
X136370000Y-91430000D02*
X135800000Y-92000000D01*
X142281550Y-91769243D02*
X141119243Y-91769243D01*
X135800000Y-92000000D02*
X135800000Y-93200000D01*
X140780000Y-91430000D02*
X136370000Y-91430000D01*
X142992751Y-91058042D02*
X142281550Y-91769243D01*
X141119243Y-91769243D02*
X140780000Y-91430000D01*
D21*
X154215899Y-93015899D02*
X154495201Y-93295201D01*
X144262751Y-89788042D02*
X151103704Y-89788042D01*
X151103704Y-89788042D02*
X154215899Y-92900237D01*
X154495201Y-93295201D02*
X154800000Y-93600000D01*
X154215899Y-92900237D02*
X154215899Y-93015899D01*
D22*
X144287978Y-89762815D02*
X144262751Y-89788042D01*
D21*
X152750000Y-90350000D02*
X154050871Y-90350000D01*
X154050871Y-90350000D02*
X155260040Y-90350000D01*
X154040000Y-90360871D02*
X154050871Y-90350000D01*
X154040000Y-90980000D02*
X154040000Y-90360871D01*
X141722751Y-89788042D02*
X142410793Y-89100000D01*
X142410793Y-89100000D02*
X151500000Y-89100000D01*
X151500000Y-89100000D02*
X152750000Y-90350000D01*
X155260040Y-90350000D02*
X155270000Y-90340040D01*
X156400000Y-90517540D02*
X156400000Y-90694750D01*
X156400000Y-90694750D02*
X156516890Y-90811640D01*
X156516890Y-90811640D02*
X157270000Y-90811640D01*
X155270000Y-90340040D02*
X156222500Y-90340040D01*
X156222500Y-90340040D02*
X156400000Y-90517540D01*
D22*
X158400000Y-92334670D02*
X158400000Y-90161098D01*
X158400000Y-90161098D02*
X157774812Y-89535910D01*
X157774812Y-89535910D02*
X156700000Y-89535910D01*
X157270000Y-92508360D02*
X158226310Y-92508360D01*
X158226310Y-92508360D02*
X158400000Y-92334670D01*
X145139594Y-92639594D02*
X145139594Y-93500000D01*
X144262751Y-91762751D02*
X145139594Y-92639594D01*
X144262751Y-91058042D02*
X144262751Y-91762751D01*
D21*
X138195201Y-92319019D02*
X138500000Y-92014220D01*
X138500000Y-92000000D02*
X138500000Y-92014220D01*
X138136897Y-92377323D02*
X138195201Y-92319019D01*
X138136897Y-94827466D02*
X138136897Y-92377323D01*
X138400000Y-91900000D02*
X138500000Y-92000000D01*
X152600000Y-88709620D02*
X141595400Y-88709620D01*
X141595400Y-88709620D02*
X139794799Y-90510221D01*
X139794799Y-90510221D02*
X139490000Y-90815020D01*
D22*
X148860000Y-95473274D02*
X148860000Y-96640000D01*
X148050000Y-94663274D02*
X148860000Y-95473274D01*
X148050000Y-94170000D02*
X148050000Y-94663274D01*
X146759943Y-93601772D02*
X146328891Y-93601772D01*
X147481772Y-93601772D02*
X146759943Y-93601772D01*
X148050000Y-94170000D02*
X147481772Y-93601772D01*
X144234532Y-93825270D02*
X144559802Y-93500000D01*
X144559802Y-93500000D02*
X145139594Y-93500000D01*
X139139093Y-93825270D02*
X144234532Y-93825270D01*
X138136897Y-94827466D02*
X139139093Y-93825270D01*
X146162118Y-93434999D02*
X146328891Y-93601772D01*
X145204595Y-93434999D02*
X146162118Y-93434999D01*
X145139594Y-93500000D02*
X145204595Y-93434999D01*
D21*
X150100000Y-91500000D02*
X151643773Y-91500000D01*
X151643773Y-91500000D02*
X151679944Y-91463829D01*
D22*
X143780000Y-96640000D02*
X144389802Y-96640000D01*
X144389802Y-96640000D02*
X146255003Y-94774799D01*
X146565201Y-94774799D02*
X146870000Y-94470000D01*
X146255003Y-94774799D02*
X146565201Y-94774799D01*
D21*
X152999336Y-93240000D02*
X153110000Y-93240000D01*
X151362883Y-95307505D02*
X151362883Y-94876453D01*
X151362883Y-94876453D02*
X152999336Y-93240000D01*
D22*
X153238948Y-95230000D02*
X153670000Y-95230000D01*
X152810000Y-95230000D02*
X153238948Y-95230000D01*
X151400000Y-96640000D02*
X152810000Y-95230000D01*
D21*
X154087558Y-95230000D02*
X154473569Y-95616011D01*
X155800000Y-97870000D02*
X157320000Y-97870000D01*
X157320000Y-97870000D02*
X159790166Y-95399834D01*
X154473569Y-95616011D02*
X154673569Y-95616011D01*
X155270000Y-96212442D02*
X155270000Y-97340000D01*
X159790166Y-95399834D02*
X159790166Y-94703952D01*
X154673569Y-95616011D02*
X155270000Y-96212442D01*
X153670000Y-95230000D02*
X154087558Y-95230000D01*
X155270000Y-97340000D02*
X155800000Y-97870000D01*
X159790166Y-94703952D02*
X159790166Y-93714003D01*
D22*
X157498861Y-98301810D02*
X160903629Y-94897042D01*
X155601810Y-98301810D02*
X157498861Y-98301810D01*
X160903629Y-92421015D02*
X160903629Y-91431066D01*
X153940000Y-96640000D02*
X155601810Y-98301810D01*
X160903629Y-94897042D02*
X160903629Y-92421015D01*
X145125201Y-94774799D02*
X145430000Y-94470000D01*
X145044529Y-94855471D02*
X145125201Y-94774799D01*
X140976565Y-94855471D02*
X145044529Y-94855471D01*
D21*
X139790000Y-95540000D02*
X139270000Y-95540000D01*
X136788851Y-96740000D02*
X136278378Y-97250473D01*
X139270000Y-95540000D02*
X138070000Y-96740000D01*
X138070000Y-96740000D02*
X136788851Y-96740000D01*
X155410583Y-94403857D02*
X154643981Y-94403857D01*
X153719601Y-93479477D02*
X153719601Y-92978689D01*
X155835204Y-94828478D02*
X155410583Y-94403857D01*
X150434799Y-94795201D02*
X150130000Y-95100000D01*
X153719601Y-92978689D02*
X153206261Y-92465349D01*
X152764651Y-92465349D02*
X150434799Y-94795201D01*
X154643981Y-94403857D02*
X153719601Y-93479477D01*
X153206261Y-92465349D02*
X152764651Y-92465349D01*
X156480000Y-96640000D02*
X156480000Y-95473274D01*
X155835204Y-94828478D02*
X155835204Y-93657334D01*
X156480000Y-95473274D02*
X155835204Y-94828478D01*
X155270000Y-93092130D02*
X155270000Y-92239960D01*
X155835204Y-93657334D02*
X155270000Y-93092130D01*
X141190000Y-93190260D02*
X143469740Y-93190260D01*
X143469740Y-93190260D02*
X143600000Y-93060000D01*
X154648163Y-95209601D02*
X155354201Y-95209601D01*
X155397305Y-95252705D02*
X155702104Y-95557504D01*
X153058702Y-94051192D02*
X153489754Y-94051192D01*
X155354201Y-95209601D02*
X155397305Y-95252705D01*
X153489754Y-94051192D02*
X154648163Y-95209601D01*
X142386999Y-92572534D02*
X142395020Y-92580555D01*
X139863103Y-92572534D02*
X142386999Y-92572534D01*
X135370000Y-99480000D02*
X136540000Y-100650000D01*
X136540000Y-100650000D02*
X136850000Y-100650000D01*
X135370000Y-99127552D02*
X135370000Y-99480000D01*
X134640074Y-98397626D02*
X135370000Y-99127552D01*
X138105201Y-98794799D02*
X138105201Y-99394799D01*
X138410000Y-98490000D02*
X138105201Y-98794799D01*
X138105201Y-99394799D02*
X136850000Y-100650000D01*
M02*
