M48
INCH,TZ
T1C0.012
T2C0.015
T3C0.031
T4C0.040
%
G90
G05
T1
X5.3642Y-3.687
X5.4528Y-3.6142
X5.4921Y-3.5604
X5.5844Y-3.6446
X5.6424Y-3.6998
X5.7165Y-3.6654
X5.7541Y-3.6807
X5.7655Y-3.6453
X5.7696Y-3.613
X5.8147Y-3.708
X5.9134Y-3.7437
X5.9592Y-3.7523
X5.9717Y-3.6009
X6.0079Y-3.4925
X6.0259Y-3.7028
X6.028Y-3.6709
X6.05Y-3.7492
X6.063Y-3.6063
X6.0945Y-3.685
X6.13Y-3.7621
X6.1693Y-3.525
T2
X5.5796Y-3.535
X5.5796Y-3.585
X5.6296Y-3.535
X5.6296Y-3.585
X5.6796Y-3.535
X5.6796Y-3.585
T3
X5.3946Y-3.6435
X5.4385Y-3.7334
X5.5064Y-3.6446
X5.5503Y-3.7345
X6.291Y-3.6895
X6.3348Y-3.5996
X6.3589Y-3.7783
X6.4027Y-3.6884
T4
X5.6606Y-3.8047
X5.7606Y-3.8047
X5.8606Y-3.8047
X5.9606Y-3.8047
X6.0606Y-3.8047
X6.1606Y-3.8047
T0
M30
