M48
METRIC,TZ
T1C0.305
T2C0.381
T3C0.800
T4C1.016
%
G90
G05
T1
X136.718Y-94.094
X145.85Y-91.985
X146.348Y-92.627
X146.941Y-93.262
X147.855Y-94.148
X148.567Y-95.298
X151.68Y-91.464
X152.787Y-94.503
X153.393Y-89.425
X153.44Y-92.863
X154.156Y-90.5
X154.186Y-94.615
T2
X141.723Y-89.788
X141.723Y-91.058
X142.993Y-89.788
X142.993Y-91.058
X144.263Y-89.788
X144.263Y-91.058
T3
X137.023Y-92.545
X138.137Y-94.827
X139.863Y-92.573
X140.977Y-94.855
X159.79Y-93.714
X160.904Y-91.431
X161.516Y-95.969
X162.63Y-93.686
T4
X143.78Y-96.64
X146.32Y-96.64
X148.86Y-96.64
X151.4Y-96.64
X153.94Y-96.64
X156.48Y-96.64
T0
M30
